<?xml version="1.0" encoding="utf-8" standalone="no"?>
<!DOCTYPE svg PUBLIC "-//W3C//DTD SVG 1.1//EN"
  "http://www.w3.org/Graphics/SVG/1.1/DTD/svg11.dtd">
<svg height="327.930058pt" version="1.1" viewBox="0 0 524.546688 327.930058" width="524.546688pt" xmlns="http://www.w3.org/2000/svg" xmlns:xlink="http://www.w3.org/1999/xlink">
 <metadata>
  <rdf:RDF xmlns:cc="http://creativecommons.org/ns#" xmlns:dc="http://purl.org/dc/elements/1.1/" xmlns:rdf="http://www.w3.org/1999/02/22-rdf-syntax-ns#">
   <cc:Work>
    <dc:type rdf:resource="http://purl.org/dc/dcmitype/StillImage"/>
    <dc:date>2022-03-03T09:48:04.845540</dc:date>
    <dc:format>image/svg+xml</dc:format>
    <dc:creator>
     <cc:Agent>
      <dc:title>Matplotlib v3.4.2, https://matplotlib.org/</dc:title>
     </cc:Agent>
    </dc:creator>
   </cc:Work>
  </rdf:RDF>
 </metadata>
 <defs>
  <style type="text/css">*{stroke-linecap:butt;stroke-linejoin:round;}</style>
 </defs>
 <g id="figure_1">
  <g id="patch_1">
   <path d="M 0 327.930058 
L 524.546688 327.930058 
L 524.546688 0 
L 0 0 
z
" style="fill:#ffffff;stroke:#ffffff;stroke-linejoin:miter;"/>
  </g>
  <g id="axes_1">
   <g id="patch_2">
    <path d="M 41.190688 292.217371 
L 398.310688 292.217371 
L 398.310688 26.105371 
L 41.190688 26.105371 
z
" style="fill:#ebebeb;"/>
   </g>
   <g id="matplotlib.axis_1">
    <g id="xtick_1">
     <g id="line2d_1">
      <path clip-path="url(#pffc9b7b7b3)" d="M 150.013776 292.217371 
L 150.013776 26.105371 
" style="fill:none;stroke:#ffffff;"/>
     </g>
     <g id="line2d_2">
      <path d="M 150.013776 292.217371 
" style="fill:none;stroke:#333333;stroke-width:1.5;"/>
      <defs>
       <path d="M 0 0 
L 0 2.75 
" id="m83707c5dca" style="stroke:#000000;"/>
      </defs>
      <g>
       <use style="fill:#333333;stroke:#000000;" x="150.013776" xlink:href="#m83707c5dca" y="292.217371"/>
      </g>
     </g>
     <g id="text_1">
      <!-- 5000 -->
      <g style="fill:#4d4d4d;" transform="translate(138.815776 303.853996)scale(0.088 -0.088)">
       <defs>
        <path d="M 691 4666 
L 3169 4666 
L 3169 4134 
L 1269 4134 
L 1269 2991 
Q 1406 3038 1543 3061 
Q 1681 3084 1819 3084 
Q 2600 3084 3056 2656 
Q 3513 2228 3513 1497 
Q 3513 744 3044 326 
Q 2575 -91 1722 -91 
Q 1428 -91 1123 -41 
Q 819 9 494 109 
L 494 744 
Q 775 591 1075 516 
Q 1375 441 1709 441 
Q 2250 441 2565 725 
Q 2881 1009 2881 1497 
Q 2881 1984 2565 2268 
Q 2250 2553 1709 2553 
Q 1456 2553 1204 2497 
Q 953 2441 691 2322 
L 691 4666 
z
" id="DejaVuSans-35" transform="scale(0.015625)"/>
        <path d="M 2034 4250 
Q 1547 4250 1301 3770 
Q 1056 3291 1056 2328 
Q 1056 1369 1301 889 
Q 1547 409 2034 409 
Q 2525 409 2770 889 
Q 3016 1369 3016 2328 
Q 3016 3291 2770 3770 
Q 2525 4250 2034 4250 
z
M 2034 4750 
Q 2819 4750 3233 4129 
Q 3647 3509 3647 2328 
Q 3647 1150 3233 529 
Q 2819 -91 2034 -91 
Q 1250 -91 836 529 
Q 422 1150 422 2328 
Q 422 3509 836 4129 
Q 1250 4750 2034 4750 
z
" id="DejaVuSans-30" transform="scale(0.015625)"/>
       </defs>
       <use xlink:href="#DejaVuSans-35"/>
       <use x="63.623047" xlink:href="#DejaVuSans-30"/>
       <use x="127.246094" xlink:href="#DejaVuSans-30"/>
       <use x="190.869141" xlink:href="#DejaVuSans-30"/>
      </g>
     </g>
    </g>
    <g id="xtick_2">
     <g id="line2d_3">
      <path clip-path="url(#pffc9b7b7b3)" d="M 277.901015 292.217371 
L 277.901015 26.105371 
" style="fill:none;stroke:#ffffff;"/>
     </g>
     <g id="line2d_4">
      <path d="M 277.901015 292.217371 
" style="fill:none;stroke:#333333;stroke-width:1.5;"/>
      <g>
       <use style="fill:#333333;stroke:#000000;" x="277.901015" xlink:href="#m83707c5dca" y="292.217371"/>
      </g>
     </g>
     <g id="text_2">
      <!-- 10000 -->
      <g style="fill:#4d4d4d;" transform="translate(263.903515 303.853996)scale(0.088 -0.088)">
       <defs>
        <path d="M 794 531 
L 1825 531 
L 1825 4091 
L 703 3866 
L 703 4441 
L 1819 4666 
L 2450 4666 
L 2450 531 
L 3481 531 
L 3481 0 
L 794 0 
L 794 531 
z
" id="DejaVuSans-31" transform="scale(0.015625)"/>
       </defs>
       <use xlink:href="#DejaVuSans-31"/>
       <use x="63.623047" xlink:href="#DejaVuSans-30"/>
       <use x="127.246094" xlink:href="#DejaVuSans-30"/>
       <use x="190.869141" xlink:href="#DejaVuSans-30"/>
       <use x="254.492188" xlink:href="#DejaVuSans-30"/>
      </g>
     </g>
    </g>
    <g id="xtick_3">
     <g id="line2d_5">
      <path clip-path="url(#pffc9b7b7b3)" d="M 86.070156 292.217371 
L 86.070156 26.105371 
" style="fill:none;stroke:#ffffff;stroke-width:0.5;"/>
     </g>
    </g>
    <g id="xtick_4">
     <g id="line2d_6">
      <path clip-path="url(#pffc9b7b7b3)" d="M 213.957396 292.217371 
L 213.957396 26.105371 
" style="fill:none;stroke:#ffffff;stroke-width:0.5;"/>
     </g>
    </g>
    <g id="xtick_5">
     <g id="line2d_7">
      <path clip-path="url(#pffc9b7b7b3)" d="M 341.844635 292.217371 
L 341.844635 26.105371 
" style="fill:none;stroke:#ffffff;stroke-width:0.5;"/>
     </g>
    </g>
    <g id="text_3">
     <!-- Train sample count -->
     <g transform="translate(161.787953 318.442402)scale(0.11 -0.11)">
      <defs>
       <path d="M -19 4666 
L 3928 4666 
L 3928 4134 
L 2272 4134 
L 2272 0 
L 1638 0 
L 1638 4134 
L -19 4134 
L -19 4666 
z
" id="DejaVuSans-54" transform="scale(0.015625)"/>
       <path d="M 2631 2963 
Q 2534 3019 2420 3045 
Q 2306 3072 2169 3072 
Q 1681 3072 1420 2755 
Q 1159 2438 1159 1844 
L 1159 0 
L 581 0 
L 581 3500 
L 1159 3500 
L 1159 2956 
Q 1341 3275 1631 3429 
Q 1922 3584 2338 3584 
Q 2397 3584 2469 3576 
Q 2541 3569 2628 3553 
L 2631 2963 
z
" id="DejaVuSans-72" transform="scale(0.015625)"/>
       <path d="M 2194 1759 
Q 1497 1759 1228 1600 
Q 959 1441 959 1056 
Q 959 750 1161 570 
Q 1363 391 1709 391 
Q 2188 391 2477 730 
Q 2766 1069 2766 1631 
L 2766 1759 
L 2194 1759 
z
M 3341 1997 
L 3341 0 
L 2766 0 
L 2766 531 
Q 2569 213 2275 61 
Q 1981 -91 1556 -91 
Q 1019 -91 701 211 
Q 384 513 384 1019 
Q 384 1609 779 1909 
Q 1175 2209 1959 2209 
L 2766 2209 
L 2766 2266 
Q 2766 2663 2505 2880 
Q 2244 3097 1772 3097 
Q 1472 3097 1187 3025 
Q 903 2953 641 2809 
L 641 3341 
Q 956 3463 1253 3523 
Q 1550 3584 1831 3584 
Q 2591 3584 2966 3190 
Q 3341 2797 3341 1997 
z
" id="DejaVuSans-61" transform="scale(0.015625)"/>
       <path d="M 603 3500 
L 1178 3500 
L 1178 0 
L 603 0 
L 603 3500 
z
M 603 4863 
L 1178 4863 
L 1178 4134 
L 603 4134 
L 603 4863 
z
" id="DejaVuSans-69" transform="scale(0.015625)"/>
       <path d="M 3513 2113 
L 3513 0 
L 2938 0 
L 2938 2094 
Q 2938 2591 2744 2837 
Q 2550 3084 2163 3084 
Q 1697 3084 1428 2787 
Q 1159 2491 1159 1978 
L 1159 0 
L 581 0 
L 581 3500 
L 1159 3500 
L 1159 2956 
Q 1366 3272 1645 3428 
Q 1925 3584 2291 3584 
Q 2894 3584 3203 3211 
Q 3513 2838 3513 2113 
z
" id="DejaVuSans-6e" transform="scale(0.015625)"/>
       <path id="DejaVuSans-20" transform="scale(0.015625)"/>
       <path d="M 2834 3397 
L 2834 2853 
Q 2591 2978 2328 3040 
Q 2066 3103 1784 3103 
Q 1356 3103 1142 2972 
Q 928 2841 928 2578 
Q 928 2378 1081 2264 
Q 1234 2150 1697 2047 
L 1894 2003 
Q 2506 1872 2764 1633 
Q 3022 1394 3022 966 
Q 3022 478 2636 193 
Q 2250 -91 1575 -91 
Q 1294 -91 989 -36 
Q 684 19 347 128 
L 347 722 
Q 666 556 975 473 
Q 1284 391 1588 391 
Q 1994 391 2212 530 
Q 2431 669 2431 922 
Q 2431 1156 2273 1281 
Q 2116 1406 1581 1522 
L 1381 1569 
Q 847 1681 609 1914 
Q 372 2147 372 2553 
Q 372 3047 722 3315 
Q 1072 3584 1716 3584 
Q 2034 3584 2315 3537 
Q 2597 3491 2834 3397 
z
" id="DejaVuSans-73" transform="scale(0.015625)"/>
       <path d="M 3328 2828 
Q 3544 3216 3844 3400 
Q 4144 3584 4550 3584 
Q 5097 3584 5394 3201 
Q 5691 2819 5691 2113 
L 5691 0 
L 5113 0 
L 5113 2094 
Q 5113 2597 4934 2840 
Q 4756 3084 4391 3084 
Q 3944 3084 3684 2787 
Q 3425 2491 3425 1978 
L 3425 0 
L 2847 0 
L 2847 2094 
Q 2847 2600 2669 2842 
Q 2491 3084 2119 3084 
Q 1678 3084 1418 2786 
Q 1159 2488 1159 1978 
L 1159 0 
L 581 0 
L 581 3500 
L 1159 3500 
L 1159 2956 
Q 1356 3278 1631 3431 
Q 1906 3584 2284 3584 
Q 2666 3584 2933 3390 
Q 3200 3197 3328 2828 
z
" id="DejaVuSans-6d" transform="scale(0.015625)"/>
       <path d="M 1159 525 
L 1159 -1331 
L 581 -1331 
L 581 3500 
L 1159 3500 
L 1159 2969 
Q 1341 3281 1617 3432 
Q 1894 3584 2278 3584 
Q 2916 3584 3314 3078 
Q 3713 2572 3713 1747 
Q 3713 922 3314 415 
Q 2916 -91 2278 -91 
Q 1894 -91 1617 61 
Q 1341 213 1159 525 
z
M 3116 1747 
Q 3116 2381 2855 2742 
Q 2594 3103 2138 3103 
Q 1681 3103 1420 2742 
Q 1159 2381 1159 1747 
Q 1159 1113 1420 752 
Q 1681 391 2138 391 
Q 2594 391 2855 752 
Q 3116 1113 3116 1747 
z
" id="DejaVuSans-70" transform="scale(0.015625)"/>
       <path d="M 603 4863 
L 1178 4863 
L 1178 0 
L 603 0 
L 603 4863 
z
" id="DejaVuSans-6c" transform="scale(0.015625)"/>
       <path d="M 3597 1894 
L 3597 1613 
L 953 1613 
Q 991 1019 1311 708 
Q 1631 397 2203 397 
Q 2534 397 2845 478 
Q 3156 559 3463 722 
L 3463 178 
Q 3153 47 2828 -22 
Q 2503 -91 2169 -91 
Q 1331 -91 842 396 
Q 353 884 353 1716 
Q 353 2575 817 3079 
Q 1281 3584 2069 3584 
Q 2775 3584 3186 3129 
Q 3597 2675 3597 1894 
z
M 3022 2063 
Q 3016 2534 2758 2815 
Q 2500 3097 2075 3097 
Q 1594 3097 1305 2825 
Q 1016 2553 972 2059 
L 3022 2063 
z
" id="DejaVuSans-65" transform="scale(0.015625)"/>
       <path d="M 3122 3366 
L 3122 2828 
Q 2878 2963 2633 3030 
Q 2388 3097 2138 3097 
Q 1578 3097 1268 2742 
Q 959 2388 959 1747 
Q 959 1106 1268 751 
Q 1578 397 2138 397 
Q 2388 397 2633 464 
Q 2878 531 3122 666 
L 3122 134 
Q 2881 22 2623 -34 
Q 2366 -91 2075 -91 
Q 1284 -91 818 406 
Q 353 903 353 1747 
Q 353 2603 823 3093 
Q 1294 3584 2113 3584 
Q 2378 3584 2631 3529 
Q 2884 3475 3122 3366 
z
" id="DejaVuSans-63" transform="scale(0.015625)"/>
       <path d="M 1959 3097 
Q 1497 3097 1228 2736 
Q 959 2375 959 1747 
Q 959 1119 1226 758 
Q 1494 397 1959 397 
Q 2419 397 2687 759 
Q 2956 1122 2956 1747 
Q 2956 2369 2687 2733 
Q 2419 3097 1959 3097 
z
M 1959 3584 
Q 2709 3584 3137 3096 
Q 3566 2609 3566 1747 
Q 3566 888 3137 398 
Q 2709 -91 1959 -91 
Q 1206 -91 779 398 
Q 353 888 353 1747 
Q 353 2609 779 3096 
Q 1206 3584 1959 3584 
z
" id="DejaVuSans-6f" transform="scale(0.015625)"/>
       <path d="M 544 1381 
L 544 3500 
L 1119 3500 
L 1119 1403 
Q 1119 906 1312 657 
Q 1506 409 1894 409 
Q 2359 409 2629 706 
Q 2900 1003 2900 1516 
L 2900 3500 
L 3475 3500 
L 3475 0 
L 2900 0 
L 2900 538 
Q 2691 219 2414 64 
Q 2138 -91 1772 -91 
Q 1169 -91 856 284 
Q 544 659 544 1381 
z
M 1991 3584 
L 1991 3584 
z
" id="DejaVuSans-75" transform="scale(0.015625)"/>
       <path d="M 1172 4494 
L 1172 3500 
L 2356 3500 
L 2356 3053 
L 1172 3053 
L 1172 1153 
Q 1172 725 1289 603 
Q 1406 481 1766 481 
L 2356 481 
L 2356 0 
L 1766 0 
Q 1100 0 847 248 
Q 594 497 594 1153 
L 594 3053 
L 172 3053 
L 172 3500 
L 594 3500 
L 594 4494 
L 1172 4494 
z
" id="DejaVuSans-74" transform="scale(0.015625)"/>
      </defs>
      <use xlink:href="#DejaVuSans-54"/>
      <use x="46.333984" xlink:href="#DejaVuSans-72"/>
      <use x="87.447266" xlink:href="#DejaVuSans-61"/>
      <use x="148.726562" xlink:href="#DejaVuSans-69"/>
      <use x="176.509766" xlink:href="#DejaVuSans-6e"/>
      <use x="239.888672" xlink:href="#DejaVuSans-20"/>
      <use x="271.675781" xlink:href="#DejaVuSans-73"/>
      <use x="323.775391" xlink:href="#DejaVuSans-61"/>
      <use x="385.054688" xlink:href="#DejaVuSans-6d"/>
      <use x="482.466797" xlink:href="#DejaVuSans-70"/>
      <use x="545.943359" xlink:href="#DejaVuSans-6c"/>
      <use x="573.726562" xlink:href="#DejaVuSans-65"/>
      <use x="635.25" xlink:href="#DejaVuSans-20"/>
      <use x="667.037109" xlink:href="#DejaVuSans-63"/>
      <use x="722.017578" xlink:href="#DejaVuSans-6f"/>
      <use x="783.199219" xlink:href="#DejaVuSans-75"/>
      <use x="846.578125" xlink:href="#DejaVuSans-6e"/>
      <use x="909.957031" xlink:href="#DejaVuSans-74"/>
     </g>
    </g>
   </g>
   <g id="matplotlib.axis_2">
    <g id="ytick_1">
     <g id="line2d_8">
      <path clip-path="url(#pffc9b7b7b3)" d="M 41.190688 266.599239 
L 398.310688 266.599239 
" style="fill:none;stroke:#ffffff;"/>
     </g>
     <g id="line2d_9">
      <path d="M 41.190688 266.599239 
" style="fill:none;stroke:#333333;stroke-width:1.5;"/>
      <defs>
       <path d="M 0 0 
L -2.75 0 
" id="m0369e15cb9" style="stroke:#000000;"/>
      </defs>
      <g>
       <use style="fill:#333333;stroke:#000000;" x="41.190688" xlink:href="#m0369e15cb9" y="266.599239"/>
      </g>
     </g>
     <g id="text_4">
      <!-- 0 -->
      <g style="fill:#4d4d4d;" transform="translate(30.641688 269.027489)scale(0.088 -0.088)">
       <use xlink:href="#DejaVuSans-30"/>
      </g>
     </g>
    </g>
    <g id="ytick_2">
     <g id="line2d_10">
      <path clip-path="url(#pffc9b7b7b3)" d="M 41.190688 190.863713 
L 398.310688 190.863713 
" style="fill:none;stroke:#ffffff;"/>
     </g>
     <g id="line2d_11">
      <path d="M 41.190688 190.863713 
" style="fill:none;stroke:#333333;stroke-width:1.5;"/>
      <g>
       <use style="fill:#333333;stroke:#000000;" x="41.190688" xlink:href="#m0369e15cb9" y="190.863713"/>
      </g>
     </g>
     <g id="text_5">
      <!-- 0.2 -->
      <g style="fill:#4d4d4d;" transform="translate(22.245938 193.291963)scale(0.088 -0.088)">
       <defs>
        <path d="M 684 794 
L 1344 794 
L 1344 0 
L 684 0 
L 684 794 
z
" id="DejaVuSans-2e" transform="scale(0.015625)"/>
        <path d="M 1228 531 
L 3431 531 
L 3431 0 
L 469 0 
L 469 531 
Q 828 903 1448 1529 
Q 2069 2156 2228 2338 
Q 2531 2678 2651 2914 
Q 2772 3150 2772 3378 
Q 2772 3750 2511 3984 
Q 2250 4219 1831 4219 
Q 1534 4219 1204 4116 
Q 875 4013 500 3803 
L 500 4441 
Q 881 4594 1212 4672 
Q 1544 4750 1819 4750 
Q 2544 4750 2975 4387 
Q 3406 4025 3406 3419 
Q 3406 3131 3298 2873 
Q 3191 2616 2906 2266 
Q 2828 2175 2409 1742 
Q 1991 1309 1228 531 
z
" id="DejaVuSans-32" transform="scale(0.015625)"/>
       </defs>
       <use xlink:href="#DejaVuSans-30"/>
       <use x="63.623047" xlink:href="#DejaVuSans-2e"/>
       <use x="95.410156" xlink:href="#DejaVuSans-32"/>
      </g>
     </g>
    </g>
    <g id="ytick_3">
     <g id="line2d_12">
      <path clip-path="url(#pffc9b7b7b3)" d="M 41.190688 115.128188 
L 398.310688 115.128188 
" style="fill:none;stroke:#ffffff;"/>
     </g>
     <g id="line2d_13">
      <path d="M 41.190688 115.128188 
" style="fill:none;stroke:#333333;stroke-width:1.5;"/>
      <g>
       <use style="fill:#333333;stroke:#000000;" x="41.190688" xlink:href="#m0369e15cb9" y="115.128188"/>
      </g>
     </g>
     <g id="text_6">
      <!-- 0.4 -->
      <g style="fill:#4d4d4d;" transform="translate(22.245938 117.556438)scale(0.088 -0.088)">
       <defs>
        <path d="M 2419 4116 
L 825 1625 
L 2419 1625 
L 2419 4116 
z
M 2253 4666 
L 3047 4666 
L 3047 1625 
L 3713 1625 
L 3713 1100 
L 3047 1100 
L 3047 0 
L 2419 0 
L 2419 1100 
L 313 1100 
L 313 1709 
L 2253 4666 
z
" id="DejaVuSans-34" transform="scale(0.015625)"/>
       </defs>
       <use xlink:href="#DejaVuSans-30"/>
       <use x="63.623047" xlink:href="#DejaVuSans-2e"/>
       <use x="95.410156" xlink:href="#DejaVuSans-34"/>
      </g>
     </g>
    </g>
    <g id="ytick_4">
     <g id="line2d_14">
      <path clip-path="url(#pffc9b7b7b3)" d="M 41.190688 39.392662 
L 398.310688 39.392662 
" style="fill:none;stroke:#ffffff;"/>
     </g>
     <g id="line2d_15">
      <path d="M 41.190688 39.392662 
" style="fill:none;stroke:#333333;stroke-width:1.5;"/>
      <g>
       <use style="fill:#333333;stroke:#000000;" x="41.190688" xlink:href="#m0369e15cb9" y="39.392662"/>
      </g>
     </g>
     <g id="text_7">
      <!-- 0.6 -->
      <g style="fill:#4d4d4d;" transform="translate(22.245938 41.820912)scale(0.088 -0.088)">
       <defs>
        <path d="M 2113 2584 
Q 1688 2584 1439 2293 
Q 1191 2003 1191 1497 
Q 1191 994 1439 701 
Q 1688 409 2113 409 
Q 2538 409 2786 701 
Q 3034 994 3034 1497 
Q 3034 2003 2786 2293 
Q 2538 2584 2113 2584 
z
M 3366 4563 
L 3366 3988 
Q 3128 4100 2886 4159 
Q 2644 4219 2406 4219 
Q 1781 4219 1451 3797 
Q 1122 3375 1075 2522 
Q 1259 2794 1537 2939 
Q 1816 3084 2150 3084 
Q 2853 3084 3261 2657 
Q 3669 2231 3669 1497 
Q 3669 778 3244 343 
Q 2819 -91 2113 -91 
Q 1303 -91 875 529 
Q 447 1150 447 2328 
Q 447 3434 972 4092 
Q 1497 4750 2381 4750 
Q 2619 4750 2861 4703 
Q 3103 4656 3366 4563 
z
" id="DejaVuSans-36" transform="scale(0.015625)"/>
       </defs>
       <use xlink:href="#DejaVuSans-30"/>
       <use x="63.623047" xlink:href="#DejaVuSans-2e"/>
       <use x="95.410156" xlink:href="#DejaVuSans-36"/>
      </g>
     </g>
    </g>
    <g id="ytick_5">
     <g id="line2d_16">
      <path clip-path="url(#pffc9b7b7b3)" d="M 41.190688 228.731476 
L 398.310688 228.731476 
" style="fill:none;stroke:#ffffff;stroke-width:0.5;"/>
     </g>
    </g>
    <g id="ytick_6">
     <g id="line2d_17">
      <path clip-path="url(#pffc9b7b7b3)" d="M 41.190688 152.99595 
L 398.310688 152.99595 
" style="fill:none;stroke:#ffffff;stroke-width:0.5;"/>
     </g>
    </g>
    <g id="ytick_7">
     <g id="line2d_18">
      <path clip-path="url(#pffc9b7b7b3)" d="M 41.190688 77.260425 
L 398.310688 77.260425 
" style="fill:none;stroke:#ffffff;stroke-width:0.5;"/>
     </g>
    </g>
    <g id="text_8">
     <!-- Balanced Accuracy (Val Set) -->
     <g transform="translate(15.558281 234.774543)rotate(-90)scale(0.11 -0.11)">
      <defs>
       <path d="M 1259 2228 
L 1259 519 
L 2272 519 
Q 2781 519 3026 730 
Q 3272 941 3272 1375 
Q 3272 1813 3026 2020 
Q 2781 2228 2272 2228 
L 1259 2228 
z
M 1259 4147 
L 1259 2741 
L 2194 2741 
Q 2656 2741 2882 2914 
Q 3109 3088 3109 3444 
Q 3109 3797 2882 3972 
Q 2656 4147 2194 4147 
L 1259 4147 
z
M 628 4666 
L 2241 4666 
Q 2963 4666 3353 4366 
Q 3744 4066 3744 3513 
Q 3744 3084 3544 2831 
Q 3344 2578 2956 2516 
Q 3422 2416 3680 2098 
Q 3938 1781 3938 1306 
Q 3938 681 3513 340 
Q 3088 0 2303 0 
L 628 0 
L 628 4666 
z
" id="DejaVuSans-42" transform="scale(0.015625)"/>
       <path d="M 2906 2969 
L 2906 4863 
L 3481 4863 
L 3481 0 
L 2906 0 
L 2906 525 
Q 2725 213 2448 61 
Q 2172 -91 1784 -91 
Q 1150 -91 751 415 
Q 353 922 353 1747 
Q 353 2572 751 3078 
Q 1150 3584 1784 3584 
Q 2172 3584 2448 3432 
Q 2725 3281 2906 2969 
z
M 947 1747 
Q 947 1113 1208 752 
Q 1469 391 1925 391 
Q 2381 391 2643 752 
Q 2906 1113 2906 1747 
Q 2906 2381 2643 2742 
Q 2381 3103 1925 3103 
Q 1469 3103 1208 2742 
Q 947 2381 947 1747 
z
" id="DejaVuSans-64" transform="scale(0.015625)"/>
       <path d="M 2188 4044 
L 1331 1722 
L 3047 1722 
L 2188 4044 
z
M 1831 4666 
L 2547 4666 
L 4325 0 
L 3669 0 
L 3244 1197 
L 1141 1197 
L 716 0 
L 50 0 
L 1831 4666 
z
" id="DejaVuSans-41" transform="scale(0.015625)"/>
       <path d="M 2059 -325 
Q 1816 -950 1584 -1140 
Q 1353 -1331 966 -1331 
L 506 -1331 
L 506 -850 
L 844 -850 
Q 1081 -850 1212 -737 
Q 1344 -625 1503 -206 
L 1606 56 
L 191 3500 
L 800 3500 
L 1894 763 
L 2988 3500 
L 3597 3500 
L 2059 -325 
z
" id="DejaVuSans-79" transform="scale(0.015625)"/>
       <path d="M 1984 4856 
Q 1566 4138 1362 3434 
Q 1159 2731 1159 2009 
Q 1159 1288 1364 580 
Q 1569 -128 1984 -844 
L 1484 -844 
Q 1016 -109 783 600 
Q 550 1309 550 2009 
Q 550 2706 781 3412 
Q 1013 4119 1484 4856 
L 1984 4856 
z
" id="DejaVuSans-28" transform="scale(0.015625)"/>
       <path d="M 1831 0 
L 50 4666 
L 709 4666 
L 2188 738 
L 3669 4666 
L 4325 4666 
L 2547 0 
L 1831 0 
z
" id="DejaVuSans-56" transform="scale(0.015625)"/>
       <path d="M 3425 4513 
L 3425 3897 
Q 3066 4069 2747 4153 
Q 2428 4238 2131 4238 
Q 1616 4238 1336 4038 
Q 1056 3838 1056 3469 
Q 1056 3159 1242 3001 
Q 1428 2844 1947 2747 
L 2328 2669 
Q 3034 2534 3370 2195 
Q 3706 1856 3706 1288 
Q 3706 609 3251 259 
Q 2797 -91 1919 -91 
Q 1588 -91 1214 -16 
Q 841 59 441 206 
L 441 856 
Q 825 641 1194 531 
Q 1563 422 1919 422 
Q 2459 422 2753 634 
Q 3047 847 3047 1241 
Q 3047 1584 2836 1778 
Q 2625 1972 2144 2069 
L 1759 2144 
Q 1053 2284 737 2584 
Q 422 2884 422 3419 
Q 422 4038 858 4394 
Q 1294 4750 2059 4750 
Q 2388 4750 2728 4690 
Q 3069 4631 3425 4513 
z
" id="DejaVuSans-53" transform="scale(0.015625)"/>
       <path d="M 513 4856 
L 1013 4856 
Q 1481 4119 1714 3412 
Q 1947 2706 1947 2009 
Q 1947 1309 1714 600 
Q 1481 -109 1013 -844 
L 513 -844 
Q 928 -128 1133 580 
Q 1338 1288 1338 2009 
Q 1338 2731 1133 3434 
Q 928 4138 513 4856 
z
" id="DejaVuSans-29" transform="scale(0.015625)"/>
      </defs>
      <use xlink:href="#DejaVuSans-42"/>
      <use x="68.603516" xlink:href="#DejaVuSans-61"/>
      <use x="129.882812" xlink:href="#DejaVuSans-6c"/>
      <use x="157.666016" xlink:href="#DejaVuSans-61"/>
      <use x="218.945312" xlink:href="#DejaVuSans-6e"/>
      <use x="282.324219" xlink:href="#DejaVuSans-63"/>
      <use x="337.304688" xlink:href="#DejaVuSans-65"/>
      <use x="398.828125" xlink:href="#DejaVuSans-64"/>
      <use x="462.304688" xlink:href="#DejaVuSans-20"/>
      <use x="494.091797" xlink:href="#DejaVuSans-41"/>
      <use x="560.75" xlink:href="#DejaVuSans-63"/>
      <use x="615.730469" xlink:href="#DejaVuSans-63"/>
      <use x="670.710938" xlink:href="#DejaVuSans-75"/>
      <use x="734.089844" xlink:href="#DejaVuSans-72"/>
      <use x="775.203125" xlink:href="#DejaVuSans-61"/>
      <use x="836.482422" xlink:href="#DejaVuSans-63"/>
      <use x="891.462891" xlink:href="#DejaVuSans-79"/>
      <use x="950.642578" xlink:href="#DejaVuSans-20"/>
      <use x="982.429688" xlink:href="#DejaVuSans-28"/>
      <use x="1021.443359" xlink:href="#DejaVuSans-56"/>
      <use x="1082.101562" xlink:href="#DejaVuSans-61"/>
      <use x="1143.380859" xlink:href="#DejaVuSans-6c"/>
      <use x="1171.164062" xlink:href="#DejaVuSans-20"/>
      <use x="1202.951172" xlink:href="#DejaVuSans-53"/>
      <use x="1266.427734" xlink:href="#DejaVuSans-65"/>
      <use x="1327.951172" xlink:href="#DejaVuSans-74"/>
      <use x="1367.160156" xlink:href="#DejaVuSans-29"/>
     </g>
    </g>
   </g>
   <g id="PolyCollection_1">
    <path clip-path="url(#pffc9b7b7b3)" d="M 57.423415 234.154337 
L 57.423415 273.48724 
L 57.525725 273.431761 
L 57.551302 273.417902 
L 57.576879 273.404046 
L 57.602457 273.390194 
L 57.730344 273.320997 
L 57.755922 273.307169 
L 57.781499 273.293346 
L 57.832654 273.265711 
L 57.960541 273.196696 
L 58.114006 273.114011 
L 92.720293 258.651833 
L 92.95049 258.582893 
L 92.976067 258.57525 
L 93.001645 258.56761 
L 93.027222 258.559974 
L 93.078377 258.544709 
L 93.359729 258.460967 
L 93.385306 258.453372 
L 93.410884 258.44578 
L 93.462039 258.430604 
L 93.538771 258.407863 
L 93.820123 258.3247 
L 94.101475 258.241881 
L 128.042748 249.151181 
L 128.349678 249.066038 
L 128.400833 249.051829 
L 128.451987 249.037614 
L 128.477565 249.030505 
L 128.554297 249.00917 
L 128.989114 248.887744 
L 129.014691 248.88057 
L 129.065846 248.866214 
L 129.117001 248.851843 
L 129.244888 248.815859 
L 129.679705 248.692881 
L 130.088944 248.576255 
L 163.339626 237.234537 
L 163.774443 237.063418 
L 163.825598 237.043225 
L 163.851175 237.033123 
L 163.876753 237.023018 
L 163.953485 236.992682 
L 164.030217 236.962317 
L 164.592921 236.73871 
L 164.644076 236.7183 
L 164.695231 236.697876 
L 164.797541 236.656987 
L 164.951005 236.595439 
L 165.539287 236.356364 
L 166.101991 236.123184 
L 198.662082 221.206987 
L 199.173631 220.980351 
L 199.275941 220.934897 
L 199.327095 220.912154 
L 199.403828 220.878017 
L 199.506138 220.832462 
L 200.222306 220.512232 
L 200.273461 220.489264 
L 200.350193 220.454787 
L 200.478081 220.397258 
L 200.6827 220.305036 
L 201.398869 219.98045 
L 202.08946 219.664609 
L 233.95896 201.815096 
L 234.598396 201.458285 
L 234.700706 201.401399 
L 234.777438 201.358772 
L 234.85417 201.316178 
L 234.982058 201.245258 
L 235.851691 200.765422 
L 235.902846 200.737329 
L 236.005156 200.681188 
L 236.133043 200.611097 
L 236.388817 200.471196 
L 237.258451 199.998386 
L 238.076929 199.557481 
L 269.255838 185.142158 
L 269.997584 184.825539 
L 270.125471 184.770931 
L 270.151048 184.76001 
L 270.202203 184.738174 
L 270.330091 184.683623 
L 270.457978 184.629125 
L 271.455498 184.205892 
L 271.532231 184.17347 
L 271.63454 184.130271 
L 271.813583 184.054755 
L 272.094935 183.936297 
L 273.118032 183.507698 
L 274.089975 183.10364 
L 304.578293 171.040513 
L 305.422349 170.668337 
L 305.550236 170.611431 
L 305.575814 170.600033 
L 305.652546 170.565806 
L 305.780433 170.508651 
L 305.933898 170.439879 
L 307.084883 169.924242 
L 307.161615 169.889932 
L 307.289503 169.832766 
L 307.468545 169.752772 
L 307.801052 169.604332 
L 308.977614 169.08035 
L 310.077445 168.592366 
L 339.875171 156.441373 
L 340.821537 156.109888 
L 340.975002 156.056611 
L 341.000579 156.047745 
L 341.102889 156.012317 
L 341.230776 155.968118 
L 341.409818 155.9064 
L 342.714268 155.46249 
L 342.791 155.436699 
L 342.944465 155.385228 
L 343.149085 155.316826 
L 343.507169 155.197832 
L 344.837196 154.764404 
L 346.064914 154.376666 
L 375.197627 149.221616 
L 376.246302 149.181433 
L 376.425344 149.175506 
L 376.450922 149.174681 
L 376.553231 149.171438 
L 376.706696 149.166738 
L 376.911316 149.16078 
L 378.343653 149.128871 
L 378.420385 149.127642 
L 378.599427 149.124964 
L 378.829624 149.121908 
L 379.238864 149.117549 
L 380.696778 149.113099 
L 382.07796 149.124645 
L 382.07796 106.652489 
L 382.07796 106.652489 
L 380.696778 107.75911 
L 379.238864 108.911242 
L 378.829624 109.231656 
L 378.599427 109.411306 
L 378.420385 109.550743 
L 378.343653 109.610424 
L 376.911316 110.7158 
L 376.706696 110.872357 
L 376.553231 110.989551 
L 376.450922 111.067574 
L 376.425344 111.087066 
L 376.246302 111.223362 
L 375.197627 112.016367 
L 346.064914 130.057686 
L 344.837196 130.646863 
L 343.507169 131.271448 
L 343.149085 131.437244 
L 342.944465 131.531536 
L 342.791 131.602036 
L 342.714268 131.637217 
L 341.409818 132.228323 
L 341.230776 132.308454 
L 341.102889 132.365546 
L 341.000579 132.411133 
L 340.975002 132.422518 
L 340.821537 132.490729 
L 339.875171 132.907661 
L 310.077445 144.221163 
L 308.977614 144.617012 
L 307.801052 145.041634 
L 307.468545 145.161885 
L 307.289503 145.226686 
L 307.161615 145.272994 
L 307.084883 145.300787 
L 305.933898 145.718538 
L 305.780433 145.774325 
L 305.652546 145.820777 
L 305.575814 145.848632 
L 305.550236 145.857915 
L 305.422349 145.904308 
L 304.578293 146.209718 
L 274.089975 157.070951 
L 273.118032 157.457379 
L 272.094935 157.872191 
L 271.813583 157.987799 
L 271.63454 158.061726 
L 271.532231 158.104096 
L 271.455498 158.135935 
L 270.457978 158.554723 
L 270.330091 158.609087 
L 270.202203 158.663609 
L 270.151048 158.685463 
L 270.125471 158.696399 
L 269.997584 158.751205 
L 269.255838 159.073373 
L 238.076929 176.059694 
L 237.258451 176.511799 
L 236.388817 176.988788 
L 236.133043 177.128399 
L 236.005156 177.198086 
L 235.902846 177.253778 
L 235.851691 177.281606 
L 234.982058 177.752706 
L 234.85417 177.821669 
L 234.777438 177.863008 
L 234.700706 177.904317 
L 234.598396 177.95935 
L 233.95896 178.302106 
L 202.08946 193.473872 
L 201.398869 193.793132 
L 200.6827 194.129924 
L 200.478081 194.227156 
L 200.350193 194.288144 
L 200.273461 194.324817 
L 200.222306 194.349297 
L 199.506138 194.69467 
L 199.403828 194.744396 
L 199.327095 194.781752 
L 199.275941 194.806684 
L 199.173631 194.856617 
L 198.662082 195.107595 
L 166.101991 210.059674 
L 165.539287 210.283186 
L 164.951005 210.517571 
L 164.797541 210.578851 
L 164.695231 210.619728 
L 164.644076 210.64017 
L 164.592921 210.660613 
L 164.030217 210.885607 
L 163.953485 210.916303 
L 163.876753 210.947002 
L 163.851175 210.957236 
L 163.825598 210.96747 
L 163.774443 210.987939 
L 163.339626 211.161977 
L 130.088944 223.755072 
L 129.679705 223.903814 
L 129.244888 224.062039 
L 129.117001 224.108614 
L 129.065846 224.127248 
L 129.014691 224.145886 
L 128.989114 224.155206 
L 128.554297 224.313756 
L 128.477565 224.341747 
L 128.451987 224.351075 
L 128.400833 224.369724 
L 128.349678 224.388368 
L 128.042748 224.500099 
L 94.101475 234.555613 
L 93.820123 234.609213 
L 93.538771 234.662093 
L 93.462039 234.676389 
L 93.410884 234.685889 
L 93.385306 234.690631 
L 93.359729 234.695366 
L 93.078377 234.747052 
L 93.027222 234.75637 
L 93.001645 234.76102 
L 92.976067 234.765664 
L 92.95049 234.770301 
L 92.720293 234.811753 
L 58.114006 234.30068 
L 57.960541 234.268582 
L 57.832654 234.241649 
L 57.781499 234.230829 
L 57.755922 234.225409 
L 57.730344 234.219982 
L 57.602457 234.192747 
L 57.576879 234.18728 
L 57.551302 234.181806 
L 57.525725 234.176326 
L 57.423415 234.154337 
z
" style="fill:#999999;fill-opacity:0.4;"/>
   </g>
   <g id="PolyCollection_2">
    <path clip-path="url(#pffc9b7b7b3)" d="M 57.423415 243.992302 
L 57.423415 252.474006 
L 57.525725 252.456449 
L 57.551302 252.452063 
L 57.576879 252.44768 
L 57.602457 252.443297 
L 57.730344 252.42141 
L 57.755922 252.417037 
L 57.781499 252.412666 
L 57.832654 252.403928 
L 57.960541 252.382112 
L 58.114006 252.355984 
L 92.720293 248.037585 
L 92.95049 248.019341 
L 92.976067 248.017321 
L 93.001645 248.015303 
L 93.027222 248.013287 
L 93.078377 248.009258 
L 93.359729 247.987216 
L 93.385306 247.985221 
L 93.410884 247.983229 
L 93.462039 247.979247 
L 93.538771 247.973288 
L 93.820123 247.951554 
L 94.101475 247.930006 
L 128.042748 246.222139 
L 128.349678 246.211259 
L 128.400833 246.209449 
L 128.451987 246.20764 
L 128.477565 246.206736 
L 128.554297 246.204024 
L 128.989114 246.188718 
L 129.014691 246.187821 
L 129.065846 246.186028 
L 129.117001 246.184236 
L 129.244888 246.179764 
L 129.679705 246.164625 
L 130.088944 246.150472 
L 163.339626 245.283133 
L 163.774443 245.272709 
L 163.825598 245.271474 
L 163.851175 245.270856 
L 163.876753 245.270237 
L 163.953485 245.268378 
L 164.030217 245.266515 
L 164.592921 245.252715 
L 164.644076 245.251448 
L 164.695231 245.250179 
L 164.797541 245.247635 
L 164.951005 245.243808 
L 165.539287 245.229081 
L 166.101991 245.214924 
L 198.662082 244.868483 
L 199.173631 244.865676 
L 199.275941 244.865049 
L 199.327095 244.864728 
L 199.403828 244.864235 
L 199.506138 244.863557 
L 200.222306 244.858152 
L 200.273461 244.857719 
L 200.350193 244.857059 
L 200.478081 244.855926 
L 200.6827 244.854029 
L 201.398869 244.846533 
L 202.08946 244.837974 
L 233.95896 243.931507 
L 234.598396 243.917848 
L 234.700706 243.915721 
L 234.777438 243.914137 
L 234.85417 243.912563 
L 234.982058 243.909959 
L 235.851691 243.892949 
L 235.902846 243.891986 
L 236.005156 243.890074 
L 236.133043 243.887708 
L 236.388817 243.883056 
L 237.258451 243.868048 
L 238.076929 243.855081 
L 269.255838 244.068852 
L 269.997584 244.084132 
L 270.125471 244.086783 
L 270.151048 244.087314 
L 270.202203 244.088377 
L 270.330091 244.09104 
L 270.457978 244.093712 
L 271.455498 244.114877 
L 271.532231 244.116529 
L 271.63454 244.118738 
L 271.813583 244.122618 
L 272.094935 244.128754 
L 273.118032 244.151489 
L 274.089975 244.173727 
L 304.578293 245.226305 
L 305.422349 245.259892 
L 305.550236 245.264959 
L 305.575814 245.265972 
L 305.652546 245.269009 
L 305.780433 245.274065 
L 305.933898 245.280125 
L 307.084883 245.326049 
L 307.161615 245.329147 
L 307.289503 245.334321 
L 307.468545 245.341586 
L 307.801052 245.355147 
L 308.977614 245.403846 
L 310.077445 245.450404 
L 339.875171 247.249629 
L 340.821537 247.330456 
L 340.975002 247.343749 
L 341.000579 247.345969 
L 341.102889 247.354865 
L 341.230776 247.366018 
L 341.409818 247.381694 
L 342.714268 247.498101 
L 342.791 247.50507 
L 342.944465 247.519051 
L 343.149085 247.537778 
L 343.507169 247.570791 
L 344.837196 247.696167 
L 346.064914 247.815832 
L 375.197627 251.873987 
L 376.246302 252.063396 
L 376.425344 252.096016 
L 376.450922 252.100683 
L 376.553231 252.119366 
L 376.706696 252.147441 
L 376.911316 252.184968 
L 378.343653 252.45062 
L 378.420385 252.464997 
L 378.599427 252.498601 
L 378.829624 252.541924 
L 379.238864 252.619269 
L 380.696778 252.898183 
L 382.07796 253.167229 
L 382.07796 244.00858 
L 382.07796 244.00858 
L 380.696778 243.980654 
L 379.238864 243.949225 
L 378.829624 243.940034 
L 378.599427 243.934791 
L 378.420385 243.930678 
L 378.343653 243.928905 
L 376.911316 243.894734 
L 376.706696 243.889683 
L 376.553231 243.885866 
L 376.450922 243.883308 
L 376.425344 243.882667 
L 376.246302 243.878159 
L 375.197627 243.851088 
L 346.064914 242.571714 
L 344.837196 242.495487 
L 343.507169 242.411332 
L 343.149085 242.388411 
L 342.944465 242.375267 
L 342.791 242.36539 
L 342.714268 242.360445 
L 341.409818 242.275779 
L 341.230776 242.264074 
L 341.102889 242.255701 
L 341.000579 242.248996 
L 340.975002 242.247319 
L 340.821537 242.237247 
L 339.875171 242.174845 
L 310.077445 240.195024 
L 308.977614 240.128599 
L 307.801052 240.058473 
L 307.468545 240.038834 
L 307.289503 240.028293 
L 307.161615 240.020777 
L 307.084883 240.016274 
L 305.933898 239.949242 
L 305.780433 239.940382 
L 305.652546 239.933018 
L 305.575814 239.928607 
L 305.550236 239.927138 
L 305.422349 239.919804 
L 304.578293 239.871819 
L 274.089975 238.560067 
L 273.118032 238.534026 
L 272.094935 238.508318 
L 271.813583 238.501568 
L 271.63454 238.497345 
L 271.532231 238.494958 
L 271.455498 238.49318 
L 270.457978 238.471057 
L 270.330091 238.468356 
L 270.202203 238.465686 
L 270.151048 238.464627 
L 270.125471 238.464099 
L 269.997584 238.461491 
L 269.255838 238.447408 
L 238.076929 238.788044 
L 237.258451 238.803426 
L 236.388817 238.819335 
L 236.133043 238.823924 
L 236.005156 238.826203 
L 235.902846 238.828019 
L 235.851691 238.828924 
L 234.982058 238.844051 
L 234.85417 238.846233 
L 234.777438 238.847536 
L 234.700706 238.848836 
L 234.598396 238.850563 
L 233.95896 238.861191 
L 202.08946 239.190232 
L 201.398869 239.199528 
L 200.6827 239.209656 
L 200.478081 239.212634 
L 200.350193 239.214513 
L 200.273461 239.215646 
L 200.222306 239.216405 
L 199.506138 239.227232 
L 199.403828 239.228809 
L 199.327095 239.229996 
L 199.275941 239.23079 
L 199.173631 239.232382 
L 198.662082 239.240439 
L 166.101991 239.594617 
L 165.539287 239.606689 
L 164.951005 239.620405 
L 164.797541 239.624174 
L 164.695231 239.626715 
L 164.644076 239.627988 
L 164.592921 239.629262 
L 164.030217 239.643362 
L 163.953485 239.645296 
L 163.876753 239.647234 
L 163.851175 239.64788 
L 163.825598 239.648527 
L 163.774443 239.649821 
L 163.339626 239.660874 
L 130.088944 240.798059 
L 129.679705 240.819138 
L 129.244888 240.841877 
L 129.117001 240.848633 
L 129.065846 240.851344 
L 129.014691 240.854061 
L 128.989114 240.855421 
L 128.554297 240.878732 
L 128.477565 240.882879 
L 128.451987 240.884262 
L 128.400833 240.887027 
L 128.349678 240.889794 
L 128.042748 240.906407 
L 94.101475 242.822325 
L 93.820123 242.837572 
L 93.538771 242.852776 
L 93.462039 242.856914 
L 93.410884 242.859672 
L 93.385306 242.86105 
L 93.359729 242.862427 
L 93.078377 242.877557 
L 93.027222 242.880303 
L 93.001645 242.881676 
L 92.976067 242.883048 
L 92.95049 242.884419 
L 92.720293 242.896736 
L 58.114006 243.98632 
L 57.960541 243.987695 
L 57.832654 243.988822 
L 57.781499 243.989267 
L 57.755922 243.989489 
L 57.730344 243.989709 
L 57.602457 243.990802 
L 57.576879 243.991019 
L 57.551302 243.991235 
L 57.525725 243.99145 
L 57.423415 243.992302 
z
" style="fill:#999999;fill-opacity:0.4;"/>
   </g>
   <g id="PolyCollection_3">
    <path clip-path="url(#pffc9b7b7b3)" d="M 57.423415 226.115423 
L 57.423415 280.121371 
L 57.525725 280.048342 
L 57.551302 280.030097 
L 57.576879 280.011856 
L 57.602457 279.99362 
L 57.730344 279.902512 
L 57.755922 279.884304 
L 57.781499 279.866101 
L 57.832654 279.82971 
L 57.960541 279.738815 
L 58.114006 279.629897 
L 92.720293 260.111703 
L 92.95049 260.014922 
L 92.976067 260.004189 
L 93.001645 259.993459 
L 93.027222 259.982733 
L 93.078377 259.961291 
L 93.359729 259.843605 
L 93.385306 259.832927 
L 93.410884 259.822252 
L 93.462039 259.800912 
L 93.538771 259.768927 
L 93.820123 259.651903 
L 94.101475 259.53527 
L 128.042748 246.113328 
L 128.349678 245.982675 
L 128.400833 245.960866 
L 128.451987 245.939046 
L 128.477565 245.928132 
L 128.554297 245.895377 
L 128.989114 245.708746 
L 129.014691 245.697709 
L 129.065846 245.675614 
L 129.117001 245.653493 
L 129.244888 245.598076 
L 129.679705 245.408442 
L 130.088944 245.228259 
L 163.339626 227.104152 
L 163.774443 226.832557 
L 163.825598 226.800529 
L 163.851175 226.784508 
L 163.876753 226.768484 
L 163.953485 226.720386 
L 164.030217 226.672252 
L 164.592921 226.318138 
L 164.644076 226.285846 
L 164.695231 226.253538 
L 164.797541 226.18887 
L 164.951005 226.091518 
L 165.539287 225.712871 
L 166.101991 225.342838 
L 198.662082 200.937297 
L 199.173631 200.575393 
L 199.275941 200.502979 
L 199.327095 200.466766 
L 199.403828 200.412442 
L 199.506138 200.339996 
L 200.222306 199.832395 
L 200.273461 199.796101 
L 200.350193 199.74165 
L 200.478081 199.650869 
L 200.6827 199.505544 
L 201.398869 198.996073 
L 202.08946 198.503387 
L 233.95896 171.659229 
L 234.598396 171.130327 
L 234.700706 171.046016 
L 234.777438 170.98284 
L 234.85417 170.919713 
L 234.982058 170.814612 
L 235.851691 170.103621 
L 235.902846 170.062001 
L 236.005156 169.97883 
L 236.133043 169.874995 
L 236.388817 169.667756 
L 237.258451 168.967497 
L 238.076929 168.314668 
L 269.255838 147.217046 
L 269.997584 146.76451 
L 270.125471 146.686529 
L 270.151048 146.670937 
L 270.202203 146.639768 
L 270.330091 146.56194 
L 270.457978 146.484245 
L 271.455498 145.882735 
L 271.532231 145.836792 
L 271.63454 145.775607 
L 271.813583 145.668729 
L 272.094935 145.50128 
L 273.118032 144.89748 
L 274.089975 144.331109 
L 304.578293 127.865569 
L 305.422349 127.342345 
L 305.550236 127.262164 
L 305.575814 127.246099 
L 305.652546 127.197845 
L 305.780433 127.117225 
L 305.933898 127.020158 
L 307.084883 126.292611 
L 307.161615 126.244236 
L 307.289503 126.163646 
L 307.468545 126.050893 
L 307.801052 125.841726 
L 308.977614 125.104 
L 310.077445 124.417781 
L 339.875171 107.415579 
L 340.821537 106.947633 
L 340.975002 106.872353 
L 341.000579 106.859823 
L 341.102889 106.809751 
L 341.230776 106.747269 
L 341.409818 106.659995 
L 342.714268 106.031398 
L 342.791 105.994826 
L 342.944465 105.921821 
L 343.149085 105.824768 
L 343.507169 105.655851 
L 344.837196 105.039859 
L 346.064914 104.48775 
L 375.197627 96.820955 
L 376.246302 96.740564 
L 376.425344 96.728094 
L 376.450922 96.726342 
L 376.553231 96.719409 
L 376.706696 96.709233 
L 376.911316 96.696079 
L 378.343653 96.617178 
L 378.420385 96.613597 
L 378.599427 96.605497 
L 378.829624 96.595604 
L 379.238864 96.57946 
L 380.696778 96.536843 
L 382.07796 96.517662 
L 382.07796 38.201371 
L 382.07796 38.201371 
L 380.696778 39.755849 
L 379.238864 41.374288 
L 378.829624 41.82439 
L 378.599427 42.076756 
L 378.420385 42.272633 
L 378.343653 42.35647 
L 376.911316 43.909291 
L 376.706696 44.129225 
L 376.553231 44.293862 
L 376.450922 44.40347 
L 376.425344 44.430853 
L 376.246302 44.622326 
L 375.197627 45.736378 
L 346.064914 71.096633 
L 344.837196 71.925327 
L 343.507169 72.803788 
L 343.149085 73.036966 
L 342.944465 73.169568 
L 342.791 73.2687 
L 342.714268 73.318164 
L 341.409818 74.148869 
L 341.230776 74.261424 
L 341.102889 74.341609 
L 341.000579 74.405631 
L 340.975002 74.42162 
L 340.821537 74.517404 
L 339.875171 75.102672 
L 310.077445 90.954961 
L 308.977614 91.514673 
L 307.801052 92.115972 
L 307.468545 92.286436 
L 307.289503 92.378327 
L 307.161615 92.444009 
L 307.084883 92.483437 
L 305.933898 93.076581 
L 305.780433 93.155819 
L 305.652546 93.221742 
L 305.575814 93.261248 
L 305.550236 93.274409 
L 305.422349 93.340155 
L 304.578293 93.771705 
L 274.089975 108.586989 
L 273.118032 109.129152 
L 272.094935 109.714022 
L 271.813583 109.877558 
L 271.63454 109.982254 
L 271.532231 110.042302 
L 271.455498 110.087444 
L 270.457978 110.68285 
L 270.330091 110.760363 
L 270.202203 110.83815 
L 270.151048 110.869343 
L 270.125471 110.884956 
L 269.997584 110.963209 
L 269.255838 111.423364 
L 238.076929 136.051089 
L 237.258451 136.719295 
L 236.388817 137.425293 
L 236.133043 137.632133 
L 236.005156 137.735413 
L 235.902846 137.817969 
L 235.851691 137.859224 
L 234.982058 138.55822 
L 234.85417 138.660635 
L 234.777438 138.722037 
L 234.700706 138.783404 
L 234.598396 138.865171 
L 233.95896 139.374775 
L 202.08946 162.542258 
L 201.398869 163.039639 
L 200.6827 163.56587 
L 200.478081 163.718074 
L 200.350193 163.813605 
L 200.273461 163.87107 
L 200.222306 163.90944 
L 199.506138 164.451564 
L 199.403828 164.529737 
L 199.327095 164.588482 
L 199.275941 164.627699 
L 199.173631 164.706263 
L 198.662082 165.10159 
L 166.101991 189.556399 
L 165.539287 189.913157 
L 164.951005 190.285364 
L 164.797541 190.382348 
L 164.695231 190.447 
L 164.644076 190.479333 
L 164.592921 190.511671 
L 164.030217 190.867689 
L 163.953485 190.916277 
L 163.876753 190.964874 
L 163.851175 190.981075 
L 163.825598 190.997277 
L 163.774443 191.029684 
L 163.339626 191.305287 
L 130.088944 211.147594 
L 129.679705 211.371873 
L 129.244888 211.609904 
L 129.117001 211.679861 
L 129.065846 211.707838 
L 129.014691 211.735811 
L 128.989114 211.749796 
L 128.554297 211.987399 
L 128.477565 212.029293 
L 128.451987 212.043252 
L 128.400833 212.071162 
L 128.349678 212.099061 
L 128.042748 212.26622 
L 94.101475 227.012897 
L 93.820123 227.089412 
L 93.538771 227.164856 
L 93.462039 227.185244 
L 93.410884 227.198792 
L 93.385306 227.205552 
L 93.359729 227.212304 
L 93.078377 227.285975 
L 93.027222 227.299253 
L 93.001645 227.305878 
L 92.976067 227.312494 
L 92.95049 227.319101 
L 92.720293 227.378138 
L 58.114006 226.337347 
L 57.960541 226.288662 
L 57.832654 226.247816 
L 57.781499 226.231407 
L 57.755922 226.223187 
L 57.730344 226.214958 
L 57.602457 226.17366 
L 57.576879 226.165371 
L 57.551302 226.157071 
L 57.525725 226.148762 
L 57.423415 226.115423 
z
" style="fill:#999999;fill-opacity:0.4;"/>
   </g>
   <g id="line2d_19">
    <path clip-path="url(#pffc9b7b7b3)" d="M 57.423415 253.820789 
L 58.114006 253.707345 
L 94.101475 246.398747 
L 130.088944 236.165663 
L 166.101991 223.091429 
L 202.08946 206.569241 
L 238.076929 187.808588 
L 270.457978 171.591924 
L 274.089975 170.087296 
L 307.801052 157.322983 
L 310.077445 156.406764 
L 346.064914 142.217176 
L 382.07796 127.888567 
L 382.07796 127.888567 
" style="fill:none;stroke:#db5f57;stroke-linejoin:miter;stroke-width:1.772454;"/>
   </g>
   <g id="line2d_20">
    <path clip-path="url(#pffc9b7b7b3)" d="M 57.423415 248.233154 
L 58.114006 248.171152 
L 94.101475 245.376166 
L 130.088944 243.474265 
L 166.101991 242.404771 
L 202.08946 242.014103 
L 238.076929 241.321563 
L 273.118032 241.342758 
L 274.089975 241.366897 
L 310.077445 242.822714 
L 346.064914 245.193773 
L 382.07796 248.587904 
L 382.07796 248.587904 
" style="fill:none;stroke:#57db5f;stroke-linejoin:miter;stroke-width:1.772454;"/>
   </g>
   <g id="line2d_21">
    <path clip-path="url(#pffc9b7b7b3)" d="M 57.423415 253.118397 
L 58.114006 252.983622 
L 94.101475 243.274084 
L 129.244888 228.60399 
L 130.088944 228.187926 
L 164.951005 208.188441 
L 166.101991 207.449618 
L 202.08946 180.522822 
L 238.076929 152.182878 
L 270.330091 128.661151 
L 274.089975 126.459049 
L 305.933898 110.048369 
L 310.077445 107.686371 
L 346.064914 87.792191 
L 382.07796 67.359516 
L 382.07796 67.359516 
" style="fill:none;stroke:#5f57db;stroke-linejoin:miter;stroke-width:1.772454;"/>
   </g>
   <g id="patch_3">
    <path d="M 405.510688 202.916339 
L 517.346688 202.916339 
L 517.346688 111.950402 
L 405.510688 111.950402 
z
" style="fill:#ffffff;"/>
   </g>
   <g id="text_9">
    <!-- Model -->
    <g transform="translate(417.710688 135.543996)scale(0.11 -0.11)">
     <defs>
      <path d="M 628 4666 
L 1569 4666 
L 2759 1491 
L 3956 4666 
L 4897 4666 
L 4897 0 
L 4281 0 
L 4281 4097 
L 3078 897 
L 2444 897 
L 1241 4097 
L 1241 0 
L 628 0 
L 628 4666 
z
" id="DejaVuSans-4d" transform="scale(0.015625)"/>
     </defs>
     <use xlink:href="#DejaVuSans-4d"/>
     <use x="86.279297" xlink:href="#DejaVuSans-6f"/>
     <use x="147.460938" xlink:href="#DejaVuSans-64"/>
     <use x="210.9375" xlink:href="#DejaVuSans-65"/>
     <use x="272.460938" xlink:href="#DejaVuSans-6c"/>
    </g>
   </g>
   <g id="patch_4">
    <path clip-path="url(#pbda93001d7)" d="M 417.710688 155.036339 
L 433.550687 155.036339 
L 433.550687 139.196339 
L 417.710688 139.196339 
z
" style="fill:#f2f2f2;"/>
   </g>
   <g id="patch_5">
    <path clip-path="url(#pbda93001d7)" d="M 417.710688 151.076339 
L 433.550687 151.076339 
L 433.550687 143.156339 
L 417.710688 143.156339 
z
" style="fill:#999999;opacity:0.4;"/>
   </g>
   <g id="line2d_22">
    <path clip-path="url(#pbda93001d7)" d="M 417.710688 147.116339 
L 433.550687 147.116339 
" style="fill:none;stroke:#db5f57;stroke-width:1.772454;"/>
   </g>
   <g id="text_10">
    <!-- five_layer_net -->
    <g transform="translate(436.550687 149.422214)scale(0.088 -0.088)">
     <defs>
      <path d="M 2375 4863 
L 2375 4384 
L 1825 4384 
Q 1516 4384 1395 4259 
Q 1275 4134 1275 3809 
L 1275 3500 
L 2222 3500 
L 2222 3053 
L 1275 3053 
L 1275 0 
L 697 0 
L 697 3053 
L 147 3053 
L 147 3500 
L 697 3500 
L 697 3744 
Q 697 4328 969 4595 
Q 1241 4863 1831 4863 
L 2375 4863 
z
" id="DejaVuSans-66" transform="scale(0.015625)"/>
      <path d="M 191 3500 
L 800 3500 
L 1894 563 
L 2988 3500 
L 3597 3500 
L 2284 0 
L 1503 0 
L 191 3500 
z
" id="DejaVuSans-76" transform="scale(0.015625)"/>
      <path d="M 3263 -1063 
L 3263 -1509 
L -63 -1509 
L -63 -1063 
L 3263 -1063 
z
" id="DejaVuSans-5f" transform="scale(0.015625)"/>
     </defs>
     <use xlink:href="#DejaVuSans-66"/>
     <use x="35.205078" xlink:href="#DejaVuSans-69"/>
     <use x="62.988281" xlink:href="#DejaVuSans-76"/>
     <use x="122.167969" xlink:href="#DejaVuSans-65"/>
     <use x="183.691406" xlink:href="#DejaVuSans-5f"/>
     <use x="233.691406" xlink:href="#DejaVuSans-6c"/>
     <use x="261.474609" xlink:href="#DejaVuSans-61"/>
     <use x="322.753906" xlink:href="#DejaVuSans-79"/>
     <use x="381.933594" xlink:href="#DejaVuSans-65"/>
     <use x="443.457031" xlink:href="#DejaVuSans-72"/>
     <use x="484.570312" xlink:href="#DejaVuSans-5f"/>
     <use x="534.570312" xlink:href="#DejaVuSans-6e"/>
     <use x="597.949219" xlink:href="#DejaVuSans-65"/>
     <use x="659.472656" xlink:href="#DejaVuSans-74"/>
    </g>
   </g>
   <g id="patch_6">
    <path clip-path="url(#p2771c14a36)" d="M 417.710688 172.876339 
L 433.550687 172.876339 
L 433.550687 157.036339 
L 417.710688 157.036339 
z
" style="fill:#f2f2f2;"/>
   </g>
   <g id="patch_7">
    <path clip-path="url(#p2771c14a36)" d="M 417.710688 168.916339 
L 433.550687 168.916339 
L 433.550687 160.996339 
L 417.710688 160.996339 
z
" style="fill:#999999;opacity:0.4;"/>
   </g>
   <g id="line2d_23">
    <path clip-path="url(#p2771c14a36)" d="M 417.710688 164.956339 
L 433.550687 164.956339 
" style="fill:none;stroke:#57db5f;stroke-width:1.772454;"/>
   </g>
   <g id="text_11">
    <!-- pytorch_lr -->
    <g transform="translate(436.550687 167.262214)scale(0.088 -0.088)">
     <defs>
      <path d="M 3513 2113 
L 3513 0 
L 2938 0 
L 2938 2094 
Q 2938 2591 2744 2837 
Q 2550 3084 2163 3084 
Q 1697 3084 1428 2787 
Q 1159 2491 1159 1978 
L 1159 0 
L 581 0 
L 581 4863 
L 1159 4863 
L 1159 2956 
Q 1366 3272 1645 3428 
Q 1925 3584 2291 3584 
Q 2894 3584 3203 3211 
Q 3513 2838 3513 2113 
z
" id="DejaVuSans-68" transform="scale(0.015625)"/>
     </defs>
     <use xlink:href="#DejaVuSans-70"/>
     <use x="63.476562" xlink:href="#DejaVuSans-79"/>
     <use x="122.65625" xlink:href="#DejaVuSans-74"/>
     <use x="161.865234" xlink:href="#DejaVuSans-6f"/>
     <use x="223.046875" xlink:href="#DejaVuSans-72"/>
     <use x="261.910156" xlink:href="#DejaVuSans-63"/>
     <use x="316.890625" xlink:href="#DejaVuSans-68"/>
     <use x="380.269531" xlink:href="#DejaVuSans-5f"/>
     <use x="430.269531" xlink:href="#DejaVuSans-6c"/>
     <use x="458.052734" xlink:href="#DejaVuSans-72"/>
    </g>
   </g>
   <g id="patch_8">
    <path clip-path="url(#p911adb3088)" d="M 417.710688 190.716339 
L 433.550687 190.716339 
L 433.550687 174.876339 
L 417.710688 174.876339 
z
" style="fill:#f2f2f2;"/>
   </g>
   <g id="patch_9">
    <path clip-path="url(#p911adb3088)" d="M 417.710688 186.756339 
L 433.550687 186.756339 
L 433.550687 178.836339 
L 417.710688 178.836339 
z
" style="fill:#999999;opacity:0.4;"/>
   </g>
   <g id="line2d_24">
    <path clip-path="url(#p911adb3088)" d="M 417.710688 182.796339 
L 433.550687 182.796339 
" style="fill:none;stroke:#5f57db;stroke-width:1.772454;"/>
   </g>
   <g id="text_12">
    <!-- three_layer_net -->
    <g transform="translate(436.550687 185.102214)scale(0.088 -0.088)">
     <use xlink:href="#DejaVuSans-74"/>
     <use x="39.208984" xlink:href="#DejaVuSans-68"/>
     <use x="102.587891" xlink:href="#DejaVuSans-72"/>
     <use x="141.451172" xlink:href="#DejaVuSans-65"/>
     <use x="202.974609" xlink:href="#DejaVuSans-65"/>
     <use x="264.498047" xlink:href="#DejaVuSans-5f"/>
     <use x="314.498047" xlink:href="#DejaVuSans-6c"/>
     <use x="342.28125" xlink:href="#DejaVuSans-61"/>
     <use x="403.560547" xlink:href="#DejaVuSans-79"/>
     <use x="462.740234" xlink:href="#DejaVuSans-65"/>
     <use x="524.263672" xlink:href="#DejaVuSans-72"/>
     <use x="565.376953" xlink:href="#DejaVuSans-5f"/>
     <use x="615.376953" xlink:href="#DejaVuSans-6e"/>
     <use x="678.755859" xlink:href="#DejaVuSans-65"/>
     <use x="740.279297" xlink:href="#DejaVuSans-74"/>
    </g>
   </g>
  </g>
  <g id="text_13">
   <!-- GTEx Multiclass Signal Removed -->
   <g transform="translate(106.951063 17.229938)scale(0.132 -0.132)">
    <defs>
     <path d="M 3809 666 
L 3809 1919 
L 2778 1919 
L 2778 2438 
L 4434 2438 
L 4434 434 
Q 4069 175 3628 42 
Q 3188 -91 2688 -91 
Q 1594 -91 976 548 
Q 359 1188 359 2328 
Q 359 3472 976 4111 
Q 1594 4750 2688 4750 
Q 3144 4750 3555 4637 
Q 3966 4525 4313 4306 
L 4313 3634 
Q 3963 3931 3569 4081 
Q 3175 4231 2741 4231 
Q 1884 4231 1454 3753 
Q 1025 3275 1025 2328 
Q 1025 1384 1454 906 
Q 1884 428 2741 428 
Q 3075 428 3337 486 
Q 3600 544 3809 666 
z
" id="DejaVuSans-47" transform="scale(0.015625)"/>
     <path d="M 628 4666 
L 3578 4666 
L 3578 4134 
L 1259 4134 
L 1259 2753 
L 3481 2753 
L 3481 2222 
L 1259 2222 
L 1259 531 
L 3634 531 
L 3634 0 
L 628 0 
L 628 4666 
z
" id="DejaVuSans-45" transform="scale(0.015625)"/>
     <path d="M 3513 3500 
L 2247 1797 
L 3578 0 
L 2900 0 
L 1881 1375 
L 863 0 
L 184 0 
L 1544 1831 
L 300 3500 
L 978 3500 
L 1906 2253 
L 2834 3500 
L 3513 3500 
z
" id="DejaVuSans-78" transform="scale(0.015625)"/>
     <path d="M 2906 1791 
Q 2906 2416 2648 2759 
Q 2391 3103 1925 3103 
Q 1463 3103 1205 2759 
Q 947 2416 947 1791 
Q 947 1169 1205 825 
Q 1463 481 1925 481 
Q 2391 481 2648 825 
Q 2906 1169 2906 1791 
z
M 3481 434 
Q 3481 -459 3084 -895 
Q 2688 -1331 1869 -1331 
Q 1566 -1331 1297 -1286 
Q 1028 -1241 775 -1147 
L 775 -588 
Q 1028 -725 1275 -790 
Q 1522 -856 1778 -856 
Q 2344 -856 2625 -561 
Q 2906 -266 2906 331 
L 2906 616 
Q 2728 306 2450 153 
Q 2172 0 1784 0 
Q 1141 0 747 490 
Q 353 981 353 1791 
Q 353 2603 747 3093 
Q 1141 3584 1784 3584 
Q 2172 3584 2450 3431 
Q 2728 3278 2906 2969 
L 2906 3500 
L 3481 3500 
L 3481 434 
z
" id="DejaVuSans-67" transform="scale(0.015625)"/>
     <path d="M 2841 2188 
Q 3044 2119 3236 1894 
Q 3428 1669 3622 1275 
L 4263 0 
L 3584 0 
L 2988 1197 
Q 2756 1666 2539 1819 
Q 2322 1972 1947 1972 
L 1259 1972 
L 1259 0 
L 628 0 
L 628 4666 
L 2053 4666 
Q 2853 4666 3247 4331 
Q 3641 3997 3641 3322 
Q 3641 2881 3436 2590 
Q 3231 2300 2841 2188 
z
M 1259 4147 
L 1259 2491 
L 2053 2491 
Q 2509 2491 2742 2702 
Q 2975 2913 2975 3322 
Q 2975 3731 2742 3939 
Q 2509 4147 2053 4147 
L 1259 4147 
z
" id="DejaVuSans-52" transform="scale(0.015625)"/>
    </defs>
    <use xlink:href="#DejaVuSans-47"/>
    <use x="73.865234" xlink:href="#DejaVuSans-54"/>
    <use x="134.949219" xlink:href="#DejaVuSans-45"/>
    <use x="198.132812" xlink:href="#DejaVuSans-78"/>
    <use x="257.3125" xlink:href="#DejaVuSans-20"/>
    <use x="289.099609" xlink:href="#DejaVuSans-4d"/>
    <use x="375.378906" xlink:href="#DejaVuSans-75"/>
    <use x="438.757812" xlink:href="#DejaVuSans-6c"/>
    <use x="466.541016" xlink:href="#DejaVuSans-74"/>
    <use x="505.75" xlink:href="#DejaVuSans-69"/>
    <use x="533.533203" xlink:href="#DejaVuSans-63"/>
    <use x="588.513672" xlink:href="#DejaVuSans-6c"/>
    <use x="616.296875" xlink:href="#DejaVuSans-61"/>
    <use x="677.576172" xlink:href="#DejaVuSans-73"/>
    <use x="729.675781" xlink:href="#DejaVuSans-73"/>
    <use x="781.775391" xlink:href="#DejaVuSans-20"/>
    <use x="813.5625" xlink:href="#DejaVuSans-53"/>
    <use x="877.039062" xlink:href="#DejaVuSans-69"/>
    <use x="904.822266" xlink:href="#DejaVuSans-67"/>
    <use x="968.298828" xlink:href="#DejaVuSans-6e"/>
    <use x="1031.677734" xlink:href="#DejaVuSans-61"/>
    <use x="1092.957031" xlink:href="#DejaVuSans-6c"/>
    <use x="1120.740234" xlink:href="#DejaVuSans-20"/>
    <use x="1152.527344" xlink:href="#DejaVuSans-52"/>
    <use x="1217.509766" xlink:href="#DejaVuSans-65"/>
    <use x="1279.033203" xlink:href="#DejaVuSans-6d"/>
    <use x="1376.445312" xlink:href="#DejaVuSans-6f"/>
    <use x="1437.626953" xlink:href="#DejaVuSans-76"/>
    <use x="1496.806641" xlink:href="#DejaVuSans-65"/>
    <use x="1558.330078" xlink:href="#DejaVuSans-64"/>
   </g>
  </g>
 </g>
 <defs>
  <clipPath id="pffc9b7b7b3">
   <rect height="266.112" width="357.12" x="41.190688" y="26.105371"/>
  </clipPath>
  <clipPath id="pbda93001d7">
   <path d="M 417.710688 155.036339 
L 417.710688 139.196339 
L 433.550687 139.196339 
L 433.550687 155.036339 
"/>
  </clipPath>
  <clipPath id="p2771c14a36">
   <path d="M 417.710688 172.876339 
L 417.710688 157.036339 
L 433.550687 157.036339 
L 433.550687 172.876339 
"/>
  </clipPath>
  <clipPath id="p911adb3088">
   <path d="M 417.710688 190.716339 
L 417.710688 174.876339 
L 433.550687 174.876339 
L 433.550687 190.716339 
"/>
  </clipPath>
 </defs>
</svg>
