<?xml version="1.0" encoding="utf-8" standalone="no"?>
<!DOCTYPE svg PUBLIC "-//W3C//DTD SVG 1.1//EN"
  "http://www.w3.org/Graphics/SVG/1.1/DTD/svg11.dtd">
<svg height="327.930058pt" version="1.1" viewBox="0 0 524.546688 327.930058" width="524.546688pt" xmlns="http://www.w3.org/2000/svg" xmlns:xlink="http://www.w3.org/1999/xlink">
 <metadata>
  <rdf:RDF xmlns:cc="http://creativecommons.org/ns#" xmlns:dc="http://purl.org/dc/elements/1.1/" xmlns:rdf="http://www.w3.org/1999/02/22-rdf-syntax-ns#">
   <cc:Work>
    <dc:type rdf:resource="http://purl.org/dc/dcmitype/StillImage"/>
    <dc:date>2022-03-03T09:47:56.902214</dc:date>
    <dc:format>image/svg+xml</dc:format>
    <dc:creator>
     <cc:Agent>
      <dc:title>Matplotlib v3.4.2, https://matplotlib.org/</dc:title>
     </cc:Agent>
    </dc:creator>
   </cc:Work>
  </rdf:RDF>
 </metadata>
 <defs>
  <style type="text/css">*{stroke-linecap:butt;stroke-linejoin:round;}</style>
 </defs>
 <g id="figure_1">
  <g id="patch_1">
   <path d="M 0 327.930058 
L 524.546688 327.930058 
L 524.546688 0 
L 0 0 
z
" style="fill:#ffffff;stroke:#ffffff;stroke-linejoin:miter;"/>
  </g>
  <g id="axes_1">
   <g id="patch_2">
    <path d="M 41.190688 292.217371 
L 398.310688 292.217371 
L 398.310688 26.105371 
L 41.190688 26.105371 
z
" style="fill:#ebebeb;"/>
   </g>
   <g id="matplotlib.axis_1">
    <g id="xtick_1">
     <g id="line2d_1">
      <path clip-path="url(#pf2273ad0fe)" d="M 154.485698 292.217371 
L 154.485698 26.105371 
" style="fill:none;stroke:#ffffff;"/>
     </g>
     <g id="line2d_2">
      <path d="M 154.485698 292.217371 
" style="fill:none;stroke:#333333;stroke-width:1.5;"/>
      <defs>
       <path d="M 0 0 
L 0 2.75 
" id="m32f988b37a" style="stroke:#000000;"/>
      </defs>
      <g>
       <use style="fill:#333333;stroke:#000000;" x="154.485698" xlink:href="#m32f988b37a" y="292.217371"/>
      </g>
     </g>
     <g id="text_1">
      <!-- 2000 -->
      <g style="fill:#4d4d4d;" transform="translate(143.287698 303.853996)scale(0.088 -0.088)">
       <defs>
        <path d="M 1228 531 
L 3431 531 
L 3431 0 
L 469 0 
L 469 531 
Q 828 903 1448 1529 
Q 2069 2156 2228 2338 
Q 2531 2678 2651 2914 
Q 2772 3150 2772 3378 
Q 2772 3750 2511 3984 
Q 2250 4219 1831 4219 
Q 1534 4219 1204 4116 
Q 875 4013 500 3803 
L 500 4441 
Q 881 4594 1212 4672 
Q 1544 4750 1819 4750 
Q 2544 4750 2975 4387 
Q 3406 4025 3406 3419 
Q 3406 3131 3298 2873 
Q 3191 2616 2906 2266 
Q 2828 2175 2409 1742 
Q 1991 1309 1228 531 
z
" id="DejaVuSans-32" transform="scale(0.015625)"/>
        <path d="M 2034 4250 
Q 1547 4250 1301 3770 
Q 1056 3291 1056 2328 
Q 1056 1369 1301 889 
Q 1547 409 2034 409 
Q 2525 409 2770 889 
Q 3016 1369 3016 2328 
Q 3016 3291 2770 3770 
Q 2525 4250 2034 4250 
z
M 2034 4750 
Q 2819 4750 3233 4129 
Q 3647 3509 3647 2328 
Q 3647 1150 3233 529 
Q 2819 -91 2034 -91 
Q 1250 -91 836 529 
Q 422 1150 422 2328 
Q 422 3509 836 4129 
Q 1250 4750 2034 4750 
z
" id="DejaVuSans-30" transform="scale(0.015625)"/>
       </defs>
       <use xlink:href="#DejaVuSans-32"/>
       <use x="63.623047" xlink:href="#DejaVuSans-30"/>
       <use x="127.246094" xlink:href="#DejaVuSans-30"/>
       <use x="190.869141" xlink:href="#DejaVuSans-30"/>
      </g>
     </g>
    </g>
    <g id="xtick_2">
     <g id="line2d_3">
      <path clip-path="url(#pf2273ad0fe)" d="M 273.800121 292.217371 
L 273.800121 26.105371 
" style="fill:none;stroke:#ffffff;"/>
     </g>
     <g id="line2d_4">
      <path d="M 273.800121 292.217371 
" style="fill:none;stroke:#333333;stroke-width:1.5;"/>
      <g>
       <use style="fill:#333333;stroke:#000000;" x="273.800121" xlink:href="#m32f988b37a" y="292.217371"/>
      </g>
     </g>
     <g id="text_2">
      <!-- 4000 -->
      <g style="fill:#4d4d4d;" transform="translate(262.602121 303.853996)scale(0.088 -0.088)">
       <defs>
        <path d="M 2419 4116 
L 825 1625 
L 2419 1625 
L 2419 4116 
z
M 2253 4666 
L 3047 4666 
L 3047 1625 
L 3713 1625 
L 3713 1100 
L 3047 1100 
L 3047 0 
L 2419 0 
L 2419 1100 
L 313 1100 
L 313 1709 
L 2253 4666 
z
" id="DejaVuSans-34" transform="scale(0.015625)"/>
       </defs>
       <use xlink:href="#DejaVuSans-34"/>
       <use x="63.623047" xlink:href="#DejaVuSans-30"/>
       <use x="127.246094" xlink:href="#DejaVuSans-30"/>
       <use x="190.869141" xlink:href="#DejaVuSans-30"/>
      </g>
     </g>
    </g>
    <g id="xtick_3">
     <g id="line2d_5">
      <path clip-path="url(#pf2273ad0fe)" d="M 393.114544 292.217371 
L 393.114544 26.105371 
" style="fill:none;stroke:#ffffff;"/>
     </g>
     <g id="line2d_6">
      <path d="M 393.114544 292.217371 
" style="fill:none;stroke:#333333;stroke-width:1.5;"/>
      <g>
       <use style="fill:#333333;stroke:#000000;" x="393.114544" xlink:href="#m32f988b37a" y="292.217371"/>
      </g>
     </g>
     <g id="text_3">
      <!-- 6000 -->
      <g style="fill:#4d4d4d;" transform="translate(381.916544 303.853996)scale(0.088 -0.088)">
       <defs>
        <path d="M 2113 2584 
Q 1688 2584 1439 2293 
Q 1191 2003 1191 1497 
Q 1191 994 1439 701 
Q 1688 409 2113 409 
Q 2538 409 2786 701 
Q 3034 994 3034 1497 
Q 3034 2003 2786 2293 
Q 2538 2584 2113 2584 
z
M 3366 4563 
L 3366 3988 
Q 3128 4100 2886 4159 
Q 2644 4219 2406 4219 
Q 1781 4219 1451 3797 
Q 1122 3375 1075 2522 
Q 1259 2794 1537 2939 
Q 1816 3084 2150 3084 
Q 2853 3084 3261 2657 
Q 3669 2231 3669 1497 
Q 3669 778 3244 343 
Q 2819 -91 2113 -91 
Q 1303 -91 875 529 
Q 447 1150 447 2328 
Q 447 3434 972 4092 
Q 1497 4750 2381 4750 
Q 2619 4750 2861 4703 
Q 3103 4656 3366 4563 
z
" id="DejaVuSans-36" transform="scale(0.015625)"/>
       </defs>
       <use xlink:href="#DejaVuSans-36"/>
       <use x="63.623047" xlink:href="#DejaVuSans-30"/>
       <use x="127.246094" xlink:href="#DejaVuSans-30"/>
       <use x="190.869141" xlink:href="#DejaVuSans-30"/>
      </g>
     </g>
    </g>
    <g id="xtick_4">
     <g id="line2d_7">
      <path clip-path="url(#pf2273ad0fe)" d="M 94.828486 292.217371 
L 94.828486 26.105371 
" style="fill:none;stroke:#ffffff;stroke-width:0.5;"/>
     </g>
    </g>
    <g id="xtick_5">
     <g id="line2d_8">
      <path clip-path="url(#pf2273ad0fe)" d="M 214.14291 292.217371 
L 214.14291 26.105371 
" style="fill:none;stroke:#ffffff;stroke-width:0.5;"/>
     </g>
    </g>
    <g id="xtick_6">
     <g id="line2d_9">
      <path clip-path="url(#pf2273ad0fe)" d="M 333.457333 292.217371 
L 333.457333 26.105371 
" style="fill:none;stroke:#ffffff;stroke-width:0.5;"/>
     </g>
    </g>
    <g id="text_4">
     <!-- Train sample count -->
     <g transform="translate(161.787953 318.442402)scale(0.11 -0.11)">
      <defs>
       <path d="M -19 4666 
L 3928 4666 
L 3928 4134 
L 2272 4134 
L 2272 0 
L 1638 0 
L 1638 4134 
L -19 4134 
L -19 4666 
z
" id="DejaVuSans-54" transform="scale(0.015625)"/>
       <path d="M 2631 2963 
Q 2534 3019 2420 3045 
Q 2306 3072 2169 3072 
Q 1681 3072 1420 2755 
Q 1159 2438 1159 1844 
L 1159 0 
L 581 0 
L 581 3500 
L 1159 3500 
L 1159 2956 
Q 1341 3275 1631 3429 
Q 1922 3584 2338 3584 
Q 2397 3584 2469 3576 
Q 2541 3569 2628 3553 
L 2631 2963 
z
" id="DejaVuSans-72" transform="scale(0.015625)"/>
       <path d="M 2194 1759 
Q 1497 1759 1228 1600 
Q 959 1441 959 1056 
Q 959 750 1161 570 
Q 1363 391 1709 391 
Q 2188 391 2477 730 
Q 2766 1069 2766 1631 
L 2766 1759 
L 2194 1759 
z
M 3341 1997 
L 3341 0 
L 2766 0 
L 2766 531 
Q 2569 213 2275 61 
Q 1981 -91 1556 -91 
Q 1019 -91 701 211 
Q 384 513 384 1019 
Q 384 1609 779 1909 
Q 1175 2209 1959 2209 
L 2766 2209 
L 2766 2266 
Q 2766 2663 2505 2880 
Q 2244 3097 1772 3097 
Q 1472 3097 1187 3025 
Q 903 2953 641 2809 
L 641 3341 
Q 956 3463 1253 3523 
Q 1550 3584 1831 3584 
Q 2591 3584 2966 3190 
Q 3341 2797 3341 1997 
z
" id="DejaVuSans-61" transform="scale(0.015625)"/>
       <path d="M 603 3500 
L 1178 3500 
L 1178 0 
L 603 0 
L 603 3500 
z
M 603 4863 
L 1178 4863 
L 1178 4134 
L 603 4134 
L 603 4863 
z
" id="DejaVuSans-69" transform="scale(0.015625)"/>
       <path d="M 3513 2113 
L 3513 0 
L 2938 0 
L 2938 2094 
Q 2938 2591 2744 2837 
Q 2550 3084 2163 3084 
Q 1697 3084 1428 2787 
Q 1159 2491 1159 1978 
L 1159 0 
L 581 0 
L 581 3500 
L 1159 3500 
L 1159 2956 
Q 1366 3272 1645 3428 
Q 1925 3584 2291 3584 
Q 2894 3584 3203 3211 
Q 3513 2838 3513 2113 
z
" id="DejaVuSans-6e" transform="scale(0.015625)"/>
       <path id="DejaVuSans-20" transform="scale(0.015625)"/>
       <path d="M 2834 3397 
L 2834 2853 
Q 2591 2978 2328 3040 
Q 2066 3103 1784 3103 
Q 1356 3103 1142 2972 
Q 928 2841 928 2578 
Q 928 2378 1081 2264 
Q 1234 2150 1697 2047 
L 1894 2003 
Q 2506 1872 2764 1633 
Q 3022 1394 3022 966 
Q 3022 478 2636 193 
Q 2250 -91 1575 -91 
Q 1294 -91 989 -36 
Q 684 19 347 128 
L 347 722 
Q 666 556 975 473 
Q 1284 391 1588 391 
Q 1994 391 2212 530 
Q 2431 669 2431 922 
Q 2431 1156 2273 1281 
Q 2116 1406 1581 1522 
L 1381 1569 
Q 847 1681 609 1914 
Q 372 2147 372 2553 
Q 372 3047 722 3315 
Q 1072 3584 1716 3584 
Q 2034 3584 2315 3537 
Q 2597 3491 2834 3397 
z
" id="DejaVuSans-73" transform="scale(0.015625)"/>
       <path d="M 3328 2828 
Q 3544 3216 3844 3400 
Q 4144 3584 4550 3584 
Q 5097 3584 5394 3201 
Q 5691 2819 5691 2113 
L 5691 0 
L 5113 0 
L 5113 2094 
Q 5113 2597 4934 2840 
Q 4756 3084 4391 3084 
Q 3944 3084 3684 2787 
Q 3425 2491 3425 1978 
L 3425 0 
L 2847 0 
L 2847 2094 
Q 2847 2600 2669 2842 
Q 2491 3084 2119 3084 
Q 1678 3084 1418 2786 
Q 1159 2488 1159 1978 
L 1159 0 
L 581 0 
L 581 3500 
L 1159 3500 
L 1159 2956 
Q 1356 3278 1631 3431 
Q 1906 3584 2284 3584 
Q 2666 3584 2933 3390 
Q 3200 3197 3328 2828 
z
" id="DejaVuSans-6d" transform="scale(0.015625)"/>
       <path d="M 1159 525 
L 1159 -1331 
L 581 -1331 
L 581 3500 
L 1159 3500 
L 1159 2969 
Q 1341 3281 1617 3432 
Q 1894 3584 2278 3584 
Q 2916 3584 3314 3078 
Q 3713 2572 3713 1747 
Q 3713 922 3314 415 
Q 2916 -91 2278 -91 
Q 1894 -91 1617 61 
Q 1341 213 1159 525 
z
M 3116 1747 
Q 3116 2381 2855 2742 
Q 2594 3103 2138 3103 
Q 1681 3103 1420 2742 
Q 1159 2381 1159 1747 
Q 1159 1113 1420 752 
Q 1681 391 2138 391 
Q 2594 391 2855 752 
Q 3116 1113 3116 1747 
z
" id="DejaVuSans-70" transform="scale(0.015625)"/>
       <path d="M 603 4863 
L 1178 4863 
L 1178 0 
L 603 0 
L 603 4863 
z
" id="DejaVuSans-6c" transform="scale(0.015625)"/>
       <path d="M 3597 1894 
L 3597 1613 
L 953 1613 
Q 991 1019 1311 708 
Q 1631 397 2203 397 
Q 2534 397 2845 478 
Q 3156 559 3463 722 
L 3463 178 
Q 3153 47 2828 -22 
Q 2503 -91 2169 -91 
Q 1331 -91 842 396 
Q 353 884 353 1716 
Q 353 2575 817 3079 
Q 1281 3584 2069 3584 
Q 2775 3584 3186 3129 
Q 3597 2675 3597 1894 
z
M 3022 2063 
Q 3016 2534 2758 2815 
Q 2500 3097 2075 3097 
Q 1594 3097 1305 2825 
Q 1016 2553 972 2059 
L 3022 2063 
z
" id="DejaVuSans-65" transform="scale(0.015625)"/>
       <path d="M 3122 3366 
L 3122 2828 
Q 2878 2963 2633 3030 
Q 2388 3097 2138 3097 
Q 1578 3097 1268 2742 
Q 959 2388 959 1747 
Q 959 1106 1268 751 
Q 1578 397 2138 397 
Q 2388 397 2633 464 
Q 2878 531 3122 666 
L 3122 134 
Q 2881 22 2623 -34 
Q 2366 -91 2075 -91 
Q 1284 -91 818 406 
Q 353 903 353 1747 
Q 353 2603 823 3093 
Q 1294 3584 2113 3584 
Q 2378 3584 2631 3529 
Q 2884 3475 3122 3366 
z
" id="DejaVuSans-63" transform="scale(0.015625)"/>
       <path d="M 1959 3097 
Q 1497 3097 1228 2736 
Q 959 2375 959 1747 
Q 959 1119 1226 758 
Q 1494 397 1959 397 
Q 2419 397 2687 759 
Q 2956 1122 2956 1747 
Q 2956 2369 2687 2733 
Q 2419 3097 1959 3097 
z
M 1959 3584 
Q 2709 3584 3137 3096 
Q 3566 2609 3566 1747 
Q 3566 888 3137 398 
Q 2709 -91 1959 -91 
Q 1206 -91 779 398 
Q 353 888 353 1747 
Q 353 2609 779 3096 
Q 1206 3584 1959 3584 
z
" id="DejaVuSans-6f" transform="scale(0.015625)"/>
       <path d="M 544 1381 
L 544 3500 
L 1119 3500 
L 1119 1403 
Q 1119 906 1312 657 
Q 1506 409 1894 409 
Q 2359 409 2629 706 
Q 2900 1003 2900 1516 
L 2900 3500 
L 3475 3500 
L 3475 0 
L 2900 0 
L 2900 538 
Q 2691 219 2414 64 
Q 2138 -91 1772 -91 
Q 1169 -91 856 284 
Q 544 659 544 1381 
z
M 1991 3584 
L 1991 3584 
z
" id="DejaVuSans-75" transform="scale(0.015625)"/>
       <path d="M 1172 4494 
L 1172 3500 
L 2356 3500 
L 2356 3053 
L 1172 3053 
L 1172 1153 
Q 1172 725 1289 603 
Q 1406 481 1766 481 
L 2356 481 
L 2356 0 
L 1766 0 
Q 1100 0 847 248 
Q 594 497 594 1153 
L 594 3053 
L 172 3053 
L 172 3500 
L 594 3500 
L 594 4494 
L 1172 4494 
z
" id="DejaVuSans-74" transform="scale(0.015625)"/>
      </defs>
      <use xlink:href="#DejaVuSans-54"/>
      <use x="46.333984" xlink:href="#DejaVuSans-72"/>
      <use x="87.447266" xlink:href="#DejaVuSans-61"/>
      <use x="148.726562" xlink:href="#DejaVuSans-69"/>
      <use x="176.509766" xlink:href="#DejaVuSans-6e"/>
      <use x="239.888672" xlink:href="#DejaVuSans-20"/>
      <use x="271.675781" xlink:href="#DejaVuSans-73"/>
      <use x="323.775391" xlink:href="#DejaVuSans-61"/>
      <use x="385.054688" xlink:href="#DejaVuSans-6d"/>
      <use x="482.466797" xlink:href="#DejaVuSans-70"/>
      <use x="545.943359" xlink:href="#DejaVuSans-6c"/>
      <use x="573.726562" xlink:href="#DejaVuSans-65"/>
      <use x="635.25" xlink:href="#DejaVuSans-20"/>
      <use x="667.037109" xlink:href="#DejaVuSans-63"/>
      <use x="722.017578" xlink:href="#DejaVuSans-6f"/>
      <use x="783.199219" xlink:href="#DejaVuSans-75"/>
      <use x="846.578125" xlink:href="#DejaVuSans-6e"/>
      <use x="909.957031" xlink:href="#DejaVuSans-74"/>
     </g>
    </g>
   </g>
   <g id="matplotlib.axis_2">
    <g id="ytick_1">
     <g id="line2d_10">
      <path clip-path="url(#pf2273ad0fe)" d="M 41.190688 272.408503 
L 398.310688 272.408503 
" style="fill:none;stroke:#ffffff;"/>
     </g>
     <g id="line2d_11">
      <path d="M 41.190688 272.408503 
" style="fill:none;stroke:#333333;stroke-width:1.5;"/>
      <defs>
       <path d="M 0 0 
L -2.75 0 
" id="m93640c5ed3" style="stroke:#000000;"/>
      </defs>
      <g>
       <use style="fill:#333333;stroke:#000000;" x="41.190688" xlink:href="#m93640c5ed3" y="272.408503"/>
      </g>
     </g>
     <g id="text_5">
      <!-- 0 -->
      <g style="fill:#4d4d4d;" transform="translate(30.641688 274.836753)scale(0.088 -0.088)">
       <use xlink:href="#DejaVuSans-30"/>
      </g>
     </g>
    </g>
    <g id="ytick_2">
     <g id="line2d_12">
      <path clip-path="url(#pf2273ad0fe)" d="M 41.190688 202.74199 
L 398.310688 202.74199 
" style="fill:none;stroke:#ffffff;"/>
     </g>
     <g id="line2d_13">
      <path d="M 41.190688 202.74199 
" style="fill:none;stroke:#333333;stroke-width:1.5;"/>
      <g>
       <use style="fill:#333333;stroke:#000000;" x="41.190688" xlink:href="#m93640c5ed3" y="202.74199"/>
      </g>
     </g>
     <g id="text_6">
      <!-- 0.2 -->
      <g style="fill:#4d4d4d;" transform="translate(22.245938 205.17024)scale(0.088 -0.088)">
       <defs>
        <path d="M 684 794 
L 1344 794 
L 1344 0 
L 684 0 
L 684 794 
z
" id="DejaVuSans-2e" transform="scale(0.015625)"/>
       </defs>
       <use xlink:href="#DejaVuSans-30"/>
       <use x="63.623047" xlink:href="#DejaVuSans-2e"/>
       <use x="95.410156" xlink:href="#DejaVuSans-32"/>
      </g>
     </g>
    </g>
    <g id="ytick_3">
     <g id="line2d_14">
      <path clip-path="url(#pf2273ad0fe)" d="M 41.190688 133.075476 
L 398.310688 133.075476 
" style="fill:none;stroke:#ffffff;"/>
     </g>
     <g id="line2d_15">
      <path d="M 41.190688 133.075476 
" style="fill:none;stroke:#333333;stroke-width:1.5;"/>
      <g>
       <use style="fill:#333333;stroke:#000000;" x="41.190688" xlink:href="#m93640c5ed3" y="133.075476"/>
      </g>
     </g>
     <g id="text_7">
      <!-- 0.4 -->
      <g style="fill:#4d4d4d;" transform="translate(22.245938 135.503726)scale(0.088 -0.088)">
       <use xlink:href="#DejaVuSans-30"/>
       <use x="63.623047" xlink:href="#DejaVuSans-2e"/>
       <use x="95.410156" xlink:href="#DejaVuSans-34"/>
      </g>
     </g>
    </g>
    <g id="ytick_4">
     <g id="line2d_16">
      <path clip-path="url(#pf2273ad0fe)" d="M 41.190688 63.408963 
L 398.310688 63.408963 
" style="fill:none;stroke:#ffffff;"/>
     </g>
     <g id="line2d_17">
      <path d="M 41.190688 63.408963 
" style="fill:none;stroke:#333333;stroke-width:1.5;"/>
      <g>
       <use style="fill:#333333;stroke:#000000;" x="41.190688" xlink:href="#m93640c5ed3" y="63.408963"/>
      </g>
     </g>
     <g id="text_8">
      <!-- 0.6 -->
      <g style="fill:#4d4d4d;" transform="translate(22.245938 65.837213)scale(0.088 -0.088)">
       <use xlink:href="#DejaVuSans-30"/>
       <use x="63.623047" xlink:href="#DejaVuSans-2e"/>
       <use x="95.410156" xlink:href="#DejaVuSans-36"/>
      </g>
     </g>
    </g>
    <g id="ytick_5">
     <g id="line2d_18">
      <path clip-path="url(#pf2273ad0fe)" d="M 41.190688 237.575246 
L 398.310688 237.575246 
" style="fill:none;stroke:#ffffff;stroke-width:0.5;"/>
     </g>
    </g>
    <g id="ytick_6">
     <g id="line2d_19">
      <path clip-path="url(#pf2273ad0fe)" d="M 41.190688 167.908733 
L 398.310688 167.908733 
" style="fill:none;stroke:#ffffff;stroke-width:0.5;"/>
     </g>
    </g>
    <g id="ytick_7">
     <g id="line2d_20">
      <path clip-path="url(#pf2273ad0fe)" d="M 41.190688 98.24222 
L 398.310688 98.24222 
" style="fill:none;stroke:#ffffff;stroke-width:0.5;"/>
     </g>
    </g>
    <g id="ytick_8">
     <g id="line2d_21">
      <path clip-path="url(#pf2273ad0fe)" d="M 41.190688 28.575707 
L 398.310688 28.575707 
" style="fill:none;stroke:#ffffff;stroke-width:0.5;"/>
     </g>
    </g>
    <g id="text_9">
     <!-- Balanced Accuracy (Val Set) -->
     <g transform="translate(15.558281 234.774543)rotate(-90)scale(0.11 -0.11)">
      <defs>
       <path d="M 1259 2228 
L 1259 519 
L 2272 519 
Q 2781 519 3026 730 
Q 3272 941 3272 1375 
Q 3272 1813 3026 2020 
Q 2781 2228 2272 2228 
L 1259 2228 
z
M 1259 4147 
L 1259 2741 
L 2194 2741 
Q 2656 2741 2882 2914 
Q 3109 3088 3109 3444 
Q 3109 3797 2882 3972 
Q 2656 4147 2194 4147 
L 1259 4147 
z
M 628 4666 
L 2241 4666 
Q 2963 4666 3353 4366 
Q 3744 4066 3744 3513 
Q 3744 3084 3544 2831 
Q 3344 2578 2956 2516 
Q 3422 2416 3680 2098 
Q 3938 1781 3938 1306 
Q 3938 681 3513 340 
Q 3088 0 2303 0 
L 628 0 
L 628 4666 
z
" id="DejaVuSans-42" transform="scale(0.015625)"/>
       <path d="M 2906 2969 
L 2906 4863 
L 3481 4863 
L 3481 0 
L 2906 0 
L 2906 525 
Q 2725 213 2448 61 
Q 2172 -91 1784 -91 
Q 1150 -91 751 415 
Q 353 922 353 1747 
Q 353 2572 751 3078 
Q 1150 3584 1784 3584 
Q 2172 3584 2448 3432 
Q 2725 3281 2906 2969 
z
M 947 1747 
Q 947 1113 1208 752 
Q 1469 391 1925 391 
Q 2381 391 2643 752 
Q 2906 1113 2906 1747 
Q 2906 2381 2643 2742 
Q 2381 3103 1925 3103 
Q 1469 3103 1208 2742 
Q 947 2381 947 1747 
z
" id="DejaVuSans-64" transform="scale(0.015625)"/>
       <path d="M 2188 4044 
L 1331 1722 
L 3047 1722 
L 2188 4044 
z
M 1831 4666 
L 2547 4666 
L 4325 0 
L 3669 0 
L 3244 1197 
L 1141 1197 
L 716 0 
L 50 0 
L 1831 4666 
z
" id="DejaVuSans-41" transform="scale(0.015625)"/>
       <path d="M 2059 -325 
Q 1816 -950 1584 -1140 
Q 1353 -1331 966 -1331 
L 506 -1331 
L 506 -850 
L 844 -850 
Q 1081 -850 1212 -737 
Q 1344 -625 1503 -206 
L 1606 56 
L 191 3500 
L 800 3500 
L 1894 763 
L 2988 3500 
L 3597 3500 
L 2059 -325 
z
" id="DejaVuSans-79" transform="scale(0.015625)"/>
       <path d="M 1984 4856 
Q 1566 4138 1362 3434 
Q 1159 2731 1159 2009 
Q 1159 1288 1364 580 
Q 1569 -128 1984 -844 
L 1484 -844 
Q 1016 -109 783 600 
Q 550 1309 550 2009 
Q 550 2706 781 3412 
Q 1013 4119 1484 4856 
L 1984 4856 
z
" id="DejaVuSans-28" transform="scale(0.015625)"/>
       <path d="M 1831 0 
L 50 4666 
L 709 4666 
L 2188 738 
L 3669 4666 
L 4325 4666 
L 2547 0 
L 1831 0 
z
" id="DejaVuSans-56" transform="scale(0.015625)"/>
       <path d="M 3425 4513 
L 3425 3897 
Q 3066 4069 2747 4153 
Q 2428 4238 2131 4238 
Q 1616 4238 1336 4038 
Q 1056 3838 1056 3469 
Q 1056 3159 1242 3001 
Q 1428 2844 1947 2747 
L 2328 2669 
Q 3034 2534 3370 2195 
Q 3706 1856 3706 1288 
Q 3706 609 3251 259 
Q 2797 -91 1919 -91 
Q 1588 -91 1214 -16 
Q 841 59 441 206 
L 441 856 
Q 825 641 1194 531 
Q 1563 422 1919 422 
Q 2459 422 2753 634 
Q 3047 847 3047 1241 
Q 3047 1584 2836 1778 
Q 2625 1972 2144 2069 
L 1759 2144 
Q 1053 2284 737 2584 
Q 422 2884 422 3419 
Q 422 4038 858 4394 
Q 1294 4750 2059 4750 
Q 2388 4750 2728 4690 
Q 3069 4631 3425 4513 
z
" id="DejaVuSans-53" transform="scale(0.015625)"/>
       <path d="M 513 4856 
L 1013 4856 
Q 1481 4119 1714 3412 
Q 1947 2706 1947 2009 
Q 1947 1309 1714 600 
Q 1481 -109 1013 -844 
L 513 -844 
Q 928 -128 1133 580 
Q 1338 1288 1338 2009 
Q 1338 2731 1133 3434 
Q 928 4138 513 4856 
z
" id="DejaVuSans-29" transform="scale(0.015625)"/>
      </defs>
      <use xlink:href="#DejaVuSans-42"/>
      <use x="68.603516" xlink:href="#DejaVuSans-61"/>
      <use x="129.882812" xlink:href="#DejaVuSans-6c"/>
      <use x="157.666016" xlink:href="#DejaVuSans-61"/>
      <use x="218.945312" xlink:href="#DejaVuSans-6e"/>
      <use x="282.324219" xlink:href="#DejaVuSans-63"/>
      <use x="337.304688" xlink:href="#DejaVuSans-65"/>
      <use x="398.828125" xlink:href="#DejaVuSans-64"/>
      <use x="462.304688" xlink:href="#DejaVuSans-20"/>
      <use x="494.091797" xlink:href="#DejaVuSans-41"/>
      <use x="560.75" xlink:href="#DejaVuSans-63"/>
      <use x="615.730469" xlink:href="#DejaVuSans-63"/>
      <use x="670.710938" xlink:href="#DejaVuSans-75"/>
      <use x="734.089844" xlink:href="#DejaVuSans-72"/>
      <use x="775.203125" xlink:href="#DejaVuSans-61"/>
      <use x="836.482422" xlink:href="#DejaVuSans-63"/>
      <use x="891.462891" xlink:href="#DejaVuSans-79"/>
      <use x="950.642578" xlink:href="#DejaVuSans-20"/>
      <use x="982.429688" xlink:href="#DejaVuSans-28"/>
      <use x="1021.443359" xlink:href="#DejaVuSans-56"/>
      <use x="1082.101562" xlink:href="#DejaVuSans-61"/>
      <use x="1143.380859" xlink:href="#DejaVuSans-6c"/>
      <use x="1171.164062" xlink:href="#DejaVuSans-20"/>
      <use x="1202.951172" xlink:href="#DejaVuSans-53"/>
      <use x="1266.427734" xlink:href="#DejaVuSans-65"/>
      <use x="1327.951172" xlink:href="#DejaVuSans-74"/>
      <use x="1367.160156" xlink:href="#DejaVuSans-29"/>
     </g>
    </g>
   </g>
   <g id="PolyCollection_1">
    <path clip-path="url(#pf2273ad0fe)" d="M 57.423415 230.854047 
L 57.423415 280.121371 
L 60.286961 274.575134 
L 60.52559 274.122348 
L 61.659077 271.99161 
L 62.01702 271.325644 
L 63.09085 269.347763 
L 63.269822 269.021049 
L 63.687422 268.261993 
L 63.806736 268.045964 
L 64.105022 267.507536 
L 64.224337 267.292824 
L 65.357824 265.271932 
L 65.835082 264.431297 
L 68.698628 259.516907 
L 69.832115 257.633674 
L 79.675555 242.802773 
L 85.462304 235.369777 
L 85.879905 234.869269 
L 88.146879 232.233393 
L 88.922422 231.362281 
L 91.010425 229.090608 
L 91.368368 228.711704 
L 92.263226 227.777582 
L 92.442198 227.592985 
L 93.03877 226.982948 
L 93.277399 226.741194 
L 95.60403 224.450031 
L 96.498888 223.599758 
L 101.927695 218.783883 
L 102.285638 218.485865 
L 104.552612 216.65077 
L 110.637648 212.14258 
L 111.23422 211.731229 
L 114.634681 209.484075 
L 115.827825 208.733734 
L 118.989657 206.837216 
L 119.466915 206.562274 
L 120.779373 205.821176 
L 121.07766 205.65542 
L 122.032175 205.127708 
L 122.330461 204.963685 
L 124.239492 203.925153 
L 125.790579 203.097827 
L 127.162695 202.380652 
L 135.812991 198.30084 
L 136.588535 197.98014 
L 139.213452 196.955473 
L 141.18214 196.248245 
L 142.733227 195.726813 
L 146.491632 194.5834 
L 146.909232 194.465874 
L 147.625119 194.26839 
L 149.355178 193.810474 
L 149.713121 193.718895 
L 150.965923 193.406091 
L 151.383523 193.304328 
L 156.036786 192.409806 
L 157.826502 192.194461 
L 160.988334 192.001434 
L 161.942849 191.99195 
L 167.669942 192.414584 
L 168.743772 192.580527 
L 169.400001 192.693891 
L 169.63863 192.737248 
L 173.933949 193.676664 
L 174.888464 193.914715 
L 175.723665 194.127317 
L 177.871325 194.678444 
L 178.348583 194.799258 
L 179.959327 195.193923 
L 180.496242 195.319112 
L 186.163677 196.27436 
L 186.223335 196.279536 
L 187.297164 196.350405 
L 188.490309 196.409205 
L 191.055569 196.567808 
L 194.157744 196.830587 
L 196.484375 197.090814 
L 202.808039 198.13646 
L 202.987011 198.17371 
L 203.822212 198.352925 
L 206.447129 198.969507 
L 206.984044 199.104363 
L 208.594789 199.522632 
L 208.893075 199.601915 
L 209.549304 199.777793 
L 211.339021 200.262938 
L 212.651479 200.617222 
L 213.307709 200.791616 
L 216.469541 201.574273 
L 219.154115 202.107991 
L 220.705203 202.334386 
L 223.389777 202.541419 
L 230.727614 202.507584 
L 231.980416 202.465992 
L 234.963276 202.342611 
L 235.559849 202.31489 
L 235.619506 202.312075 
L 236.514364 202.269021 
L 237.826823 202.203502 
L 238.005794 202.194386 
L 238.602366 202.16373 
L 243.315286 201.909177 
L 246.65609 201.709297 
L 247.193005 201.674389 
L 249.817922 201.485941 
L 250.29518 201.447683 
L 257.871646 200.556611 
L 258.706847 200.413337 
L 260.078963 200.152768 
L 261.689707 199.803771 
L 263.360109 199.409176 
L 263.539081 199.366038 
L 264.254967 199.191831 
L 266.820227 198.545936 
L 267.655428 198.32836 
L 270.101374 197.670529 
L 273.680807 196.651284 
L 276.902296 195.673438 
L 277.200582 195.579823 
L 277.976126 195.333882 
L 280.481729 194.513136 
L 286.626422 192.309999 
L 286.865051 192.218342 
L 288.177509 191.705291 
L 288.774081 191.466959 
L 292.055228 190.095601 
L 292.890429 189.729423 
L 295.753975 188.4183 
L 296.70849 187.961584 
L 300.228266 186.224305 
L 303.628727 184.488358 
L 304.105985 184.24089 
L 307.088845 182.676437 
L 311.145536 180.509732 
L 312.696623 179.672667 
L 314.605654 178.63782 
L 316.335713 177.696694 
L 320.631032 175.35234 
L 321.52589 174.863273 
L 324.74738 173.102625 
L 325.82121 172.516019 
L 337.215737 166.309607 
L 337.335052 166.244773 
L 341.809342 163.814145 
L 347.357463 160.797456 
L 370.802747 147.833401 
L 382.07796 141.373213 
L 382.07796 41.430812 
L 382.07796 41.430812 
L 370.802747 65.084084 
L 347.357463 107.009215 
L 341.809342 115.41388 
L 337.335052 121.747576 
L 337.215737 121.910966 
L 325.82121 136.172289 
L 324.74738 137.378032 
L 321.52589 140.851945 
L 320.631032 141.778872 
L 316.335713 145.999835 
L 314.605654 147.594392 
L 312.696623 149.284763 
L 311.145536 150.605543 
L 307.088845 153.842306 
L 304.105985 156.028219 
L 303.628727 156.363213 
L 300.228266 158.636218 
L 296.70849 160.786814 
L 295.753975 161.335238 
L 292.890429 162.888194 
L 292.055228 163.316005 
L 288.774081 164.892179 
L 288.177509 165.16141 
L 286.865051 165.735552 
L 286.626422 165.837295 
L 280.481729 168.190704 
L 277.976126 169.012664 
L 277.200582 169.25223 
L 276.902296 169.342572 
L 273.680807 170.257859 
L 270.101374 171.157938 
L 267.655428 171.713381 
L 266.820227 171.893648 
L 264.254967 172.422298 
L 263.539081 172.564047 
L 263.360109 172.599145 
L 261.689707 172.92101 
L 260.078963 173.218402 
L 258.706847 173.45781 
L 257.871646 173.596864 
L 250.29518 174.577671 
L 249.817922 174.619677 
L 247.193005 174.802896 
L 246.65609 174.830172 
L 243.315286 174.921255 
L 238.602366 174.833443 
L 238.005794 174.806697 
L 237.826823 174.798088 
L 236.514364 174.727363 
L 235.619506 174.672293 
L 235.559849 174.668448 
L 234.963276 174.628918 
L 231.980416 174.409861 
L 230.727614 174.312825 
L 223.389777 173.856628 
L 220.705203 173.722416 
L 219.154115 173.604519 
L 216.469541 173.324397 
L 213.307709 172.857993 
L 212.651479 172.741366 
L 211.339021 172.487015 
L 209.549304 172.094793 
L 208.893075 171.938077 
L 208.594789 171.864613 
L 206.984044 171.444794 
L 206.447129 171.296632 
L 203.822212 170.521736 
L 202.987011 170.260867 
L 202.808039 170.204288 
L 196.484375 168.182992 
L 194.157744 167.519232 
L 191.055569 166.813386 
L 188.490309 166.45256 
L 187.297164 166.370954 
L 186.223335 166.324512 
L 186.163677 166.321914 
L 180.496242 166.048658 
L 179.959327 166.017891 
L 178.348583 165.917472 
L 177.871325 165.885098 
L 175.723665 165.722388 
L 174.888464 165.650989 
L 173.933949 165.563534 
L 169.63863 165.096294 
L 169.400001 165.06734 
L 168.743772 164.986586 
L 167.669942 164.85173 
L 161.942849 164.172533 
L 160.988334 164.087073 
L 157.826502 163.927864 
L 156.036786 163.952917 
L 151.383523 164.579808 
L 150.965923 164.681533 
L 149.713121 165.008136 
L 149.355178 165.107175 
L 147.625119 165.619828 
L 146.909232 165.847645 
L 146.491632 165.984565 
L 142.733227 167.338931 
L 141.18214 167.955593 
L 139.213452 168.781239 
L 136.588535 169.951415 
L 135.812991 170.311692 
L 127.162695 174.795575 
L 125.790579 175.594536 
L 124.239492 176.531159 
L 122.330461 177.735376 
L 122.032175 177.928841 
L 121.07766 178.557766 
L 120.779373 178.757399 
L 119.466915 179.650348 
L 118.989657 179.980601 
L 115.827825 182.240707 
L 114.634681 183.124981 
L 111.23422 185.733173 
L 110.637648 186.203465 
L 104.552612 191.190059 
L 102.285638 193.123305 
L 101.927695 193.431624 
L 96.498888 198.186805 
L 95.60403 198.981112 
L 93.277399 201.053473 
L 93.03877 201.266381 
L 92.442198 201.798773 
L 92.263226 201.95851 
L 91.368368 202.757148 
L 91.010425 203.076513 
L 88.922422 204.936622 
L 88.146879 205.625517 
L 85.879905 207.629133 
L 85.462304 207.996258 
L 79.675555 213.003557 
L 69.832115 221.133463 
L 68.698628 222.040648 
L 65.835082 224.311154 
L 65.357824 224.686898 
L 64.224337 225.576578 
L 64.105022 225.670017 
L 63.806736 225.903449 
L 63.687422 225.996756 
L 63.269822 226.323043 
L 63.09085 226.462746 
L 62.01702 227.299379 
L 61.659077 227.577687 
L 60.52559 228.457303 
L 60.286961 228.642182 
L 57.423415 230.854047 
z
" style="fill:#999999;fill-opacity:0.4;"/>
   </g>
   <g id="PolyCollection_2">
    <path clip-path="url(#pf2273ad0fe)" d="M 57.423415 197.915392 
L 57.423415 245.255944 
L 60.286961 241.021556 
L 60.52559 240.676063 
L 61.659077 239.050673 
L 62.01702 238.542811 
L 63.09085 237.034962 
L 63.269822 236.785961 
L 63.687422 236.207535 
L 63.806736 236.042935 
L 64.105022 235.63273 
L 64.224337 235.469167 
L 65.357824 233.930179 
L 65.835082 233.290274 
L 68.698628 229.552945 
L 69.832115 228.122583 
L 79.675555 216.905753 
L 85.462304 211.324214 
L 85.879905 210.949364 
L 88.146879 208.97688 
L 88.922422 208.32518 
L 91.010425 206.62354 
L 91.368368 206.339382 
L 92.263226 205.63839 
L 92.442198 205.499784 
L 93.03877 205.041539 
L 93.277399 204.859853 
L 95.60403 203.135342 
L 96.498888 202.494022 
L 101.927695 198.844559 
L 102.285638 198.617608 
L 104.552612 197.216753 
L 110.637648 193.747078 
L 111.23422 193.428236 
L 114.634681 191.679142 
L 115.827825 191.092275 
L 118.989657 189.602493 
L 119.466915 189.385753 
L 120.779373 188.800595 
L 121.07766 188.669192 
L 122.032175 188.245922 
L 122.330461 188.112853 
L 124.239492 187.25413 
L 125.790579 186.550632 
L 127.162695 185.927341 
L 135.812991 182.151978 
L 136.588535 181.838423 
L 139.213452 180.819088 
L 141.18214 180.099478 
L 142.733227 179.560315 
L 146.491632 178.353282 
L 146.909232 178.227476 
L 147.625119 178.015471 
L 149.355178 177.521498 
L 149.713121 177.422414 
L 150.965923 177.083631 
L 151.383523 176.973394 
L 156.036786 175.796047 
L 157.826502 175.38362 
L 160.988334 174.747494 
L 161.942849 174.584285 
L 167.669942 173.953799 
L 168.743772 173.907105 
L 169.400001 173.88966 
L 169.63863 173.885362 
L 173.933949 173.977563 
L 174.888464 174.035175 
L 175.723665 174.093942 
L 177.871325 174.27167 
L 178.348583 174.314676 
L 179.959327 174.463367 
L 180.496242 174.512853 
L 186.163677 174.914007 
L 186.223335 174.916146 
L 187.297164 174.943884 
L 188.490309 174.970031 
L 191.055569 175.076513 
L 194.157744 175.305404 
L 196.484375 175.557873 
L 202.808039 176.63852 
L 202.987011 176.67765 
L 203.822212 176.866125 
L 206.447129 177.516234 
L 206.984044 177.658635 
L 208.594789 178.100644 
L 208.893075 178.184483 
L 209.549304 178.370537 
L 211.339021 178.884351 
L 212.651479 179.260343 
L 213.307709 179.445764 
L 216.469541 180.28268 
L 219.154115 180.863293 
L 220.705203 181.116843 
L 223.389777 181.370474 
L 230.727614 181.550851 
L 231.980416 181.562277 
L 234.963276 181.582585 
L 235.559849 181.58643 
L 235.619506 181.586822 
L 236.514364 181.59295 
L 237.826823 181.603161 
L 238.005794 181.604696 
L 238.602366 181.610099 
L 243.315286 181.669189 
L 246.65609 181.720981 
L 247.193005 181.7287 
L 249.817922 181.757171 
L 250.29518 181.759863 
L 257.871646 181.580608 
L 258.706847 181.522902 
L 260.078963 181.405959 
L 261.689707 181.230388 
L 263.360109 181.021593 
L 263.539081 180.998745 
L 264.254967 180.906416 
L 266.820227 180.56314 
L 267.655428 180.447091 
L 270.101374 180.094626 
L 273.680807 179.542506 
L 276.902296 179.00385 
L 277.200582 178.951738 
L 277.976126 178.814336 
L 280.481729 178.350277 
L 286.626422 177.056908 
L 286.865051 177.001484 
L 288.177509 176.688798 
L 288.774081 176.542132 
L 292.055228 175.68104 
L 292.890429 175.446273 
L 295.753975 174.589822 
L 296.70849 174.285941 
L 300.228266 173.121506 
L 303.628727 171.954295 
L 304.105985 171.787833 
L 307.088845 170.736152 
L 311.145536 169.284468 
L 312.696623 168.726075 
L 314.605654 168.038164 
L 316.335713 167.415192 
L 320.631032 165.875987 
L 321.52589 165.55738 
L 324.74738 164.41814 
L 325.82121 164.041365 
L 337.215737 160.145084 
L 337.335052 160.105257 
L 341.809342 158.624807 
L 347.357463 156.82039 
L 370.802747 149.412598 
L 382.07796 145.885023 
L 382.07796 49.851221 
L 382.07796 49.851221 
L 370.802747 69.899485 
L 347.357463 105.135727 
L 341.809342 112.117405 
L 337.335052 117.348279 
L 337.215737 117.482808 
L 325.82121 129.118985 
L 324.74738 130.090684 
L 321.52589 132.876185 
L 320.631032 133.615528 
L 316.335713 136.957951 
L 314.605654 138.208799 
L 312.696623 139.526597 
L 311.145536 140.549788 
L 307.088845 143.029682 
L 304.105985 144.678518 
L 303.628727 144.929083 
L 300.228266 146.612348 
L 296.70849 148.173936 
L 295.753975 148.565938 
L 292.890429 149.654765 
L 292.055228 149.948754 
L 288.774081 151.006652 
L 288.177509 151.183009 
L 286.865051 151.554396 
L 286.626422 151.619512 
L 280.481729 153.057276 
L 277.976126 153.522502 
L 277.200582 153.653778 
L 276.902296 153.702746 
L 273.680807 154.181289 
L 270.101374 154.618903 
L 267.655428 154.872985 
L 266.820227 154.953184 
L 264.254967 155.183801 
L 263.539081 155.24494 
L 263.360109 155.260064 
L 261.689707 155.398972 
L 260.078963 155.524957 
L 258.706847 155.621566 
L 257.871646 155.675217 
L 250.29518 155.940697 
L 249.817922 155.941608 
L 247.193005 155.908112 
L 246.65609 155.893059 
L 243.315286 155.736726 
L 238.602366 155.348659 
L 238.005794 155.288099 
L 237.826823 155.269532 
L 236.514364 155.128405 
L 235.619506 155.027991 
L 235.559849 155.0212 
L 234.963276 154.952734 
L 231.980416 154.603379 
L 230.727614 154.458747 
L 223.389777 153.807504 
L 220.705203 153.623845 
L 219.154115 153.47455 
L 216.469541 153.137615 
L 213.307709 152.604584 
L 212.651479 152.474671 
L 211.339021 152.194703 
L 209.549304 151.770178 
L 208.893075 151.602537 
L 208.594789 151.52429 
L 206.984044 151.080791 
L 206.447129 150.925604 
L 203.822212 150.123372 
L 202.987011 149.856438 
L 202.808039 149.798734 
L 196.484375 147.780593 
L 194.157744 147.140373 
L 191.055569 146.485742 
L 188.490309 146.184946 
L 187.297164 146.136884 
L 186.223335 146.132618 
L 186.163677 146.132957 
L 180.496242 146.387123 
L 179.959327 146.428367 
L 178.348583 146.562414 
L 177.871325 146.60439 
L 175.723665 146.799889 
L 174.888464 146.876801 
L 173.933949 146.963896 
L 169.63863 147.325405 
L 169.400001 147.343543 
L 168.743772 147.392322 
L 167.669942 147.468887 
L 161.942849 147.852844 
L 160.988334 147.924823 
L 157.826502 148.222488 
L 156.036786 148.452065 
L 151.383523 149.372247 
L 150.965923 149.482448 
L 149.713121 149.83449 
L 149.355178 149.940742 
L 147.625119 150.487313 
L 146.909232 150.728464 
L 146.491632 150.872905 
L 142.733227 152.282641 
L 141.18214 152.91331 
L 139.213452 153.746706 
L 136.588535 154.905859 
L 135.812991 155.257445 
L 127.162695 159.421076 
L 125.790579 160.122953 
L 124.239492 160.931475 
L 122.330461 161.949403 
L 122.032175 162.110762 
L 121.07766 162.631287 
L 120.779373 162.795243 
L 119.466915 163.526314 
L 118.989657 163.796201 
L 115.827825 165.635351 
L 114.634681 166.350913 
L 111.23422 168.446926 
L 110.637648 168.822404 
L 104.552612 172.751772 
L 102.285638 174.24694 
L 101.927695 174.483789 
L 96.498888 178.074932 
L 95.60403 178.662475 
L 93.277399 180.176742 
L 93.03877 180.330709 
L 92.442198 180.714346 
L 92.263226 180.829063 
L 91.368368 181.39987 
L 91.010425 181.626818 
L 88.922422 182.932989 
L 88.146879 183.409598 
L 85.879905 184.77455 
L 85.462304 185.021233 
L 79.675555 188.27194 
L 69.832115 193.049841 
L 68.698628 193.542327 
L 65.835082 194.739171 
L 65.357824 194.932366 
L 64.224337 195.384381 
L 64.105022 195.431414 
L 63.806736 195.548552 
L 63.687422 195.59523 
L 63.269822 195.757811 
L 63.09085 195.827115 
L 62.01702 196.238348 
L 61.659077 196.373713 
L 60.52559 196.79691 
L 60.286961 196.884973 
L 57.423415 197.915392 
z
" style="fill:#999999;fill-opacity:0.4;"/>
   </g>
   <g id="PolyCollection_3">
    <path clip-path="url(#pf2273ad0fe)" d="M 57.423415 232.101429 
L 57.423415 270.950021 
L 60.286961 267.510399 
L 60.52559 267.229846 
L 61.659077 265.910177 
L 62.01702 265.497912 
L 63.09085 264.274111 
L 63.269822 264.07205 
L 63.687422 263.6027 
L 63.806736 263.469149 
L 64.105022 263.136341 
L 64.224337 263.003647 
L 65.357824 261.755328 
L 65.835082 261.236405 
L 68.698628 258.207265 
L 69.832115 257.04875 
L 79.675555 247.985484 
L 85.462304 243.497278 
L 85.879905 243.196614 
L 88.146879 241.616401 
L 88.922422 241.095096 
L 91.010425 239.73611 
L 91.368368 239.509484 
L 92.263226 238.950805 
L 92.442198 238.840403 
L 93.03877 238.475559 
L 93.277399 238.330971 
L 95.60403 236.96043 
L 96.498888 236.4516 
L 101.927695 233.564618 
L 102.285638 233.38554 
L 104.552612 232.281256 
L 110.637648 229.552722 
L 111.23422 229.302324 
L 114.634681 227.929117 
L 115.827825 227.468383 
L 118.989657 226.298243 
L 119.466915 226.127889 
L 120.779373 225.667739 
L 121.07766 225.564497 
L 122.032175 225.233643 
L 122.330461 225.13014 
L 124.239492 224.467553 
L 125.790579 223.930919 
L 127.162695 223.459552 
L 135.812991 220.667935 
L 136.588535 220.439804 
L 139.213452 219.700301 
L 141.18214 219.178978 
L 142.733227 218.787721 
L 146.491632 217.90387 
L 146.909232 217.810608 
L 147.625119 217.652719 
L 149.355178 217.280507 
L 149.713121 217.20497 
L 150.965923 216.943991 
L 151.383523 216.858057 
L 156.036786 215.896243 
L 157.826502 215.539414 
L 160.988334 214.963267 
L 161.942849 214.808418 
L 167.669942 214.134939 
L 168.743772 214.063615 
L 169.400001 214.02886 
L 169.63863 214.017867 
L 173.933949 213.959695 
L 174.888464 213.978398 
L 175.723665 214.002306 
L 177.871325 214.089492 
L 178.348583 214.112666 
L 179.959327 214.196777 
L 180.496242 214.225888 
L 186.163677 214.478583 
L 186.223335 214.480048 
L 187.297164 214.499734 
L 188.490309 214.522414 
L 191.055569 214.626774 
L 194.157744 214.856487 
L 196.484375 215.106379 
L 202.808039 216.132521 
L 202.987011 216.16866 
L 203.822212 216.341936 
L 206.447129 216.930588 
L 206.984044 217.057835 
L 208.594789 217.449246 
L 208.893075 217.522895 
L 209.549304 217.685669 
L 211.339021 218.130349 
L 212.651479 218.450997 
L 213.307709 218.607493 
L 216.469541 219.296682 
L 219.154115 219.747058 
L 220.705203 219.926341 
L 223.389777 220.057774 
L 230.727614 219.9093 
L 231.980416 219.86113 
L 234.963276 219.733376 
L 235.559849 219.706446 
L 235.619506 219.703738 
L 236.514364 219.662863 
L 237.826823 219.602395 
L 238.005794 219.59413 
L 238.602366 219.56658 
L 243.315286 219.350499 
L 246.65609 219.193813 
L 247.193005 219.167323 
L 249.817922 219.027243 
L 250.29518 218.999232 
L 257.871646 218.354888 
L 258.706847 218.251014 
L 260.078963 218.061607 
L 261.689707 217.806998 
L 263.360109 217.518679 
L 263.539081 217.487176 
L 264.254967 217.359999 
L 266.820227 216.889204 
L 267.655428 216.730924 
L 270.101374 216.25351 
L 273.680807 215.5176 
L 276.902296 214.81626 
L 277.200582 214.749361 
L 277.976126 214.573807 
L 280.481729 213.990019 
L 286.626422 212.437317 
L 286.865051 212.373126 
L 288.177509 212.014344 
L 288.774081 211.847972 
L 292.055228 210.894019 
L 292.890429 210.64019 
L 295.753975 209.734138 
L 296.70849 209.419498 
L 300.228266 208.229882 
L 303.628727 207.053654 
L 304.105985 206.886995 
L 307.088845 205.839343 
L 311.145536 204.405712 
L 312.696623 203.857403 
L 314.605654 203.183931 
L 316.335713 202.57575 
L 320.631032 201.07905 
L 321.52589 200.770175 
L 324.74738 199.668017 
L 325.82121 199.304241 
L 337.215737 195.561399 
L 337.335052 195.523313 
L 341.809342 194.110066 
L 347.357463 192.394322 
L 370.802747 185.432534 
L 382.07796 182.160234 
L 382.07796 103.352997 
L 382.07796 103.352997 
L 370.802747 120.182502 
L 347.357463 149.980866 
L 341.809342 155.945172 
L 337.335052 160.436092 
L 337.215737 160.551893 
L 325.82121 170.646245 
L 324.74738 171.498227 
L 321.52589 173.95134 
L 320.631032 174.60548 
L 316.335713 177.581935 
L 314.605654 178.705364 
L 312.696623 179.895734 
L 311.145536 180.825466 
L 307.088845 183.102866 
L 304.105985 184.640555 
L 303.628727 184.876231 
L 300.228266 186.475943 
L 296.70849 187.991471 
L 295.753975 188.378424 
L 292.890429 189.475168 
L 292.055228 189.777596 
L 288.774081 190.893052 
L 288.177509 191.083789 
L 286.865051 191.490743 
L 286.626422 191.562887 
L 280.481729 193.234082 
L 277.976126 193.818828 
L 277.200582 193.989355 
L 276.902296 194.053674 
L 273.680807 194.705684 
L 270.101374 195.347628 
L 267.655428 195.744307 
L 266.820227 195.873168 
L 264.254967 196.251512 
L 263.539081 196.353095 
L 263.360109 196.378259 
L 261.689707 196.609227 
L 260.078963 196.823145 
L 258.706847 196.995865 
L 257.871646 197.096412 
L 250.29518 197.811514 
L 249.817922 197.842481 
L 247.193005 197.978438 
L 246.65609 197.99891 
L 243.315286 198.069807 
L 238.602366 198.015923 
L 238.005794 197.99821 
L 237.826823 197.992499 
L 236.514364 197.945534 
L 235.619506 197.909037 
L 235.559849 197.906493 
L 234.963276 197.880393 
L 231.980416 197.738126 
L 230.727614 197.676984 
L 223.389777 197.439056 
L 220.705203 197.365043 
L 219.154115 197.271314 
L 216.469541 197.020905 
L 213.307709 196.58109 
L 212.651479 196.470145 
L 211.339021 196.228297 
L 209.549304 195.856889 
L 208.893075 195.709225 
L 208.594789 195.640165 
L 206.984044 195.247531 
L 206.447129 195.109792 
L 203.822212 194.396304 
L 202.987011 194.158643 
L 202.808039 194.107263 
L 196.484375 192.311794 
L 194.157744 191.743705 
L 191.055569 191.164622 
L 188.490309 190.900804 
L 187.297164 190.860141 
L 186.223335 190.859716 
L 186.163677 190.860284 
L 180.496242 191.145358 
L 179.959327 191.190702 
L 178.348583 191.338611 
L 177.871325 191.385175 
L 175.723665 191.604266 
L 174.888464 191.6917 
L 173.933949 191.791746 
L 169.63863 192.22224 
L 169.400001 192.244592 
L 168.743772 192.30506 
L 167.669942 192.400897 
L 161.942849 192.872069 
L 160.988334 192.952052 
L 157.826502 193.250452 
L 156.036786 193.457231 
L 151.383523 194.208011 
L 150.965923 194.293914 
L 149.713121 194.565774 
L 149.355178 194.647194 
L 147.625119 195.062568 
L 146.909232 195.244374 
L 146.491632 195.35293 
L 142.733227 196.403123 
L 141.18214 196.869471 
L 139.213452 197.484169 
L 136.588535 198.33841 
L 135.812991 198.59775 
L 127.162695 201.707987 
L 125.790579 202.243844 
L 124.239492 202.866661 
L 122.330461 203.659896 
L 122.032175 203.786614 
L 121.07766 204.197278 
L 120.779373 204.327233 
L 119.466915 204.907121 
L 118.989657 205.121089 
L 115.827825 206.577928 
L 114.634681 207.144272 
L 111.23422 208.802167 
L 110.637648 209.099041 
L 104.552612 212.204809 
L 102.285638 213.386488 
L 101.927695 213.573688 
L 96.498888 216.412812 
L 95.60403 216.877512 
L 93.277399 218.075521 
L 93.03877 218.197364 
L 92.442198 218.500983 
L 92.263226 218.591781 
L 91.368368 219.043627 
L 91.010425 219.223306 
L 88.922422 220.257762 
L 88.146879 220.635385 
L 85.879905 221.717044 
L 85.462304 221.912532 
L 79.675555 224.488012 
L 69.832115 228.267366 
L 68.698628 228.65624 
L 65.835082 229.600607 
L 65.357824 229.752951 
L 64.224337 230.109279 
L 64.105022 230.146347 
L 63.806736 230.238658 
L 63.687422 230.275439 
L 63.269822 230.403538 
L 63.09085 230.458138 
L 62.01702 230.782034 
L 61.659077 230.88862 
L 60.52559 231.221746 
L 60.286961 231.291047 
L 57.423415 232.101429 
z
" style="fill:#999999;fill-opacity:0.4;"/>
   </g>
   <g id="PolyCollection_4">
    <path clip-path="url(#pf2273ad0fe)" d="M 57.423415 122.85482 
L 57.423415 159.100788 
L 60.286961 156.621394 
L 60.52559 156.419749 
L 61.659077 155.472551 
L 62.01702 155.177106 
L 63.09085 154.301451 
L 63.269822 154.157076 
L 63.687422 153.821954 
L 63.806736 153.726657 
L 64.105022 153.489297 
L 64.224337 153.394706 
L 65.357824 152.506234 
L 65.835082 152.137666 
L 68.698628 149.996208 
L 69.832115 149.182218 
L 79.675555 142.947668 
L 85.462304 139.987707 
L 85.879905 139.793587 
L 88.146879 138.783222 
L 88.922422 138.453736 
L 91.010425 137.604282 
L 91.368368 137.463988 
L 92.263226 137.119825 
L 92.442198 137.052101 
L 93.03877 136.828972 
L 93.277399 136.740834 
L 95.60403 135.913611 
L 96.498888 135.610306 
L 101.927695 133.928437 
L 102.285638 133.826261 
L 104.552612 133.201532 
L 110.637648 131.694667 
L 111.23422 131.558757 
L 114.634681 130.8195 
L 115.827825 130.573553 
L 118.989657 129.952824 
L 119.466915 129.862859 
L 120.779373 129.62028 
L 121.07766 129.565837 
L 122.032175 129.390315 
L 122.330461 129.335089 
L 124.239492 128.978345 
L 125.790579 128.68598 
L 127.162695 128.427287 
L 135.812991 126.889845 
L 136.588535 126.76594 
L 139.213452 126.368183 
L 141.18214 126.091715 
L 142.733227 125.88631 
L 146.491632 125.426615 
L 146.909232 125.378182 
L 147.625119 125.296071 
L 149.355178 125.101399 
L 149.713121 125.061607 
L 150.965923 124.923072 
L 151.383523 124.877032 
L 156.036786 124.351155 
L 157.826502 124.15633 
L 160.988334 123.85356 
L 161.942849 123.777238 
L 167.669942 123.524511 
L 168.743772 123.521028 
L 169.400001 123.525843 
L 169.63863 123.528877 
L 173.933949 123.689083 
L 174.888464 123.747334 
L 175.723665 123.803129 
L 177.871325 123.960668 
L 178.348583 123.997202 
L 179.959327 124.120335 
L 180.496242 124.160382 
L 186.163677 124.466256 
L 186.223335 124.467682 
L 187.297164 124.484547 
L 188.490309 124.488725 
L 191.055569 124.471113 
L 194.157744 124.425814 
L 196.484375 124.396475 
L 202.808039 124.46695 
L 202.987011 124.473794 
L 203.822212 124.509918 
L 206.447129 124.66935 
L 206.984044 124.710504 
L 208.594789 124.850471 
L 208.893075 124.878971 
L 209.549304 124.944306 
L 211.339021 125.139004 
L 212.651479 125.294257 
L 213.307709 125.37479 
L 216.469541 125.774422 
L 219.154115 126.100771 
L 220.705203 126.270104 
L 223.389777 126.508412 
L 230.727614 127.09692 
L 231.980416 127.211468 
L 234.963276 127.505902 
L 235.559849 127.568692 
L 235.619506 127.575045 
L 236.514364 127.671942 
L 237.826823 127.819488 
L 238.005794 127.840102 
L 238.602366 127.90965 
L 243.315286 128.498624 
L 246.65609 128.941654 
L 247.193005 129.012931 
L 249.817922 129.353886 
L 250.29518 129.413645 
L 257.871646 130.147777 
L 258.706847 130.191552 
L 260.078963 130.241616 
L 261.689707 130.262426 
L 263.360109 130.261741 
L 263.539081 130.261692 
L 264.254967 130.261492 
L 266.820227 130.259872 
L 267.655428 130.258675 
L 270.101374 130.251695 
L 273.680807 130.226512 
L 276.902296 130.179763 
L 277.200582 130.17391 
L 277.976126 130.157286 
L 280.481729 130.087976 
L 286.626422 129.785152 
L 286.865051 129.76867 
L 288.177509 129.670609 
L 288.774081 129.621721 
L 292.055228 129.300073 
L 292.890429 129.202862 
L 295.753975 128.817721 
L 296.70849 128.670561 
L 300.228266 128.084106 
L 303.628727 127.474779 
L 304.105985 127.38643 
L 307.088845 126.82117 
L 311.145536 126.023966 
L 312.696623 125.712989 
L 314.605654 125.327049 
L 316.335713 124.975093 
L 320.631032 124.096747 
L 321.52589 123.913525 
L 324.74738 123.254782 
L 325.82121 123.035733 
L 337.215737 120.737603 
L 337.335052 120.713799 
L 341.809342 119.824197 
L 347.357463 118.726802 
L 370.802747 114.052782 
L 382.07796 111.728991 
L 382.07796 38.201371 
L 382.07796 38.201371 
L 370.802747 53.174114 
L 347.357463 79.154795 
L 341.809342 84.216124 
L 337.335052 87.977213 
L 337.215737 88.073525 
L 325.82121 96.297653 
L 324.74738 96.9722 
L 321.52589 98.891392 
L 320.631032 99.396748 
L 316.335713 101.655716 
L 314.605654 102.488401 
L 312.696623 103.356609 
L 311.145536 104.023456 
L 307.088845 105.607902 
L 304.105985 106.630369 
L 303.628727 106.783112 
L 300.228266 107.787552 
L 296.70849 108.678083 
L 295.753975 108.892713 
L 292.890429 109.455771 
L 292.055228 109.598326 
L 288.774081 110.070656 
L 288.177509 110.142277 
L 286.865051 110.285282 
L 286.626422 110.309185 
L 280.481729 110.722564 
L 277.976126 110.792768 
L 277.200582 110.804701 
L 276.902296 110.808147 
L 273.680807 110.808871 
L 270.101374 110.746383 
L 267.655428 110.678036 
L 266.820227 110.651786 
L 264.254967 110.567148 
L 263.539081 110.543468 
L 263.360109 110.537603 
L 261.689707 110.484779 
L 260.078963 110.426005 
L 258.706847 110.360371 
L 257.871646 110.313492 
L 250.29518 109.645378 
L 249.817922 109.588377 
L 247.193005 109.243575 
L 246.65609 109.166683 
L 243.315286 108.643611 
L 238.602366 107.802759 
L 238.005794 107.69098 
L 237.826823 107.657326 
L 236.514364 107.409545 
L 235.619506 107.240459 
L 235.559849 107.229206 
L 234.963276 107.116939 
L 231.980416 106.570573 
L 230.727614 106.354037 
L 223.389777 105.405013 
L 220.705203 105.220279 
L 219.154115 105.130768 
L 216.469541 104.990989 
L 213.307709 104.824025 
L 212.651479 104.785991 
L 211.339021 104.704259 
L 209.549304 104.577924 
L 208.893075 104.526687 
L 208.594789 104.502468 
L 206.984044 104.36136 
L 206.447129 104.310417 
L 203.822212 104.034513 
L 202.987011 103.938317 
L 202.808039 103.917253 
L 196.484375 103.128991 
L 194.157744 102.861451 
L 191.055569 102.580786 
L 188.490309 102.449623 
L 187.297164 102.428666 
L 186.223335 102.429772 
L 186.163677 102.430243 
L 180.496242 102.62611 
L 179.959327 102.65553 
L 178.348583 102.748873 
L 177.871325 102.777405 
L 175.723665 102.905625 
L 174.888464 102.953711 
L 173.933949 103.006255 
L 169.63863 103.193428 
L 169.400001 103.200991 
L 168.743772 103.220167 
L 167.669942 103.24652 
L 161.942849 103.310494 
L 160.988334 103.316966 
L 157.826502 103.360596 
L 156.036786 103.415423 
L 151.383523 103.744404 
L 150.965923 103.790416 
L 149.713121 103.939103 
L 149.355178 103.984383 
L 147.625119 104.219325 
L 146.909232 104.323752 
L 146.491632 104.386454 
L 142.733227 105.001346 
L 141.18214 105.276812 
L 139.213452 105.6404 
L 136.588535 106.145207 
L 135.812991 106.29823 
L 127.162695 108.132947 
L 125.790579 108.451809 
L 124.239492 108.824585 
L 122.330461 109.303223 
L 122.032175 109.38011 
L 121.07766 109.630094 
L 120.779373 109.709461 
L 119.466915 110.063757 
L 118.989657 110.194413 
L 115.827825 111.082635 
L 114.634681 111.427116 
L 111.23422 112.431988 
L 110.637648 112.611261 
L 104.552612 114.470088 
L 102.285638 115.167027 
L 101.927695 115.276781 
L 96.498888 116.913998 
L 95.60403 117.176128 
L 93.277399 117.842379 
L 93.03877 117.909295 
L 92.442198 118.075301 
L 92.263226 118.124734 
L 91.368368 118.369222 
L 91.010425 118.465714 
L 88.922422 119.012379 
L 88.146879 119.207809 
L 85.879905 119.75302 
L 85.462304 119.84901 
L 79.675555 121.024387 
L 69.832115 122.329014 
L 68.698628 122.424925 
L 65.835082 122.621278 
L 65.357824 122.647826 
L 64.224337 122.704065 
L 64.105022 122.709436 
L 63.806736 122.722411 
L 63.687422 122.727421 
L 63.269822 122.744155 
L 63.09085 122.750946 
L 62.01702 122.786985 
L 61.659077 122.797229 
L 60.52559 122.823977 
L 60.286961 122.828523 
L 57.423415 122.85482 
z
" style="fill:#999999;fill-opacity:0.4;"/>
   </g>
   <g id="PolyCollection_5">
    <path clip-path="url(#pf2273ad0fe)" d="M 57.423415 111.151321 
L 57.423415 154.097675 
L 60.286961 152.205066 
L 60.52559 152.051546 
L 61.659077 151.331317 
L 62.01702 151.106987 
L 63.09085 150.443063 
L 63.269822 150.333741 
L 63.687422 150.080147 
L 63.806736 150.008076 
L 64.105022 149.828651 
L 64.224337 149.757181 
L 65.357824 149.086867 
L 65.835082 148.809345 
L 68.698628 147.204048 
L 69.832115 146.597484 
L 79.675555 142.046973 
L 85.462304 139.971445 
L 85.879905 139.837757 
L 88.146879 139.146752 
L 88.922422 138.922682 
L 91.010425 138.344822 
L 91.368368 138.249325 
L 92.263226 138.014941 
L 92.442198 137.968795 
L 93.03877 137.816693 
L 93.277399 137.756581 
L 95.60403 137.191233 
L 96.498888 136.98326 
L 101.927695 135.818685 
L 102.285638 135.747088 
L 104.552612 135.306462 
L 110.637648 134.218035 
L 111.23422 134.117722 
L 114.634681 133.565012 
L 115.827825 133.3784 
L 118.989657 132.901403 
L 119.466915 132.831583 
L 120.779373 132.642522 
L 121.07766 132.599407 
L 122.032175 132.453063 
L 122.330461 132.404802 
L 124.239492 132.069655 
L 125.790579 131.767598 
L 127.162695 131.481957 
L 135.812991 129.480173 
L 136.588535 129.297634 
L 139.213452 128.690652 
L 141.18214 128.250464 
L 142.733227 127.914668 
L 146.491632 127.144888 
L 146.909232 127.063235 
L 147.625119 126.925032 
L 149.355178 126.600097 
L 149.713121 126.534434 
L 150.965923 126.308732 
L 151.383523 126.234905 
L 156.036786 125.280088 
L 157.826502 124.865419 
L 160.988334 124.121784 
L 161.942849 123.902572 
L 167.669942 122.748518 
L 168.743772 122.574629 
L 169.400001 122.476025 
L 169.63863 122.441627 
L 173.933949 121.952921 
L 174.888464 121.875495 
L 175.723665 121.815743 
L 177.871325 121.691233 
L 178.348583 121.66828 
L 179.959327 121.599955 
L 180.496242 121.579528 
L 186.163677 121.362785 
L 186.223335 121.359944 
L 187.297164 121.304834 
L 188.490309 121.236257 
L 191.055569 121.076097 
L 194.157744 120.88447 
L 196.484375 120.76499 
L 202.808039 120.67929 
L 202.987011 120.683588 
L 203.822212 120.70912 
L 206.447129 120.848255 
L 206.984044 120.887466 
L 208.594789 121.025423 
L 208.893075 121.05411 
L 209.549304 121.120385 
L 211.339021 121.320606 
L 212.651479 121.48165 
L 213.307709 121.565284 
L 216.469541 121.976969 
L 219.154115 122.301415 
L 220.705203 122.460495 
L 223.389777 122.658779 
L 230.727614 123.037174 
L 231.980416 123.109691 
L 234.963276 123.30461 
L 235.559849 123.348117 
L 235.619506 123.352559 
L 236.514364 123.421271 
L 237.826823 123.529353 
L 238.005794 123.544786 
L 238.602366 123.597458 
L 243.315286 124.079577 
L 246.65609 124.483059 
L 247.193005 124.551265 
L 249.817922 124.891378 
L 250.29518 124.953599 
L 257.871646 125.842344 
L 258.706847 125.91708 
L 260.078963 126.024315 
L 261.689707 126.122487 
L 263.360109 126.209778 
L 263.539081 126.219384 
L 264.254967 126.258274 
L 266.820227 126.403162 
L 267.655428 126.451965 
L 270.101374 126.598419 
L 273.680807 126.818042 
L 276.902296 127.013986 
L 277.200582 127.031733 
L 277.976126 127.07739 
L 280.481729 127.21855 
L 286.626422 127.494259 
L 286.865051 127.502091 
L 288.177509 127.540287 
L 288.774081 127.554758 
L 292.055228 127.597779 
L 292.890429 127.59784 
L 295.753975 127.560307 
L 296.70849 127.53398 
L 300.228266 127.415138 
L 303.628727 127.29162 
L 304.105985 127.274222 
L 307.088845 127.168284 
L 311.145536 127.040982 
L 312.696623 127.00033 
L 314.605654 126.95811 
L 316.335713 126.928283 
L 320.631032 126.8941 
L 321.52589 126.894798 
L 324.74738 126.921362 
L 325.82121 126.938844 
L 337.215737 127.400192 
L 337.335052 127.407686 
L 341.809342 127.727341 
L 347.357463 128.224809 
L 370.802747 131.421147 
L 382.07796 133.512614 
L 382.07796 46.392764 
L 382.07796 46.392764 
L 370.802747 59.288519 
L 347.357463 81.337567 
L 341.809342 85.536801 
L 337.335052 88.619454 
L 337.215737 88.697871 
L 325.82121 95.257994 
L 324.74738 95.780214 
L 321.52589 97.247104 
L 320.631032 97.628089 
L 316.335713 99.298113 
L 314.605654 99.897536 
L 312.696623 100.511176 
L 311.145536 100.973483 
L 307.088845 102.033556 
L 304.105985 102.68122 
L 303.628727 102.774916 
L 300.228266 103.366586 
L 296.70849 103.845716 
L 295.753975 103.951985 
L 292.890429 104.200325 
L 292.055228 104.25399 
L 288.774081 104.389507 
L 288.177509 104.40197 
L 286.865051 104.417027 
L 286.626422 104.417988 
L 280.481729 104.273271 
L 277.976126 104.13317 
L 277.200582 104.081955 
L 276.902296 104.061355 
L 273.680807 103.810879 
L 270.101374 103.487378 
L 267.655428 103.251673 
L 266.820227 103.170347 
L 264.254967 102.923257 
L 263.539081 102.856073 
L 263.360109 102.839459 
L 261.689707 102.688769 
L 260.078963 102.545613 
L 258.706847 102.419931 
L 257.871646 102.341517 
L 250.29518 101.530993 
L 249.817922 101.47204 
L 247.193005 101.127369 
L 246.65609 101.05251 
L 243.315286 100.55419 
L 238.602366 99.773631 
L 238.005794 99.670922 
L 237.826823 99.640038 
L 236.514364 99.413191 
L 235.619506 99.258946 
L 235.559849 99.248697 
L 234.963276 99.146568 
L 231.980416 98.653146 
L 230.727614 98.459786 
L 223.389777 97.65423 
L 220.705203 97.519424 
L 219.154115 97.454922 
L 216.469541 97.351536 
L 213.307709 97.215529 
L 212.651479 97.18225 
L 211.339021 97.108317 
L 209.549304 96.989098 
L 208.893075 96.939527 
L 208.594789 96.915913 
L 206.984044 96.776604 
L 206.447129 96.725794 
L 203.822212 96.448655 
L 202.987011 96.351946 
L 202.808039 96.3308 
L 196.484375 95.566024 
L 194.157744 95.333745 
L 191.055569 95.139149 
L 188.490309 95.123032 
L 187.297164 95.171728 
L 186.223335 95.248131 
L 186.163677 95.253221 
L 180.496242 96.064456 
L 179.959327 96.167192 
L 178.348583 96.49201 
L 177.871325 96.592057 
L 175.723665 97.05515 
L 174.888464 97.237989 
L 173.933949 97.44669 
L 169.63863 98.346991 
L 169.400001 98.393944 
L 168.743772 98.520975 
L 167.669942 98.721961 
L 161.942849 99.652371 
L 160.988334 99.78882 
L 157.826502 100.22541 
L 156.036786 100.474201 
L 151.383523 101.195724 
L 150.965923 101.269518 
L 149.713121 101.507249 
L 149.355178 101.579414 
L 147.625119 101.952064 
L 146.909232 102.116708 
L 146.491632 102.215267 
L 142.733227 103.168935 
L 141.18214 103.587743 
L 139.213452 104.131156 
L 136.588535 104.864978 
L 135.812991 105.082017 
L 127.162695 107.436029 
L 125.790579 107.792963 
L 124.239492 108.190295 
L 122.330461 108.669869 
L 122.032175 108.743795 
L 121.07766 108.978366 
L 120.779373 109.051013 
L 119.466915 109.372442 
L 118.989657 109.490476 
L 115.827825 110.284413 
L 114.634681 110.587774 
L 111.23422 111.455202 
L 110.637648 111.606893 
L 104.552612 113.112345 
L 102.285638 113.63853 
L 101.927695 113.719106 
L 96.498888 114.830774 
L 95.60403 114.989962 
L 93.277399 115.36458 
L 93.03877 115.399547 
L 92.442198 115.483966 
L 92.263226 115.50844 
L 91.368368 115.624723 
L 91.010425 115.66832 
L 88.922422 115.887419 
L 88.146879 115.952651 
L 85.879905 116.092515 
L 85.462304 116.109933 
L 79.675555 116.070979 
L 69.832115 114.78023 
L 68.698628 114.535971 
L 65.835082 113.836593 
L 65.357824 113.708869 
L 64.224337 113.393105 
L 64.105022 113.358861 
L 63.806736 113.272422 
L 63.687422 113.237515 
L 63.269822 113.113864 
L 63.09085 113.060169 
L 62.01702 112.729267 
L 61.659077 112.615675 
L 60.52559 112.245299 
L 60.286961 112.165284 
L 57.423415 111.151321 
z
" style="fill:#999999;fill-opacity:0.4;"/>
   </g>
   <g id="PolyCollection_6">
    <path clip-path="url(#pf2273ad0fe)" d="M 57.423415 155.372793 
L 57.423415 190.784453 
L 60.286961 188.676872 
L 60.52559 188.505685 
L 61.659077 187.702055 
L 62.01702 187.451566 
L 63.09085 186.709671 
L 63.269822 186.587427 
L 63.687422 186.303766 
L 63.806736 186.223126 
L 64.105022 186.022317 
L 64.224337 185.942311 
L 65.357824 185.191362 
L 65.835082 184.880138 
L 68.698628 183.075738 
L 69.832115 182.391826 
L 79.675555 177.205891 
L 85.462304 174.793783 
L 85.879905 174.637234 
L 88.146879 173.826234 
L 88.922422 173.563164 
L 91.010425 172.887953 
L 91.368368 172.776869 
L 92.263226 172.504902 
L 92.442198 172.451476 
L 93.03877 172.275669 
L 93.277399 172.206315 
L 95.60403 171.557971 
L 96.498888 171.321443 
L 101.927695 170.021659 
L 102.285638 169.943335 
L 104.552612 169.465977 
L 110.637648 168.324612 
L 111.23422 168.222288 
L 114.634681 167.66721 
L 115.827825 167.48304 
L 118.989657 167.019155 
L 119.466915 166.952022 
L 120.779373 166.771117 
L 121.07766 166.730389 
L 122.032175 166.597169 
L 122.330461 166.554678 
L 124.239492 166.274193 
L 125.790579 166.037439 
L 127.162695 165.823509 
L 135.812991 164.488589 
L 136.588535 164.377424 
L 139.213452 164.018035 
L 141.18214 163.766412 
L 142.733227 163.578839 
L 146.491632 163.158806 
L 146.909232 163.114667 
L 147.625119 163.039946 
L 149.355178 162.863522 
L 149.713121 162.827616 
L 150.965923 162.703119 
L 151.383523 162.661937 
L 156.036786 162.195078 
L 157.826502 162.024203 
L 160.988334 161.763268 
L 161.942849 161.699124 
L 167.669942 161.510089 
L 168.743772 161.516103 
L 169.400001 161.526257 
L 169.63863 161.531141 
L 173.933949 161.715649 
L 174.888464 161.77682 
L 175.723665 161.834389 
L 177.871325 161.99304 
L 178.348583 162.029134 
L 179.959327 162.148895 
L 180.496242 162.187164 
L 186.163677 162.453658 
L 186.223335 162.454464 
L 187.297164 162.459406 
L 188.490309 162.446252 
L 191.055569 162.370331 
L 194.157744 162.22002 
L 196.484375 162.090351 
L 202.808039 161.81538 
L 202.987011 161.811239 
L 203.822212 161.795437 
L 206.447129 161.785734 
L 206.984044 161.791432 
L 208.594789 161.823909 
L 208.893075 161.832372 
L 209.549304 161.853548 
L 211.339021 161.927741 
L 212.651479 161.995187 
L 213.307709 162.032198 
L 216.469541 162.22834 
L 219.154115 162.394384 
L 220.705203 162.478423 
L 223.389777 162.58518 
L 230.727614 162.78606 
L 231.980416 162.825853 
L 234.963276 162.937472 
L 235.559849 162.963256 
L 235.619506 162.965905 
L 236.514364 163.007233 
L 237.826823 163.073465 
L 238.005794 163.083031 
L 238.602366 163.115862 
L 243.315286 163.425684 
L 246.65609 163.691504 
L 247.193005 163.736599 
L 249.817922 163.960874 
L 250.29518 164.001656 
L 257.871646 164.553438 
L 258.706847 164.593377 
L 260.078963 164.645373 
L 261.689707 164.682258 
L 263.360109 164.707418 
L 263.539081 164.710275 
L 264.254967 164.721983 
L 266.820227 164.766992 
L 267.655428 164.782418 
L 270.101374 164.828621 
L 273.680807 164.894721 
L 276.902296 164.945688 
L 277.200582 164.949698 
L 277.976126 164.959403 
L 280.481729 164.982166 
L 286.626422 164.955401 
L 286.865051 164.951213 
L 288.177509 164.923033 
L 288.774081 164.907197 
L 292.055228 164.782383 
L 292.890429 164.7395 
L 295.753975 164.554367 
L 296.70849 164.478767 
L 300.228266 164.174426 
L 303.628727 163.86328 
L 304.105985 163.818778 
L 307.088845 163.538607 
L 311.145536 163.159411 
L 312.696623 163.017394 
L 314.605654 162.846284 
L 316.335713 162.695543 
L 320.631032 162.343382 
L 321.52589 162.274531 
L 324.74738 162.041001 
L 325.82121 161.968362 
L 337.215737 161.366452 
L 337.335052 161.361781 
L 341.809342 161.210062 
L 347.357463 161.082621 
L 370.802747 161.171837 
L 382.07796 161.515623 
L 382.07796 89.680457 
L 382.07796 89.680457 
L 370.802747 101.69447 
L 347.357463 122.42148 
L 341.809342 126.421613 
L 337.335052 129.378724 
L 337.215737 129.454234 
L 325.82121 135.845737 
L 324.74738 136.363391 
L 321.52589 137.828357 
L 320.631032 138.211926 
L 316.335713 139.912929 
L 314.605654 140.533335 
L 312.696623 141.175612 
L 311.145536 141.665307 
L 307.088845 142.813625 
L 304.105985 143.540479 
L 303.628727 143.647892 
L 300.228266 144.345057 
L 296.70849 144.946475 
L 295.753975 145.087992 
L 292.890429 145.446946 
L 292.055228 145.534129 
L 288.774081 145.806157 
L 288.177509 145.844203 
L 286.865051 145.916293 
L 286.626422 145.92773 
L 280.481729 146.062506 
L 277.976126 146.040615 
L 277.200582 146.026329 
L 276.902296 146.019966 
L 273.680807 145.924034 
L 270.101374 145.772281 
L 267.655428 145.652485 
L 266.820227 145.610244 
L 264.254967 145.480962 
L 263.539081 145.445924 
L 263.360109 145.437289 
L 261.689707 145.359853 
L 260.078963 145.285876 
L 258.706847 145.21867 
L 257.871646 145.175697 
L 250.29518 144.688414 
L 249.817922 144.650326 
L 247.193005 144.422293 
L 246.65609 144.371712 
L 243.315286 144.027693 
L 238.602366 143.47179 
L 238.005794 143.397701 
L 237.826823 143.375395 
L 236.514364 143.211235 
L 235.619506 143.09938 
L 235.559849 143.091944 
L 234.963276 143.017822 
L 231.980416 142.66007 
L 230.727614 142.520636 
L 223.389777 141.967537 
L 220.705203 141.913122 
L 219.154115 141.907068 
L 216.469541 141.923299 
L 213.307709 141.95447 
L 212.651479 141.958979 
L 211.339021 141.963361 
L 209.549304 141.955958 
L 208.893075 141.948555 
L 208.594789 141.944275 
L 206.984044 141.910683 
L 206.447129 141.895421 
L 203.822212 141.791334 
L 202.987011 141.748446 
L 202.808039 141.738694 
L 196.484375 141.312401 
L 194.157744 141.152025 
L 191.055569 140.983874 
L 188.490309 140.914444 
L 187.297164 140.911206 
L 186.223335 140.923821 
L 186.163677 140.924868 
L 180.496242 141.148566 
L 179.959327 141.178166 
L 178.348583 141.269898 
L 177.871325 141.297372 
L 175.723665 141.417902 
L 174.888464 141.461824 
L 173.933949 141.508896 
L 169.63863 141.663772 
L 169.400001 141.669241 
L 168.743772 141.682526 
L 167.669942 141.698856 
L 161.942849 141.703483 
L 160.988334 141.699384 
L 157.826502 141.707144 
L 156.036786 141.741244 
L 151.383523 142.015739 
L 150.965923 142.056893 
L 149.713121 142.191308 
L 149.355178 142.232576 
L 147.625119 142.448344 
L 146.909232 142.544867 
L 146.491632 142.602946 
L 142.733227 143.174604 
L 141.18214 143.430625 
L 139.213452 143.767363 
L 136.588535 144.231338 
L 135.812991 144.37095 
L 127.162695 145.996303 
L 125.790579 146.269018 
L 124.239492 146.584331 
L 122.330461 146.983904 
L 122.032175 147.047557 
L 121.07766 147.253525 
L 120.779373 147.318604 
L 119.466915 147.608654 
L 118.989657 147.715543 
L 115.827825 148.440762 
L 114.634681 148.721198 
L 111.23422 149.535778 
L 110.637648 149.680467 
L 104.552612 151.165692 
L 102.285638 151.713598 
L 101.927695 151.799325 
L 96.498888 153.055485 
L 95.60403 153.251787 
L 93.277399 153.742864 
L 93.03877 153.791484 
L 92.442198 153.911483 
L 92.263226 153.94704 
L 91.368368 154.121625 
L 91.010425 154.189915 
L 88.922422 154.569308 
L 88.146879 154.701407 
L 85.879905 155.057959 
L 85.462304 155.118638 
L 79.675555 155.787238 
L 69.832115 156.156728 
L 68.698628 156.13909 
L 65.835082 156.043157 
L 65.357824 156.020233 
L 64.224337 155.958106 
L 64.105022 155.950946 
L 63.806736 155.932534 
L 63.687422 155.924965 
L 63.269822 155.897567 
L 63.09085 155.885393 
L 62.01702 155.806998 
L 61.659077 155.778853 
L 60.52559 155.683219 
L 60.286961 155.661843 
L 57.423415 155.372793 
z
" style="fill:#999999;fill-opacity:0.4;"/>
   </g>
   <g id="line2d_22">
    <path clip-path="url(#pf2273ad0fe)" d="M 57.423415 255.487709 
L 64.224337 246.434701 
L 69.832115 239.383569 
L 79.675555 227.903165 
L 88.146879 218.929455 
L 93.277399 213.897334 
L 96.498888 210.893281 
L 104.552612 203.920415 
L 111.23422 198.732201 
L 115.827825 195.487221 
L 122.032175 191.528274 
L 125.790579 189.346182 
L 127.162695 188.588114 
L 136.588535 183.965778 
L 141.18214 182.101919 
L 142.733227 181.532872 
L 147.625119 179.944109 
L 151.383523 178.942068 
L 156.036786 178.181362 
L 157.826502 178.061163 
L 161.942849 178.082241 
L 169.63863 178.916771 
L 180.496242 180.683885 
L 187.297164 181.36068 
L 191.055569 181.690597 
L 196.484375 182.636903 
L 206.984044 185.274578 
L 213.307709 186.824804 
L 216.469541 187.449335 
L 220.705203 188.028401 
L 223.389777 188.199023 
L 236.514364 188.498192 
L 243.315286 188.415216 
L 250.29518 188.012677 
L 258.706847 186.935574 
L 263.539081 185.965042 
L 270.101374 184.414233 
L 277.200582 182.416027 
L 280.481729 181.35192 
L 288.774081 178.179569 
L 292.890429 176.308808 
L 296.70849 174.374199 
L 303.628727 170.425785 
L 307.088845 168.259372 
L 312.696623 164.478715 
L 316.335713 161.848265 
L 321.52589 157.857609 
L 325.82121 154.344154 
L 337.335052 143.996175 
L 341.809342 139.614013 
L 347.357463 133.903336 
L 370.802747 106.458742 
L 382.07796 91.402013 
L 382.07796 91.402013 
" style="fill:none;stroke:#db5f57;stroke-dasharray:6.558079,2.835926;stroke-dashoffset:0;stroke-linejoin:miter;stroke-width:1.772454;"/>
   </g>
   <g id="line2d_23">
    <path clip-path="url(#pf2273ad0fe)" d="M 57.423415 221.585668 
L 65.357824 214.431272 
L 69.832115 210.586212 
L 79.675555 202.588846 
L 88.922422 195.629085 
L 96.498888 190.284477 
L 104.552612 184.984263 
L 111.23422 180.937581 
L 115.827825 178.363813 
L 122.330461 175.031128 
L 127.162695 172.674208 
L 136.588535 168.372141 
L 142.733227 165.921478 
L 149.355178 163.73112 
L 151.383523 163.17282 
L 157.826502 161.803054 
L 161.942849 161.218564 
L 169.63863 160.605384 
L 178.348583 160.438545 
L 188.490309 160.577488 
L 191.055569 160.781127 
L 194.157744 161.222888 
L 196.484375 161.669233 
L 206.447129 164.220919 
L 213.307709 166.025174 
L 216.469541 166.710148 
L 220.705203 167.370344 
L 223.389777 167.588989 
L 246.65609 168.80702 
L 250.29518 168.85028 
L 260.078963 168.465458 
L 267.655428 167.660038 
L 273.680807 166.861897 
L 280.481729 165.703777 
L 288.774081 163.774392 
L 292.890429 162.550519 
L 296.70849 161.229938 
L 303.628727 158.441689 
L 307.088845 156.882917 
L 314.605654 153.123481 
L 320.631032 149.745757 
L 325.82121 146.580175 
L 337.335052 138.726768 
L 341.809342 135.371106 
L 347.357463 130.978059 
L 370.802747 109.656041 
L 382.07796 97.868122 
L 382.07796 97.868122 
" style="fill:none;stroke:#57db5f;stroke-dasharray:6.558079,2.835926;stroke-dashoffset:0;stroke-linejoin:miter;stroke-width:1.772454;"/>
   </g>
   <g id="line2d_24">
    <path clip-path="url(#pf2273ad0fe)" d="M 57.423415 251.525725 
L 65.835082 245.418506 
L 69.832115 242.658058 
L 79.675555 236.236748 
L 88.922422 230.676429 
L 96.498888 226.432206 
L 104.552612 222.243033 
L 111.23422 219.052246 
L 118.989657 215.709666 
L 125.790579 213.087382 
L 127.162695 212.58377 
L 136.588535 209.389107 
L 142.733227 207.595422 
L 149.713121 205.885372 
L 151.383523 205.533034 
L 157.826502 204.394933 
L 161.942849 203.840244 
L 169.63863 203.120054 
L 178.348583 202.725639 
L 186.223335 202.669882 
L 188.490309 202.711609 
L 191.055569 202.895698 
L 196.484375 203.709086 
L 206.984044 206.152683 
L 213.307709 207.594292 
L 216.469541 208.158793 
L 220.705203 208.645692 
L 223.389777 208.748415 
L 238.602366 208.791252 
L 247.193005 208.572881 
L 250.29518 208.405373 
L 260.078963 207.442376 
L 267.655428 206.237616 
L 273.680807 205.111642 
L 280.481729 203.612051 
L 288.774081 201.370512 
L 295.753975 199.056281 
L 300.228266 197.352912 
L 307.088845 194.471104 
L 314.605654 190.944648 
L 321.52589 187.360758 
L 325.82121 184.975243 
L 337.335052 177.979702 
L 341.809342 175.027619 
L 347.357463 171.187594 
L 370.802747 152.807518 
L 382.07796 142.756615 
L 382.07796 142.756615 
" style="fill:none;stroke:#5f57db;stroke-dasharray:6.558079,2.835926;stroke-dashoffset:0;stroke-linejoin:miter;stroke-width:1.772454;"/>
   </g>
   <g id="line2d_25">
    <path clip-path="url(#pf2273ad0fe)" d="M 57.423415 140.977804 
L 65.835082 137.379472 
L 69.832115 135.755616 
L 79.675555 131.986028 
L 91.368368 127.916605 
L 96.498888 126.262152 
L 104.552612 123.83581 
L 115.827825 120.828094 
L 124.239492 118.901465 
L 127.162695 118.280117 
L 139.213452 116.004292 
L 146.909232 114.850967 
L 151.383523 114.310718 
L 157.826502 113.758463 
L 161.942849 113.543866 
L 169.63863 113.361152 
L 180.496242 113.393246 
L 191.055569 113.525949 
L 196.484375 113.762733 
L 209.549304 114.761115 
L 230.727614 116.725478 
L 238.602366 117.856205 
L 250.29518 119.529512 
L 260.078963 120.33381 
L 270.101374 120.499039 
L 277.976126 120.475027 
L 280.481729 120.40527 
L 288.774081 119.846189 
L 292.890429 119.329316 
L 296.70849 118.674322 
L 303.628727 117.128946 
L 307.088845 116.214536 
L 314.605654 113.907725 
L 320.631032 111.746747 
L 325.82121 109.666693 
L 337.335052 104.345506 
L 341.809342 102.02016 
L 347.357463 98.940799 
L 370.802747 83.613448 
L 382.07796 74.965181 
L 382.07796 74.965181 
" style="fill:none;stroke:#db5f57;stroke-linejoin:miter;stroke-width:1.772454;"/>
   </g>
   <g id="line2d_26">
    <path clip-path="url(#pf2273ad0fe)" d="M 57.423415 132.624498 
L 69.832115 130.688857 
L 88.146879 127.549702 
L 96.498888 125.907017 
L 127.162695 119.458993 
L 146.909232 114.589972 
L 151.383523 113.715314 
L 175.723665 109.435446 
L 180.496242 108.821992 
L 188.490309 108.179644 
L 194.157744 108.109108 
L 196.484375 108.165507 
L 206.984044 108.832035 
L 223.389777 110.156505 
L 231.980416 110.881418 
L 238.602366 111.685544 
L 250.29518 113.242296 
L 260.078963 114.284964 
L 280.481729 115.745911 
L 288.774081 115.972133 
L 292.890429 115.899083 
L 296.70849 115.689848 
L 304.105985 114.977721 
L 311.145536 114.007233 
L 316.335713 113.113198 
L 324.74738 111.350788 
L 325.82121 111.098419 
L 337.335052 108.01357 
L 341.809342 106.632071 
L 347.357463 104.781188 
L 370.802747 95.354833 
L 382.07796 89.952689 
L 382.07796 89.952689 
" style="fill:none;stroke:#57db5f;stroke-linejoin:miter;stroke-width:1.772454;"/>
   </g>
   <g id="line2d_27">
    <path clip-path="url(#pf2273ad0fe)" d="M 57.423415 173.078623 
L 68.698628 169.607414 
L 79.675555 166.496564 
L 93.277399 162.97459 
L 104.552612 160.315834 
L 115.827825 157.961901 
L 127.162695 155.909906 
L 141.18214 153.598519 
L 147.625119 152.744145 
L 151.383523 152.338838 
L 157.826502 151.865674 
L 161.942849 151.701303 
L 169.63863 151.597457 
L 203.822212 151.793386 
L 220.705203 152.195773 
L 223.389777 152.276359 
L 234.963276 152.977647 
L 258.706847 154.906023 
L 270.101374 155.300451 
L 280.481729 155.522336 
L 288.774081 155.356677 
L 292.890429 155.093223 
L 296.70849 154.712621 
L 304.105985 153.679628 
L 311.145536 152.412359 
L 316.335713 151.304236 
L 324.74738 149.202196 
L 325.82121 148.90705 
L 337.335052 145.370252 
L 341.809342 143.815837 
L 347.357463 141.75205 
L 370.802747 131.433153 
L 382.07796 125.59804 
L 382.07796 125.59804 
" style="fill:none;stroke:#5f57db;stroke-linejoin:miter;stroke-width:1.772454;"/>
   </g>
   <g id="patch_3">
    <path d="M 405.510688 232.279308 
L 517.346688 232.279308 
L 517.346688 82.587433 
L 405.510688 82.587433 
z
" style="fill:#ffffff;"/>
   </g>
   <g id="text_10">
    <!-- pretrained -->
    <g transform="translate(417.710688 106.181027)scale(0.11 -0.11)">
     <use xlink:href="#DejaVuSans-70"/>
     <use x="63.476562" xlink:href="#DejaVuSans-72"/>
     <use x="102.339844" xlink:href="#DejaVuSans-65"/>
     <use x="163.863281" xlink:href="#DejaVuSans-74"/>
     <use x="203.072266" xlink:href="#DejaVuSans-72"/>
     <use x="244.185547" xlink:href="#DejaVuSans-61"/>
     <use x="305.464844" xlink:href="#DejaVuSans-69"/>
     <use x="333.248047" xlink:href="#DejaVuSans-6e"/>
     <use x="396.626953" xlink:href="#DejaVuSans-65"/>
     <use x="458.150391" xlink:href="#DejaVuSans-64"/>
    </g>
   </g>
   <g id="patch_4">
    <path clip-path="url(#p8251d8c409)" d="M 417.710688 125.673371 
L 433.550687 125.673371 
L 433.550687 109.833371 
L 417.710688 109.833371 
z
" style="fill:#f2f2f2;"/>
   </g>
   <g id="patch_5">
    <path clip-path="url(#p8251d8c409)" d="M 417.710688 121.713371 
L 433.550687 121.713371 
L 433.550687 113.793371 
L 417.710688 113.793371 
z
" style="fill:#999999;opacity:0.4;"/>
   </g>
   <g id="line2d_28">
    <path clip-path="url(#p8251d8c409)" d="M 417.710688 117.753371 
L 433.550687 117.753371 
" style="fill:none;stroke:#000000;stroke-dasharray:6.558079,2.835926;stroke-dashoffset:0;stroke-width:1.772454;"/>
   </g>
   <g id="text_11">
    <!-- False -->
    <g transform="translate(436.550687 120.181621)scale(0.088 -0.088)">
     <defs>
      <path d="M 628 4666 
L 3309 4666 
L 3309 4134 
L 1259 4134 
L 1259 2759 
L 3109 2759 
L 3109 2228 
L 1259 2228 
L 1259 0 
L 628 0 
L 628 4666 
z
" id="DejaVuSans-46" transform="scale(0.015625)"/>
     </defs>
     <use xlink:href="#DejaVuSans-46"/>
     <use x="48.394531" xlink:href="#DejaVuSans-61"/>
     <use x="109.673828" xlink:href="#DejaVuSans-6c"/>
     <use x="137.457031" xlink:href="#DejaVuSans-73"/>
     <use x="189.556641" xlink:href="#DejaVuSans-65"/>
    </g>
   </g>
   <g id="patch_6">
    <path clip-path="url(#pa79c7033ff)" d="M 417.710688 143.513371 
L 433.550687 143.513371 
L 433.550687 127.673371 
L 417.710688 127.673371 
z
" style="fill:#f2f2f2;"/>
   </g>
   <g id="patch_7">
    <path clip-path="url(#pa79c7033ff)" d="M 417.710688 139.553371 
L 433.550687 139.553371 
L 433.550687 131.633371 
L 417.710688 131.633371 
z
" style="fill:#999999;opacity:0.4;"/>
   </g>
   <g id="line2d_29">
    <path clip-path="url(#pa79c7033ff)" d="M 417.710688 135.593371 
L 433.550687 135.593371 
" style="fill:none;stroke:#000000;stroke-width:1.772454;"/>
   </g>
   <g id="text_12">
    <!-- True -->
    <g transform="translate(436.550687 138.021621)scale(0.088 -0.088)">
     <use xlink:href="#DejaVuSans-54"/>
     <use x="46.333984" xlink:href="#DejaVuSans-72"/>
     <use x="87.447266" xlink:href="#DejaVuSans-75"/>
     <use x="150.826172" xlink:href="#DejaVuSans-65"/>
    </g>
   </g>
   <g id="text_13">
    <!-- Model -->
    <g transform="translate(417.710688 164.906964)scale(0.11 -0.11)">
     <defs>
      <path d="M 628 4666 
L 1569 4666 
L 2759 1491 
L 3956 4666 
L 4897 4666 
L 4897 0 
L 4281 0 
L 4281 4097 
L 3078 897 
L 2444 897 
L 1241 4097 
L 1241 0 
L 628 0 
L 628 4666 
z
" id="DejaVuSans-4d" transform="scale(0.015625)"/>
     </defs>
     <use xlink:href="#DejaVuSans-4d"/>
     <use x="86.279297" xlink:href="#DejaVuSans-6f"/>
     <use x="147.460938" xlink:href="#DejaVuSans-64"/>
     <use x="210.9375" xlink:href="#DejaVuSans-65"/>
     <use x="272.460938" xlink:href="#DejaVuSans-6c"/>
    </g>
   </g>
   <g id="patch_8">
    <path clip-path="url(#p7ca9a97129)" d="M 417.710688 184.399308 
L 433.550687 184.399308 
L 433.550687 168.559308 
L 417.710688 168.559308 
z
" style="fill:#f2f2f2;"/>
   </g>
   <g id="patch_9">
    <path clip-path="url(#p7ca9a97129)" d="M 417.710688 180.439308 
L 433.550687 180.439308 
L 433.550687 172.519308 
L 417.710688 172.519308 
z
" style="fill:#999999;opacity:0.4;"/>
   </g>
   <g id="line2d_30">
    <path clip-path="url(#p7ca9a97129)" d="M 417.710688 176.479308 
L 433.550687 176.479308 
" style="fill:none;stroke:#db5f57;stroke-width:1.772454;"/>
   </g>
   <g id="text_14">
    <!-- five_layer_net -->
    <g transform="translate(436.550687 178.785183)scale(0.088 -0.088)">
     <defs>
      <path d="M 2375 4863 
L 2375 4384 
L 1825 4384 
Q 1516 4384 1395 4259 
Q 1275 4134 1275 3809 
L 1275 3500 
L 2222 3500 
L 2222 3053 
L 1275 3053 
L 1275 0 
L 697 0 
L 697 3053 
L 147 3053 
L 147 3500 
L 697 3500 
L 697 3744 
Q 697 4328 969 4595 
Q 1241 4863 1831 4863 
L 2375 4863 
z
" id="DejaVuSans-66" transform="scale(0.015625)"/>
      <path d="M 191 3500 
L 800 3500 
L 1894 563 
L 2988 3500 
L 3597 3500 
L 2284 0 
L 1503 0 
L 191 3500 
z
" id="DejaVuSans-76" transform="scale(0.015625)"/>
      <path d="M 3263 -1063 
L 3263 -1509 
L -63 -1509 
L -63 -1063 
L 3263 -1063 
z
" id="DejaVuSans-5f" transform="scale(0.015625)"/>
     </defs>
     <use xlink:href="#DejaVuSans-66"/>
     <use x="35.205078" xlink:href="#DejaVuSans-69"/>
     <use x="62.988281" xlink:href="#DejaVuSans-76"/>
     <use x="122.167969" xlink:href="#DejaVuSans-65"/>
     <use x="183.691406" xlink:href="#DejaVuSans-5f"/>
     <use x="233.691406" xlink:href="#DejaVuSans-6c"/>
     <use x="261.474609" xlink:href="#DejaVuSans-61"/>
     <use x="322.753906" xlink:href="#DejaVuSans-79"/>
     <use x="381.933594" xlink:href="#DejaVuSans-65"/>
     <use x="443.457031" xlink:href="#DejaVuSans-72"/>
     <use x="484.570312" xlink:href="#DejaVuSans-5f"/>
     <use x="534.570312" xlink:href="#DejaVuSans-6e"/>
     <use x="597.949219" xlink:href="#DejaVuSans-65"/>
     <use x="659.472656" xlink:href="#DejaVuSans-74"/>
    </g>
   </g>
   <g id="patch_10">
    <path clip-path="url(#p83914eef9e)" d="M 417.710688 202.239308 
L 433.550687 202.239308 
L 433.550687 186.399308 
L 417.710688 186.399308 
z
" style="fill:#f2f2f2;"/>
   </g>
   <g id="patch_11">
    <path clip-path="url(#p83914eef9e)" d="M 417.710688 198.279308 
L 433.550687 198.279308 
L 433.550687 190.359308 
L 417.710688 190.359308 
z
" style="fill:#999999;opacity:0.4;"/>
   </g>
   <g id="line2d_31">
    <path clip-path="url(#p83914eef9e)" d="M 417.710688 194.319308 
L 433.550687 194.319308 
" style="fill:none;stroke:#57db5f;stroke-width:1.772454;"/>
   </g>
   <g id="text_15">
    <!-- pytorch_lr -->
    <g transform="translate(436.550687 196.625183)scale(0.088 -0.088)">
     <defs>
      <path d="M 3513 2113 
L 3513 0 
L 2938 0 
L 2938 2094 
Q 2938 2591 2744 2837 
Q 2550 3084 2163 3084 
Q 1697 3084 1428 2787 
Q 1159 2491 1159 1978 
L 1159 0 
L 581 0 
L 581 4863 
L 1159 4863 
L 1159 2956 
Q 1366 3272 1645 3428 
Q 1925 3584 2291 3584 
Q 2894 3584 3203 3211 
Q 3513 2838 3513 2113 
z
" id="DejaVuSans-68" transform="scale(0.015625)"/>
     </defs>
     <use xlink:href="#DejaVuSans-70"/>
     <use x="63.476562" xlink:href="#DejaVuSans-79"/>
     <use x="122.65625" xlink:href="#DejaVuSans-74"/>
     <use x="161.865234" xlink:href="#DejaVuSans-6f"/>
     <use x="223.046875" xlink:href="#DejaVuSans-72"/>
     <use x="261.910156" xlink:href="#DejaVuSans-63"/>
     <use x="316.890625" xlink:href="#DejaVuSans-68"/>
     <use x="380.269531" xlink:href="#DejaVuSans-5f"/>
     <use x="430.269531" xlink:href="#DejaVuSans-6c"/>
     <use x="458.052734" xlink:href="#DejaVuSans-72"/>
    </g>
   </g>
   <g id="patch_12">
    <path clip-path="url(#pf90fadc663)" d="M 417.710688 220.079308 
L 433.550687 220.079308 
L 433.550687 204.239308 
L 417.710688 204.239308 
z
" style="fill:#f2f2f2;"/>
   </g>
   <g id="patch_13">
    <path clip-path="url(#pf90fadc663)" d="M 417.710688 216.119308 
L 433.550687 216.119308 
L 433.550687 208.199308 
L 417.710688 208.199308 
z
" style="fill:#999999;opacity:0.4;"/>
   </g>
   <g id="line2d_32">
    <path clip-path="url(#pf90fadc663)" d="M 417.710688 212.159308 
L 433.550687 212.159308 
" style="fill:none;stroke:#5f57db;stroke-width:1.772454;"/>
   </g>
   <g id="text_16">
    <!-- three_layer_net -->
    <g transform="translate(436.550687 214.465183)scale(0.088 -0.088)">
     <use xlink:href="#DejaVuSans-74"/>
     <use x="39.208984" xlink:href="#DejaVuSans-68"/>
     <use x="102.587891" xlink:href="#DejaVuSans-72"/>
     <use x="141.451172" xlink:href="#DejaVuSans-65"/>
     <use x="202.974609" xlink:href="#DejaVuSans-65"/>
     <use x="264.498047" xlink:href="#DejaVuSans-5f"/>
     <use x="314.498047" xlink:href="#DejaVuSans-6c"/>
     <use x="342.28125" xlink:href="#DejaVuSans-61"/>
     <use x="403.560547" xlink:href="#DejaVuSans-79"/>
     <use x="462.740234" xlink:href="#DejaVuSans-65"/>
     <use x="524.263672" xlink:href="#DejaVuSans-72"/>
     <use x="565.376953" xlink:href="#DejaVuSans-5f"/>
     <use x="615.376953" xlink:href="#DejaVuSans-6e"/>
     <use x="678.755859" xlink:href="#DejaVuSans-65"/>
     <use x="740.279297" xlink:href="#DejaVuSans-74"/>
    </g>
   </g>
  </g>
  <g id="text_17">
   <!-- Recount3 Multiclass Classification with Pretraining -->
   <g transform="translate(48.187344 17.229938)scale(0.132 -0.132)">
    <defs>
     <path d="M 2841 2188 
Q 3044 2119 3236 1894 
Q 3428 1669 3622 1275 
L 4263 0 
L 3584 0 
L 2988 1197 
Q 2756 1666 2539 1819 
Q 2322 1972 1947 1972 
L 1259 1972 
L 1259 0 
L 628 0 
L 628 4666 
L 2053 4666 
Q 2853 4666 3247 4331 
Q 3641 3997 3641 3322 
Q 3641 2881 3436 2590 
Q 3231 2300 2841 2188 
z
M 1259 4147 
L 1259 2491 
L 2053 2491 
Q 2509 2491 2742 2702 
Q 2975 2913 2975 3322 
Q 2975 3731 2742 3939 
Q 2509 4147 2053 4147 
L 1259 4147 
z
" id="DejaVuSans-52" transform="scale(0.015625)"/>
     <path d="M 2597 2516 
Q 3050 2419 3304 2112 
Q 3559 1806 3559 1356 
Q 3559 666 3084 287 
Q 2609 -91 1734 -91 
Q 1441 -91 1130 -33 
Q 819 25 488 141 
L 488 750 
Q 750 597 1062 519 
Q 1375 441 1716 441 
Q 2309 441 2620 675 
Q 2931 909 2931 1356 
Q 2931 1769 2642 2001 
Q 2353 2234 1838 2234 
L 1294 2234 
L 1294 2753 
L 1863 2753 
Q 2328 2753 2575 2939 
Q 2822 3125 2822 3475 
Q 2822 3834 2567 4026 
Q 2313 4219 1838 4219 
Q 1578 4219 1281 4162 
Q 984 4106 628 3988 
L 628 4550 
Q 988 4650 1302 4700 
Q 1616 4750 1894 4750 
Q 2613 4750 3031 4423 
Q 3450 4097 3450 3541 
Q 3450 3153 3228 2886 
Q 3006 2619 2597 2516 
z
" id="DejaVuSans-33" transform="scale(0.015625)"/>
     <path d="M 4122 4306 
L 4122 3641 
Q 3803 3938 3442 4084 
Q 3081 4231 2675 4231 
Q 1875 4231 1450 3742 
Q 1025 3253 1025 2328 
Q 1025 1406 1450 917 
Q 1875 428 2675 428 
Q 3081 428 3442 575 
Q 3803 722 4122 1019 
L 4122 359 
Q 3791 134 3420 21 
Q 3050 -91 2638 -91 
Q 1578 -91 968 557 
Q 359 1206 359 2328 
Q 359 3453 968 4101 
Q 1578 4750 2638 4750 
Q 3056 4750 3426 4639 
Q 3797 4528 4122 4306 
z
" id="DejaVuSans-43" transform="scale(0.015625)"/>
     <path d="M 269 3500 
L 844 3500 
L 1563 769 
L 2278 3500 
L 2956 3500 
L 3675 769 
L 4391 3500 
L 4966 3500 
L 4050 0 
L 3372 0 
L 2619 2869 
L 1863 0 
L 1184 0 
L 269 3500 
z
" id="DejaVuSans-77" transform="scale(0.015625)"/>
     <path d="M 1259 4147 
L 1259 2394 
L 2053 2394 
Q 2494 2394 2734 2622 
Q 2975 2850 2975 3272 
Q 2975 3691 2734 3919 
Q 2494 4147 2053 4147 
L 1259 4147 
z
M 628 4666 
L 2053 4666 
Q 2838 4666 3239 4311 
Q 3641 3956 3641 3272 
Q 3641 2581 3239 2228 
Q 2838 1875 2053 1875 
L 1259 1875 
L 1259 0 
L 628 0 
L 628 4666 
z
" id="DejaVuSans-50" transform="scale(0.015625)"/>
     <path d="M 2906 1791 
Q 2906 2416 2648 2759 
Q 2391 3103 1925 3103 
Q 1463 3103 1205 2759 
Q 947 2416 947 1791 
Q 947 1169 1205 825 
Q 1463 481 1925 481 
Q 2391 481 2648 825 
Q 2906 1169 2906 1791 
z
M 3481 434 
Q 3481 -459 3084 -895 
Q 2688 -1331 1869 -1331 
Q 1566 -1331 1297 -1286 
Q 1028 -1241 775 -1147 
L 775 -588 
Q 1028 -725 1275 -790 
Q 1522 -856 1778 -856 
Q 2344 -856 2625 -561 
Q 2906 -266 2906 331 
L 2906 616 
Q 2728 306 2450 153 
Q 2172 0 1784 0 
Q 1141 0 747 490 
Q 353 981 353 1791 
Q 353 2603 747 3093 
Q 1141 3584 1784 3584 
Q 2172 3584 2450 3431 
Q 2728 3278 2906 2969 
L 2906 3500 
L 3481 3500 
L 3481 434 
z
" id="DejaVuSans-67" transform="scale(0.015625)"/>
    </defs>
    <use xlink:href="#DejaVuSans-52"/>
    <use x="64.982422" xlink:href="#DejaVuSans-65"/>
    <use x="126.505859" xlink:href="#DejaVuSans-63"/>
    <use x="181.486328" xlink:href="#DejaVuSans-6f"/>
    <use x="242.667969" xlink:href="#DejaVuSans-75"/>
    <use x="306.046875" xlink:href="#DejaVuSans-6e"/>
    <use x="369.425781" xlink:href="#DejaVuSans-74"/>
    <use x="408.634766" xlink:href="#DejaVuSans-33"/>
    <use x="472.257812" xlink:href="#DejaVuSans-20"/>
    <use x="504.044922" xlink:href="#DejaVuSans-4d"/>
    <use x="590.324219" xlink:href="#DejaVuSans-75"/>
    <use x="653.703125" xlink:href="#DejaVuSans-6c"/>
    <use x="681.486328" xlink:href="#DejaVuSans-74"/>
    <use x="720.695312" xlink:href="#DejaVuSans-69"/>
    <use x="748.478516" xlink:href="#DejaVuSans-63"/>
    <use x="803.458984" xlink:href="#DejaVuSans-6c"/>
    <use x="831.242188" xlink:href="#DejaVuSans-61"/>
    <use x="892.521484" xlink:href="#DejaVuSans-73"/>
    <use x="944.621094" xlink:href="#DejaVuSans-73"/>
    <use x="996.720703" xlink:href="#DejaVuSans-20"/>
    <use x="1028.507812" xlink:href="#DejaVuSans-43"/>
    <use x="1098.332031" xlink:href="#DejaVuSans-6c"/>
    <use x="1126.115234" xlink:href="#DejaVuSans-61"/>
    <use x="1187.394531" xlink:href="#DejaVuSans-73"/>
    <use x="1239.494141" xlink:href="#DejaVuSans-73"/>
    <use x="1291.59375" xlink:href="#DejaVuSans-69"/>
    <use x="1319.376953" xlink:href="#DejaVuSans-66"/>
    <use x="1354.582031" xlink:href="#DejaVuSans-69"/>
    <use x="1382.365234" xlink:href="#DejaVuSans-63"/>
    <use x="1437.345703" xlink:href="#DejaVuSans-61"/>
    <use x="1498.625" xlink:href="#DejaVuSans-74"/>
    <use x="1537.833984" xlink:href="#DejaVuSans-69"/>
    <use x="1565.617188" xlink:href="#DejaVuSans-6f"/>
    <use x="1626.798828" xlink:href="#DejaVuSans-6e"/>
    <use x="1690.177734" xlink:href="#DejaVuSans-20"/>
    <use x="1721.964844" xlink:href="#DejaVuSans-77"/>
    <use x="1803.751953" xlink:href="#DejaVuSans-69"/>
    <use x="1831.535156" xlink:href="#DejaVuSans-74"/>
    <use x="1870.744141" xlink:href="#DejaVuSans-68"/>
    <use x="1934.123047" xlink:href="#DejaVuSans-20"/>
    <use x="1965.910156" xlink:href="#DejaVuSans-50"/>
    <use x="2024.462891" xlink:href="#DejaVuSans-72"/>
    <use x="2063.326172" xlink:href="#DejaVuSans-65"/>
    <use x="2124.849609" xlink:href="#DejaVuSans-74"/>
    <use x="2164.058594" xlink:href="#DejaVuSans-72"/>
    <use x="2205.171875" xlink:href="#DejaVuSans-61"/>
    <use x="2266.451172" xlink:href="#DejaVuSans-69"/>
    <use x="2294.234375" xlink:href="#DejaVuSans-6e"/>
    <use x="2357.613281" xlink:href="#DejaVuSans-69"/>
    <use x="2385.396484" xlink:href="#DejaVuSans-6e"/>
    <use x="2448.775391" xlink:href="#DejaVuSans-67"/>
   </g>
  </g>
 </g>
 <defs>
  <clipPath id="pf2273ad0fe">
   <rect height="266.112" width="357.12" x="41.190688" y="26.105371"/>
  </clipPath>
  <clipPath id="p8251d8c409">
   <path d="M 417.710688 125.673371 
L 417.710688 109.833371 
L 433.550687 109.833371 
L 433.550687 125.673371 
"/>
  </clipPath>
  <clipPath id="pa79c7033ff">
   <path d="M 417.710688 143.513371 
L 417.710688 127.673371 
L 433.550687 127.673371 
L 433.550687 143.513371 
"/>
  </clipPath>
  <clipPath id="p7ca9a97129">
   <path d="M 417.710688 184.399308 
L 417.710688 168.559308 
L 433.550687 168.559308 
L 433.550687 184.399308 
"/>
  </clipPath>
  <clipPath id="p83914eef9e">
   <path d="M 417.710688 202.239308 
L 417.710688 186.399308 
L 433.550687 186.399308 
L 433.550687 202.239308 
"/>
  </clipPath>
  <clipPath id="pf90fadc663">
   <path d="M 417.710688 220.079308 
L 417.710688 204.239308 
L 433.550687 204.239308 
L 433.550687 220.079308 
"/>
  </clipPath>
 </defs>
</svg>
