<?xml version="1.0" encoding="utf-8" standalone="no"?>
<!DOCTYPE svg PUBLIC "-//W3C//DTD SVG 1.1//EN"
  "http://www.w3.org/Graphics/SVG/1.1/DTD/svg11.dtd">
<svg height="327.930058pt" version="1.1" viewBox="0 0 530.145688 327.930058" width="530.145688pt" xmlns="http://www.w3.org/2000/svg" xmlns:xlink="http://www.w3.org/1999/xlink">
 <metadata>
  <rdf:RDF xmlns:cc="http://creativecommons.org/ns#" xmlns:dc="http://purl.org/dc/elements/1.1/" xmlns:rdf="http://www.w3.org/1999/02/22-rdf-syntax-ns#">
   <cc:Work>
    <dc:type rdf:resource="http://purl.org/dc/dcmitype/StillImage"/>
    <dc:date>2022-03-01T10:58:30.825745</dc:date>
    <dc:format>image/svg+xml</dc:format>
    <dc:creator>
     <cc:Agent>
      <dc:title>Matplotlib v3.4.2, https://matplotlib.org/</dc:title>
     </cc:Agent>
    </dc:creator>
   </cc:Work>
  </rdf:RDF>
 </metadata>
 <defs>
  <style type="text/css">*{stroke-linecap:butt;stroke-linejoin:round;}</style>
 </defs>
 <g id="figure_1">
  <g id="patch_1">
   <path d="M 0 327.930058 
L 530.145688 327.930058 
L 530.145688 0 
L 0 0 
z
" style="fill:#ffffff;stroke:#ffffff;stroke-linejoin:miter;"/>
  </g>
  <g id="axes_1">
   <g id="patch_2">
    <path d="M 46.789688 292.217371 
L 403.909688 292.217371 
L 403.909688 26.105371 
L 46.789688 26.105371 
z
" style="fill:#ebebeb;"/>
   </g>
   <g id="matplotlib.axis_1">
    <g id="xtick_1">
     <g id="line2d_1">
      <path clip-path="url(#p1161547494)" d="M 155.612776 292.217371 
L 155.612776 26.105371 
" style="fill:none;stroke:#ffffff;"/>
     </g>
     <g id="line2d_2">
      <path d="M 155.612776 292.217371 
" style="fill:none;stroke:#333333;stroke-width:1.5;"/>
      <defs>
       <path d="M 0 0 
L 0 2.75 
" id="m7f26c887b2" style="stroke:#000000;"/>
      </defs>
      <g>
       <use style="fill:#333333;stroke:#000000;" x="155.612776" xlink:href="#m7f26c887b2" y="292.217371"/>
      </g>
     </g>
     <g id="text_1">
      <!-- 5000 -->
      <g style="fill:#4d4d4d;" transform="translate(144.414776 303.853996)scale(0.088 -0.088)">
       <defs>
        <path d="M 691 4666 
L 3169 4666 
L 3169 4134 
L 1269 4134 
L 1269 2991 
Q 1406 3038 1543 3061 
Q 1681 3084 1819 3084 
Q 2600 3084 3056 2656 
Q 3513 2228 3513 1497 
Q 3513 744 3044 326 
Q 2575 -91 1722 -91 
Q 1428 -91 1123 -41 
Q 819 9 494 109 
L 494 744 
Q 775 591 1075 516 
Q 1375 441 1709 441 
Q 2250 441 2565 725 
Q 2881 1009 2881 1497 
Q 2881 1984 2565 2268 
Q 2250 2553 1709 2553 
Q 1456 2553 1204 2497 
Q 953 2441 691 2322 
L 691 4666 
z
" id="DejaVuSans-35" transform="scale(0.015625)"/>
        <path d="M 2034 4250 
Q 1547 4250 1301 3770 
Q 1056 3291 1056 2328 
Q 1056 1369 1301 889 
Q 1547 409 2034 409 
Q 2525 409 2770 889 
Q 3016 1369 3016 2328 
Q 3016 3291 2770 3770 
Q 2525 4250 2034 4250 
z
M 2034 4750 
Q 2819 4750 3233 4129 
Q 3647 3509 3647 2328 
Q 3647 1150 3233 529 
Q 2819 -91 2034 -91 
Q 1250 -91 836 529 
Q 422 1150 422 2328 
Q 422 3509 836 4129 
Q 1250 4750 2034 4750 
z
" id="DejaVuSans-30" transform="scale(0.015625)"/>
       </defs>
       <use xlink:href="#DejaVuSans-35"/>
       <use x="63.623047" xlink:href="#DejaVuSans-30"/>
       <use x="127.246094" xlink:href="#DejaVuSans-30"/>
       <use x="190.869141" xlink:href="#DejaVuSans-30"/>
      </g>
     </g>
    </g>
    <g id="xtick_2">
     <g id="line2d_3">
      <path clip-path="url(#p1161547494)" d="M 283.500015 292.217371 
L 283.500015 26.105371 
" style="fill:none;stroke:#ffffff;"/>
     </g>
     <g id="line2d_4">
      <path d="M 283.500015 292.217371 
" style="fill:none;stroke:#333333;stroke-width:1.5;"/>
      <g>
       <use style="fill:#333333;stroke:#000000;" x="283.500015" xlink:href="#m7f26c887b2" y="292.217371"/>
      </g>
     </g>
     <g id="text_2">
      <!-- 10000 -->
      <g style="fill:#4d4d4d;" transform="translate(269.502515 303.853996)scale(0.088 -0.088)">
       <defs>
        <path d="M 794 531 
L 1825 531 
L 1825 4091 
L 703 3866 
L 703 4441 
L 1819 4666 
L 2450 4666 
L 2450 531 
L 3481 531 
L 3481 0 
L 794 0 
L 794 531 
z
" id="DejaVuSans-31" transform="scale(0.015625)"/>
       </defs>
       <use xlink:href="#DejaVuSans-31"/>
       <use x="63.623047" xlink:href="#DejaVuSans-30"/>
       <use x="127.246094" xlink:href="#DejaVuSans-30"/>
       <use x="190.869141" xlink:href="#DejaVuSans-30"/>
       <use x="254.492188" xlink:href="#DejaVuSans-30"/>
      </g>
     </g>
    </g>
    <g id="xtick_3">
     <g id="line2d_5">
      <path clip-path="url(#p1161547494)" d="M 91.669156 292.217371 
L 91.669156 26.105371 
" style="fill:none;stroke:#ffffff;stroke-width:0.5;"/>
     </g>
    </g>
    <g id="xtick_4">
     <g id="line2d_6">
      <path clip-path="url(#p1161547494)" d="M 219.556396 292.217371 
L 219.556396 26.105371 
" style="fill:none;stroke:#ffffff;stroke-width:0.5;"/>
     </g>
    </g>
    <g id="xtick_5">
     <g id="line2d_7">
      <path clip-path="url(#p1161547494)" d="M 347.443635 292.217371 
L 347.443635 26.105371 
" style="fill:none;stroke:#ffffff;stroke-width:0.5;"/>
     </g>
    </g>
    <g id="text_3">
     <!-- Train sample count -->
     <g transform="translate(167.386953 318.442402)scale(0.11 -0.11)">
      <defs>
       <path d="M -19 4666 
L 3928 4666 
L 3928 4134 
L 2272 4134 
L 2272 0 
L 1638 0 
L 1638 4134 
L -19 4134 
L -19 4666 
z
" id="DejaVuSans-54" transform="scale(0.015625)"/>
       <path d="M 2631 2963 
Q 2534 3019 2420 3045 
Q 2306 3072 2169 3072 
Q 1681 3072 1420 2755 
Q 1159 2438 1159 1844 
L 1159 0 
L 581 0 
L 581 3500 
L 1159 3500 
L 1159 2956 
Q 1341 3275 1631 3429 
Q 1922 3584 2338 3584 
Q 2397 3584 2469 3576 
Q 2541 3569 2628 3553 
L 2631 2963 
z
" id="DejaVuSans-72" transform="scale(0.015625)"/>
       <path d="M 2194 1759 
Q 1497 1759 1228 1600 
Q 959 1441 959 1056 
Q 959 750 1161 570 
Q 1363 391 1709 391 
Q 2188 391 2477 730 
Q 2766 1069 2766 1631 
L 2766 1759 
L 2194 1759 
z
M 3341 1997 
L 3341 0 
L 2766 0 
L 2766 531 
Q 2569 213 2275 61 
Q 1981 -91 1556 -91 
Q 1019 -91 701 211 
Q 384 513 384 1019 
Q 384 1609 779 1909 
Q 1175 2209 1959 2209 
L 2766 2209 
L 2766 2266 
Q 2766 2663 2505 2880 
Q 2244 3097 1772 3097 
Q 1472 3097 1187 3025 
Q 903 2953 641 2809 
L 641 3341 
Q 956 3463 1253 3523 
Q 1550 3584 1831 3584 
Q 2591 3584 2966 3190 
Q 3341 2797 3341 1997 
z
" id="DejaVuSans-61" transform="scale(0.015625)"/>
       <path d="M 603 3500 
L 1178 3500 
L 1178 0 
L 603 0 
L 603 3500 
z
M 603 4863 
L 1178 4863 
L 1178 4134 
L 603 4134 
L 603 4863 
z
" id="DejaVuSans-69" transform="scale(0.015625)"/>
       <path d="M 3513 2113 
L 3513 0 
L 2938 0 
L 2938 2094 
Q 2938 2591 2744 2837 
Q 2550 3084 2163 3084 
Q 1697 3084 1428 2787 
Q 1159 2491 1159 1978 
L 1159 0 
L 581 0 
L 581 3500 
L 1159 3500 
L 1159 2956 
Q 1366 3272 1645 3428 
Q 1925 3584 2291 3584 
Q 2894 3584 3203 3211 
Q 3513 2838 3513 2113 
z
" id="DejaVuSans-6e" transform="scale(0.015625)"/>
       <path id="DejaVuSans-20" transform="scale(0.015625)"/>
       <path d="M 2834 3397 
L 2834 2853 
Q 2591 2978 2328 3040 
Q 2066 3103 1784 3103 
Q 1356 3103 1142 2972 
Q 928 2841 928 2578 
Q 928 2378 1081 2264 
Q 1234 2150 1697 2047 
L 1894 2003 
Q 2506 1872 2764 1633 
Q 3022 1394 3022 966 
Q 3022 478 2636 193 
Q 2250 -91 1575 -91 
Q 1294 -91 989 -36 
Q 684 19 347 128 
L 347 722 
Q 666 556 975 473 
Q 1284 391 1588 391 
Q 1994 391 2212 530 
Q 2431 669 2431 922 
Q 2431 1156 2273 1281 
Q 2116 1406 1581 1522 
L 1381 1569 
Q 847 1681 609 1914 
Q 372 2147 372 2553 
Q 372 3047 722 3315 
Q 1072 3584 1716 3584 
Q 2034 3584 2315 3537 
Q 2597 3491 2834 3397 
z
" id="DejaVuSans-73" transform="scale(0.015625)"/>
       <path d="M 3328 2828 
Q 3544 3216 3844 3400 
Q 4144 3584 4550 3584 
Q 5097 3584 5394 3201 
Q 5691 2819 5691 2113 
L 5691 0 
L 5113 0 
L 5113 2094 
Q 5113 2597 4934 2840 
Q 4756 3084 4391 3084 
Q 3944 3084 3684 2787 
Q 3425 2491 3425 1978 
L 3425 0 
L 2847 0 
L 2847 2094 
Q 2847 2600 2669 2842 
Q 2491 3084 2119 3084 
Q 1678 3084 1418 2786 
Q 1159 2488 1159 1978 
L 1159 0 
L 581 0 
L 581 3500 
L 1159 3500 
L 1159 2956 
Q 1356 3278 1631 3431 
Q 1906 3584 2284 3584 
Q 2666 3584 2933 3390 
Q 3200 3197 3328 2828 
z
" id="DejaVuSans-6d" transform="scale(0.015625)"/>
       <path d="M 1159 525 
L 1159 -1331 
L 581 -1331 
L 581 3500 
L 1159 3500 
L 1159 2969 
Q 1341 3281 1617 3432 
Q 1894 3584 2278 3584 
Q 2916 3584 3314 3078 
Q 3713 2572 3713 1747 
Q 3713 922 3314 415 
Q 2916 -91 2278 -91 
Q 1894 -91 1617 61 
Q 1341 213 1159 525 
z
M 3116 1747 
Q 3116 2381 2855 2742 
Q 2594 3103 2138 3103 
Q 1681 3103 1420 2742 
Q 1159 2381 1159 1747 
Q 1159 1113 1420 752 
Q 1681 391 2138 391 
Q 2594 391 2855 752 
Q 3116 1113 3116 1747 
z
" id="DejaVuSans-70" transform="scale(0.015625)"/>
       <path d="M 603 4863 
L 1178 4863 
L 1178 0 
L 603 0 
L 603 4863 
z
" id="DejaVuSans-6c" transform="scale(0.015625)"/>
       <path d="M 3597 1894 
L 3597 1613 
L 953 1613 
Q 991 1019 1311 708 
Q 1631 397 2203 397 
Q 2534 397 2845 478 
Q 3156 559 3463 722 
L 3463 178 
Q 3153 47 2828 -22 
Q 2503 -91 2169 -91 
Q 1331 -91 842 396 
Q 353 884 353 1716 
Q 353 2575 817 3079 
Q 1281 3584 2069 3584 
Q 2775 3584 3186 3129 
Q 3597 2675 3597 1894 
z
M 3022 2063 
Q 3016 2534 2758 2815 
Q 2500 3097 2075 3097 
Q 1594 3097 1305 2825 
Q 1016 2553 972 2059 
L 3022 2063 
z
" id="DejaVuSans-65" transform="scale(0.015625)"/>
       <path d="M 3122 3366 
L 3122 2828 
Q 2878 2963 2633 3030 
Q 2388 3097 2138 3097 
Q 1578 3097 1268 2742 
Q 959 2388 959 1747 
Q 959 1106 1268 751 
Q 1578 397 2138 397 
Q 2388 397 2633 464 
Q 2878 531 3122 666 
L 3122 134 
Q 2881 22 2623 -34 
Q 2366 -91 2075 -91 
Q 1284 -91 818 406 
Q 353 903 353 1747 
Q 353 2603 823 3093 
Q 1294 3584 2113 3584 
Q 2378 3584 2631 3529 
Q 2884 3475 3122 3366 
z
" id="DejaVuSans-63" transform="scale(0.015625)"/>
       <path d="M 1959 3097 
Q 1497 3097 1228 2736 
Q 959 2375 959 1747 
Q 959 1119 1226 758 
Q 1494 397 1959 397 
Q 2419 397 2687 759 
Q 2956 1122 2956 1747 
Q 2956 2369 2687 2733 
Q 2419 3097 1959 3097 
z
M 1959 3584 
Q 2709 3584 3137 3096 
Q 3566 2609 3566 1747 
Q 3566 888 3137 398 
Q 2709 -91 1959 -91 
Q 1206 -91 779 398 
Q 353 888 353 1747 
Q 353 2609 779 3096 
Q 1206 3584 1959 3584 
z
" id="DejaVuSans-6f" transform="scale(0.015625)"/>
       <path d="M 544 1381 
L 544 3500 
L 1119 3500 
L 1119 1403 
Q 1119 906 1312 657 
Q 1506 409 1894 409 
Q 2359 409 2629 706 
Q 2900 1003 2900 1516 
L 2900 3500 
L 3475 3500 
L 3475 0 
L 2900 0 
L 2900 538 
Q 2691 219 2414 64 
Q 2138 -91 1772 -91 
Q 1169 -91 856 284 
Q 544 659 544 1381 
z
M 1991 3584 
L 1991 3584 
z
" id="DejaVuSans-75" transform="scale(0.015625)"/>
       <path d="M 1172 4494 
L 1172 3500 
L 2356 3500 
L 2356 3053 
L 1172 3053 
L 1172 1153 
Q 1172 725 1289 603 
Q 1406 481 1766 481 
L 2356 481 
L 2356 0 
L 1766 0 
Q 1100 0 847 248 
Q 594 497 594 1153 
L 594 3053 
L 172 3053 
L 172 3500 
L 594 3500 
L 594 4494 
L 1172 4494 
z
" id="DejaVuSans-74" transform="scale(0.015625)"/>
      </defs>
      <use xlink:href="#DejaVuSans-54"/>
      <use x="46.333984" xlink:href="#DejaVuSans-72"/>
      <use x="87.447266" xlink:href="#DejaVuSans-61"/>
      <use x="148.726562" xlink:href="#DejaVuSans-69"/>
      <use x="176.509766" xlink:href="#DejaVuSans-6e"/>
      <use x="239.888672" xlink:href="#DejaVuSans-20"/>
      <use x="271.675781" xlink:href="#DejaVuSans-73"/>
      <use x="323.775391" xlink:href="#DejaVuSans-61"/>
      <use x="385.054688" xlink:href="#DejaVuSans-6d"/>
      <use x="482.466797" xlink:href="#DejaVuSans-70"/>
      <use x="545.943359" xlink:href="#DejaVuSans-6c"/>
      <use x="573.726562" xlink:href="#DejaVuSans-65"/>
      <use x="635.25" xlink:href="#DejaVuSans-20"/>
      <use x="667.037109" xlink:href="#DejaVuSans-63"/>
      <use x="722.017578" xlink:href="#DejaVuSans-6f"/>
      <use x="783.199219" xlink:href="#DejaVuSans-75"/>
      <use x="846.578125" xlink:href="#DejaVuSans-6e"/>
      <use x="909.957031" xlink:href="#DejaVuSans-74"/>
     </g>
    </g>
   </g>
   <g id="matplotlib.axis_2">
    <g id="ytick_1">
     <g id="line2d_8">
      <path clip-path="url(#p1161547494)" d="M 46.789688 280.749523 
L 403.909688 280.749523 
" style="fill:none;stroke:#ffffff;"/>
     </g>
     <g id="line2d_9">
      <path d="M 46.789688 280.749523 
" style="fill:none;stroke:#333333;stroke-width:1.5;"/>
      <defs>
       <path d="M 0 0 
L -2.75 0 
" id="m888f184e49" style="stroke:#000000;"/>
      </defs>
      <g>
       <use style="fill:#333333;stroke:#000000;" x="46.789688" xlink:href="#m888f184e49" y="280.749523"/>
      </g>
     </g>
     <g id="text_4">
      <!-- 0 -->
      <g style="fill:#4d4d4d;" transform="translate(36.240688 283.177773)scale(0.088 -0.088)">
       <use xlink:href="#DejaVuSans-30"/>
      </g>
     </g>
    </g>
    <g id="ytick_2">
     <g id="line2d_10">
      <path clip-path="url(#p1161547494)" d="M 46.789688 217.768399 
L 403.909688 217.768399 
" style="fill:none;stroke:#ffffff;"/>
     </g>
     <g id="line2d_11">
      <path d="M 46.789688 217.768399 
" style="fill:none;stroke:#333333;stroke-width:1.5;"/>
      <g>
       <use style="fill:#333333;stroke:#000000;" x="46.789688" xlink:href="#m888f184e49" y="217.768399"/>
      </g>
     </g>
     <g id="text_5">
      <!-- 0.25 -->
      <g style="fill:#4d4d4d;" transform="translate(22.245938 220.196649)scale(0.088 -0.088)">
       <defs>
        <path d="M 684 794 
L 1344 794 
L 1344 0 
L 684 0 
L 684 794 
z
" id="DejaVuSans-2e" transform="scale(0.015625)"/>
        <path d="M 1228 531 
L 3431 531 
L 3431 0 
L 469 0 
L 469 531 
Q 828 903 1448 1529 
Q 2069 2156 2228 2338 
Q 2531 2678 2651 2914 
Q 2772 3150 2772 3378 
Q 2772 3750 2511 3984 
Q 2250 4219 1831 4219 
Q 1534 4219 1204 4116 
Q 875 4013 500 3803 
L 500 4441 
Q 881 4594 1212 4672 
Q 1544 4750 1819 4750 
Q 2544 4750 2975 4387 
Q 3406 4025 3406 3419 
Q 3406 3131 3298 2873 
Q 3191 2616 2906 2266 
Q 2828 2175 2409 1742 
Q 1991 1309 1228 531 
z
" id="DejaVuSans-32" transform="scale(0.015625)"/>
       </defs>
       <use xlink:href="#DejaVuSans-30"/>
       <use x="63.623047" xlink:href="#DejaVuSans-2e"/>
       <use x="95.410156" xlink:href="#DejaVuSans-32"/>
       <use x="159.033203" xlink:href="#DejaVuSans-35"/>
      </g>
     </g>
    </g>
    <g id="ytick_3">
     <g id="line2d_12">
      <path clip-path="url(#p1161547494)" d="M 46.789688 154.787274 
L 403.909688 154.787274 
" style="fill:none;stroke:#ffffff;"/>
     </g>
     <g id="line2d_13">
      <path d="M 46.789688 154.787274 
" style="fill:none;stroke:#333333;stroke-width:1.5;"/>
      <g>
       <use style="fill:#333333;stroke:#000000;" x="46.789688" xlink:href="#m888f184e49" y="154.787274"/>
      </g>
     </g>
     <g id="text_6">
      <!-- 0.50 -->
      <g style="fill:#4d4d4d;" transform="translate(22.245938 157.215524)scale(0.088 -0.088)">
       <use xlink:href="#DejaVuSans-30"/>
       <use x="63.623047" xlink:href="#DejaVuSans-2e"/>
       <use x="95.410156" xlink:href="#DejaVuSans-35"/>
       <use x="159.033203" xlink:href="#DejaVuSans-30"/>
      </g>
     </g>
    </g>
    <g id="ytick_4">
     <g id="line2d_14">
      <path clip-path="url(#p1161547494)" d="M 46.789688 91.80615 
L 403.909688 91.80615 
" style="fill:none;stroke:#ffffff;"/>
     </g>
     <g id="line2d_15">
      <path d="M 46.789688 91.80615 
" style="fill:none;stroke:#333333;stroke-width:1.5;"/>
      <g>
       <use style="fill:#333333;stroke:#000000;" x="46.789688" xlink:href="#m888f184e49" y="91.80615"/>
      </g>
     </g>
     <g id="text_7">
      <!-- 0.75 -->
      <g style="fill:#4d4d4d;" transform="translate(22.245938 94.2344)scale(0.088 -0.088)">
       <defs>
        <path d="M 525 4666 
L 3525 4666 
L 3525 4397 
L 1831 0 
L 1172 0 
L 2766 4134 
L 525 4134 
L 525 4666 
z
" id="DejaVuSans-37" transform="scale(0.015625)"/>
       </defs>
       <use xlink:href="#DejaVuSans-30"/>
       <use x="63.623047" xlink:href="#DejaVuSans-2e"/>
       <use x="95.410156" xlink:href="#DejaVuSans-37"/>
       <use x="159.033203" xlink:href="#DejaVuSans-35"/>
      </g>
     </g>
    </g>
    <g id="ytick_5">
     <g id="line2d_16">
      <path clip-path="url(#p1161547494)" d="M 46.789688 28.825025 
L 403.909688 28.825025 
" style="fill:none;stroke:#ffffff;"/>
     </g>
     <g id="line2d_17">
      <path d="M 46.789688 28.825025 
" style="fill:none;stroke:#333333;stroke-width:1.5;"/>
      <g>
       <use style="fill:#333333;stroke:#000000;" x="46.789688" xlink:href="#m888f184e49" y="28.825025"/>
      </g>
     </g>
     <g id="text_8">
      <!-- 1 -->
      <g style="fill:#4d4d4d;" transform="translate(36.240688 31.253275)scale(0.088 -0.088)">
       <use xlink:href="#DejaVuSans-31"/>
      </g>
     </g>
    </g>
    <g id="ytick_6">
     <g id="line2d_18">
      <path clip-path="url(#p1161547494)" d="M 46.789688 249.258961 
L 403.909688 249.258961 
" style="fill:none;stroke:#ffffff;stroke-width:0.5;"/>
     </g>
    </g>
    <g id="ytick_7">
     <g id="line2d_19">
      <path clip-path="url(#p1161547494)" d="M 46.789688 186.277836 
L 403.909688 186.277836 
" style="fill:none;stroke:#ffffff;stroke-width:0.5;"/>
     </g>
    </g>
    <g id="ytick_8">
     <g id="line2d_20">
      <path clip-path="url(#p1161547494)" d="M 46.789688 123.296712 
L 403.909688 123.296712 
" style="fill:none;stroke:#ffffff;stroke-width:0.5;"/>
     </g>
    </g>
    <g id="ytick_9">
     <g id="line2d_21">
      <path clip-path="url(#p1161547494)" d="M 46.789688 60.315587 
L 403.909688 60.315587 
" style="fill:none;stroke:#ffffff;stroke-width:0.5;"/>
     </g>
    </g>
    <g id="text_9">
     <!-- Balanced Accuracy (Val Set) -->
     <g transform="translate(15.558281 234.774543)rotate(-90)scale(0.11 -0.11)">
      <defs>
       <path d="M 1259 2228 
L 1259 519 
L 2272 519 
Q 2781 519 3026 730 
Q 3272 941 3272 1375 
Q 3272 1813 3026 2020 
Q 2781 2228 2272 2228 
L 1259 2228 
z
M 1259 4147 
L 1259 2741 
L 2194 2741 
Q 2656 2741 2882 2914 
Q 3109 3088 3109 3444 
Q 3109 3797 2882 3972 
Q 2656 4147 2194 4147 
L 1259 4147 
z
M 628 4666 
L 2241 4666 
Q 2963 4666 3353 4366 
Q 3744 4066 3744 3513 
Q 3744 3084 3544 2831 
Q 3344 2578 2956 2516 
Q 3422 2416 3680 2098 
Q 3938 1781 3938 1306 
Q 3938 681 3513 340 
Q 3088 0 2303 0 
L 628 0 
L 628 4666 
z
" id="DejaVuSans-42" transform="scale(0.015625)"/>
       <path d="M 2906 2969 
L 2906 4863 
L 3481 4863 
L 3481 0 
L 2906 0 
L 2906 525 
Q 2725 213 2448 61 
Q 2172 -91 1784 -91 
Q 1150 -91 751 415 
Q 353 922 353 1747 
Q 353 2572 751 3078 
Q 1150 3584 1784 3584 
Q 2172 3584 2448 3432 
Q 2725 3281 2906 2969 
z
M 947 1747 
Q 947 1113 1208 752 
Q 1469 391 1925 391 
Q 2381 391 2643 752 
Q 2906 1113 2906 1747 
Q 2906 2381 2643 2742 
Q 2381 3103 1925 3103 
Q 1469 3103 1208 2742 
Q 947 2381 947 1747 
z
" id="DejaVuSans-64" transform="scale(0.015625)"/>
       <path d="M 2188 4044 
L 1331 1722 
L 3047 1722 
L 2188 4044 
z
M 1831 4666 
L 2547 4666 
L 4325 0 
L 3669 0 
L 3244 1197 
L 1141 1197 
L 716 0 
L 50 0 
L 1831 4666 
z
" id="DejaVuSans-41" transform="scale(0.015625)"/>
       <path d="M 2059 -325 
Q 1816 -950 1584 -1140 
Q 1353 -1331 966 -1331 
L 506 -1331 
L 506 -850 
L 844 -850 
Q 1081 -850 1212 -737 
Q 1344 -625 1503 -206 
L 1606 56 
L 191 3500 
L 800 3500 
L 1894 763 
L 2988 3500 
L 3597 3500 
L 2059 -325 
z
" id="DejaVuSans-79" transform="scale(0.015625)"/>
       <path d="M 1984 4856 
Q 1566 4138 1362 3434 
Q 1159 2731 1159 2009 
Q 1159 1288 1364 580 
Q 1569 -128 1984 -844 
L 1484 -844 
Q 1016 -109 783 600 
Q 550 1309 550 2009 
Q 550 2706 781 3412 
Q 1013 4119 1484 4856 
L 1984 4856 
z
" id="DejaVuSans-28" transform="scale(0.015625)"/>
       <path d="M 1831 0 
L 50 4666 
L 709 4666 
L 2188 738 
L 3669 4666 
L 4325 4666 
L 2547 0 
L 1831 0 
z
" id="DejaVuSans-56" transform="scale(0.015625)"/>
       <path d="M 3425 4513 
L 3425 3897 
Q 3066 4069 2747 4153 
Q 2428 4238 2131 4238 
Q 1616 4238 1336 4038 
Q 1056 3838 1056 3469 
Q 1056 3159 1242 3001 
Q 1428 2844 1947 2747 
L 2328 2669 
Q 3034 2534 3370 2195 
Q 3706 1856 3706 1288 
Q 3706 609 3251 259 
Q 2797 -91 1919 -91 
Q 1588 -91 1214 -16 
Q 841 59 441 206 
L 441 856 
Q 825 641 1194 531 
Q 1563 422 1919 422 
Q 2459 422 2753 634 
Q 3047 847 3047 1241 
Q 3047 1584 2836 1778 
Q 2625 1972 2144 2069 
L 1759 2144 
Q 1053 2284 737 2584 
Q 422 2884 422 3419 
Q 422 4038 858 4394 
Q 1294 4750 2059 4750 
Q 2388 4750 2728 4690 
Q 3069 4631 3425 4513 
z
" id="DejaVuSans-53" transform="scale(0.015625)"/>
       <path d="M 513 4856 
L 1013 4856 
Q 1481 4119 1714 3412 
Q 1947 2706 1947 2009 
Q 1947 1309 1714 600 
Q 1481 -109 1013 -844 
L 513 -844 
Q 928 -128 1133 580 
Q 1338 1288 1338 2009 
Q 1338 2731 1133 3434 
Q 928 4138 513 4856 
z
" id="DejaVuSans-29" transform="scale(0.015625)"/>
      </defs>
      <use xlink:href="#DejaVuSans-42"/>
      <use x="68.603516" xlink:href="#DejaVuSans-61"/>
      <use x="129.882812" xlink:href="#DejaVuSans-6c"/>
      <use x="157.666016" xlink:href="#DejaVuSans-61"/>
      <use x="218.945312" xlink:href="#DejaVuSans-6e"/>
      <use x="282.324219" xlink:href="#DejaVuSans-63"/>
      <use x="337.304688" xlink:href="#DejaVuSans-65"/>
      <use x="398.828125" xlink:href="#DejaVuSans-64"/>
      <use x="462.304688" xlink:href="#DejaVuSans-20"/>
      <use x="494.091797" xlink:href="#DejaVuSans-41"/>
      <use x="560.75" xlink:href="#DejaVuSans-63"/>
      <use x="615.730469" xlink:href="#DejaVuSans-63"/>
      <use x="670.710938" xlink:href="#DejaVuSans-75"/>
      <use x="734.089844" xlink:href="#DejaVuSans-72"/>
      <use x="775.203125" xlink:href="#DejaVuSans-61"/>
      <use x="836.482422" xlink:href="#DejaVuSans-63"/>
      <use x="891.462891" xlink:href="#DejaVuSans-79"/>
      <use x="950.642578" xlink:href="#DejaVuSans-20"/>
      <use x="982.429688" xlink:href="#DejaVuSans-28"/>
      <use x="1021.443359" xlink:href="#DejaVuSans-56"/>
      <use x="1082.101562" xlink:href="#DejaVuSans-61"/>
      <use x="1143.380859" xlink:href="#DejaVuSans-6c"/>
      <use x="1171.164062" xlink:href="#DejaVuSans-20"/>
      <use x="1202.951172" xlink:href="#DejaVuSans-53"/>
      <use x="1266.427734" xlink:href="#DejaVuSans-65"/>
      <use x="1327.951172" xlink:href="#DejaVuSans-74"/>
      <use x="1367.160156" xlink:href="#DejaVuSans-29"/>
     </g>
    </g>
   </g>
   <g id="PolyCollection_1">
    <path clip-path="url(#p1161547494)" d="M 63.022415 224.8349 
L 63.022415 269.764693 
L 63.124725 269.554659 
L 63.150302 269.502182 
L 63.175879 269.449718 
L 63.201457 269.397266 
L 63.329344 269.135195 
L 63.354922 269.082818 
L 63.380499 269.030454 
L 63.431654 268.925765 
L 63.559541 268.66426 
L 63.713006 268.350871 
L 98.319293 209.814297 
L 98.54949 209.505229 
L 98.575067 209.470948 
L 98.600645 209.43668 
L 98.626222 209.402424 
L 98.677377 209.333954 
L 98.958729 208.958312 
L 98.984306 208.924242 
L 99.009884 208.890185 
L 99.061039 208.822111 
L 99.137771 208.720098 
L 99.419123 208.347057 
L 99.700475 207.975589 
L 133.641748 171.454635 
L 133.948678 171.174184 
L 133.999833 171.127492 
L 134.050987 171.080814 
L 134.076565 171.057481 
L 134.153297 170.987501 
L 134.588114 170.592959 
L 134.613691 170.569869 
L 134.664846 170.52373 
L 134.716001 170.477643 
L 134.843888 170.362654 
L 135.278705 169.974118 
L 135.687944 169.611818 
L 168.938626 146.724788 
L 169.373443 146.440513 
L 169.424598 146.406946 
L 169.450175 146.390153 
L 169.475753 146.373352 
L 169.552485 146.322912 
L 169.629217 146.272411 
L 170.191921 145.900169 
L 170.243076 145.866159 
L 170.294231 145.832119 
L 170.396541 145.763953 
L 170.550005 145.661664 
L 171.138287 145.270474 
L 171.700991 144.897729 
L 204.261082 127.774146 
L 204.772631 127.532782 
L 204.874941 127.484154 
L 204.926095 127.459795 
L 205.002828 127.423197 
L 205.105138 127.374292 
L 205.821306 127.028299 
L 205.872461 127.003331 
L 205.949193 126.965813 
L 206.077081 126.903105 
L 206.2817 126.802302 
L 206.997869 126.444748 
L 207.68846 126.092547 
L 239.55796 108.923207 
L 240.197396 108.629943 
L 240.299706 108.583398 
L 240.376438 108.548558 
L 240.45317 108.513777 
L 240.581058 108.455941 
L 241.450691 108.06703 
L 241.501846 108.044392 
L 241.604156 107.999195 
L 241.732043 107.942851 
L 241.987817 107.830663 
L 242.857451 107.45425 
L 243.675929 107.10711 
L 274.854838 97.885196 
L 275.596584 97.714731 
L 275.724471 97.685354 
L 275.750048 97.679482 
L 275.801203 97.667752 
L 275.929091 97.63852 
L 276.056978 97.609416 
L 277.054498 97.386804 
L 277.131231 97.37 
L 277.23354 97.347666 
L 277.412583 97.308774 
L 277.693935 97.248155 
L 278.717032 97.032787 
L 279.688975 96.835441 
L 310.177293 92.60679 
L 311.021349 92.465348 
L 311.149236 92.443347 
L 311.174814 92.438929 
L 311.251546 92.425637 
L 311.379433 92.403359 
L 311.532898 92.37642 
L 312.683883 92.176628 
L 312.760615 92.163528 
L 312.888503 92.141756 
L 313.067545 92.111403 
L 313.400052 92.055429 
L 314.576614 91.861479 
L 315.676445 91.68596 
L 345.474171 89.231971 
L 346.420537 89.241486 
L 346.574002 89.243671 
L 346.599579 89.244053 
L 346.701889 89.245631 
L 346.829776 89.247718 
L 347.008818 89.250852 
L 348.313268 89.281305 
L 348.39 89.283519 
L 348.543465 89.288091 
L 348.748085 89.294484 
L 349.106169 89.306625 
L 350.436196 89.363357 
L 351.663914 89.432456 
L 380.796627 96.456284 
L 381.845302 96.903319 
L 382.024344 96.980909 
L 382.049922 96.992024 
L 382.152231 97.036556 
L 382.305696 97.103579 
L 382.510316 97.193363 
L 383.942653 97.835193 
L 384.019385 97.870233 
L 384.198427 97.952249 
L 384.428624 98.058228 
L 384.837864 98.248103 
L 386.295778 98.939701 
L 387.67696 99.616536 
L 387.67696 51.100788 
L 387.67696 51.100788 
L 386.295778 51.701231 
L 384.837864 52.320625 
L 384.428624 52.491777 
L 384.198427 52.587521 
L 384.019385 52.661724 
L 383.942653 52.693454 
L 382.510316 53.27784 
L 382.305696 53.360085 
L 382.152231 53.421563 
L 382.049922 53.462451 
L 382.024344 53.47266 
L 381.845302 53.54399 
L 380.796627 53.956901 
L 351.663914 61.652997 
L 350.436196 61.814001 
L 349.106169 61.975627 
L 348.748085 62.016948 
L 348.543465 62.04013 
L 348.39 62.057294 
L 348.313268 62.065805 
L 347.008818 62.203494 
L 346.829776 62.221392 
L 346.701889 62.234033 
L 346.599579 62.244061 
L 346.574002 62.246557 
L 346.420537 62.26143 
L 345.474171 62.349521 
L 315.676445 63.846848 
L 314.576614 63.917121 
L 313.400052 63.997572 
L 313.067545 64.021347 
L 312.888503 64.034345 
L 312.760615 64.043714 
L 312.683883 64.04937 
L 311.532898 64.137347 
L 311.379433 64.149453 
L 311.251546 64.159504 
L 311.174814 64.165518 
L 311.149236 64.16752 
L 311.021349 64.177512 
L 310.177293 64.242687 
L 279.688975 67.098422 
L 278.717032 67.275628 
L 277.693935 67.475247 
L 277.412583 67.532611 
L 277.23354 67.569687 
L 277.131231 67.591075 
L 277.054498 67.607213 
L 276.056978 67.824746 
L 275.929091 67.853698 
L 275.801203 67.882898 
L 275.750048 67.894647 
L 275.724471 67.900536 
L 275.596584 67.93014 
L 274.854838 68.106944 
L 243.675929 80.265696 
L 242.857451 80.62563 
L 241.987817 81.006817 
L 241.732043 81.118673 
L 241.604156 81.174556 
L 241.501846 81.21924 
L 241.450691 81.241575 
L 240.581058 81.620507 
L 240.45317 81.676109 
L 240.376438 81.709455 
L 240.299706 81.74279 
L 240.197396 81.787218 
L 239.55796 82.064428 
L 207.68846 96.174988 
L 206.997869 96.531095 
L 206.2817 96.902593 
L 206.077081 97.009118 
L 205.949193 97.075778 
L 205.872461 97.115803 
L 205.821306 97.142499 
L 205.105138 97.517213 
L 205.002828 97.570883 
L 204.926095 97.611158 
L 204.874941 97.638017 
L 204.772631 97.691761 
L 204.261082 97.960931 
L 171.700991 115.125502 
L 171.138287 115.487203 
L 170.550005 115.873035 
L 170.396541 115.975019 
L 170.294231 116.043172 
L 170.243076 116.077231 
L 170.191921 116.11128 
L 169.629217 116.485106 
L 169.552485 116.535984 
L 169.475753 116.586841 
L 169.450175 116.603788 
L 169.424598 116.620732 
L 169.373443 116.654614 
L 168.938626 116.942223 
L 135.687944 141.258696 
L 135.278705 141.65768 
L 134.843888 142.08648 
L 134.716001 142.213566 
L 134.664846 142.264524 
L 134.613691 142.315554 
L 134.588114 142.341096 
L 134.153297 142.778044 
L 134.076565 142.855627 
L 134.050987 142.881494 
L 133.999833 142.933239 
L 133.948678 142.984997 
L 133.641748 143.295819 
L 99.700475 180.918875 
L 99.419123 181.256967 
L 99.137771 181.595415 
L 99.061039 181.687781 
L 99.009884 181.749372 
L 98.984306 181.780172 
L 98.958729 181.810976 
L 98.677377 182.15 
L 98.626222 182.211678 
L 98.600645 182.242521 
L 98.575067 182.273368 
L 98.54949 182.304216 
L 98.319293 182.581883 
L 63.713006 224.014583 
L 63.559541 224.196856 
L 63.431654 224.348759 
L 63.380499 224.409522 
L 63.354922 224.439904 
L 63.329344 224.470286 
L 63.201457 224.622203 
L 63.175879 224.652587 
L 63.150302 224.682972 
L 63.124725 224.713357 
L 63.022415 224.8349 
z
" style="fill:#999999;fill-opacity:0.4;"/>
   </g>
   <g id="PolyCollection_2">
    <path clip-path="url(#p1161547494)" d="M 63.022415 196.088161 
L 63.022415 235.951455 
L 63.124725 235.75867 
L 63.150302 235.710503 
L 63.175879 235.662347 
L 63.201457 235.614203 
L 63.329344 235.373655 
L 63.354922 235.32558 
L 63.380499 235.277517 
L 63.431654 235.181425 
L 63.559541 234.941399 
L 63.713006 234.653749 
L 98.319293 180.943637 
L 98.54949 180.660331 
L 98.575067 180.628908 
L 98.600645 180.597497 
L 98.626222 180.566099 
L 98.677377 180.50334 
L 98.958729 180.15908 
L 98.984306 180.12786 
L 99.009884 180.096653 
L 99.061039 180.034276 
L 99.137771 179.940805 
L 99.419123 179.599049 
L 99.700475 179.258806 
L 133.641748 145.995296 
L 133.948678 145.738564 
L 133.999833 145.695812 
L 134.050987 145.653071 
L 134.076565 145.631704 
L 134.153297 145.56762 
L 134.588114 145.206536 
L 134.613691 145.185419 
L 134.664846 145.143226 
L 134.716001 145.101088 
L 134.843888 144.995979 
L 135.278705 144.641122 
L 135.687944 144.310642 
L 168.938626 123.881 
L 169.373443 123.621868 
L 169.424598 123.591241 
L 169.450175 123.575916 
L 169.475753 123.560584 
L 169.552485 123.514542 
L 169.629217 123.46843 
L 170.191921 123.128127 
L 170.243076 123.096998 
L 170.294231 123.065836 
L 170.396541 123.003413 
L 170.550005 122.909745 
L 171.138287 122.551913 
L 171.700991 122.211508 
L 204.261082 106.680562 
L 204.772631 106.452564 
L 204.874941 106.406574 
L 204.926095 106.383529 
L 205.002828 106.348897 
L 205.105138 106.302603 
L 205.821306 105.974568 
L 205.872461 105.950862 
L 205.949193 105.915231 
L 206.077081 105.855655 
L 206.2817 105.759828 
L 206.997869 105.419353 
L 207.68846 105.08314 
L 239.55796 87.307709 
L 240.197396 86.981155 
L 240.299706 86.929235 
L 240.376438 86.890355 
L 240.45317 86.851527 
L 240.581058 86.786929 
L 241.450691 86.351518 
L 241.501846 86.326117 
L 241.604156 86.275387 
L 241.732043 86.212108 
L 241.987817 86.085997 
L 242.857451 85.661731 
L 243.675929 85.268874 
L 274.854838 74.606713 
L 275.596584 74.429978 
L 275.724471 74.399748 
L 275.750048 74.393712 
L 275.801203 74.381655 
L 275.929091 74.351603 
L 276.056978 74.32168 
L 277.054498 74.092694 
L 277.131231 74.075402 
L 277.23354 74.052417 
L 277.412583 74.012389 
L 277.693935 73.949988 
L 278.717032 73.728212 
L 279.688975 73.524909 
L 310.177293 69.507931 
L 311.021349 69.396299 
L 311.149236 69.378999 
L 311.174814 69.375526 
L 311.251546 69.365082 
L 311.379433 69.347592 
L 311.532898 69.326462 
L 312.683883 69.171123 
L 312.760615 69.16103 
L 312.888503 69.144283 
L 313.067545 69.12099 
L 313.400052 69.078205 
L 314.576614 68.931755 
L 315.676445 68.801804 
L 345.474171 67.980459 
L 346.420537 68.052406 
L 346.574002 68.06476 
L 346.599579 68.066838 
L 346.701889 68.075203 
L 346.829776 68.08578 
L 347.008818 68.100816 
L 348.313268 68.218456 
L 348.39 68.225825 
L 348.543465 68.240713 
L 348.748085 68.260878 
L 349.106169 68.297152 
L 350.436196 68.443779 
L 351.663914 68.596168 
L 380.796627 77.610374 
L 381.845302 78.129475 
L 382.024344 78.219382 
L 382.049922 78.232256 
L 382.152231 78.283828 
L 382.305696 78.361415 
L 382.510316 78.465287 
L 383.942653 79.205891 
L 384.019385 79.24623 
L 384.198427 79.340615 
L 384.428624 79.462504 
L 384.837864 79.680684 
L 386.295778 80.473338 
L 387.67696 81.24625 
L 387.67696 38.201371 
L 387.67696 38.201371 
L 386.295778 38.561703 
L 384.837864 38.932208 
L 384.428624 39.034345 
L 384.198427 39.091432 
L 384.019385 39.13565 
L 383.942653 39.154551 
L 382.510316 39.501888 
L 382.305696 39.550646 
L 382.152231 39.587071 
L 382.049922 39.611286 
L 382.024344 39.617332 
L 381.845302 39.659551 
L 380.796627 39.903424 
L 351.663914 43.949254 
L 350.436196 44.00102 
L 349.106169 44.048128 
L 348.748085 44.059287 
L 348.543465 44.065362 
L 348.39 44.069759 
L 348.313268 44.071907 
L 347.008818 44.103448 
L 346.829776 44.107073 
L 346.701889 44.109562 
L 346.599579 44.111494 
L 346.574002 44.111969 
L 346.420537 44.11475 
L 345.474171 44.129403 
L 315.676445 44.101964 
L 314.576614 44.138537 
L 313.400052 44.184287 
L 313.067545 44.198503 
L 312.888503 44.206398 
L 312.760615 44.212141 
L 312.683883 44.215629 
L 311.532898 44.271762 
L 311.379433 44.279732 
L 311.251546 44.286374 
L 311.174814 44.29036 
L 311.149236 44.291689 
L 311.021349 44.298335 
L 310.177293 44.3423 
L 279.688975 47.141179 
L 278.717032 47.326612 
L 277.693935 47.534416 
L 277.412583 47.593928 
L 277.23354 47.632346 
L 277.131231 47.654491 
L 277.054498 47.671193 
L 276.056978 47.895672 
L 275.929091 47.925461 
L 275.801203 47.955483 
L 275.750048 47.967558 
L 275.724471 47.973609 
L 275.596584 48.00404 
L 274.854838 48.186399 
L 243.675929 61.454227 
L 242.857451 61.858435 
L 241.987817 62.286937 
L 241.732043 62.412753 
L 241.604156 62.475623 
L 241.501846 62.525899 
L 241.450691 62.551031 
L 240.581058 62.977587 
L 240.45317 63.040203 
L 240.376438 63.077758 
L 240.299706 63.115302 
L 240.197396 63.165344 
L 239.55796 63.477654 
L 207.68846 78.539229 
L 206.997869 78.878907 
L 206.2817 79.231753 
L 206.077081 79.332657 
L 205.949193 79.39574 
L 205.872461 79.433595 
L 205.821306 79.458835 
L 205.105138 79.812351 
L 205.002828 79.862873 
L 204.926095 79.900767 
L 204.874941 79.926031 
L 204.772631 79.97656 
L 204.261082 80.229228 
L 171.700991 95.79654 
L 171.138287 96.127147 
L 170.550005 96.480225 
L 170.396541 96.573621 
L 170.294231 96.636032 
L 170.243076 96.667212 
L 170.191921 96.698376 
L 169.629217 97.040085 
L 169.552485 97.086531 
L 169.475753 97.132942 
L 169.450175 97.148405 
L 169.424598 97.163863 
L 169.373443 97.194769 
L 168.938626 97.45686 
L 135.687944 119.154754 
L 135.278705 119.517782 
L 134.843888 119.908362 
L 134.716001 120.024204 
L 134.664846 120.070664 
L 134.613691 120.117196 
L 134.588114 120.140488 
L 134.153297 120.539197 
L 134.076565 120.610027 
L 134.050987 120.633641 
L 133.999833 120.680878 
L 133.948678 120.728124 
L 133.641748 121.011803 
L 99.700475 155.253136 
L 99.419123 155.563767 
L 99.137771 155.874832 
L 99.061039 155.959743 
L 99.009884 156.016368 
L 98.984306 156.044686 
L 98.958729 156.073007 
L 98.677377 156.384779 
L 98.626222 156.441511 
L 98.600645 156.469882 
L 98.575067 156.498257 
L 98.54949 156.526635 
L 98.319293 156.782081 
L 63.713006 195.317033 
L 63.559541 195.488352 
L 63.431654 195.631136 
L 63.380499 195.688254 
L 63.354922 195.716815 
L 63.329344 195.745376 
L 63.201457 195.88819 
L 63.175879 195.916756 
L 63.150302 195.945321 
L 63.124725 195.973888 
L 63.022415 196.088161 
z
" style="fill:#999999;fill-opacity:0.4;"/>
   </g>
   <g id="PolyCollection_3">
    <path clip-path="url(#p1161547494)" d="M 63.022415 232.366741 
L 63.022415 280.121371 
L 63.124725 279.937473 
L 63.150302 279.891527 
L 63.175879 279.845592 
L 63.201457 279.799669 
L 63.329344 279.570222 
L 63.354922 279.524366 
L 63.380499 279.478522 
L 63.431654 279.386868 
L 63.559541 279.157932 
L 63.713006 278.883583 
L 98.319293 228.073689 
L 98.54949 227.809022 
L 98.575067 227.779669 
L 98.600645 227.750326 
L 98.626222 227.720996 
L 98.677377 227.662372 
L 98.958729 227.340794 
L 98.984306 227.311631 
L 99.009884 227.28248 
L 99.061039 227.224214 
L 99.137771 227.136903 
L 99.419123 226.817673 
L 99.700475 226.499862 
L 133.641748 195.255708 
L 133.948678 195.011865 
L 133.999833 194.971255 
L 134.050987 194.930654 
L 134.076565 194.910356 
L 134.153297 194.849477 
L 134.588114 194.506069 
L 134.613691 194.485963 
L 134.664846 194.445782 
L 134.716001 194.405643 
L 134.843888 194.305475 
L 135.278705 193.966824 
L 135.687944 193.650765 
L 168.938626 172.886755 
L 169.373443 172.616718 
L 169.424598 172.584815 
L 169.450175 172.568852 
L 169.475753 172.552882 
L 169.552485 172.504928 
L 169.629217 172.456909 
L 170.191921 172.102704 
L 170.243076 172.07032 
L 170.294231 172.037904 
L 170.396541 171.972979 
L 170.550005 171.875516 
L 171.138287 171.502315 
L 171.700991 171.146023 
L 204.261082 153.972018 
L 204.772631 153.713405 
L 204.874941 153.661245 
L 204.926095 153.635108 
L 205.002828 153.595833 
L 205.105138 153.543332 
L 205.821306 153.171381 
L 205.872461 153.144506 
L 205.949193 153.104113 
L 206.077081 153.036577 
L 206.2817 152.927957 
L 206.997869 152.542118 
L 207.68846 152.161262 
L 239.55796 131.366127 
L 240.197396 130.974497 
L 240.299706 130.912194 
L 240.376438 130.865532 
L 240.45317 130.818925 
L 240.581058 130.741374 
L 241.450691 130.218224 
L 241.501846 130.187682 
L 241.604156 130.126674 
L 241.732043 130.05056 
L 241.987817 129.898822 
L 242.857451 129.387844 
L 243.675929 128.913989 
L 274.854838 115.556428 
L 275.596584 115.320254 
L 275.724471 115.279776 
L 275.750048 115.271689 
L 275.801203 115.255531 
L 275.929091 115.215216 
L 276.056978 115.175017 
L 277.054498 114.865448 
L 277.131231 114.841927 
L 277.23354 114.810631 
L 277.412583 114.75604 
L 277.693935 114.670714 
L 278.717032 114.365157 
L 279.688975 114.081738 
L 310.177293 107.639989 
L 311.021349 107.467271 
L 311.149236 107.440743 
L 311.174814 107.435425 
L 311.251546 107.41945 
L 311.379433 107.392745 
L 311.532898 107.360568 
L 312.683883 107.122138 
L 312.760615 107.106488 
L 312.888503 107.080473 
L 313.067545 107.044196 
L 313.400052 106.97727 
L 314.576614 106.745142 
L 315.676445 106.534828 
L 345.474171 103.86658 
L 346.420537 103.905444 
L 346.574002 103.912676 
L 346.599579 103.913907 
L 346.701889 103.918903 
L 346.829776 103.925313 
L 347.008818 103.934596 
L 348.313268 104.013243 
L 348.39 104.018481 
L 348.543465 104.029164 
L 348.748085 104.043838 
L 349.106169 104.07078 
L 350.436196 104.185601 
L 351.663914 104.312682 
L 380.796627 113.934717 
L 381.845302 114.517397 
L 382.024344 114.618422 
L 382.049922 114.632891 
L 382.152231 114.690857 
L 382.305696 114.77808 
L 382.510316 114.894889 
L 383.942653 115.728805 
L 384.019385 115.774278 
L 384.198427 115.880697 
L 384.428624 116.018166 
L 384.837864 116.264344 
L 386.295778 117.159858 
L 387.67696 118.03464 
L 387.67696 66.468599 
L 387.67696 66.468599 
L 386.295778 66.9514 
L 384.837864 67.449304 
L 384.428624 67.586851 
L 384.198427 67.663788 
L 384.019385 67.723411 
L 383.942653 67.748905 
L 382.510316 68.218298 
L 382.305696 68.284335 
L 382.152231 68.333693 
L 382.049922 68.366517 
L 382.024344 68.374713 
L 381.845302 68.43197 
L 380.796627 68.763303 
L 351.663914 74.786666 
L 350.436196 74.904155 
L 349.106169 75.021422 
L 348.748085 75.051303 
L 348.543465 75.068063 
L 348.39 75.080482 
L 348.313268 75.086644 
L 347.008818 75.18671 
L 346.829776 75.199782 
L 346.701889 75.209026 
L 346.599579 75.216365 
L 346.574002 75.218193 
L 346.420537 75.229092 
L 345.474171 75.29397 
L 315.676445 76.945409 
L 314.576614 77.04386 
L 313.400052 77.155353 
L 313.067545 77.188055 
L 312.888503 77.205886 
L 312.760615 77.218719 
L 312.683883 77.226457 
L 311.532898 77.346042 
L 311.379433 77.362453 
L 311.251546 77.376162 
L 311.174814 77.384402 
L 311.149236 77.387152 
L 311.021349 77.400916 
L 310.177293 77.492572 
L 279.688975 82.475086 
L 278.717032 82.737099 
L 277.693935 83.025916 
L 277.412583 83.107783 
L 277.23354 83.160444 
L 277.131231 83.190735 
L 277.054498 83.213548 
L 276.056978 83.517719 
L 275.929091 83.557757 
L 275.801203 83.598036 
L 275.750048 83.614216 
L 275.724471 83.62232 
L 275.596584 83.663039 
L 274.854838 83.905951 
L 243.675929 100.384996 
L 242.857451 100.872449 
L 241.987817 101.388502 
L 241.732043 101.539887 
L 241.604156 101.61551 
L 241.501846 101.675974 
L 241.450691 101.706194 
L 240.581058 102.218736 
L 240.45317 102.293913 
L 240.376438 102.338994 
L 240.299706 102.384057 
L 240.197396 102.444111 
L 239.55796 102.818676 
L 207.68846 120.36272 
L 206.997869 120.747727 
L 206.2817 121.148386 
L 206.077081 121.263089 
L 205.949193 121.334825 
L 205.872461 121.377883 
L 205.821306 121.406595 
L 205.105138 121.809072 
L 205.002828 121.866637 
L 204.926095 121.909821 
L 204.874941 121.938615 
L 204.772631 121.996212 
L 204.261082 122.284379 
L 171.700991 139.50195 
L 171.138287 139.846504 
L 170.550005 140.21401 
L 170.396541 140.311147 
L 170.294231 140.376059 
L 170.243076 140.408496 
L 170.191921 140.440921 
L 169.629217 140.79681 
L 169.552485 140.845231 
L 169.475753 140.893626 
L 169.450175 140.909752 
L 169.424598 140.925875 
L 169.373443 140.958114 
L 168.938626 141.231694 
L 135.687944 163.51502 
L 135.278705 163.870069 
L 134.843888 164.251515 
L 134.716001 164.36454 
L 134.664846 164.409857 
L 134.613691 164.455236 
L 134.588114 164.477949 
L 134.153297 164.866429 
L 134.076565 164.935389 
L 134.050987 164.95838 
L 133.999833 165.004367 
L 133.948678 165.050361 
L 133.641748 165.326484 
L 99.700475 197.742031 
L 99.419123 198.024369 
L 99.137771 198.306831 
L 99.061039 198.383888 
L 99.009884 198.435264 
L 98.984306 198.460953 
L 98.958729 198.486644 
L 98.677377 198.769302 
L 98.626222 198.820707 
L 98.600645 198.846411 
L 98.575067 198.872116 
L 98.54949 198.89782 
L 98.319293 199.129112 
L 63.713006 231.759774 
L 63.559541 231.894763 
L 63.431654 232.007207 
L 63.380499 232.052172 
L 63.354922 232.074652 
L 63.329344 232.097131 
L 63.201457 232.209498 
L 63.175879 232.231966 
L 63.150302 232.254433 
L 63.124725 232.276898 
L 63.022415 232.366741 
z
" style="fill:#999999;fill-opacity:0.4;"/>
   </g>
   <g id="line2d_22">
    <path clip-path="url(#p1161547494)" d="M 63.022415 247.299797 
L 63.713006 246.182727 
L 99.419123 194.802012 
L 99.700475 194.447232 
L 134.843888 156.224567 
L 135.687944 155.435257 
L 171.138287 130.378839 
L 171.700991 130.011615 
L 207.68846 111.133767 
L 241.987817 94.41874 
L 243.675929 93.686403 
L 275.801203 82.775325 
L 279.688975 81.966931 
L 315.676445 77.766404 
L 349.106169 75.641126 
L 351.663914 75.542726 
L 384.428624 75.275002 
L 387.67696 75.358662 
L 387.67696 75.358662 
" style="fill:none;stroke:#db5f57;stroke-linejoin:miter;stroke-width:1.772454;"/>
   </g>
   <g id="line2d_23">
    <path clip-path="url(#p1161547494)" d="M 63.022415 216.019808 
L 63.713006 214.985391 
L 99.419123 167.581408 
L 99.700475 167.255971 
L 134.843888 132.45217 
L 135.687944 131.732698 
L 171.700991 109.004024 
L 207.68846 91.811184 
L 243.675929 73.361551 
L 275.596584 61.217009 
L 279.688975 60.333044 
L 314.576614 56.535146 
L 315.676445 56.451884 
L 347.008818 56.102132 
L 351.663914 56.272711 
L 382.510316 58.983587 
L 387.67696 59.723811 
L 387.67696 59.723811 
" style="fill:none;stroke:#57db5f;stroke-linejoin:miter;stroke-width:1.772454;"/>
   </g>
   <g id="line2d_24">
    <path clip-path="url(#p1161547494)" d="M 63.022415 256.244056 
L 63.713006 255.321678 
L 99.419123 212.421021 
L 99.700475 212.120946 
L 134.843888 179.278495 
L 135.687944 178.582893 
L 171.700991 155.323987 
L 207.68846 136.261991 
L 243.675929 114.649492 
L 275.596584 99.491646 
L 279.688975 98.278412 
L 313.400052 92.066311 
L 315.676445 91.740119 
L 347.008818 89.560653 
L 351.663914 89.549674 
L 382.510316 91.556593 
L 387.67696 92.25162 
L 387.67696 92.25162 
" style="fill:none;stroke:#5f57db;stroke-linejoin:miter;stroke-width:1.772454;"/>
   </g>
   <g id="patch_3">
    <path d="M 411.109688 202.916339 
L 522.945688 202.916339 
L 522.945688 111.950402 
L 411.109688 111.950402 
z
" style="fill:#ffffff;"/>
   </g>
   <g id="text_10">
    <!-- Model -->
    <g transform="translate(423.309687 135.543996)scale(0.11 -0.11)">
     <defs>
      <path d="M 628 4666 
L 1569 4666 
L 2759 1491 
L 3956 4666 
L 4897 4666 
L 4897 0 
L 4281 0 
L 4281 4097 
L 3078 897 
L 2444 897 
L 1241 4097 
L 1241 0 
L 628 0 
L 628 4666 
z
" id="DejaVuSans-4d" transform="scale(0.015625)"/>
     </defs>
     <use xlink:href="#DejaVuSans-4d"/>
     <use x="86.279297" xlink:href="#DejaVuSans-6f"/>
     <use x="147.460938" xlink:href="#DejaVuSans-64"/>
     <use x="210.9375" xlink:href="#DejaVuSans-65"/>
     <use x="272.460938" xlink:href="#DejaVuSans-6c"/>
    </g>
   </g>
   <g id="patch_4">
    <path clip-path="url(#pbb6e806718)" d="M 423.309687 155.036339 
L 439.149687 155.036339 
L 439.149687 139.196339 
L 423.309687 139.196339 
z
" style="fill:#f2f2f2;"/>
   </g>
   <g id="patch_5">
    <path clip-path="url(#pbb6e806718)" d="M 423.309687 151.076339 
L 439.149687 151.076339 
L 439.149687 143.156339 
L 423.309687 143.156339 
z
" style="fill:#999999;opacity:0.4;"/>
   </g>
   <g id="line2d_25">
    <path clip-path="url(#pbb6e806718)" d="M 423.309687 147.116339 
L 439.149687 147.116339 
" style="fill:none;stroke:#db5f57;stroke-width:1.772454;"/>
   </g>
   <g id="text_11">
    <!-- five_layer_net -->
    <g transform="translate(442.149688 149.422214)scale(0.088 -0.088)">
     <defs>
      <path d="M 2375 4863 
L 2375 4384 
L 1825 4384 
Q 1516 4384 1395 4259 
Q 1275 4134 1275 3809 
L 1275 3500 
L 2222 3500 
L 2222 3053 
L 1275 3053 
L 1275 0 
L 697 0 
L 697 3053 
L 147 3053 
L 147 3500 
L 697 3500 
L 697 3744 
Q 697 4328 969 4595 
Q 1241 4863 1831 4863 
L 2375 4863 
z
" id="DejaVuSans-66" transform="scale(0.015625)"/>
      <path d="M 191 3500 
L 800 3500 
L 1894 563 
L 2988 3500 
L 3597 3500 
L 2284 0 
L 1503 0 
L 191 3500 
z
" id="DejaVuSans-76" transform="scale(0.015625)"/>
      <path d="M 3263 -1063 
L 3263 -1509 
L -63 -1509 
L -63 -1063 
L 3263 -1063 
z
" id="DejaVuSans-5f" transform="scale(0.015625)"/>
     </defs>
     <use xlink:href="#DejaVuSans-66"/>
     <use x="35.205078" xlink:href="#DejaVuSans-69"/>
     <use x="62.988281" xlink:href="#DejaVuSans-76"/>
     <use x="122.167969" xlink:href="#DejaVuSans-65"/>
     <use x="183.691406" xlink:href="#DejaVuSans-5f"/>
     <use x="233.691406" xlink:href="#DejaVuSans-6c"/>
     <use x="261.474609" xlink:href="#DejaVuSans-61"/>
     <use x="322.753906" xlink:href="#DejaVuSans-79"/>
     <use x="381.933594" xlink:href="#DejaVuSans-65"/>
     <use x="443.457031" xlink:href="#DejaVuSans-72"/>
     <use x="484.570312" xlink:href="#DejaVuSans-5f"/>
     <use x="534.570312" xlink:href="#DejaVuSans-6e"/>
     <use x="597.949219" xlink:href="#DejaVuSans-65"/>
     <use x="659.472656" xlink:href="#DejaVuSans-74"/>
    </g>
   </g>
   <g id="patch_6">
    <path clip-path="url(#p7ccd5c47c6)" d="M 423.309687 172.876339 
L 439.149687 172.876339 
L 439.149687 157.036339 
L 423.309687 157.036339 
z
" style="fill:#f2f2f2;"/>
   </g>
   <g id="patch_7">
    <path clip-path="url(#p7ccd5c47c6)" d="M 423.309687 168.916339 
L 439.149687 168.916339 
L 439.149687 160.996339 
L 423.309687 160.996339 
z
" style="fill:#999999;opacity:0.4;"/>
   </g>
   <g id="line2d_26">
    <path clip-path="url(#p7ccd5c47c6)" d="M 423.309687 164.956339 
L 439.149687 164.956339 
" style="fill:none;stroke:#57db5f;stroke-width:1.772454;"/>
   </g>
   <g id="text_12">
    <!-- pytorch_lr -->
    <g transform="translate(442.149688 167.262214)scale(0.088 -0.088)">
     <defs>
      <path d="M 3513 2113 
L 3513 0 
L 2938 0 
L 2938 2094 
Q 2938 2591 2744 2837 
Q 2550 3084 2163 3084 
Q 1697 3084 1428 2787 
Q 1159 2491 1159 1978 
L 1159 0 
L 581 0 
L 581 4863 
L 1159 4863 
L 1159 2956 
Q 1366 3272 1645 3428 
Q 1925 3584 2291 3584 
Q 2894 3584 3203 3211 
Q 3513 2838 3513 2113 
z
" id="DejaVuSans-68" transform="scale(0.015625)"/>
     </defs>
     <use xlink:href="#DejaVuSans-70"/>
     <use x="63.476562" xlink:href="#DejaVuSans-79"/>
     <use x="122.65625" xlink:href="#DejaVuSans-74"/>
     <use x="161.865234" xlink:href="#DejaVuSans-6f"/>
     <use x="223.046875" xlink:href="#DejaVuSans-72"/>
     <use x="261.910156" xlink:href="#DejaVuSans-63"/>
     <use x="316.890625" xlink:href="#DejaVuSans-68"/>
     <use x="380.269531" xlink:href="#DejaVuSans-5f"/>
     <use x="430.269531" xlink:href="#DejaVuSans-6c"/>
     <use x="458.052734" xlink:href="#DejaVuSans-72"/>
    </g>
   </g>
   <g id="patch_8">
    <path clip-path="url(#p7709509021)" d="M 423.309687 190.716339 
L 439.149687 190.716339 
L 439.149687 174.876339 
L 423.309687 174.876339 
z
" style="fill:#f2f2f2;"/>
   </g>
   <g id="patch_9">
    <path clip-path="url(#p7709509021)" d="M 423.309687 186.756339 
L 439.149687 186.756339 
L 439.149687 178.836339 
L 423.309687 178.836339 
z
" style="fill:#999999;opacity:0.4;"/>
   </g>
   <g id="line2d_27">
    <path clip-path="url(#p7709509021)" d="M 423.309687 182.796339 
L 439.149687 182.796339 
" style="fill:none;stroke:#5f57db;stroke-width:1.772454;"/>
   </g>
   <g id="text_13">
    <!-- three_layer_net -->
    <g transform="translate(442.149688 185.102214)scale(0.088 -0.088)">
     <use xlink:href="#DejaVuSans-74"/>
     <use x="39.208984" xlink:href="#DejaVuSans-68"/>
     <use x="102.587891" xlink:href="#DejaVuSans-72"/>
     <use x="141.451172" xlink:href="#DejaVuSans-65"/>
     <use x="202.974609" xlink:href="#DejaVuSans-65"/>
     <use x="264.498047" xlink:href="#DejaVuSans-5f"/>
     <use x="314.498047" xlink:href="#DejaVuSans-6c"/>
     <use x="342.28125" xlink:href="#DejaVuSans-61"/>
     <use x="403.560547" xlink:href="#DejaVuSans-79"/>
     <use x="462.740234" xlink:href="#DejaVuSans-65"/>
     <use x="524.263672" xlink:href="#DejaVuSans-72"/>
     <use x="565.376953" xlink:href="#DejaVuSans-5f"/>
     <use x="615.376953" xlink:href="#DejaVuSans-6e"/>
     <use x="678.755859" xlink:href="#DejaVuSans-65"/>
     <use x="740.279297" xlink:href="#DejaVuSans-74"/>
    </g>
   </g>
  </g>
  <g id="text_14">
   <!-- All Tissue Prediction GTEx Data -->
   <g transform="translate(116.713219 17.229938)scale(0.132 -0.132)">
    <defs>
     <path d="M 1259 4147 
L 1259 2394 
L 2053 2394 
Q 2494 2394 2734 2622 
Q 2975 2850 2975 3272 
Q 2975 3691 2734 3919 
Q 2494 4147 2053 4147 
L 1259 4147 
z
M 628 4666 
L 2053 4666 
Q 2838 4666 3239 4311 
Q 3641 3956 3641 3272 
Q 3641 2581 3239 2228 
Q 2838 1875 2053 1875 
L 1259 1875 
L 1259 0 
L 628 0 
L 628 4666 
z
" id="DejaVuSans-50" transform="scale(0.015625)"/>
     <path d="M 3809 666 
L 3809 1919 
L 2778 1919 
L 2778 2438 
L 4434 2438 
L 4434 434 
Q 4069 175 3628 42 
Q 3188 -91 2688 -91 
Q 1594 -91 976 548 
Q 359 1188 359 2328 
Q 359 3472 976 4111 
Q 1594 4750 2688 4750 
Q 3144 4750 3555 4637 
Q 3966 4525 4313 4306 
L 4313 3634 
Q 3963 3931 3569 4081 
Q 3175 4231 2741 4231 
Q 1884 4231 1454 3753 
Q 1025 3275 1025 2328 
Q 1025 1384 1454 906 
Q 1884 428 2741 428 
Q 3075 428 3337 486 
Q 3600 544 3809 666 
z
" id="DejaVuSans-47" transform="scale(0.015625)"/>
     <path d="M 628 4666 
L 3578 4666 
L 3578 4134 
L 1259 4134 
L 1259 2753 
L 3481 2753 
L 3481 2222 
L 1259 2222 
L 1259 531 
L 3634 531 
L 3634 0 
L 628 0 
L 628 4666 
z
" id="DejaVuSans-45" transform="scale(0.015625)"/>
     <path d="M 3513 3500 
L 2247 1797 
L 3578 0 
L 2900 0 
L 1881 1375 
L 863 0 
L 184 0 
L 1544 1831 
L 300 3500 
L 978 3500 
L 1906 2253 
L 2834 3500 
L 3513 3500 
z
" id="DejaVuSans-78" transform="scale(0.015625)"/>
     <path d="M 1259 4147 
L 1259 519 
L 2022 519 
Q 2988 519 3436 956 
Q 3884 1394 3884 2338 
Q 3884 3275 3436 3711 
Q 2988 4147 2022 4147 
L 1259 4147 
z
M 628 4666 
L 1925 4666 
Q 3281 4666 3915 4102 
Q 4550 3538 4550 2338 
Q 4550 1131 3912 565 
Q 3275 0 1925 0 
L 628 0 
L 628 4666 
z
" id="DejaVuSans-44" transform="scale(0.015625)"/>
    </defs>
    <use xlink:href="#DejaVuSans-41"/>
    <use x="68.408203" xlink:href="#DejaVuSans-6c"/>
    <use x="96.191406" xlink:href="#DejaVuSans-6c"/>
    <use x="123.974609" xlink:href="#DejaVuSans-20"/>
    <use x="155.761719" xlink:href="#DejaVuSans-54"/>
    <use x="213.720703" xlink:href="#DejaVuSans-69"/>
    <use x="241.503906" xlink:href="#DejaVuSans-73"/>
    <use x="293.603516" xlink:href="#DejaVuSans-73"/>
    <use x="345.703125" xlink:href="#DejaVuSans-75"/>
    <use x="409.082031" xlink:href="#DejaVuSans-65"/>
    <use x="470.605469" xlink:href="#DejaVuSans-20"/>
    <use x="502.392578" xlink:href="#DejaVuSans-50"/>
    <use x="560.945312" xlink:href="#DejaVuSans-72"/>
    <use x="599.808594" xlink:href="#DejaVuSans-65"/>
    <use x="661.332031" xlink:href="#DejaVuSans-64"/>
    <use x="724.808594" xlink:href="#DejaVuSans-69"/>
    <use x="752.591797" xlink:href="#DejaVuSans-63"/>
    <use x="807.572266" xlink:href="#DejaVuSans-74"/>
    <use x="846.78125" xlink:href="#DejaVuSans-69"/>
    <use x="874.564453" xlink:href="#DejaVuSans-6f"/>
    <use x="935.746094" xlink:href="#DejaVuSans-6e"/>
    <use x="999.125" xlink:href="#DejaVuSans-20"/>
    <use x="1030.912109" xlink:href="#DejaVuSans-47"/>
    <use x="1104.777344" xlink:href="#DejaVuSans-54"/>
    <use x="1165.861328" xlink:href="#DejaVuSans-45"/>
    <use x="1229.044922" xlink:href="#DejaVuSans-78"/>
    <use x="1288.224609" xlink:href="#DejaVuSans-20"/>
    <use x="1320.011719" xlink:href="#DejaVuSans-44"/>
    <use x="1397.013672" xlink:href="#DejaVuSans-61"/>
    <use x="1458.292969" xlink:href="#DejaVuSans-74"/>
    <use x="1497.501953" xlink:href="#DejaVuSans-61"/>
   </g>
  </g>
 </g>
 <defs>
  <clipPath id="p1161547494">
   <rect height="266.112" width="357.12" x="46.789688" y="26.105371"/>
  </clipPath>
  <clipPath id="pbb6e806718">
   <path d="M 423.309687 155.036339 
L 423.309687 139.196339 
L 439.149687 139.196339 
L 439.149687 155.036339 
"/>
  </clipPath>
  <clipPath id="p7ccd5c47c6">
   <path d="M 423.309687 172.876339 
L 423.309687 157.036339 
L 439.149687 157.036339 
L 439.149687 172.876339 
"/>
  </clipPath>
  <clipPath id="p7709509021">
   <path d="M 423.309687 190.716339 
L 423.309687 174.876339 
L 439.149687 174.876339 
L 439.149687 190.716339 
"/>
  </clipPath>
 </defs>
</svg>
