<?xml version="1.0" encoding="utf-8" standalone="no"?>
<!DOCTYPE svg PUBLIC "-//W3C//DTD SVG 1.1//EN"
  "http://www.w3.org/Graphics/SVG/1.1/DTD/svg11.dtd">
<svg height="328.235996pt" version="1.1" viewBox="0 0 524.852625 328.235996" width="524.852625pt" xmlns="http://www.w3.org/2000/svg" xmlns:xlink="http://www.w3.org/1999/xlink">
 <metadata>
  <rdf:RDF xmlns:cc="http://creativecommons.org/ns#" xmlns:dc="http://purl.org/dc/elements/1.1/" xmlns:rdf="http://www.w3.org/1999/02/22-rdf-syntax-ns#">
   <cc:Work>
    <dc:type rdf:resource="http://purl.org/dc/dcmitype/StillImage"/>
    <dc:date>2022-02-20T09:24:24.448147</dc:date>
    <dc:format>image/svg+xml</dc:format>
    <dc:creator>
     <cc:Agent>
      <dc:title>Matplotlib v3.4.2, https://matplotlib.org/</dc:title>
     </cc:Agent>
    </dc:creator>
   </cc:Work>
  </rdf:RDF>
 </metadata>
 <defs>
  <style type="text/css">*{stroke-linecap:butt;stroke-linejoin:round;}</style>
 </defs>
 <g id="figure_1">
  <g id="patch_1">
   <path d="M 0 328.235996 
L 524.852625 328.235996 
L 524.852625 0 
L 0 0 
z
" style="fill:#ffffff;stroke:#ffffff;stroke-linejoin:miter;"/>
  </g>
  <g id="axes_1">
   <g id="patch_2">
    <path d="M 41.496625 292.217371 
L 398.616625 292.217371 
L 398.616625 26.105371 
L 41.496625 26.105371 
z
" style="fill:#ebebeb;"/>
   </g>
   <g id="matplotlib.axis_1">
    <g id="xtick_1">
     <g id="line2d_1">
      <path clip-path="url(#p506fa31019)" d="M 154.791636 292.217371 
L 154.791636 26.105371 
" style="fill:none;stroke:#ffffff;"/>
     </g>
     <g id="line2d_2">
      <path d="M 154.791636 292.217371 
" style="fill:none;stroke:#333333;stroke-width:1.5;"/>
      <defs>
       <path d="M 0 0 
L 0 2.75 
" id="m54adee8ecd" style="stroke:#000000;"/>
      </defs>
      <g>
       <use style="fill:#333333;stroke:#000000;" x="154.791636" xlink:href="#m54adee8ecd" y="292.217371"/>
      </g>
     </g>
     <g id="text_1">
      <!-- 2000 -->
      <g style="fill:#4d4d4d;" transform="translate(143.593636 303.853996)scale(0.088 -0.088)">
       <defs>
        <path d="M 1228 531 
L 3431 531 
L 3431 0 
L 469 0 
L 469 531 
Q 828 903 1448 1529 
Q 2069 2156 2228 2338 
Q 2531 2678 2651 2914 
Q 2772 3150 2772 3378 
Q 2772 3750 2511 3984 
Q 2250 4219 1831 4219 
Q 1534 4219 1204 4116 
Q 875 4013 500 3803 
L 500 4441 
Q 881 4594 1212 4672 
Q 1544 4750 1819 4750 
Q 2544 4750 2975 4387 
Q 3406 4025 3406 3419 
Q 3406 3131 3298 2873 
Q 3191 2616 2906 2266 
Q 2828 2175 2409 1742 
Q 1991 1309 1228 531 
z
" id="DejaVuSans-32" transform="scale(0.015625)"/>
        <path d="M 2034 4250 
Q 1547 4250 1301 3770 
Q 1056 3291 1056 2328 
Q 1056 1369 1301 889 
Q 1547 409 2034 409 
Q 2525 409 2770 889 
Q 3016 1369 3016 2328 
Q 3016 3291 2770 3770 
Q 2525 4250 2034 4250 
z
M 2034 4750 
Q 2819 4750 3233 4129 
Q 3647 3509 3647 2328 
Q 3647 1150 3233 529 
Q 2819 -91 2034 -91 
Q 1250 -91 836 529 
Q 422 1150 422 2328 
Q 422 3509 836 4129 
Q 1250 4750 2034 4750 
z
" id="DejaVuSans-30" transform="scale(0.015625)"/>
       </defs>
       <use xlink:href="#DejaVuSans-32"/>
       <use x="63.623047" xlink:href="#DejaVuSans-30"/>
       <use x="127.246094" xlink:href="#DejaVuSans-30"/>
       <use x="190.869141" xlink:href="#DejaVuSans-30"/>
      </g>
     </g>
    </g>
    <g id="xtick_2">
     <g id="line2d_3">
      <path clip-path="url(#p506fa31019)" d="M 274.106059 292.217371 
L 274.106059 26.105371 
" style="fill:none;stroke:#ffffff;"/>
     </g>
     <g id="line2d_4">
      <path d="M 274.106059 292.217371 
" style="fill:none;stroke:#333333;stroke-width:1.5;"/>
      <g>
       <use style="fill:#333333;stroke:#000000;" x="274.106059" xlink:href="#m54adee8ecd" y="292.217371"/>
      </g>
     </g>
     <g id="text_2">
      <!-- 4000 -->
      <g style="fill:#4d4d4d;" transform="translate(262.908059 303.853996)scale(0.088 -0.088)">
       <defs>
        <path d="M 2419 4116 
L 825 1625 
L 2419 1625 
L 2419 4116 
z
M 2253 4666 
L 3047 4666 
L 3047 1625 
L 3713 1625 
L 3713 1100 
L 3047 1100 
L 3047 0 
L 2419 0 
L 2419 1100 
L 313 1100 
L 313 1709 
L 2253 4666 
z
" id="DejaVuSans-34" transform="scale(0.015625)"/>
       </defs>
       <use xlink:href="#DejaVuSans-34"/>
       <use x="63.623047" xlink:href="#DejaVuSans-30"/>
       <use x="127.246094" xlink:href="#DejaVuSans-30"/>
       <use x="190.869141" xlink:href="#DejaVuSans-30"/>
      </g>
     </g>
    </g>
    <g id="xtick_3">
     <g id="line2d_5">
      <path clip-path="url(#p506fa31019)" d="M 393.420482 292.217371 
L 393.420482 26.105371 
" style="fill:none;stroke:#ffffff;"/>
     </g>
     <g id="line2d_6">
      <path d="M 393.420482 292.217371 
" style="fill:none;stroke:#333333;stroke-width:1.5;"/>
      <g>
       <use style="fill:#333333;stroke:#000000;" x="393.420482" xlink:href="#m54adee8ecd" y="292.217371"/>
      </g>
     </g>
     <g id="text_3">
      <!-- 6000 -->
      <g style="fill:#4d4d4d;" transform="translate(382.222482 303.853996)scale(0.088 -0.088)">
       <defs>
        <path d="M 2113 2584 
Q 1688 2584 1439 2293 
Q 1191 2003 1191 1497 
Q 1191 994 1439 701 
Q 1688 409 2113 409 
Q 2538 409 2786 701 
Q 3034 994 3034 1497 
Q 3034 2003 2786 2293 
Q 2538 2584 2113 2584 
z
M 3366 4563 
L 3366 3988 
Q 3128 4100 2886 4159 
Q 2644 4219 2406 4219 
Q 1781 4219 1451 3797 
Q 1122 3375 1075 2522 
Q 1259 2794 1537 2939 
Q 1816 3084 2150 3084 
Q 2853 3084 3261 2657 
Q 3669 2231 3669 1497 
Q 3669 778 3244 343 
Q 2819 -91 2113 -91 
Q 1303 -91 875 529 
Q 447 1150 447 2328 
Q 447 3434 972 4092 
Q 1497 4750 2381 4750 
Q 2619 4750 2861 4703 
Q 3103 4656 3366 4563 
z
" id="DejaVuSans-36" transform="scale(0.015625)"/>
       </defs>
       <use xlink:href="#DejaVuSans-36"/>
       <use x="63.623047" xlink:href="#DejaVuSans-30"/>
       <use x="127.246094" xlink:href="#DejaVuSans-30"/>
       <use x="190.869141" xlink:href="#DejaVuSans-30"/>
      </g>
     </g>
    </g>
    <g id="xtick_4">
     <g id="line2d_7">
      <path clip-path="url(#p506fa31019)" d="M 95.134424 292.217371 
L 95.134424 26.105371 
" style="fill:none;stroke:#ffffff;stroke-width:0.5;"/>
     </g>
    </g>
    <g id="xtick_5">
     <g id="line2d_8">
      <path clip-path="url(#p506fa31019)" d="M 214.448847 292.217371 
L 214.448847 26.105371 
" style="fill:none;stroke:#ffffff;stroke-width:0.5;"/>
     </g>
    </g>
    <g id="xtick_6">
     <g id="line2d_9">
      <path clip-path="url(#p506fa31019)" d="M 333.76327 292.217371 
L 333.76327 26.105371 
" style="fill:none;stroke:#ffffff;stroke-width:0.5;"/>
     </g>
    </g>
    <g id="text_4">
     <!-- train_count -->
     <g transform="translate(183.2285 318.442402)scale(0.11 -0.11)">
      <defs>
       <path d="M 1172 4494 
L 1172 3500 
L 2356 3500 
L 2356 3053 
L 1172 3053 
L 1172 1153 
Q 1172 725 1289 603 
Q 1406 481 1766 481 
L 2356 481 
L 2356 0 
L 1766 0 
Q 1100 0 847 248 
Q 594 497 594 1153 
L 594 3053 
L 172 3053 
L 172 3500 
L 594 3500 
L 594 4494 
L 1172 4494 
z
" id="DejaVuSans-74" transform="scale(0.015625)"/>
       <path d="M 2631 2963 
Q 2534 3019 2420 3045 
Q 2306 3072 2169 3072 
Q 1681 3072 1420 2755 
Q 1159 2438 1159 1844 
L 1159 0 
L 581 0 
L 581 3500 
L 1159 3500 
L 1159 2956 
Q 1341 3275 1631 3429 
Q 1922 3584 2338 3584 
Q 2397 3584 2469 3576 
Q 2541 3569 2628 3553 
L 2631 2963 
z
" id="DejaVuSans-72" transform="scale(0.015625)"/>
       <path d="M 2194 1759 
Q 1497 1759 1228 1600 
Q 959 1441 959 1056 
Q 959 750 1161 570 
Q 1363 391 1709 391 
Q 2188 391 2477 730 
Q 2766 1069 2766 1631 
L 2766 1759 
L 2194 1759 
z
M 3341 1997 
L 3341 0 
L 2766 0 
L 2766 531 
Q 2569 213 2275 61 
Q 1981 -91 1556 -91 
Q 1019 -91 701 211 
Q 384 513 384 1019 
Q 384 1609 779 1909 
Q 1175 2209 1959 2209 
L 2766 2209 
L 2766 2266 
Q 2766 2663 2505 2880 
Q 2244 3097 1772 3097 
Q 1472 3097 1187 3025 
Q 903 2953 641 2809 
L 641 3341 
Q 956 3463 1253 3523 
Q 1550 3584 1831 3584 
Q 2591 3584 2966 3190 
Q 3341 2797 3341 1997 
z
" id="DejaVuSans-61" transform="scale(0.015625)"/>
       <path d="M 603 3500 
L 1178 3500 
L 1178 0 
L 603 0 
L 603 3500 
z
M 603 4863 
L 1178 4863 
L 1178 4134 
L 603 4134 
L 603 4863 
z
" id="DejaVuSans-69" transform="scale(0.015625)"/>
       <path d="M 3513 2113 
L 3513 0 
L 2938 0 
L 2938 2094 
Q 2938 2591 2744 2837 
Q 2550 3084 2163 3084 
Q 1697 3084 1428 2787 
Q 1159 2491 1159 1978 
L 1159 0 
L 581 0 
L 581 3500 
L 1159 3500 
L 1159 2956 
Q 1366 3272 1645 3428 
Q 1925 3584 2291 3584 
Q 2894 3584 3203 3211 
Q 3513 2838 3513 2113 
z
" id="DejaVuSans-6e" transform="scale(0.015625)"/>
       <path d="M 3263 -1063 
L 3263 -1509 
L -63 -1509 
L -63 -1063 
L 3263 -1063 
z
" id="DejaVuSans-5f" transform="scale(0.015625)"/>
       <path d="M 3122 3366 
L 3122 2828 
Q 2878 2963 2633 3030 
Q 2388 3097 2138 3097 
Q 1578 3097 1268 2742 
Q 959 2388 959 1747 
Q 959 1106 1268 751 
Q 1578 397 2138 397 
Q 2388 397 2633 464 
Q 2878 531 3122 666 
L 3122 134 
Q 2881 22 2623 -34 
Q 2366 -91 2075 -91 
Q 1284 -91 818 406 
Q 353 903 353 1747 
Q 353 2603 823 3093 
Q 1294 3584 2113 3584 
Q 2378 3584 2631 3529 
Q 2884 3475 3122 3366 
z
" id="DejaVuSans-63" transform="scale(0.015625)"/>
       <path d="M 1959 3097 
Q 1497 3097 1228 2736 
Q 959 2375 959 1747 
Q 959 1119 1226 758 
Q 1494 397 1959 397 
Q 2419 397 2687 759 
Q 2956 1122 2956 1747 
Q 2956 2369 2687 2733 
Q 2419 3097 1959 3097 
z
M 1959 3584 
Q 2709 3584 3137 3096 
Q 3566 2609 3566 1747 
Q 3566 888 3137 398 
Q 2709 -91 1959 -91 
Q 1206 -91 779 398 
Q 353 888 353 1747 
Q 353 2609 779 3096 
Q 1206 3584 1959 3584 
z
" id="DejaVuSans-6f" transform="scale(0.015625)"/>
       <path d="M 544 1381 
L 544 3500 
L 1119 3500 
L 1119 1403 
Q 1119 906 1312 657 
Q 1506 409 1894 409 
Q 2359 409 2629 706 
Q 2900 1003 2900 1516 
L 2900 3500 
L 3475 3500 
L 3475 0 
L 2900 0 
L 2900 538 
Q 2691 219 2414 64 
Q 2138 -91 1772 -91 
Q 1169 -91 856 284 
Q 544 659 544 1381 
z
M 1991 3584 
L 1991 3584 
z
" id="DejaVuSans-75" transform="scale(0.015625)"/>
      </defs>
      <use xlink:href="#DejaVuSans-74"/>
      <use x="39.208984" xlink:href="#DejaVuSans-72"/>
      <use x="80.322266" xlink:href="#DejaVuSans-61"/>
      <use x="141.601562" xlink:href="#DejaVuSans-69"/>
      <use x="169.384766" xlink:href="#DejaVuSans-6e"/>
      <use x="232.763672" xlink:href="#DejaVuSans-5f"/>
      <use x="282.763672" xlink:href="#DejaVuSans-63"/>
      <use x="337.744141" xlink:href="#DejaVuSans-6f"/>
      <use x="398.925781" xlink:href="#DejaVuSans-75"/>
      <use x="462.304688" xlink:href="#DejaVuSans-6e"/>
      <use x="525.683594" xlink:href="#DejaVuSans-74"/>
     </g>
    </g>
   </g>
   <g id="matplotlib.axis_2">
    <g id="ytick_1">
     <g id="line2d_10">
      <path clip-path="url(#p506fa31019)" d="M 41.496625 272.408503 
L 398.616625 272.408503 
" style="fill:none;stroke:#ffffff;"/>
     </g>
     <g id="line2d_11">
      <path d="M 41.496625 272.408503 
" style="fill:none;stroke:#333333;stroke-width:1.5;"/>
      <defs>
       <path d="M 0 0 
L -2.75 0 
" id="m2aa0c511cc" style="stroke:#000000;"/>
      </defs>
      <g>
       <use style="fill:#333333;stroke:#000000;" x="41.496625" xlink:href="#m2aa0c511cc" y="272.408503"/>
      </g>
     </g>
     <g id="text_5">
      <!-- 0 -->
      <g style="fill:#4d4d4d;" transform="translate(30.947625 274.836753)scale(0.088 -0.088)">
       <use xlink:href="#DejaVuSans-30"/>
      </g>
     </g>
    </g>
    <g id="ytick_2">
     <g id="line2d_12">
      <path clip-path="url(#p506fa31019)" d="M 41.496625 202.74199 
L 398.616625 202.74199 
" style="fill:none;stroke:#ffffff;"/>
     </g>
     <g id="line2d_13">
      <path d="M 41.496625 202.74199 
" style="fill:none;stroke:#333333;stroke-width:1.5;"/>
      <g>
       <use style="fill:#333333;stroke:#000000;" x="41.496625" xlink:href="#m2aa0c511cc" y="202.74199"/>
      </g>
     </g>
     <g id="text_6">
      <!-- 0.2 -->
      <g style="fill:#4d4d4d;" transform="translate(22.551875 205.17024)scale(0.088 -0.088)">
       <defs>
        <path d="M 684 794 
L 1344 794 
L 1344 0 
L 684 0 
L 684 794 
z
" id="DejaVuSans-2e" transform="scale(0.015625)"/>
       </defs>
       <use xlink:href="#DejaVuSans-30"/>
       <use x="63.623047" xlink:href="#DejaVuSans-2e"/>
       <use x="95.410156" xlink:href="#DejaVuSans-32"/>
      </g>
     </g>
    </g>
    <g id="ytick_3">
     <g id="line2d_14">
      <path clip-path="url(#p506fa31019)" d="M 41.496625 133.075476 
L 398.616625 133.075476 
" style="fill:none;stroke:#ffffff;"/>
     </g>
     <g id="line2d_15">
      <path d="M 41.496625 133.075476 
" style="fill:none;stroke:#333333;stroke-width:1.5;"/>
      <g>
       <use style="fill:#333333;stroke:#000000;" x="41.496625" xlink:href="#m2aa0c511cc" y="133.075476"/>
      </g>
     </g>
     <g id="text_7">
      <!-- 0.4 -->
      <g style="fill:#4d4d4d;" transform="translate(22.551875 135.503726)scale(0.088 -0.088)">
       <use xlink:href="#DejaVuSans-30"/>
       <use x="63.623047" xlink:href="#DejaVuSans-2e"/>
       <use x="95.410156" xlink:href="#DejaVuSans-34"/>
      </g>
     </g>
    </g>
    <g id="ytick_4">
     <g id="line2d_16">
      <path clip-path="url(#p506fa31019)" d="M 41.496625 63.408963 
L 398.616625 63.408963 
" style="fill:none;stroke:#ffffff;"/>
     </g>
     <g id="line2d_17">
      <path d="M 41.496625 63.408963 
" style="fill:none;stroke:#333333;stroke-width:1.5;"/>
      <g>
       <use style="fill:#333333;stroke:#000000;" x="41.496625" xlink:href="#m2aa0c511cc" y="63.408963"/>
      </g>
     </g>
     <g id="text_8">
      <!-- 0.6 -->
      <g style="fill:#4d4d4d;" transform="translate(22.551875 65.837213)scale(0.088 -0.088)">
       <use xlink:href="#DejaVuSans-30"/>
       <use x="63.623047" xlink:href="#DejaVuSans-2e"/>
       <use x="95.410156" xlink:href="#DejaVuSans-36"/>
      </g>
     </g>
    </g>
    <g id="ytick_5">
     <g id="line2d_18">
      <path clip-path="url(#p506fa31019)" d="M 41.496625 237.575246 
L 398.616625 237.575246 
" style="fill:none;stroke:#ffffff;stroke-width:0.5;"/>
     </g>
    </g>
    <g id="ytick_6">
     <g id="line2d_19">
      <path clip-path="url(#p506fa31019)" d="M 41.496625 167.908733 
L 398.616625 167.908733 
" style="fill:none;stroke:#ffffff;stroke-width:0.5;"/>
     </g>
    </g>
    <g id="ytick_7">
     <g id="line2d_20">
      <path clip-path="url(#p506fa31019)" d="M 41.496625 98.24222 
L 398.616625 98.24222 
" style="fill:none;stroke:#ffffff;stroke-width:0.5;"/>
     </g>
    </g>
    <g id="ytick_8">
     <g id="line2d_21">
      <path clip-path="url(#p506fa31019)" d="M 41.496625 28.575707 
L 398.616625 28.575707 
" style="fill:none;stroke:#ffffff;stroke-width:0.5;"/>
     </g>
    </g>
    <g id="text_9">
     <!-- balanced_accuracy -->
     <g transform="translate(15.558281 210.144855)rotate(-90)scale(0.11 -0.11)">
      <defs>
       <path d="M 3116 1747 
Q 3116 2381 2855 2742 
Q 2594 3103 2138 3103 
Q 1681 3103 1420 2742 
Q 1159 2381 1159 1747 
Q 1159 1113 1420 752 
Q 1681 391 2138 391 
Q 2594 391 2855 752 
Q 3116 1113 3116 1747 
z
M 1159 2969 
Q 1341 3281 1617 3432 
Q 1894 3584 2278 3584 
Q 2916 3584 3314 3078 
Q 3713 2572 3713 1747 
Q 3713 922 3314 415 
Q 2916 -91 2278 -91 
Q 1894 -91 1617 61 
Q 1341 213 1159 525 
L 1159 0 
L 581 0 
L 581 4863 
L 1159 4863 
L 1159 2969 
z
" id="DejaVuSans-62" transform="scale(0.015625)"/>
       <path d="M 603 4863 
L 1178 4863 
L 1178 0 
L 603 0 
L 603 4863 
z
" id="DejaVuSans-6c" transform="scale(0.015625)"/>
       <path d="M 3597 1894 
L 3597 1613 
L 953 1613 
Q 991 1019 1311 708 
Q 1631 397 2203 397 
Q 2534 397 2845 478 
Q 3156 559 3463 722 
L 3463 178 
Q 3153 47 2828 -22 
Q 2503 -91 2169 -91 
Q 1331 -91 842 396 
Q 353 884 353 1716 
Q 353 2575 817 3079 
Q 1281 3584 2069 3584 
Q 2775 3584 3186 3129 
Q 3597 2675 3597 1894 
z
M 3022 2063 
Q 3016 2534 2758 2815 
Q 2500 3097 2075 3097 
Q 1594 3097 1305 2825 
Q 1016 2553 972 2059 
L 3022 2063 
z
" id="DejaVuSans-65" transform="scale(0.015625)"/>
       <path d="M 2906 2969 
L 2906 4863 
L 3481 4863 
L 3481 0 
L 2906 0 
L 2906 525 
Q 2725 213 2448 61 
Q 2172 -91 1784 -91 
Q 1150 -91 751 415 
Q 353 922 353 1747 
Q 353 2572 751 3078 
Q 1150 3584 1784 3584 
Q 2172 3584 2448 3432 
Q 2725 3281 2906 2969 
z
M 947 1747 
Q 947 1113 1208 752 
Q 1469 391 1925 391 
Q 2381 391 2643 752 
Q 2906 1113 2906 1747 
Q 2906 2381 2643 2742 
Q 2381 3103 1925 3103 
Q 1469 3103 1208 2742 
Q 947 2381 947 1747 
z
" id="DejaVuSans-64" transform="scale(0.015625)"/>
       <path d="M 2059 -325 
Q 1816 -950 1584 -1140 
Q 1353 -1331 966 -1331 
L 506 -1331 
L 506 -850 
L 844 -850 
Q 1081 -850 1212 -737 
Q 1344 -625 1503 -206 
L 1606 56 
L 191 3500 
L 800 3500 
L 1894 763 
L 2988 3500 
L 3597 3500 
L 2059 -325 
z
" id="DejaVuSans-79" transform="scale(0.015625)"/>
      </defs>
      <use xlink:href="#DejaVuSans-62"/>
      <use x="63.476562" xlink:href="#DejaVuSans-61"/>
      <use x="124.755859" xlink:href="#DejaVuSans-6c"/>
      <use x="152.539062" xlink:href="#DejaVuSans-61"/>
      <use x="213.818359" xlink:href="#DejaVuSans-6e"/>
      <use x="277.197266" xlink:href="#DejaVuSans-63"/>
      <use x="332.177734" xlink:href="#DejaVuSans-65"/>
      <use x="393.701172" xlink:href="#DejaVuSans-64"/>
      <use x="457.177734" xlink:href="#DejaVuSans-5f"/>
      <use x="507.177734" xlink:href="#DejaVuSans-61"/>
      <use x="568.457031" xlink:href="#DejaVuSans-63"/>
      <use x="623.4375" xlink:href="#DejaVuSans-63"/>
      <use x="678.417969" xlink:href="#DejaVuSans-75"/>
      <use x="741.796875" xlink:href="#DejaVuSans-72"/>
      <use x="782.910156" xlink:href="#DejaVuSans-61"/>
      <use x="844.189453" xlink:href="#DejaVuSans-63"/>
      <use x="899.169922" xlink:href="#DejaVuSans-79"/>
     </g>
    </g>
   </g>
   <g id="PolyCollection_1">
    <path clip-path="url(#p506fa31019)" d="M 57.729352 230.854047 
L 57.729352 280.121371 
L 60.592898 274.575134 
L 60.831527 274.122348 
L 61.965014 271.99161 
L 62.322958 271.325644 
L 63.396787 269.347763 
L 63.575759 269.021049 
L 63.993359 268.261993 
L 64.112674 268.045964 
L 64.41096 267.507536 
L 64.530274 267.292824 
L 65.663761 265.271932 
L 66.141019 264.431297 
L 69.004565 259.516907 
L 70.138052 257.633674 
L 79.981492 242.802773 
L 85.768242 235.369777 
L 86.185842 234.869269 
L 88.452816 232.233393 
L 89.22836 231.362281 
L 91.316362 229.090608 
L 91.674306 228.711704 
L 92.569164 227.777582 
L 92.748135 227.592985 
L 93.344708 226.982948 
L 93.583336 226.741194 
L 95.909968 224.450031 
L 96.804826 223.599758 
L 102.233632 218.783883 
L 102.591575 218.485865 
L 104.858549 216.65077 
L 110.943585 212.14258 
L 111.540157 211.731229 
L 114.940618 209.484075 
L 116.133762 208.733734 
L 119.295595 206.837216 
L 119.772852 206.562274 
L 121.085311 205.821176 
L 121.383597 205.65542 
L 122.338112 205.127708 
L 122.636398 204.963685 
L 124.545429 203.925153 
L 126.096517 203.097827 
L 127.468633 202.380652 
L 136.118928 198.30084 
L 136.894472 197.98014 
L 139.519389 196.955473 
L 141.488077 196.248245 
L 143.039165 195.726813 
L 146.797569 194.5834 
L 147.21517 194.465874 
L 147.931056 194.26839 
L 149.661115 193.810474 
L 150.019059 193.718895 
L 151.27186 193.406091 
L 151.689461 193.304328 
L 156.342723 192.409806 
L 158.132439 192.194461 
L 161.294272 192.001434 
L 162.248787 191.99195 
L 167.975879 192.414584 
L 169.049709 192.580527 
L 169.705938 192.693891 
L 169.944567 192.737248 
L 174.239887 193.676664 
L 175.194402 193.914715 
L 176.029603 194.127317 
L 178.177262 194.678444 
L 178.65452 194.799258 
L 180.265265 195.193923 
L 180.80218 195.319112 
L 186.469615 196.27436 
L 186.529272 196.279536 
L 187.603102 196.350405 
L 188.796246 196.409205 
L 191.361506 196.567808 
L 194.463681 196.830587 
L 196.790312 197.090814 
L 203.113977 198.13646 
L 203.292949 198.17371 
L 204.12815 198.352925 
L 206.753067 198.969507 
L 207.289982 199.104363 
L 208.900726 199.522632 
L 209.199012 199.601915 
L 209.855242 199.777793 
L 211.644958 200.262938 
L 212.957417 200.617222 
L 213.613646 200.791616 
L 216.775478 201.574273 
L 219.460053 202.107991 
L 221.01114 202.334386 
L 223.695715 202.541419 
L 231.033552 202.507584 
L 232.286353 202.465992 
L 235.269214 202.342611 
L 235.865786 202.31489 
L 235.925443 202.312075 
L 236.820301 202.269021 
L 238.13276 202.203502 
L 238.311732 202.194386 
L 238.908304 202.16373 
L 243.621224 201.909177 
L 246.962027 201.709297 
L 247.498942 201.674389 
L 250.12386 201.485941 
L 250.601117 201.447683 
L 258.177583 200.556611 
L 259.012784 200.413337 
L 260.3849 200.152768 
L 261.995645 199.803771 
L 263.666047 199.409176 
L 263.845018 199.366038 
L 264.560905 199.191831 
L 267.126165 198.545936 
L 267.961366 198.32836 
L 270.407312 197.670529 
L 273.986744 196.651284 
L 277.208234 195.673438 
L 277.50652 195.579823 
L 278.282064 195.333882 
L 280.787666 194.513136 
L 286.932359 192.309999 
L 287.170988 192.218342 
L 288.483447 191.705291 
L 289.080019 191.466959 
L 292.361165 190.095601 
L 293.196366 189.729423 
L 296.059913 188.4183 
L 297.014428 187.961584 
L 300.534203 186.224305 
L 303.934664 184.488358 
L 304.411922 184.24089 
L 307.394783 182.676437 
L 311.451473 180.509732 
L 313.002561 179.672667 
L 314.911591 178.63782 
L 316.641651 177.696694 
L 320.93697 175.35234 
L 321.831828 174.863273 
L 325.053317 173.102625 
L 326.127147 172.516019 
L 337.521675 166.309607 
L 337.640989 166.244773 
L 342.11528 163.814145 
L 347.663401 160.797456 
L 371.108685 147.833401 
L 382.383898 141.373213 
L 382.383898 41.430812 
L 382.383898 41.430812 
L 371.108685 65.084084 
L 347.663401 107.009215 
L 342.11528 115.41388 
L 337.640989 121.747576 
L 337.521675 121.910966 
L 326.127147 136.172289 
L 325.053317 137.378032 
L 321.831828 140.851945 
L 320.93697 141.778872 
L 316.641651 145.999835 
L 314.911591 147.594392 
L 313.002561 149.284763 
L 311.451473 150.605543 
L 307.394783 153.842306 
L 304.411922 156.028219 
L 303.934664 156.363213 
L 300.534203 158.636218 
L 297.014428 160.786814 
L 296.059913 161.335238 
L 293.196366 162.888194 
L 292.361165 163.316005 
L 289.080019 164.892179 
L 288.483447 165.16141 
L 287.170988 165.735552 
L 286.932359 165.837295 
L 280.787666 168.190704 
L 278.282064 169.012664 
L 277.50652 169.25223 
L 277.208234 169.342572 
L 273.986744 170.257859 
L 270.407312 171.157938 
L 267.961366 171.713381 
L 267.126165 171.893648 
L 264.560905 172.422298 
L 263.845018 172.564047 
L 263.666047 172.599145 
L 261.995645 172.92101 
L 260.3849 173.218402 
L 259.012784 173.45781 
L 258.177583 173.596864 
L 250.601117 174.577671 
L 250.12386 174.619677 
L 247.498942 174.802896 
L 246.962027 174.830172 
L 243.621224 174.921255 
L 238.908304 174.833443 
L 238.311732 174.806697 
L 238.13276 174.798088 
L 236.820301 174.727363 
L 235.925443 174.672293 
L 235.865786 174.668448 
L 235.269214 174.628918 
L 232.286353 174.409861 
L 231.033552 174.312825 
L 223.695715 173.856628 
L 221.01114 173.722416 
L 219.460053 173.604519 
L 216.775478 173.324397 
L 213.613646 172.857993 
L 212.957417 172.741366 
L 211.644958 172.487015 
L 209.855242 172.094793 
L 209.199012 171.938077 
L 208.900726 171.864613 
L 207.289982 171.444794 
L 206.753067 171.296632 
L 204.12815 170.521736 
L 203.292949 170.260867 
L 203.113977 170.204288 
L 196.790312 168.182992 
L 194.463681 167.519232 
L 191.361506 166.813386 
L 188.796246 166.45256 
L 187.603102 166.370954 
L 186.529272 166.324512 
L 186.469615 166.321914 
L 180.80218 166.048658 
L 180.265265 166.017891 
L 178.65452 165.917472 
L 178.177262 165.885098 
L 176.029603 165.722388 
L 175.194402 165.650989 
L 174.239887 165.563534 
L 169.944567 165.096294 
L 169.705938 165.06734 
L 169.049709 164.986586 
L 167.975879 164.85173 
L 162.248787 164.172533 
L 161.294272 164.087073 
L 158.132439 163.927864 
L 156.342723 163.952917 
L 151.689461 164.579808 
L 151.27186 164.681533 
L 150.019059 165.008136 
L 149.661115 165.107175 
L 147.931056 165.619828 
L 147.21517 165.847645 
L 146.797569 165.984565 
L 143.039165 167.338931 
L 141.488077 167.955593 
L 139.519389 168.781239 
L 136.894472 169.951415 
L 136.118928 170.311692 
L 127.468633 174.795575 
L 126.096517 175.594536 
L 124.545429 176.531159 
L 122.636398 177.735376 
L 122.338112 177.928841 
L 121.383597 178.557766 
L 121.085311 178.757399 
L 119.772852 179.650348 
L 119.295595 179.980601 
L 116.133762 182.240707 
L 114.940618 183.124981 
L 111.540157 185.733173 
L 110.943585 186.203465 
L 104.858549 191.190059 
L 102.591575 193.123305 
L 102.233632 193.431624 
L 96.804826 198.186805 
L 95.909968 198.981112 
L 93.583336 201.053473 
L 93.344708 201.266381 
L 92.748135 201.798773 
L 92.569164 201.95851 
L 91.674306 202.757148 
L 91.316362 203.076513 
L 89.22836 204.936622 
L 88.452816 205.625517 
L 86.185842 207.629133 
L 85.768242 207.996258 
L 79.981492 213.003557 
L 70.138052 221.133463 
L 69.004565 222.040648 
L 66.141019 224.311154 
L 65.663761 224.686898 
L 64.530274 225.576578 
L 64.41096 225.670017 
L 64.112674 225.903449 
L 63.993359 225.996756 
L 63.575759 226.323043 
L 63.396787 226.462746 
L 62.322958 227.299379 
L 61.965014 227.577687 
L 60.831527 228.457303 
L 60.592898 228.642182 
L 57.729352 230.854047 
z
" style="fill:#999999;fill-opacity:0.4;"/>
   </g>
   <g id="PolyCollection_2">
    <path clip-path="url(#p506fa31019)" d="M 57.729352 197.915392 
L 57.729352 245.255944 
L 60.592898 241.021556 
L 60.831527 240.676063 
L 61.965014 239.050673 
L 62.322958 238.542811 
L 63.396787 237.034962 
L 63.575759 236.785961 
L 63.993359 236.207535 
L 64.112674 236.042935 
L 64.41096 235.63273 
L 64.530274 235.469167 
L 65.663761 233.930179 
L 66.141019 233.290274 
L 69.004565 229.552945 
L 70.138052 228.122583 
L 79.981492 216.905753 
L 85.768242 211.324214 
L 86.185842 210.949364 
L 88.452816 208.97688 
L 89.22836 208.32518 
L 91.316362 206.62354 
L 91.674306 206.339382 
L 92.569164 205.63839 
L 92.748135 205.499784 
L 93.344708 205.041539 
L 93.583336 204.859853 
L 95.909968 203.135342 
L 96.804826 202.494022 
L 102.233632 198.844559 
L 102.591575 198.617608 
L 104.858549 197.216753 
L 110.943585 193.747078 
L 111.540157 193.428236 
L 114.940618 191.679142 
L 116.133762 191.092275 
L 119.295595 189.602493 
L 119.772852 189.385753 
L 121.085311 188.800595 
L 121.383597 188.669192 
L 122.338112 188.245922 
L 122.636398 188.112853 
L 124.545429 187.25413 
L 126.096517 186.550632 
L 127.468633 185.927341 
L 136.118928 182.151978 
L 136.894472 181.838423 
L 139.519389 180.819088 
L 141.488077 180.099478 
L 143.039165 179.560315 
L 146.797569 178.353282 
L 147.21517 178.227476 
L 147.931056 178.015471 
L 149.661115 177.521498 
L 150.019059 177.422414 
L 151.27186 177.083631 
L 151.689461 176.973394 
L 156.342723 175.796047 
L 158.132439 175.38362 
L 161.294272 174.747494 
L 162.248787 174.584285 
L 167.975879 173.953799 
L 169.049709 173.907105 
L 169.705938 173.88966 
L 169.944567 173.885362 
L 174.239887 173.977563 
L 175.194402 174.035175 
L 176.029603 174.093942 
L 178.177262 174.27167 
L 178.65452 174.314676 
L 180.265265 174.463367 
L 180.80218 174.512853 
L 186.469615 174.914007 
L 186.529272 174.916146 
L 187.603102 174.943884 
L 188.796246 174.970031 
L 191.361506 175.076513 
L 194.463681 175.305404 
L 196.790312 175.557873 
L 203.113977 176.63852 
L 203.292949 176.67765 
L 204.12815 176.866125 
L 206.753067 177.516234 
L 207.289982 177.658635 
L 208.900726 178.100644 
L 209.199012 178.184483 
L 209.855242 178.370537 
L 211.644958 178.884351 
L 212.957417 179.260343 
L 213.613646 179.445764 
L 216.775478 180.28268 
L 219.460053 180.863293 
L 221.01114 181.116843 
L 223.695715 181.370474 
L 231.033552 181.550851 
L 232.286353 181.562277 
L 235.269214 181.582585 
L 235.865786 181.58643 
L 235.925443 181.586822 
L 236.820301 181.59295 
L 238.13276 181.603161 
L 238.311732 181.604696 
L 238.908304 181.610099 
L 243.621224 181.669189 
L 246.962027 181.720981 
L 247.498942 181.7287 
L 250.12386 181.757171 
L 250.601117 181.759863 
L 258.177583 181.580608 
L 259.012784 181.522902 
L 260.3849 181.405959 
L 261.995645 181.230388 
L 263.666047 181.021593 
L 263.845018 180.998745 
L 264.560905 180.906416 
L 267.126165 180.56314 
L 267.961366 180.447091 
L 270.407312 180.094626 
L 273.986744 179.542506 
L 277.208234 179.00385 
L 277.50652 178.951738 
L 278.282064 178.814336 
L 280.787666 178.350277 
L 286.932359 177.056908 
L 287.170988 177.001484 
L 288.483447 176.688798 
L 289.080019 176.542132 
L 292.361165 175.68104 
L 293.196366 175.446273 
L 296.059913 174.589822 
L 297.014428 174.285941 
L 300.534203 173.121506 
L 303.934664 171.954295 
L 304.411922 171.787833 
L 307.394783 170.736152 
L 311.451473 169.284468 
L 313.002561 168.726075 
L 314.911591 168.038164 
L 316.641651 167.415192 
L 320.93697 165.875987 
L 321.831828 165.55738 
L 325.053317 164.41814 
L 326.127147 164.041365 
L 337.521675 160.145084 
L 337.640989 160.105257 
L 342.11528 158.624807 
L 347.663401 156.82039 
L 371.108685 149.412598 
L 382.383898 145.885023 
L 382.383898 49.851221 
L 382.383898 49.851221 
L 371.108685 69.899485 
L 347.663401 105.135727 
L 342.11528 112.117405 
L 337.640989 117.348279 
L 337.521675 117.482808 
L 326.127147 129.118985 
L 325.053317 130.090684 
L 321.831828 132.876185 
L 320.93697 133.615528 
L 316.641651 136.957951 
L 314.911591 138.208799 
L 313.002561 139.526597 
L 311.451473 140.549788 
L 307.394783 143.029682 
L 304.411922 144.678518 
L 303.934664 144.929083 
L 300.534203 146.612348 
L 297.014428 148.173936 
L 296.059913 148.565938 
L 293.196366 149.654765 
L 292.361165 149.948754 
L 289.080019 151.006652 
L 288.483447 151.183009 
L 287.170988 151.554396 
L 286.932359 151.619512 
L 280.787666 153.057276 
L 278.282064 153.522502 
L 277.50652 153.653778 
L 277.208234 153.702746 
L 273.986744 154.181289 
L 270.407312 154.618903 
L 267.961366 154.872985 
L 267.126165 154.953184 
L 264.560905 155.183801 
L 263.845018 155.24494 
L 263.666047 155.260064 
L 261.995645 155.398972 
L 260.3849 155.524957 
L 259.012784 155.621566 
L 258.177583 155.675217 
L 250.601117 155.940697 
L 250.12386 155.941608 
L 247.498942 155.908112 
L 246.962027 155.893059 
L 243.621224 155.736726 
L 238.908304 155.348659 
L 238.311732 155.288099 
L 238.13276 155.269532 
L 236.820301 155.128405 
L 235.925443 155.027991 
L 235.865786 155.0212 
L 235.269214 154.952734 
L 232.286353 154.603379 
L 231.033552 154.458747 
L 223.695715 153.807504 
L 221.01114 153.623845 
L 219.460053 153.47455 
L 216.775478 153.137615 
L 213.613646 152.604584 
L 212.957417 152.474671 
L 211.644958 152.194703 
L 209.855242 151.770178 
L 209.199012 151.602537 
L 208.900726 151.52429 
L 207.289982 151.080791 
L 206.753067 150.925604 
L 204.12815 150.123372 
L 203.292949 149.856438 
L 203.113977 149.798734 
L 196.790312 147.780593 
L 194.463681 147.140373 
L 191.361506 146.485742 
L 188.796246 146.184946 
L 187.603102 146.136884 
L 186.529272 146.132618 
L 186.469615 146.132957 
L 180.80218 146.387123 
L 180.265265 146.428367 
L 178.65452 146.562414 
L 178.177262 146.60439 
L 176.029603 146.799889 
L 175.194402 146.876801 
L 174.239887 146.963896 
L 169.944567 147.325405 
L 169.705938 147.343543 
L 169.049709 147.392322 
L 167.975879 147.468887 
L 162.248787 147.852844 
L 161.294272 147.924823 
L 158.132439 148.222488 
L 156.342723 148.452065 
L 151.689461 149.372247 
L 151.27186 149.482448 
L 150.019059 149.83449 
L 149.661115 149.940742 
L 147.931056 150.487313 
L 147.21517 150.728464 
L 146.797569 150.872905 
L 143.039165 152.282641 
L 141.488077 152.91331 
L 139.519389 153.746706 
L 136.894472 154.905859 
L 136.118928 155.257445 
L 127.468633 159.421076 
L 126.096517 160.122953 
L 124.545429 160.931475 
L 122.636398 161.949403 
L 122.338112 162.110762 
L 121.383597 162.631287 
L 121.085311 162.795243 
L 119.772852 163.526314 
L 119.295595 163.796201 
L 116.133762 165.635351 
L 114.940618 166.350913 
L 111.540157 168.446926 
L 110.943585 168.822404 
L 104.858549 172.751772 
L 102.591575 174.24694 
L 102.233632 174.483789 
L 96.804826 178.074932 
L 95.909968 178.662475 
L 93.583336 180.176742 
L 93.344708 180.330709 
L 92.748135 180.714346 
L 92.569164 180.829063 
L 91.674306 181.39987 
L 91.316362 181.626818 
L 89.22836 182.932989 
L 88.452816 183.409598 
L 86.185842 184.77455 
L 85.768242 185.021233 
L 79.981492 188.27194 
L 70.138052 193.049841 
L 69.004565 193.542327 
L 66.141019 194.739171 
L 65.663761 194.932366 
L 64.530274 195.384381 
L 64.41096 195.431414 
L 64.112674 195.548552 
L 63.993359 195.59523 
L 63.575759 195.757811 
L 63.396787 195.827115 
L 62.322958 196.238348 
L 61.965014 196.373713 
L 60.831527 196.79691 
L 60.592898 196.884973 
L 57.729352 197.915392 
z
" style="fill:#999999;fill-opacity:0.4;"/>
   </g>
   <g id="PolyCollection_3">
    <path clip-path="url(#p506fa31019)" d="M 57.729352 232.101429 
L 57.729352 270.950021 
L 60.592898 267.510399 
L 60.831527 267.229846 
L 61.965014 265.910177 
L 62.322958 265.497912 
L 63.396787 264.274111 
L 63.575759 264.07205 
L 63.993359 263.6027 
L 64.112674 263.469149 
L 64.41096 263.136341 
L 64.530274 263.003647 
L 65.663761 261.755328 
L 66.141019 261.236405 
L 69.004565 258.207265 
L 70.138052 257.04875 
L 79.981492 247.985484 
L 85.768242 243.497278 
L 86.185842 243.196614 
L 88.452816 241.616401 
L 89.22836 241.095096 
L 91.316362 239.73611 
L 91.674306 239.509484 
L 92.569164 238.950805 
L 92.748135 238.840403 
L 93.344708 238.475559 
L 93.583336 238.330971 
L 95.909968 236.96043 
L 96.804826 236.4516 
L 102.233632 233.564618 
L 102.591575 233.38554 
L 104.858549 232.281256 
L 110.943585 229.552722 
L 111.540157 229.302324 
L 114.940618 227.929117 
L 116.133762 227.468383 
L 119.295595 226.298243 
L 119.772852 226.127889 
L 121.085311 225.667739 
L 121.383597 225.564497 
L 122.338112 225.233643 
L 122.636398 225.13014 
L 124.545429 224.467553 
L 126.096517 223.930919 
L 127.468633 223.459552 
L 136.118928 220.667935 
L 136.894472 220.439804 
L 139.519389 219.700301 
L 141.488077 219.178978 
L 143.039165 218.787721 
L 146.797569 217.90387 
L 147.21517 217.810608 
L 147.931056 217.652719 
L 149.661115 217.280507 
L 150.019059 217.20497 
L 151.27186 216.943991 
L 151.689461 216.858057 
L 156.342723 215.896243 
L 158.132439 215.539414 
L 161.294272 214.963267 
L 162.248787 214.808418 
L 167.975879 214.134939 
L 169.049709 214.063615 
L 169.705938 214.02886 
L 169.944567 214.017867 
L 174.239887 213.959695 
L 175.194402 213.978398 
L 176.029603 214.002306 
L 178.177262 214.089492 
L 178.65452 214.112666 
L 180.265265 214.196777 
L 180.80218 214.225888 
L 186.469615 214.478583 
L 186.529272 214.480048 
L 187.603102 214.499734 
L 188.796246 214.522414 
L 191.361506 214.626774 
L 194.463681 214.856487 
L 196.790312 215.106379 
L 203.113977 216.132521 
L 203.292949 216.16866 
L 204.12815 216.341936 
L 206.753067 216.930588 
L 207.289982 217.057835 
L 208.900726 217.449246 
L 209.199012 217.522895 
L 209.855242 217.685669 
L 211.644958 218.130349 
L 212.957417 218.450997 
L 213.613646 218.607493 
L 216.775478 219.296682 
L 219.460053 219.747058 
L 221.01114 219.926341 
L 223.695715 220.057774 
L 231.033552 219.9093 
L 232.286353 219.86113 
L 235.269214 219.733376 
L 235.865786 219.706446 
L 235.925443 219.703738 
L 236.820301 219.662863 
L 238.13276 219.602395 
L 238.311732 219.59413 
L 238.908304 219.56658 
L 243.621224 219.350499 
L 246.962027 219.193813 
L 247.498942 219.167323 
L 250.12386 219.027243 
L 250.601117 218.999232 
L 258.177583 218.354888 
L 259.012784 218.251014 
L 260.3849 218.061607 
L 261.995645 217.806998 
L 263.666047 217.518679 
L 263.845018 217.487176 
L 264.560905 217.359999 
L 267.126165 216.889204 
L 267.961366 216.730924 
L 270.407312 216.25351 
L 273.986744 215.5176 
L 277.208234 214.81626 
L 277.50652 214.749361 
L 278.282064 214.573807 
L 280.787666 213.990019 
L 286.932359 212.437317 
L 287.170988 212.373126 
L 288.483447 212.014344 
L 289.080019 211.847972 
L 292.361165 210.894019 
L 293.196366 210.64019 
L 296.059913 209.734138 
L 297.014428 209.419498 
L 300.534203 208.229882 
L 303.934664 207.053654 
L 304.411922 206.886995 
L 307.394783 205.839343 
L 311.451473 204.405712 
L 313.002561 203.857403 
L 314.911591 203.183931 
L 316.641651 202.57575 
L 320.93697 201.07905 
L 321.831828 200.770175 
L 325.053317 199.668017 
L 326.127147 199.304241 
L 337.521675 195.561399 
L 337.640989 195.523313 
L 342.11528 194.110066 
L 347.663401 192.394322 
L 371.108685 185.432534 
L 382.383898 182.160234 
L 382.383898 103.352997 
L 382.383898 103.352997 
L 371.108685 120.182502 
L 347.663401 149.980866 
L 342.11528 155.945172 
L 337.640989 160.436092 
L 337.521675 160.551893 
L 326.127147 170.646245 
L 325.053317 171.498227 
L 321.831828 173.95134 
L 320.93697 174.60548 
L 316.641651 177.581935 
L 314.911591 178.705364 
L 313.002561 179.895734 
L 311.451473 180.825466 
L 307.394783 183.102866 
L 304.411922 184.640555 
L 303.934664 184.876231 
L 300.534203 186.475943 
L 297.014428 187.991471 
L 296.059913 188.378424 
L 293.196366 189.475168 
L 292.361165 189.777596 
L 289.080019 190.893052 
L 288.483447 191.083789 
L 287.170988 191.490743 
L 286.932359 191.562887 
L 280.787666 193.234082 
L 278.282064 193.818828 
L 277.50652 193.989355 
L 277.208234 194.053674 
L 273.986744 194.705684 
L 270.407312 195.347628 
L 267.961366 195.744307 
L 267.126165 195.873168 
L 264.560905 196.251512 
L 263.845018 196.353095 
L 263.666047 196.378259 
L 261.995645 196.609227 
L 260.3849 196.823145 
L 259.012784 196.995865 
L 258.177583 197.096412 
L 250.601117 197.811514 
L 250.12386 197.842481 
L 247.498942 197.978438 
L 246.962027 197.99891 
L 243.621224 198.069807 
L 238.908304 198.015923 
L 238.311732 197.99821 
L 238.13276 197.992499 
L 236.820301 197.945534 
L 235.925443 197.909037 
L 235.865786 197.906493 
L 235.269214 197.880393 
L 232.286353 197.738126 
L 231.033552 197.676984 
L 223.695715 197.439056 
L 221.01114 197.365043 
L 219.460053 197.271314 
L 216.775478 197.020905 
L 213.613646 196.58109 
L 212.957417 196.470145 
L 211.644958 196.228297 
L 209.855242 195.856889 
L 209.199012 195.709225 
L 208.900726 195.640165 
L 207.289982 195.247531 
L 206.753067 195.109792 
L 204.12815 194.396304 
L 203.292949 194.158643 
L 203.113977 194.107263 
L 196.790312 192.311794 
L 194.463681 191.743705 
L 191.361506 191.164622 
L 188.796246 190.900804 
L 187.603102 190.860141 
L 186.529272 190.859716 
L 186.469615 190.860284 
L 180.80218 191.145358 
L 180.265265 191.190702 
L 178.65452 191.338611 
L 178.177262 191.385175 
L 176.029603 191.604266 
L 175.194402 191.6917 
L 174.239887 191.791746 
L 169.944567 192.22224 
L 169.705938 192.244592 
L 169.049709 192.30506 
L 167.975879 192.400897 
L 162.248787 192.872069 
L 161.294272 192.952052 
L 158.132439 193.250452 
L 156.342723 193.457231 
L 151.689461 194.208011 
L 151.27186 194.293914 
L 150.019059 194.565774 
L 149.661115 194.647194 
L 147.931056 195.062568 
L 147.21517 195.244374 
L 146.797569 195.35293 
L 143.039165 196.403123 
L 141.488077 196.869471 
L 139.519389 197.484169 
L 136.894472 198.33841 
L 136.118928 198.59775 
L 127.468633 201.707987 
L 126.096517 202.243844 
L 124.545429 202.866661 
L 122.636398 203.659896 
L 122.338112 203.786614 
L 121.383597 204.197278 
L 121.085311 204.327233 
L 119.772852 204.907121 
L 119.295595 205.121089 
L 116.133762 206.577928 
L 114.940618 207.144272 
L 111.540157 208.802167 
L 110.943585 209.099041 
L 104.858549 212.204809 
L 102.591575 213.386488 
L 102.233632 213.573688 
L 96.804826 216.412812 
L 95.909968 216.877512 
L 93.583336 218.075521 
L 93.344708 218.197364 
L 92.748135 218.500983 
L 92.569164 218.591781 
L 91.674306 219.043627 
L 91.316362 219.223306 
L 89.22836 220.257762 
L 88.452816 220.635385 
L 86.185842 221.717044 
L 85.768242 221.912532 
L 79.981492 224.488012 
L 70.138052 228.267366 
L 69.004565 228.65624 
L 66.141019 229.600607 
L 65.663761 229.752951 
L 64.530274 230.109279 
L 64.41096 230.146347 
L 64.112674 230.238658 
L 63.993359 230.275439 
L 63.575759 230.403538 
L 63.396787 230.458138 
L 62.322958 230.782034 
L 61.965014 230.88862 
L 60.831527 231.221746 
L 60.592898 231.291047 
L 57.729352 232.101429 
z
" style="fill:#999999;fill-opacity:0.4;"/>
   </g>
   <g id="PolyCollection_4">
    <path clip-path="url(#p506fa31019)" d="M 57.729352 122.85482 
L 57.729352 159.100788 
L 60.592898 156.621394 
L 60.831527 156.419749 
L 61.965014 155.472551 
L 62.322958 155.177106 
L 63.396787 154.301451 
L 63.575759 154.157076 
L 63.993359 153.821954 
L 64.112674 153.726657 
L 64.41096 153.489297 
L 64.530274 153.394706 
L 65.663761 152.506234 
L 66.141019 152.137666 
L 69.004565 149.996208 
L 70.138052 149.182218 
L 79.981492 142.947668 
L 85.768242 139.987707 
L 86.185842 139.793587 
L 88.452816 138.783222 
L 89.22836 138.453736 
L 91.316362 137.604282 
L 91.674306 137.463988 
L 92.569164 137.119825 
L 92.748135 137.052101 
L 93.344708 136.828972 
L 93.583336 136.740834 
L 95.909968 135.913611 
L 96.804826 135.610306 
L 102.233632 133.928437 
L 102.591575 133.826261 
L 104.858549 133.201532 
L 110.943585 131.694667 
L 111.540157 131.558757 
L 114.940618 130.8195 
L 116.133762 130.573553 
L 119.295595 129.952824 
L 119.772852 129.862859 
L 121.085311 129.62028 
L 121.383597 129.565837 
L 122.338112 129.390315 
L 122.636398 129.335089 
L 124.545429 128.978345 
L 126.096517 128.68598 
L 127.468633 128.427287 
L 136.118928 126.889845 
L 136.894472 126.76594 
L 139.519389 126.368183 
L 141.488077 126.091715 
L 143.039165 125.88631 
L 146.797569 125.426615 
L 147.21517 125.378182 
L 147.931056 125.296071 
L 149.661115 125.101399 
L 150.019059 125.061607 
L 151.27186 124.923072 
L 151.689461 124.877032 
L 156.342723 124.351155 
L 158.132439 124.15633 
L 161.294272 123.85356 
L 162.248787 123.777238 
L 167.975879 123.524511 
L 169.049709 123.521028 
L 169.705938 123.525843 
L 169.944567 123.528877 
L 174.239887 123.689083 
L 175.194402 123.747334 
L 176.029603 123.803129 
L 178.177262 123.960668 
L 178.65452 123.997202 
L 180.265265 124.120335 
L 180.80218 124.160382 
L 186.469615 124.466256 
L 186.529272 124.467682 
L 187.603102 124.484547 
L 188.796246 124.488725 
L 191.361506 124.471113 
L 194.463681 124.425814 
L 196.790312 124.396475 
L 203.113977 124.46695 
L 203.292949 124.473794 
L 204.12815 124.509918 
L 206.753067 124.66935 
L 207.289982 124.710504 
L 208.900726 124.850471 
L 209.199012 124.878971 
L 209.855242 124.944306 
L 211.644958 125.139004 
L 212.957417 125.294257 
L 213.613646 125.37479 
L 216.775478 125.774422 
L 219.460053 126.100771 
L 221.01114 126.270104 
L 223.695715 126.508412 
L 231.033552 127.09692 
L 232.286353 127.211468 
L 235.269214 127.505902 
L 235.865786 127.568692 
L 235.925443 127.575045 
L 236.820301 127.671942 
L 238.13276 127.819488 
L 238.311732 127.840102 
L 238.908304 127.90965 
L 243.621224 128.498624 
L 246.962027 128.941654 
L 247.498942 129.012931 
L 250.12386 129.353886 
L 250.601117 129.413645 
L 258.177583 130.147777 
L 259.012784 130.191552 
L 260.3849 130.241616 
L 261.995645 130.262426 
L 263.666047 130.261741 
L 263.845018 130.261692 
L 264.560905 130.261492 
L 267.126165 130.259872 
L 267.961366 130.258675 
L 270.407312 130.251695 
L 273.986744 130.226512 
L 277.208234 130.179763 
L 277.50652 130.17391 
L 278.282064 130.157286 
L 280.787666 130.087976 
L 286.932359 129.785152 
L 287.170988 129.76867 
L 288.483447 129.670609 
L 289.080019 129.621721 
L 292.361165 129.300073 
L 293.196366 129.202862 
L 296.059913 128.817721 
L 297.014428 128.670561 
L 300.534203 128.084106 
L 303.934664 127.474779 
L 304.411922 127.38643 
L 307.394783 126.82117 
L 311.451473 126.023966 
L 313.002561 125.712989 
L 314.911591 125.327049 
L 316.641651 124.975093 
L 320.93697 124.096747 
L 321.831828 123.913525 
L 325.053317 123.254782 
L 326.127147 123.035733 
L 337.521675 120.737603 
L 337.640989 120.713799 
L 342.11528 119.824197 
L 347.663401 118.726802 
L 371.108685 114.052782 
L 382.383898 111.728991 
L 382.383898 38.201371 
L 382.383898 38.201371 
L 371.108685 53.174114 
L 347.663401 79.154795 
L 342.11528 84.216124 
L 337.640989 87.977213 
L 337.521675 88.073525 
L 326.127147 96.297653 
L 325.053317 96.9722 
L 321.831828 98.891392 
L 320.93697 99.396748 
L 316.641651 101.655716 
L 314.911591 102.488401 
L 313.002561 103.356609 
L 311.451473 104.023456 
L 307.394783 105.607902 
L 304.411922 106.630369 
L 303.934664 106.783112 
L 300.534203 107.787552 
L 297.014428 108.678083 
L 296.059913 108.892713 
L 293.196366 109.455771 
L 292.361165 109.598326 
L 289.080019 110.070656 
L 288.483447 110.142277 
L 287.170988 110.285282 
L 286.932359 110.309185 
L 280.787666 110.722564 
L 278.282064 110.792768 
L 277.50652 110.804701 
L 277.208234 110.808147 
L 273.986744 110.808871 
L 270.407312 110.746383 
L 267.961366 110.678036 
L 267.126165 110.651786 
L 264.560905 110.567148 
L 263.845018 110.543468 
L 263.666047 110.537603 
L 261.995645 110.484779 
L 260.3849 110.426005 
L 259.012784 110.360371 
L 258.177583 110.313492 
L 250.601117 109.645378 
L 250.12386 109.588377 
L 247.498942 109.243575 
L 246.962027 109.166683 
L 243.621224 108.643611 
L 238.908304 107.802759 
L 238.311732 107.69098 
L 238.13276 107.657326 
L 236.820301 107.409545 
L 235.925443 107.240459 
L 235.865786 107.229206 
L 235.269214 107.116939 
L 232.286353 106.570573 
L 231.033552 106.354037 
L 223.695715 105.405013 
L 221.01114 105.220279 
L 219.460053 105.130768 
L 216.775478 104.990989 
L 213.613646 104.824025 
L 212.957417 104.785991 
L 211.644958 104.704259 
L 209.855242 104.577924 
L 209.199012 104.526687 
L 208.900726 104.502468 
L 207.289982 104.36136 
L 206.753067 104.310417 
L 204.12815 104.034513 
L 203.292949 103.938317 
L 203.113977 103.917253 
L 196.790312 103.128991 
L 194.463681 102.861451 
L 191.361506 102.580786 
L 188.796246 102.449623 
L 187.603102 102.428666 
L 186.529272 102.429772 
L 186.469615 102.430243 
L 180.80218 102.62611 
L 180.265265 102.65553 
L 178.65452 102.748873 
L 178.177262 102.777405 
L 176.029603 102.905625 
L 175.194402 102.953711 
L 174.239887 103.006255 
L 169.944567 103.193428 
L 169.705938 103.200991 
L 169.049709 103.220167 
L 167.975879 103.24652 
L 162.248787 103.310494 
L 161.294272 103.316966 
L 158.132439 103.360596 
L 156.342723 103.415423 
L 151.689461 103.744404 
L 151.27186 103.790416 
L 150.019059 103.939103 
L 149.661115 103.984383 
L 147.931056 104.219325 
L 147.21517 104.323752 
L 146.797569 104.386454 
L 143.039165 105.001346 
L 141.488077 105.276812 
L 139.519389 105.6404 
L 136.894472 106.145207 
L 136.118928 106.29823 
L 127.468633 108.132947 
L 126.096517 108.451809 
L 124.545429 108.824585 
L 122.636398 109.303223 
L 122.338112 109.38011 
L 121.383597 109.630094 
L 121.085311 109.709461 
L 119.772852 110.063757 
L 119.295595 110.194413 
L 116.133762 111.082635 
L 114.940618 111.427116 
L 111.540157 112.431988 
L 110.943585 112.611261 
L 104.858549 114.470088 
L 102.591575 115.167027 
L 102.233632 115.276781 
L 96.804826 116.913998 
L 95.909968 117.176128 
L 93.583336 117.842379 
L 93.344708 117.909295 
L 92.748135 118.075301 
L 92.569164 118.124734 
L 91.674306 118.369222 
L 91.316362 118.465714 
L 89.22836 119.012379 
L 88.452816 119.207809 
L 86.185842 119.75302 
L 85.768242 119.84901 
L 79.981492 121.024387 
L 70.138052 122.329014 
L 69.004565 122.424925 
L 66.141019 122.621278 
L 65.663761 122.647826 
L 64.530274 122.704065 
L 64.41096 122.709436 
L 64.112674 122.722411 
L 63.993359 122.727421 
L 63.575759 122.744155 
L 63.396787 122.750946 
L 62.322958 122.786985 
L 61.965014 122.797229 
L 60.831527 122.823977 
L 60.592898 122.828523 
L 57.729352 122.85482 
z
" style="fill:#999999;fill-opacity:0.4;"/>
   </g>
   <g id="PolyCollection_5">
    <path clip-path="url(#p506fa31019)" d="M 57.729352 111.151321 
L 57.729352 154.097675 
L 60.592898 152.205066 
L 60.831527 152.051546 
L 61.965014 151.331317 
L 62.322958 151.106987 
L 63.396787 150.443063 
L 63.575759 150.333741 
L 63.993359 150.080147 
L 64.112674 150.008076 
L 64.41096 149.828651 
L 64.530274 149.757181 
L 65.663761 149.086867 
L 66.141019 148.809345 
L 69.004565 147.204048 
L 70.138052 146.597484 
L 79.981492 142.046973 
L 85.768242 139.971445 
L 86.185842 139.837757 
L 88.452816 139.146752 
L 89.22836 138.922682 
L 91.316362 138.344822 
L 91.674306 138.249325 
L 92.569164 138.014941 
L 92.748135 137.968795 
L 93.344708 137.816693 
L 93.583336 137.756581 
L 95.909968 137.191233 
L 96.804826 136.98326 
L 102.233632 135.818685 
L 102.591575 135.747088 
L 104.858549 135.306462 
L 110.943585 134.218035 
L 111.540157 134.117722 
L 114.940618 133.565012 
L 116.133762 133.3784 
L 119.295595 132.901403 
L 119.772852 132.831583 
L 121.085311 132.642522 
L 121.383597 132.599407 
L 122.338112 132.453063 
L 122.636398 132.404802 
L 124.545429 132.069655 
L 126.096517 131.767598 
L 127.468633 131.481957 
L 136.118928 129.480173 
L 136.894472 129.297634 
L 139.519389 128.690652 
L 141.488077 128.250464 
L 143.039165 127.914668 
L 146.797569 127.144888 
L 147.21517 127.063235 
L 147.931056 126.925032 
L 149.661115 126.600097 
L 150.019059 126.534434 
L 151.27186 126.308732 
L 151.689461 126.234905 
L 156.342723 125.280088 
L 158.132439 124.865419 
L 161.294272 124.121784 
L 162.248787 123.902572 
L 167.975879 122.748518 
L 169.049709 122.574629 
L 169.705938 122.476025 
L 169.944567 122.441627 
L 174.239887 121.952921 
L 175.194402 121.875495 
L 176.029603 121.815743 
L 178.177262 121.691233 
L 178.65452 121.66828 
L 180.265265 121.599955 
L 180.80218 121.579528 
L 186.469615 121.362785 
L 186.529272 121.359944 
L 187.603102 121.304834 
L 188.796246 121.236257 
L 191.361506 121.076097 
L 194.463681 120.88447 
L 196.790312 120.76499 
L 203.113977 120.67929 
L 203.292949 120.683588 
L 204.12815 120.70912 
L 206.753067 120.848255 
L 207.289982 120.887466 
L 208.900726 121.025423 
L 209.199012 121.05411 
L 209.855242 121.120385 
L 211.644958 121.320606 
L 212.957417 121.48165 
L 213.613646 121.565284 
L 216.775478 121.976969 
L 219.460053 122.301415 
L 221.01114 122.460495 
L 223.695715 122.658779 
L 231.033552 123.037174 
L 232.286353 123.109691 
L 235.269214 123.30461 
L 235.865786 123.348117 
L 235.925443 123.352559 
L 236.820301 123.421271 
L 238.13276 123.529353 
L 238.311732 123.544786 
L 238.908304 123.597458 
L 243.621224 124.079577 
L 246.962027 124.483059 
L 247.498942 124.551265 
L 250.12386 124.891378 
L 250.601117 124.953599 
L 258.177583 125.842344 
L 259.012784 125.91708 
L 260.3849 126.024315 
L 261.995645 126.122487 
L 263.666047 126.209778 
L 263.845018 126.219384 
L 264.560905 126.258274 
L 267.126165 126.403162 
L 267.961366 126.451965 
L 270.407312 126.598419 
L 273.986744 126.818042 
L 277.208234 127.013986 
L 277.50652 127.031733 
L 278.282064 127.07739 
L 280.787666 127.21855 
L 286.932359 127.494259 
L 287.170988 127.502091 
L 288.483447 127.540287 
L 289.080019 127.554758 
L 292.361165 127.597779 
L 293.196366 127.59784 
L 296.059913 127.560307 
L 297.014428 127.53398 
L 300.534203 127.415138 
L 303.934664 127.29162 
L 304.411922 127.274222 
L 307.394783 127.168284 
L 311.451473 127.040982 
L 313.002561 127.00033 
L 314.911591 126.95811 
L 316.641651 126.928283 
L 320.93697 126.8941 
L 321.831828 126.894798 
L 325.053317 126.921362 
L 326.127147 126.938844 
L 337.521675 127.400192 
L 337.640989 127.407686 
L 342.11528 127.727341 
L 347.663401 128.224809 
L 371.108685 131.421147 
L 382.383898 133.512614 
L 382.383898 46.392764 
L 382.383898 46.392764 
L 371.108685 59.288519 
L 347.663401 81.337567 
L 342.11528 85.536801 
L 337.640989 88.619454 
L 337.521675 88.697871 
L 326.127147 95.257994 
L 325.053317 95.780214 
L 321.831828 97.247104 
L 320.93697 97.628089 
L 316.641651 99.298113 
L 314.911591 99.897536 
L 313.002561 100.511176 
L 311.451473 100.973483 
L 307.394783 102.033556 
L 304.411922 102.68122 
L 303.934664 102.774916 
L 300.534203 103.366586 
L 297.014428 103.845716 
L 296.059913 103.951985 
L 293.196366 104.200325 
L 292.361165 104.25399 
L 289.080019 104.389507 
L 288.483447 104.40197 
L 287.170988 104.417027 
L 286.932359 104.417988 
L 280.787666 104.273271 
L 278.282064 104.13317 
L 277.50652 104.081955 
L 277.208234 104.061355 
L 273.986744 103.810879 
L 270.407312 103.487378 
L 267.961366 103.251673 
L 267.126165 103.170347 
L 264.560905 102.923257 
L 263.845018 102.856073 
L 263.666047 102.839459 
L 261.995645 102.688769 
L 260.3849 102.545613 
L 259.012784 102.419931 
L 258.177583 102.341517 
L 250.601117 101.530993 
L 250.12386 101.47204 
L 247.498942 101.127369 
L 246.962027 101.05251 
L 243.621224 100.55419 
L 238.908304 99.773631 
L 238.311732 99.670922 
L 238.13276 99.640038 
L 236.820301 99.413191 
L 235.925443 99.258946 
L 235.865786 99.248697 
L 235.269214 99.146568 
L 232.286353 98.653146 
L 231.033552 98.459786 
L 223.695715 97.65423 
L 221.01114 97.519424 
L 219.460053 97.454922 
L 216.775478 97.351536 
L 213.613646 97.215529 
L 212.957417 97.18225 
L 211.644958 97.108317 
L 209.855242 96.989098 
L 209.199012 96.939527 
L 208.900726 96.915913 
L 207.289982 96.776604 
L 206.753067 96.725794 
L 204.12815 96.448655 
L 203.292949 96.351946 
L 203.113977 96.3308 
L 196.790312 95.566024 
L 194.463681 95.333745 
L 191.361506 95.139149 
L 188.796246 95.123032 
L 187.603102 95.171728 
L 186.529272 95.248131 
L 186.469615 95.253221 
L 180.80218 96.064456 
L 180.265265 96.167192 
L 178.65452 96.49201 
L 178.177262 96.592057 
L 176.029603 97.05515 
L 175.194402 97.237989 
L 174.239887 97.44669 
L 169.944567 98.346991 
L 169.705938 98.393944 
L 169.049709 98.520975 
L 167.975879 98.721961 
L 162.248787 99.652371 
L 161.294272 99.78882 
L 158.132439 100.22541 
L 156.342723 100.474201 
L 151.689461 101.195724 
L 151.27186 101.269518 
L 150.019059 101.507249 
L 149.661115 101.579414 
L 147.931056 101.952064 
L 147.21517 102.116708 
L 146.797569 102.215267 
L 143.039165 103.168935 
L 141.488077 103.587743 
L 139.519389 104.131156 
L 136.894472 104.864978 
L 136.118928 105.082017 
L 127.468633 107.436029 
L 126.096517 107.792963 
L 124.545429 108.190295 
L 122.636398 108.669869 
L 122.338112 108.743795 
L 121.383597 108.978366 
L 121.085311 109.051013 
L 119.772852 109.372442 
L 119.295595 109.490476 
L 116.133762 110.284413 
L 114.940618 110.587774 
L 111.540157 111.455202 
L 110.943585 111.606893 
L 104.858549 113.112345 
L 102.591575 113.63853 
L 102.233632 113.719106 
L 96.804826 114.830774 
L 95.909968 114.989962 
L 93.583336 115.36458 
L 93.344708 115.399547 
L 92.748135 115.483966 
L 92.569164 115.50844 
L 91.674306 115.624723 
L 91.316362 115.66832 
L 89.22836 115.887419 
L 88.452816 115.952651 
L 86.185842 116.092515 
L 85.768242 116.109933 
L 79.981492 116.070979 
L 70.138052 114.78023 
L 69.004565 114.535971 
L 66.141019 113.836593 
L 65.663761 113.708869 
L 64.530274 113.393105 
L 64.41096 113.358861 
L 64.112674 113.272422 
L 63.993359 113.237515 
L 63.575759 113.113864 
L 63.396787 113.060169 
L 62.322958 112.729267 
L 61.965014 112.615675 
L 60.831527 112.245299 
L 60.592898 112.165284 
L 57.729352 111.151321 
z
" style="fill:#999999;fill-opacity:0.4;"/>
   </g>
   <g id="PolyCollection_6">
    <path clip-path="url(#p506fa31019)" d="M 57.729352 155.372793 
L 57.729352 190.784453 
L 60.592898 188.676872 
L 60.831527 188.505685 
L 61.965014 187.702055 
L 62.322958 187.451566 
L 63.396787 186.709671 
L 63.575759 186.587427 
L 63.993359 186.303766 
L 64.112674 186.223126 
L 64.41096 186.022317 
L 64.530274 185.942311 
L 65.663761 185.191362 
L 66.141019 184.880138 
L 69.004565 183.075738 
L 70.138052 182.391826 
L 79.981492 177.205891 
L 85.768242 174.793783 
L 86.185842 174.637234 
L 88.452816 173.826234 
L 89.22836 173.563164 
L 91.316362 172.887953 
L 91.674306 172.776869 
L 92.569164 172.504902 
L 92.748135 172.451476 
L 93.344708 172.275669 
L 93.583336 172.206315 
L 95.909968 171.557971 
L 96.804826 171.321443 
L 102.233632 170.021659 
L 102.591575 169.943335 
L 104.858549 169.465977 
L 110.943585 168.324612 
L 111.540157 168.222288 
L 114.940618 167.66721 
L 116.133762 167.48304 
L 119.295595 167.019155 
L 119.772852 166.952022 
L 121.085311 166.771117 
L 121.383597 166.730389 
L 122.338112 166.597169 
L 122.636398 166.554678 
L 124.545429 166.274193 
L 126.096517 166.037439 
L 127.468633 165.823509 
L 136.118928 164.488589 
L 136.894472 164.377424 
L 139.519389 164.018035 
L 141.488077 163.766412 
L 143.039165 163.578839 
L 146.797569 163.158806 
L 147.21517 163.114667 
L 147.931056 163.039946 
L 149.661115 162.863522 
L 150.019059 162.827616 
L 151.27186 162.703119 
L 151.689461 162.661937 
L 156.342723 162.195078 
L 158.132439 162.024203 
L 161.294272 161.763268 
L 162.248787 161.699124 
L 167.975879 161.510089 
L 169.049709 161.516103 
L 169.705938 161.526257 
L 169.944567 161.531141 
L 174.239887 161.715649 
L 175.194402 161.77682 
L 176.029603 161.834389 
L 178.177262 161.99304 
L 178.65452 162.029134 
L 180.265265 162.148895 
L 180.80218 162.187164 
L 186.469615 162.453658 
L 186.529272 162.454464 
L 187.603102 162.459406 
L 188.796246 162.446252 
L 191.361506 162.370331 
L 194.463681 162.22002 
L 196.790312 162.090351 
L 203.113977 161.81538 
L 203.292949 161.811239 
L 204.12815 161.795437 
L 206.753067 161.785734 
L 207.289982 161.791432 
L 208.900726 161.823909 
L 209.199012 161.832372 
L 209.855242 161.853548 
L 211.644958 161.927741 
L 212.957417 161.995187 
L 213.613646 162.032198 
L 216.775478 162.22834 
L 219.460053 162.394384 
L 221.01114 162.478423 
L 223.695715 162.58518 
L 231.033552 162.78606 
L 232.286353 162.825853 
L 235.269214 162.937472 
L 235.865786 162.963256 
L 235.925443 162.965905 
L 236.820301 163.007233 
L 238.13276 163.073465 
L 238.311732 163.083031 
L 238.908304 163.115862 
L 243.621224 163.425684 
L 246.962027 163.691504 
L 247.498942 163.736599 
L 250.12386 163.960874 
L 250.601117 164.001656 
L 258.177583 164.553438 
L 259.012784 164.593377 
L 260.3849 164.645373 
L 261.995645 164.682258 
L 263.666047 164.707418 
L 263.845018 164.710275 
L 264.560905 164.721983 
L 267.126165 164.766992 
L 267.961366 164.782418 
L 270.407312 164.828621 
L 273.986744 164.894721 
L 277.208234 164.945688 
L 277.50652 164.949698 
L 278.282064 164.959403 
L 280.787666 164.982166 
L 286.932359 164.955401 
L 287.170988 164.951213 
L 288.483447 164.923033 
L 289.080019 164.907197 
L 292.361165 164.782383 
L 293.196366 164.7395 
L 296.059913 164.554367 
L 297.014428 164.478767 
L 300.534203 164.174426 
L 303.934664 163.86328 
L 304.411922 163.818778 
L 307.394783 163.538607 
L 311.451473 163.159411 
L 313.002561 163.017394 
L 314.911591 162.846284 
L 316.641651 162.695543 
L 320.93697 162.343382 
L 321.831828 162.274531 
L 325.053317 162.041001 
L 326.127147 161.968362 
L 337.521675 161.366452 
L 337.640989 161.361781 
L 342.11528 161.210062 
L 347.663401 161.082621 
L 371.108685 161.171837 
L 382.383898 161.515623 
L 382.383898 89.680457 
L 382.383898 89.680457 
L 371.108685 101.69447 
L 347.663401 122.42148 
L 342.11528 126.421613 
L 337.640989 129.378724 
L 337.521675 129.454234 
L 326.127147 135.845737 
L 325.053317 136.363391 
L 321.831828 137.828357 
L 320.93697 138.211926 
L 316.641651 139.912929 
L 314.911591 140.533335 
L 313.002561 141.175612 
L 311.451473 141.665307 
L 307.394783 142.813625 
L 304.411922 143.540479 
L 303.934664 143.647892 
L 300.534203 144.345057 
L 297.014428 144.946475 
L 296.059913 145.087992 
L 293.196366 145.446946 
L 292.361165 145.534129 
L 289.080019 145.806157 
L 288.483447 145.844203 
L 287.170988 145.916293 
L 286.932359 145.92773 
L 280.787666 146.062506 
L 278.282064 146.040615 
L 277.50652 146.026329 
L 277.208234 146.019966 
L 273.986744 145.924034 
L 270.407312 145.772281 
L 267.961366 145.652485 
L 267.126165 145.610244 
L 264.560905 145.480962 
L 263.845018 145.445924 
L 263.666047 145.437289 
L 261.995645 145.359853 
L 260.3849 145.285876 
L 259.012784 145.21867 
L 258.177583 145.175697 
L 250.601117 144.688414 
L 250.12386 144.650326 
L 247.498942 144.422293 
L 246.962027 144.371712 
L 243.621224 144.027693 
L 238.908304 143.47179 
L 238.311732 143.397701 
L 238.13276 143.375395 
L 236.820301 143.211235 
L 235.925443 143.09938 
L 235.865786 143.091944 
L 235.269214 143.017822 
L 232.286353 142.66007 
L 231.033552 142.520636 
L 223.695715 141.967537 
L 221.01114 141.913122 
L 219.460053 141.907068 
L 216.775478 141.923299 
L 213.613646 141.95447 
L 212.957417 141.958979 
L 211.644958 141.963361 
L 209.855242 141.955958 
L 209.199012 141.948555 
L 208.900726 141.944275 
L 207.289982 141.910683 
L 206.753067 141.895421 
L 204.12815 141.791334 
L 203.292949 141.748446 
L 203.113977 141.738694 
L 196.790312 141.312401 
L 194.463681 141.152025 
L 191.361506 140.983874 
L 188.796246 140.914444 
L 187.603102 140.911206 
L 186.529272 140.923821 
L 186.469615 140.924868 
L 180.80218 141.148566 
L 180.265265 141.178166 
L 178.65452 141.269898 
L 178.177262 141.297372 
L 176.029603 141.417902 
L 175.194402 141.461824 
L 174.239887 141.508896 
L 169.944567 141.663772 
L 169.705938 141.669241 
L 169.049709 141.682526 
L 167.975879 141.698856 
L 162.248787 141.703483 
L 161.294272 141.699384 
L 158.132439 141.707144 
L 156.342723 141.741244 
L 151.689461 142.015739 
L 151.27186 142.056893 
L 150.019059 142.191308 
L 149.661115 142.232576 
L 147.931056 142.448344 
L 147.21517 142.544867 
L 146.797569 142.602946 
L 143.039165 143.174604 
L 141.488077 143.430625 
L 139.519389 143.767363 
L 136.894472 144.231338 
L 136.118928 144.37095 
L 127.468633 145.996303 
L 126.096517 146.269018 
L 124.545429 146.584331 
L 122.636398 146.983904 
L 122.338112 147.047557 
L 121.383597 147.253525 
L 121.085311 147.318604 
L 119.772852 147.608654 
L 119.295595 147.715543 
L 116.133762 148.440762 
L 114.940618 148.721198 
L 111.540157 149.535778 
L 110.943585 149.680467 
L 104.858549 151.165692 
L 102.591575 151.713598 
L 102.233632 151.799325 
L 96.804826 153.055485 
L 95.909968 153.251787 
L 93.583336 153.742864 
L 93.344708 153.791484 
L 92.748135 153.911483 
L 92.569164 153.94704 
L 91.674306 154.121625 
L 91.316362 154.189915 
L 89.22836 154.569308 
L 88.452816 154.701407 
L 86.185842 155.057959 
L 85.768242 155.118638 
L 79.981492 155.787238 
L 70.138052 156.156728 
L 69.004565 156.13909 
L 66.141019 156.043157 
L 65.663761 156.020233 
L 64.530274 155.958106 
L 64.41096 155.950946 
L 64.112674 155.932534 
L 63.993359 155.924965 
L 63.575759 155.897567 
L 63.396787 155.885393 
L 62.322958 155.806998 
L 61.965014 155.778853 
L 60.831527 155.683219 
L 60.592898 155.661843 
L 57.729352 155.372793 
z
" style="fill:#999999;fill-opacity:0.4;"/>
   </g>
   <g id="line2d_22">
    <path clip-path="url(#p506fa31019)" d="M 57.729352 255.487709 
L 64.530274 246.434701 
L 70.138052 239.383569 
L 79.981492 227.903165 
L 88.452816 218.929455 
L 93.583336 213.897334 
L 96.804826 210.893281 
L 104.858549 203.920415 
L 111.540157 198.732201 
L 116.133762 195.487221 
L 122.338112 191.528274 
L 126.096517 189.346182 
L 127.468633 188.588114 
L 136.894472 183.965778 
L 141.488077 182.101919 
L 143.039165 181.532872 
L 147.931056 179.944109 
L 151.689461 178.942068 
L 156.342723 178.181362 
L 158.132439 178.061163 
L 162.248787 178.082241 
L 169.944567 178.916771 
L 180.80218 180.683885 
L 187.603102 181.36068 
L 191.361506 181.690597 
L 196.790312 182.636903 
L 207.289982 185.274578 
L 213.613646 186.824804 
L 216.775478 187.449335 
L 221.01114 188.028401 
L 223.695715 188.199023 
L 236.820301 188.498192 
L 243.621224 188.415216 
L 250.601117 188.012677 
L 259.012784 186.935574 
L 263.845018 185.965042 
L 270.407312 184.414233 
L 277.50652 182.416027 
L 280.787666 181.35192 
L 289.080019 178.179569 
L 293.196366 176.308808 
L 297.014428 174.374199 
L 303.934664 170.425785 
L 307.394783 168.259372 
L 313.002561 164.478715 
L 316.641651 161.848265 
L 321.831828 157.857609 
L 326.127147 154.344154 
L 337.640989 143.996175 
L 342.11528 139.614013 
L 347.663401 133.903336 
L 371.108685 106.458742 
L 382.383898 91.402013 
L 382.383898 91.402013 
" style="fill:none;stroke:#db5f57;stroke-dasharray:6.558079,2.835926;stroke-dashoffset:0;stroke-linejoin:miter;stroke-width:1.772454;"/>
   </g>
   <g id="line2d_23">
    <path clip-path="url(#p506fa31019)" d="M 57.729352 221.585668 
L 65.663761 214.431272 
L 70.138052 210.586212 
L 79.981492 202.588846 
L 89.22836 195.629085 
L 96.804826 190.284477 
L 104.858549 184.984263 
L 111.540157 180.937581 
L 116.133762 178.363813 
L 122.636398 175.031128 
L 127.468633 172.674208 
L 136.894472 168.372141 
L 143.039165 165.921478 
L 149.661115 163.73112 
L 151.689461 163.17282 
L 158.132439 161.803054 
L 162.248787 161.218564 
L 169.944567 160.605384 
L 178.65452 160.438545 
L 188.796246 160.577488 
L 191.361506 160.781127 
L 194.463681 161.222888 
L 196.790312 161.669233 
L 206.753067 164.220919 
L 213.613646 166.025174 
L 216.775478 166.710148 
L 221.01114 167.370344 
L 223.695715 167.588989 
L 246.962027 168.80702 
L 250.601117 168.85028 
L 260.3849 168.465458 
L 267.961366 167.660038 
L 273.986744 166.861897 
L 280.787666 165.703777 
L 289.080019 163.774392 
L 293.196366 162.550519 
L 297.014428 161.229938 
L 303.934664 158.441689 
L 307.394783 156.882917 
L 314.911591 153.123481 
L 320.93697 149.745757 
L 326.127147 146.580175 
L 337.640989 138.726768 
L 342.11528 135.371106 
L 347.663401 130.978059 
L 371.108685 109.656041 
L 382.383898 97.868122 
L 382.383898 97.868122 
" style="fill:none;stroke:#57db5f;stroke-dasharray:6.558079,2.835926;stroke-dashoffset:0;stroke-linejoin:miter;stroke-width:1.772454;"/>
   </g>
   <g id="line2d_24">
    <path clip-path="url(#p506fa31019)" d="M 57.729352 251.525725 
L 66.141019 245.418506 
L 70.138052 242.658058 
L 79.981492 236.236748 
L 89.22836 230.676429 
L 96.804826 226.432206 
L 104.858549 222.243033 
L 111.540157 219.052246 
L 119.295595 215.709666 
L 126.096517 213.087382 
L 127.468633 212.58377 
L 136.894472 209.389107 
L 143.039165 207.595422 
L 150.019059 205.885372 
L 151.689461 205.533034 
L 158.132439 204.394933 
L 162.248787 203.840244 
L 169.944567 203.120054 
L 178.65452 202.725639 
L 186.529272 202.669882 
L 188.796246 202.711609 
L 191.361506 202.895698 
L 196.790312 203.709086 
L 207.289982 206.152683 
L 213.613646 207.594292 
L 216.775478 208.158793 
L 221.01114 208.645692 
L 223.695715 208.748415 
L 238.908304 208.791252 
L 247.498942 208.572881 
L 250.601117 208.405373 
L 260.3849 207.442376 
L 267.961366 206.237616 
L 273.986744 205.111642 
L 280.787666 203.612051 
L 289.080019 201.370512 
L 296.059913 199.056281 
L 300.534203 197.352912 
L 307.394783 194.471104 
L 314.911591 190.944648 
L 321.831828 187.360758 
L 326.127147 184.975243 
L 337.640989 177.979702 
L 342.11528 175.027619 
L 347.663401 171.187594 
L 371.108685 152.807518 
L 382.383898 142.756615 
L 382.383898 142.756615 
" style="fill:none;stroke:#5f57db;stroke-dasharray:6.558079,2.835926;stroke-dashoffset:0;stroke-linejoin:miter;stroke-width:1.772454;"/>
   </g>
   <g id="line2d_25">
    <path clip-path="url(#p506fa31019)" d="M 57.729352 140.977804 
L 66.141019 137.379472 
L 70.138052 135.755616 
L 79.981492 131.986028 
L 91.674306 127.916605 
L 96.804826 126.262152 
L 104.858549 123.83581 
L 116.133762 120.828094 
L 124.545429 118.901465 
L 127.468633 118.280117 
L 139.519389 116.004292 
L 147.21517 114.850967 
L 151.689461 114.310718 
L 158.132439 113.758463 
L 162.248787 113.543866 
L 169.944567 113.361152 
L 180.80218 113.393246 
L 191.361506 113.525949 
L 196.790312 113.762733 
L 209.855242 114.761115 
L 231.033552 116.725478 
L 238.908304 117.856205 
L 250.601117 119.529512 
L 260.3849 120.33381 
L 270.407312 120.499039 
L 278.282064 120.475027 
L 280.787666 120.40527 
L 289.080019 119.846189 
L 293.196366 119.329316 
L 297.014428 118.674322 
L 303.934664 117.128946 
L 307.394783 116.214536 
L 314.911591 113.907725 
L 320.93697 111.746747 
L 326.127147 109.666693 
L 337.640989 104.345506 
L 342.11528 102.02016 
L 347.663401 98.940799 
L 371.108685 83.613448 
L 382.383898 74.965181 
L 382.383898 74.965181 
" style="fill:none;stroke:#db5f57;stroke-linejoin:miter;stroke-width:1.772454;"/>
   </g>
   <g id="line2d_26">
    <path clip-path="url(#p506fa31019)" d="M 57.729352 132.624498 
L 70.138052 130.688857 
L 88.452816 127.549702 
L 96.804826 125.907017 
L 127.468633 119.458993 
L 147.21517 114.589972 
L 151.689461 113.715314 
L 176.029603 109.435446 
L 180.80218 108.821992 
L 188.796246 108.179644 
L 194.463681 108.109108 
L 196.790312 108.165507 
L 207.289982 108.832035 
L 223.695715 110.156505 
L 232.286353 110.881418 
L 238.908304 111.685544 
L 250.601117 113.242296 
L 260.3849 114.284964 
L 280.787666 115.745911 
L 289.080019 115.972133 
L 293.196366 115.899083 
L 297.014428 115.689848 
L 304.411922 114.977721 
L 311.451473 114.007233 
L 316.641651 113.113198 
L 325.053317 111.350788 
L 326.127147 111.098419 
L 337.640989 108.01357 
L 342.11528 106.632071 
L 347.663401 104.781188 
L 371.108685 95.354833 
L 382.383898 89.952689 
L 382.383898 89.952689 
" style="fill:none;stroke:#57db5f;stroke-linejoin:miter;stroke-width:1.772454;"/>
   </g>
   <g id="line2d_27">
    <path clip-path="url(#p506fa31019)" d="M 57.729352 173.078623 
L 69.004565 169.607414 
L 79.981492 166.496564 
L 93.583336 162.97459 
L 104.858549 160.315834 
L 116.133762 157.961901 
L 127.468633 155.909906 
L 141.488077 153.598519 
L 147.931056 152.744145 
L 151.689461 152.338838 
L 158.132439 151.865674 
L 162.248787 151.701303 
L 169.944567 151.597457 
L 204.12815 151.793386 
L 221.01114 152.195773 
L 223.695715 152.276359 
L 235.269214 152.977647 
L 259.012784 154.906023 
L 270.407312 155.300451 
L 280.787666 155.522336 
L 289.080019 155.356677 
L 293.196366 155.093223 
L 297.014428 154.712621 
L 304.411922 153.679628 
L 311.451473 152.412359 
L 316.641651 151.304236 
L 325.053317 149.202196 
L 326.127147 148.90705 
L 337.640989 145.370252 
L 342.11528 143.815837 
L 347.663401 141.75205 
L 371.108685 131.433153 
L 382.383898 125.59804 
L 382.383898 125.59804 
" style="fill:none;stroke:#5f57db;stroke-linejoin:miter;stroke-width:1.772454;"/>
   </g>
   <g id="patch_3">
    <path d="M 405.816625 232.279308 
L 517.652625 232.279308 
L 517.652625 82.587433 
L 405.816625 82.587433 
z
" style="fill:#ffffff;"/>
   </g>
   <g id="text_10">
    <!-- pretrained -->
    <g transform="translate(418.016625 106.181027)scale(0.11 -0.11)">
     <defs>
      <path d="M 1159 525 
L 1159 -1331 
L 581 -1331 
L 581 3500 
L 1159 3500 
L 1159 2969 
Q 1341 3281 1617 3432 
Q 1894 3584 2278 3584 
Q 2916 3584 3314 3078 
Q 3713 2572 3713 1747 
Q 3713 922 3314 415 
Q 2916 -91 2278 -91 
Q 1894 -91 1617 61 
Q 1341 213 1159 525 
z
M 3116 1747 
Q 3116 2381 2855 2742 
Q 2594 3103 2138 3103 
Q 1681 3103 1420 2742 
Q 1159 2381 1159 1747 
Q 1159 1113 1420 752 
Q 1681 391 2138 391 
Q 2594 391 2855 752 
Q 3116 1113 3116 1747 
z
" id="DejaVuSans-70" transform="scale(0.015625)"/>
     </defs>
     <use xlink:href="#DejaVuSans-70"/>
     <use x="63.476562" xlink:href="#DejaVuSans-72"/>
     <use x="102.339844" xlink:href="#DejaVuSans-65"/>
     <use x="163.863281" xlink:href="#DejaVuSans-74"/>
     <use x="203.072266" xlink:href="#DejaVuSans-72"/>
     <use x="244.185547" xlink:href="#DejaVuSans-61"/>
     <use x="305.464844" xlink:href="#DejaVuSans-69"/>
     <use x="333.248047" xlink:href="#DejaVuSans-6e"/>
     <use x="396.626953" xlink:href="#DejaVuSans-65"/>
     <use x="458.150391" xlink:href="#DejaVuSans-64"/>
    </g>
   </g>
   <g id="patch_4">
    <path clip-path="url(#p75ab607d83)" d="M 418.016625 125.673371 
L 433.856625 125.673371 
L 433.856625 109.833371 
L 418.016625 109.833371 
z
" style="fill:#f2f2f2;"/>
   </g>
   <g id="patch_5">
    <path clip-path="url(#p75ab607d83)" d="M 418.016625 121.713371 
L 433.856625 121.713371 
L 433.856625 113.793371 
L 418.016625 113.793371 
z
" style="fill:#999999;opacity:0.4;"/>
   </g>
   <g id="line2d_28">
    <path clip-path="url(#p75ab607d83)" d="M 418.016625 117.753371 
L 433.856625 117.753371 
" style="fill:none;stroke:#000000;stroke-dasharray:6.558079,2.835926;stroke-dashoffset:0;stroke-width:1.772454;"/>
   </g>
   <g id="text_11">
    <!-- False -->
    <g transform="translate(436.856625 120.181621)scale(0.088 -0.088)">
     <defs>
      <path d="M 628 4666 
L 3309 4666 
L 3309 4134 
L 1259 4134 
L 1259 2759 
L 3109 2759 
L 3109 2228 
L 1259 2228 
L 1259 0 
L 628 0 
L 628 4666 
z
" id="DejaVuSans-46" transform="scale(0.015625)"/>
      <path d="M 2834 3397 
L 2834 2853 
Q 2591 2978 2328 3040 
Q 2066 3103 1784 3103 
Q 1356 3103 1142 2972 
Q 928 2841 928 2578 
Q 928 2378 1081 2264 
Q 1234 2150 1697 2047 
L 1894 2003 
Q 2506 1872 2764 1633 
Q 3022 1394 3022 966 
Q 3022 478 2636 193 
Q 2250 -91 1575 -91 
Q 1294 -91 989 -36 
Q 684 19 347 128 
L 347 722 
Q 666 556 975 473 
Q 1284 391 1588 391 
Q 1994 391 2212 530 
Q 2431 669 2431 922 
Q 2431 1156 2273 1281 
Q 2116 1406 1581 1522 
L 1381 1569 
Q 847 1681 609 1914 
Q 372 2147 372 2553 
Q 372 3047 722 3315 
Q 1072 3584 1716 3584 
Q 2034 3584 2315 3537 
Q 2597 3491 2834 3397 
z
" id="DejaVuSans-73" transform="scale(0.015625)"/>
     </defs>
     <use xlink:href="#DejaVuSans-46"/>
     <use x="48.394531" xlink:href="#DejaVuSans-61"/>
     <use x="109.673828" xlink:href="#DejaVuSans-6c"/>
     <use x="137.457031" xlink:href="#DejaVuSans-73"/>
     <use x="189.556641" xlink:href="#DejaVuSans-65"/>
    </g>
   </g>
   <g id="patch_6">
    <path clip-path="url(#p0554014457)" d="M 418.016625 143.513371 
L 433.856625 143.513371 
L 433.856625 127.673371 
L 418.016625 127.673371 
z
" style="fill:#f2f2f2;"/>
   </g>
   <g id="patch_7">
    <path clip-path="url(#p0554014457)" d="M 418.016625 139.553371 
L 433.856625 139.553371 
L 433.856625 131.633371 
L 418.016625 131.633371 
z
" style="fill:#999999;opacity:0.4;"/>
   </g>
   <g id="line2d_29">
    <path clip-path="url(#p0554014457)" d="M 418.016625 135.593371 
L 433.856625 135.593371 
" style="fill:none;stroke:#000000;stroke-width:1.772454;"/>
   </g>
   <g id="text_12">
    <!-- True -->
    <g transform="translate(436.856625 138.021621)scale(0.088 -0.088)">
     <defs>
      <path d="M -19 4666 
L 3928 4666 
L 3928 4134 
L 2272 4134 
L 2272 0 
L 1638 0 
L 1638 4134 
L -19 4134 
L -19 4666 
z
" id="DejaVuSans-54" transform="scale(0.015625)"/>
     </defs>
     <use xlink:href="#DejaVuSans-54"/>
     <use x="46.333984" xlink:href="#DejaVuSans-72"/>
     <use x="87.447266" xlink:href="#DejaVuSans-75"/>
     <use x="150.826172" xlink:href="#DejaVuSans-65"/>
    </g>
   </g>
   <g id="text_13">
    <!-- supervised -->
    <g transform="translate(418.016625 164.906964)scale(0.11 -0.11)">
     <defs>
      <path d="M 191 3500 
L 800 3500 
L 1894 563 
L 2988 3500 
L 3597 3500 
L 2284 0 
L 1503 0 
L 191 3500 
z
" id="DejaVuSans-76" transform="scale(0.015625)"/>
     </defs>
     <use xlink:href="#DejaVuSans-73"/>
     <use x="52.099609" xlink:href="#DejaVuSans-75"/>
     <use x="115.478516" xlink:href="#DejaVuSans-70"/>
     <use x="178.955078" xlink:href="#DejaVuSans-65"/>
     <use x="240.478516" xlink:href="#DejaVuSans-72"/>
     <use x="281.591797" xlink:href="#DejaVuSans-76"/>
     <use x="340.771484" xlink:href="#DejaVuSans-69"/>
     <use x="368.554688" xlink:href="#DejaVuSans-73"/>
     <use x="420.654297" xlink:href="#DejaVuSans-65"/>
     <use x="482.177734" xlink:href="#DejaVuSans-64"/>
    </g>
   </g>
   <g id="patch_8">
    <path clip-path="url(#p67b204fe98)" d="M 418.016625 184.399308 
L 433.856625 184.399308 
L 433.856625 168.559308 
L 418.016625 168.559308 
z
" style="fill:#f2f2f2;"/>
   </g>
   <g id="patch_9">
    <path clip-path="url(#p67b204fe98)" d="M 418.016625 180.439308 
L 433.856625 180.439308 
L 433.856625 172.519308 
L 418.016625 172.519308 
z
" style="fill:#999999;opacity:0.4;"/>
   </g>
   <g id="line2d_30">
    <path clip-path="url(#p67b204fe98)" d="M 418.016625 176.479308 
L 433.856625 176.479308 
" style="fill:none;stroke:#db5f57;stroke-width:1.772454;"/>
   </g>
   <g id="text_14">
    <!-- five_layer_net -->
    <g transform="translate(436.856625 178.785183)scale(0.088 -0.088)">
     <defs>
      <path d="M 2375 4863 
L 2375 4384 
L 1825 4384 
Q 1516 4384 1395 4259 
Q 1275 4134 1275 3809 
L 1275 3500 
L 2222 3500 
L 2222 3053 
L 1275 3053 
L 1275 0 
L 697 0 
L 697 3053 
L 147 3053 
L 147 3500 
L 697 3500 
L 697 3744 
Q 697 4328 969 4595 
Q 1241 4863 1831 4863 
L 2375 4863 
z
" id="DejaVuSans-66" transform="scale(0.015625)"/>
     </defs>
     <use xlink:href="#DejaVuSans-66"/>
     <use x="35.205078" xlink:href="#DejaVuSans-69"/>
     <use x="62.988281" xlink:href="#DejaVuSans-76"/>
     <use x="122.167969" xlink:href="#DejaVuSans-65"/>
     <use x="183.691406" xlink:href="#DejaVuSans-5f"/>
     <use x="233.691406" xlink:href="#DejaVuSans-6c"/>
     <use x="261.474609" xlink:href="#DejaVuSans-61"/>
     <use x="322.753906" xlink:href="#DejaVuSans-79"/>
     <use x="381.933594" xlink:href="#DejaVuSans-65"/>
     <use x="443.457031" xlink:href="#DejaVuSans-72"/>
     <use x="484.570312" xlink:href="#DejaVuSans-5f"/>
     <use x="534.570312" xlink:href="#DejaVuSans-6e"/>
     <use x="597.949219" xlink:href="#DejaVuSans-65"/>
     <use x="659.472656" xlink:href="#DejaVuSans-74"/>
    </g>
   </g>
   <g id="patch_10">
    <path clip-path="url(#p16ee4bf18f)" d="M 418.016625 202.239308 
L 433.856625 202.239308 
L 433.856625 186.399308 
L 418.016625 186.399308 
z
" style="fill:#f2f2f2;"/>
   </g>
   <g id="patch_11">
    <path clip-path="url(#p16ee4bf18f)" d="M 418.016625 198.279308 
L 433.856625 198.279308 
L 433.856625 190.359308 
L 418.016625 190.359308 
z
" style="fill:#999999;opacity:0.4;"/>
   </g>
   <g id="line2d_31">
    <path clip-path="url(#p16ee4bf18f)" d="M 418.016625 194.319308 
L 433.856625 194.319308 
" style="fill:none;stroke:#57db5f;stroke-width:1.772454;"/>
   </g>
   <g id="text_15">
    <!-- pytorch_lr -->
    <g transform="translate(436.856625 196.625183)scale(0.088 -0.088)">
     <defs>
      <path d="M 3513 2113 
L 3513 0 
L 2938 0 
L 2938 2094 
Q 2938 2591 2744 2837 
Q 2550 3084 2163 3084 
Q 1697 3084 1428 2787 
Q 1159 2491 1159 1978 
L 1159 0 
L 581 0 
L 581 4863 
L 1159 4863 
L 1159 2956 
Q 1366 3272 1645 3428 
Q 1925 3584 2291 3584 
Q 2894 3584 3203 3211 
Q 3513 2838 3513 2113 
z
" id="DejaVuSans-68" transform="scale(0.015625)"/>
     </defs>
     <use xlink:href="#DejaVuSans-70"/>
     <use x="63.476562" xlink:href="#DejaVuSans-79"/>
     <use x="122.65625" xlink:href="#DejaVuSans-74"/>
     <use x="161.865234" xlink:href="#DejaVuSans-6f"/>
     <use x="223.046875" xlink:href="#DejaVuSans-72"/>
     <use x="261.910156" xlink:href="#DejaVuSans-63"/>
     <use x="316.890625" xlink:href="#DejaVuSans-68"/>
     <use x="380.269531" xlink:href="#DejaVuSans-5f"/>
     <use x="430.269531" xlink:href="#DejaVuSans-6c"/>
     <use x="458.052734" xlink:href="#DejaVuSans-72"/>
    </g>
   </g>
   <g id="patch_12">
    <path clip-path="url(#p5ff13113ad)" d="M 418.016625 220.079308 
L 433.856625 220.079308 
L 433.856625 204.239308 
L 418.016625 204.239308 
z
" style="fill:#f2f2f2;"/>
   </g>
   <g id="patch_13">
    <path clip-path="url(#p5ff13113ad)" d="M 418.016625 216.119308 
L 433.856625 216.119308 
L 433.856625 208.199308 
L 418.016625 208.199308 
z
" style="fill:#999999;opacity:0.4;"/>
   </g>
   <g id="line2d_32">
    <path clip-path="url(#p5ff13113ad)" d="M 418.016625 212.159308 
L 433.856625 212.159308 
" style="fill:none;stroke:#5f57db;stroke-width:1.772454;"/>
   </g>
   <g id="text_16">
    <!-- three_layer_net -->
    <g transform="translate(436.856625 214.465183)scale(0.088 -0.088)">
     <use xlink:href="#DejaVuSans-74"/>
     <use x="39.208984" xlink:href="#DejaVuSans-68"/>
     <use x="102.587891" xlink:href="#DejaVuSans-72"/>
     <use x="141.451172" xlink:href="#DejaVuSans-65"/>
     <use x="202.974609" xlink:href="#DejaVuSans-65"/>
     <use x="264.498047" xlink:href="#DejaVuSans-5f"/>
     <use x="314.498047" xlink:href="#DejaVuSans-6c"/>
     <use x="342.28125" xlink:href="#DejaVuSans-61"/>
     <use x="403.560547" xlink:href="#DejaVuSans-79"/>
     <use x="462.740234" xlink:href="#DejaVuSans-65"/>
     <use x="524.263672" xlink:href="#DejaVuSans-72"/>
     <use x="565.376953" xlink:href="#DejaVuSans-5f"/>
     <use x="615.376953" xlink:href="#DejaVuSans-6e"/>
     <use x="678.755859" xlink:href="#DejaVuSans-65"/>
     <use x="740.279297" xlink:href="#DejaVuSans-74"/>
    </g>
   </g>
  </g>
  <g id="text_17">
   <!-- Recount3 Multiclass Classification with Pretraining -->
   <g transform="translate(48.493281 17.229938)scale(0.132 -0.132)">
    <defs>
     <path d="M 2841 2188 
Q 3044 2119 3236 1894 
Q 3428 1669 3622 1275 
L 4263 0 
L 3584 0 
L 2988 1197 
Q 2756 1666 2539 1819 
Q 2322 1972 1947 1972 
L 1259 1972 
L 1259 0 
L 628 0 
L 628 4666 
L 2053 4666 
Q 2853 4666 3247 4331 
Q 3641 3997 3641 3322 
Q 3641 2881 3436 2590 
Q 3231 2300 2841 2188 
z
M 1259 4147 
L 1259 2491 
L 2053 2491 
Q 2509 2491 2742 2702 
Q 2975 2913 2975 3322 
Q 2975 3731 2742 3939 
Q 2509 4147 2053 4147 
L 1259 4147 
z
" id="DejaVuSans-52" transform="scale(0.015625)"/>
     <path d="M 2597 2516 
Q 3050 2419 3304 2112 
Q 3559 1806 3559 1356 
Q 3559 666 3084 287 
Q 2609 -91 1734 -91 
Q 1441 -91 1130 -33 
Q 819 25 488 141 
L 488 750 
Q 750 597 1062 519 
Q 1375 441 1716 441 
Q 2309 441 2620 675 
Q 2931 909 2931 1356 
Q 2931 1769 2642 2001 
Q 2353 2234 1838 2234 
L 1294 2234 
L 1294 2753 
L 1863 2753 
Q 2328 2753 2575 2939 
Q 2822 3125 2822 3475 
Q 2822 3834 2567 4026 
Q 2313 4219 1838 4219 
Q 1578 4219 1281 4162 
Q 984 4106 628 3988 
L 628 4550 
Q 988 4650 1302 4700 
Q 1616 4750 1894 4750 
Q 2613 4750 3031 4423 
Q 3450 4097 3450 3541 
Q 3450 3153 3228 2886 
Q 3006 2619 2597 2516 
z
" id="DejaVuSans-33" transform="scale(0.015625)"/>
     <path id="DejaVuSans-20" transform="scale(0.015625)"/>
     <path d="M 628 4666 
L 1569 4666 
L 2759 1491 
L 3956 4666 
L 4897 4666 
L 4897 0 
L 4281 0 
L 4281 4097 
L 3078 897 
L 2444 897 
L 1241 4097 
L 1241 0 
L 628 0 
L 628 4666 
z
" id="DejaVuSans-4d" transform="scale(0.015625)"/>
     <path d="M 4122 4306 
L 4122 3641 
Q 3803 3938 3442 4084 
Q 3081 4231 2675 4231 
Q 1875 4231 1450 3742 
Q 1025 3253 1025 2328 
Q 1025 1406 1450 917 
Q 1875 428 2675 428 
Q 3081 428 3442 575 
Q 3803 722 4122 1019 
L 4122 359 
Q 3791 134 3420 21 
Q 3050 -91 2638 -91 
Q 1578 -91 968 557 
Q 359 1206 359 2328 
Q 359 3453 968 4101 
Q 1578 4750 2638 4750 
Q 3056 4750 3426 4639 
Q 3797 4528 4122 4306 
z
" id="DejaVuSans-43" transform="scale(0.015625)"/>
     <path d="M 269 3500 
L 844 3500 
L 1563 769 
L 2278 3500 
L 2956 3500 
L 3675 769 
L 4391 3500 
L 4966 3500 
L 4050 0 
L 3372 0 
L 2619 2869 
L 1863 0 
L 1184 0 
L 269 3500 
z
" id="DejaVuSans-77" transform="scale(0.015625)"/>
     <path d="M 1259 4147 
L 1259 2394 
L 2053 2394 
Q 2494 2394 2734 2622 
Q 2975 2850 2975 3272 
Q 2975 3691 2734 3919 
Q 2494 4147 2053 4147 
L 1259 4147 
z
M 628 4666 
L 2053 4666 
Q 2838 4666 3239 4311 
Q 3641 3956 3641 3272 
Q 3641 2581 3239 2228 
Q 2838 1875 2053 1875 
L 1259 1875 
L 1259 0 
L 628 0 
L 628 4666 
z
" id="DejaVuSans-50" transform="scale(0.015625)"/>
     <path d="M 2906 1791 
Q 2906 2416 2648 2759 
Q 2391 3103 1925 3103 
Q 1463 3103 1205 2759 
Q 947 2416 947 1791 
Q 947 1169 1205 825 
Q 1463 481 1925 481 
Q 2391 481 2648 825 
Q 2906 1169 2906 1791 
z
M 3481 434 
Q 3481 -459 3084 -895 
Q 2688 -1331 1869 -1331 
Q 1566 -1331 1297 -1286 
Q 1028 -1241 775 -1147 
L 775 -588 
Q 1028 -725 1275 -790 
Q 1522 -856 1778 -856 
Q 2344 -856 2625 -561 
Q 2906 -266 2906 331 
L 2906 616 
Q 2728 306 2450 153 
Q 2172 0 1784 0 
Q 1141 0 747 490 
Q 353 981 353 1791 
Q 353 2603 747 3093 
Q 1141 3584 1784 3584 
Q 2172 3584 2450 3431 
Q 2728 3278 2906 2969 
L 2906 3500 
L 3481 3500 
L 3481 434 
z
" id="DejaVuSans-67" transform="scale(0.015625)"/>
    </defs>
    <use xlink:href="#DejaVuSans-52"/>
    <use x="64.982422" xlink:href="#DejaVuSans-65"/>
    <use x="126.505859" xlink:href="#DejaVuSans-63"/>
    <use x="181.486328" xlink:href="#DejaVuSans-6f"/>
    <use x="242.667969" xlink:href="#DejaVuSans-75"/>
    <use x="306.046875" xlink:href="#DejaVuSans-6e"/>
    <use x="369.425781" xlink:href="#DejaVuSans-74"/>
    <use x="408.634766" xlink:href="#DejaVuSans-33"/>
    <use x="472.257812" xlink:href="#DejaVuSans-20"/>
    <use x="504.044922" xlink:href="#DejaVuSans-4d"/>
    <use x="590.324219" xlink:href="#DejaVuSans-75"/>
    <use x="653.703125" xlink:href="#DejaVuSans-6c"/>
    <use x="681.486328" xlink:href="#DejaVuSans-74"/>
    <use x="720.695312" xlink:href="#DejaVuSans-69"/>
    <use x="748.478516" xlink:href="#DejaVuSans-63"/>
    <use x="803.458984" xlink:href="#DejaVuSans-6c"/>
    <use x="831.242188" xlink:href="#DejaVuSans-61"/>
    <use x="892.521484" xlink:href="#DejaVuSans-73"/>
    <use x="944.621094" xlink:href="#DejaVuSans-73"/>
    <use x="996.720703" xlink:href="#DejaVuSans-20"/>
    <use x="1028.507812" xlink:href="#DejaVuSans-43"/>
    <use x="1098.332031" xlink:href="#DejaVuSans-6c"/>
    <use x="1126.115234" xlink:href="#DejaVuSans-61"/>
    <use x="1187.394531" xlink:href="#DejaVuSans-73"/>
    <use x="1239.494141" xlink:href="#DejaVuSans-73"/>
    <use x="1291.59375" xlink:href="#DejaVuSans-69"/>
    <use x="1319.376953" xlink:href="#DejaVuSans-66"/>
    <use x="1354.582031" xlink:href="#DejaVuSans-69"/>
    <use x="1382.365234" xlink:href="#DejaVuSans-63"/>
    <use x="1437.345703" xlink:href="#DejaVuSans-61"/>
    <use x="1498.625" xlink:href="#DejaVuSans-74"/>
    <use x="1537.833984" xlink:href="#DejaVuSans-69"/>
    <use x="1565.617188" xlink:href="#DejaVuSans-6f"/>
    <use x="1626.798828" xlink:href="#DejaVuSans-6e"/>
    <use x="1690.177734" xlink:href="#DejaVuSans-20"/>
    <use x="1721.964844" xlink:href="#DejaVuSans-77"/>
    <use x="1803.751953" xlink:href="#DejaVuSans-69"/>
    <use x="1831.535156" xlink:href="#DejaVuSans-74"/>
    <use x="1870.744141" xlink:href="#DejaVuSans-68"/>
    <use x="1934.123047" xlink:href="#DejaVuSans-20"/>
    <use x="1965.910156" xlink:href="#DejaVuSans-50"/>
    <use x="2024.462891" xlink:href="#DejaVuSans-72"/>
    <use x="2063.326172" xlink:href="#DejaVuSans-65"/>
    <use x="2124.849609" xlink:href="#DejaVuSans-74"/>
    <use x="2164.058594" xlink:href="#DejaVuSans-72"/>
    <use x="2205.171875" xlink:href="#DejaVuSans-61"/>
    <use x="2266.451172" xlink:href="#DejaVuSans-69"/>
    <use x="2294.234375" xlink:href="#DejaVuSans-6e"/>
    <use x="2357.613281" xlink:href="#DejaVuSans-69"/>
    <use x="2385.396484" xlink:href="#DejaVuSans-6e"/>
    <use x="2448.775391" xlink:href="#DejaVuSans-67"/>
   </g>
  </g>
 </g>
 <defs>
  <clipPath id="p506fa31019">
   <rect height="266.112" width="357.12" x="41.496625" y="26.105371"/>
  </clipPath>
  <clipPath id="p75ab607d83">
   <path d="M 418.016625 125.673371 
L 418.016625 109.833371 
L 433.856625 109.833371 
L 433.856625 125.673371 
"/>
  </clipPath>
  <clipPath id="p0554014457">
   <path d="M 418.016625 143.513371 
L 418.016625 127.673371 
L 433.856625 127.673371 
L 433.856625 143.513371 
"/>
  </clipPath>
  <clipPath id="p67b204fe98">
   <path d="M 418.016625 184.399308 
L 418.016625 168.559308 
L 433.856625 168.559308 
L 433.856625 184.399308 
"/>
  </clipPath>
  <clipPath id="p16ee4bf18f">
   <path d="M 418.016625 202.239308 
L 418.016625 186.399308 
L 433.856625 186.399308 
L 433.856625 202.239308 
"/>
  </clipPath>
  <clipPath id="p5ff13113ad">
   <path d="M 418.016625 220.079308 
L 418.016625 204.239308 
L 433.856625 204.239308 
L 433.856625 220.079308 
"/>
  </clipPath>
 </defs>
</svg>
