<?xml version="1.0" encoding="utf-8" standalone="no"?>
<!DOCTYPE svg PUBLIC "-//W3C//DTD SVG 1.1//EN"
  "http://www.w3.org/Graphics/SVG/1.1/DTD/svg11.dtd">
<svg height="328.235996pt" version="1.1" viewBox="0 0 524.852625 328.235996" width="524.852625pt" xmlns="http://www.w3.org/2000/svg" xmlns:xlink="http://www.w3.org/1999/xlink">
 <metadata>
  <rdf:RDF xmlns:cc="http://creativecommons.org/ns#" xmlns:dc="http://purl.org/dc/elements/1.1/" xmlns:rdf="http://www.w3.org/1999/02/22-rdf-syntax-ns#">
   <cc:Work>
    <dc:type rdf:resource="http://purl.org/dc/dcmitype/StillImage"/>
    <dc:date>2022-02-20T09:46:57.674118</dc:date>
    <dc:format>image/svg+xml</dc:format>
    <dc:creator>
     <cc:Agent>
      <dc:title>Matplotlib v3.4.2, https://matplotlib.org/</dc:title>
     </cc:Agent>
    </dc:creator>
   </cc:Work>
  </rdf:RDF>
 </metadata>
 <defs>
  <style type="text/css">*{stroke-linecap:butt;stroke-linejoin:round;}</style>
 </defs>
 <g id="figure_1">
  <g id="patch_1">
   <path d="M 0 328.235996 
L 524.852625 328.235996 
L 524.852625 0 
L 0 0 
z
" style="fill:#ffffff;stroke:#ffffff;stroke-linejoin:miter;"/>
  </g>
  <g id="axes_1">
   <g id="patch_2">
    <path d="M 41.496625 292.217371 
L 398.616625 292.217371 
L 398.616625 26.105371 
L 41.496625 26.105371 
z
" style="fill:#ebebeb;"/>
   </g>
   <g id="matplotlib.axis_1">
    <g id="xtick_1">
     <g id="line2d_1">
      <path clip-path="url(#pa981ed7c16)" d="M 115.372026 292.217371 
L 115.372026 26.105371 
" style="fill:none;stroke:#ffffff;"/>
     </g>
     <g id="line2d_2">
      <path d="M 115.372026 292.217371 
" style="fill:none;stroke:#333333;stroke-width:1.5;"/>
      <defs>
       <path d="M 0 0 
L 0 2.75 
" id="mcbb863b267" style="stroke:#000000;"/>
      </defs>
      <g>
       <use style="fill:#333333;stroke:#000000;" x="115.372026" xlink:href="#mcbb863b267" y="292.217371"/>
      </g>
     </g>
     <g id="text_1">
      <!-- 2500 -->
      <g style="fill:#4d4d4d;" transform="translate(104.174026 303.853996)scale(0.088 -0.088)">
       <defs>
        <path d="M 1228 531 
L 3431 531 
L 3431 0 
L 469 0 
L 469 531 
Q 828 903 1448 1529 
Q 2069 2156 2228 2338 
Q 2531 2678 2651 2914 
Q 2772 3150 2772 3378 
Q 2772 3750 2511 3984 
Q 2250 4219 1831 4219 
Q 1534 4219 1204 4116 
Q 875 4013 500 3803 
L 500 4441 
Q 881 4594 1212 4672 
Q 1544 4750 1819 4750 
Q 2544 4750 2975 4387 
Q 3406 4025 3406 3419 
Q 3406 3131 3298 2873 
Q 3191 2616 2906 2266 
Q 2828 2175 2409 1742 
Q 1991 1309 1228 531 
z
" id="DejaVuSans-32" transform="scale(0.015625)"/>
        <path d="M 691 4666 
L 3169 4666 
L 3169 4134 
L 1269 4134 
L 1269 2991 
Q 1406 3038 1543 3061 
Q 1681 3084 1819 3084 
Q 2600 3084 3056 2656 
Q 3513 2228 3513 1497 
Q 3513 744 3044 326 
Q 2575 -91 1722 -91 
Q 1428 -91 1123 -41 
Q 819 9 494 109 
L 494 744 
Q 775 591 1075 516 
Q 1375 441 1709 441 
Q 2250 441 2565 725 
Q 2881 1009 2881 1497 
Q 2881 1984 2565 2268 
Q 2250 2553 1709 2553 
Q 1456 2553 1204 2497 
Q 953 2441 691 2322 
L 691 4666 
z
" id="DejaVuSans-35" transform="scale(0.015625)"/>
        <path d="M 2034 4250 
Q 1547 4250 1301 3770 
Q 1056 3291 1056 2328 
Q 1056 1369 1301 889 
Q 1547 409 2034 409 
Q 2525 409 2770 889 
Q 3016 1369 3016 2328 
Q 3016 3291 2770 3770 
Q 2525 4250 2034 4250 
z
M 2034 4750 
Q 2819 4750 3233 4129 
Q 3647 3509 3647 2328 
Q 3647 1150 3233 529 
Q 2819 -91 2034 -91 
Q 1250 -91 836 529 
Q 422 1150 422 2328 
Q 422 3509 836 4129 
Q 1250 4750 2034 4750 
z
" id="DejaVuSans-30" transform="scale(0.015625)"/>
       </defs>
       <use xlink:href="#DejaVuSans-32"/>
       <use x="63.623047" xlink:href="#DejaVuSans-35"/>
       <use x="127.246094" xlink:href="#DejaVuSans-30"/>
       <use x="190.869141" xlink:href="#DejaVuSans-30"/>
      </g>
     </g>
    </g>
    <g id="xtick_2">
     <g id="line2d_3">
      <path clip-path="url(#pa981ed7c16)" d="M 203.564612 292.217371 
L 203.564612 26.105371 
" style="fill:none;stroke:#ffffff;"/>
     </g>
     <g id="line2d_4">
      <path d="M 203.564612 292.217371 
" style="fill:none;stroke:#333333;stroke-width:1.5;"/>
      <g>
       <use style="fill:#333333;stroke:#000000;" x="203.564612" xlink:href="#mcbb863b267" y="292.217371"/>
      </g>
     </g>
     <g id="text_2">
      <!-- 5000 -->
      <g style="fill:#4d4d4d;" transform="translate(192.366612 303.853996)scale(0.088 -0.088)">
       <use xlink:href="#DejaVuSans-35"/>
       <use x="63.623047" xlink:href="#DejaVuSans-30"/>
       <use x="127.246094" xlink:href="#DejaVuSans-30"/>
       <use x="190.869141" xlink:href="#DejaVuSans-30"/>
      </g>
     </g>
    </g>
    <g id="xtick_3">
     <g id="line2d_5">
      <path clip-path="url(#pa981ed7c16)" d="M 291.757197 292.217371 
L 291.757197 26.105371 
" style="fill:none;stroke:#ffffff;"/>
     </g>
     <g id="line2d_6">
      <path d="M 291.757197 292.217371 
" style="fill:none;stroke:#333333;stroke-width:1.5;"/>
      <g>
       <use style="fill:#333333;stroke:#000000;" x="291.757197" xlink:href="#mcbb863b267" y="292.217371"/>
      </g>
     </g>
     <g id="text_3">
      <!-- 7500 -->
      <g style="fill:#4d4d4d;" transform="translate(280.559197 303.853996)scale(0.088 -0.088)">
       <defs>
        <path d="M 525 4666 
L 3525 4666 
L 3525 4397 
L 1831 0 
L 1172 0 
L 2766 4134 
L 525 4134 
L 525 4666 
z
" id="DejaVuSans-37" transform="scale(0.015625)"/>
       </defs>
       <use xlink:href="#DejaVuSans-37"/>
       <use x="63.623047" xlink:href="#DejaVuSans-35"/>
       <use x="127.246094" xlink:href="#DejaVuSans-30"/>
       <use x="190.869141" xlink:href="#DejaVuSans-30"/>
      </g>
     </g>
    </g>
    <g id="xtick_4">
     <g id="line2d_7">
      <path clip-path="url(#pa981ed7c16)" d="M 379.949782 292.217371 
L 379.949782 26.105371 
" style="fill:none;stroke:#ffffff;"/>
     </g>
     <g id="line2d_8">
      <path d="M 379.949782 292.217371 
" style="fill:none;stroke:#333333;stroke-width:1.5;"/>
      <g>
       <use style="fill:#333333;stroke:#000000;" x="379.949782" xlink:href="#mcbb863b267" y="292.217371"/>
      </g>
     </g>
     <g id="text_4">
      <!-- 10000 -->
      <g style="fill:#4d4d4d;" transform="translate(365.952282 303.853996)scale(0.088 -0.088)">
       <defs>
        <path d="M 794 531 
L 1825 531 
L 1825 4091 
L 703 3866 
L 703 4441 
L 1819 4666 
L 2450 4666 
L 2450 531 
L 3481 531 
L 3481 0 
L 794 0 
L 794 531 
z
" id="DejaVuSans-31" transform="scale(0.015625)"/>
       </defs>
       <use xlink:href="#DejaVuSans-31"/>
       <use x="63.623047" xlink:href="#DejaVuSans-30"/>
       <use x="127.246094" xlink:href="#DejaVuSans-30"/>
       <use x="190.869141" xlink:href="#DejaVuSans-30"/>
       <use x="254.492188" xlink:href="#DejaVuSans-30"/>
      </g>
     </g>
    </g>
    <g id="xtick_5">
     <g id="line2d_9">
      <path clip-path="url(#pa981ed7c16)" d="M 71.275733 292.217371 
L 71.275733 26.105371 
" style="fill:none;stroke:#ffffff;stroke-width:0.5;"/>
     </g>
    </g>
    <g id="xtick_6">
     <g id="line2d_10">
      <path clip-path="url(#pa981ed7c16)" d="M 159.468319 292.217371 
L 159.468319 26.105371 
" style="fill:none;stroke:#ffffff;stroke-width:0.5;"/>
     </g>
    </g>
    <g id="xtick_7">
     <g id="line2d_11">
      <path clip-path="url(#pa981ed7c16)" d="M 247.660904 292.217371 
L 247.660904 26.105371 
" style="fill:none;stroke:#ffffff;stroke-width:0.5;"/>
     </g>
    </g>
    <g id="xtick_8">
     <g id="line2d_12">
      <path clip-path="url(#pa981ed7c16)" d="M 335.85349 292.217371 
L 335.85349 26.105371 
" style="fill:none;stroke:#ffffff;stroke-width:0.5;"/>
     </g>
    </g>
    <g id="text_5">
     <!-- train_count -->
     <g transform="translate(183.2285 318.442402)scale(0.11 -0.11)">
      <defs>
       <path d="M 1172 4494 
L 1172 3500 
L 2356 3500 
L 2356 3053 
L 1172 3053 
L 1172 1153 
Q 1172 725 1289 603 
Q 1406 481 1766 481 
L 2356 481 
L 2356 0 
L 1766 0 
Q 1100 0 847 248 
Q 594 497 594 1153 
L 594 3053 
L 172 3053 
L 172 3500 
L 594 3500 
L 594 4494 
L 1172 4494 
z
" id="DejaVuSans-74" transform="scale(0.015625)"/>
       <path d="M 2631 2963 
Q 2534 3019 2420 3045 
Q 2306 3072 2169 3072 
Q 1681 3072 1420 2755 
Q 1159 2438 1159 1844 
L 1159 0 
L 581 0 
L 581 3500 
L 1159 3500 
L 1159 2956 
Q 1341 3275 1631 3429 
Q 1922 3584 2338 3584 
Q 2397 3584 2469 3576 
Q 2541 3569 2628 3553 
L 2631 2963 
z
" id="DejaVuSans-72" transform="scale(0.015625)"/>
       <path d="M 2194 1759 
Q 1497 1759 1228 1600 
Q 959 1441 959 1056 
Q 959 750 1161 570 
Q 1363 391 1709 391 
Q 2188 391 2477 730 
Q 2766 1069 2766 1631 
L 2766 1759 
L 2194 1759 
z
M 3341 1997 
L 3341 0 
L 2766 0 
L 2766 531 
Q 2569 213 2275 61 
Q 1981 -91 1556 -91 
Q 1019 -91 701 211 
Q 384 513 384 1019 
Q 384 1609 779 1909 
Q 1175 2209 1959 2209 
L 2766 2209 
L 2766 2266 
Q 2766 2663 2505 2880 
Q 2244 3097 1772 3097 
Q 1472 3097 1187 3025 
Q 903 2953 641 2809 
L 641 3341 
Q 956 3463 1253 3523 
Q 1550 3584 1831 3584 
Q 2591 3584 2966 3190 
Q 3341 2797 3341 1997 
z
" id="DejaVuSans-61" transform="scale(0.015625)"/>
       <path d="M 603 3500 
L 1178 3500 
L 1178 0 
L 603 0 
L 603 3500 
z
M 603 4863 
L 1178 4863 
L 1178 4134 
L 603 4134 
L 603 4863 
z
" id="DejaVuSans-69" transform="scale(0.015625)"/>
       <path d="M 3513 2113 
L 3513 0 
L 2938 0 
L 2938 2094 
Q 2938 2591 2744 2837 
Q 2550 3084 2163 3084 
Q 1697 3084 1428 2787 
Q 1159 2491 1159 1978 
L 1159 0 
L 581 0 
L 581 3500 
L 1159 3500 
L 1159 2956 
Q 1366 3272 1645 3428 
Q 1925 3584 2291 3584 
Q 2894 3584 3203 3211 
Q 3513 2838 3513 2113 
z
" id="DejaVuSans-6e" transform="scale(0.015625)"/>
       <path d="M 3263 -1063 
L 3263 -1509 
L -63 -1509 
L -63 -1063 
L 3263 -1063 
z
" id="DejaVuSans-5f" transform="scale(0.015625)"/>
       <path d="M 3122 3366 
L 3122 2828 
Q 2878 2963 2633 3030 
Q 2388 3097 2138 3097 
Q 1578 3097 1268 2742 
Q 959 2388 959 1747 
Q 959 1106 1268 751 
Q 1578 397 2138 397 
Q 2388 397 2633 464 
Q 2878 531 3122 666 
L 3122 134 
Q 2881 22 2623 -34 
Q 2366 -91 2075 -91 
Q 1284 -91 818 406 
Q 353 903 353 1747 
Q 353 2603 823 3093 
Q 1294 3584 2113 3584 
Q 2378 3584 2631 3529 
Q 2884 3475 3122 3366 
z
" id="DejaVuSans-63" transform="scale(0.015625)"/>
       <path d="M 1959 3097 
Q 1497 3097 1228 2736 
Q 959 2375 959 1747 
Q 959 1119 1226 758 
Q 1494 397 1959 397 
Q 2419 397 2687 759 
Q 2956 1122 2956 1747 
Q 2956 2369 2687 2733 
Q 2419 3097 1959 3097 
z
M 1959 3584 
Q 2709 3584 3137 3096 
Q 3566 2609 3566 1747 
Q 3566 888 3137 398 
Q 2709 -91 1959 -91 
Q 1206 -91 779 398 
Q 353 888 353 1747 
Q 353 2609 779 3096 
Q 1206 3584 1959 3584 
z
" id="DejaVuSans-6f" transform="scale(0.015625)"/>
       <path d="M 544 1381 
L 544 3500 
L 1119 3500 
L 1119 1403 
Q 1119 906 1312 657 
Q 1506 409 1894 409 
Q 2359 409 2629 706 
Q 2900 1003 2900 1516 
L 2900 3500 
L 3475 3500 
L 3475 0 
L 2900 0 
L 2900 538 
Q 2691 219 2414 64 
Q 2138 -91 1772 -91 
Q 1169 -91 856 284 
Q 544 659 544 1381 
z
M 1991 3584 
L 1991 3584 
z
" id="DejaVuSans-75" transform="scale(0.015625)"/>
      </defs>
      <use xlink:href="#DejaVuSans-74"/>
      <use x="39.208984" xlink:href="#DejaVuSans-72"/>
      <use x="80.322266" xlink:href="#DejaVuSans-61"/>
      <use x="141.601562" xlink:href="#DejaVuSans-69"/>
      <use x="169.384766" xlink:href="#DejaVuSans-6e"/>
      <use x="232.763672" xlink:href="#DejaVuSans-5f"/>
      <use x="282.763672" xlink:href="#DejaVuSans-63"/>
      <use x="337.744141" xlink:href="#DejaVuSans-6f"/>
      <use x="398.925781" xlink:href="#DejaVuSans-75"/>
      <use x="462.304688" xlink:href="#DejaVuSans-6e"/>
      <use x="525.683594" xlink:href="#DejaVuSans-74"/>
     </g>
    </g>
   </g>
   <g id="matplotlib.axis_2">
    <g id="ytick_1">
     <g id="line2d_13">
      <path clip-path="url(#pa981ed7c16)" d="M 41.496625 261.097941 
L 398.616625 261.097941 
" style="fill:none;stroke:#ffffff;"/>
     </g>
     <g id="line2d_14">
      <path d="M 41.496625 261.097941 
" style="fill:none;stroke:#333333;stroke-width:1.5;"/>
      <defs>
       <path d="M 0 0 
L -2.75 0 
" id="mcb03787cd1" style="stroke:#000000;"/>
      </defs>
      <g>
       <use style="fill:#333333;stroke:#000000;" x="41.496625" xlink:href="#mcb03787cd1" y="261.097941"/>
      </g>
     </g>
     <g id="text_6">
      <!-- 0.2 -->
      <g style="fill:#4d4d4d;" transform="translate(22.551875 263.526191)scale(0.088 -0.088)">
       <defs>
        <path d="M 684 794 
L 1344 794 
L 1344 0 
L 684 0 
L 684 794 
z
" id="DejaVuSans-2e" transform="scale(0.015625)"/>
       </defs>
       <use xlink:href="#DejaVuSans-30"/>
       <use x="63.623047" xlink:href="#DejaVuSans-2e"/>
       <use x="95.410156" xlink:href="#DejaVuSans-32"/>
      </g>
     </g>
    </g>
    <g id="ytick_2">
     <g id="line2d_15">
      <path clip-path="url(#pa981ed7c16)" d="M 41.496625 193.468798 
L 398.616625 193.468798 
" style="fill:none;stroke:#ffffff;"/>
     </g>
     <g id="line2d_16">
      <path d="M 41.496625 193.468798 
" style="fill:none;stroke:#333333;stroke-width:1.5;"/>
      <g>
       <use style="fill:#333333;stroke:#000000;" x="41.496625" xlink:href="#mcb03787cd1" y="193.468798"/>
      </g>
     </g>
     <g id="text_7">
      <!-- 0.4 -->
      <g style="fill:#4d4d4d;" transform="translate(22.551875 195.897048)scale(0.088 -0.088)">
       <defs>
        <path d="M 2419 4116 
L 825 1625 
L 2419 1625 
L 2419 4116 
z
M 2253 4666 
L 3047 4666 
L 3047 1625 
L 3713 1625 
L 3713 1100 
L 3047 1100 
L 3047 0 
L 2419 0 
L 2419 1100 
L 313 1100 
L 313 1709 
L 2253 4666 
z
" id="DejaVuSans-34" transform="scale(0.015625)"/>
       </defs>
       <use xlink:href="#DejaVuSans-30"/>
       <use x="63.623047" xlink:href="#DejaVuSans-2e"/>
       <use x="95.410156" xlink:href="#DejaVuSans-34"/>
      </g>
     </g>
    </g>
    <g id="ytick_3">
     <g id="line2d_17">
      <path clip-path="url(#pa981ed7c16)" d="M 41.496625 125.839655 
L 398.616625 125.839655 
" style="fill:none;stroke:#ffffff;"/>
     </g>
     <g id="line2d_18">
      <path d="M 41.496625 125.839655 
" style="fill:none;stroke:#333333;stroke-width:1.5;"/>
      <g>
       <use style="fill:#333333;stroke:#000000;" x="41.496625" xlink:href="#mcb03787cd1" y="125.839655"/>
      </g>
     </g>
     <g id="text_8">
      <!-- 0.6 -->
      <g style="fill:#4d4d4d;" transform="translate(22.551875 128.267905)scale(0.088 -0.088)">
       <defs>
        <path d="M 2113 2584 
Q 1688 2584 1439 2293 
Q 1191 2003 1191 1497 
Q 1191 994 1439 701 
Q 1688 409 2113 409 
Q 2538 409 2786 701 
Q 3034 994 3034 1497 
Q 3034 2003 2786 2293 
Q 2538 2584 2113 2584 
z
M 3366 4563 
L 3366 3988 
Q 3128 4100 2886 4159 
Q 2644 4219 2406 4219 
Q 1781 4219 1451 3797 
Q 1122 3375 1075 2522 
Q 1259 2794 1537 2939 
Q 1816 3084 2150 3084 
Q 2853 3084 3261 2657 
Q 3669 2231 3669 1497 
Q 3669 778 3244 343 
Q 2819 -91 2113 -91 
Q 1303 -91 875 529 
Q 447 1150 447 2328 
Q 447 3434 972 4092 
Q 1497 4750 2381 4750 
Q 2619 4750 2861 4703 
Q 3103 4656 3366 4563 
z
" id="DejaVuSans-36" transform="scale(0.015625)"/>
       </defs>
       <use xlink:href="#DejaVuSans-30"/>
       <use x="63.623047" xlink:href="#DejaVuSans-2e"/>
       <use x="95.410156" xlink:href="#DejaVuSans-36"/>
      </g>
     </g>
    </g>
    <g id="ytick_4">
     <g id="line2d_19">
      <path clip-path="url(#pa981ed7c16)" d="M 41.496625 58.210511 
L 398.616625 58.210511 
" style="fill:none;stroke:#ffffff;"/>
     </g>
     <g id="line2d_20">
      <path d="M 41.496625 58.210511 
" style="fill:none;stroke:#333333;stroke-width:1.5;"/>
      <g>
       <use style="fill:#333333;stroke:#000000;" x="41.496625" xlink:href="#mcb03787cd1" y="58.210511"/>
      </g>
     </g>
     <g id="text_9">
      <!-- 0.8 -->
      <g style="fill:#4d4d4d;" transform="translate(22.551875 60.638761)scale(0.088 -0.088)">
       <defs>
        <path d="M 2034 2216 
Q 1584 2216 1326 1975 
Q 1069 1734 1069 1313 
Q 1069 891 1326 650 
Q 1584 409 2034 409 
Q 2484 409 2743 651 
Q 3003 894 3003 1313 
Q 3003 1734 2745 1975 
Q 2488 2216 2034 2216 
z
M 1403 2484 
Q 997 2584 770 2862 
Q 544 3141 544 3541 
Q 544 4100 942 4425 
Q 1341 4750 2034 4750 
Q 2731 4750 3128 4425 
Q 3525 4100 3525 3541 
Q 3525 3141 3298 2862 
Q 3072 2584 2669 2484 
Q 3125 2378 3379 2068 
Q 3634 1759 3634 1313 
Q 3634 634 3220 271 
Q 2806 -91 2034 -91 
Q 1263 -91 848 271 
Q 434 634 434 1313 
Q 434 1759 690 2068 
Q 947 2378 1403 2484 
z
M 1172 3481 
Q 1172 3119 1398 2916 
Q 1625 2713 2034 2713 
Q 2441 2713 2670 2916 
Q 2900 3119 2900 3481 
Q 2900 3844 2670 4047 
Q 2441 4250 2034 4250 
Q 1625 4250 1398 4047 
Q 1172 3844 1172 3481 
z
" id="DejaVuSans-38" transform="scale(0.015625)"/>
       </defs>
       <use xlink:href="#DejaVuSans-30"/>
       <use x="63.623047" xlink:href="#DejaVuSans-2e"/>
       <use x="95.410156" xlink:href="#DejaVuSans-38"/>
      </g>
     </g>
    </g>
    <g id="ytick_5">
     <g id="line2d_21">
      <path clip-path="url(#pa981ed7c16)" d="M 41.496625 227.283369 
L 398.616625 227.283369 
" style="fill:none;stroke:#ffffff;stroke-width:0.5;"/>
     </g>
    </g>
    <g id="ytick_6">
     <g id="line2d_22">
      <path clip-path="url(#pa981ed7c16)" d="M 41.496625 159.654226 
L 398.616625 159.654226 
" style="fill:none;stroke:#ffffff;stroke-width:0.5;"/>
     </g>
    </g>
    <g id="ytick_7">
     <g id="line2d_23">
      <path clip-path="url(#pa981ed7c16)" d="M 41.496625 92.025083 
L 398.616625 92.025083 
" style="fill:none;stroke:#ffffff;stroke-width:0.5;"/>
     </g>
    </g>
    <g id="text_10">
     <!-- balanced_accuracy -->
     <g transform="translate(15.558281 210.144855)rotate(-90)scale(0.11 -0.11)">
      <defs>
       <path d="M 3116 1747 
Q 3116 2381 2855 2742 
Q 2594 3103 2138 3103 
Q 1681 3103 1420 2742 
Q 1159 2381 1159 1747 
Q 1159 1113 1420 752 
Q 1681 391 2138 391 
Q 2594 391 2855 752 
Q 3116 1113 3116 1747 
z
M 1159 2969 
Q 1341 3281 1617 3432 
Q 1894 3584 2278 3584 
Q 2916 3584 3314 3078 
Q 3713 2572 3713 1747 
Q 3713 922 3314 415 
Q 2916 -91 2278 -91 
Q 1894 -91 1617 61 
Q 1341 213 1159 525 
L 1159 0 
L 581 0 
L 581 4863 
L 1159 4863 
L 1159 2969 
z
" id="DejaVuSans-62" transform="scale(0.015625)"/>
       <path d="M 603 4863 
L 1178 4863 
L 1178 0 
L 603 0 
L 603 4863 
z
" id="DejaVuSans-6c" transform="scale(0.015625)"/>
       <path d="M 3597 1894 
L 3597 1613 
L 953 1613 
Q 991 1019 1311 708 
Q 1631 397 2203 397 
Q 2534 397 2845 478 
Q 3156 559 3463 722 
L 3463 178 
Q 3153 47 2828 -22 
Q 2503 -91 2169 -91 
Q 1331 -91 842 396 
Q 353 884 353 1716 
Q 353 2575 817 3079 
Q 1281 3584 2069 3584 
Q 2775 3584 3186 3129 
Q 3597 2675 3597 1894 
z
M 3022 2063 
Q 3016 2534 2758 2815 
Q 2500 3097 2075 3097 
Q 1594 3097 1305 2825 
Q 1016 2553 972 2059 
L 3022 2063 
z
" id="DejaVuSans-65" transform="scale(0.015625)"/>
       <path d="M 2906 2969 
L 2906 4863 
L 3481 4863 
L 3481 0 
L 2906 0 
L 2906 525 
Q 2725 213 2448 61 
Q 2172 -91 1784 -91 
Q 1150 -91 751 415 
Q 353 922 353 1747 
Q 353 2572 751 3078 
Q 1150 3584 1784 3584 
Q 2172 3584 2448 3432 
Q 2725 3281 2906 2969 
z
M 947 1747 
Q 947 1113 1208 752 
Q 1469 391 1925 391 
Q 2381 391 2643 752 
Q 2906 1113 2906 1747 
Q 2906 2381 2643 2742 
Q 2381 3103 1925 3103 
Q 1469 3103 1208 2742 
Q 947 2381 947 1747 
z
" id="DejaVuSans-64" transform="scale(0.015625)"/>
       <path d="M 2059 -325 
Q 1816 -950 1584 -1140 
Q 1353 -1331 966 -1331 
L 506 -1331 
L 506 -850 
L 844 -850 
Q 1081 -850 1212 -737 
Q 1344 -625 1503 -206 
L 1606 56 
L 191 3500 
L 800 3500 
L 1894 763 
L 2988 3500 
L 3597 3500 
L 2059 -325 
z
" id="DejaVuSans-79" transform="scale(0.015625)"/>
      </defs>
      <use xlink:href="#DejaVuSans-62"/>
      <use x="63.476562" xlink:href="#DejaVuSans-61"/>
      <use x="124.755859" xlink:href="#DejaVuSans-6c"/>
      <use x="152.539062" xlink:href="#DejaVuSans-61"/>
      <use x="213.818359" xlink:href="#DejaVuSans-6e"/>
      <use x="277.197266" xlink:href="#DejaVuSans-63"/>
      <use x="332.177734" xlink:href="#DejaVuSans-65"/>
      <use x="393.701172" xlink:href="#DejaVuSans-64"/>
      <use x="457.177734" xlink:href="#DejaVuSans-5f"/>
      <use x="507.177734" xlink:href="#DejaVuSans-61"/>
      <use x="568.457031" xlink:href="#DejaVuSans-63"/>
      <use x="623.4375" xlink:href="#DejaVuSans-63"/>
      <use x="678.417969" xlink:href="#DejaVuSans-75"/>
      <use x="741.796875" xlink:href="#DejaVuSans-72"/>
      <use x="782.910156" xlink:href="#DejaVuSans-61"/>
      <use x="844.189453" xlink:href="#DejaVuSans-63"/>
      <use x="899.169922" xlink:href="#DejaVuSans-79"/>
     </g>
    </g>
   </g>
   <g id="PolyCollection_1">
    <path clip-path="url(#pa981ed7c16)" d="M 60.798454 169.023819 
L 60.798454 213.426235 
L 94.417468 169.156581 
L 94.452745 169.119312 
L 128.071758 138.483861 
L 161.690772 114.531213 
L 161.726049 114.509632 
L 195.345063 96.297313 
L 228.964076 89.67344 
L 228.999353 89.666793 
L 262.58309 92.132363 
L 262.618367 92.129478 
L 296.23738 88.179708 
L 296.272657 88.172904 
L 329.856394 81.817545 
L 329.891671 81.812734 
L 363.510684 82.631502 
L 363.545961 82.638109 
L 363.545961 38.201371 
L 363.545961 38.201371 
L 363.510684 38.226576 
L 329.891671 54.828244 
L 329.856394 54.837918 
L 296.272657 60.167672 
L 296.23738 60.170818 
L 262.618367 62.587814 
L 262.58309 62.590695 
L 228.999353 60.124475 
L 228.964076 60.131136 
L 195.345063 66.75565 
L 161.726049 84.965548 
L 161.690772 84.987132 
L 128.071758 110.474451 
L 94.452745 142.139256 
L 94.417468 142.171656 
L 60.798454 169.023819 
z
" style="fill:#999999;fill-opacity:0.4;"/>
   </g>
   <g id="PolyCollection_2">
    <path clip-path="url(#pa981ed7c16)" d="M 60.798454 146.430873 
L 60.798454 183.146967 
L 94.417468 150.887209 
L 94.452745 150.860706 
L 128.071758 129.457099 
L 161.690772 113.902642 
L 161.726049 113.886942 
L 195.345063 99.172062 
L 228.964076 88.733454 
L 228.999353 88.726252 
L 262.58309 89.429409 
L 262.618367 89.426528 
L 296.23738 86.762378 
L 296.272657 86.756749 
L 329.856394 81.81679 
L 329.891671 81.813084 
L 363.510684 82.735715 
L 363.545961 82.741415 
L 363.545961 45.99694 
L 363.545961 45.99694 
L 363.510684 46.017546 
L 329.891671 59.49977 
L 329.856394 59.507497 
L 296.272657 63.59939 
L 296.23738 63.601994 
L 262.618367 64.998701 
L 262.58309 65.00158 
L 228.999353 64.297885 
L 228.964076 64.305099 
L 195.345063 74.744236 
L 161.726049 89.457114 
L 161.690772 89.472817 
L 128.071758 106.296285 
L 94.452745 128.551058 
L 94.417468 128.573535 
L 60.798454 146.430873 
z
" style="fill:#999999;fill-opacity:0.4;"/>
   </g>
   <g id="PolyCollection_3">
    <path clip-path="url(#pa981ed7c16)" d="M 60.798454 207.673903 
L 60.798454 244.554157 
L 94.417468 208.442833 
L 94.452745 208.412668 
L 128.071758 183.902596 
L 161.690772 165.040723 
L 161.726049 165.022664 
L 195.345063 149.705852 
L 228.964076 139.055363 
L 228.999353 139.046894 
L 262.58309 136.640287 
L 262.618367 136.636415 
L 296.23738 133.74747 
L 296.272657 133.742425 
L 329.856394 130.048408 
L 329.891671 130.046967 
L 363.510684 134.015755 
L 363.545961 134.025559 
L 363.545961 97.116796 
L 363.545961 97.116796 
L 363.510684 97.133416 
L 329.891671 107.633888 
L 329.856394 107.639369 
L 296.272657 110.481527 
L 296.23738 110.483534 
L 262.618367 112.099369 
L 262.58309 112.103238 
L 228.999353 114.509306 
L 228.964076 114.517786 
L 195.345063 125.168807 
L 161.726049 140.483608 
L 161.690772 140.50167 
L 128.071758 160.638228 
L 94.452745 186.003271 
L 94.417468 186.029392 
L 60.798454 207.673903 
z
" style="fill:#999999;fill-opacity:0.4;"/>
   </g>
   <g id="PolyCollection_4">
    <path clip-path="url(#pa981ed7c16)" d="M 57.729352 255.449305 
L 57.729352 280.121371 
L 60.022359 275.476842 
L 60.163468 275.194283 
L 60.269299 274.982612 
L 60.304576 274.912103 
L 60.551515 274.419201 
L 60.622069 274.278586 
L 60.7279 274.06784 
L 60.833731 273.857309 
L 60.904285 273.717074 
L 61.151225 273.226999 
L 61.186502 273.157083 
L 62.209536 271.139902 
L 62.562306 270.448979 
L 62.668137 270.242169 
L 88.279264 226.720549 
L 92.900555 220.263256 
L 93.182772 219.882282 
L 93.359157 219.644944 
L 93.429711 219.550177 
L 93.958866 218.842624 
L 94.064697 218.701788 
L 94.27636 218.420787 
L 94.523299 218.094079 
L 94.664407 217.907933 
L 95.158286 217.259515 
L 95.22884 217.167276 
L 97.274908 214.534279 
L 97.945171 213.6891 
L 98.19211 213.37984 
L 118.829175 191.101598 
L 125.743474 184.977611 
L 126.202076 184.591526 
L 126.449015 184.384624 
L 126.554846 184.296164 
L 127.366218 183.622149 
L 127.542603 183.476597 
L 127.824819 183.244432 
L 128.212867 182.927323 
L 128.424529 182.755622 
L 129.165346 182.161639 
L 129.271178 182.077662 
L 132.34028 179.735071 
L 133.363314 178.992867 
L 133.716084 178.741279 
L 149.379087 169.543614 
L 158.62167 165.462716 
L 159.22138 165.217213 
L 159.538873 165.087837 
L 159.679981 165.030461 
L 160.773569 164.588116 
L 160.985231 164.502927 
L 161.408556 164.332905 
L 161.902434 164.135084 
L 162.149373 164.036364 
L 163.172407 163.628452 
L 163.313516 163.572295 
L 167.370374 162.101707 
L 168.746179 161.667553 
L 169.240057 161.519629 
L 179.964276 159.326675 
L 191.499866 158.844153 
L 192.240684 158.855082 
L 192.628731 158.861783 
L 192.805116 158.865022 
L 194.18092 158.893518 
L 194.463137 158.899877 
L 194.957015 158.911238 
L 195.592002 158.926046 
L 195.909495 158.933434 
L 197.179468 158.961823 
L 197.355854 158.965513 
L 202.435746 159.004188 
L 204.164321 158.968409 
L 204.764031 158.947847 
L 210.514187 158.94524 
L 224.342785 160.538349 
L 225.259988 160.715537 
L 225.718589 160.807097 
L 225.930251 160.850011 
L 227.588272 161.200047 
L 227.905765 161.269797 
L 228.505475 161.403839 
L 229.246292 161.573435 
L 229.669617 161.672272 
L 231.186529 162.037271 
L 231.362914 162.080755 
L 237.501118 163.697121 
L 239.547186 164.262836 
L 240.288004 164.468353 
L 241.064099 164.683384 
L 257.22098 168.24325 
L 258.279292 168.355835 
L 258.808447 168.403926 
L 259.055386 168.425026 
L 260.995623 168.588661 
L 261.348393 168.618018 
L 262.089211 168.679293 
L 262.93586 168.748729 
L 263.394461 168.786087 
L 265.19359 168.931066 
L 265.405252 168.947967 
L 271.61401 169.430903 
L 272.531213 169.500082 
L 274.930052 169.67754 
L 275.811978 169.741231 
L 290.063899 170.473574 
L 291.298596 170.489257 
L 291.898305 170.492725 
L 292.180521 170.493375 
L 294.402975 170.475249 
L 294.826299 170.466882 
L 295.637671 170.446217 
L 296.625428 170.416755 
L 297.154583 170.40052 
L 299.200651 170.334712 
L 299.44759 170.326438 
L 302.163922 170.230595 
L 307.596585 170.011835 
L 310.348194 169.887285 
L 311.335951 169.84038 
L 322.942095 169.213761 
L 324.317899 169.132232 
L 324.988163 169.092152 
L 325.305656 169.073093 
L 327.810326 168.921426 
L 328.268927 168.893466 
L 329.18613 168.837438 
L 330.314995 168.768374 
L 330.914705 168.731678 
L 332.749111 168.619654 
L 333.207712 168.591749 
L 333.489928 168.57465 
L 342.661957 168.100984 
L 345.731059 167.987701 
L 346.859924 167.952617 
L 355.820291 167.804115 
L 357.337203 167.80155 
L 358.078021 167.802583 
L 358.466069 167.803714 
L 361.217677 167.823121 
L 361.746833 167.829088 
L 362.769867 167.842613 
L 364.004563 167.862354 
L 364.674827 167.874603 
L 367.214773 167.930482 
L 367.532266 167.938491 
L 377.727329 168.304391 
L 381.149202 168.469254 
L 382.383898 168.533309 
L 382.383898 136.183236 
L 382.383898 136.183236 
L 381.149202 136.878999 
L 377.727329 138.749719 
L 367.532266 143.79911 
L 367.214773 143.943201 
L 364.674827 145.066137 
L 364.004563 145.353536 
L 362.769867 145.873056 
L 361.746833 146.293709 
L 361.217677 146.507772 
L 358.466069 147.581772 
L 358.078021 147.7279 
L 357.337203 148.003171 
L 355.820291 148.551574 
L 346.859924 151.363891 
L 345.731059 151.665678 
L 342.661957 152.426728 
L 333.489928 154.198242 
L 333.207712 154.241357 
L 332.749111 154.309971 
L 330.914705 154.566405 
L 330.314995 154.644173 
L 329.18613 154.782756 
L 328.268927 154.888068 
L 327.810326 154.938343 
L 325.305656 155.18615 
L 324.988163 155.214455 
L 324.317899 155.272011 
L 322.942095 155.381076 
L 311.335951 155.895393 
L 310.348194 155.911987 
L 307.596585 155.94103 
L 302.163922 155.936445 
L 299.44759 155.910213 
L 299.200651 155.907204 
L 297.154583 155.878861 
L 296.625428 155.870638 
L 295.637671 155.854439 
L 294.826299 155.839003 
L 294.402975 155.829615 
L 292.180521 155.765729 
L 291.898305 155.755895 
L 291.298596 155.733727 
L 290.063899 155.68269 
L 275.811978 154.597813 
L 274.930052 154.504903 
L 272.531213 154.242475 
L 271.61401 154.139201 
L 265.405252 153.429731 
L 265.19359 153.406088 
L 263.394461 153.209334 
L 262.93586 153.160636 
L 262.089211 153.072621 
L 261.348393 152.997854 
L 260.995623 152.963061 
L 259.055386 152.782341 
L 258.808447 152.760763 
L 258.279292 152.713551 
L 257.22098 152.611188 
L 241.064099 149.910004 
L 240.288004 149.733855 
L 239.547186 149.56247 
L 237.501118 149.073762 
L 231.362914 147.503801 
L 231.186529 147.457196 
L 229.669617 147.055102 
L 229.246292 146.942691 
L 228.505475 146.746063 
L 227.905765 146.587163 
L 227.588272 146.503207 
L 225.930251 146.067871 
L 225.718589 146.012801 
L 225.259988 145.893984 
L 224.342785 145.65873 
L 210.514187 143.036769 
L 204.764031 142.878804 
L 204.164321 142.90331 
L 202.435746 142.976874 
L 197.355854 143.219629 
L 197.179468 143.228765 
L 195.909495 143.295891 
L 195.592002 143.313041 
L 194.957015 143.347778 
L 194.463137 143.375199 
L 194.18092 143.391027 
L 192.805116 143.469861 
L 192.628731 143.480172 
L 192.240684 143.503023 
L 191.499866 143.547303 
L 179.964276 144.426434 
L 169.240057 146.19313 
L 168.746179 146.319324 
L 167.370374 146.698908 
L 163.313516 148.087542 
L 163.172407 148.143563 
L 162.149373 148.553 
L 161.902434 148.652719 
L 161.408556 148.853231 
L 160.985231 149.026264 
L 160.773569 149.113192 
L 159.679981 149.566823 
L 159.538873 149.62592 
L 159.22138 149.759371 
L 158.62167 150.013303 
L 149.379087 154.288464 
L 133.716084 163.858522 
L 133.363314 164.121909 
L 132.34028 164.900417 
L 129.271178 167.373402 
L 129.165346 167.462513 
L 128.424529 168.09371 
L 128.212867 168.27646 
L 127.824819 168.614312 
L 127.542603 168.861785 
L 127.366218 169.016897 
L 126.554846 169.734797 
L 126.449015 169.828969 
L 126.202076 170.04918 
L 125.743474 170.459926 
L 118.829175 176.936922 
L 98.19211 199.505936 
L 97.945171 199.805142 
L 97.274908 200.620649 
L 95.22884 203.140411 
L 95.158286 203.228109 
L 94.664407 203.843497 
L 94.523299 204.019804 
L 94.27636 204.328856 
L 94.064697 204.594278 
L 93.958866 204.727169 
L 93.429711 205.393417 
L 93.359157 205.482476 
L 93.182772 205.705327 
L 92.900555 206.062462 
L 88.279264 212.00748 
L 62.668137 247.935797 
L 62.562306 248.094706 
L 62.209536 248.625056 
L 61.186502 250.168791 
L 61.151225 250.222176 
L 60.904285 250.596153 
L 60.833731 250.703096 
L 60.7279 250.863586 
L 60.622069 251.024168 
L 60.551515 251.131274 
L 60.304576 251.506467 
L 60.269299 251.560107 
L 60.163468 251.721089 
L 60.022359 251.935874 
L 57.729352 255.449305 
z
" style="fill:#999999;fill-opacity:0.4;"/>
   </g>
   <g id="PolyCollection_5">
    <path clip-path="url(#pa981ed7c16)" d="M 57.729352 207.916775 
L 57.729352 226.29955 
L 60.022359 224.013255 
L 60.163468 223.874119 
L 60.269299 223.769886 
L 60.304576 223.735165 
L 60.551515 223.492432 
L 60.622069 223.423183 
L 60.7279 223.319394 
L 60.833731 223.215707 
L 60.904285 223.14664 
L 61.151225 222.905265 
L 61.186502 222.870828 
L 62.209536 221.877155 
L 62.562306 221.536751 
L 62.668137 221.434855 
L 88.279264 199.967195 
L 92.900555 196.777953 
L 93.182772 196.589616 
L 93.359157 196.472273 
L 93.429711 196.425415 
L 93.958866 196.075453 
L 94.064697 196.00577 
L 94.27636 195.866713 
L 94.523299 195.704997 
L 94.664407 195.612836 
L 95.158286 195.291692 
L 95.22884 195.245993 
L 97.274908 193.93983 
L 97.945171 193.519816 
L 98.19211 193.366031 
L 118.829175 182.072085 
L 125.743474 178.850091 
L 126.202076 178.644498 
L 126.449015 178.534191 
L 126.554846 178.487001 
L 127.366218 178.126885 
L 127.542603 178.048988 
L 127.824819 177.924639 
L 128.212867 177.754187 
L 128.424529 177.661455 
L 129.165346 177.338235 
L 129.271178 177.292232 
L 132.34028 175.977109 
L 133.363314 175.547102 
L 133.716084 175.399826 
L 149.379087 169.443727 
L 158.62167 166.482684 
L 159.22138 166.302827 
L 159.538873 166.208134 
L 159.679981 166.166163 
L 160.773569 165.843219 
L 160.985231 165.781179 
L 161.408556 165.657537 
L 161.902434 165.514012 
L 162.149373 165.442536 
L 163.172407 165.148382 
L 163.313516 165.108051 
L 167.370374 163.997791 
L 168.746179 163.644597 
L 169.240057 163.520899 
L 179.964276 161.295263 
L 191.499866 159.923209 
L 192.240684 159.862388 
L 192.628731 159.831315 
L 192.805116 159.817355 
L 194.18092 159.711467 
L 194.463137 159.690299 
L 194.957015 159.653604 
L 195.592002 159.60695 
L 195.909495 159.583787 
L 197.179468 159.491658 
L 197.355854 159.47887 
L 202.435746 159.088452 
L 204.164321 158.935282 
L 204.764031 158.878449 
L 210.514187 158.369712 
L 224.342785 157.63607 
L 225.259988 157.618182 
L 225.718589 157.610831 
L 225.930251 157.607798 
L 227.588272 157.591901 
L 227.905765 157.590446 
L 228.505475 157.589082 
L 229.246292 157.589882 
L 229.669617 157.591562 
L 231.186529 157.604746 
L 231.362914 157.606993 
L 237.501118 157.767482 
L 239.547186 157.849746 
L 240.288004 157.881952 
L 241.064099 157.916766 
L 257.22098 158.474067 
L 258.279292 158.469881 
L 258.808447 158.464618 
L 259.055386 158.461619 
L 260.995623 158.435988 
L 261.348393 158.430995 
L 262.089211 158.420253 
L 262.93586 158.407633 
L 263.394461 158.400683 
L 265.19359 158.373046 
L 265.405252 158.369789 
L 271.61401 158.282975 
L 272.531213 158.272702 
L 274.930052 158.250153 
L 275.811978 158.243516 
L 290.063899 158.216281 
L 291.298596 158.212648 
L 291.898305 158.210196 
L 292.180521 158.208868 
L 294.402975 158.193958 
L 294.826299 158.190126 
L 295.637671 158.181805 
L 296.625428 158.171366 
L 297.154583 158.166181 
L 299.200651 158.148841 
L 299.44759 158.147043 
L 302.163922 158.131569 
L 307.596585 158.125707 
L 310.348194 158.13671 
L 311.335951 158.143161 
L 322.942095 158.337324 
L 324.317899 158.377489 
L 324.988163 158.39861 
L 325.305656 158.40898 
L 327.810326 158.499406 
L 328.268927 158.517687 
L 329.18613 158.555926 
L 330.314995 158.606154 
L 330.914705 158.634303 
L 332.749111 158.726976 
L 333.207712 158.751743 
L 333.489928 158.767334 
L 342.661957 159.450333 
L 345.731059 159.762121 
L 346.859924 159.887914 
L 355.820291 161.1008 
L 357.337203 161.343489 
L 358.078021 161.465863 
L 358.466069 161.530965 
L 361.217677 162.012137 
L 361.746833 162.108553 
L 362.769867 162.298461 
L 364.004563 162.533753 
L 364.674827 162.664247 
L 367.214773 163.17613 
L 367.532266 163.242025 
L 377.727329 165.573545 
L 381.149202 166.445461 
L 382.383898 166.770575 
L 382.383898 142.667035 
L 382.383898 142.667035 
L 381.149202 142.908051 
L 377.727329 143.552816 
L 367.532266 145.256145 
L 367.214773 145.303577 
L 364.674827 145.670012 
L 364.004563 145.762781 
L 362.769867 145.929283 
L 361.746833 146.062874 
L 361.217677 146.1304 
L 358.466069 146.463909 
L 358.078021 146.508527 
L 357.337203 146.592023 
L 355.820291 146.756029 
L 346.859924 147.52791 
L 345.731059 147.600834 
L 342.661957 147.771686 
L 333.489928 148.055695 
L 333.207712 148.059488 
L 332.749111 148.065052 
L 330.914705 148.079977 
L 330.314995 148.08243 
L 329.18613 148.084 
L 328.268927 148.082481 
L 327.810326 148.080826 
L 325.305656 148.062033 
L 324.988163 148.058552 
L 324.317899 148.050452 
L 322.942095 148.030804 
L 311.335951 147.752967 
L 310.348194 147.723931 
L 307.596585 147.641767 
L 302.163922 147.481218 
L 299.44759 147.405737 
L 299.200651 147.399127 
L 297.154583 147.346317 
L 296.625428 147.333279 
L 295.637671 147.309697 
L 294.826299 147.291119 
L 294.402975 147.281722 
L 292.180521 147.235527 
L 291.898305 147.230012 
L 291.298596 147.218531 
L 290.063899 147.195822 
L 275.811978 146.960389 
L 274.930052 146.945255 
L 272.531213 146.904495 
L 271.61401 146.889365 
L 265.405252 146.807391 
L 265.19359 146.805625 
L 263.394461 146.794684 
L 262.93586 146.793185 
L 262.089211 146.791962 
L 261.348393 146.792652 
L 260.995623 146.793594 
L 259.055386 146.806495 
L 258.808447 146.809139 
L 258.279292 146.815057 
L 257.22098 146.826859 
L 241.064099 146.909349 
L 240.288004 146.903505 
L 239.547186 146.89673 
L 237.501118 146.871843 
L 231.362914 146.745929 
L 231.186529 146.741358 
L 229.669617 146.700535 
L 229.246292 146.688741 
L 228.505475 146.667799 
L 227.905765 146.650641 
L 227.588272 146.641512 
L 225.930251 146.593854 
L 225.718589 146.587829 
L 225.259988 146.574872 
L 224.342785 146.549496 
L 210.514187 146.516556 
L 204.764031 146.905654 
L 204.164321 146.965425 
L 202.435746 147.146748 
L 197.355854 147.746855 
L 197.179468 147.7692 
L 195.909495 147.932496 
L 195.592002 147.97394 
L 194.957015 148.05751 
L 194.463137 148.123101 
L 194.18092 148.1608 
L 192.805116 148.346658 
L 192.628731 148.370714 
L 192.240684 148.423806 
L 191.499866 148.525762 
L 179.964276 150.193323 
L 169.240057 152.101361 
L 168.746179 152.208869 
L 167.370374 152.521404 
L 163.313516 153.570601 
L 163.172407 153.610831 
L 162.149373 153.90612 
L 161.902434 153.978341 
L 161.408556 154.123871 
L 160.985231 154.249756 
L 160.773569 154.313092 
L 159.679981 154.644445 
L 159.538873 154.687698 
L 159.22138 154.785427 
L 158.62167 154.971565 
L 149.379087 158.07735 
L 133.716084 164.310914 
L 133.363314 164.466981 
L 132.34028 164.924037 
L 129.271178 166.336315 
L 129.165346 166.386144 
L 128.424529 166.737091 
L 128.212867 166.838056 
L 127.824819 167.023962 
L 127.542603 167.159717 
L 127.366218 167.244738 
L 126.554846 167.637552 
L 126.449015 167.688996 
L 126.202076 167.809221 
L 125.743474 168.033188 
L 118.829175 171.518204 
L 98.19211 183.0288 
L 97.945171 183.175093 
L 97.274908 183.572998 
L 95.22884 184.794793 
L 95.158286 184.837108 
L 94.664407 185.133643 
L 94.523299 185.218472 
L 94.27636 185.367033 
L 94.064697 185.494482 
L 93.958866 185.558244 
L 93.429711 185.877431 
L 93.359157 185.920036 
L 93.182772 186.026586 
L 92.900555 186.197161 
L 88.279264 189.004715 
L 62.668137 204.814721 
L 62.562306 204.880927 
L 62.209536 205.101691 
L 61.186502 205.742607 
L 61.151225 205.764726 
L 60.904285 205.919599 
L 60.833731 205.96386 
L 60.7279 206.030262 
L 60.622069 206.096675 
L 60.551515 206.140957 
L 60.304576 206.295987 
L 60.269299 206.318139 
L 60.163468 206.384605 
L 60.022359 206.473244 
L 57.729352 207.916775 
z
" style="fill:#999999;fill-opacity:0.4;"/>
   </g>
   <g id="PolyCollection_6">
    <path clip-path="url(#pa981ed7c16)" d="M 57.729352 238.682046 
L 57.729352 273.228788 
L 60.022359 271.063975 
L 60.163468 270.932507 
L 60.269299 270.834041 
L 60.304576 270.801245 
L 60.551515 270.57203 
L 60.622069 270.506655 
L 60.7279 270.40869 
L 60.833731 270.310841 
L 60.904285 270.245673 
L 61.151225 270.01799 
L 61.186502 269.985515 
L 62.209536 269.049401 
L 62.562306 268.729145 
L 62.668137 268.633323 
L 88.279264 249.142311 
L 92.900555 246.416222 
L 93.182772 246.256839 
L 93.359157 246.157622 
L 93.429711 246.118018 
L 93.958866 245.822325 
L 94.064697 245.763469 
L 94.27636 245.646036 
L 94.523299 245.509501 
L 94.664407 245.431706 
L 95.158286 245.160711 
L 95.22884 245.12216 
L 97.274908 244.021418 
L 97.945171 243.667912 
L 98.19211 243.538532 
L 118.829175 234.11108 
L 125.743474 231.46721 
L 126.202076 231.3 
L 126.449015 231.210379 
L 126.554846 231.172059 
L 127.366218 230.880047 
L 127.542603 230.816981 
L 127.824819 230.716384 
L 128.212867 230.577509 
L 128.424529 230.501081 
L 129.165346 230.229932 
L 129.271178 230.190745 
L 132.34028 229.010305 
L 133.363314 228.60038 
L 133.716084 228.457433 
L 149.379087 221.906859 
L 158.62167 218.567658 
L 159.22138 218.378427 
L 159.538873 218.279795 
L 159.679981 218.236306 
L 160.773569 217.906665 
L 160.985231 217.8444 
L 161.408556 217.721394 
L 161.902434 217.580484 
L 162.149373 217.511091 
L 163.172407 217.23129 
L 163.313516 217.193683 
L 167.370374 216.204649 
L 168.746179 215.91096 
L 169.240057 215.810934 
L 179.964276 214.41205 
L 191.499866 214.479233 
L 192.240684 214.517043 
L 192.628731 214.537324 
L 192.805116 214.546619 
L 194.18092 214.619701 
L 194.463137 214.634599 
L 194.957015 214.660378 
L 195.592002 214.692709 
L 195.909495 214.708413 
L 197.179468 214.766953 
L 197.355854 214.77442 
L 202.435746 214.872563 
L 204.164321 214.832414 
L 204.764031 214.807081 
L 210.514187 214.540257 
L 224.342785 214.214179 
L 225.259988 214.223089 
L 225.718589 214.229367 
L 225.930251 214.232679 
L 227.588272 214.26777 
L 227.905765 214.27635 
L 228.505475 214.29419 
L 229.246292 214.319162 
L 229.669617 214.334877 
L 231.186529 214.399645 
L 231.362914 214.408015 
L 237.501118 214.792128 
L 239.547186 214.948979 
L 240.288004 215.0074 
L 241.064099 215.069002 
L 257.22098 215.71131 
L 258.279292 215.658702 
L 258.808447 215.625759 
L 259.055386 215.608962 
L 260.995623 215.453002 
L 261.348393 215.420344 
L 262.089211 215.34778 
L 262.93586 215.258596 
L 263.394461 215.207669 
L 265.19359 214.991806 
L 265.405252 214.964868 
L 271.61401 214.07223 
L 272.531213 213.929275 
L 274.930052 213.549878 
L 275.811978 213.409454 
L 290.063899 211.273145 
L 291.298596 211.107656 
L 291.898305 211.028578 
L 292.180521 210.991664 
L 294.402975 210.707913 
L 294.826299 210.655328 
L 295.637671 210.555943 
L 296.625428 210.435399 
L 297.154583 210.37027 
L 299.200651 210.115345 
L 299.44759 210.084292 
L 302.163922 209.739842 
L 307.596585 209.046959 
L 310.348194 208.702294 
L 311.335951 208.580823 
L 322.942095 207.334232 
L 324.317899 207.21971 
L 324.988163 207.167374 
L 325.305656 207.143412 
L 327.810326 206.974358 
L 328.268927 206.947483 
L 329.18613 206.897784 
L 330.314995 206.844348 
L 330.914705 206.819581 
L 332.749111 206.76031 
L 333.207712 206.749545 
L 333.489928 206.743737 
L 342.661957 206.908626 
L 345.731059 207.127956 
L 346.859924 207.230219 
L 355.820291 208.453409 
L 357.337203 208.731422 
L 358.078021 208.874431 
L 358.466069 208.951218 
L 361.217677 209.532183 
L 361.746833 209.651128 
L 362.769867 209.887576 
L 364.004563 210.184193 
L 364.674827 210.350298 
L 367.214773 211.011564 
L 367.532266 211.097704 
L 377.727329 214.250283 
L 381.149202 215.465579 
L 382.383898 215.922143 
L 382.383898 170.624369 
L 382.383898 170.624369 
L 381.149202 171.231731 
L 377.727329 172.866733 
L 367.532266 177.296846 
L 367.214773 177.423682 
L 364.674827 178.413037 
L 364.004563 178.66651 
L 362.769867 179.124987 
L 361.746833 179.49649 
L 361.217677 179.68564 
L 358.466069 180.635704 
L 358.078021 180.765115 
L 357.337203 181.008996 
L 355.820291 181.495285 
L 346.859924 184.002069 
L 345.731059 184.273254 
L 342.661957 184.96095 
L 333.489928 186.613357 
L 333.207712 186.655593 
L 332.749111 186.72336 
L 330.914705 186.984841 
L 330.314995 187.067117 
L 329.18613 187.217896 
L 328.268927 187.336605 
L 327.810326 187.394726 
L 325.305656 187.698398 
L 324.988163 187.735307 
L 324.317899 187.812113 
L 322.942095 187.965193 
L 311.335951 189.054534 
L 310.348194 189.133563 
L 307.596585 189.344495 
L 302.163922 189.724642 
L 299.44759 189.898159 
L 299.200651 189.913412 
L 297.154583 190.036503 
L 296.625428 190.067386 
L 295.637671 190.123994 
L 294.826299 190.172829 
L 294.402975 190.200552 
L 292.180521 190.369467 
L 291.898305 190.393521 
L 291.298596 190.446415 
L 290.063899 190.562401 
L 275.811978 192.205077 
L 274.930052 192.304588 
L 272.531213 192.565007 
L 271.61401 192.660221 
L 265.405252 193.235658 
L 265.19359 193.253155 
L 263.394461 193.39652 
L 262.93586 193.43157 
L 262.089211 193.494738 
L 261.348393 193.54841 
L 260.995623 193.573456 
L 259.055386 193.705493 
L 258.808447 193.721621 
L 258.279292 193.755795 
L 257.22098 193.822715 
L 241.064099 194.382766 
L 240.288004 194.375609 
L 239.547186 194.36498 
L 237.501118 194.315958 
L 231.362914 193.996823 
L 231.186529 193.984083 
L 229.669617 193.867373 
L 229.246292 193.832651 
L 228.505475 193.769827 
L 227.905765 193.71718 
L 227.588272 193.688708 
L 225.930251 193.534178 
L 225.718589 193.513844 
L 225.259988 193.4694 
L 224.342785 193.379184 
L 210.514187 192.264625 
L 204.764031 192.306611 
L 204.164321 192.337467 
L 202.435746 192.430524 
L 197.355854 192.726449 
L 197.179468 192.736941 
L 195.909495 192.812146 
L 195.592002 192.830798 
L 194.957015 192.867843 
L 194.463137 192.896368 
L 194.18092 192.912538 
L 192.805116 192.989742 
L 192.628731 192.999421 
L 192.240684 193.020519 
L 191.499866 193.060014 
L 179.964276 193.548179 
L 169.240057 194.350201 
L 168.746179 194.419799 
L 167.370374 194.637077 
L 163.313516 195.511357 
L 163.172407 195.548774 
L 162.149373 195.830709 
L 161.902434 195.901501 
L 161.408556 196.04618 
L 160.985231 196.173402 
L 160.773569 196.238101 
L 159.679981 196.583547 
L 159.538873 196.629444 
L 159.22138 196.733782 
L 158.62167 196.934816 
L 149.379087 200.546031 
L 133.716084 207.618044 
L 133.363314 207.777513 
L 132.34028 208.238272 
L 129.271178 209.601295 
L 129.165346 209.647671 
L 128.424529 209.970929 
L 128.212867 210.062827 
L 127.824819 210.230746 
L 127.542603 210.352779 
L 127.366218 210.429232 
L 126.554846 210.782693 
L 126.449015 210.829009 
L 126.202076 210.937268 
L 125.743474 211.139008 
L 118.829175 214.277174 
L 98.19211 224.111776 
L 97.945171 224.227079 
L 97.274908 224.539036 
L 95.22884 225.481223 
L 95.158286 225.513416 
L 94.664407 225.738161 
L 94.523299 225.802178 
L 94.27636 225.913991 
L 94.064697 226.009609 
L 93.958866 226.05734 
L 93.429711 226.295196 
L 93.359157 226.326808 
L 93.182772 226.405739 
L 92.900555 226.531743 
L 88.279264 228.540525 
L 62.668137 237.399113 
L 62.562306 237.427861 
L 62.209536 237.523277 
L 61.186502 237.796455 
L 61.151225 237.805782 
L 60.904285 237.870901 
L 60.833731 237.889451 
L 60.7279 237.917231 
L 60.622069 237.944956 
L 60.551515 237.963409 
L 60.304576 238.027805 
L 60.269299 238.03698 
L 60.163468 238.064469 
L 60.022359 238.101038 
L 57.729352 238.682046 
z
" style="fill:#999999;fill-opacity:0.4;"/>
   </g>
   <g id="line2d_24">
    <path clip-path="url(#pa981ed7c16)" d="M 60.798454 191.225027 
L 94.417468 155.664118 
L 94.452745 155.629284 
L 128.071758 124.479156 
L 161.690772 99.759173 
L 161.726049 99.73759 
L 195.345063 81.526481 
L 228.964076 74.902288 
L 228.999353 74.895634 
L 262.58309 77.361529 
L 262.618367 77.358646 
L 296.23738 74.175263 
L 296.272657 74.170288 
L 329.856394 68.327732 
L 329.891671 68.320489 
L 363.510684 60.429039 
L 363.545961 60.41974 
" style="fill:none;stroke:#db5f57;stroke-linejoin:miter;stroke-width:1.772454;"/>
   </g>
   <g id="line2d_25">
    <path clip-path="url(#pa981ed7c16)" d="M 60.798454 164.78892 
L 94.417468 139.730372 
L 94.452745 139.705882 
L 128.071758 117.876692 
L 161.690772 101.68773 
L 161.726049 101.672028 
L 195.345063 86.958149 
L 228.964076 76.519277 
L 228.999353 76.512068 
L 262.58309 77.215494 
L 262.618367 77.212614 
L 296.23738 75.182186 
L 296.272657 75.17807 
L 329.856394 70.662144 
L 329.891671 70.656427 
L 363.510684 64.37663 
L 363.545961 64.369178 
" style="fill:none;stroke:#57db5f;stroke-linejoin:miter;stroke-width:1.772454;"/>
   </g>
   <g id="line2d_26">
    <path clip-path="url(#pa981ed7c16)" d="M 60.798454 226.11403 
L 94.417468 197.236113 
L 94.452745 197.207969 
L 128.071758 172.270412 
L 161.690772 152.771196 
L 161.726049 152.753136 
L 195.345063 137.437329 
L 228.964076 126.786575 
L 228.999353 126.7781 
L 262.58309 124.371763 
L 262.618367 124.367892 
L 296.23738 122.115502 
L 296.272657 122.111976 
L 329.856394 118.843888 
L 329.891671 118.840427 
L 363.510684 115.574585 
L 363.545961 115.571178 
" style="fill:none;stroke:#5f57db;stroke-linejoin:miter;stroke-width:1.772454;"/>
   </g>
   <g id="line2d_27">
    <path clip-path="url(#pa981ed7c16)" d="M 57.729352 267.785338 
L 62.668137 259.088983 
L 88.279264 219.364014 
L 95.22884 210.153844 
L 98.19211 206.442888 
L 118.829175 184.01926 
L 128.424529 175.424666 
L 132.34028 172.317744 
L 133.716084 171.2999 
L 149.379087 161.916039 
L 161.408556 156.593068 
L 163.313516 155.829918 
L 169.240057 153.85638 
L 179.964276 151.876555 
L 194.18092 151.142272 
L 204.764031 150.913325 
L 210.514187 150.991005 
L 225.718589 153.409949 
L 231.362914 154.792278 
L 241.064099 157.296694 
L 258.279292 160.534693 
L 275.811978 162.169522 
L 292.180521 163.129552 
L 299.44759 163.118326 
L 311.335951 162.867887 
L 325.305656 162.129622 
L 333.489928 161.386446 
L 346.859924 159.658254 
L 358.466069 157.692743 
L 367.532266 155.8688 
L 382.383898 152.358273 
L 382.383898 152.358273 
" style="fill:none;stroke:#db5f57;stroke-dasharray:6.558079,2.835926;stroke-dashoffset:0;stroke-linejoin:miter;stroke-width:1.772454;"/>
   </g>
   <g id="line2d_28">
    <path clip-path="url(#pa981ed7c16)" d="M 57.729352 217.108162 
L 62.668137 213.124788 
L 88.279264 194.485955 
L 97.274908 188.756414 
L 98.19211 188.197415 
L 118.829175 176.795145 
L 129.271178 171.814274 
L 133.716084 169.85537 
L 149.379087 163.760538 
L 162.149373 159.674328 
L 167.370374 158.259597 
L 169.240057 157.81113 
L 179.964276 155.744293 
L 195.592002 153.790445 
L 204.764031 152.892051 
L 210.514187 152.443134 
L 227.588272 152.116707 
L 237.501118 152.319662 
L 241.064099 152.413057 
L 261.348393 152.611823 
L 275.811978 152.601953 
L 311.335951 152.948064 
L 361.217677 154.071268 
L 382.383898 154.718805 
L 382.383898 154.718805 
" style="fill:none;stroke:#57db5f;stroke-dasharray:6.558079,2.835926;stroke-dashoffset:0;stroke-linejoin:miter;stroke-width:1.772454;"/>
   </g>
   <g id="line2d_29">
    <path clip-path="url(#pa981ed7c16)" d="M 57.729352 255.955417 
L 62.668137 253.016218 
L 88.279264 238.841418 
L 98.19211 233.825154 
L 118.829175 224.194127 
L 133.716084 218.037738 
L 149.379087 211.226445 
L 159.679981 207.409926 
L 163.313516 206.35252 
L 169.240057 205.080568 
L 179.964276 203.980114 
L 210.514187 203.402441 
L 227.905765 203.996765 
L 241.064099 204.725884 
L 258.808447 204.67369 
L 263.394461 204.302095 
L 265.405252 204.100263 
L 275.811978 202.807265 
L 294.402975 200.454232 
L 342.661957 195.934788 
L 362.769867 194.506282 
L 382.383898 193.273256 
L 382.383898 193.273256 
" style="fill:none;stroke:#5f57db;stroke-dasharray:6.558079,2.835926;stroke-dashoffset:0;stroke-linejoin:miter;stroke-width:1.772454;"/>
   </g>
   <g id="patch_3">
    <path d="M 405.816625 232.279308 
L 517.652625 232.279308 
L 517.652625 82.587433 
L 405.816625 82.587433 
z
" style="fill:#ffffff;"/>
   </g>
   <g id="text_11">
    <!-- split -->
    <g transform="translate(418.016625 106.181027)scale(0.11 -0.11)">
     <defs>
      <path d="M 2834 3397 
L 2834 2853 
Q 2591 2978 2328 3040 
Q 2066 3103 1784 3103 
Q 1356 3103 1142 2972 
Q 928 2841 928 2578 
Q 928 2378 1081 2264 
Q 1234 2150 1697 2047 
L 1894 2003 
Q 2506 1872 2764 1633 
Q 3022 1394 3022 966 
Q 3022 478 2636 193 
Q 2250 -91 1575 -91 
Q 1294 -91 989 -36 
Q 684 19 347 128 
L 347 722 
Q 666 556 975 473 
Q 1284 391 1588 391 
Q 1994 391 2212 530 
Q 2431 669 2431 922 
Q 2431 1156 2273 1281 
Q 2116 1406 1581 1522 
L 1381 1569 
Q 847 1681 609 1914 
Q 372 2147 372 2553 
Q 372 3047 722 3315 
Q 1072 3584 1716 3584 
Q 2034 3584 2315 3537 
Q 2597 3491 2834 3397 
z
" id="DejaVuSans-73" transform="scale(0.015625)"/>
      <path d="M 1159 525 
L 1159 -1331 
L 581 -1331 
L 581 3500 
L 1159 3500 
L 1159 2969 
Q 1341 3281 1617 3432 
Q 1894 3584 2278 3584 
Q 2916 3584 3314 3078 
Q 3713 2572 3713 1747 
Q 3713 922 3314 415 
Q 2916 -91 2278 -91 
Q 1894 -91 1617 61 
Q 1341 213 1159 525 
z
M 3116 1747 
Q 3116 2381 2855 2742 
Q 2594 3103 2138 3103 
Q 1681 3103 1420 2742 
Q 1159 2381 1159 1747 
Q 1159 1113 1420 752 
Q 1681 391 2138 391 
Q 2594 391 2855 752 
Q 3116 1113 3116 1747 
z
" id="DejaVuSans-70" transform="scale(0.015625)"/>
     </defs>
     <use xlink:href="#DejaVuSans-73"/>
     <use x="52.099609" xlink:href="#DejaVuSans-70"/>
     <use x="115.576172" xlink:href="#DejaVuSans-6c"/>
     <use x="143.359375" xlink:href="#DejaVuSans-69"/>
     <use x="171.142578" xlink:href="#DejaVuSans-74"/>
    </g>
   </g>
   <g id="patch_4">
    <path clip-path="url(#p086a084889)" d="M 418.016625 125.673371 
L 433.856625 125.673371 
L 433.856625 109.833371 
L 418.016625 109.833371 
z
" style="fill:#f2f2f2;"/>
   </g>
   <g id="patch_5">
    <path clip-path="url(#p086a084889)" d="M 418.016625 121.713371 
L 433.856625 121.713371 
L 433.856625 113.793371 
L 418.016625 113.793371 
z
" style="fill:#999999;opacity:0.4;"/>
   </g>
   <g id="line2d_30">
    <path clip-path="url(#p086a084889)" d="M 418.016625 117.753371 
L 433.856625 117.753371 
" style="fill:none;stroke:#000000;stroke-width:1.772454;"/>
   </g>
   <g id="text_12">
    <!-- sample -->
    <g transform="translate(436.856625 120.181621)scale(0.088 -0.088)">
     <defs>
      <path d="M 3328 2828 
Q 3544 3216 3844 3400 
Q 4144 3584 4550 3584 
Q 5097 3584 5394 3201 
Q 5691 2819 5691 2113 
L 5691 0 
L 5113 0 
L 5113 2094 
Q 5113 2597 4934 2840 
Q 4756 3084 4391 3084 
Q 3944 3084 3684 2787 
Q 3425 2491 3425 1978 
L 3425 0 
L 2847 0 
L 2847 2094 
Q 2847 2600 2669 2842 
Q 2491 3084 2119 3084 
Q 1678 3084 1418 2786 
Q 1159 2488 1159 1978 
L 1159 0 
L 581 0 
L 581 3500 
L 1159 3500 
L 1159 2956 
Q 1356 3278 1631 3431 
Q 1906 3584 2284 3584 
Q 2666 3584 2933 3390 
Q 3200 3197 3328 2828 
z
" id="DejaVuSans-6d" transform="scale(0.015625)"/>
     </defs>
     <use xlink:href="#DejaVuSans-73"/>
     <use x="52.099609" xlink:href="#DejaVuSans-61"/>
     <use x="113.378906" xlink:href="#DejaVuSans-6d"/>
     <use x="210.791016" xlink:href="#DejaVuSans-70"/>
     <use x="274.267578" xlink:href="#DejaVuSans-6c"/>
     <use x="302.050781" xlink:href="#DejaVuSans-65"/>
    </g>
   </g>
   <g id="patch_6">
    <path clip-path="url(#pd0fc6e4074)" d="M 418.016625 143.513371 
L 433.856625 143.513371 
L 433.856625 127.673371 
L 418.016625 127.673371 
z
" style="fill:#f2f2f2;"/>
   </g>
   <g id="patch_7">
    <path clip-path="url(#pd0fc6e4074)" d="M 418.016625 139.553371 
L 433.856625 139.553371 
L 433.856625 131.633371 
L 418.016625 131.633371 
z
" style="fill:#999999;opacity:0.4;"/>
   </g>
   <g id="line2d_31">
    <path clip-path="url(#pd0fc6e4074)" d="M 418.016625 135.593371 
L 433.856625 135.593371 
" style="fill:none;stroke:#000000;stroke-dasharray:6.558079,2.835926;stroke-dashoffset:0;stroke-width:1.772454;"/>
   </g>
   <g id="text_13">
    <!-- study -->
    <g transform="translate(436.856625 138.021621)scale(0.088 -0.088)">
     <use xlink:href="#DejaVuSans-73"/>
     <use x="52.099609" xlink:href="#DejaVuSans-74"/>
     <use x="91.308594" xlink:href="#DejaVuSans-75"/>
     <use x="154.6875" xlink:href="#DejaVuSans-64"/>
     <use x="218.164062" xlink:href="#DejaVuSans-79"/>
    </g>
   </g>
   <g id="text_14">
    <!-- supervised -->
    <g transform="translate(418.016625 164.906964)scale(0.11 -0.11)">
     <defs>
      <path d="M 191 3500 
L 800 3500 
L 1894 563 
L 2988 3500 
L 3597 3500 
L 2284 0 
L 1503 0 
L 191 3500 
z
" id="DejaVuSans-76" transform="scale(0.015625)"/>
     </defs>
     <use xlink:href="#DejaVuSans-73"/>
     <use x="52.099609" xlink:href="#DejaVuSans-75"/>
     <use x="115.478516" xlink:href="#DejaVuSans-70"/>
     <use x="178.955078" xlink:href="#DejaVuSans-65"/>
     <use x="240.478516" xlink:href="#DejaVuSans-72"/>
     <use x="281.591797" xlink:href="#DejaVuSans-76"/>
     <use x="340.771484" xlink:href="#DejaVuSans-69"/>
     <use x="368.554688" xlink:href="#DejaVuSans-73"/>
     <use x="420.654297" xlink:href="#DejaVuSans-65"/>
     <use x="482.177734" xlink:href="#DejaVuSans-64"/>
    </g>
   </g>
   <g id="patch_8">
    <path clip-path="url(#ped26cd5a9c)" d="M 418.016625 184.399308 
L 433.856625 184.399308 
L 433.856625 168.559308 
L 418.016625 168.559308 
z
" style="fill:#f2f2f2;"/>
   </g>
   <g id="patch_9">
    <path clip-path="url(#ped26cd5a9c)" d="M 418.016625 180.439308 
L 433.856625 180.439308 
L 433.856625 172.519308 
L 418.016625 172.519308 
z
" style="fill:#999999;opacity:0.4;"/>
   </g>
   <g id="line2d_32">
    <path clip-path="url(#ped26cd5a9c)" d="M 418.016625 176.479308 
L 433.856625 176.479308 
" style="fill:none;stroke:#db5f57;stroke-width:1.772454;"/>
   </g>
   <g id="text_15">
    <!-- five_layer_net -->
    <g transform="translate(436.856625 178.785183)scale(0.088 -0.088)">
     <defs>
      <path d="M 2375 4863 
L 2375 4384 
L 1825 4384 
Q 1516 4384 1395 4259 
Q 1275 4134 1275 3809 
L 1275 3500 
L 2222 3500 
L 2222 3053 
L 1275 3053 
L 1275 0 
L 697 0 
L 697 3053 
L 147 3053 
L 147 3500 
L 697 3500 
L 697 3744 
Q 697 4328 969 4595 
Q 1241 4863 1831 4863 
L 2375 4863 
z
" id="DejaVuSans-66" transform="scale(0.015625)"/>
     </defs>
     <use xlink:href="#DejaVuSans-66"/>
     <use x="35.205078" xlink:href="#DejaVuSans-69"/>
     <use x="62.988281" xlink:href="#DejaVuSans-76"/>
     <use x="122.167969" xlink:href="#DejaVuSans-65"/>
     <use x="183.691406" xlink:href="#DejaVuSans-5f"/>
     <use x="233.691406" xlink:href="#DejaVuSans-6c"/>
     <use x="261.474609" xlink:href="#DejaVuSans-61"/>
     <use x="322.753906" xlink:href="#DejaVuSans-79"/>
     <use x="381.933594" xlink:href="#DejaVuSans-65"/>
     <use x="443.457031" xlink:href="#DejaVuSans-72"/>
     <use x="484.570312" xlink:href="#DejaVuSans-5f"/>
     <use x="534.570312" xlink:href="#DejaVuSans-6e"/>
     <use x="597.949219" xlink:href="#DejaVuSans-65"/>
     <use x="659.472656" xlink:href="#DejaVuSans-74"/>
    </g>
   </g>
   <g id="patch_10">
    <path clip-path="url(#p5ddaeb1815)" d="M 418.016625 202.239308 
L 433.856625 202.239308 
L 433.856625 186.399308 
L 418.016625 186.399308 
z
" style="fill:#f2f2f2;"/>
   </g>
   <g id="patch_11">
    <path clip-path="url(#p5ddaeb1815)" d="M 418.016625 198.279308 
L 433.856625 198.279308 
L 433.856625 190.359308 
L 418.016625 190.359308 
z
" style="fill:#999999;opacity:0.4;"/>
   </g>
   <g id="line2d_33">
    <path clip-path="url(#p5ddaeb1815)" d="M 418.016625 194.319308 
L 433.856625 194.319308 
" style="fill:none;stroke:#57db5f;stroke-width:1.772454;"/>
   </g>
   <g id="text_16">
    <!-- pytorch_lr -->
    <g transform="translate(436.856625 196.625183)scale(0.088 -0.088)">
     <defs>
      <path d="M 3513 2113 
L 3513 0 
L 2938 0 
L 2938 2094 
Q 2938 2591 2744 2837 
Q 2550 3084 2163 3084 
Q 1697 3084 1428 2787 
Q 1159 2491 1159 1978 
L 1159 0 
L 581 0 
L 581 4863 
L 1159 4863 
L 1159 2956 
Q 1366 3272 1645 3428 
Q 1925 3584 2291 3584 
Q 2894 3584 3203 3211 
Q 3513 2838 3513 2113 
z
" id="DejaVuSans-68" transform="scale(0.015625)"/>
     </defs>
     <use xlink:href="#DejaVuSans-70"/>
     <use x="63.476562" xlink:href="#DejaVuSans-79"/>
     <use x="122.65625" xlink:href="#DejaVuSans-74"/>
     <use x="161.865234" xlink:href="#DejaVuSans-6f"/>
     <use x="223.046875" xlink:href="#DejaVuSans-72"/>
     <use x="261.910156" xlink:href="#DejaVuSans-63"/>
     <use x="316.890625" xlink:href="#DejaVuSans-68"/>
     <use x="380.269531" xlink:href="#DejaVuSans-5f"/>
     <use x="430.269531" xlink:href="#DejaVuSans-6c"/>
     <use x="458.052734" xlink:href="#DejaVuSans-72"/>
    </g>
   </g>
   <g id="patch_12">
    <path clip-path="url(#p8fc347c427)" d="M 418.016625 220.079308 
L 433.856625 220.079308 
L 433.856625 204.239308 
L 418.016625 204.239308 
z
" style="fill:#f2f2f2;"/>
   </g>
   <g id="patch_13">
    <path clip-path="url(#p8fc347c427)" d="M 418.016625 216.119308 
L 433.856625 216.119308 
L 433.856625 208.199308 
L 418.016625 208.199308 
z
" style="fill:#999999;opacity:0.4;"/>
   </g>
   <g id="line2d_34">
    <path clip-path="url(#p8fc347c427)" d="M 418.016625 212.159308 
L 433.856625 212.159308 
" style="fill:none;stroke:#5f57db;stroke-width:1.772454;"/>
   </g>
   <g id="text_17">
    <!-- three_layer_net -->
    <g transform="translate(436.856625 214.465183)scale(0.088 -0.088)">
     <use xlink:href="#DejaVuSans-74"/>
     <use x="39.208984" xlink:href="#DejaVuSans-68"/>
     <use x="102.587891" xlink:href="#DejaVuSans-72"/>
     <use x="141.451172" xlink:href="#DejaVuSans-65"/>
     <use x="202.974609" xlink:href="#DejaVuSans-65"/>
     <use x="264.498047" xlink:href="#DejaVuSans-5f"/>
     <use x="314.498047" xlink:href="#DejaVuSans-6c"/>
     <use x="342.28125" xlink:href="#DejaVuSans-61"/>
     <use x="403.560547" xlink:href="#DejaVuSans-79"/>
     <use x="462.740234" xlink:href="#DejaVuSans-65"/>
     <use x="524.263672" xlink:href="#DejaVuSans-72"/>
     <use x="565.376953" xlink:href="#DejaVuSans-5f"/>
     <use x="615.376953" xlink:href="#DejaVuSans-6e"/>
     <use x="678.755859" xlink:href="#DejaVuSans-65"/>
     <use x="740.279297" xlink:href="#DejaVuSans-74"/>
    </g>
   </g>
  </g>
  <g id="text_18">
   <!-- Recount3 Effects of Data Splitting -->
   <g transform="translate(102.655563 17.229938)scale(0.132 -0.132)">
    <defs>
     <path d="M 2841 2188 
Q 3044 2119 3236 1894 
Q 3428 1669 3622 1275 
L 4263 0 
L 3584 0 
L 2988 1197 
Q 2756 1666 2539 1819 
Q 2322 1972 1947 1972 
L 1259 1972 
L 1259 0 
L 628 0 
L 628 4666 
L 2053 4666 
Q 2853 4666 3247 4331 
Q 3641 3997 3641 3322 
Q 3641 2881 3436 2590 
Q 3231 2300 2841 2188 
z
M 1259 4147 
L 1259 2491 
L 2053 2491 
Q 2509 2491 2742 2702 
Q 2975 2913 2975 3322 
Q 2975 3731 2742 3939 
Q 2509 4147 2053 4147 
L 1259 4147 
z
" id="DejaVuSans-52" transform="scale(0.015625)"/>
     <path d="M 2597 2516 
Q 3050 2419 3304 2112 
Q 3559 1806 3559 1356 
Q 3559 666 3084 287 
Q 2609 -91 1734 -91 
Q 1441 -91 1130 -33 
Q 819 25 488 141 
L 488 750 
Q 750 597 1062 519 
Q 1375 441 1716 441 
Q 2309 441 2620 675 
Q 2931 909 2931 1356 
Q 2931 1769 2642 2001 
Q 2353 2234 1838 2234 
L 1294 2234 
L 1294 2753 
L 1863 2753 
Q 2328 2753 2575 2939 
Q 2822 3125 2822 3475 
Q 2822 3834 2567 4026 
Q 2313 4219 1838 4219 
Q 1578 4219 1281 4162 
Q 984 4106 628 3988 
L 628 4550 
Q 988 4650 1302 4700 
Q 1616 4750 1894 4750 
Q 2613 4750 3031 4423 
Q 3450 4097 3450 3541 
Q 3450 3153 3228 2886 
Q 3006 2619 2597 2516 
z
" id="DejaVuSans-33" transform="scale(0.015625)"/>
     <path id="DejaVuSans-20" transform="scale(0.015625)"/>
     <path d="M 628 4666 
L 3578 4666 
L 3578 4134 
L 1259 4134 
L 1259 2753 
L 3481 2753 
L 3481 2222 
L 1259 2222 
L 1259 531 
L 3634 531 
L 3634 0 
L 628 0 
L 628 4666 
z
" id="DejaVuSans-45" transform="scale(0.015625)"/>
     <path d="M 1259 4147 
L 1259 519 
L 2022 519 
Q 2988 519 3436 956 
Q 3884 1394 3884 2338 
Q 3884 3275 3436 3711 
Q 2988 4147 2022 4147 
L 1259 4147 
z
M 628 4666 
L 1925 4666 
Q 3281 4666 3915 4102 
Q 4550 3538 4550 2338 
Q 4550 1131 3912 565 
Q 3275 0 1925 0 
L 628 0 
L 628 4666 
z
" id="DejaVuSans-44" transform="scale(0.015625)"/>
     <path d="M 3425 4513 
L 3425 3897 
Q 3066 4069 2747 4153 
Q 2428 4238 2131 4238 
Q 1616 4238 1336 4038 
Q 1056 3838 1056 3469 
Q 1056 3159 1242 3001 
Q 1428 2844 1947 2747 
L 2328 2669 
Q 3034 2534 3370 2195 
Q 3706 1856 3706 1288 
Q 3706 609 3251 259 
Q 2797 -91 1919 -91 
Q 1588 -91 1214 -16 
Q 841 59 441 206 
L 441 856 
Q 825 641 1194 531 
Q 1563 422 1919 422 
Q 2459 422 2753 634 
Q 3047 847 3047 1241 
Q 3047 1584 2836 1778 
Q 2625 1972 2144 2069 
L 1759 2144 
Q 1053 2284 737 2584 
Q 422 2884 422 3419 
Q 422 4038 858 4394 
Q 1294 4750 2059 4750 
Q 2388 4750 2728 4690 
Q 3069 4631 3425 4513 
z
" id="DejaVuSans-53" transform="scale(0.015625)"/>
     <path d="M 2906 1791 
Q 2906 2416 2648 2759 
Q 2391 3103 1925 3103 
Q 1463 3103 1205 2759 
Q 947 2416 947 1791 
Q 947 1169 1205 825 
Q 1463 481 1925 481 
Q 2391 481 2648 825 
Q 2906 1169 2906 1791 
z
M 3481 434 
Q 3481 -459 3084 -895 
Q 2688 -1331 1869 -1331 
Q 1566 -1331 1297 -1286 
Q 1028 -1241 775 -1147 
L 775 -588 
Q 1028 -725 1275 -790 
Q 1522 -856 1778 -856 
Q 2344 -856 2625 -561 
Q 2906 -266 2906 331 
L 2906 616 
Q 2728 306 2450 153 
Q 2172 0 1784 0 
Q 1141 0 747 490 
Q 353 981 353 1791 
Q 353 2603 747 3093 
Q 1141 3584 1784 3584 
Q 2172 3584 2450 3431 
Q 2728 3278 2906 2969 
L 2906 3500 
L 3481 3500 
L 3481 434 
z
" id="DejaVuSans-67" transform="scale(0.015625)"/>
    </defs>
    <use xlink:href="#DejaVuSans-52"/>
    <use x="64.982422" xlink:href="#DejaVuSans-65"/>
    <use x="126.505859" xlink:href="#DejaVuSans-63"/>
    <use x="181.486328" xlink:href="#DejaVuSans-6f"/>
    <use x="242.667969" xlink:href="#DejaVuSans-75"/>
    <use x="306.046875" xlink:href="#DejaVuSans-6e"/>
    <use x="369.425781" xlink:href="#DejaVuSans-74"/>
    <use x="408.634766" xlink:href="#DejaVuSans-33"/>
    <use x="472.257812" xlink:href="#DejaVuSans-20"/>
    <use x="504.044922" xlink:href="#DejaVuSans-45"/>
    <use x="567.228516" xlink:href="#DejaVuSans-66"/>
    <use x="602.433594" xlink:href="#DejaVuSans-66"/>
    <use x="637.638672" xlink:href="#DejaVuSans-65"/>
    <use x="699.162109" xlink:href="#DejaVuSans-63"/>
    <use x="754.142578" xlink:href="#DejaVuSans-74"/>
    <use x="793.351562" xlink:href="#DejaVuSans-73"/>
    <use x="845.451172" xlink:href="#DejaVuSans-20"/>
    <use x="877.238281" xlink:href="#DejaVuSans-6f"/>
    <use x="938.419922" xlink:href="#DejaVuSans-66"/>
    <use x="973.625" xlink:href="#DejaVuSans-20"/>
    <use x="1005.412109" xlink:href="#DejaVuSans-44"/>
    <use x="1082.414062" xlink:href="#DejaVuSans-61"/>
    <use x="1143.693359" xlink:href="#DejaVuSans-74"/>
    <use x="1182.902344" xlink:href="#DejaVuSans-61"/>
    <use x="1244.181641" xlink:href="#DejaVuSans-20"/>
    <use x="1275.96875" xlink:href="#DejaVuSans-53"/>
    <use x="1339.445312" xlink:href="#DejaVuSans-70"/>
    <use x="1402.921875" xlink:href="#DejaVuSans-6c"/>
    <use x="1430.705078" xlink:href="#DejaVuSans-69"/>
    <use x="1458.488281" xlink:href="#DejaVuSans-74"/>
    <use x="1497.697266" xlink:href="#DejaVuSans-74"/>
    <use x="1536.90625" xlink:href="#DejaVuSans-69"/>
    <use x="1564.689453" xlink:href="#DejaVuSans-6e"/>
    <use x="1628.068359" xlink:href="#DejaVuSans-67"/>
   </g>
  </g>
 </g>
 <defs>
  <clipPath id="pa981ed7c16">
   <rect height="266.112" width="357.12" x="41.496625" y="26.105371"/>
  </clipPath>
  <clipPath id="p086a084889">
   <path d="M 418.016625 125.673371 
L 418.016625 109.833371 
L 433.856625 109.833371 
L 433.856625 125.673371 
"/>
  </clipPath>
  <clipPath id="pd0fc6e4074">
   <path d="M 418.016625 143.513371 
L 418.016625 127.673371 
L 433.856625 127.673371 
L 433.856625 143.513371 
"/>
  </clipPath>
  <clipPath id="ped26cd5a9c">
   <path d="M 418.016625 184.399308 
L 418.016625 168.559308 
L 433.856625 168.559308 
L 433.856625 184.399308 
"/>
  </clipPath>
  <clipPath id="p5ddaeb1815">
   <path d="M 418.016625 202.239308 
L 418.016625 186.399308 
L 433.856625 186.399308 
L 433.856625 202.239308 
"/>
  </clipPath>
  <clipPath id="p8fc347c427">
   <path d="M 418.016625 220.079308 
L 418.016625 204.239308 
L 433.856625 204.239308 
L 433.856625 220.079308 
"/>
  </clipPath>
 </defs>
</svg>
