<?xml version="1.0" encoding="utf-8" standalone="no"?>
<!DOCTYPE svg PUBLIC "-//W3C//DTD SVG 1.1//EN"
  "http://www.w3.org/Graphics/SVG/1.1/DTD/svg11.dtd">
<svg height="327.930058pt" version="1.1" viewBox="0 0 524.546688 327.930058" width="524.546688pt" xmlns="http://www.w3.org/2000/svg" xmlns:xlink="http://www.w3.org/1999/xlink">
 <metadata>
  <rdf:RDF xmlns:cc="http://creativecommons.org/ns#" xmlns:dc="http://purl.org/dc/elements/1.1/" xmlns:rdf="http://www.w3.org/1999/02/22-rdf-syntax-ns#">
   <cc:Work>
    <dc:type rdf:resource="http://purl.org/dc/dcmitype/StillImage"/>
    <dc:date>2022-03-03T09:47:59.256909</dc:date>
    <dc:format>image/svg+xml</dc:format>
    <dc:creator>
     <cc:Agent>
      <dc:title>Matplotlib v3.4.2, https://matplotlib.org/</dc:title>
     </cc:Agent>
    </dc:creator>
   </cc:Work>
  </rdf:RDF>
 </metadata>
 <defs>
  <style type="text/css">*{stroke-linecap:butt;stroke-linejoin:round;}</style>
 </defs>
 <g id="figure_1">
  <g id="patch_1">
   <path d="M 0 327.930058 
L 524.546688 327.930058 
L 524.546688 0 
L 0 0 
z
" style="fill:#ffffff;stroke:#ffffff;stroke-linejoin:miter;"/>
  </g>
  <g id="axes_1">
   <g id="patch_2">
    <path d="M 41.190688 292.217371 
L 398.310688 292.217371 
L 398.310688 26.105371 
L 41.190688 26.105371 
z
" style="fill:#ebebeb;"/>
   </g>
   <g id="matplotlib.axis_1">
    <g id="xtick_1">
     <g id="line2d_1">
      <path clip-path="url(#pd4fe7e4ba9)" d="M 115.590837 292.217371 
L 115.590837 26.105371 
" style="fill:none;stroke:#ffffff;"/>
     </g>
     <g id="line2d_2">
      <path d="M 115.590837 292.217371 
" style="fill:none;stroke:#333333;stroke-width:1.5;"/>
      <defs>
       <path d="M 0 0 
L 0 2.75 
" id="m46d0444850" style="stroke:#000000;"/>
      </defs>
      <g>
       <use style="fill:#333333;stroke:#000000;" x="115.590837" xlink:href="#m46d0444850" y="292.217371"/>
      </g>
     </g>
     <g id="text_1">
      <!-- 5000 -->
      <g style="fill:#4d4d4d;" transform="translate(104.392837 303.853996)scale(0.088 -0.088)">
       <defs>
        <path d="M 691 4666 
L 3169 4666 
L 3169 4134 
L 1269 4134 
L 1269 2991 
Q 1406 3038 1543 3061 
Q 1681 3084 1819 3084 
Q 2600 3084 3056 2656 
Q 3513 2228 3513 1497 
Q 3513 744 3044 326 
Q 2575 -91 1722 -91 
Q 1428 -91 1123 -41 
Q 819 9 494 109 
L 494 744 
Q 775 591 1075 516 
Q 1375 441 1709 441 
Q 2250 441 2565 725 
Q 2881 1009 2881 1497 
Q 2881 1984 2565 2268 
Q 2250 2553 1709 2553 
Q 1456 2553 1204 2497 
Q 953 2441 691 2322 
L 691 4666 
z
" id="DejaVuSans-35" transform="scale(0.015625)"/>
        <path d="M 2034 4250 
Q 1547 4250 1301 3770 
Q 1056 3291 1056 2328 
Q 1056 1369 1301 889 
Q 1547 409 2034 409 
Q 2525 409 2770 889 
Q 3016 1369 3016 2328 
Q 3016 3291 2770 3770 
Q 2525 4250 2034 4250 
z
M 2034 4750 
Q 2819 4750 3233 4129 
Q 3647 3509 3647 2328 
Q 3647 1150 3233 529 
Q 2819 -91 2034 -91 
Q 1250 -91 836 529 
Q 422 1150 422 2328 
Q 422 3509 836 4129 
Q 1250 4750 2034 4750 
z
" id="DejaVuSans-30" transform="scale(0.015625)"/>
       </defs>
       <use xlink:href="#DejaVuSans-35"/>
       <use x="63.623047" xlink:href="#DejaVuSans-30"/>
       <use x="127.246094" xlink:href="#DejaVuSans-30"/>
       <use x="190.869141" xlink:href="#DejaVuSans-30"/>
      </g>
     </g>
    </g>
    <g id="xtick_2">
     <g id="line2d_3">
      <path clip-path="url(#pd4fe7e4ba9)" d="M 205.244694 292.217371 
L 205.244694 26.105371 
" style="fill:none;stroke:#ffffff;"/>
     </g>
     <g id="line2d_4">
      <path d="M 205.244694 292.217371 
" style="fill:none;stroke:#333333;stroke-width:1.5;"/>
      <g>
       <use style="fill:#333333;stroke:#000000;" x="205.244694" xlink:href="#m46d0444850" y="292.217371"/>
      </g>
     </g>
     <g id="text_2">
      <!-- 10000 -->
      <g style="fill:#4d4d4d;" transform="translate(191.247194 303.853996)scale(0.088 -0.088)">
       <defs>
        <path d="M 794 531 
L 1825 531 
L 1825 4091 
L 703 3866 
L 703 4441 
L 1819 4666 
L 2450 4666 
L 2450 531 
L 3481 531 
L 3481 0 
L 794 0 
L 794 531 
z
" id="DejaVuSans-31" transform="scale(0.015625)"/>
       </defs>
       <use xlink:href="#DejaVuSans-31"/>
       <use x="63.623047" xlink:href="#DejaVuSans-30"/>
       <use x="127.246094" xlink:href="#DejaVuSans-30"/>
       <use x="190.869141" xlink:href="#DejaVuSans-30"/>
       <use x="254.492188" xlink:href="#DejaVuSans-30"/>
      </g>
     </g>
    </g>
    <g id="xtick_3">
     <g id="line2d_5">
      <path clip-path="url(#pd4fe7e4ba9)" d="M 294.89855 292.217371 
L 294.89855 26.105371 
" style="fill:none;stroke:#ffffff;"/>
     </g>
     <g id="line2d_6">
      <path d="M 294.89855 292.217371 
" style="fill:none;stroke:#333333;stroke-width:1.5;"/>
      <g>
       <use style="fill:#333333;stroke:#000000;" x="294.89855" xlink:href="#m46d0444850" y="292.217371"/>
      </g>
     </g>
     <g id="text_3">
      <!-- 15000 -->
      <g style="fill:#4d4d4d;" transform="translate(280.90105 303.853996)scale(0.088 -0.088)">
       <use xlink:href="#DejaVuSans-31"/>
       <use x="63.623047" xlink:href="#DejaVuSans-35"/>
       <use x="127.246094" xlink:href="#DejaVuSans-30"/>
       <use x="190.869141" xlink:href="#DejaVuSans-30"/>
       <use x="254.492188" xlink:href="#DejaVuSans-30"/>
      </g>
     </g>
    </g>
    <g id="xtick_4">
     <g id="line2d_7">
      <path clip-path="url(#pd4fe7e4ba9)" d="M 384.552407 292.217371 
L 384.552407 26.105371 
" style="fill:none;stroke:#ffffff;"/>
     </g>
     <g id="line2d_8">
      <path d="M 384.552407 292.217371 
" style="fill:none;stroke:#333333;stroke-width:1.5;"/>
      <g>
       <use style="fill:#333333;stroke:#000000;" x="384.552407" xlink:href="#m46d0444850" y="292.217371"/>
      </g>
     </g>
     <g id="text_4">
      <!-- 20000 -->
      <g style="fill:#4d4d4d;" transform="translate(370.554907 303.853996)scale(0.088 -0.088)">
       <defs>
        <path d="M 1228 531 
L 3431 531 
L 3431 0 
L 469 0 
L 469 531 
Q 828 903 1448 1529 
Q 2069 2156 2228 2338 
Q 2531 2678 2651 2914 
Q 2772 3150 2772 3378 
Q 2772 3750 2511 3984 
Q 2250 4219 1831 4219 
Q 1534 4219 1204 4116 
Q 875 4013 500 3803 
L 500 4441 
Q 881 4594 1212 4672 
Q 1544 4750 1819 4750 
Q 2544 4750 2975 4387 
Q 3406 4025 3406 3419 
Q 3406 3131 3298 2873 
Q 3191 2616 2906 2266 
Q 2828 2175 2409 1742 
Q 1991 1309 1228 531 
z
" id="DejaVuSans-32" transform="scale(0.015625)"/>
       </defs>
       <use xlink:href="#DejaVuSans-32"/>
       <use x="63.623047" xlink:href="#DejaVuSans-30"/>
       <use x="127.246094" xlink:href="#DejaVuSans-30"/>
       <use x="190.869141" xlink:href="#DejaVuSans-30"/>
       <use x="254.492188" xlink:href="#DejaVuSans-30"/>
      </g>
     </g>
    </g>
    <g id="xtick_5">
     <g id="line2d_9">
      <path clip-path="url(#pd4fe7e4ba9)" d="M 70.763909 292.217371 
L 70.763909 26.105371 
" style="fill:none;stroke:#ffffff;stroke-width:0.5;"/>
     </g>
    </g>
    <g id="xtick_6">
     <g id="line2d_10">
      <path clip-path="url(#pd4fe7e4ba9)" d="M 160.417765 292.217371 
L 160.417765 26.105371 
" style="fill:none;stroke:#ffffff;stroke-width:0.5;"/>
     </g>
    </g>
    <g id="xtick_7">
     <g id="line2d_11">
      <path clip-path="url(#pd4fe7e4ba9)" d="M 250.071622 292.217371 
L 250.071622 26.105371 
" style="fill:none;stroke:#ffffff;stroke-width:0.5;"/>
     </g>
    </g>
    <g id="xtick_8">
     <g id="line2d_12">
      <path clip-path="url(#pd4fe7e4ba9)" d="M 339.725478 292.217371 
L 339.725478 26.105371 
" style="fill:none;stroke:#ffffff;stroke-width:0.5;"/>
     </g>
    </g>
    <g id="text_5">
     <!-- Train sample count -->
     <g transform="translate(161.787953 318.442402)scale(0.11 -0.11)">
      <defs>
       <path d="M -19 4666 
L 3928 4666 
L 3928 4134 
L 2272 4134 
L 2272 0 
L 1638 0 
L 1638 4134 
L -19 4134 
L -19 4666 
z
" id="DejaVuSans-54" transform="scale(0.015625)"/>
       <path d="M 2631 2963 
Q 2534 3019 2420 3045 
Q 2306 3072 2169 3072 
Q 1681 3072 1420 2755 
Q 1159 2438 1159 1844 
L 1159 0 
L 581 0 
L 581 3500 
L 1159 3500 
L 1159 2956 
Q 1341 3275 1631 3429 
Q 1922 3584 2338 3584 
Q 2397 3584 2469 3576 
Q 2541 3569 2628 3553 
L 2631 2963 
z
" id="DejaVuSans-72" transform="scale(0.015625)"/>
       <path d="M 2194 1759 
Q 1497 1759 1228 1600 
Q 959 1441 959 1056 
Q 959 750 1161 570 
Q 1363 391 1709 391 
Q 2188 391 2477 730 
Q 2766 1069 2766 1631 
L 2766 1759 
L 2194 1759 
z
M 3341 1997 
L 3341 0 
L 2766 0 
L 2766 531 
Q 2569 213 2275 61 
Q 1981 -91 1556 -91 
Q 1019 -91 701 211 
Q 384 513 384 1019 
Q 384 1609 779 1909 
Q 1175 2209 1959 2209 
L 2766 2209 
L 2766 2266 
Q 2766 2663 2505 2880 
Q 2244 3097 1772 3097 
Q 1472 3097 1187 3025 
Q 903 2953 641 2809 
L 641 3341 
Q 956 3463 1253 3523 
Q 1550 3584 1831 3584 
Q 2591 3584 2966 3190 
Q 3341 2797 3341 1997 
z
" id="DejaVuSans-61" transform="scale(0.015625)"/>
       <path d="M 603 3500 
L 1178 3500 
L 1178 0 
L 603 0 
L 603 3500 
z
M 603 4863 
L 1178 4863 
L 1178 4134 
L 603 4134 
L 603 4863 
z
" id="DejaVuSans-69" transform="scale(0.015625)"/>
       <path d="M 3513 2113 
L 3513 0 
L 2938 0 
L 2938 2094 
Q 2938 2591 2744 2837 
Q 2550 3084 2163 3084 
Q 1697 3084 1428 2787 
Q 1159 2491 1159 1978 
L 1159 0 
L 581 0 
L 581 3500 
L 1159 3500 
L 1159 2956 
Q 1366 3272 1645 3428 
Q 1925 3584 2291 3584 
Q 2894 3584 3203 3211 
Q 3513 2838 3513 2113 
z
" id="DejaVuSans-6e" transform="scale(0.015625)"/>
       <path id="DejaVuSans-20" transform="scale(0.015625)"/>
       <path d="M 2834 3397 
L 2834 2853 
Q 2591 2978 2328 3040 
Q 2066 3103 1784 3103 
Q 1356 3103 1142 2972 
Q 928 2841 928 2578 
Q 928 2378 1081 2264 
Q 1234 2150 1697 2047 
L 1894 2003 
Q 2506 1872 2764 1633 
Q 3022 1394 3022 966 
Q 3022 478 2636 193 
Q 2250 -91 1575 -91 
Q 1294 -91 989 -36 
Q 684 19 347 128 
L 347 722 
Q 666 556 975 473 
Q 1284 391 1588 391 
Q 1994 391 2212 530 
Q 2431 669 2431 922 
Q 2431 1156 2273 1281 
Q 2116 1406 1581 1522 
L 1381 1569 
Q 847 1681 609 1914 
Q 372 2147 372 2553 
Q 372 3047 722 3315 
Q 1072 3584 1716 3584 
Q 2034 3584 2315 3537 
Q 2597 3491 2834 3397 
z
" id="DejaVuSans-73" transform="scale(0.015625)"/>
       <path d="M 3328 2828 
Q 3544 3216 3844 3400 
Q 4144 3584 4550 3584 
Q 5097 3584 5394 3201 
Q 5691 2819 5691 2113 
L 5691 0 
L 5113 0 
L 5113 2094 
Q 5113 2597 4934 2840 
Q 4756 3084 4391 3084 
Q 3944 3084 3684 2787 
Q 3425 2491 3425 1978 
L 3425 0 
L 2847 0 
L 2847 2094 
Q 2847 2600 2669 2842 
Q 2491 3084 2119 3084 
Q 1678 3084 1418 2786 
Q 1159 2488 1159 1978 
L 1159 0 
L 581 0 
L 581 3500 
L 1159 3500 
L 1159 2956 
Q 1356 3278 1631 3431 
Q 1906 3584 2284 3584 
Q 2666 3584 2933 3390 
Q 3200 3197 3328 2828 
z
" id="DejaVuSans-6d" transform="scale(0.015625)"/>
       <path d="M 1159 525 
L 1159 -1331 
L 581 -1331 
L 581 3500 
L 1159 3500 
L 1159 2969 
Q 1341 3281 1617 3432 
Q 1894 3584 2278 3584 
Q 2916 3584 3314 3078 
Q 3713 2572 3713 1747 
Q 3713 922 3314 415 
Q 2916 -91 2278 -91 
Q 1894 -91 1617 61 
Q 1341 213 1159 525 
z
M 3116 1747 
Q 3116 2381 2855 2742 
Q 2594 3103 2138 3103 
Q 1681 3103 1420 2742 
Q 1159 2381 1159 1747 
Q 1159 1113 1420 752 
Q 1681 391 2138 391 
Q 2594 391 2855 752 
Q 3116 1113 3116 1747 
z
" id="DejaVuSans-70" transform="scale(0.015625)"/>
       <path d="M 603 4863 
L 1178 4863 
L 1178 0 
L 603 0 
L 603 4863 
z
" id="DejaVuSans-6c" transform="scale(0.015625)"/>
       <path d="M 3597 1894 
L 3597 1613 
L 953 1613 
Q 991 1019 1311 708 
Q 1631 397 2203 397 
Q 2534 397 2845 478 
Q 3156 559 3463 722 
L 3463 178 
Q 3153 47 2828 -22 
Q 2503 -91 2169 -91 
Q 1331 -91 842 396 
Q 353 884 353 1716 
Q 353 2575 817 3079 
Q 1281 3584 2069 3584 
Q 2775 3584 3186 3129 
Q 3597 2675 3597 1894 
z
M 3022 2063 
Q 3016 2534 2758 2815 
Q 2500 3097 2075 3097 
Q 1594 3097 1305 2825 
Q 1016 2553 972 2059 
L 3022 2063 
z
" id="DejaVuSans-65" transform="scale(0.015625)"/>
       <path d="M 3122 3366 
L 3122 2828 
Q 2878 2963 2633 3030 
Q 2388 3097 2138 3097 
Q 1578 3097 1268 2742 
Q 959 2388 959 1747 
Q 959 1106 1268 751 
Q 1578 397 2138 397 
Q 2388 397 2633 464 
Q 2878 531 3122 666 
L 3122 134 
Q 2881 22 2623 -34 
Q 2366 -91 2075 -91 
Q 1284 -91 818 406 
Q 353 903 353 1747 
Q 353 2603 823 3093 
Q 1294 3584 2113 3584 
Q 2378 3584 2631 3529 
Q 2884 3475 3122 3366 
z
" id="DejaVuSans-63" transform="scale(0.015625)"/>
       <path d="M 1959 3097 
Q 1497 3097 1228 2736 
Q 959 2375 959 1747 
Q 959 1119 1226 758 
Q 1494 397 1959 397 
Q 2419 397 2687 759 
Q 2956 1122 2956 1747 
Q 2956 2369 2687 2733 
Q 2419 3097 1959 3097 
z
M 1959 3584 
Q 2709 3584 3137 3096 
Q 3566 2609 3566 1747 
Q 3566 888 3137 398 
Q 2709 -91 1959 -91 
Q 1206 -91 779 398 
Q 353 888 353 1747 
Q 353 2609 779 3096 
Q 1206 3584 1959 3584 
z
" id="DejaVuSans-6f" transform="scale(0.015625)"/>
       <path d="M 544 1381 
L 544 3500 
L 1119 3500 
L 1119 1403 
Q 1119 906 1312 657 
Q 1506 409 1894 409 
Q 2359 409 2629 706 
Q 2900 1003 2900 1516 
L 2900 3500 
L 3475 3500 
L 3475 0 
L 2900 0 
L 2900 538 
Q 2691 219 2414 64 
Q 2138 -91 1772 -91 
Q 1169 -91 856 284 
Q 544 659 544 1381 
z
M 1991 3584 
L 1991 3584 
z
" id="DejaVuSans-75" transform="scale(0.015625)"/>
       <path d="M 1172 4494 
L 1172 3500 
L 2356 3500 
L 2356 3053 
L 1172 3053 
L 1172 1153 
Q 1172 725 1289 603 
Q 1406 481 1766 481 
L 2356 481 
L 2356 0 
L 1766 0 
Q 1100 0 847 248 
Q 594 497 594 1153 
L 594 3053 
L 172 3053 
L 172 3500 
L 594 3500 
L 594 4494 
L 1172 4494 
z
" id="DejaVuSans-74" transform="scale(0.015625)"/>
      </defs>
      <use xlink:href="#DejaVuSans-54"/>
      <use x="46.333984" xlink:href="#DejaVuSans-72"/>
      <use x="87.447266" xlink:href="#DejaVuSans-61"/>
      <use x="148.726562" xlink:href="#DejaVuSans-69"/>
      <use x="176.509766" xlink:href="#DejaVuSans-6e"/>
      <use x="239.888672" xlink:href="#DejaVuSans-20"/>
      <use x="271.675781" xlink:href="#DejaVuSans-73"/>
      <use x="323.775391" xlink:href="#DejaVuSans-61"/>
      <use x="385.054688" xlink:href="#DejaVuSans-6d"/>
      <use x="482.466797" xlink:href="#DejaVuSans-70"/>
      <use x="545.943359" xlink:href="#DejaVuSans-6c"/>
      <use x="573.726562" xlink:href="#DejaVuSans-65"/>
      <use x="635.25" xlink:href="#DejaVuSans-20"/>
      <use x="667.037109" xlink:href="#DejaVuSans-63"/>
      <use x="722.017578" xlink:href="#DejaVuSans-6f"/>
      <use x="783.199219" xlink:href="#DejaVuSans-75"/>
      <use x="846.578125" xlink:href="#DejaVuSans-6e"/>
      <use x="909.957031" xlink:href="#DejaVuSans-74"/>
     </g>
    </g>
   </g>
   <g id="matplotlib.axis_2">
    <g id="ytick_1">
     <g id="line2d_13">
      <path clip-path="url(#pd4fe7e4ba9)" d="M 41.190688 282.778575 
L 398.310688 282.778575 
" style="fill:none;stroke:#ffffff;"/>
     </g>
     <g id="line2d_14">
      <path d="M 41.190688 282.778575 
" style="fill:none;stroke:#333333;stroke-width:1.5;"/>
      <defs>
       <path d="M 0 0 
L -2.75 0 
" id="mebf2bd96d3" style="stroke:#000000;"/>
      </defs>
      <g>
       <use style="fill:#333333;stroke:#000000;" x="41.190688" xlink:href="#mebf2bd96d3" y="282.778575"/>
      </g>
     </g>
     <g id="text_6">
      <!-- 0.5 -->
      <g style="fill:#4d4d4d;" transform="translate(22.245938 285.206825)scale(0.088 -0.088)">
       <defs>
        <path d="M 684 794 
L 1344 794 
L 1344 0 
L 684 0 
L 684 794 
z
" id="DejaVuSans-2e" transform="scale(0.015625)"/>
       </defs>
       <use xlink:href="#DejaVuSans-30"/>
       <use x="63.623047" xlink:href="#DejaVuSans-2e"/>
       <use x="95.410156" xlink:href="#DejaVuSans-35"/>
      </g>
     </g>
    </g>
    <g id="ytick_2">
     <g id="line2d_15">
      <path clip-path="url(#pd4fe7e4ba9)" d="M 41.190688 222.159657 
L 398.310688 222.159657 
" style="fill:none;stroke:#ffffff;"/>
     </g>
     <g id="line2d_16">
      <path d="M 41.190688 222.159657 
" style="fill:none;stroke:#333333;stroke-width:1.5;"/>
      <g>
       <use style="fill:#333333;stroke:#000000;" x="41.190688" xlink:href="#mebf2bd96d3" y="222.159657"/>
      </g>
     </g>
     <g id="text_7">
      <!-- 0.6 -->
      <g style="fill:#4d4d4d;" transform="translate(22.245938 224.587907)scale(0.088 -0.088)">
       <defs>
        <path d="M 2113 2584 
Q 1688 2584 1439 2293 
Q 1191 2003 1191 1497 
Q 1191 994 1439 701 
Q 1688 409 2113 409 
Q 2538 409 2786 701 
Q 3034 994 3034 1497 
Q 3034 2003 2786 2293 
Q 2538 2584 2113 2584 
z
M 3366 4563 
L 3366 3988 
Q 3128 4100 2886 4159 
Q 2644 4219 2406 4219 
Q 1781 4219 1451 3797 
Q 1122 3375 1075 2522 
Q 1259 2794 1537 2939 
Q 1816 3084 2150 3084 
Q 2853 3084 3261 2657 
Q 3669 2231 3669 1497 
Q 3669 778 3244 343 
Q 2819 -91 2113 -91 
Q 1303 -91 875 529 
Q 447 1150 447 2328 
Q 447 3434 972 4092 
Q 1497 4750 2381 4750 
Q 2619 4750 2861 4703 
Q 3103 4656 3366 4563 
z
" id="DejaVuSans-36" transform="scale(0.015625)"/>
       </defs>
       <use xlink:href="#DejaVuSans-30"/>
       <use x="63.623047" xlink:href="#DejaVuSans-2e"/>
       <use x="95.410156" xlink:href="#DejaVuSans-36"/>
      </g>
     </g>
    </g>
    <g id="ytick_3">
     <g id="line2d_17">
      <path clip-path="url(#pd4fe7e4ba9)" d="M 41.190688 161.54074 
L 398.310688 161.54074 
" style="fill:none;stroke:#ffffff;"/>
     </g>
     <g id="line2d_18">
      <path d="M 41.190688 161.54074 
" style="fill:none;stroke:#333333;stroke-width:1.5;"/>
      <g>
       <use style="fill:#333333;stroke:#000000;" x="41.190688" xlink:href="#mebf2bd96d3" y="161.54074"/>
      </g>
     </g>
     <g id="text_8">
      <!-- 0.7 -->
      <g style="fill:#4d4d4d;" transform="translate(22.245938 163.96899)scale(0.088 -0.088)">
       <defs>
        <path d="M 525 4666 
L 3525 4666 
L 3525 4397 
L 1831 0 
L 1172 0 
L 2766 4134 
L 525 4134 
L 525 4666 
z
" id="DejaVuSans-37" transform="scale(0.015625)"/>
       </defs>
       <use xlink:href="#DejaVuSans-30"/>
       <use x="63.623047" xlink:href="#DejaVuSans-2e"/>
       <use x="95.410156" xlink:href="#DejaVuSans-37"/>
      </g>
     </g>
    </g>
    <g id="ytick_4">
     <g id="line2d_19">
      <path clip-path="url(#pd4fe7e4ba9)" d="M 41.190688 100.921823 
L 398.310688 100.921823 
" style="fill:none;stroke:#ffffff;"/>
     </g>
     <g id="line2d_20">
      <path d="M 41.190688 100.921823 
" style="fill:none;stroke:#333333;stroke-width:1.5;"/>
      <g>
       <use style="fill:#333333;stroke:#000000;" x="41.190688" xlink:href="#mebf2bd96d3" y="100.921823"/>
      </g>
     </g>
     <g id="text_9">
      <!-- 0.8 -->
      <g style="fill:#4d4d4d;" transform="translate(22.245938 103.350073)scale(0.088 -0.088)">
       <defs>
        <path d="M 2034 2216 
Q 1584 2216 1326 1975 
Q 1069 1734 1069 1313 
Q 1069 891 1326 650 
Q 1584 409 2034 409 
Q 2484 409 2743 651 
Q 3003 894 3003 1313 
Q 3003 1734 2745 1975 
Q 2488 2216 2034 2216 
z
M 1403 2484 
Q 997 2584 770 2862 
Q 544 3141 544 3541 
Q 544 4100 942 4425 
Q 1341 4750 2034 4750 
Q 2731 4750 3128 4425 
Q 3525 4100 3525 3541 
Q 3525 3141 3298 2862 
Q 3072 2584 2669 2484 
Q 3125 2378 3379 2068 
Q 3634 1759 3634 1313 
Q 3634 634 3220 271 
Q 2806 -91 2034 -91 
Q 1263 -91 848 271 
Q 434 634 434 1313 
Q 434 1759 690 2068 
Q 947 2378 1403 2484 
z
M 1172 3481 
Q 1172 3119 1398 2916 
Q 1625 2713 2034 2713 
Q 2441 2713 2670 2916 
Q 2900 3119 2900 3481 
Q 2900 3844 2670 4047 
Q 2441 4250 2034 4250 
Q 1625 4250 1398 4047 
Q 1172 3844 1172 3481 
z
" id="DejaVuSans-38" transform="scale(0.015625)"/>
       </defs>
       <use xlink:href="#DejaVuSans-30"/>
       <use x="63.623047" xlink:href="#DejaVuSans-2e"/>
       <use x="95.410156" xlink:href="#DejaVuSans-38"/>
      </g>
     </g>
    </g>
    <g id="ytick_5">
     <g id="line2d_21">
      <path clip-path="url(#pd4fe7e4ba9)" d="M 41.190688 40.302906 
L 398.310688 40.302906 
" style="fill:none;stroke:#ffffff;"/>
     </g>
     <g id="line2d_22">
      <path d="M 41.190688 40.302906 
" style="fill:none;stroke:#333333;stroke-width:1.5;"/>
      <g>
       <use style="fill:#333333;stroke:#000000;" x="41.190688" xlink:href="#mebf2bd96d3" y="40.302906"/>
      </g>
     </g>
     <g id="text_10">
      <!-- 0.9 -->
      <g style="fill:#4d4d4d;" transform="translate(22.245938 42.731156)scale(0.088 -0.088)">
       <defs>
        <path d="M 703 97 
L 703 672 
Q 941 559 1184 500 
Q 1428 441 1663 441 
Q 2288 441 2617 861 
Q 2947 1281 2994 2138 
Q 2813 1869 2534 1725 
Q 2256 1581 1919 1581 
Q 1219 1581 811 2004 
Q 403 2428 403 3163 
Q 403 3881 828 4315 
Q 1253 4750 1959 4750 
Q 2769 4750 3195 4129 
Q 3622 3509 3622 2328 
Q 3622 1225 3098 567 
Q 2575 -91 1691 -91 
Q 1453 -91 1209 -44 
Q 966 3 703 97 
z
M 1959 2075 
Q 2384 2075 2632 2365 
Q 2881 2656 2881 3163 
Q 2881 3666 2632 3958 
Q 2384 4250 1959 4250 
Q 1534 4250 1286 3958 
Q 1038 3666 1038 3163 
Q 1038 2656 1286 2365 
Q 1534 2075 1959 2075 
z
" id="DejaVuSans-39" transform="scale(0.015625)"/>
       </defs>
       <use xlink:href="#DejaVuSans-30"/>
       <use x="63.623047" xlink:href="#DejaVuSans-2e"/>
       <use x="95.410156" xlink:href="#DejaVuSans-39"/>
      </g>
     </g>
    </g>
    <g id="ytick_6">
     <g id="line2d_23">
      <path clip-path="url(#pd4fe7e4ba9)" d="M 41.190688 252.469116 
L 398.310688 252.469116 
" style="fill:none;stroke:#ffffff;stroke-width:0.5;"/>
     </g>
    </g>
    <g id="ytick_7">
     <g id="line2d_24">
      <path clip-path="url(#pd4fe7e4ba9)" d="M 41.190688 191.850199 
L 398.310688 191.850199 
" style="fill:none;stroke:#ffffff;stroke-width:0.5;"/>
     </g>
    </g>
    <g id="ytick_8">
     <g id="line2d_25">
      <path clip-path="url(#pd4fe7e4ba9)" d="M 41.190688 131.231282 
L 398.310688 131.231282 
" style="fill:none;stroke:#ffffff;stroke-width:0.5;"/>
     </g>
    </g>
    <g id="ytick_9">
     <g id="line2d_26">
      <path clip-path="url(#pd4fe7e4ba9)" d="M 41.190688 70.612364 
L 398.310688 70.612364 
" style="fill:none;stroke:#ffffff;stroke-width:0.5;"/>
     </g>
    </g>
    <g id="text_11">
     <!-- Balanced Accuracy (Val Set) -->
     <g transform="translate(15.558281 234.774543)rotate(-90)scale(0.11 -0.11)">
      <defs>
       <path d="M 1259 2228 
L 1259 519 
L 2272 519 
Q 2781 519 3026 730 
Q 3272 941 3272 1375 
Q 3272 1813 3026 2020 
Q 2781 2228 2272 2228 
L 1259 2228 
z
M 1259 4147 
L 1259 2741 
L 2194 2741 
Q 2656 2741 2882 2914 
Q 3109 3088 3109 3444 
Q 3109 3797 2882 3972 
Q 2656 4147 2194 4147 
L 1259 4147 
z
M 628 4666 
L 2241 4666 
Q 2963 4666 3353 4366 
Q 3744 4066 3744 3513 
Q 3744 3084 3544 2831 
Q 3344 2578 2956 2516 
Q 3422 2416 3680 2098 
Q 3938 1781 3938 1306 
Q 3938 681 3513 340 
Q 3088 0 2303 0 
L 628 0 
L 628 4666 
z
" id="DejaVuSans-42" transform="scale(0.015625)"/>
       <path d="M 2906 2969 
L 2906 4863 
L 3481 4863 
L 3481 0 
L 2906 0 
L 2906 525 
Q 2725 213 2448 61 
Q 2172 -91 1784 -91 
Q 1150 -91 751 415 
Q 353 922 353 1747 
Q 353 2572 751 3078 
Q 1150 3584 1784 3584 
Q 2172 3584 2448 3432 
Q 2725 3281 2906 2969 
z
M 947 1747 
Q 947 1113 1208 752 
Q 1469 391 1925 391 
Q 2381 391 2643 752 
Q 2906 1113 2906 1747 
Q 2906 2381 2643 2742 
Q 2381 3103 1925 3103 
Q 1469 3103 1208 2742 
Q 947 2381 947 1747 
z
" id="DejaVuSans-64" transform="scale(0.015625)"/>
       <path d="M 2188 4044 
L 1331 1722 
L 3047 1722 
L 2188 4044 
z
M 1831 4666 
L 2547 4666 
L 4325 0 
L 3669 0 
L 3244 1197 
L 1141 1197 
L 716 0 
L 50 0 
L 1831 4666 
z
" id="DejaVuSans-41" transform="scale(0.015625)"/>
       <path d="M 2059 -325 
Q 1816 -950 1584 -1140 
Q 1353 -1331 966 -1331 
L 506 -1331 
L 506 -850 
L 844 -850 
Q 1081 -850 1212 -737 
Q 1344 -625 1503 -206 
L 1606 56 
L 191 3500 
L 800 3500 
L 1894 763 
L 2988 3500 
L 3597 3500 
L 2059 -325 
z
" id="DejaVuSans-79" transform="scale(0.015625)"/>
       <path d="M 1984 4856 
Q 1566 4138 1362 3434 
Q 1159 2731 1159 2009 
Q 1159 1288 1364 580 
Q 1569 -128 1984 -844 
L 1484 -844 
Q 1016 -109 783 600 
Q 550 1309 550 2009 
Q 550 2706 781 3412 
Q 1013 4119 1484 4856 
L 1984 4856 
z
" id="DejaVuSans-28" transform="scale(0.015625)"/>
       <path d="M 1831 0 
L 50 4666 
L 709 4666 
L 2188 738 
L 3669 4666 
L 4325 4666 
L 2547 0 
L 1831 0 
z
" id="DejaVuSans-56" transform="scale(0.015625)"/>
       <path d="M 3425 4513 
L 3425 3897 
Q 3066 4069 2747 4153 
Q 2428 4238 2131 4238 
Q 1616 4238 1336 4038 
Q 1056 3838 1056 3469 
Q 1056 3159 1242 3001 
Q 1428 2844 1947 2747 
L 2328 2669 
Q 3034 2534 3370 2195 
Q 3706 1856 3706 1288 
Q 3706 609 3251 259 
Q 2797 -91 1919 -91 
Q 1588 -91 1214 -16 
Q 841 59 441 206 
L 441 856 
Q 825 641 1194 531 
Q 1563 422 1919 422 
Q 2459 422 2753 634 
Q 3047 847 3047 1241 
Q 3047 1584 2836 1778 
Q 2625 1972 2144 2069 
L 1759 2144 
Q 1053 2284 737 2584 
Q 422 2884 422 3419 
Q 422 4038 858 4394 
Q 1294 4750 2059 4750 
Q 2388 4750 2728 4690 
Q 3069 4631 3425 4513 
z
" id="DejaVuSans-53" transform="scale(0.015625)"/>
       <path d="M 513 4856 
L 1013 4856 
Q 1481 4119 1714 3412 
Q 1947 2706 1947 2009 
Q 1947 1309 1714 600 
Q 1481 -109 1013 -844 
L 513 -844 
Q 928 -128 1133 580 
Q 1338 1288 1338 2009 
Q 1338 2731 1133 3434 
Q 928 4138 513 4856 
z
" id="DejaVuSans-29" transform="scale(0.015625)"/>
      </defs>
      <use xlink:href="#DejaVuSans-42"/>
      <use x="68.603516" xlink:href="#DejaVuSans-61"/>
      <use x="129.882812" xlink:href="#DejaVuSans-6c"/>
      <use x="157.666016" xlink:href="#DejaVuSans-61"/>
      <use x="218.945312" xlink:href="#DejaVuSans-6e"/>
      <use x="282.324219" xlink:href="#DejaVuSans-63"/>
      <use x="337.304688" xlink:href="#DejaVuSans-65"/>
      <use x="398.828125" xlink:href="#DejaVuSans-64"/>
      <use x="462.304688" xlink:href="#DejaVuSans-20"/>
      <use x="494.091797" xlink:href="#DejaVuSans-41"/>
      <use x="560.75" xlink:href="#DejaVuSans-63"/>
      <use x="615.730469" xlink:href="#DejaVuSans-63"/>
      <use x="670.710938" xlink:href="#DejaVuSans-75"/>
      <use x="734.089844" xlink:href="#DejaVuSans-72"/>
      <use x="775.203125" xlink:href="#DejaVuSans-61"/>
      <use x="836.482422" xlink:href="#DejaVuSans-63"/>
      <use x="891.462891" xlink:href="#DejaVuSans-79"/>
      <use x="950.642578" xlink:href="#DejaVuSans-20"/>
      <use x="982.429688" xlink:href="#DejaVuSans-28"/>
      <use x="1021.443359" xlink:href="#DejaVuSans-56"/>
      <use x="1082.101562" xlink:href="#DejaVuSans-61"/>
      <use x="1143.380859" xlink:href="#DejaVuSans-6c"/>
      <use x="1171.164062" xlink:href="#DejaVuSans-20"/>
      <use x="1202.951172" xlink:href="#DejaVuSans-53"/>
      <use x="1266.427734" xlink:href="#DejaVuSans-65"/>
      <use x="1327.951172" xlink:href="#DejaVuSans-74"/>
      <use x="1367.160156" xlink:href="#DejaVuSans-29"/>
     </g>
    </g>
   </g>
   <g id="PolyCollection_1">
    <path clip-path="url(#pd4fe7e4ba9)" d="M 57.423415 228.375899 
L 57.423415 263.498602 
L 58.194438 261.431419 
L 58.48133 260.665856 
L 58.786153 259.854602 
L 59.144769 258.903037 
L 59.431661 258.144007 
L 59.467523 258.049268 
L 59.64683 257.576034 
L 59.951654 256.773313 
L 60.11303 256.349249 
L 60.292338 255.878805 
L 60.364061 255.690845 
L 61.045431 253.91143 
L 61.242669 253.398436 
L 61.547492 252.607486 
L 88.92778 191.134203 
L 90.469826 188.242114 
L 91.043611 187.181001 
L 91.635326 186.095188 
L 92.370488 184.758607 
L 92.944273 183.725264 
L 92.998065 183.628826 
L 93.35668 182.987817 
L 93.966327 181.905661 
L 94.307011 181.305037 
L 94.647696 180.707333 
L 94.791142 180.456537 
L 96.171812 178.068605 
L 96.548358 177.425411 
L 97.158004 176.391251 
L 120.432145 142.496347 
L 122.727284 139.63357 
L 123.587961 138.577661 
L 124.484499 137.487623 
L 125.578277 136.17107 
L 126.456884 135.123823 
L 126.546538 135.017468 
L 127.066531 134.402436 
L 127.981 133.333279 
L 128.483061 132.754472 
L 129.003054 132.161018 
L 129.218223 131.917227 
L 131.280262 129.632635 
L 131.854047 129.013273 
L 132.768516 128.040551 
L 151.93651 111.169669 
L 155.002672 108.950451 
L 156.150242 108.139983 
L 157.333673 107.313363 
L 158.803996 106.296955 
L 159.951565 105.509963 
L 160.077081 105.424149 
L 160.794311 104.934579 
L 161.995673 104.116809 
L 162.677042 103.653706 
L 163.358412 103.190725 
L 163.645304 102.995747 
L 166.406643 101.215549 
L 167.159735 100.763076 
L 168.379028 100.059993 
L 183.440876 94.194829 
L 187.278061 93.396728 
L 188.712522 93.142573 
L 190.200776 92.895695 
L 192.011784 92.609047 
L 193.464177 92.382194 
L 193.625554 92.35683 
L 194.504161 92.217331 
L 196.010346 91.969189 
L 196.871023 91.819748 
L 197.71377 91.666249 
L 198.090316 91.595 
L 201.533024 90.843526 
L 202.483355 90.596698 
L 204.00747 90.156919 
L 214.92731 86.832035 
L 219.535518 85.555187 
L 221.256872 85.115841 
L 223.049949 84.684324 
L 225.237504 84.197377 
L 226.976788 83.843202 
L 227.156096 83.808401 
L 228.214012 83.609671 
L 230.025019 83.29574 
L 231.047073 83.133125 
L 232.069127 82.98082 
L 232.517397 82.91721 
L 236.641474 82.417021 
L 237.789043 82.302363 
L 239.617982 82.13783 
L 246.431675 81.647932 
L 251.810907 81.266144 
L 253.819153 81.093826 
L 255.899122 80.88725 
L 258.445292 80.6254 
L 260.471469 80.433642 
L 260.686638 80.414179 
L 261.941792 80.304201 
L 264.039693 80.134339 
L 265.241054 80.045186 
L 266.424485 79.963272 
L 266.944478 79.929149 
L 271.767855 79.666364 
L 273.094732 79.610233 
L 275.228494 79.532688 
L 277.93604 79.452645 
L 284.068364 79.301902 
L 286.363503 79.234999 
L 288.748296 79.145363 
L 291.671011 78.992854 
L 293.984081 78.827649 
L 294.235112 78.806953 
L 295.651642 78.679059 
L 298.054366 78.451996 
L 299.417104 78.328894 
L 300.779843 78.209907 
L 301.371559 78.159528 
L 306.876305 77.728978 
L 308.400421 77.622353 
L 309.440406 77.552879 
L 310.839006 77.463767 
L 316.343753 77.164573 
L 318.925784 77.055293 
L 321.597469 76.965617 
L 324.8788 76.891336 
L 327.496692 76.863306 
L 327.765654 76.862106 
L 329.361493 76.861751 
L 332.069039 76.888904 
L 333.611085 76.920906 
L 335.135201 76.964972 
L 335.798639 76.988143 
L 340.944771 77.271655 
L 342.002686 77.354623 
L 343.70611 77.506916 
L 346.449518 77.801986 
L 348.619141 78.07984 
L 351.488064 78.50847 
L 354.464572 79.027095 
L 358.104519 79.762822 
L 361.009304 80.428695 
L 361.314127 80.502556 
L 363.089273 80.947522 
L 366.101643 81.759677 
L 367.805066 82.250075 
L 369.490559 82.757004 
L 370.243651 82.990385 
L 377.129067 85.315437 
L 379.029729 86.016214 
L 382.07796 87.191548 
L 382.07796 40.456294 
L 382.07796 40.456294 
L 379.029729 41.961065 
L 377.129067 42.870983 
L 370.243651 45.971881 
L 369.490559 46.291409 
L 367.805066 46.991755 
L 366.101643 47.678296 
L 363.089273 48.838226 
L 361.314127 49.488231 
L 361.009304 49.597282 
L 358.104519 50.597851 
L 354.464572 51.750016 
L 351.488064 52.605215 
L 348.619141 53.353599 
L 346.449518 53.869529 
L 343.70611 54.460181 
L 342.002686 54.792536 
L 340.944771 54.985865 
L 335.798639 55.788145 
L 335.135201 55.875399 
L 333.611085 56.061672 
L 332.069039 56.231022 
L 329.361493 56.485608 
L 327.765654 56.61242 
L 327.496692 56.632226 
L 324.8788 56.803305 
L 321.597469 56.968814 
L 318.925784 57.070794 
L 316.343753 57.147461 
L 310.839006 57.262701 
L 309.440406 57.285781 
L 308.400421 57.302199 
L 306.876305 57.325762 
L 301.371559 57.418283 
L 300.779843 57.429956 
L 299.417104 57.458825 
L 298.054366 57.490885 
L 295.651642 57.556706 
L 294.235112 57.595914 
L 293.984081 57.602159 
L 291.671011 57.650444 
L 288.748296 57.689101 
L 286.363503 57.703155 
L 284.068364 57.702436 
L 277.93604 57.640472 
L 275.228494 57.593979 
L 273.094732 57.555379 
L 271.767855 57.532758 
L 266.944478 57.484213 
L 266.424485 57.484287 
L 265.241054 57.489987 
L 264.039693 57.504783 
L 261.941792 57.556791 
L 260.686638 57.606616 
L 260.471469 57.61673 
L 258.445292 57.736921 
L 255.899122 57.96012 
L 253.819153 58.196051 
L 251.810907 58.454071 
L 246.431675 59.258548 
L 239.617982 60.399816 
L 237.789043 60.70855 
L 236.641474 60.900153 
L 232.517397 61.567489 
L 232.069127 61.637671 
L 231.047073 61.795876 
L 230.025019 61.951627 
L 228.214012 62.222088 
L 227.156096 62.377311 
L 226.976788 62.403455 
L 225.237504 62.655266 
L 223.049949 62.970385 
L 221.256872 63.231469 
L 219.535518 63.48854 
L 214.92731 64.239735 
L 204.00747 66.816861 
L 202.483355 67.286538 
L 201.533024 67.574039 
L 198.090316 68.584144 
L 197.71377 68.691811 
L 196.871023 68.930866 
L 196.010346 69.172339 
L 194.504161 69.588664 
L 193.625554 69.828006 
L 193.464177 69.871697 
L 192.011784 70.261354 
L 190.200776 70.739121 
L 188.712522 71.126352 
L 187.278061 71.496541 
L 183.440876 72.487814 
L 168.379028 77.685326 
L 167.159735 78.322367 
L 166.406643 78.741204 
L 163.645304 80.459308 
L 163.358412 80.653945 
L 162.677042 81.118394 
L 161.995673 81.585999 
L 160.794311 82.418455 
L 160.077081 82.920491 
L 159.951565 83.008746 
L 158.803996 83.821311 
L 157.333673 84.877865 
L 156.150242 85.74151 
L 155.002672 86.590839 
L 151.93651 88.921706 
L 132.768516 106.454535 
L 131.854047 107.471877 
L 131.280262 108.121213 
L 129.218223 110.527668 
L 129.003054 110.78555 
L 128.483061 111.414197 
L 127.981 112.028545 
L 127.066531 113.166486 
L 126.546538 113.822129 
L 126.456884 113.935482 
L 125.578277 115.051223 
L 124.484499 116.452678 
L 123.587961 117.611838 
L 122.727284 118.733559 
L 120.432145 121.768147 
L 97.158004 156.295804 
L 96.548358 157.293802 
L 96.171812 157.912567 
L 94.791142 160.196701 
L 94.647696 160.43539 
L 94.307011 161.003313 
L 93.966327 161.572691 
L 93.35668 162.5952 
L 92.998065 163.198843 
L 92.944273 163.289527 
L 92.370488 164.259067 
L 91.635326 165.507254 
L 91.043611 166.516229 
L 90.469826 167.497739 
L 88.92778 170.150316 
L 61.547492 220.320386 
L 61.242669 220.911002 
L 61.045431 221.293568 
L 60.364061 222.617602 
L 60.292338 222.757195 
L 60.11303 223.106363 
L 59.951654 223.420841 
L 59.64683 224.01544 
L 59.467523 224.365562 
L 59.431661 224.435619 
L 59.144769 224.996455 
L 58.786153 225.698461 
L 58.48133 226.29601 
L 58.194438 226.859119 
L 57.423415 228.375899 
z
" style="fill:#999999;fill-opacity:0.4;"/>
   </g>
   <g id="PolyCollection_2">
    <path clip-path="url(#pd4fe7e4ba9)" d="M 57.423415 232.708202 
L 57.423415 266.281699 
L 58.194438 264.926904 
L 58.48133 264.424816 
L 58.786153 263.892554 
L 59.144769 263.267956 
L 59.431661 262.769522 
L 59.467523 262.707295 
L 59.64683 262.396423 
L 59.951654 261.868935 
L 60.11303 261.590185 
L 60.292338 261.280875 
L 60.364061 261.157274 
L 61.045431 259.986539 
L 61.242669 259.648822 
L 61.547492 259.127938 
L 88.92778 217.772221 
L 90.469826 215.763598 
L 91.043611 215.024291 
L 91.635326 214.266402 
L 92.370488 213.33097 
L 92.944273 212.605497 
L 92.998065 212.537689 
L 93.35668 212.086532 
L 93.966327 211.323104 
L 94.307011 210.898402 
L 94.647696 210.475064 
L 94.791142 210.297222 
L 96.171812 208.597585 
L 96.548358 208.137793 
L 97.158004 207.396707 
L 120.432145 181.665169 
L 122.727284 179.349697 
L 123.587961 178.489957 
L 124.484499 177.599251 
L 125.578277 176.519205 
L 126.456884 175.656819 
L 126.546538 175.569078 
L 127.066531 175.061114 
L 127.981 174.170238 
L 128.483061 173.682035 
L 129.003054 173.177098 
L 129.218223 172.968373 
L 131.280262 170.974898 
L 131.854047 170.422548 
L 132.768516 169.544563 
L 151.93651 152.123649 
L 155.002672 149.542703 
L 156.150242 148.590157 
L 157.333673 147.614896 
L 158.803996 146.412502 
L 159.951565 145.480647 
L 160.077081 145.379055 
L 160.794311 144.79971 
L 161.995673 143.83358 
L 162.677042 143.287836 
L 163.358412 142.743572 
L 163.645304 142.51483 
L 166.406643 140.313473 
L 167.159735 139.714016 
L 168.379028 138.745901 
L 183.440876 127.629042 
L 187.278061 125.184214 
L 188.712522 124.311967 
L 190.200776 123.428208 
L 192.011784 122.378234 
L 193.464177 121.552983 
L 193.625554 121.462067 
L 194.504161 120.969416 
L 196.010346 120.132435 
L 196.871023 119.657245 
L 197.71377 119.193276 
L 198.090316 118.986215 
L 201.533024 117.08874 
L 202.483355 116.559979 
L 204.00747 115.703622 
L 214.92731 109.530286 
L 219.535518 107.052754 
L 221.256872 106.168275 
L 223.049949 105.275913 
L 225.237504 104.231556 
L 226.976788 103.438714 
L 227.156096 103.358945 
L 228.214012 102.895951 
L 230.025019 102.134135 
L 231.047073 101.721502 
L 232.069127 101.321341 
L 232.517397 101.149741 
L 236.641474 99.679137 
L 237.789043 99.30271 
L 239.617982 98.729403 
L 246.431675 96.82315 
L 251.810907 95.467097 
L 253.819153 94.969421 
L 255.899122 94.450046 
L 258.445292 93.841694 
L 260.471469 93.401716 
L 260.686638 93.357208 
L 261.941792 93.105832 
L 264.039693 92.716254 
L 265.241054 92.509724 
L 266.424485 92.317552 
L 266.944478 92.236535 
L 271.767855 91.575514 
L 273.094732 91.418751 
L 275.228494 91.184442 
L 277.93604 90.910572 
L 284.068364 90.313824 
L 286.363503 90.067557 
L 288.748296 89.778896 
L 291.671011 89.359571 
L 293.984081 88.961158 
L 294.235112 88.913821 
L 295.651642 88.630267 
L 298.054366 88.133717 
L 299.417104 87.859911 
L 300.779843 87.591709 
L 301.371559 87.47699 
L 306.876305 86.460153 
L 308.400421 86.19484 
L 309.440406 86.017915 
L 310.839006 85.785317 
L 316.343753 84.931579 
L 318.925784 84.567049 
L 321.597469 84.215939 
L 324.8788 83.823624 
L 327.496692 83.543733 
L 327.765654 83.516732 
L 329.361493 83.363512 
L 332.069039 83.131977 
L 333.611085 83.016858 
L 335.135201 82.915554 
L 335.798639 82.875435 
L 340.944771 82.665952 
L 342.002686 82.647067 
L 343.70611 82.634999 
L 346.449518 82.664455 
L 348.619141 82.731503 
L 351.488064 82.880472 
L 354.464572 83.108021 
L 358.104519 83.486836 
L 361.009304 83.867416 
L 361.314127 83.911326 
L 363.089273 84.181859 
L 366.101643 84.698077 
L 367.805066 85.021264 
L 369.490559 85.362904 
L 370.243651 85.522499 
L 377.129067 87.17569 
L 379.029729 87.692162 
L 382.07796 88.573261 
L 382.07796 43.899424 
L 382.07796 43.899424 
L 379.029729 45.580215 
L 377.129067 46.603393 
L 370.243651 50.136821 
L 369.490559 50.505748 
L 367.805066 51.318132 
L 366.101643 52.11997 
L 363.089273 53.488851 
L 361.314127 54.264993 
L 361.009304 54.395927 
L 358.104519 55.608285 
L 354.464572 57.03409 
L 351.488064 58.119767 
L 348.619141 59.095896 
L 346.449518 59.78762 
L 343.70611 60.604819 
L 342.002686 61.080157 
L 340.944771 61.363153 
L 335.798639 62.610534 
L 335.135201 62.756207 
L 333.611085 63.077692 
L 332.069039 63.38528 
L 329.361493 63.886127 
L 327.765654 64.160227 
L 327.496692 64.205014 
L 324.8788 64.621644 
L 321.597469 65.101163 
L 318.925784 65.464034 
L 316.343753 65.79739 
L 310.839006 66.475288 
L 309.440406 66.644766 
L 308.400421 66.770975 
L 306.876305 66.95689 
L 301.371559 67.650608 
L 300.779843 67.728328 
L 299.417104 67.910388 
L 298.054366 68.097166 
L 295.651642 68.439587 
L 294.235112 68.638366 
L 293.984081 68.671891 
L 291.671011 68.958541 
L 288.748296 69.269035 
L 286.363503 69.485448 
L 284.068364 69.667076 
L 277.93604 70.060498 
L 275.228494 70.213414 
L 273.094732 70.336701 
L 271.767855 70.418185 
L 266.944478 70.78161 
L 266.424485 70.830078 
L 265.241054 70.949399 
L 264.039693 71.084851 
L 261.941792 71.361773 
L 260.686638 71.55565 
L 260.471469 71.591222 
L 258.445292 71.962789 
L 255.899122 72.534194 
L 253.819153 73.081629 
L 251.810907 73.661227 
L 246.431675 75.421326 
L 239.617982 77.950218 
L 237.789043 78.661365 
L 236.641474 79.111343 
L 232.517397 80.741722 
L 232.069127 80.919603 
L 231.047073 81.325404 
L 230.025019 81.731476 
L 228.214012 82.45174 
L 227.156096 82.873145 
L 226.976788 82.944639 
L 225.237504 83.639633 
L 223.049949 84.51974 
L 221.256872 85.249187 
L 219.535518 85.959432 
L 214.92731 87.934496 
L 204.00747 93.393056 
L 202.483355 94.277992 
L 201.533024 94.845633 
L 198.090316 96.990331 
L 197.71377 97.232203 
L 196.871023 97.777955 
L 196.010346 98.341118 
L 194.504161 99.338863 
L 193.625554 99.926953 
L 193.464177 100.035388 
L 192.011784 101.016261 
L 190.200776 102.248925 
L 188.712522 103.266846 
L 187.278061 104.250009 
L 183.440876 106.879488 
L 168.379028 117.358144 
L 167.159735 118.263131 
L 166.406643 118.830435 
L 163.645304 120.972437 
L 163.358412 121.200854 
L 162.677042 121.746519 
L 161.995673 122.296568 
L 160.794311 123.276736 
L 160.077081 123.867997 
L 159.951565 123.971923 
L 158.803996 124.928222 
L 157.333673 126.168991 
L 156.150242 127.179644 
L 155.002672 128.169337 
L 151.93651 130.857007 
L 132.768516 148.910671 
L 131.854047 149.831308 
L 131.280262 150.412311 
L 129.218223 152.522273 
L 129.003054 152.744467 
L 128.483061 153.283044 
L 127.981 153.80522 
L 127.066531 154.761848 
L 126.546538 155.308631 
L 126.456884 155.403061 
L 125.578277 156.33092 
L 124.484499 157.492123 
L 123.587961 158.448902 
L 122.727284 159.371552 
L 120.432145 161.851256 
L 97.158004 188.187638 
L 96.548358 188.894157 
L 96.171812 189.330597 
L 94.791142 190.931015 
L 94.647696 191.097284 
L 94.307011 191.492155 
L 93.966327 191.886987 
L 93.35668 192.593401 
L 92.998065 193.008839 
L 92.944273 193.071147 
L 92.370488 193.735631 
L 91.635326 194.586568 
L 91.043611 195.271009 
L 90.469826 195.934223 
L 88.92778 197.713899 
L 61.547492 228.264969 
L 61.242669 228.594355 
L 61.045431 228.807398 
L 60.364061 229.542838 
L 60.292338 229.620206 
L 60.11303 229.813588 
L 59.951654 229.987587 
L 59.64683 230.316132 
L 59.467523 230.509324 
L 59.431661 230.547956 
L 59.144769 230.856938 
L 58.786153 231.242985 
L 58.48133 231.570969 
L 58.194438 231.879532 
L 57.423415 232.708202 
z
" style="fill:#999999;fill-opacity:0.4;"/>
   </g>
   <g id="PolyCollection_3">
    <path clip-path="url(#pd4fe7e4ba9)" d="M 57.423415 226.386012 
L 57.423415 280.121371 
L 58.194438 278.041065 
L 58.48133 277.270895 
L 58.786153 276.454913 
L 59.144769 275.498007 
L 59.431661 274.73488 
L 59.467523 274.63964 
L 59.64683 274.163937 
L 59.951654 273.357161 
L 60.11303 272.931025 
L 60.292338 272.458337 
L 60.364061 272.269497 
L 61.045431 270.482233 
L 61.242669 269.967142 
L 61.547492 269.173106 
L 88.92778 208.384396 
L 90.469826 205.590761 
L 91.043611 204.567637 
L 91.635326 203.521731 
L 92.370488 202.235846 
L 92.944273 201.242954 
L 92.998065 201.150347 
L 93.35668 200.535035 
L 93.966327 199.497191 
L 94.307011 198.921658 
L 94.647696 198.349269 
L 94.791142 198.109197 
L 96.171812 195.826327 
L 96.548358 195.212322 
L 97.158004 194.225857 
L 120.432145 162.141258 
L 122.727284 159.415077 
L 123.587961 158.406846 
L 124.484499 157.364298 
L 125.578277 156.102567 
L 126.456884 155.09679 
L 126.546538 154.994535 
L 127.066531 154.402795 
L 127.981 153.371838 
L 128.483061 152.812299 
L 129.003054 152.237544 
L 129.218223 152.001122 
L 131.280262 149.776485 
L 131.854047 149.170486 
L 132.768516 148.216208 
L 151.93651 131.145844 
L 155.002672 128.816485 
L 156.150242 127.959165 
L 157.333673 127.080759 
L 158.803996 125.994796 
L 159.951565 125.149254 
L 160.077081 125.056799 
L 160.794311 124.528359 
L 161.995673 123.641849 
L 162.677042 123.137662 
L 163.358412 122.632025 
L 163.645304 122.418607 
L 166.406643 120.42697 
L 167.159735 119.906535 
L 168.379028 119.085356 
L 183.440876 111.417307 
L 187.278061 110.186722 
L 188.712522 109.779892 
L 190.200776 109.379288 
L 192.011784 108.910968 
L 193.464177 108.541623 
L 193.625554 108.500554 
L 194.504161 108.275862 
L 196.010346 107.882316 
L 196.871023 107.64972 
L 197.71377 107.414442 
L 198.090316 107.306474 
L 201.533024 106.210063 
L 202.483355 105.863803 
L 204.00747 105.259408 
L 214.92731 99.938037 
L 219.535518 97.513517 
L 221.256872 96.628091 
L 223.049949 95.729444 
L 225.237504 94.676106 
L 226.976788 93.879436 
L 227.156096 93.799583 
L 228.214012 93.337649 
L 230.025019 92.585144 
L 231.047073 92.182818 
L 232.069127 91.797158 
L 232.517397 91.63334 
L 236.641474 90.280043 
L 237.789043 89.952173 
L 239.617982 89.47152 
L 246.431675 88.080327 
L 251.810907 87.319496 
L 253.819153 87.086183 
L 255.899122 86.865021 
L 258.445292 86.656616 
L 260.471469 86.561513 
L 260.686638 86.55495 
L 261.941792 86.529806 
L 264.039693 86.536292 
L 265.241054 86.566158 
L 266.424485 86.613297 
L 266.944478 86.639369 
L 271.767855 87.021523 
L 273.094732 87.165034 
L 275.228494 87.422317 
L 277.93604 87.782331 
L 284.068364 88.615309 
L 286.363503 88.881891 
L 288.748296 89.100794 
L 291.671011 89.2556 
L 293.984081 89.264351 
L 294.235112 89.258333 
L 295.651642 89.196524 
L 298.054366 89.06421 
L 299.417104 89.001332 
L 300.779843 88.947056 
L 301.371559 88.926131 
L 306.876305 88.806594 
L 308.400421 88.797197 
L 309.440406 88.796672 
L 310.839006 88.803534 
L 316.343753 88.916718 
L 318.925784 89.019138 
L 321.597469 89.160449 
L 324.8788 89.386357 
L 327.496692 89.610916 
L 327.765654 89.636331 
L 329.361493 89.796451 
L 332.069039 90.105992 
L 333.611085 90.304581 
L 335.135201 90.517444 
L 335.798639 90.615384 
L 340.944771 91.516724 
L 342.002686 91.7362 
L 343.70611 92.115785 
L 346.449518 92.797313 
L 348.619141 93.399431 
L 351.488064 94.283029 
L 354.464572 95.305902 
L 358.104519 96.703371 
L 361.009304 97.932938 
L 361.314127 98.067777 
L 363.089273 98.874698 
L 366.101643 100.327673 
L 367.805066 101.195125 
L 369.490559 102.085491 
L 370.243651 102.493505 
L 377.129067 106.508936 
L 379.029729 107.705804 
L 382.07796 109.703147 
L 382.07796 38.201371 
L 382.07796 38.201371 
L 379.029729 40.304409 
L 377.129067 41.571795 
L 370.243651 45.857699 
L 369.490559 46.295598 
L 367.805066 47.252281 
L 366.101643 48.185466 
L 363.089273 49.749648 
L 361.314127 50.617959 
L 361.009304 50.762964 
L 358.104519 52.082939 
L 354.464572 53.573818 
L 351.488064 54.652801 
L 348.619141 55.569955 
L 346.449518 56.182273 
L 343.70611 56.855841 
L 342.002686 57.217733 
L 340.944771 57.420973 
L 335.798639 58.180822 
L 335.135201 58.251823 
L 333.611085 58.391365 
L 332.069039 58.50083 
L 329.361493 58.62233 
L 327.765654 58.655682 
L 327.496692 58.658734 
L 324.8788 58.653029 
L 321.597469 58.566693 
L 318.925784 58.444207 
L 316.343753 58.291891 
L 310.839006 57.897272 
L 309.440406 57.789384 
L 308.400421 57.708736 
L 306.876305 57.591053 
L 301.371559 57.19343 
L 300.779843 57.155137 
L 299.417104 57.07154 
L 298.054366 56.995128 
L 295.651642 56.880753 
L 294.235112 56.806879 
L 293.984081 56.790787 
L 291.671011 56.603158 
L 288.748296 56.274166 
L 286.363503 55.939627 
L 284.068364 55.569588 
L 277.93604 54.411181 
L 275.228494 53.857577 
L 273.094732 53.4226 
L 271.767855 53.158603 
L 266.944478 52.300136 
L 266.424485 52.221971 
L 265.241054 52.058231 
L 264.039693 51.914602 
L 261.941792 51.727808 
L 260.686638 51.660923 
L 260.471469 51.653183 
L 258.445292 51.638793 
L 255.899122 51.788062 
L 253.819153 52.054136 
L 251.810907 52.418567 
L 246.431675 53.826085 
L 239.617982 56.21383 
L 237.789043 56.915101 
L 236.641474 57.36069 
L 232.517397 58.969712 
L 232.069127 59.143583 
L 231.047073 59.538271 
L 230.025019 59.930096 
L 228.214012 60.616094 
L 227.156096 61.011466 
L 226.976788 61.078074 
L 225.237504 61.718134 
L 223.049949 62.508586 
L 221.256872 63.146483 
L 219.535518 63.75304 
L 214.92731 65.373347 
L 204.00747 69.550698 
L 202.483355 70.200835 
L 201.533024 70.609324 
L 198.090316 72.101422 
L 197.71377 72.265105 
L 196.871023 72.63128 
L 196.010346 73.004679 
L 194.504161 73.655532 
L 193.625554 74.032979 
L 193.464177 74.102087 
L 192.011784 74.720509 
L 190.200776 75.481229 
L 188.712522 76.096564 
L 187.278061 76.680919 
L 183.440876 78.207042 
L 168.379028 84.853629 
L 167.159735 85.573768 
L 166.406643 86.042743 
L 163.645304 87.939379 
L 163.358412 88.152277 
L 162.677042 88.660159 
L 161.995673 89.171235 
L 160.794311 90.080213 
L 160.077081 90.627726 
L 159.951565 90.723915 
L 158.803996 91.608582 
L 157.333673 92.755965 
L 156.150242 93.691018 
L 155.002672 94.607791 
L 151.93651 97.107965 
L 132.768516 115.191064 
L 131.854047 116.213606 
L 131.280262 116.865466 
L 129.218223 119.276544 
L 129.003054 119.534525 
L 128.483061 120.163121 
L 127.981 120.777036 
L 127.066531 121.913228 
L 126.546538 122.5671 
L 126.456884 122.680062 
L 125.578277 123.79063 
L 124.484499 125.182255 
L 123.587961 126.330555 
L 122.727284 127.439474 
L 120.432145 130.428514 
L 97.158004 163.481183 
L 96.548358 164.412322 
L 96.171812 164.988953 
L 94.791142 167.113019 
L 94.647696 167.334568 
L 94.307011 167.861394 
L 93.966327 168.389122 
L 93.35668 169.335712 
L 92.998065 169.893854 
L 92.944273 169.977659 
L 92.370488 170.872936 
L 91.635326 172.023585 
L 91.043611 172.951934 
L 90.469826 173.85327 
L 88.92778 176.280469 
L 61.547492 219.776027 
L 61.242669 220.263565 
L 61.045431 220.579111 
L 60.364061 221.669673 
L 60.292338 221.784515 
L 60.11303 222.071659 
L 59.951654 222.330137 
L 59.64683 222.818499 
L 59.467523 223.10585 
L 59.431661 223.163327 
L 59.144769 223.623231 
L 58.786153 224.198329 
L 58.48133 224.687357 
L 58.194438 225.147785 
L 57.423415 226.386012 
z
" style="fill:#999999;fill-opacity:0.4;"/>
   </g>
   <g id="line2d_27">
    <path clip-path="url(#pd4fe7e4ba9)" d="M 57.423415 245.937251 
L 61.547492 236.463936 
L 88.92778 180.642259 
L 94.791142 170.326619 
L 97.158004 166.343528 
L 120.432145 132.132247 
L 127.066531 123.784461 
L 129.218223 121.222448 
L 132.768516 117.247543 
L 151.93651 100.045687 
L 158.803996 95.059133 
L 163.645304 91.727528 
L 167.159735 89.542722 
L 168.379028 88.872659 
L 183.440876 83.341322 
L 192.011784 81.435201 
L 198.090316 80.089572 
L 204.00747 78.48689 
L 214.92731 75.535885 
L 223.049949 73.827354 
L 231.047073 72.4645 
L 239.617982 71.268823 
L 255.899122 69.423685 
L 261.941792 68.930496 
L 266.944478 68.706681 
L 277.93604 68.546558 
L 288.748296 68.417232 
L 295.651642 68.117883 
L 306.876305 67.52737 
L 354.464572 65.388555 
L 382.07796 63.823921 
L 382.07796 63.823921 
" style="fill:none;stroke:#db5f57;stroke-linejoin:miter;stroke-width:1.772454;"/>
   </g>
   <g id="line2d_28">
    <path clip-path="url(#pd4fe7e4ba9)" d="M 57.423415 249.49495 
L 61.547492 243.696454 
L 91.043611 205.14765 
L 97.158004 197.792173 
L 120.432145 171.758213 
L 129.003054 162.960783 
L 132.768516 159.227617 
L 151.93651 141.490328 
L 160.077081 134.623526 
L 166.406643 129.571954 
L 168.379028 128.052022 
L 183.440876 117.254265 
L 192.011784 111.697247 
L 198.090316 107.988273 
L 204.00747 104.548339 
L 214.92731 98.732391 
L 223.049949 94.897826 
L 230.025019 91.932806 
L 236.641474 89.39524 
L 239.617982 88.339811 
L 246.431675 86.122238 
L 255.899122 83.49212 
L 260.686638 82.456429 
L 265.241054 81.729561 
L 266.944478 81.509073 
L 275.228494 80.698928 
L 288.748296 79.523966 
L 294.235112 78.776094 
L 306.876305 76.708521 
L 318.925784 75.015542 
L 346.449518 71.226038 
L 379.029729 66.636188 
L 382.07796 66.236342 
L 382.07796 66.236342 
" style="fill:none;stroke:#57db5f;stroke-linejoin:miter;stroke-width:1.772454;"/>
   </g>
   <g id="line2d_29">
    <path clip-path="url(#pd4fe7e4ba9)" d="M 57.423415 253.253692 
L 61.547492 244.474566 
L 88.92778 192.332433 
L 94.791142 182.611108 
L 97.158004 178.85352 
L 120.432145 146.284886 
L 127.066531 138.158012 
L 131.280262 133.320975 
L 132.768516 131.703636 
L 151.93651 114.126905 
L 160.077081 107.842262 
L 163.645304 105.178993 
L 168.379028 101.969492 
L 183.440876 94.812174 
L 193.625554 91.266766 
L 198.090316 89.703948 
L 204.00747 87.405053 
L 228.214012 76.976872 
L 232.517397 75.301526 
L 239.617982 72.842675 
L 246.431675 70.953206 
L 253.819153 69.57016 
L 255.899122 69.326541 
L 260.471469 69.107348 
L 264.039693 69.225447 
L 266.944478 69.469752 
L 275.228494 70.639947 
L 286.363503 72.410759 
L 291.671011 72.929379 
L 295.651642 73.038639 
L 301.371559 73.059781 
L 310.839006 73.350403 
L 335.798639 74.398103 
L 348.619141 74.484693 
L 363.089273 74.312173 
L 382.07796 73.952259 
L 382.07796 73.952259 
" style="fill:none;stroke:#5f57db;stroke-linejoin:miter;stroke-width:1.772454;"/>
   </g>
   <g id="patch_3">
    <path d="M 405.510688 202.916339 
L 517.346688 202.916339 
L 517.346688 111.950402 
L 405.510688 111.950402 
z
" style="fill:#ffffff;"/>
   </g>
   <g id="text_12">
    <!-- Model -->
    <g transform="translate(417.710688 135.543996)scale(0.11 -0.11)">
     <defs>
      <path d="M 628 4666 
L 1569 4666 
L 2759 1491 
L 3956 4666 
L 4897 4666 
L 4897 0 
L 4281 0 
L 4281 4097 
L 3078 897 
L 2444 897 
L 1241 4097 
L 1241 0 
L 628 0 
L 628 4666 
z
" id="DejaVuSans-4d" transform="scale(0.015625)"/>
     </defs>
     <use xlink:href="#DejaVuSans-4d"/>
     <use x="86.279297" xlink:href="#DejaVuSans-6f"/>
     <use x="147.460938" xlink:href="#DejaVuSans-64"/>
     <use x="210.9375" xlink:href="#DejaVuSans-65"/>
     <use x="272.460938" xlink:href="#DejaVuSans-6c"/>
    </g>
   </g>
   <g id="patch_4">
    <path clip-path="url(#pe7d9d69fee)" d="M 417.710688 155.036339 
L 433.550687 155.036339 
L 433.550687 139.196339 
L 417.710688 139.196339 
z
" style="fill:#f2f2f2;"/>
   </g>
   <g id="patch_5">
    <path clip-path="url(#pe7d9d69fee)" d="M 417.710688 151.076339 
L 433.550687 151.076339 
L 433.550687 143.156339 
L 417.710688 143.156339 
z
" style="fill:#999999;opacity:0.4;"/>
   </g>
   <g id="line2d_30">
    <path clip-path="url(#pe7d9d69fee)" d="M 417.710688 147.116339 
L 433.550687 147.116339 
" style="fill:none;stroke:#db5f57;stroke-width:1.772454;"/>
   </g>
   <g id="text_13">
    <!-- five_layer_net -->
    <g transform="translate(436.550687 149.422214)scale(0.088 -0.088)">
     <defs>
      <path d="M 2375 4863 
L 2375 4384 
L 1825 4384 
Q 1516 4384 1395 4259 
Q 1275 4134 1275 3809 
L 1275 3500 
L 2222 3500 
L 2222 3053 
L 1275 3053 
L 1275 0 
L 697 0 
L 697 3053 
L 147 3053 
L 147 3500 
L 697 3500 
L 697 3744 
Q 697 4328 969 4595 
Q 1241 4863 1831 4863 
L 2375 4863 
z
" id="DejaVuSans-66" transform="scale(0.015625)"/>
      <path d="M 191 3500 
L 800 3500 
L 1894 563 
L 2988 3500 
L 3597 3500 
L 2284 0 
L 1503 0 
L 191 3500 
z
" id="DejaVuSans-76" transform="scale(0.015625)"/>
      <path d="M 3263 -1063 
L 3263 -1509 
L -63 -1509 
L -63 -1063 
L 3263 -1063 
z
" id="DejaVuSans-5f" transform="scale(0.015625)"/>
     </defs>
     <use xlink:href="#DejaVuSans-66"/>
     <use x="35.205078" xlink:href="#DejaVuSans-69"/>
     <use x="62.988281" xlink:href="#DejaVuSans-76"/>
     <use x="122.167969" xlink:href="#DejaVuSans-65"/>
     <use x="183.691406" xlink:href="#DejaVuSans-5f"/>
     <use x="233.691406" xlink:href="#DejaVuSans-6c"/>
     <use x="261.474609" xlink:href="#DejaVuSans-61"/>
     <use x="322.753906" xlink:href="#DejaVuSans-79"/>
     <use x="381.933594" xlink:href="#DejaVuSans-65"/>
     <use x="443.457031" xlink:href="#DejaVuSans-72"/>
     <use x="484.570312" xlink:href="#DejaVuSans-5f"/>
     <use x="534.570312" xlink:href="#DejaVuSans-6e"/>
     <use x="597.949219" xlink:href="#DejaVuSans-65"/>
     <use x="659.472656" xlink:href="#DejaVuSans-74"/>
    </g>
   </g>
   <g id="patch_6">
    <path clip-path="url(#p8ce3342269)" d="M 417.710688 172.876339 
L 433.550687 172.876339 
L 433.550687 157.036339 
L 417.710688 157.036339 
z
" style="fill:#f2f2f2;"/>
   </g>
   <g id="patch_7">
    <path clip-path="url(#p8ce3342269)" d="M 417.710688 168.916339 
L 433.550687 168.916339 
L 433.550687 160.996339 
L 417.710688 160.996339 
z
" style="fill:#999999;opacity:0.4;"/>
   </g>
   <g id="line2d_31">
    <path clip-path="url(#p8ce3342269)" d="M 417.710688 164.956339 
L 433.550687 164.956339 
" style="fill:none;stroke:#57db5f;stroke-width:1.772454;"/>
   </g>
   <g id="text_14">
    <!-- pytorch_lr -->
    <g transform="translate(436.550687 167.262214)scale(0.088 -0.088)">
     <defs>
      <path d="M 3513 2113 
L 3513 0 
L 2938 0 
L 2938 2094 
Q 2938 2591 2744 2837 
Q 2550 3084 2163 3084 
Q 1697 3084 1428 2787 
Q 1159 2491 1159 1978 
L 1159 0 
L 581 0 
L 581 4863 
L 1159 4863 
L 1159 2956 
Q 1366 3272 1645 3428 
Q 1925 3584 2291 3584 
Q 2894 3584 3203 3211 
Q 3513 2838 3513 2113 
z
" id="DejaVuSans-68" transform="scale(0.015625)"/>
     </defs>
     <use xlink:href="#DejaVuSans-70"/>
     <use x="63.476562" xlink:href="#DejaVuSans-79"/>
     <use x="122.65625" xlink:href="#DejaVuSans-74"/>
     <use x="161.865234" xlink:href="#DejaVuSans-6f"/>
     <use x="223.046875" xlink:href="#DejaVuSans-72"/>
     <use x="261.910156" xlink:href="#DejaVuSans-63"/>
     <use x="316.890625" xlink:href="#DejaVuSans-68"/>
     <use x="380.269531" xlink:href="#DejaVuSans-5f"/>
     <use x="430.269531" xlink:href="#DejaVuSans-6c"/>
     <use x="458.052734" xlink:href="#DejaVuSans-72"/>
    </g>
   </g>
   <g id="patch_8">
    <path clip-path="url(#p2755bdbf1a)" d="M 417.710688 190.716339 
L 433.550687 190.716339 
L 433.550687 174.876339 
L 417.710688 174.876339 
z
" style="fill:#f2f2f2;"/>
   </g>
   <g id="patch_9">
    <path clip-path="url(#p2755bdbf1a)" d="M 417.710688 186.756339 
L 433.550687 186.756339 
L 433.550687 178.836339 
L 417.710688 178.836339 
z
" style="fill:#999999;opacity:0.4;"/>
   </g>
   <g id="line2d_32">
    <path clip-path="url(#p2755bdbf1a)" d="M 417.710688 182.796339 
L 433.550687 182.796339 
" style="fill:none;stroke:#5f57db;stroke-width:1.772454;"/>
   </g>
   <g id="text_15">
    <!-- three_layer_net -->
    <g transform="translate(436.550687 185.102214)scale(0.088 -0.088)">
     <use xlink:href="#DejaVuSans-74"/>
     <use x="39.208984" xlink:href="#DejaVuSans-68"/>
     <use x="102.587891" xlink:href="#DejaVuSans-72"/>
     <use x="141.451172" xlink:href="#DejaVuSans-65"/>
     <use x="202.974609" xlink:href="#DejaVuSans-65"/>
     <use x="264.498047" xlink:href="#DejaVuSans-5f"/>
     <use x="314.498047" xlink:href="#DejaVuSans-6c"/>
     <use x="342.28125" xlink:href="#DejaVuSans-61"/>
     <use x="403.560547" xlink:href="#DejaVuSans-79"/>
     <use x="462.740234" xlink:href="#DejaVuSans-65"/>
     <use x="524.263672" xlink:href="#DejaVuSans-72"/>
     <use x="565.376953" xlink:href="#DejaVuSans-5f"/>
     <use x="615.376953" xlink:href="#DejaVuSans-6e"/>
     <use x="678.755859" xlink:href="#DejaVuSans-65"/>
     <use x="740.279297" xlink:href="#DejaVuSans-74"/>
    </g>
   </g>
  </g>
  <g id="text_16">
   <!-- Metadata sex prediction -->
   <g transform="translate(134.141 17.229938)scale(0.132 -0.132)">
    <defs>
     <path d="M 3513 3500 
L 2247 1797 
L 3578 0 
L 2900 0 
L 1881 1375 
L 863 0 
L 184 0 
L 1544 1831 
L 300 3500 
L 978 3500 
L 1906 2253 
L 2834 3500 
L 3513 3500 
z
" id="DejaVuSans-78" transform="scale(0.015625)"/>
    </defs>
    <use xlink:href="#DejaVuSans-4d"/>
    <use x="86.279297" xlink:href="#DejaVuSans-65"/>
    <use x="147.802734" xlink:href="#DejaVuSans-74"/>
    <use x="187.011719" xlink:href="#DejaVuSans-61"/>
    <use x="248.291016" xlink:href="#DejaVuSans-64"/>
    <use x="311.767578" xlink:href="#DejaVuSans-61"/>
    <use x="373.046875" xlink:href="#DejaVuSans-74"/>
    <use x="412.255859" xlink:href="#DejaVuSans-61"/>
    <use x="473.535156" xlink:href="#DejaVuSans-20"/>
    <use x="505.322266" xlink:href="#DejaVuSans-73"/>
    <use x="557.421875" xlink:href="#DejaVuSans-65"/>
    <use x="617.195312" xlink:href="#DejaVuSans-78"/>
    <use x="676.375" xlink:href="#DejaVuSans-20"/>
    <use x="708.162109" xlink:href="#DejaVuSans-70"/>
    <use x="771.638672" xlink:href="#DejaVuSans-72"/>
    <use x="810.501953" xlink:href="#DejaVuSans-65"/>
    <use x="872.025391" xlink:href="#DejaVuSans-64"/>
    <use x="935.501953" xlink:href="#DejaVuSans-69"/>
    <use x="963.285156" xlink:href="#DejaVuSans-63"/>
    <use x="1018.265625" xlink:href="#DejaVuSans-74"/>
    <use x="1057.474609" xlink:href="#DejaVuSans-69"/>
    <use x="1085.257812" xlink:href="#DejaVuSans-6f"/>
    <use x="1146.439453" xlink:href="#DejaVuSans-6e"/>
   </g>
  </g>
 </g>
 <defs>
  <clipPath id="pd4fe7e4ba9">
   <rect height="266.112" width="357.12" x="41.190688" y="26.105371"/>
  </clipPath>
  <clipPath id="pe7d9d69fee">
   <path d="M 417.710688 155.036339 
L 417.710688 139.196339 
L 433.550687 139.196339 
L 433.550687 155.036339 
"/>
  </clipPath>
  <clipPath id="p8ce3342269">
   <path d="M 417.710688 172.876339 
L 417.710688 157.036339 
L 433.550687 157.036339 
L 433.550687 172.876339 
"/>
  </clipPath>
  <clipPath id="p2755bdbf1a">
   <path d="M 417.710688 190.716339 
L 417.710688 174.876339 
L 433.550687 174.876339 
L 433.550687 190.716339 
"/>
  </clipPath>
 </defs>
</svg>
