<?xml version="1.0" encoding="utf-8" standalone="no"?>
<!DOCTYPE svg PUBLIC "-//W3C//DTD SVG 1.1//EN"
  "http://www.w3.org/Graphics/SVG/1.1/DTD/svg11.dtd">
<svg height="327.930058pt" version="1.1" viewBox="0 0 524.546688 327.930058" width="524.546688pt" xmlns="http://www.w3.org/2000/svg" xmlns:xlink="http://www.w3.org/1999/xlink">
 <metadata>
  <rdf:RDF xmlns:cc="http://creativecommons.org/ns#" xmlns:dc="http://purl.org/dc/elements/1.1/" xmlns:rdf="http://www.w3.org/1999/02/22-rdf-syntax-ns#">
   <cc:Work>
    <dc:type rdf:resource="http://purl.org/dc/dcmitype/StillImage"/>
    <dc:date>2022-03-01T10:58:29.347350</dc:date>
    <dc:format>image/svg+xml</dc:format>
    <dc:creator>
     <cc:Agent>
      <dc:title>Matplotlib v3.4.2, https://matplotlib.org/</dc:title>
     </cc:Agent>
    </dc:creator>
   </cc:Work>
  </rdf:RDF>
 </metadata>
 <defs>
  <style type="text/css">*{stroke-linecap:butt;stroke-linejoin:round;}</style>
 </defs>
 <g id="figure_1">
  <g id="patch_1">
   <path d="M 0 327.930058 
L 524.546688 327.930058 
L 524.546688 0 
L 0 0 
z
" style="fill:#ffffff;stroke:#ffffff;stroke-linejoin:miter;"/>
  </g>
  <g id="axes_1">
   <g id="patch_2">
    <path d="M 41.190688 292.217371 
L 398.310688 292.217371 
L 398.310688 26.105371 
L 41.190688 26.105371 
z
" style="fill:#ebebeb;"/>
   </g>
   <g id="matplotlib.axis_1">
    <g id="xtick_1">
     <g id="line2d_1">
      <path clip-path="url(#p8b9c79ba39)" d="M 115.590837 292.217371 
L 115.590837 26.105371 
" style="fill:none;stroke:#ffffff;"/>
     </g>
     <g id="line2d_2">
      <path d="M 115.590837 292.217371 
" style="fill:none;stroke:#333333;stroke-width:1.5;"/>
      <defs>
       <path d="M 0 0 
L 0 2.75 
" id="md68a05028f" style="stroke:#000000;"/>
      </defs>
      <g>
       <use style="fill:#333333;stroke:#000000;" x="115.590837" xlink:href="#md68a05028f" y="292.217371"/>
      </g>
     </g>
     <g id="text_1">
      <!-- 5000 -->
      <g style="fill:#4d4d4d;" transform="translate(104.392837 303.853996)scale(0.088 -0.088)">
       <defs>
        <path d="M 691 4666 
L 3169 4666 
L 3169 4134 
L 1269 4134 
L 1269 2991 
Q 1406 3038 1543 3061 
Q 1681 3084 1819 3084 
Q 2600 3084 3056 2656 
Q 3513 2228 3513 1497 
Q 3513 744 3044 326 
Q 2575 -91 1722 -91 
Q 1428 -91 1123 -41 
Q 819 9 494 109 
L 494 744 
Q 775 591 1075 516 
Q 1375 441 1709 441 
Q 2250 441 2565 725 
Q 2881 1009 2881 1497 
Q 2881 1984 2565 2268 
Q 2250 2553 1709 2553 
Q 1456 2553 1204 2497 
Q 953 2441 691 2322 
L 691 4666 
z
" id="DejaVuSans-35" transform="scale(0.015625)"/>
        <path d="M 2034 4250 
Q 1547 4250 1301 3770 
Q 1056 3291 1056 2328 
Q 1056 1369 1301 889 
Q 1547 409 2034 409 
Q 2525 409 2770 889 
Q 3016 1369 3016 2328 
Q 3016 3291 2770 3770 
Q 2525 4250 2034 4250 
z
M 2034 4750 
Q 2819 4750 3233 4129 
Q 3647 3509 3647 2328 
Q 3647 1150 3233 529 
Q 2819 -91 2034 -91 
Q 1250 -91 836 529 
Q 422 1150 422 2328 
Q 422 3509 836 4129 
Q 1250 4750 2034 4750 
z
" id="DejaVuSans-30" transform="scale(0.015625)"/>
       </defs>
       <use xlink:href="#DejaVuSans-35"/>
       <use x="63.623047" xlink:href="#DejaVuSans-30"/>
       <use x="127.246094" xlink:href="#DejaVuSans-30"/>
       <use x="190.869141" xlink:href="#DejaVuSans-30"/>
      </g>
     </g>
    </g>
    <g id="xtick_2">
     <g id="line2d_3">
      <path clip-path="url(#p8b9c79ba39)" d="M 205.244694 292.217371 
L 205.244694 26.105371 
" style="fill:none;stroke:#ffffff;"/>
     </g>
     <g id="line2d_4">
      <path d="M 205.244694 292.217371 
" style="fill:none;stroke:#333333;stroke-width:1.5;"/>
      <g>
       <use style="fill:#333333;stroke:#000000;" x="205.244694" xlink:href="#md68a05028f" y="292.217371"/>
      </g>
     </g>
     <g id="text_2">
      <!-- 10000 -->
      <g style="fill:#4d4d4d;" transform="translate(191.247194 303.853996)scale(0.088 -0.088)">
       <defs>
        <path d="M 794 531 
L 1825 531 
L 1825 4091 
L 703 3866 
L 703 4441 
L 1819 4666 
L 2450 4666 
L 2450 531 
L 3481 531 
L 3481 0 
L 794 0 
L 794 531 
z
" id="DejaVuSans-31" transform="scale(0.015625)"/>
       </defs>
       <use xlink:href="#DejaVuSans-31"/>
       <use x="63.623047" xlink:href="#DejaVuSans-30"/>
       <use x="127.246094" xlink:href="#DejaVuSans-30"/>
       <use x="190.869141" xlink:href="#DejaVuSans-30"/>
       <use x="254.492188" xlink:href="#DejaVuSans-30"/>
      </g>
     </g>
    </g>
    <g id="xtick_3">
     <g id="line2d_5">
      <path clip-path="url(#p8b9c79ba39)" d="M 294.89855 292.217371 
L 294.89855 26.105371 
" style="fill:none;stroke:#ffffff;"/>
     </g>
     <g id="line2d_6">
      <path d="M 294.89855 292.217371 
" style="fill:none;stroke:#333333;stroke-width:1.5;"/>
      <g>
       <use style="fill:#333333;stroke:#000000;" x="294.89855" xlink:href="#md68a05028f" y="292.217371"/>
      </g>
     </g>
     <g id="text_3">
      <!-- 15000 -->
      <g style="fill:#4d4d4d;" transform="translate(280.90105 303.853996)scale(0.088 -0.088)">
       <use xlink:href="#DejaVuSans-31"/>
       <use x="63.623047" xlink:href="#DejaVuSans-35"/>
       <use x="127.246094" xlink:href="#DejaVuSans-30"/>
       <use x="190.869141" xlink:href="#DejaVuSans-30"/>
       <use x="254.492188" xlink:href="#DejaVuSans-30"/>
      </g>
     </g>
    </g>
    <g id="xtick_4">
     <g id="line2d_7">
      <path clip-path="url(#p8b9c79ba39)" d="M 384.552407 292.217371 
L 384.552407 26.105371 
" style="fill:none;stroke:#ffffff;"/>
     </g>
     <g id="line2d_8">
      <path d="M 384.552407 292.217371 
" style="fill:none;stroke:#333333;stroke-width:1.5;"/>
      <g>
       <use style="fill:#333333;stroke:#000000;" x="384.552407" xlink:href="#md68a05028f" y="292.217371"/>
      </g>
     </g>
     <g id="text_4">
      <!-- 20000 -->
      <g style="fill:#4d4d4d;" transform="translate(370.554907 303.853996)scale(0.088 -0.088)">
       <defs>
        <path d="M 1228 531 
L 3431 531 
L 3431 0 
L 469 0 
L 469 531 
Q 828 903 1448 1529 
Q 2069 2156 2228 2338 
Q 2531 2678 2651 2914 
Q 2772 3150 2772 3378 
Q 2772 3750 2511 3984 
Q 2250 4219 1831 4219 
Q 1534 4219 1204 4116 
Q 875 4013 500 3803 
L 500 4441 
Q 881 4594 1212 4672 
Q 1544 4750 1819 4750 
Q 2544 4750 2975 4387 
Q 3406 4025 3406 3419 
Q 3406 3131 3298 2873 
Q 3191 2616 2906 2266 
Q 2828 2175 2409 1742 
Q 1991 1309 1228 531 
z
" id="DejaVuSans-32" transform="scale(0.015625)"/>
       </defs>
       <use xlink:href="#DejaVuSans-32"/>
       <use x="63.623047" xlink:href="#DejaVuSans-30"/>
       <use x="127.246094" xlink:href="#DejaVuSans-30"/>
       <use x="190.869141" xlink:href="#DejaVuSans-30"/>
       <use x="254.492188" xlink:href="#DejaVuSans-30"/>
      </g>
     </g>
    </g>
    <g id="xtick_5">
     <g id="line2d_9">
      <path clip-path="url(#p8b9c79ba39)" d="M 70.763909 292.217371 
L 70.763909 26.105371 
" style="fill:none;stroke:#ffffff;stroke-width:0.5;"/>
     </g>
    </g>
    <g id="xtick_6">
     <g id="line2d_10">
      <path clip-path="url(#p8b9c79ba39)" d="M 160.417765 292.217371 
L 160.417765 26.105371 
" style="fill:none;stroke:#ffffff;stroke-width:0.5;"/>
     </g>
    </g>
    <g id="xtick_7">
     <g id="line2d_11">
      <path clip-path="url(#p8b9c79ba39)" d="M 250.071622 292.217371 
L 250.071622 26.105371 
" style="fill:none;stroke:#ffffff;stroke-width:0.5;"/>
     </g>
    </g>
    <g id="xtick_8">
     <g id="line2d_12">
      <path clip-path="url(#p8b9c79ba39)" d="M 339.725478 292.217371 
L 339.725478 26.105371 
" style="fill:none;stroke:#ffffff;stroke-width:0.5;"/>
     </g>
    </g>
    <g id="text_5">
     <!-- Train sample count -->
     <g transform="translate(161.787953 318.442402)scale(0.11 -0.11)">
      <defs>
       <path d="M -19 4666 
L 3928 4666 
L 3928 4134 
L 2272 4134 
L 2272 0 
L 1638 0 
L 1638 4134 
L -19 4134 
L -19 4666 
z
" id="DejaVuSans-54" transform="scale(0.015625)"/>
       <path d="M 2631 2963 
Q 2534 3019 2420 3045 
Q 2306 3072 2169 3072 
Q 1681 3072 1420 2755 
Q 1159 2438 1159 1844 
L 1159 0 
L 581 0 
L 581 3500 
L 1159 3500 
L 1159 2956 
Q 1341 3275 1631 3429 
Q 1922 3584 2338 3584 
Q 2397 3584 2469 3576 
Q 2541 3569 2628 3553 
L 2631 2963 
z
" id="DejaVuSans-72" transform="scale(0.015625)"/>
       <path d="M 2194 1759 
Q 1497 1759 1228 1600 
Q 959 1441 959 1056 
Q 959 750 1161 570 
Q 1363 391 1709 391 
Q 2188 391 2477 730 
Q 2766 1069 2766 1631 
L 2766 1759 
L 2194 1759 
z
M 3341 1997 
L 3341 0 
L 2766 0 
L 2766 531 
Q 2569 213 2275 61 
Q 1981 -91 1556 -91 
Q 1019 -91 701 211 
Q 384 513 384 1019 
Q 384 1609 779 1909 
Q 1175 2209 1959 2209 
L 2766 2209 
L 2766 2266 
Q 2766 2663 2505 2880 
Q 2244 3097 1772 3097 
Q 1472 3097 1187 3025 
Q 903 2953 641 2809 
L 641 3341 
Q 956 3463 1253 3523 
Q 1550 3584 1831 3584 
Q 2591 3584 2966 3190 
Q 3341 2797 3341 1997 
z
" id="DejaVuSans-61" transform="scale(0.015625)"/>
       <path d="M 603 3500 
L 1178 3500 
L 1178 0 
L 603 0 
L 603 3500 
z
M 603 4863 
L 1178 4863 
L 1178 4134 
L 603 4134 
L 603 4863 
z
" id="DejaVuSans-69" transform="scale(0.015625)"/>
       <path d="M 3513 2113 
L 3513 0 
L 2938 0 
L 2938 2094 
Q 2938 2591 2744 2837 
Q 2550 3084 2163 3084 
Q 1697 3084 1428 2787 
Q 1159 2491 1159 1978 
L 1159 0 
L 581 0 
L 581 3500 
L 1159 3500 
L 1159 2956 
Q 1366 3272 1645 3428 
Q 1925 3584 2291 3584 
Q 2894 3584 3203 3211 
Q 3513 2838 3513 2113 
z
" id="DejaVuSans-6e" transform="scale(0.015625)"/>
       <path id="DejaVuSans-20" transform="scale(0.015625)"/>
       <path d="M 2834 3397 
L 2834 2853 
Q 2591 2978 2328 3040 
Q 2066 3103 1784 3103 
Q 1356 3103 1142 2972 
Q 928 2841 928 2578 
Q 928 2378 1081 2264 
Q 1234 2150 1697 2047 
L 1894 2003 
Q 2506 1872 2764 1633 
Q 3022 1394 3022 966 
Q 3022 478 2636 193 
Q 2250 -91 1575 -91 
Q 1294 -91 989 -36 
Q 684 19 347 128 
L 347 722 
Q 666 556 975 473 
Q 1284 391 1588 391 
Q 1994 391 2212 530 
Q 2431 669 2431 922 
Q 2431 1156 2273 1281 
Q 2116 1406 1581 1522 
L 1381 1569 
Q 847 1681 609 1914 
Q 372 2147 372 2553 
Q 372 3047 722 3315 
Q 1072 3584 1716 3584 
Q 2034 3584 2315 3537 
Q 2597 3491 2834 3397 
z
" id="DejaVuSans-73" transform="scale(0.015625)"/>
       <path d="M 3328 2828 
Q 3544 3216 3844 3400 
Q 4144 3584 4550 3584 
Q 5097 3584 5394 3201 
Q 5691 2819 5691 2113 
L 5691 0 
L 5113 0 
L 5113 2094 
Q 5113 2597 4934 2840 
Q 4756 3084 4391 3084 
Q 3944 3084 3684 2787 
Q 3425 2491 3425 1978 
L 3425 0 
L 2847 0 
L 2847 2094 
Q 2847 2600 2669 2842 
Q 2491 3084 2119 3084 
Q 1678 3084 1418 2786 
Q 1159 2488 1159 1978 
L 1159 0 
L 581 0 
L 581 3500 
L 1159 3500 
L 1159 2956 
Q 1356 3278 1631 3431 
Q 1906 3584 2284 3584 
Q 2666 3584 2933 3390 
Q 3200 3197 3328 2828 
z
" id="DejaVuSans-6d" transform="scale(0.015625)"/>
       <path d="M 1159 525 
L 1159 -1331 
L 581 -1331 
L 581 3500 
L 1159 3500 
L 1159 2969 
Q 1341 3281 1617 3432 
Q 1894 3584 2278 3584 
Q 2916 3584 3314 3078 
Q 3713 2572 3713 1747 
Q 3713 922 3314 415 
Q 2916 -91 2278 -91 
Q 1894 -91 1617 61 
Q 1341 213 1159 525 
z
M 3116 1747 
Q 3116 2381 2855 2742 
Q 2594 3103 2138 3103 
Q 1681 3103 1420 2742 
Q 1159 2381 1159 1747 
Q 1159 1113 1420 752 
Q 1681 391 2138 391 
Q 2594 391 2855 752 
Q 3116 1113 3116 1747 
z
" id="DejaVuSans-70" transform="scale(0.015625)"/>
       <path d="M 603 4863 
L 1178 4863 
L 1178 0 
L 603 0 
L 603 4863 
z
" id="DejaVuSans-6c" transform="scale(0.015625)"/>
       <path d="M 3597 1894 
L 3597 1613 
L 953 1613 
Q 991 1019 1311 708 
Q 1631 397 2203 397 
Q 2534 397 2845 478 
Q 3156 559 3463 722 
L 3463 178 
Q 3153 47 2828 -22 
Q 2503 -91 2169 -91 
Q 1331 -91 842 396 
Q 353 884 353 1716 
Q 353 2575 817 3079 
Q 1281 3584 2069 3584 
Q 2775 3584 3186 3129 
Q 3597 2675 3597 1894 
z
M 3022 2063 
Q 3016 2534 2758 2815 
Q 2500 3097 2075 3097 
Q 1594 3097 1305 2825 
Q 1016 2553 972 2059 
L 3022 2063 
z
" id="DejaVuSans-65" transform="scale(0.015625)"/>
       <path d="M 3122 3366 
L 3122 2828 
Q 2878 2963 2633 3030 
Q 2388 3097 2138 3097 
Q 1578 3097 1268 2742 
Q 959 2388 959 1747 
Q 959 1106 1268 751 
Q 1578 397 2138 397 
Q 2388 397 2633 464 
Q 2878 531 3122 666 
L 3122 134 
Q 2881 22 2623 -34 
Q 2366 -91 2075 -91 
Q 1284 -91 818 406 
Q 353 903 353 1747 
Q 353 2603 823 3093 
Q 1294 3584 2113 3584 
Q 2378 3584 2631 3529 
Q 2884 3475 3122 3366 
z
" id="DejaVuSans-63" transform="scale(0.015625)"/>
       <path d="M 1959 3097 
Q 1497 3097 1228 2736 
Q 959 2375 959 1747 
Q 959 1119 1226 758 
Q 1494 397 1959 397 
Q 2419 397 2687 759 
Q 2956 1122 2956 1747 
Q 2956 2369 2687 2733 
Q 2419 3097 1959 3097 
z
M 1959 3584 
Q 2709 3584 3137 3096 
Q 3566 2609 3566 1747 
Q 3566 888 3137 398 
Q 2709 -91 1959 -91 
Q 1206 -91 779 398 
Q 353 888 353 1747 
Q 353 2609 779 3096 
Q 1206 3584 1959 3584 
z
" id="DejaVuSans-6f" transform="scale(0.015625)"/>
       <path d="M 544 1381 
L 544 3500 
L 1119 3500 
L 1119 1403 
Q 1119 906 1312 657 
Q 1506 409 1894 409 
Q 2359 409 2629 706 
Q 2900 1003 2900 1516 
L 2900 3500 
L 3475 3500 
L 3475 0 
L 2900 0 
L 2900 538 
Q 2691 219 2414 64 
Q 2138 -91 1772 -91 
Q 1169 -91 856 284 
Q 544 659 544 1381 
z
M 1991 3584 
L 1991 3584 
z
" id="DejaVuSans-75" transform="scale(0.015625)"/>
       <path d="M 1172 4494 
L 1172 3500 
L 2356 3500 
L 2356 3053 
L 1172 3053 
L 1172 1153 
Q 1172 725 1289 603 
Q 1406 481 1766 481 
L 2356 481 
L 2356 0 
L 1766 0 
Q 1100 0 847 248 
Q 594 497 594 1153 
L 594 3053 
L 172 3053 
L 172 3500 
L 594 3500 
L 594 4494 
L 1172 4494 
z
" id="DejaVuSans-74" transform="scale(0.015625)"/>
      </defs>
      <use xlink:href="#DejaVuSans-54"/>
      <use x="46.333984" xlink:href="#DejaVuSans-72"/>
      <use x="87.447266" xlink:href="#DejaVuSans-61"/>
      <use x="148.726562" xlink:href="#DejaVuSans-69"/>
      <use x="176.509766" xlink:href="#DejaVuSans-6e"/>
      <use x="239.888672" xlink:href="#DejaVuSans-20"/>
      <use x="271.675781" xlink:href="#DejaVuSans-73"/>
      <use x="323.775391" xlink:href="#DejaVuSans-61"/>
      <use x="385.054688" xlink:href="#DejaVuSans-6d"/>
      <use x="482.466797" xlink:href="#DejaVuSans-70"/>
      <use x="545.943359" xlink:href="#DejaVuSans-6c"/>
      <use x="573.726562" xlink:href="#DejaVuSans-65"/>
      <use x="635.25" xlink:href="#DejaVuSans-20"/>
      <use x="667.037109" xlink:href="#DejaVuSans-63"/>
      <use x="722.017578" xlink:href="#DejaVuSans-6f"/>
      <use x="783.199219" xlink:href="#DejaVuSans-75"/>
      <use x="846.578125" xlink:href="#DejaVuSans-6e"/>
      <use x="909.957031" xlink:href="#DejaVuSans-74"/>
     </g>
    </g>
   </g>
   <g id="matplotlib.axis_2">
    <g id="ytick_1">
     <g id="line2d_13">
      <path clip-path="url(#p8b9c79ba39)" d="M 41.190688 255.397639 
L 398.310688 255.397639 
" style="fill:none;stroke:#ffffff;"/>
     </g>
     <g id="line2d_14">
      <path d="M 41.190688 255.397639 
" style="fill:none;stroke:#333333;stroke-width:1.5;"/>
      <defs>
       <path d="M 0 0 
L -2.75 0 
" id="mb37fe61891" style="stroke:#000000;"/>
      </defs>
      <g>
       <use style="fill:#333333;stroke:#000000;" x="41.190688" xlink:href="#mb37fe61891" y="255.397639"/>
      </g>
     </g>
     <g id="text_6">
      <!-- 0.4 -->
      <g style="fill:#4d4d4d;" transform="translate(22.245938 257.825889)scale(0.088 -0.088)">
       <defs>
        <path d="M 684 794 
L 1344 794 
L 1344 0 
L 684 0 
L 684 794 
z
" id="DejaVuSans-2e" transform="scale(0.015625)"/>
        <path d="M 2419 4116 
L 825 1625 
L 2419 1625 
L 2419 4116 
z
M 2253 4666 
L 3047 4666 
L 3047 1625 
L 3713 1625 
L 3713 1100 
L 3047 1100 
L 3047 0 
L 2419 0 
L 2419 1100 
L 313 1100 
L 313 1709 
L 2253 4666 
z
" id="DejaVuSans-34" transform="scale(0.015625)"/>
       </defs>
       <use xlink:href="#DejaVuSans-30"/>
       <use x="63.623047" xlink:href="#DejaVuSans-2e"/>
       <use x="95.410156" xlink:href="#DejaVuSans-34"/>
      </g>
     </g>
    </g>
    <g id="ytick_2">
     <g id="line2d_15">
      <path clip-path="url(#p8b9c79ba39)" d="M 41.190688 193.283411 
L 398.310688 193.283411 
" style="fill:none;stroke:#ffffff;"/>
     </g>
     <g id="line2d_16">
      <path d="M 41.190688 193.283411 
" style="fill:none;stroke:#333333;stroke-width:1.5;"/>
      <g>
       <use style="fill:#333333;stroke:#000000;" x="41.190688" xlink:href="#mb37fe61891" y="193.283411"/>
      </g>
     </g>
     <g id="text_7">
      <!-- 0.5 -->
      <g style="fill:#4d4d4d;" transform="translate(22.245938 195.711661)scale(0.088 -0.088)">
       <use xlink:href="#DejaVuSans-30"/>
       <use x="63.623047" xlink:href="#DejaVuSans-2e"/>
       <use x="95.410156" xlink:href="#DejaVuSans-35"/>
      </g>
     </g>
    </g>
    <g id="ytick_3">
     <g id="line2d_17">
      <path clip-path="url(#p8b9c79ba39)" d="M 41.190688 131.169182 
L 398.310688 131.169182 
" style="fill:none;stroke:#ffffff;"/>
     </g>
     <g id="line2d_18">
      <path d="M 41.190688 131.169182 
" style="fill:none;stroke:#333333;stroke-width:1.5;"/>
      <g>
       <use style="fill:#333333;stroke:#000000;" x="41.190688" xlink:href="#mb37fe61891" y="131.169182"/>
      </g>
     </g>
     <g id="text_8">
      <!-- 0.6 -->
      <g style="fill:#4d4d4d;" transform="translate(22.245938 133.597432)scale(0.088 -0.088)">
       <defs>
        <path d="M 2113 2584 
Q 1688 2584 1439 2293 
Q 1191 2003 1191 1497 
Q 1191 994 1439 701 
Q 1688 409 2113 409 
Q 2538 409 2786 701 
Q 3034 994 3034 1497 
Q 3034 2003 2786 2293 
Q 2538 2584 2113 2584 
z
M 3366 4563 
L 3366 3988 
Q 3128 4100 2886 4159 
Q 2644 4219 2406 4219 
Q 1781 4219 1451 3797 
Q 1122 3375 1075 2522 
Q 1259 2794 1537 2939 
Q 1816 3084 2150 3084 
Q 2853 3084 3261 2657 
Q 3669 2231 3669 1497 
Q 3669 778 3244 343 
Q 2819 -91 2113 -91 
Q 1303 -91 875 529 
Q 447 1150 447 2328 
Q 447 3434 972 4092 
Q 1497 4750 2381 4750 
Q 2619 4750 2861 4703 
Q 3103 4656 3366 4563 
z
" id="DejaVuSans-36" transform="scale(0.015625)"/>
       </defs>
       <use xlink:href="#DejaVuSans-30"/>
       <use x="63.623047" xlink:href="#DejaVuSans-2e"/>
       <use x="95.410156" xlink:href="#DejaVuSans-36"/>
      </g>
     </g>
    </g>
    <g id="ytick_4">
     <g id="line2d_19">
      <path clip-path="url(#p8b9c79ba39)" d="M 41.190688 69.054954 
L 398.310688 69.054954 
" style="fill:none;stroke:#ffffff;"/>
     </g>
     <g id="line2d_20">
      <path d="M 41.190688 69.054954 
" style="fill:none;stroke:#333333;stroke-width:1.5;"/>
      <g>
       <use style="fill:#333333;stroke:#000000;" x="41.190688" xlink:href="#mb37fe61891" y="69.054954"/>
      </g>
     </g>
     <g id="text_9">
      <!-- 0.7 -->
      <g style="fill:#4d4d4d;" transform="translate(22.245938 71.483204)scale(0.088 -0.088)">
       <defs>
        <path d="M 525 4666 
L 3525 4666 
L 3525 4397 
L 1831 0 
L 1172 0 
L 2766 4134 
L 525 4134 
L 525 4666 
z
" id="DejaVuSans-37" transform="scale(0.015625)"/>
       </defs>
       <use xlink:href="#DejaVuSans-30"/>
       <use x="63.623047" xlink:href="#DejaVuSans-2e"/>
       <use x="95.410156" xlink:href="#DejaVuSans-37"/>
      </g>
     </g>
    </g>
    <g id="ytick_5">
     <g id="line2d_21">
      <path clip-path="url(#p8b9c79ba39)" d="M 41.190688 286.454753 
L 398.310688 286.454753 
" style="fill:none;stroke:#ffffff;stroke-width:0.5;"/>
     </g>
    </g>
    <g id="ytick_6">
     <g id="line2d_22">
      <path clip-path="url(#p8b9c79ba39)" d="M 41.190688 224.340525 
L 398.310688 224.340525 
" style="fill:none;stroke:#ffffff;stroke-width:0.5;"/>
     </g>
    </g>
    <g id="ytick_7">
     <g id="line2d_23">
      <path clip-path="url(#p8b9c79ba39)" d="M 41.190688 162.226297 
L 398.310688 162.226297 
" style="fill:none;stroke:#ffffff;stroke-width:0.5;"/>
     </g>
    </g>
    <g id="ytick_8">
     <g id="line2d_24">
      <path clip-path="url(#p8b9c79ba39)" d="M 41.190688 100.112068 
L 398.310688 100.112068 
" style="fill:none;stroke:#ffffff;stroke-width:0.5;"/>
     </g>
    </g>
    <g id="ytick_9">
     <g id="line2d_25">
      <path clip-path="url(#p8b9c79ba39)" d="M 41.190688 37.99784 
L 398.310688 37.99784 
" style="fill:none;stroke:#ffffff;stroke-width:0.5;"/>
     </g>
    </g>
    <g id="text_10">
     <!-- Balanced Accuracy (Val Set) -->
     <g transform="translate(15.558281 234.774543)rotate(-90)scale(0.11 -0.11)">
      <defs>
       <path d="M 1259 2228 
L 1259 519 
L 2272 519 
Q 2781 519 3026 730 
Q 3272 941 3272 1375 
Q 3272 1813 3026 2020 
Q 2781 2228 2272 2228 
L 1259 2228 
z
M 1259 4147 
L 1259 2741 
L 2194 2741 
Q 2656 2741 2882 2914 
Q 3109 3088 3109 3444 
Q 3109 3797 2882 3972 
Q 2656 4147 2194 4147 
L 1259 4147 
z
M 628 4666 
L 2241 4666 
Q 2963 4666 3353 4366 
Q 3744 4066 3744 3513 
Q 3744 3084 3544 2831 
Q 3344 2578 2956 2516 
Q 3422 2416 3680 2098 
Q 3938 1781 3938 1306 
Q 3938 681 3513 340 
Q 3088 0 2303 0 
L 628 0 
L 628 4666 
z
" id="DejaVuSans-42" transform="scale(0.015625)"/>
       <path d="M 2906 2969 
L 2906 4863 
L 3481 4863 
L 3481 0 
L 2906 0 
L 2906 525 
Q 2725 213 2448 61 
Q 2172 -91 1784 -91 
Q 1150 -91 751 415 
Q 353 922 353 1747 
Q 353 2572 751 3078 
Q 1150 3584 1784 3584 
Q 2172 3584 2448 3432 
Q 2725 3281 2906 2969 
z
M 947 1747 
Q 947 1113 1208 752 
Q 1469 391 1925 391 
Q 2381 391 2643 752 
Q 2906 1113 2906 1747 
Q 2906 2381 2643 2742 
Q 2381 3103 1925 3103 
Q 1469 3103 1208 2742 
Q 947 2381 947 1747 
z
" id="DejaVuSans-64" transform="scale(0.015625)"/>
       <path d="M 2188 4044 
L 1331 1722 
L 3047 1722 
L 2188 4044 
z
M 1831 4666 
L 2547 4666 
L 4325 0 
L 3669 0 
L 3244 1197 
L 1141 1197 
L 716 0 
L 50 0 
L 1831 4666 
z
" id="DejaVuSans-41" transform="scale(0.015625)"/>
       <path d="M 2059 -325 
Q 1816 -950 1584 -1140 
Q 1353 -1331 966 -1331 
L 506 -1331 
L 506 -850 
L 844 -850 
Q 1081 -850 1212 -737 
Q 1344 -625 1503 -206 
L 1606 56 
L 191 3500 
L 800 3500 
L 1894 763 
L 2988 3500 
L 3597 3500 
L 2059 -325 
z
" id="DejaVuSans-79" transform="scale(0.015625)"/>
       <path d="M 1984 4856 
Q 1566 4138 1362 3434 
Q 1159 2731 1159 2009 
Q 1159 1288 1364 580 
Q 1569 -128 1984 -844 
L 1484 -844 
Q 1016 -109 783 600 
Q 550 1309 550 2009 
Q 550 2706 781 3412 
Q 1013 4119 1484 4856 
L 1984 4856 
z
" id="DejaVuSans-28" transform="scale(0.015625)"/>
       <path d="M 1831 0 
L 50 4666 
L 709 4666 
L 2188 738 
L 3669 4666 
L 4325 4666 
L 2547 0 
L 1831 0 
z
" id="DejaVuSans-56" transform="scale(0.015625)"/>
       <path d="M 3425 4513 
L 3425 3897 
Q 3066 4069 2747 4153 
Q 2428 4238 2131 4238 
Q 1616 4238 1336 4038 
Q 1056 3838 1056 3469 
Q 1056 3159 1242 3001 
Q 1428 2844 1947 2747 
L 2328 2669 
Q 3034 2534 3370 2195 
Q 3706 1856 3706 1288 
Q 3706 609 3251 259 
Q 2797 -91 1919 -91 
Q 1588 -91 1214 -16 
Q 841 59 441 206 
L 441 856 
Q 825 641 1194 531 
Q 1563 422 1919 422 
Q 2459 422 2753 634 
Q 3047 847 3047 1241 
Q 3047 1584 2836 1778 
Q 2625 1972 2144 2069 
L 1759 2144 
Q 1053 2284 737 2584 
Q 422 2884 422 3419 
Q 422 4038 858 4394 
Q 1294 4750 2059 4750 
Q 2388 4750 2728 4690 
Q 3069 4631 3425 4513 
z
" id="DejaVuSans-53" transform="scale(0.015625)"/>
       <path d="M 513 4856 
L 1013 4856 
Q 1481 4119 1714 3412 
Q 1947 2706 1947 2009 
Q 1947 1309 1714 600 
Q 1481 -109 1013 -844 
L 513 -844 
Q 928 -128 1133 580 
Q 1338 1288 1338 2009 
Q 1338 2731 1133 3434 
Q 928 4138 513 4856 
z
" id="DejaVuSans-29" transform="scale(0.015625)"/>
      </defs>
      <use xlink:href="#DejaVuSans-42"/>
      <use x="68.603516" xlink:href="#DejaVuSans-61"/>
      <use x="129.882812" xlink:href="#DejaVuSans-6c"/>
      <use x="157.666016" xlink:href="#DejaVuSans-61"/>
      <use x="218.945312" xlink:href="#DejaVuSans-6e"/>
      <use x="282.324219" xlink:href="#DejaVuSans-63"/>
      <use x="337.304688" xlink:href="#DejaVuSans-65"/>
      <use x="398.828125" xlink:href="#DejaVuSans-64"/>
      <use x="462.304688" xlink:href="#DejaVuSans-20"/>
      <use x="494.091797" xlink:href="#DejaVuSans-41"/>
      <use x="560.75" xlink:href="#DejaVuSans-63"/>
      <use x="615.730469" xlink:href="#DejaVuSans-63"/>
      <use x="670.710938" xlink:href="#DejaVuSans-75"/>
      <use x="734.089844" xlink:href="#DejaVuSans-72"/>
      <use x="775.203125" xlink:href="#DejaVuSans-61"/>
      <use x="836.482422" xlink:href="#DejaVuSans-63"/>
      <use x="891.462891" xlink:href="#DejaVuSans-79"/>
      <use x="950.642578" xlink:href="#DejaVuSans-20"/>
      <use x="982.429688" xlink:href="#DejaVuSans-28"/>
      <use x="1021.443359" xlink:href="#DejaVuSans-56"/>
      <use x="1082.101562" xlink:href="#DejaVuSans-61"/>
      <use x="1143.380859" xlink:href="#DejaVuSans-6c"/>
      <use x="1171.164062" xlink:href="#DejaVuSans-20"/>
      <use x="1202.951172" xlink:href="#DejaVuSans-53"/>
      <use x="1266.427734" xlink:href="#DejaVuSans-65"/>
      <use x="1327.951172" xlink:href="#DejaVuSans-74"/>
      <use x="1367.160156" xlink:href="#DejaVuSans-29"/>
     </g>
    </g>
   </g>
   <g id="PolyCollection_1">
    <path clip-path="url(#p8b9c79ba39)" d="M 57.423415 113.386035 
L 57.423415 220.294102 
L 58.194438 219.282149 
L 58.48133 218.909398 
L 58.786153 218.515616 
L 59.144769 218.055342 
L 59.431661 217.689468 
L 59.467523 217.643881 
L 59.64683 217.416436 
L 59.951654 217.031662 
L 60.11303 216.82892 
L 60.292338 216.604435 
L 60.364061 216.514872 
L 61.045431 215.670647 
L 61.242669 215.42851 
L 61.547492 215.056292 
L 88.92778 192.364572 
L 90.469826 191.724355 
L 91.043611 191.501546 
L 91.635326 191.280296 
L 92.370488 191.016935 
L 92.944273 190.819874 
L 92.998065 190.801774 
L 93.35668 190.682727 
L 93.966327 190.486717 
L 94.307011 190.380612 
L 94.647696 190.276921 
L 94.791142 190.233976 
L 96.171812 189.841659 
L 96.548358 189.741092 
L 97.158004 189.5839 
L 120.432145 187.081476 
L 122.727284 187.046589 
L 123.587961 187.037688 
L 124.484499 187.030482 
L 125.578277 187.024221 
L 126.456884 187.020959 
L 126.546538 187.020707 
L 127.066531 187.019511 
L 127.981 187.01408 
L 128.483061 187.007992 
L 129.003054 186.999439 
L 129.218223 186.995247 
L 131.280262 186.937051 
L 131.854047 186.915552 
L 132.768516 186.877137 
L 151.93651 185.894593 
L 155.002672 185.799443 
L 156.150242 185.763942 
L 157.333673 185.725399 
L 158.803996 185.672532 
L 159.951565 185.625611 
L 160.077081 185.620106 
L 160.794311 185.587036 
L 161.995673 185.524707 
L 162.677042 185.484944 
L 163.358412 185.441598 
L 163.645304 185.422203 
L 166.406643 185.173832 
L 167.159735 185.089536 
L 168.379028 184.942878 
L 183.440876 183.897599 
L 187.278061 184.267625 
L 188.712522 184.473286 
L 190.200776 184.715875 
L 192.011784 185.03892 
L 193.464177 185.308863 
L 193.625554 185.338972 
L 194.504161 185.502011 
L 196.010346 185.772626 
L 196.871023 185.918254 
L 197.71377 186.051687 
L 198.090316 186.107789 
L 201.533024 186.482592 
L 202.483355 186.530315 
L 204.00747 186.543789 
L 214.92731 185.077161 
L 219.535518 184.112631 
L 221.256872 183.771136 
L 223.049949 183.443828 
L 225.237504 183.098188 
L 226.976788 182.874789 
L 227.156096 182.854618 
L 228.214012 182.747052 
L 230.025019 182.609922 
L 231.047073 182.559399 
L 232.069127 182.528343 
L 232.517397 182.520809 
L 236.641474 182.615285 
L 237.789043 182.688589 
L 239.617982 182.83914 
L 246.431675 183.587442 
L 251.810907 184.060529 
L 253.819153 184.133778 
L 255.899122 184.123437 
L 258.445292 184.011609 
L 260.471469 183.875469 
L 260.686638 183.859044 
L 261.941792 183.75708 
L 264.039693 183.56855 
L 265.241054 183.454103 
L 266.424485 183.339204 
L 266.944478 183.288505 
L 271.767855 182.837501 
L 273.094732 182.725816 
L 275.228494 182.561614 
L 277.93604 182.38094 
L 284.068364 182.045231 
L 286.363503 181.915886 
L 288.748296 181.756221 
L 291.671011 181.499968 
L 293.984081 181.23083 
L 294.235112 181.197451 
L 295.651642 180.992415 
L 298.054366 180.616869 
L 299.417104 180.402064 
L 300.779843 180.1869 
L 301.371559 180.093566 
L 306.876305 179.242642 
L 308.400421 179.01785 
L 309.440406 178.868662 
L 310.839006 178.674439 
L 316.343753 178.006616 
L 318.925784 177.764515 
L 321.597469 177.576919 
L 324.8788 177.452275 
L 327.496692 177.451722 
L 327.765654 177.457208 
L 329.361493 177.512629 
L 332.069039 177.70273 
L 333.611085 177.869735 
L 335.135201 178.079969 
L 335.798639 178.186161 
L 340.944771 179.343691 
L 342.002686 179.659156 
L 343.70611 180.225262 
L 346.449518 181.290943 
L 348.619141 182.270378 
L 351.488064 183.75207 
L 354.464572 185.512875 
L 358.104519 187.970272 
L 361.009304 190.164952 
L 361.314127 190.406994 
L 363.089273 191.859963 
L 366.101643 194.491661 
L 367.805066 196.069723 
L 369.490559 197.693265 
L 370.243651 198.438263 
L 377.129067 205.786886 
L 379.029729 207.978625 
L 382.07796 211.633359 
L 382.07796 69.378486 
L 382.07796 69.378486 
L 379.029729 73.881578 
L 377.129067 76.592546 
L 370.243651 85.759671 
L 369.490559 86.697643 
L 367.805066 88.748857 
L 366.101643 90.753216 
L 363.089273 94.124238 
L 361.314127 96.004193 
L 361.009304 96.318908 
L 358.104519 99.196618 
L 354.464572 102.485674 
L 351.488064 104.906573 
L 348.619141 107.00753 
L 346.449518 108.44425 
L 343.70611 110.074573 
L 342.002686 110.983658 
L 340.944771 111.509199 
L 335.798639 113.65665 
L 335.135201 113.886574 
L 333.611085 114.377459 
L 332.069039 114.823336 
L 329.361493 115.490803 
L 327.765654 115.820301 
L 327.496692 115.87145 
L 324.8788 116.307422 
L 321.597469 116.709748 
L 318.925784 116.934796 
L 316.343753 117.077627 
L 310.839006 117.185526 
L 309.440406 117.178755 
L 308.400421 117.166448 
L 306.876305 117.138412 
L 301.371559 116.960428 
L 300.779843 116.935948 
L 299.417104 116.876809 
L 298.054366 116.814492 
L 295.651642 116.699245 
L 294.235112 116.634334 
L 293.984081 116.623727 
L 291.671011 116.53698 
L 288.748296 116.446684 
L 286.363503 116.376288 
L 284.068364 116.299802 
L 277.93604 115.988062 
L 275.228494 115.783583 
L 273.094732 115.594255 
L 271.767855 115.466232 
L 266.944478 114.969599 
L 266.424485 114.916656 
L 265.241054 114.799573 
L 264.039693 114.687686 
L 261.941792 114.517488 
L 260.686638 114.436355 
L 260.471469 114.424326 
L 258.445292 114.342626 
L 255.899122 114.336803 
L 253.819153 114.436497 
L 251.810907 114.624111 
L 246.431675 115.437626 
L 239.617982 116.671993 
L 237.789043 116.960367 
L 236.641474 117.121271 
L 232.517397 117.535566 
L 232.069127 117.563103 
L 231.047073 117.612119 
L 230.025019 117.641748 
L 228.214012 117.64656 
L 227.156096 117.621699 
L 226.976788 117.615521 
L 225.237504 117.527341 
L 223.049949 117.34996 
L 221.256872 117.158497 
L 219.535518 116.945176 
L 214.92731 116.3097 
L 204.00747 115.500267 
L 202.483355 115.577798 
L 201.533024 115.65388 
L 198.090316 116.066309 
L 197.71377 116.121055 
L 196.871023 116.248044 
L 196.010346 116.382549 
L 194.504161 116.623854 
L 193.625554 116.764723 
L 193.464177 116.790399 
L 192.011784 117.016003 
L 190.200776 117.274697 
L 188.712522 117.45932 
L 187.278061 117.606849 
L 183.440876 117.824807 
L 168.379028 116.837856 
L 167.159735 116.783493 
L 166.406643 116.765407 
L 163.645304 116.824773 
L 163.358412 116.843132 
L 162.677042 116.890943 
L 161.995673 116.944412 
L 160.794311 117.051442 
L 160.077081 117.122458 
L 159.951565 117.135394 
L 158.803996 117.260153 
L 157.333673 117.435217 
L 156.150242 117.58646 
L 155.002672 117.740246 
L 151.93651 118.175238 
L 132.768516 121.172647 
L 131.854047 121.346877 
L 131.280262 121.459616 
L 129.218223 121.888743 
L 129.003054 121.935825 
L 128.483061 122.051499 
L 127.981 122.165768 
L 127.066531 122.380569 
L 126.546538 122.505376 
L 126.456884 122.526931 
L 125.578277 122.738678 
L 124.484499 123.003366 
L 123.587961 123.220969 
L 122.727284 123.430192 
L 120.432145 123.988045 
L 97.158004 128.416472 
L 96.548358 128.463591 
L 96.171812 128.489802 
L 94.791142 128.566173 
L 94.647696 128.572268 
L 94.307011 128.585309 
L 93.966327 128.596305 
L 93.35668 128.610761 
L 92.998065 128.616068 
L 92.944273 128.616656 
L 92.370488 128.619509 
L 91.635326 128.613814 
L 91.043611 128.601181 
L 90.469826 128.58169 
L 88.92778 128.492871 
L 61.547492 116.779359 
L 61.242669 116.541791 
L 61.045431 116.386925 
L 60.364061 115.845044 
L 60.292338 115.787385 
L 60.11303 115.642724 
L 59.951654 115.511904 
L 59.64683 115.263186 
L 59.467523 115.1159 
L 59.431661 115.086355 
L 59.144769 114.848958 
L 58.786153 114.549613 
L 58.48133 114.292912 
L 58.194438 114.049423 
L 57.423415 113.386035 
z
" style="fill:#999999;fill-opacity:0.4;"/>
   </g>
   <g id="PolyCollection_2">
    <path clip-path="url(#p8b9c79ba39)" d="M 57.423415 159.028285 
L 57.423415 205.137971 
L 58.194438 205.160728 
L 58.48133 205.170198 
L 58.786153 205.18086 
L 59.144769 205.194201 
L 59.431661 205.205498 
L 59.467523 205.20695 
L 59.64683 205.214338 
L 59.951654 205.227401 
L 60.11303 205.234575 
L 60.292338 205.242756 
L 60.364061 205.246091 
L 61.045431 205.27955 
L 61.242669 205.289841 
L 61.547492 205.306285 
L 88.92778 209.806577 
L 90.469826 210.23903 
L 91.043611 210.403937 
L 91.635326 210.576164 
L 92.370488 210.793056 
L 92.944273 210.964457 
L 92.998065 210.980618 
L 93.35668 211.088749 
L 93.966327 211.274095 
L 94.307011 211.378476 
L 94.647696 211.483413 
L 94.791142 211.52776 
L 96.171812 211.959236 
L 96.548358 212.078283 
L 97.158004 212.272174 
L 120.432145 219.917907 
L 122.727284 220.620493 
L 123.587961 220.878729 
L 124.484499 221.144495 
L 125.578277 221.464092 
L 126.456884 221.716988 
L 126.546538 221.742597 
L 127.066531 221.8904 
L 127.981 222.148289 
L 128.483061 222.289044 
L 129.003054 222.434176 
L 129.218223 222.494033 
L 131.280262 223.0616 
L 131.854047 223.217543 
L 132.768516 223.464271 
L 151.93651 228.089347 
L 155.002672 228.680188 
L 156.150242 228.882276 
L 157.333673 229.078081 
L 158.803996 229.301697 
L 159.951565 229.459634 
L 160.077081 229.475969 
L 160.794311 229.565602 
L 161.995673 229.700974 
L 162.677042 229.7691 
L 163.358412 229.830658 
L 163.645304 229.854554 
L 166.406643 229.976265 
L 167.159735 229.976767 
L 168.379028 229.951531 
L 183.440876 228.332701 
L 187.278061 227.909866 
L 188.712522 227.772151 
L 190.200776 227.640894 
L 192.011784 227.495705 
L 193.464177 227.389033 
L 193.625554 227.377631 
L 194.504161 227.316891 
L 196.010346 227.216939 
L 196.871023 227.161382 
L 197.71377 227.107496 
L 198.090316 227.083461 
L 201.533024 226.857162 
L 202.483355 226.79021 
L 204.00747 226.676351 
L 214.92731 224.948037 
L 219.535518 223.906225 
L 221.256872 223.5067 
L 223.049949 223.093846 
L 225.237504 222.602655 
L 226.976788 222.227264 
L 227.156096 222.189491 
L 228.214012 221.970538 
L 230.025019 221.612442 
L 231.047073 221.420341 
L 232.069127 221.235758 
L 232.517397 221.157206 
L 236.641474 220.502453 
L 237.789043 220.340848 
L 239.617982 220.09943 
L 246.431675 219.317783 
L 251.810907 218.722409 
L 253.819153 218.479127 
L 255.899122 218.206234 
L 258.445292 217.832156 
L 260.471469 217.504151 
L 260.686638 217.468038 
L 261.941792 217.253311 
L 264.039693 216.882172 
L 265.241054 216.665029 
L 266.424485 216.449382 
L 266.944478 216.354379 
L 271.767855 215.483221 
L 273.094732 215.251531 
L 275.228494 214.890275 
L 277.93604 214.455184 
L 284.068364 213.570967 
L 286.363503 213.271386 
L 288.748296 212.972782 
L 291.671011 212.617926 
L 293.984081 212.341034 
L 294.235112 212.311048 
L 295.651642 212.141846 
L 298.054366 211.858 
L 299.417104 211.700278 
L 300.779843 211.54533 
L 301.371559 211.479003 
L 306.876305 210.895982 
L 308.400421 210.747703 
L 309.440406 210.65045 
L 310.839006 210.525132 
L 316.343753 210.103773 
L 318.925784 209.953446 
L 321.597469 209.836233 
L 324.8788 209.753503 
L 327.496692 209.742515 
L 327.765654 209.744399 
L 329.361493 209.767831 
L 332.069039 209.858377 
L 333.611085 209.940548 
L 335.135201 210.045006 
L 335.798639 210.097976 
L 340.944771 210.682975 
L 342.002686 210.843419 
L 343.70611 211.131649 
L 346.449518 211.674662 
L 348.619141 212.17382 
L 351.488064 212.928852 
L 354.464572 213.825972 
L 358.104519 215.078046 
L 361.009304 216.19664 
L 361.314127 216.320038 
L 363.089273 217.06097 
L 366.101643 218.40386 
L 367.805066 219.20972 
L 369.490559 220.039331 
L 370.243651 220.420203 
L 377.129067 224.183743 
L 379.029729 225.308637 
L 382.07796 227.186897 
L 382.07796 165.832054 
L 382.07796 165.832054 
L 379.029729 167.472282 
L 377.129067 168.461937 
L 370.243651 171.821675 
L 369.490559 172.166673 
L 367.805066 172.921992 
L 366.101643 173.661238 
L 363.089273 174.907335 
L 361.314127 175.6039 
L 361.009304 175.720632 
L 358.104519 176.789771 
L 354.464572 178.016155 
L 351.488064 178.922613 
L 348.619141 179.712786 
L 346.449518 180.255722 
L 343.70611 180.875501 
L 342.002686 181.223524 
L 340.944771 181.425808 
L 335.798639 182.266255 
L 335.135201 182.358252 
L 333.611085 182.556188 
L 332.069039 182.738355 
L 329.361493 183.017679 
L 327.765654 183.160264 
L 327.496692 183.182807 
L 324.8788 183.381591 
L 321.597469 183.584087 
L 318.925784 183.717452 
L 316.343753 183.824965 
L 310.839006 184.004827 
L 309.440406 184.043456 
L 308.400421 184.071055 
L 306.876305 184.11029 
L 301.371559 184.24954 
L 300.779843 184.265053 
L 299.417104 184.301693 
L 298.054366 184.339893 
L 295.651642 184.412059 
L 294.235112 184.464833 
L 293.984081 184.475846 
L 291.671011 184.599245 
L 288.748296 184.804633 
L 286.363503 185.004012 
L 284.068364 185.214817 
L 277.93604 185.819788 
L 275.228494 186.088761 
L 273.094732 186.29754 
L 271.767855 186.425843 
L 266.944478 186.888282 
L 266.424485 186.938585 
L 265.241054 187.054177 
L 264.039693 187.173702 
L 261.941792 187.390121 
L 260.686638 187.525878 
L 260.471469 187.549719 
L 258.445292 187.783769 
L 255.899122 188.107103 
L 253.819153 188.418535 
L 251.810907 188.774327 
L 246.431675 189.924615 
L 239.617982 191.561392 
L 237.789043 191.99212 
L 236.641474 192.25474 
L 232.517397 193.128926 
L 232.069127 193.216106 
L 231.047073 193.408434 
L 230.025019 193.591524 
L 228.214012 193.892551 
L 227.156096 194.054389 
L 226.976788 194.080797 
L 225.237504 194.321803 
L 223.049949 194.587414 
L 221.256872 194.776521 
L 219.535518 194.936752 
L 214.92731 195.288478 
L 204.00747 196.035123 
L 202.483355 196.188231 
L 201.533024 196.308581 
L 198.090316 196.874415 
L 197.71377 196.946259 
L 196.871023 197.112465 
L 196.010346 197.288844 
L 194.504161 197.609589 
L 193.625554 197.801405 
L 193.464177 197.836867 
L 192.011784 198.15727 
L 190.200776 198.553364 
L 188.712522 198.868878 
L 187.278061 199.158925 
L 183.440876 199.835358 
L 168.379028 200.577683 
L 167.159735 200.516219 
L 166.406643 200.471559 
L 163.645304 200.26833 
L 163.358412 200.243987 
L 162.677042 200.184355 
L 161.995673 200.12214 
L 160.794311 200.006048 
L 160.077081 199.932781 
L 159.951565 199.919651 
L 158.803996 199.795286 
L 157.333673 199.624374 
L 156.150242 199.477176 
L 155.002672 199.326104 
L 151.93651 198.881838 
L 132.768516 195.125778 
L 131.854047 194.937627 
L 131.280262 194.821037 
L 129.218223 194.413453 
L 129.003054 194.372095 
L 128.483061 194.273164 
L 127.981 194.179068 
L 127.066531 194.01148 
L 126.546538 193.916991 
L 126.456884 193.900569 
L 125.578277 193.737594 
L 124.484499 193.529458 
L 123.587961 193.354436 
L 122.727284 193.1826 
L 120.432145 192.70557 
L 97.158004 185.890526 
L 96.548358 185.649161 
L 96.171812 185.498044 
L 94.791142 184.930299 
L 94.647696 184.870059 
L 94.307011 184.726024 
L 93.966327 184.580622 
L 93.35668 184.316972 
L 92.998065 184.159785 
L 92.944273 184.136071 
L 92.370488 183.880908 
L 91.635326 183.547971 
L 91.043611 183.274869 
L 90.469826 183.005458 
L 88.92778 182.25857 
L 61.547492 162.919225 
L 61.242669 162.63978 
L 61.045431 162.45826 
L 60.364061 161.82697 
L 60.292338 161.760138 
L 60.11303 161.592744 
L 59.951654 161.441704 
L 59.64683 161.155414 
L 59.467523 160.986403 
L 59.431661 160.952547 
L 59.144769 160.681058 
L 58.786153 160.340092 
L 58.48133 160.048874 
L 58.194438 159.773619 
L 57.423415 159.028285 
z
" style="fill:#999999;fill-opacity:0.4;"/>
   </g>
   <g id="PolyCollection_3">
    <path clip-path="url(#p8b9c79ba39)" d="M 57.423415 122.250768 
L 57.423415 280.121371 
L 58.194438 278.334029 
L 58.48133 277.67491 
L 58.786153 276.978145 
L 59.144769 276.16312 
L 59.431661 275.514771 
L 59.467523 275.433958 
L 59.64683 275.030659 
L 59.951654 274.347997 
L 60.11303 273.988094 
L 60.292338 273.589427 
L 60.364061 273.430322 
L 61.045431 271.929179 
L 61.242669 271.498147 
L 61.547492 270.835122 
L 88.92778 227.984688 
L 90.469826 226.562066 
L 91.043611 226.05679 
L 91.635326 225.549053 
L 92.370488 224.936299 
L 92.944273 224.471395 
L 92.998065 224.4284 
L 93.35668 224.144316 
L 93.966327 223.671417 
L 94.307011 223.412565 
L 94.647696 223.15753 
L 94.791142 223.051276 
L 96.171812 222.061934 
L 96.548358 221.802328 
L 97.158004 221.390989 
L 120.432145 211.481537 
L 122.727284 210.885703 
L 123.587961 210.671713 
L 124.484499 210.453766 
L 125.578277 210.194251 
L 126.456884 209.990511 
L 126.546538 209.969946 
L 127.066531 209.851453 
L 127.981 209.6404 
L 128.483061 209.521339 
L 129.003054 209.395734 
L 129.218223 209.3431 
L 131.280262 208.820835 
L 131.854047 208.670431 
L 132.768516 208.426994 
L 151.93651 203.612027 
L 155.002672 203.005008 
L 156.150242 202.78122 
L 157.333673 202.549188 
L 158.803996 202.255582 
L 159.951565 202.019443 
L 160.077081 201.99313 
L 160.794311 201.840621 
L 161.995673 201.575727 
L 162.677042 201.419363 
L 163.358412 201.257953 
L 163.645304 201.188367 
L 166.406643 200.397381 
L 167.159735 200.14759 
L 168.379028 199.720503 
L 183.440876 195.20203 
L 187.278061 195.020988 
L 188.712522 195.070789 
L 190.200776 195.17883 
L 192.011784 195.372326 
L 193.464177 195.562317 
L 193.625554 195.584715 
L 194.504161 195.709487 
L 196.010346 195.927429 
L 196.871023 196.049035 
L 197.71377 196.162335 
L 198.090316 196.210337 
L 201.533024 196.524845 
L 202.483355 196.556556 
L 204.00747 196.541021 
L 214.92731 194.981451 
L 219.535518 194.17544 
L 221.256872 193.943707 
L 223.049949 193.764631 
L 225.237504 193.649945 
L 226.976788 193.651089 
L 227.156096 193.656154 
L 228.214012 193.705409 
L 230.025019 193.867818 
L 231.047073 194.003166 
L 232.069127 194.169576 
L 232.517397 194.252162 
L 236.641474 195.263688 
L 237.789043 195.615241 
L 239.617982 196.223121 
L 246.431675 198.698946 
L 251.810907 200.340138 
L 253.819153 200.753366 
L 255.899122 201.021382 
L 258.445292 201.197784 
L 260.471469 201.290072 
L 260.686638 201.297963 
L 261.941792 201.338378 
L 264.039693 201.39104 
L 265.241054 201.417322 
L 266.424485 201.443399 
L 266.944478 201.455463 
L 271.767855 201.613525 
L 273.094732 201.677957 
L 275.228494 201.803418 
L 277.93604 201.997539 
L 284.068364 202.488981 
L 286.363503 202.63556 
L 288.748296 202.725635 
L 291.671011 202.705571 
L 293.984081 202.554734 
L 294.235112 202.530048 
L 295.651642 202.357691 
L 298.054366 202.012978 
L 299.417104 201.815411 
L 300.779843 201.617408 
L 301.371559 201.531529 
L 306.876305 200.75251 
L 308.400421 200.54946 
L 309.440406 200.415892 
L 310.839006 200.243927 
L 316.343753 199.684163 
L 318.925784 199.508987 
L 321.597469 199.405992 
L 324.8788 199.412265 
L 327.496692 199.542383 
L 327.765654 199.562798 
L 329.361493 199.713087 
L 332.069039 200.090929 
L 333.611085 200.381466 
L 335.135201 200.726713 
L 335.798639 200.895898 
L 340.944771 202.654097 
L 342.002686 203.12018 
L 343.70611 203.949685 
L 346.449518 205.495559 
L 348.619141 206.905042 
L 351.488064 209.02476 
L 354.464572 211.531237 
L 358.104519 215.015023 
L 361.009304 218.117022 
L 361.314127 218.458714 
L 363.089273 220.508437 
L 366.101643 224.215661 
L 367.805066 226.435943 
L 369.490559 228.718462 
L 370.243651 229.765315 
L 377.129067 240.077418 
L 379.029729 243.149167 
L 382.07796 248.268425 
L 382.07796 38.201371 
L 382.07796 38.201371 
L 379.029729 45.128734 
L 377.129067 49.296786 
L 370.243651 63.373406 
L 369.490559 64.811786 
L 367.805066 67.955762 
L 366.101643 71.025622 
L 363.089273 76.182586 
L 361.314127 79.054574 
L 361.009304 79.535042 
L 358.104519 83.923415 
L 354.464572 88.925387 
L 351.488064 92.594011 
L 348.619141 95.764774 
L 346.449518 97.923216 
L 343.70611 100.358517 
L 342.002686 101.707418 
L 340.944771 102.483245 
L 335.798639 105.605496 
L 335.135201 105.932651 
L 333.611085 106.622743 
L 332.069039 107.237246 
L 329.361493 108.12577 
L 327.765654 108.543887 
L 327.496692 108.607106 
L 324.8788 109.119969 
L 321.597469 109.523747 
L 318.925784 109.682047 
L 316.343753 109.710633 
L 310.839006 109.443558 
L 309.440406 109.318718 
L 308.400421 109.213807 
L 306.876305 109.043506 
L 301.371559 108.303143 
L 300.779843 108.215045 
L 299.417104 108.007986 
L 298.054366 107.796331 
L 295.651642 107.416291 
L 294.235112 107.190019 
L 293.984081 107.14975 
L 291.671011 106.775054 
L 288.748296 106.28337 
L 286.363503 105.853567 
L 284.068364 105.403038 
L 277.93604 103.955512 
L 275.228494 103.192636 
L 273.094732 102.54512 
L 271.767855 102.126712 
L 266.944478 100.569278 
L 266.424485 100.404166 
L 265.241054 100.035524 
L 264.039693 99.675016 
L 261.941792 99.092621 
L 260.686638 98.781829 
L 260.471469 98.731919 
L 258.445292 98.317949 
L 255.899122 97.967811 
L 253.819153 97.831743 
L 251.810907 97.803729 
L 246.431675 98.062457 
L 239.617982 98.514429 
L 237.789043 98.554707 
L 236.641474 98.549008 
L 232.517397 98.288781 
L 232.069127 98.235732 
L 231.047073 98.095844 
L 230.025019 97.929642 
L 228.214012 97.571842 
L 227.156096 97.327032 
L 226.976788 97.283057 
L 225.237504 96.821805 
L 223.049949 96.164149 
L 221.256872 95.57716 
L 219.535518 94.989598 
L 214.92731 93.432888 
L 204.00747 91.631411 
L 202.483355 91.781332 
L 201.533024 91.932444 
L 198.090316 92.780437 
L 197.71377 92.896122 
L 196.871023 93.167386 
L 196.010346 93.459451 
L 194.504161 93.99746 
L 193.625554 94.321467 
L 193.464177 94.381446 
L 192.011784 94.923227 
L 190.200776 95.588781 
L 188.712522 96.111604 
L 187.278061 96.583356 
L 183.440876 97.632671 
L 168.379028 99.15016 
L 167.159735 99.280401 
L 166.406643 99.379005 
L 163.645304 99.890888 
L 163.358412 99.958944 
L 162.677042 100.126948 
L 161.995673 100.303551 
L 160.794311 100.634456 
L 160.077081 100.842999 
L 159.951565 100.880284 
L 158.803996 101.231367 
L 157.333673 101.705421 
L 156.150242 102.103876 
L 155.002672 102.502334 
L 151.93651 103.611197 
L 132.768516 111.401505 
L 131.854047 111.845499 
L 131.280262 112.130637 
L 129.218223 113.200652 
L 129.003054 113.316624 
L 128.483061 113.600413 
L 127.981 113.879225 
L 127.066531 114.399453 
L 126.546538 114.700482 
L 126.456884 114.752504 
L 125.578277 115.264114 
L 124.484499 115.905247 
L 123.587961 116.433887 
L 122.727284 116.943691 
L 120.432145 118.311784 
L 97.158004 131.065356 
L 96.548358 131.314153 
L 96.171812 131.463957 
L 94.791142 131.986743 
L 94.647696 132.038579 
L 94.307011 132.159753 
L 93.966327 132.278157 
L 93.35668 132.482956 
L 92.998065 132.599081 
L 92.944273 132.616218 
L 92.370488 132.794334 
L 91.635326 133.009776 
L 91.043611 133.172138 
L 90.469826 133.319611 
L 88.92778 133.665669 
L 61.547492 125.71007 
L 61.242669 125.472628 
L 61.045431 125.317408 
L 60.364061 124.771694 
L 60.292338 124.713398 
L 60.11303 124.566949 
L 59.951654 124.434283 
L 59.64683 124.18147 
L 59.467523 124.031405 
L 59.431661 124.001272 
L 59.144769 123.758773 
L 58.786153 123.452074 
L 58.48133 123.188272 
L 58.194438 122.937393 
L 57.423415 122.250768 
z
" style="fill:#999999;fill-opacity:0.4;"/>
   </g>
   <g id="line2d_26">
    <path clip-path="url(#p8b9c79ba39)" d="M 57.423415 166.840069 
L 61.547492 165.917826 
L 93.35668 159.646744 
L 97.158004 159.000186 
L 124.484499 155.016924 
L 132.768516 154.024892 
L 157.333673 151.580308 
L 166.406643 150.96962 
L 168.379028 150.890367 
L 187.278061 150.937237 
L 198.090316 151.087049 
L 204.00747 151.022028 
L 228.214012 150.196806 
L 253.819153 149.285137 
L 261.941792 149.137284 
L 275.228494 149.172599 
L 286.363503 149.146087 
L 294.235112 148.915893 
L 306.876305 148.190527 
L 321.597469 147.143333 
L 335.798639 145.921406 
L 351.488064 144.329321 
L 367.805066 142.40929 
L 382.07796 140.505922 
L 382.07796 140.505922 
" style="fill:none;stroke:#db5f57;stroke-linejoin:miter;stroke-width:1.772454;"/>
   </g>
   <g id="line2d_27">
    <path clip-path="url(#p8b9c79ba39)" d="M 57.423415 182.083128 
L 61.547492 184.112755 
L 91.043611 196.839403 
L 97.158004 199.08135 
L 120.432145 206.311739 
L 129.003054 208.403136 
L 132.768516 209.295025 
L 151.93651 213.485593 
L 158.803996 214.548491 
L 163.645304 215.061442 
L 168.379028 215.264607 
L 183.440876 214.08403 
L 201.533024 211.582871 
L 204.00747 211.355737 
L 214.92731 210.118258 
L 225.237504 208.462229 
L 253.819153 203.448831 
L 277.93604 200.137486 
L 288.748296 198.888707 
L 298.054366 198.098947 
L 310.839006 197.264979 
L 327.496692 196.462661 
L 340.944771 196.054392 
L 351.488064 195.925733 
L 363.089273 195.984153 
L 370.243651 196.120939 
L 382.07796 196.509475 
L 382.07796 196.509475 
" style="fill:none;stroke:#57db5f;stroke-linejoin:miter;stroke-width:1.772454;"/>
   </g>
   <g id="line2d_28">
    <path clip-path="url(#p8b9c79ba39)" d="M 57.423415 201.18607 
L 61.547492 198.272596 
L 90.469826 179.940838 
L 97.158004 176.228172 
L 120.432145 164.89666 
L 128.483061 161.560876 
L 132.768516 159.914249 
L 151.93651 153.611612 
L 160.794311 151.237538 
L 168.379028 149.435331 
L 183.440876 146.41735 
L 192.011784 145.147776 
L 198.090316 144.495387 
L 204.00747 144.086216 
L 214.92731 144.207169 
L 223.049949 144.96439 
L 231.047073 146.049505 
L 251.810907 149.071934 
L 261.941792 150.215499 
L 266.944478 151.01237 
L 284.068364 153.94601 
L 288.748296 154.504503 
L 294.235112 154.860034 
L 301.371559 154.917336 
L 310.839006 154.843742 
L 321.597469 154.46487 
L 329.361493 153.919428 
L 335.798639 153.250697 
L 343.70611 152.154101 
L 351.488064 150.809386 
L 358.104519 149.469219 
L 366.101643 147.620641 
L 370.243651 146.569361 
L 382.07796 143.234898 
L 382.07796 143.234898 
" style="fill:none;stroke:#5f57db;stroke-linejoin:miter;stroke-width:1.772454;"/>
   </g>
   <g id="patch_3">
    <path d="M 405.510688 202.916339 
L 517.346688 202.916339 
L 517.346688 111.950402 
L 405.510688 111.950402 
z
" style="fill:#ffffff;"/>
   </g>
   <g id="text_11">
    <!-- Model -->
    <g transform="translate(417.710688 135.543996)scale(0.11 -0.11)">
     <defs>
      <path d="M 628 4666 
L 1569 4666 
L 2759 1491 
L 3956 4666 
L 4897 4666 
L 4897 0 
L 4281 0 
L 4281 4097 
L 3078 897 
L 2444 897 
L 1241 4097 
L 1241 0 
L 628 0 
L 628 4666 
z
" id="DejaVuSans-4d" transform="scale(0.015625)"/>
     </defs>
     <use xlink:href="#DejaVuSans-4d"/>
     <use x="86.279297" xlink:href="#DejaVuSans-6f"/>
     <use x="147.460938" xlink:href="#DejaVuSans-64"/>
     <use x="210.9375" xlink:href="#DejaVuSans-65"/>
     <use x="272.460938" xlink:href="#DejaVuSans-6c"/>
    </g>
   </g>
   <g id="patch_4">
    <path clip-path="url(#pe0a8792340)" d="M 417.710688 155.036339 
L 433.550687 155.036339 
L 433.550687 139.196339 
L 417.710688 139.196339 
z
" style="fill:#f2f2f2;"/>
   </g>
   <g id="patch_5">
    <path clip-path="url(#pe0a8792340)" d="M 417.710688 151.076339 
L 433.550687 151.076339 
L 433.550687 143.156339 
L 417.710688 143.156339 
z
" style="fill:#999999;opacity:0.4;"/>
   </g>
   <g id="line2d_29">
    <path clip-path="url(#pe0a8792340)" d="M 417.710688 147.116339 
L 433.550687 147.116339 
" style="fill:none;stroke:#db5f57;stroke-width:1.772454;"/>
   </g>
   <g id="text_12">
    <!-- five_layer_net -->
    <g transform="translate(436.550687 149.422214)scale(0.088 -0.088)">
     <defs>
      <path d="M 2375 4863 
L 2375 4384 
L 1825 4384 
Q 1516 4384 1395 4259 
Q 1275 4134 1275 3809 
L 1275 3500 
L 2222 3500 
L 2222 3053 
L 1275 3053 
L 1275 0 
L 697 0 
L 697 3053 
L 147 3053 
L 147 3500 
L 697 3500 
L 697 3744 
Q 697 4328 969 4595 
Q 1241 4863 1831 4863 
L 2375 4863 
z
" id="DejaVuSans-66" transform="scale(0.015625)"/>
      <path d="M 191 3500 
L 800 3500 
L 1894 563 
L 2988 3500 
L 3597 3500 
L 2284 0 
L 1503 0 
L 191 3500 
z
" id="DejaVuSans-76" transform="scale(0.015625)"/>
      <path d="M 3263 -1063 
L 3263 -1509 
L -63 -1509 
L -63 -1063 
L 3263 -1063 
z
" id="DejaVuSans-5f" transform="scale(0.015625)"/>
     </defs>
     <use xlink:href="#DejaVuSans-66"/>
     <use x="35.205078" xlink:href="#DejaVuSans-69"/>
     <use x="62.988281" xlink:href="#DejaVuSans-76"/>
     <use x="122.167969" xlink:href="#DejaVuSans-65"/>
     <use x="183.691406" xlink:href="#DejaVuSans-5f"/>
     <use x="233.691406" xlink:href="#DejaVuSans-6c"/>
     <use x="261.474609" xlink:href="#DejaVuSans-61"/>
     <use x="322.753906" xlink:href="#DejaVuSans-79"/>
     <use x="381.933594" xlink:href="#DejaVuSans-65"/>
     <use x="443.457031" xlink:href="#DejaVuSans-72"/>
     <use x="484.570312" xlink:href="#DejaVuSans-5f"/>
     <use x="534.570312" xlink:href="#DejaVuSans-6e"/>
     <use x="597.949219" xlink:href="#DejaVuSans-65"/>
     <use x="659.472656" xlink:href="#DejaVuSans-74"/>
    </g>
   </g>
   <g id="patch_6">
    <path clip-path="url(#p66e312a000)" d="M 417.710688 172.876339 
L 433.550687 172.876339 
L 433.550687 157.036339 
L 417.710688 157.036339 
z
" style="fill:#f2f2f2;"/>
   </g>
   <g id="patch_7">
    <path clip-path="url(#p66e312a000)" d="M 417.710688 168.916339 
L 433.550687 168.916339 
L 433.550687 160.996339 
L 417.710688 160.996339 
z
" style="fill:#999999;opacity:0.4;"/>
   </g>
   <g id="line2d_30">
    <path clip-path="url(#p66e312a000)" d="M 417.710688 164.956339 
L 433.550687 164.956339 
" style="fill:none;stroke:#57db5f;stroke-width:1.772454;"/>
   </g>
   <g id="text_13">
    <!-- pytorch_lr -->
    <g transform="translate(436.550687 167.262214)scale(0.088 -0.088)">
     <defs>
      <path d="M 3513 2113 
L 3513 0 
L 2938 0 
L 2938 2094 
Q 2938 2591 2744 2837 
Q 2550 3084 2163 3084 
Q 1697 3084 1428 2787 
Q 1159 2491 1159 1978 
L 1159 0 
L 581 0 
L 581 4863 
L 1159 4863 
L 1159 2956 
Q 1366 3272 1645 3428 
Q 1925 3584 2291 3584 
Q 2894 3584 3203 3211 
Q 3513 2838 3513 2113 
z
" id="DejaVuSans-68" transform="scale(0.015625)"/>
     </defs>
     <use xlink:href="#DejaVuSans-70"/>
     <use x="63.476562" xlink:href="#DejaVuSans-79"/>
     <use x="122.65625" xlink:href="#DejaVuSans-74"/>
     <use x="161.865234" xlink:href="#DejaVuSans-6f"/>
     <use x="223.046875" xlink:href="#DejaVuSans-72"/>
     <use x="261.910156" xlink:href="#DejaVuSans-63"/>
     <use x="316.890625" xlink:href="#DejaVuSans-68"/>
     <use x="380.269531" xlink:href="#DejaVuSans-5f"/>
     <use x="430.269531" xlink:href="#DejaVuSans-6c"/>
     <use x="458.052734" xlink:href="#DejaVuSans-72"/>
    </g>
   </g>
   <g id="patch_8">
    <path clip-path="url(#pd210471bcd)" d="M 417.710688 190.716339 
L 433.550687 190.716339 
L 433.550687 174.876339 
L 417.710688 174.876339 
z
" style="fill:#f2f2f2;"/>
   </g>
   <g id="patch_9">
    <path clip-path="url(#pd210471bcd)" d="M 417.710688 186.756339 
L 433.550687 186.756339 
L 433.550687 178.836339 
L 417.710688 178.836339 
z
" style="fill:#999999;opacity:0.4;"/>
   </g>
   <g id="line2d_31">
    <path clip-path="url(#pd210471bcd)" d="M 417.710688 182.796339 
L 433.550687 182.796339 
" style="fill:none;stroke:#5f57db;stroke-width:1.772454;"/>
   </g>
   <g id="text_14">
    <!-- three_layer_net -->
    <g transform="translate(436.550687 185.102214)scale(0.088 -0.088)">
     <use xlink:href="#DejaVuSans-74"/>
     <use x="39.208984" xlink:href="#DejaVuSans-68"/>
     <use x="102.587891" xlink:href="#DejaVuSans-72"/>
     <use x="141.451172" xlink:href="#DejaVuSans-65"/>
     <use x="202.974609" xlink:href="#DejaVuSans-65"/>
     <use x="264.498047" xlink:href="#DejaVuSans-5f"/>
     <use x="314.498047" xlink:href="#DejaVuSans-6c"/>
     <use x="342.28125" xlink:href="#DejaVuSans-61"/>
     <use x="403.560547" xlink:href="#DejaVuSans-79"/>
     <use x="462.740234" xlink:href="#DejaVuSans-65"/>
     <use x="524.263672" xlink:href="#DejaVuSans-72"/>
     <use x="565.376953" xlink:href="#DejaVuSans-5f"/>
     <use x="615.376953" xlink:href="#DejaVuSans-6e"/>
     <use x="678.755859" xlink:href="#DejaVuSans-65"/>
     <use x="740.279297" xlink:href="#DejaVuSans-74"/>
    </g>
   </g>
  </g>
  <g id="text_15">
   <!-- Metadata sex prediction split signal removal -->
   <g transform="translate(67.565562 17.229938)scale(0.132 -0.132)">
    <defs>
     <path d="M 3513 3500 
L 2247 1797 
L 3578 0 
L 2900 0 
L 1881 1375 
L 863 0 
L 184 0 
L 1544 1831 
L 300 3500 
L 978 3500 
L 1906 2253 
L 2834 3500 
L 3513 3500 
z
" id="DejaVuSans-78" transform="scale(0.015625)"/>
     <path d="M 2906 1791 
Q 2906 2416 2648 2759 
Q 2391 3103 1925 3103 
Q 1463 3103 1205 2759 
Q 947 2416 947 1791 
Q 947 1169 1205 825 
Q 1463 481 1925 481 
Q 2391 481 2648 825 
Q 2906 1169 2906 1791 
z
M 3481 434 
Q 3481 -459 3084 -895 
Q 2688 -1331 1869 -1331 
Q 1566 -1331 1297 -1286 
Q 1028 -1241 775 -1147 
L 775 -588 
Q 1028 -725 1275 -790 
Q 1522 -856 1778 -856 
Q 2344 -856 2625 -561 
Q 2906 -266 2906 331 
L 2906 616 
Q 2728 306 2450 153 
Q 2172 0 1784 0 
Q 1141 0 747 490 
Q 353 981 353 1791 
Q 353 2603 747 3093 
Q 1141 3584 1784 3584 
Q 2172 3584 2450 3431 
Q 2728 3278 2906 2969 
L 2906 3500 
L 3481 3500 
L 3481 434 
z
" id="DejaVuSans-67" transform="scale(0.015625)"/>
    </defs>
    <use xlink:href="#DejaVuSans-4d"/>
    <use x="86.279297" xlink:href="#DejaVuSans-65"/>
    <use x="147.802734" xlink:href="#DejaVuSans-74"/>
    <use x="187.011719" xlink:href="#DejaVuSans-61"/>
    <use x="248.291016" xlink:href="#DejaVuSans-64"/>
    <use x="311.767578" xlink:href="#DejaVuSans-61"/>
    <use x="373.046875" xlink:href="#DejaVuSans-74"/>
    <use x="412.255859" xlink:href="#DejaVuSans-61"/>
    <use x="473.535156" xlink:href="#DejaVuSans-20"/>
    <use x="505.322266" xlink:href="#DejaVuSans-73"/>
    <use x="557.421875" xlink:href="#DejaVuSans-65"/>
    <use x="617.195312" xlink:href="#DejaVuSans-78"/>
    <use x="676.375" xlink:href="#DejaVuSans-20"/>
    <use x="708.162109" xlink:href="#DejaVuSans-70"/>
    <use x="771.638672" xlink:href="#DejaVuSans-72"/>
    <use x="810.501953" xlink:href="#DejaVuSans-65"/>
    <use x="872.025391" xlink:href="#DejaVuSans-64"/>
    <use x="935.501953" xlink:href="#DejaVuSans-69"/>
    <use x="963.285156" xlink:href="#DejaVuSans-63"/>
    <use x="1018.265625" xlink:href="#DejaVuSans-74"/>
    <use x="1057.474609" xlink:href="#DejaVuSans-69"/>
    <use x="1085.257812" xlink:href="#DejaVuSans-6f"/>
    <use x="1146.439453" xlink:href="#DejaVuSans-6e"/>
    <use x="1209.818359" xlink:href="#DejaVuSans-20"/>
    <use x="1241.605469" xlink:href="#DejaVuSans-73"/>
    <use x="1293.705078" xlink:href="#DejaVuSans-70"/>
    <use x="1357.181641" xlink:href="#DejaVuSans-6c"/>
    <use x="1384.964844" xlink:href="#DejaVuSans-69"/>
    <use x="1412.748047" xlink:href="#DejaVuSans-74"/>
    <use x="1451.957031" xlink:href="#DejaVuSans-20"/>
    <use x="1483.744141" xlink:href="#DejaVuSans-73"/>
    <use x="1535.84375" xlink:href="#DejaVuSans-69"/>
    <use x="1563.626953" xlink:href="#DejaVuSans-67"/>
    <use x="1627.103516" xlink:href="#DejaVuSans-6e"/>
    <use x="1690.482422" xlink:href="#DejaVuSans-61"/>
    <use x="1751.761719" xlink:href="#DejaVuSans-6c"/>
    <use x="1779.544922" xlink:href="#DejaVuSans-20"/>
    <use x="1811.332031" xlink:href="#DejaVuSans-72"/>
    <use x="1850.195312" xlink:href="#DejaVuSans-65"/>
    <use x="1911.71875" xlink:href="#DejaVuSans-6d"/>
    <use x="2009.130859" xlink:href="#DejaVuSans-6f"/>
    <use x="2070.3125" xlink:href="#DejaVuSans-76"/>
    <use x="2129.492188" xlink:href="#DejaVuSans-61"/>
    <use x="2190.771484" xlink:href="#DejaVuSans-6c"/>
   </g>
  </g>
 </g>
 <defs>
  <clipPath id="p8b9c79ba39">
   <rect height="266.112" width="357.12" x="41.190688" y="26.105371"/>
  </clipPath>
  <clipPath id="pe0a8792340">
   <path d="M 417.710688 155.036339 
L 417.710688 139.196339 
L 433.550687 139.196339 
L 433.550687 155.036339 
"/>
  </clipPath>
  <clipPath id="p66e312a000">
   <path d="M 417.710688 172.876339 
L 417.710688 157.036339 
L 433.550687 157.036339 
L 433.550687 172.876339 
"/>
  </clipPath>
  <clipPath id="pd210471bcd">
   <path d="M 417.710688 190.716339 
L 417.710688 174.876339 
L 433.550687 174.876339 
L 433.550687 190.716339 
"/>
  </clipPath>
 </defs>
</svg>
