<?xml version="1.0" encoding="utf-8" standalone="no"?>
<!DOCTYPE svg PUBLIC "-//W3C//DTD SVG 1.1//EN"
  "http://www.w3.org/Graphics/SVG/1.1/DTD/svg11.dtd">
<svg height="327.930058pt" version="1.1" viewBox="0 0 524.546688 327.930058" width="524.546688pt" xmlns="http://www.w3.org/2000/svg" xmlns:xlink="http://www.w3.org/1999/xlink">
 <metadata>
  <rdf:RDF xmlns:cc="http://creativecommons.org/ns#" xmlns:dc="http://purl.org/dc/elements/1.1/" xmlns:rdf="http://www.w3.org/1999/02/22-rdf-syntax-ns#">
   <cc:Work>
    <dc:type rdf:resource="http://purl.org/dc/dcmitype/StillImage"/>
    <dc:date>2022-03-03T09:48:00.357255</dc:date>
    <dc:format>image/svg+xml</dc:format>
    <dc:creator>
     <cc:Agent>
      <dc:title>Matplotlib v3.4.2, https://matplotlib.org/</dc:title>
     </cc:Agent>
    </dc:creator>
   </cc:Work>
  </rdf:RDF>
 </metadata>
 <defs>
  <style type="text/css">*{stroke-linecap:butt;stroke-linejoin:round;}</style>
 </defs>
 <g id="figure_1">
  <g id="patch_1">
   <path d="M 0 327.930058 
L 524.546688 327.930058 
L 524.546688 0 
L 0 0 
z
" style="fill:#ffffff;stroke:#ffffff;stroke-linejoin:miter;"/>
  </g>
  <g id="axes_1">
   <g id="patch_2">
    <path d="M 41.190688 292.217371 
L 398.310688 292.217371 
L 398.310688 26.105371 
L 41.190688 26.105371 
z
" style="fill:#ebebeb;"/>
   </g>
   <g id="matplotlib.axis_1">
    <g id="xtick_1">
     <g id="line2d_1">
      <path clip-path="url(#p68e10cb3ce)" d="M 115.590837 292.217371 
L 115.590837 26.105371 
" style="fill:none;stroke:#ffffff;"/>
     </g>
     <g id="line2d_2">
      <path d="M 115.590837 292.217371 
" style="fill:none;stroke:#333333;stroke-width:1.5;"/>
      <defs>
       <path d="M 0 0 
L 0 2.75 
" id="m3cc31d7a75" style="stroke:#000000;"/>
      </defs>
      <g>
       <use style="fill:#333333;stroke:#000000;" x="115.590837" xlink:href="#m3cc31d7a75" y="292.217371"/>
      </g>
     </g>
     <g id="text_1">
      <!-- 5000 -->
      <g style="fill:#4d4d4d;" transform="translate(104.392837 303.853996)scale(0.088 -0.088)">
       <defs>
        <path d="M 691 4666 
L 3169 4666 
L 3169 4134 
L 1269 4134 
L 1269 2991 
Q 1406 3038 1543 3061 
Q 1681 3084 1819 3084 
Q 2600 3084 3056 2656 
Q 3513 2228 3513 1497 
Q 3513 744 3044 326 
Q 2575 -91 1722 -91 
Q 1428 -91 1123 -41 
Q 819 9 494 109 
L 494 744 
Q 775 591 1075 516 
Q 1375 441 1709 441 
Q 2250 441 2565 725 
Q 2881 1009 2881 1497 
Q 2881 1984 2565 2268 
Q 2250 2553 1709 2553 
Q 1456 2553 1204 2497 
Q 953 2441 691 2322 
L 691 4666 
z
" id="DejaVuSans-35" transform="scale(0.015625)"/>
        <path d="M 2034 4250 
Q 1547 4250 1301 3770 
Q 1056 3291 1056 2328 
Q 1056 1369 1301 889 
Q 1547 409 2034 409 
Q 2525 409 2770 889 
Q 3016 1369 3016 2328 
Q 3016 3291 2770 3770 
Q 2525 4250 2034 4250 
z
M 2034 4750 
Q 2819 4750 3233 4129 
Q 3647 3509 3647 2328 
Q 3647 1150 3233 529 
Q 2819 -91 2034 -91 
Q 1250 -91 836 529 
Q 422 1150 422 2328 
Q 422 3509 836 4129 
Q 1250 4750 2034 4750 
z
" id="DejaVuSans-30" transform="scale(0.015625)"/>
       </defs>
       <use xlink:href="#DejaVuSans-35"/>
       <use x="63.623047" xlink:href="#DejaVuSans-30"/>
       <use x="127.246094" xlink:href="#DejaVuSans-30"/>
       <use x="190.869141" xlink:href="#DejaVuSans-30"/>
      </g>
     </g>
    </g>
    <g id="xtick_2">
     <g id="line2d_3">
      <path clip-path="url(#p68e10cb3ce)" d="M 205.244694 292.217371 
L 205.244694 26.105371 
" style="fill:none;stroke:#ffffff;"/>
     </g>
     <g id="line2d_4">
      <path d="M 205.244694 292.217371 
" style="fill:none;stroke:#333333;stroke-width:1.5;"/>
      <g>
       <use style="fill:#333333;stroke:#000000;" x="205.244694" xlink:href="#m3cc31d7a75" y="292.217371"/>
      </g>
     </g>
     <g id="text_2">
      <!-- 10000 -->
      <g style="fill:#4d4d4d;" transform="translate(191.247194 303.853996)scale(0.088 -0.088)">
       <defs>
        <path d="M 794 531 
L 1825 531 
L 1825 4091 
L 703 3866 
L 703 4441 
L 1819 4666 
L 2450 4666 
L 2450 531 
L 3481 531 
L 3481 0 
L 794 0 
L 794 531 
z
" id="DejaVuSans-31" transform="scale(0.015625)"/>
       </defs>
       <use xlink:href="#DejaVuSans-31"/>
       <use x="63.623047" xlink:href="#DejaVuSans-30"/>
       <use x="127.246094" xlink:href="#DejaVuSans-30"/>
       <use x="190.869141" xlink:href="#DejaVuSans-30"/>
       <use x="254.492188" xlink:href="#DejaVuSans-30"/>
      </g>
     </g>
    </g>
    <g id="xtick_3">
     <g id="line2d_5">
      <path clip-path="url(#p68e10cb3ce)" d="M 294.89855 292.217371 
L 294.89855 26.105371 
" style="fill:none;stroke:#ffffff;"/>
     </g>
     <g id="line2d_6">
      <path d="M 294.89855 292.217371 
" style="fill:none;stroke:#333333;stroke-width:1.5;"/>
      <g>
       <use style="fill:#333333;stroke:#000000;" x="294.89855" xlink:href="#m3cc31d7a75" y="292.217371"/>
      </g>
     </g>
     <g id="text_3">
      <!-- 15000 -->
      <g style="fill:#4d4d4d;" transform="translate(280.90105 303.853996)scale(0.088 -0.088)">
       <use xlink:href="#DejaVuSans-31"/>
       <use x="63.623047" xlink:href="#DejaVuSans-35"/>
       <use x="127.246094" xlink:href="#DejaVuSans-30"/>
       <use x="190.869141" xlink:href="#DejaVuSans-30"/>
       <use x="254.492188" xlink:href="#DejaVuSans-30"/>
      </g>
     </g>
    </g>
    <g id="xtick_4">
     <g id="line2d_7">
      <path clip-path="url(#p68e10cb3ce)" d="M 384.552407 292.217371 
L 384.552407 26.105371 
" style="fill:none;stroke:#ffffff;"/>
     </g>
     <g id="line2d_8">
      <path d="M 384.552407 292.217371 
" style="fill:none;stroke:#333333;stroke-width:1.5;"/>
      <g>
       <use style="fill:#333333;stroke:#000000;" x="384.552407" xlink:href="#m3cc31d7a75" y="292.217371"/>
      </g>
     </g>
     <g id="text_4">
      <!-- 20000 -->
      <g style="fill:#4d4d4d;" transform="translate(370.554907 303.853996)scale(0.088 -0.088)">
       <defs>
        <path d="M 1228 531 
L 3431 531 
L 3431 0 
L 469 0 
L 469 531 
Q 828 903 1448 1529 
Q 2069 2156 2228 2338 
Q 2531 2678 2651 2914 
Q 2772 3150 2772 3378 
Q 2772 3750 2511 3984 
Q 2250 4219 1831 4219 
Q 1534 4219 1204 4116 
Q 875 4013 500 3803 
L 500 4441 
Q 881 4594 1212 4672 
Q 1544 4750 1819 4750 
Q 2544 4750 2975 4387 
Q 3406 4025 3406 3419 
Q 3406 3131 3298 2873 
Q 3191 2616 2906 2266 
Q 2828 2175 2409 1742 
Q 1991 1309 1228 531 
z
" id="DejaVuSans-32" transform="scale(0.015625)"/>
       </defs>
       <use xlink:href="#DejaVuSans-32"/>
       <use x="63.623047" xlink:href="#DejaVuSans-30"/>
       <use x="127.246094" xlink:href="#DejaVuSans-30"/>
       <use x="190.869141" xlink:href="#DejaVuSans-30"/>
       <use x="254.492188" xlink:href="#DejaVuSans-30"/>
      </g>
     </g>
    </g>
    <g id="xtick_5">
     <g id="line2d_9">
      <path clip-path="url(#p68e10cb3ce)" d="M 70.763909 292.217371 
L 70.763909 26.105371 
" style="fill:none;stroke:#ffffff;stroke-width:0.5;"/>
     </g>
    </g>
    <g id="xtick_6">
     <g id="line2d_10">
      <path clip-path="url(#p68e10cb3ce)" d="M 160.417765 292.217371 
L 160.417765 26.105371 
" style="fill:none;stroke:#ffffff;stroke-width:0.5;"/>
     </g>
    </g>
    <g id="xtick_7">
     <g id="line2d_11">
      <path clip-path="url(#p68e10cb3ce)" d="M 250.071622 292.217371 
L 250.071622 26.105371 
" style="fill:none;stroke:#ffffff;stroke-width:0.5;"/>
     </g>
    </g>
    <g id="xtick_8">
     <g id="line2d_12">
      <path clip-path="url(#p68e10cb3ce)" d="M 339.725478 292.217371 
L 339.725478 26.105371 
" style="fill:none;stroke:#ffffff;stroke-width:0.5;"/>
     </g>
    </g>
    <g id="text_5">
     <!-- Train sample count -->
     <g transform="translate(161.787953 318.442402)scale(0.11 -0.11)">
      <defs>
       <path d="M -19 4666 
L 3928 4666 
L 3928 4134 
L 2272 4134 
L 2272 0 
L 1638 0 
L 1638 4134 
L -19 4134 
L -19 4666 
z
" id="DejaVuSans-54" transform="scale(0.015625)"/>
       <path d="M 2631 2963 
Q 2534 3019 2420 3045 
Q 2306 3072 2169 3072 
Q 1681 3072 1420 2755 
Q 1159 2438 1159 1844 
L 1159 0 
L 581 0 
L 581 3500 
L 1159 3500 
L 1159 2956 
Q 1341 3275 1631 3429 
Q 1922 3584 2338 3584 
Q 2397 3584 2469 3576 
Q 2541 3569 2628 3553 
L 2631 2963 
z
" id="DejaVuSans-72" transform="scale(0.015625)"/>
       <path d="M 2194 1759 
Q 1497 1759 1228 1600 
Q 959 1441 959 1056 
Q 959 750 1161 570 
Q 1363 391 1709 391 
Q 2188 391 2477 730 
Q 2766 1069 2766 1631 
L 2766 1759 
L 2194 1759 
z
M 3341 1997 
L 3341 0 
L 2766 0 
L 2766 531 
Q 2569 213 2275 61 
Q 1981 -91 1556 -91 
Q 1019 -91 701 211 
Q 384 513 384 1019 
Q 384 1609 779 1909 
Q 1175 2209 1959 2209 
L 2766 2209 
L 2766 2266 
Q 2766 2663 2505 2880 
Q 2244 3097 1772 3097 
Q 1472 3097 1187 3025 
Q 903 2953 641 2809 
L 641 3341 
Q 956 3463 1253 3523 
Q 1550 3584 1831 3584 
Q 2591 3584 2966 3190 
Q 3341 2797 3341 1997 
z
" id="DejaVuSans-61" transform="scale(0.015625)"/>
       <path d="M 603 3500 
L 1178 3500 
L 1178 0 
L 603 0 
L 603 3500 
z
M 603 4863 
L 1178 4863 
L 1178 4134 
L 603 4134 
L 603 4863 
z
" id="DejaVuSans-69" transform="scale(0.015625)"/>
       <path d="M 3513 2113 
L 3513 0 
L 2938 0 
L 2938 2094 
Q 2938 2591 2744 2837 
Q 2550 3084 2163 3084 
Q 1697 3084 1428 2787 
Q 1159 2491 1159 1978 
L 1159 0 
L 581 0 
L 581 3500 
L 1159 3500 
L 1159 2956 
Q 1366 3272 1645 3428 
Q 1925 3584 2291 3584 
Q 2894 3584 3203 3211 
Q 3513 2838 3513 2113 
z
" id="DejaVuSans-6e" transform="scale(0.015625)"/>
       <path id="DejaVuSans-20" transform="scale(0.015625)"/>
       <path d="M 2834 3397 
L 2834 2853 
Q 2591 2978 2328 3040 
Q 2066 3103 1784 3103 
Q 1356 3103 1142 2972 
Q 928 2841 928 2578 
Q 928 2378 1081 2264 
Q 1234 2150 1697 2047 
L 1894 2003 
Q 2506 1872 2764 1633 
Q 3022 1394 3022 966 
Q 3022 478 2636 193 
Q 2250 -91 1575 -91 
Q 1294 -91 989 -36 
Q 684 19 347 128 
L 347 722 
Q 666 556 975 473 
Q 1284 391 1588 391 
Q 1994 391 2212 530 
Q 2431 669 2431 922 
Q 2431 1156 2273 1281 
Q 2116 1406 1581 1522 
L 1381 1569 
Q 847 1681 609 1914 
Q 372 2147 372 2553 
Q 372 3047 722 3315 
Q 1072 3584 1716 3584 
Q 2034 3584 2315 3537 
Q 2597 3491 2834 3397 
z
" id="DejaVuSans-73" transform="scale(0.015625)"/>
       <path d="M 3328 2828 
Q 3544 3216 3844 3400 
Q 4144 3584 4550 3584 
Q 5097 3584 5394 3201 
Q 5691 2819 5691 2113 
L 5691 0 
L 5113 0 
L 5113 2094 
Q 5113 2597 4934 2840 
Q 4756 3084 4391 3084 
Q 3944 3084 3684 2787 
Q 3425 2491 3425 1978 
L 3425 0 
L 2847 0 
L 2847 2094 
Q 2847 2600 2669 2842 
Q 2491 3084 2119 3084 
Q 1678 3084 1418 2786 
Q 1159 2488 1159 1978 
L 1159 0 
L 581 0 
L 581 3500 
L 1159 3500 
L 1159 2956 
Q 1356 3278 1631 3431 
Q 1906 3584 2284 3584 
Q 2666 3584 2933 3390 
Q 3200 3197 3328 2828 
z
" id="DejaVuSans-6d" transform="scale(0.015625)"/>
       <path d="M 1159 525 
L 1159 -1331 
L 581 -1331 
L 581 3500 
L 1159 3500 
L 1159 2969 
Q 1341 3281 1617 3432 
Q 1894 3584 2278 3584 
Q 2916 3584 3314 3078 
Q 3713 2572 3713 1747 
Q 3713 922 3314 415 
Q 2916 -91 2278 -91 
Q 1894 -91 1617 61 
Q 1341 213 1159 525 
z
M 3116 1747 
Q 3116 2381 2855 2742 
Q 2594 3103 2138 3103 
Q 1681 3103 1420 2742 
Q 1159 2381 1159 1747 
Q 1159 1113 1420 752 
Q 1681 391 2138 391 
Q 2594 391 2855 752 
Q 3116 1113 3116 1747 
z
" id="DejaVuSans-70" transform="scale(0.015625)"/>
       <path d="M 603 4863 
L 1178 4863 
L 1178 0 
L 603 0 
L 603 4863 
z
" id="DejaVuSans-6c" transform="scale(0.015625)"/>
       <path d="M 3597 1894 
L 3597 1613 
L 953 1613 
Q 991 1019 1311 708 
Q 1631 397 2203 397 
Q 2534 397 2845 478 
Q 3156 559 3463 722 
L 3463 178 
Q 3153 47 2828 -22 
Q 2503 -91 2169 -91 
Q 1331 -91 842 396 
Q 353 884 353 1716 
Q 353 2575 817 3079 
Q 1281 3584 2069 3584 
Q 2775 3584 3186 3129 
Q 3597 2675 3597 1894 
z
M 3022 2063 
Q 3016 2534 2758 2815 
Q 2500 3097 2075 3097 
Q 1594 3097 1305 2825 
Q 1016 2553 972 2059 
L 3022 2063 
z
" id="DejaVuSans-65" transform="scale(0.015625)"/>
       <path d="M 3122 3366 
L 3122 2828 
Q 2878 2963 2633 3030 
Q 2388 3097 2138 3097 
Q 1578 3097 1268 2742 
Q 959 2388 959 1747 
Q 959 1106 1268 751 
Q 1578 397 2138 397 
Q 2388 397 2633 464 
Q 2878 531 3122 666 
L 3122 134 
Q 2881 22 2623 -34 
Q 2366 -91 2075 -91 
Q 1284 -91 818 406 
Q 353 903 353 1747 
Q 353 2603 823 3093 
Q 1294 3584 2113 3584 
Q 2378 3584 2631 3529 
Q 2884 3475 3122 3366 
z
" id="DejaVuSans-63" transform="scale(0.015625)"/>
       <path d="M 1959 3097 
Q 1497 3097 1228 2736 
Q 959 2375 959 1747 
Q 959 1119 1226 758 
Q 1494 397 1959 397 
Q 2419 397 2687 759 
Q 2956 1122 2956 1747 
Q 2956 2369 2687 2733 
Q 2419 3097 1959 3097 
z
M 1959 3584 
Q 2709 3584 3137 3096 
Q 3566 2609 3566 1747 
Q 3566 888 3137 398 
Q 2709 -91 1959 -91 
Q 1206 -91 779 398 
Q 353 888 353 1747 
Q 353 2609 779 3096 
Q 1206 3584 1959 3584 
z
" id="DejaVuSans-6f" transform="scale(0.015625)"/>
       <path d="M 544 1381 
L 544 3500 
L 1119 3500 
L 1119 1403 
Q 1119 906 1312 657 
Q 1506 409 1894 409 
Q 2359 409 2629 706 
Q 2900 1003 2900 1516 
L 2900 3500 
L 3475 3500 
L 3475 0 
L 2900 0 
L 2900 538 
Q 2691 219 2414 64 
Q 2138 -91 1772 -91 
Q 1169 -91 856 284 
Q 544 659 544 1381 
z
M 1991 3584 
L 1991 3584 
z
" id="DejaVuSans-75" transform="scale(0.015625)"/>
       <path d="M 1172 4494 
L 1172 3500 
L 2356 3500 
L 2356 3053 
L 1172 3053 
L 1172 1153 
Q 1172 725 1289 603 
Q 1406 481 1766 481 
L 2356 481 
L 2356 0 
L 1766 0 
Q 1100 0 847 248 
Q 594 497 594 1153 
L 594 3053 
L 172 3053 
L 172 3500 
L 594 3500 
L 594 4494 
L 1172 4494 
z
" id="DejaVuSans-74" transform="scale(0.015625)"/>
      </defs>
      <use xlink:href="#DejaVuSans-54"/>
      <use x="46.333984" xlink:href="#DejaVuSans-72"/>
      <use x="87.447266" xlink:href="#DejaVuSans-61"/>
      <use x="148.726562" xlink:href="#DejaVuSans-69"/>
      <use x="176.509766" xlink:href="#DejaVuSans-6e"/>
      <use x="239.888672" xlink:href="#DejaVuSans-20"/>
      <use x="271.675781" xlink:href="#DejaVuSans-73"/>
      <use x="323.775391" xlink:href="#DejaVuSans-61"/>
      <use x="385.054688" xlink:href="#DejaVuSans-6d"/>
      <use x="482.466797" xlink:href="#DejaVuSans-70"/>
      <use x="545.943359" xlink:href="#DejaVuSans-6c"/>
      <use x="573.726562" xlink:href="#DejaVuSans-65"/>
      <use x="635.25" xlink:href="#DejaVuSans-20"/>
      <use x="667.037109" xlink:href="#DejaVuSans-63"/>
      <use x="722.017578" xlink:href="#DejaVuSans-6f"/>
      <use x="783.199219" xlink:href="#DejaVuSans-75"/>
      <use x="846.578125" xlink:href="#DejaVuSans-6e"/>
      <use x="909.957031" xlink:href="#DejaVuSans-74"/>
     </g>
    </g>
   </g>
   <g id="matplotlib.axis_2">
    <g id="ytick_1">
     <g id="line2d_13">
      <path clip-path="url(#p68e10cb3ce)" d="M 41.190688 289.035588 
L 398.310688 289.035588 
" style="fill:none;stroke:#ffffff;"/>
     </g>
     <g id="line2d_14">
      <path d="M 41.190688 289.035588 
" style="fill:none;stroke:#333333;stroke-width:1.5;"/>
      <defs>
       <path d="M 0 0 
L -2.75 0 
" id="m0301e92ae9" style="stroke:#000000;"/>
      </defs>
      <g>
       <use style="fill:#333333;stroke:#000000;" x="41.190688" xlink:href="#m0301e92ae9" y="289.035588"/>
      </g>
     </g>
     <g id="text_6">
      <!-- 0.4 -->
      <g style="fill:#4d4d4d;" transform="translate(22.245938 291.463838)scale(0.088 -0.088)">
       <defs>
        <path d="M 684 794 
L 1344 794 
L 1344 0 
L 684 0 
L 684 794 
z
" id="DejaVuSans-2e" transform="scale(0.015625)"/>
        <path d="M 2419 4116 
L 825 1625 
L 2419 1625 
L 2419 4116 
z
M 2253 4666 
L 3047 4666 
L 3047 1625 
L 3713 1625 
L 3713 1100 
L 3047 1100 
L 3047 0 
L 2419 0 
L 2419 1100 
L 313 1100 
L 313 1709 
L 2253 4666 
z
" id="DejaVuSans-34" transform="scale(0.015625)"/>
       </defs>
       <use xlink:href="#DejaVuSans-30"/>
       <use x="63.623047" xlink:href="#DejaVuSans-2e"/>
       <use x="95.410156" xlink:href="#DejaVuSans-34"/>
      </g>
     </g>
    </g>
    <g id="ytick_2">
     <g id="line2d_15">
      <path clip-path="url(#p68e10cb3ce)" d="M 41.190688 231.970726 
L 398.310688 231.970726 
" style="fill:none;stroke:#ffffff;"/>
     </g>
     <g id="line2d_16">
      <path d="M 41.190688 231.970726 
" style="fill:none;stroke:#333333;stroke-width:1.5;"/>
      <g>
       <use style="fill:#333333;stroke:#000000;" x="41.190688" xlink:href="#m0301e92ae9" y="231.970726"/>
      </g>
     </g>
     <g id="text_7">
      <!-- 0.5 -->
      <g style="fill:#4d4d4d;" transform="translate(22.245938 234.398976)scale(0.088 -0.088)">
       <use xlink:href="#DejaVuSans-30"/>
       <use x="63.623047" xlink:href="#DejaVuSans-2e"/>
       <use x="95.410156" xlink:href="#DejaVuSans-35"/>
      </g>
     </g>
    </g>
    <g id="ytick_3">
     <g id="line2d_17">
      <path clip-path="url(#p68e10cb3ce)" d="M 41.190688 174.905865 
L 398.310688 174.905865 
" style="fill:none;stroke:#ffffff;"/>
     </g>
     <g id="line2d_18">
      <path d="M 41.190688 174.905865 
" style="fill:none;stroke:#333333;stroke-width:1.5;"/>
      <g>
       <use style="fill:#333333;stroke:#000000;" x="41.190688" xlink:href="#m0301e92ae9" y="174.905865"/>
      </g>
     </g>
     <g id="text_8">
      <!-- 0.6 -->
      <g style="fill:#4d4d4d;" transform="translate(22.245938 177.334115)scale(0.088 -0.088)">
       <defs>
        <path d="M 2113 2584 
Q 1688 2584 1439 2293 
Q 1191 2003 1191 1497 
Q 1191 994 1439 701 
Q 1688 409 2113 409 
Q 2538 409 2786 701 
Q 3034 994 3034 1497 
Q 3034 2003 2786 2293 
Q 2538 2584 2113 2584 
z
M 3366 4563 
L 3366 3988 
Q 3128 4100 2886 4159 
Q 2644 4219 2406 4219 
Q 1781 4219 1451 3797 
Q 1122 3375 1075 2522 
Q 1259 2794 1537 2939 
Q 1816 3084 2150 3084 
Q 2853 3084 3261 2657 
Q 3669 2231 3669 1497 
Q 3669 778 3244 343 
Q 2819 -91 2113 -91 
Q 1303 -91 875 529 
Q 447 1150 447 2328 
Q 447 3434 972 4092 
Q 1497 4750 2381 4750 
Q 2619 4750 2861 4703 
Q 3103 4656 3366 4563 
z
" id="DejaVuSans-36" transform="scale(0.015625)"/>
       </defs>
       <use xlink:href="#DejaVuSans-30"/>
       <use x="63.623047" xlink:href="#DejaVuSans-2e"/>
       <use x="95.410156" xlink:href="#DejaVuSans-36"/>
      </g>
     </g>
    </g>
    <g id="ytick_4">
     <g id="line2d_19">
      <path clip-path="url(#p68e10cb3ce)" d="M 41.190688 117.841004 
L 398.310688 117.841004 
" style="fill:none;stroke:#ffffff;"/>
     </g>
     <g id="line2d_20">
      <path d="M 41.190688 117.841004 
" style="fill:none;stroke:#333333;stroke-width:1.5;"/>
      <g>
       <use style="fill:#333333;stroke:#000000;" x="41.190688" xlink:href="#m0301e92ae9" y="117.841004"/>
      </g>
     </g>
     <g id="text_9">
      <!-- 0.7 -->
      <g style="fill:#4d4d4d;" transform="translate(22.245938 120.269254)scale(0.088 -0.088)">
       <defs>
        <path d="M 525 4666 
L 3525 4666 
L 3525 4397 
L 1831 0 
L 1172 0 
L 2766 4134 
L 525 4134 
L 525 4666 
z
" id="DejaVuSans-37" transform="scale(0.015625)"/>
       </defs>
       <use xlink:href="#DejaVuSans-30"/>
       <use x="63.623047" xlink:href="#DejaVuSans-2e"/>
       <use x="95.410156" xlink:href="#DejaVuSans-37"/>
      </g>
     </g>
    </g>
    <g id="ytick_5">
     <g id="line2d_21">
      <path clip-path="url(#p68e10cb3ce)" d="M 41.190688 60.776143 
L 398.310688 60.776143 
" style="fill:none;stroke:#ffffff;"/>
     </g>
     <g id="line2d_22">
      <path d="M 41.190688 60.776143 
" style="fill:none;stroke:#333333;stroke-width:1.5;"/>
      <g>
       <use style="fill:#333333;stroke:#000000;" x="41.190688" xlink:href="#m0301e92ae9" y="60.776143"/>
      </g>
     </g>
     <g id="text_10">
      <!-- 0.8 -->
      <g style="fill:#4d4d4d;" transform="translate(22.245938 63.204393)scale(0.088 -0.088)">
       <defs>
        <path d="M 2034 2216 
Q 1584 2216 1326 1975 
Q 1069 1734 1069 1313 
Q 1069 891 1326 650 
Q 1584 409 2034 409 
Q 2484 409 2743 651 
Q 3003 894 3003 1313 
Q 3003 1734 2745 1975 
Q 2488 2216 2034 2216 
z
M 1403 2484 
Q 997 2584 770 2862 
Q 544 3141 544 3541 
Q 544 4100 942 4425 
Q 1341 4750 2034 4750 
Q 2731 4750 3128 4425 
Q 3525 4100 3525 3541 
Q 3525 3141 3298 2862 
Q 3072 2584 2669 2484 
Q 3125 2378 3379 2068 
Q 3634 1759 3634 1313 
Q 3634 634 3220 271 
Q 2806 -91 2034 -91 
Q 1263 -91 848 271 
Q 434 634 434 1313 
Q 434 1759 690 2068 
Q 947 2378 1403 2484 
z
M 1172 3481 
Q 1172 3119 1398 2916 
Q 1625 2713 2034 2713 
Q 2441 2713 2670 2916 
Q 2900 3119 2900 3481 
Q 2900 3844 2670 4047 
Q 2441 4250 2034 4250 
Q 1625 4250 1398 4047 
Q 1172 3844 1172 3481 
z
" id="DejaVuSans-38" transform="scale(0.015625)"/>
       </defs>
       <use xlink:href="#DejaVuSans-30"/>
       <use x="63.623047" xlink:href="#DejaVuSans-2e"/>
       <use x="95.410156" xlink:href="#DejaVuSans-38"/>
      </g>
     </g>
    </g>
    <g id="ytick_6">
     <g id="line2d_23">
      <path clip-path="url(#p68e10cb3ce)" d="M 41.190688 260.503157 
L 398.310688 260.503157 
" style="fill:none;stroke:#ffffff;stroke-width:0.5;"/>
     </g>
    </g>
    <g id="ytick_7">
     <g id="line2d_24">
      <path clip-path="url(#p68e10cb3ce)" d="M 41.190688 203.438296 
L 398.310688 203.438296 
" style="fill:none;stroke:#ffffff;stroke-width:0.5;"/>
     </g>
    </g>
    <g id="ytick_8">
     <g id="line2d_25">
      <path clip-path="url(#p68e10cb3ce)" d="M 41.190688 146.373435 
L 398.310688 146.373435 
" style="fill:none;stroke:#ffffff;stroke-width:0.5;"/>
     </g>
    </g>
    <g id="ytick_9">
     <g id="line2d_26">
      <path clip-path="url(#p68e10cb3ce)" d="M 41.190688 89.308574 
L 398.310688 89.308574 
" style="fill:none;stroke:#ffffff;stroke-width:0.5;"/>
     </g>
    </g>
    <g id="ytick_10">
     <g id="line2d_27">
      <path clip-path="url(#p68e10cb3ce)" d="M 41.190688 32.243712 
L 398.310688 32.243712 
" style="fill:none;stroke:#ffffff;stroke-width:0.5;"/>
     </g>
    </g>
    <g id="text_11">
     <!-- Balanced Accuracy (Val Set) -->
     <g transform="translate(15.558281 234.774543)rotate(-90)scale(0.11 -0.11)">
      <defs>
       <path d="M 1259 2228 
L 1259 519 
L 2272 519 
Q 2781 519 3026 730 
Q 3272 941 3272 1375 
Q 3272 1813 3026 2020 
Q 2781 2228 2272 2228 
L 1259 2228 
z
M 1259 4147 
L 1259 2741 
L 2194 2741 
Q 2656 2741 2882 2914 
Q 3109 3088 3109 3444 
Q 3109 3797 2882 3972 
Q 2656 4147 2194 4147 
L 1259 4147 
z
M 628 4666 
L 2241 4666 
Q 2963 4666 3353 4366 
Q 3744 4066 3744 3513 
Q 3744 3084 3544 2831 
Q 3344 2578 2956 2516 
Q 3422 2416 3680 2098 
Q 3938 1781 3938 1306 
Q 3938 681 3513 340 
Q 3088 0 2303 0 
L 628 0 
L 628 4666 
z
" id="DejaVuSans-42" transform="scale(0.015625)"/>
       <path d="M 2906 2969 
L 2906 4863 
L 3481 4863 
L 3481 0 
L 2906 0 
L 2906 525 
Q 2725 213 2448 61 
Q 2172 -91 1784 -91 
Q 1150 -91 751 415 
Q 353 922 353 1747 
Q 353 2572 751 3078 
Q 1150 3584 1784 3584 
Q 2172 3584 2448 3432 
Q 2725 3281 2906 2969 
z
M 947 1747 
Q 947 1113 1208 752 
Q 1469 391 1925 391 
Q 2381 391 2643 752 
Q 2906 1113 2906 1747 
Q 2906 2381 2643 2742 
Q 2381 3103 1925 3103 
Q 1469 3103 1208 2742 
Q 947 2381 947 1747 
z
" id="DejaVuSans-64" transform="scale(0.015625)"/>
       <path d="M 2188 4044 
L 1331 1722 
L 3047 1722 
L 2188 4044 
z
M 1831 4666 
L 2547 4666 
L 4325 0 
L 3669 0 
L 3244 1197 
L 1141 1197 
L 716 0 
L 50 0 
L 1831 4666 
z
" id="DejaVuSans-41" transform="scale(0.015625)"/>
       <path d="M 2059 -325 
Q 1816 -950 1584 -1140 
Q 1353 -1331 966 -1331 
L 506 -1331 
L 506 -850 
L 844 -850 
Q 1081 -850 1212 -737 
Q 1344 -625 1503 -206 
L 1606 56 
L 191 3500 
L 800 3500 
L 1894 763 
L 2988 3500 
L 3597 3500 
L 2059 -325 
z
" id="DejaVuSans-79" transform="scale(0.015625)"/>
       <path d="M 1984 4856 
Q 1566 4138 1362 3434 
Q 1159 2731 1159 2009 
Q 1159 1288 1364 580 
Q 1569 -128 1984 -844 
L 1484 -844 
Q 1016 -109 783 600 
Q 550 1309 550 2009 
Q 550 2706 781 3412 
Q 1013 4119 1484 4856 
L 1984 4856 
z
" id="DejaVuSans-28" transform="scale(0.015625)"/>
       <path d="M 1831 0 
L 50 4666 
L 709 4666 
L 2188 738 
L 3669 4666 
L 4325 4666 
L 2547 0 
L 1831 0 
z
" id="DejaVuSans-56" transform="scale(0.015625)"/>
       <path d="M 3425 4513 
L 3425 3897 
Q 3066 4069 2747 4153 
Q 2428 4238 2131 4238 
Q 1616 4238 1336 4038 
Q 1056 3838 1056 3469 
Q 1056 3159 1242 3001 
Q 1428 2844 1947 2747 
L 2328 2669 
Q 3034 2534 3370 2195 
Q 3706 1856 3706 1288 
Q 3706 609 3251 259 
Q 2797 -91 1919 -91 
Q 1588 -91 1214 -16 
Q 841 59 441 206 
L 441 856 
Q 825 641 1194 531 
Q 1563 422 1919 422 
Q 2459 422 2753 634 
Q 3047 847 3047 1241 
Q 3047 1584 2836 1778 
Q 2625 1972 2144 2069 
L 1759 2144 
Q 1053 2284 737 2584 
Q 422 2884 422 3419 
Q 422 4038 858 4394 
Q 1294 4750 2059 4750 
Q 2388 4750 2728 4690 
Q 3069 4631 3425 4513 
z
" id="DejaVuSans-53" transform="scale(0.015625)"/>
       <path d="M 513 4856 
L 1013 4856 
Q 1481 4119 1714 3412 
Q 1947 2706 1947 2009 
Q 1947 1309 1714 600 
Q 1481 -109 1013 -844 
L 513 -844 
Q 928 -128 1133 580 
Q 1338 1288 1338 2009 
Q 1338 2731 1133 3434 
Q 928 4138 513 4856 
z
" id="DejaVuSans-29" transform="scale(0.015625)"/>
      </defs>
      <use xlink:href="#DejaVuSans-42"/>
      <use x="68.603516" xlink:href="#DejaVuSans-61"/>
      <use x="129.882812" xlink:href="#DejaVuSans-6c"/>
      <use x="157.666016" xlink:href="#DejaVuSans-61"/>
      <use x="218.945312" xlink:href="#DejaVuSans-6e"/>
      <use x="282.324219" xlink:href="#DejaVuSans-63"/>
      <use x="337.304688" xlink:href="#DejaVuSans-65"/>
      <use x="398.828125" xlink:href="#DejaVuSans-64"/>
      <use x="462.304688" xlink:href="#DejaVuSans-20"/>
      <use x="494.091797" xlink:href="#DejaVuSans-41"/>
      <use x="560.75" xlink:href="#DejaVuSans-63"/>
      <use x="615.730469" xlink:href="#DejaVuSans-63"/>
      <use x="670.710938" xlink:href="#DejaVuSans-75"/>
      <use x="734.089844" xlink:href="#DejaVuSans-72"/>
      <use x="775.203125" xlink:href="#DejaVuSans-61"/>
      <use x="836.482422" xlink:href="#DejaVuSans-63"/>
      <use x="891.462891" xlink:href="#DejaVuSans-79"/>
      <use x="950.642578" xlink:href="#DejaVuSans-20"/>
      <use x="982.429688" xlink:href="#DejaVuSans-28"/>
      <use x="1021.443359" xlink:href="#DejaVuSans-56"/>
      <use x="1082.101562" xlink:href="#DejaVuSans-61"/>
      <use x="1143.380859" xlink:href="#DejaVuSans-6c"/>
      <use x="1171.164062" xlink:href="#DejaVuSans-20"/>
      <use x="1202.951172" xlink:href="#DejaVuSans-53"/>
      <use x="1266.427734" xlink:href="#DejaVuSans-65"/>
      <use x="1327.951172" xlink:href="#DejaVuSans-74"/>
      <use x="1367.160156" xlink:href="#DejaVuSans-29"/>
     </g>
    </g>
   </g>
   <g id="PolyCollection_1">
    <path clip-path="url(#p68e10cb3ce)" d="M 57.423415 144.468618 
L 57.423415 213.90806 
L 58.194438 212.781485 
L 58.48133 212.365338 
L 58.786153 211.925001 
L 59.144769 211.409363 
L 59.431661 210.998732 
L 59.467523 210.947521 
L 59.64683 210.691859 
L 59.951654 210.258741 
L 60.11303 210.030214 
L 60.292338 209.776921 
L 60.364061 209.675789 
L 61.045431 208.720326 
L 61.242669 208.445538 
L 61.547492 208.022456 
L 88.92778 178.499157 
L 90.469826 177.341164 
L 91.043611 176.922815 
L 91.635326 176.498362 
L 92.370488 175.98128 
L 92.944273 175.585779 
L 92.998065 175.549057 
L 93.35668 175.305787 
L 93.966327 174.898293 
L 94.307011 174.673842 
L 94.647696 174.451691 
L 94.791142 174.358833 
L 96.171812 173.485132 
L 96.548358 173.252979 
L 97.158004 172.882483 
L 120.432145 162.009014 
L 122.727284 161.113013 
L 123.587961 160.778397 
L 124.484499 160.430133 
L 125.578277 160.005174 
L 126.456884 159.663377 
L 126.546538 159.628464 
L 127.066531 159.425809 
L 127.981 159.077579 
L 128.483061 158.893372 
L 129.003054 158.707616 
L 129.218223 158.632215 
L 131.280262 157.950963 
L 131.854047 157.774061 
L 132.768516 157.502832 
L 151.93651 153.693491 
L 155.002672 153.119786 
L 156.150242 152.879213 
L 157.333673 152.611707 
L 158.803996 152.247074 
L 159.951565 151.93386 
L 160.077081 151.897934 
L 160.794311 151.685926 
L 161.995673 151.303631 
L 162.677042 151.070565 
L 163.358412 150.824951 
L 163.645304 150.71763 
L 166.406643 149.532385 
L 167.159735 149.164645 
L 168.379028 148.534468 
L 183.440876 139.283297 
L 187.278061 137.07623 
L 188.712522 136.300864 
L 190.200776 135.52523 
L 192.011784 134.619131 
L 193.464177 133.92001 
L 193.625554 133.843725 
L 194.504161 133.432946 
L 196.010346 132.745129 
L 196.871023 132.360236 
L 197.71377 131.988277 
L 198.090316 131.823482 
L 201.533024 130.345873 
L 202.483355 129.943844 
L 204.00747 129.300966 
L 214.92731 123.551939 
L 219.535518 120.822486 
L 221.256872 119.822847 
L 223.049949 118.809846 
L 225.237504 117.627646 
L 226.976788 116.739938 
L 227.156096 116.651376 
L 228.214012 116.14088 
L 230.025019 115.317372 
L 231.047073 114.88232 
L 232.069127 114.469595 
L 232.517397 114.295756 
L 236.641474 112.906228 
L 237.789043 112.586918 
L 239.617982 112.137097 
L 246.431675 111.045674 
L 251.810907 110.719378 
L 253.819153 110.690913 
L 255.899122 110.705875 
L 258.445292 110.841023 
L 260.471469 111.071409 
L 260.686638 111.101882 
L 261.941792 111.301559 
L 264.039693 111.714668 
L 265.241054 111.992869 
L 266.424485 112.294304 
L 266.944478 112.434866 
L 271.767855 113.940071 
L 273.094732 114.405399 
L 275.228494 115.184169 
L 277.93604 116.202034 
L 284.068364 118.422299 
L 286.363503 119.137858 
L 288.748296 119.762985 
L 291.671011 120.31211 
L 293.984081 120.536787 
L 294.235112 120.548519 
L 295.651642 120.564538 
L 298.054366 120.532553 
L 299.417104 120.527372 
L 300.779843 120.530957 
L 301.371559 120.535128 
L 306.876305 120.643154 
L 308.400421 120.693302 
L 309.440406 120.73215 
L 310.839006 120.790114 
L 316.343753 121.078854 
L 318.925784 121.246518 
L 321.597469 121.441706 
L 324.8788 121.712691 
L 327.496692 121.954966 
L 327.765654 121.98123 
L 329.361493 122.142518 
L 332.069039 122.438319 
L 333.611085 122.619827 
L 335.135201 122.808914 
L 335.798639 122.894304 
L 340.944771 123.675652 
L 342.002686 123.866979 
L 343.70611 124.199403 
L 346.449518 124.801172 
L 348.619141 125.337722 
L 351.488064 126.132265 
L 354.464572 127.060795 
L 358.104519 128.34111 
L 361.009304 129.476171 
L 361.314127 129.601047 
L 363.089273 130.349799 
L 366.101643 131.703464 
L 367.805066 132.514432 
L 369.490559 133.348678 
L 370.243651 133.731545 
L 377.129067 137.515123 
L 379.029729 138.647477 
L 382.07796 140.541076 
L 382.07796 48.143005 
L 382.07796 48.143005 
L 379.029729 51.548117 
L 377.129067 53.600192 
L 370.243651 60.544003 
L 369.490559 61.254267 
L 367.805066 62.806866 
L 366.101643 64.322769 
L 363.089273 66.86802 
L 361.314127 68.284086 
L 361.009304 68.520836 
L 358.104519 70.680418 
L 354.464572 73.132567 
L 351.488064 74.920158 
L 348.619141 76.452634 
L 346.449518 77.485437 
L 343.70611 78.634789 
L 342.002686 79.260538 
L 340.944771 79.615466 
L 335.798639 80.980785 
L 335.135201 81.113711 
L 333.611085 81.380018 
L 332.069039 81.596592 
L 329.361493 81.857803 
L 327.765654 81.946529 
L 327.496692 81.957052 
L 324.8788 81.997591 
L 321.597469 81.906967 
L 318.925784 81.736105 
L 316.343753 81.503964 
L 310.839006 80.851539 
L 309.440406 80.663025 
L 308.400421 80.519282 
L 306.876305 80.304915 
L 301.371559 79.528588 
L 300.779843 79.447894 
L 299.417104 79.266142 
L 298.054366 79.091326 
L 295.651642 78.804528 
L 294.235112 78.613173 
L 293.984081 78.57287 
L 291.671011 78.117037 
L 288.748296 77.34282 
L 286.363503 76.568263 
L 284.068364 75.719011 
L 277.93604 73.078213 
L 275.228494 71.81018 
L 273.094732 70.801785 
L 271.767855 70.180759 
L 266.944478 68.06004 
L 266.424485 67.85216 
L 265.241054 67.400048 
L 264.039693 66.974838 
L 261.941792 66.328726 
L 260.686638 66.010123 
L 260.471469 65.961168 
L 258.445292 65.58929 
L 255.899122 65.377724 
L 253.819153 65.420799 
L 251.810907 65.618701 
L 246.431675 66.780677 
L 239.617982 69.159893 
L 237.789043 69.894807 
L 236.641474 70.36624 
L 232.517397 72.086228 
L 232.069127 72.273059 
L 231.047073 72.697449 
L 230.025019 73.11893 
L 228.214012 73.856496 
L 227.156096 74.280977 
L 226.976788 74.352424 
L 225.237504 75.037753 
L 223.049949 75.880238 
L 221.256872 76.556285 
L 219.535518 77.195557 
L 214.92731 78.885766 
L 204.00747 83.156435 
L 202.483355 83.858423 
L 201.533024 84.340867 
L 198.090316 86.329802 
L 197.71377 86.566596 
L 196.871023 87.107705 
L 196.010346 87.674551 
L 194.504161 88.694874 
L 193.625554 89.303049 
L 193.464177 89.415567 
L 192.011784 90.436558 
L 190.200776 91.720511 
L 188.712522 92.77363 
L 187.278061 93.778402 
L 183.440876 96.367379 
L 168.379028 104.298566 
L 167.159735 104.798175 
L 166.406643 105.099415 
L 163.645304 106.161897 
L 163.358412 106.268545 
L 162.677042 106.517059 
L 161.995673 106.759027 
L 160.794311 107.170357 
L 160.077081 107.407011 
L 159.951565 107.447764 
L 158.803996 107.811537 
L 157.333673 108.25554 
L 156.150242 108.596246 
L 155.002672 108.913648 
L 151.93651 109.70809 
L 132.768516 114.826134 
L 131.854047 115.18558 
L 131.280262 115.421744 
L 129.218223 116.343924 
L 129.003054 116.447184 
L 128.483061 116.702518 
L 127.981 116.956991 
L 127.066531 117.441212 
L 126.546538 117.724156 
L 126.456884 117.772905 
L 125.578277 118.250118 
L 124.484499 118.842932 
L 123.587961 119.327855 
L 122.727284 119.792584 
L 120.432145 121.028264 
L 97.158004 133.152721 
L 96.548358 133.451722 
L 96.171812 133.635578 
L 94.791142 134.304065 
L 94.647696 134.372987 
L 94.307011 134.536259 
L 93.966327 134.698934 
L 93.35668 134.988505 
L 92.998065 135.157898 
L 92.944273 135.183246 
L 92.370488 135.452603 
L 91.635326 135.794927 
L 91.043611 136.067467 
L 90.469826 136.328436 
L 88.92778 137.012903 
L 61.547492 144.189149 
L 61.242669 144.21616 
L 61.045431 144.233085 
L 60.364061 144.288237 
L 60.292338 144.293745 
L 60.11303 144.307268 
L 59.951654 144.319139 
L 59.64683 144.340788 
L 59.467523 144.353053 
L 59.431661 144.355464 
L 59.144769 144.374255 
L 58.786153 144.396502 
L 58.48133 144.414334 
L 58.194438 144.430218 
L 57.423415 144.468618 
z
" style="fill:#999999;fill-opacity:0.4;"/>
   </g>
   <g id="PolyCollection_2">
    <path clip-path="url(#p68e10cb3ce)" d="M 57.423415 247.860258 
L 57.423415 280.121371 
L 58.194438 279.848766 
L 58.48133 279.748429 
L 58.786153 279.642477 
L 59.144769 279.518696 
L 59.431661 279.42035 
L 59.467523 279.408099 
L 59.64683 279.346988 
L 59.951654 279.243644 
L 60.11303 279.189211 
L 60.292338 279.128957 
L 60.364061 279.104922 
L 61.045431 278.878509 
L 61.242669 278.813619 
L 61.547492 278.71391 
L 88.92778 272.863297 
L 90.469826 272.717311 
L 91.043611 272.667372 
L 91.635326 272.61829 
L 92.370488 272.560422 
L 92.944273 272.517457 
L 92.998065 272.513526 
L 93.35668 272.487741 
L 93.966327 272.445561 
L 94.307011 272.422882 
L 94.647696 272.400832 
L 94.791142 272.391734 
L 96.171812 272.309658 
L 96.548358 272.288956 
L 97.158004 272.256917 
L 120.432145 272.004481 
L 122.727284 272.048153 
L 123.587961 272.066642 
L 124.484499 272.087074 
L 125.578277 272.11358 
L 126.456884 272.136096 
L 126.546538 272.138454 
L 127.066531 272.152349 
L 127.981 272.174813 
L 128.483061 272.185237 
L 129.003054 272.194656 
L 129.218223 272.198154 
L 131.280262 272.220558 
L 131.854047 272.223478 
L 132.768516 272.225464 
L 151.93651 272.024234 
L 155.002672 272.01903 
L 156.150242 272.020697 
L 157.333673 272.024271 
L 158.803996 272.031049 
L 159.951565 272.037891 
L 160.077081 272.038711 
L 160.794311 272.043646 
L 161.995673 272.052734 
L 162.677042 272.058267 
L 163.358412 272.06402 
L 163.645304 272.066499 
L 166.406643 272.085883 
L 167.159735 272.090422 
L 168.379028 272.098252 
L 183.440876 272.673853 
L 187.278061 273.045787 
L 188.712522 273.204405 
L 190.200776 273.376556 
L 192.011784 273.591978 
L 193.464177 273.765448 
L 193.625554 273.784591 
L 194.504161 273.887905 
L 196.010346 274.059551 
L 196.871023 274.153156 
L 197.71377 274.240681 
L 198.090316 274.278264 
L 201.533024 274.565255 
L 202.483355 274.622368 
L 204.00747 274.689546 
L 214.92731 274.935125 
L 219.535518 275.037407 
L 221.256872 275.087891 
L 223.049949 275.150404 
L 225.237504 275.242339 
L 226.976788 275.328648 
L 227.156096 275.338225 
L 228.214012 275.397294 
L 230.025019 275.508307 
L 231.047073 275.576132 
L 232.069127 275.647325 
L 232.517397 275.679517 
L 236.641474 275.995136 
L 237.789043 276.085862 
L 239.617982 276.228613 
L 246.431675 276.659131 
L 251.810907 276.743311 
L 253.819153 276.683573 
L 255.899122 276.557429 
L 258.445292 276.307981 
L 260.471469 276.042182 
L 260.686638 276.01084 
L 261.941792 275.817183 
L 264.039693 275.456449 
L 265.241054 275.232006 
L 266.424485 275.000253 
L 266.944478 274.895485 
L 271.767855 273.863473 
L 273.094732 273.568093 
L 275.228494 273.090359 
L 277.93604 272.487855 
L 284.068364 271.188297 
L 286.363503 270.738588 
L 288.748296 270.298098 
L 291.671011 269.800115 
L 293.984081 269.442582 
L 294.235112 269.405898 
L 295.651642 269.207237 
L 298.054366 268.877332 
L 299.417104 268.686153 
L 300.779843 268.492716 
L 301.371559 268.408163 
L 306.876305 267.614994 
L 308.400421 267.396596 
L 309.440406 267.248781 
L 310.839006 267.05214 
L 316.343753 266.316034 
L 318.925784 266.001176 
L 321.597469 265.703561 
L 324.8788 265.386251 
L 327.496692 265.178613 
L 327.765654 265.159841 
L 329.361493 265.059054 
L 332.069039 264.932605 
L 333.611085 264.887868 
L 335.135201 264.864665 
L 335.798639 264.861401 
L 340.944771 264.973446 
L 342.002686 265.02726 
L 343.70611 265.136533 
L 346.449518 265.371742 
L 348.619141 265.609721 
L 351.488064 265.994585 
L 354.464572 266.477217 
L 358.104519 267.179808 
L 361.009304 267.826181 
L 361.314127 267.898294 
L 363.089273 268.334039 
L 366.101643 269.13366 
L 367.805066 269.618252 
L 369.490559 270.120027 
L 370.243651 270.35123 
L 377.129067 272.655638 
L 379.029729 273.349081 
L 382.07796 274.509593 
L 382.07796 231.58205 
L 382.07796 231.58205 
L 379.029729 232.883286 
L 377.129067 233.669307 
L 370.243651 236.348774 
L 369.490559 236.625433 
L 367.805066 237.23257 
L 366.101643 237.829028 
L 363.089273 238.840817 
L 361.314127 239.410832 
L 361.009304 239.506729 
L 358.104519 240.391026 
L 354.464572 241.422513 
L 351.488064 242.201773 
L 348.619141 242.898027 
L 346.449518 243.389159 
L 343.70611 243.96751 
L 342.002686 244.303398 
L 340.944771 244.50337 
L 335.798639 245.388654 
L 335.135201 245.493345 
L 333.611085 245.728121 
L 332.069039 245.957804 
L 329.361493 246.343037 
L 327.765654 246.55998 
L 327.496692 246.595842 
L 324.8788 246.934875 
L 321.597469 247.335979 
L 318.925784 247.644895 
L 316.343753 247.929797 
L 310.839006 248.496938 
L 309.440406 248.632926 
L 308.400421 248.732008 
L 306.876305 248.874111 
L 301.371559 249.356791 
L 300.779843 249.405792 
L 299.417104 249.516454 
L 298.054366 249.624008 
L 295.651642 249.805808 
L 294.235112 249.923009 
L 293.984081 249.946419 
L 291.671011 250.196558 
L 288.748296 250.589966 
L 286.363503 250.961032 
L 284.068364 251.348627 
L 277.93604 252.452808 
L 275.228494 252.939086 
L 273.094732 253.310138 
L 271.767855 253.533181 
L 266.944478 254.27923 
L 266.424485 254.352722 
L 265.241054 254.514472 
L 264.039693 254.670615 
L 261.941792 254.923097 
L 260.686638 255.061502 
L 260.471469 255.084257 
L 258.445292 255.284321 
L 255.899122 255.498265 
L 253.819153 255.651373 
L 251.810907 255.78983 
L 246.431675 256.093901 
L 239.617982 256.261683 
L 237.789043 256.251385 
L 236.641474 256.231335 
L 232.517397 256.069245 
L 232.069127 256.043089 
L 231.047073 255.977315 
L 230.025019 255.903186 
L 228.214012 255.752244 
L 227.156096 255.653213 
L 226.976788 255.635685 
L 225.237504 255.455352 
L 223.049949 255.205588 
L 221.256872 254.986528 
L 219.535518 254.768619 
L 214.92731 254.183512 
L 204.00747 253.251097 
L 202.483355 253.211382 
L 201.533024 253.191628 
L 198.090316 253.142196 
L 197.71377 253.138063 
L 196.871023 253.129125 
L 196.010346 253.120054 
L 194.504161 253.102887 
L 193.625554 253.091283 
L 193.464177 253.088973 
L 192.011784 253.065042 
L 190.200776 253.025169 
L 188.712522 252.981935 
L 187.278061 252.929897 
L 183.440876 252.735396 
L 168.379028 251.546539 
L 167.159735 251.478049 
L 166.406643 251.442614 
L 163.645304 251.366195 
L 163.358412 251.363404 
L 162.677042 251.358998 
L 161.995673 251.357601 
L 160.794311 251.362003 
L 160.077081 251.368518 
L 159.951565 251.36994 
L 158.803996 251.386587 
L 157.333673 251.416684 
L 156.150242 251.447119 
L 155.002672 251.481146 
L 151.93651 251.588903 
L 132.768516 252.398148 
L 131.854047 252.437146 
L 131.280262 252.46176 
L 129.218223 252.551289 
L 129.003054 252.560734 
L 128.483061 252.583641 
L 127.981 252.605862 
L 127.066531 252.646578 
L 126.546538 252.669985 
L 126.456884 252.674055 
L 125.578277 252.714452 
L 124.484499 252.765932 
L 123.587961 252.80899 
L 122.727284 252.850951 
L 120.432145 252.965091 
L 97.158004 253.798728 
L 96.548358 253.797551 
L 96.171812 253.795814 
L 94.791142 253.782549 
L 94.647696 253.780527 
L 94.307011 253.775222 
L 93.966327 253.7692 
L 93.35668 253.756594 
L 92.998065 253.748056 
L 92.944273 253.746703 
L 92.370488 253.731063 
L 91.635326 253.707739 
L 91.043611 253.686243 
L 90.469826 253.663064 
L 88.92778 253.589053 
L 61.547492 249.057371 
L 61.242669 248.973067 
L 61.045431 248.918157 
L 60.364061 248.726291 
L 60.292338 248.705899 
L 60.11303 248.654758 
L 59.951654 248.608534 
L 59.64683 248.520712 
L 59.467523 248.468742 
L 59.431661 248.458321 
L 59.144769 248.374621 
L 58.786153 248.269176 
L 58.48133 248.178835 
L 58.194438 248.093212 
L 57.423415 247.860258 
z
" style="fill:#999999;fill-opacity:0.4;"/>
   </g>
   <g id="PolyCollection_3">
    <path clip-path="url(#p68e10cb3ce)" d="M 57.423415 146.628269 
L 57.423415 234.821291 
L 58.194438 233.431037 
L 58.48133 232.917397 
L 58.786153 232.373843 
L 59.144769 231.737266 
L 59.431661 231.230267 
L 59.467523 231.167034 
L 59.64683 230.851342 
L 59.951654 230.316482 
L 60.11303 230.034248 
L 60.292338 229.72141 
L 60.364061 229.596497 
L 61.045431 228.416204 
L 61.242669 228.076701 
L 61.547492 227.55393 
L 88.92778 190.829798 
L 90.469826 189.369581 
L 91.043611 188.841223 
L 91.635326 188.304672 
L 92.370488 187.650004 
L 92.944273 187.148279 
L 92.998065 187.10165 
L 93.35668 186.792552 
L 93.966327 186.27402 
L 94.307011 185.987987 
L 94.647696 185.704583 
L 94.791142 185.586033 
L 96.171812 184.467907 
L 96.548358 184.16997 
L 97.158004 183.693736 
L 120.432145 169.271894 
L 122.727284 168.058711 
L 123.587961 167.606092 
L 124.484499 167.135426 
L 125.578277 166.561833 
L 126.456884 166.101179 
L 126.546538 166.054165 
L 127.066531 165.781416 
L 127.981 165.307758 
L 128.483061 165.05278 
L 129.003054 164.792348 
L 129.218223 164.685647 
L 131.280262 163.693288 
L 131.854047 163.426473 
L 132.768516 163.009219 
L 151.93651 155.834585 
L 155.002672 154.742781 
L 156.150242 154.31312 
L 157.333673 153.853563 
L 158.803996 153.254635 
L 159.951565 152.761976 
L 160.077081 152.706608 
L 160.794311 152.384215 
L 161.995673 151.819767 
L 162.677042 151.484941 
L 163.358412 151.138708 
L 163.645304 150.989366 
L 166.406643 149.369759 
L 167.159735 148.874075 
L 168.379028 148.029725 
L 183.440876 136.002509 
L 187.278061 133.215697 
L 188.712522 132.246995 
L 190.200776 131.284458 
L 192.011784 130.16939 
L 193.464177 129.316814 
L 193.625554 129.224229 
L 194.504161 128.72725 
L 196.010346 127.901335 
L 196.871023 127.442744 
L 197.71377 127.002101 
L 198.090316 126.807688 
L 201.533024 125.087365 
L 202.483355 124.626452 
L 204.00747 123.895679 
L 214.92731 117.588148 
L 219.535518 114.715592 
L 221.256872 113.688131 
L 223.049949 112.663782 
L 225.237504 111.494369 
L 226.976788 110.639142 
L 227.156096 110.555093 
L 228.214012 110.075727 
L 230.025019 109.323592 
L 231.047073 108.938956 
L 232.069127 108.583932 
L 232.517397 108.43768 
L 236.641474 107.364809 
L 237.789043 107.152624 
L 239.617982 106.888933 
L 246.431675 106.623342 
L 251.810907 107.034375 
L 253.819153 107.285909 
L 255.899122 107.588428 
L 258.445292 108.102999 
L 260.471469 108.675565 
L 260.686638 108.744316 
L 261.941792 109.174281 
L 264.039693 109.997304 
L 265.241054 110.523107 
L 266.424485 111.076729 
L 266.944478 111.330513 
L 271.767855 113.943153 
L 273.094732 114.726691 
L 275.228494 116.023832 
L 277.93604 117.702944 
L 284.068364 121.366302 
L 286.363503 122.574884 
L 288.748296 123.668537 
L 291.671011 124.714346 
L 293.984081 125.258653 
L 294.235112 125.30069 
L 295.651642 125.47041 
L 298.054366 125.677013 
L 299.417104 125.809955 
L 300.779843 125.953379 
L 301.371559 126.018744 
L 306.876305 126.706126 
L 308.400421 126.91877 
L 309.440406 127.068742 
L 310.839006 127.276303 
L 316.343753 128.152429 
L 318.925784 128.593028 
L 321.597469 129.067751 
L 324.8788 129.677065 
L 327.496692 130.184676 
L 327.765654 130.23795 
L 329.361493 130.558484 
L 332.069039 131.120321 
L 333.611085 131.450878 
L 335.135201 131.785418 
L 335.798639 131.933523 
L 340.944771 133.208716 
L 342.002686 133.504659 
L 343.70611 134.00847 
L 346.449518 134.894901 
L 348.619141 135.664993 
L 351.488064 136.780778 
L 354.464572 138.058357 
L 358.104519 139.788013 
L 361.009304 141.299554 
L 361.314127 141.464856 
L 363.089273 142.452466 
L 366.101643 144.224801 
L 367.805066 145.279855 
L 369.490559 146.360772 
L 370.243651 146.855497 
L 377.129067 151.708169 
L 379.029729 153.150194 
L 382.07796 155.553482 
L 382.07796 38.201371 
L 382.07796 38.201371 
L 379.029729 42.527823 
L 377.129067 45.130249 
L 370.243651 53.902122 
L 369.490559 54.795751 
L 367.805066 56.746297 
L 366.101643 58.646534 
L 363.089273 61.8261 
L 361.314127 63.58796 
L 361.009304 63.881951 
L 358.104519 66.55484 
L 354.464572 69.565679 
L 351.488064 71.737765 
L 348.619141 73.57746 
L 346.449518 74.800559 
L 343.70611 76.138176 
L 342.002686 76.851312 
L 340.944771 77.249151 
L 335.798639 78.700379 
L 335.135201 78.82955 
L 333.611085 79.073392 
L 332.069039 79.248428 
L 329.361493 79.394036 
L 327.765654 79.391037 
L 327.496692 79.384484 
L 324.8788 79.236069 
L 321.597469 78.855827 
L 318.925784 78.411998 
L 316.343753 77.889508 
L 310.839006 76.551477 
L 309.440406 76.178107 
L 308.400421 75.894912 
L 306.876305 75.473699 
L 301.371559 73.937527 
L 300.779843 73.774972 
L 299.417104 73.405263 
L 298.054366 73.043713 
L 295.651642 72.432232 
L 294.235112 72.039822 
L 293.984081 71.961498 
L 291.671011 71.123607 
L 288.748296 69.791915 
L 286.363503 68.508476 
L 284.068364 67.130094 
L 277.93604 62.932628 
L 275.228494 60.935787 
L 273.094732 59.347005 
L 271.767855 58.36572 
L 266.944478 54.971334 
L 266.424485 54.632051 
L 265.241054 53.887059 
L 264.039693 53.174543 
L 261.941792 52.055589 
L 260.686638 51.47458 
L 260.471469 51.382355 
L 258.445292 50.630085 
L 255.899122 50.018458 
L 253.819153 49.78965 
L 251.810907 49.753313 
L 246.431675 50.403653 
L 239.617982 52.304832 
L 237.789043 52.930612 
L 236.641474 53.336005 
L 232.517397 54.828582 
L 232.069127 54.991335 
L 231.047073 55.361175 
L 230.025019 55.728575 
L 228.214012 56.371556 
L 227.156096 56.741677 
L 226.976788 56.803989 
L 225.237504 57.402181 
L 223.049949 58.140132 
L 221.256872 58.736525 
L 219.535518 59.306295 
L 214.92731 60.858937 
L 204.00747 65.288849 
L 202.483355 66.094696 
L 201.533024 66.65774 
L 198.090316 69.027484 
L 197.71377 69.31334 
L 196.871023 69.968816 
L 196.010346 70.658501 
L 194.504161 71.906722 
L 193.625554 72.654406 
L 193.464177 72.793012 
L 192.011784 74.054385 
L 190.200776 75.649355 
L 188.712522 76.964317 
L 187.278061 78.22438 
L 183.440876 81.496245 
L 168.379028 91.846988 
L 167.159735 92.525508 
L 166.406643 92.936732 
L 163.645304 94.400421 
L 163.358412 94.548908 
L 162.677042 94.898825 
L 161.995673 95.244958 
L 160.794311 95.846282 
L 160.077081 96.199977 
L 159.951565 96.261475 
L 158.803996 96.818347 
L 157.333673 97.51808 
L 156.150242 98.070608 
L 155.002672 98.597846 
L 151.93651 99.970001 
L 132.768516 108.806783 
L 131.854047 109.336077 
L 131.280262 109.67816 
L 129.218223 110.976515 
L 129.003054 111.118599 
L 128.483061 111.467399 
L 127.981 111.811621 
L 127.066531 112.457996 
L 126.546538 112.832718 
L 126.456884 112.897305 
L 125.578277 113.529947 
L 124.484499 114.316728 
L 123.587961 114.96096 
L 122.727284 115.578833 
L 120.432145 117.223432 
L 97.158004 133.234117 
L 96.548358 133.619547 
L 96.171812 133.856144 
L 94.791142 134.713633 
L 94.647696 134.801784 
L 94.307011 135.010407 
L 93.966327 135.21798 
L 93.35668 135.58674 
L 92.998065 135.80201 
L 92.944273 135.834193 
L 92.370488 136.175707 
L 91.635326 136.60842 
L 91.043611 136.95203 
L 90.469826 137.280504 
L 88.92778 138.139308 
L 61.547492 146.481098 
L 61.242669 146.50083 
L 61.045431 146.512829 
L 60.364061 146.549663 
L 60.292338 146.553127 
L 60.11303 146.561441 
L 59.951654 146.568505 
L 59.64683 146.580771 
L 59.467523 146.58733 
L 59.431661 146.588584 
L 59.144769 146.597919 
L 58.786153 146.607855 
L 58.48133 146.614797 
L 58.194438 146.620074 
L 57.423415 146.628269 
z
" style="fill:#999999;fill-opacity:0.4;"/>
   </g>
   <g id="line2d_28">
    <path clip-path="url(#p68e10cb3ce)" d="M 57.423415 179.188339 
L 61.547492 176.105803 
L 90.469826 156.8348 
L 96.548358 153.35235 
L 97.158004 153.017602 
L 124.484499 139.636532 
L 129.218223 137.48807 
L 132.768516 136.164483 
L 158.803996 130.029306 
L 162.677042 128.793812 
L 163.645304 128.439764 
L 168.379028 126.416517 
L 183.440876 117.825338 
L 193.625554 111.573387 
L 198.090316 109.076642 
L 202.483355 106.901134 
L 204.00747 106.2287 
L 219.535518 99.009022 
L 228.214012 94.998688 
L 232.517397 93.190992 
L 237.789043 91.240862 
L 239.617982 90.648495 
L 246.431675 88.913175 
L 251.810907 88.16904 
L 255.899122 88.0418 
L 258.445292 88.215156 
L 261.941792 88.815142 
L 265.241054 89.696458 
L 266.944478 90.247453 
L 273.094732 92.603592 
L 277.93604 94.640124 
L 284.068364 97.070655 
L 288.748296 98.552902 
L 291.671011 99.214574 
L 294.235112 99.580846 
L 327.765654 101.96388 
L 333.611085 101.999923 
L 335.798639 101.937544 
L 343.70611 101.417096 
L 348.619141 100.895178 
L 354.464572 100.096681 
L 363.089273 98.60891 
L 370.243651 97.137774 
L 382.07796 94.34204 
L 382.07796 94.34204 
" style="fill:none;stroke:#db5f57;stroke-linejoin:miter;stroke-width:1.772454;"/>
   </g>
   <g id="line2d_29">
    <path clip-path="url(#p68e10cb3ce)" d="M 57.423415 263.990814 
L 97.158004 263.027822 
L 131.280262 262.341159 
L 132.768516 262.311806 
L 159.951565 261.703915 
L 167.159735 261.784236 
L 168.379028 261.822395 
L 190.200776 263.200863 
L 198.090316 263.71023 
L 214.92731 264.559318 
L 237.789043 266.168624 
L 239.617982 266.245148 
L 246.431675 266.376516 
L 253.819153 266.167473 
L 258.445292 265.796151 
L 264.039693 265.063532 
L 266.944478 264.587357 
L 277.93604 262.470331 
L 288.748296 260.444032 
L 294.235112 259.664453 
L 335.798639 255.125027 
L 348.619141 254.253874 
L 361.314127 253.654563 
L 377.129067 253.162472 
L 382.07796 253.045822 
L 382.07796 253.045822 
" style="fill:none;stroke:#57db5f;stroke-linejoin:miter;stroke-width:1.772454;"/>
   </g>
   <g id="line2d_30">
    <path clip-path="url(#p68e10cb3ce)" d="M 57.423415 190.72478 
L 61.547492 187.017514 
L 90.469826 163.325042 
L 97.158004 158.463927 
L 124.484499 140.726077 
L 129.218223 137.831081 
L 132.768516 135.908001 
L 160.794311 124.115249 
L 163.645304 122.694894 
L 168.379028 119.938356 
L 183.440876 108.749377 
L 192.011784 102.111888 
L 196.871023 98.70578 
L 198.090316 97.917586 
L 202.483355 95.360574 
L 204.00747 94.592264 
L 221.256872 86.212328 
L 227.156096 83.648385 
L 232.069127 81.787634 
L 232.517397 81.633131 
L 237.789043 80.041618 
L 239.617982 79.596883 
L 246.431675 78.513497 
L 251.810907 78.393844 
L 253.819153 78.53778 
L 255.899122 78.803443 
L 258.445292 79.366542 
L 261.941792 80.614935 
L 265.241054 82.205083 
L 266.944478 83.150923 
L 273.094732 87.036848 
L 277.93604 90.317786 
L 284.068364 94.248198 
L 286.363503 95.54168 
L 288.748296 96.730226 
L 291.671011 97.918976 
L 294.235112 98.670256 
L 318.925784 103.502513 
L 324.8788 104.456567 
L 329.361493 104.97626 
L 333.611085 105.262135 
L 335.798639 105.316951 
L 343.70611 105.073323 
L 348.619141 104.621226 
L 354.464572 103.812018 
L 361.314127 102.526408 
L 367.805066 101.013076 
L 370.243651 100.37881 
L 379.029729 97.839009 
L 382.07796 96.877426 
L 382.07796 96.877426 
" style="fill:none;stroke:#5f57db;stroke-linejoin:miter;stroke-width:1.772454;"/>
   </g>
   <g id="patch_3">
    <path d="M 405.510688 202.916339 
L 517.346688 202.916339 
L 517.346688 111.950402 
L 405.510688 111.950402 
z
" style="fill:#ffffff;"/>
   </g>
   <g id="text_12">
    <!-- Model -->
    <g transform="translate(417.710688 135.543996)scale(0.11 -0.11)">
     <defs>
      <path d="M 628 4666 
L 1569 4666 
L 2759 1491 
L 3956 4666 
L 4897 4666 
L 4897 0 
L 4281 0 
L 4281 4097 
L 3078 897 
L 2444 897 
L 1241 4097 
L 1241 0 
L 628 0 
L 628 4666 
z
" id="DejaVuSans-4d" transform="scale(0.015625)"/>
     </defs>
     <use xlink:href="#DejaVuSans-4d"/>
     <use x="86.279297" xlink:href="#DejaVuSans-6f"/>
     <use x="147.460938" xlink:href="#DejaVuSans-64"/>
     <use x="210.9375" xlink:href="#DejaVuSans-65"/>
     <use x="272.460938" xlink:href="#DejaVuSans-6c"/>
    </g>
   </g>
   <g id="patch_4">
    <path clip-path="url(#p0fb2ceb6af)" d="M 417.710688 155.036339 
L 433.550687 155.036339 
L 433.550687 139.196339 
L 417.710688 139.196339 
z
" style="fill:#f2f2f2;"/>
   </g>
   <g id="patch_5">
    <path clip-path="url(#p0fb2ceb6af)" d="M 417.710688 151.076339 
L 433.550687 151.076339 
L 433.550687 143.156339 
L 417.710688 143.156339 
z
" style="fill:#999999;opacity:0.4;"/>
   </g>
   <g id="line2d_31">
    <path clip-path="url(#p0fb2ceb6af)" d="M 417.710688 147.116339 
L 433.550687 147.116339 
" style="fill:none;stroke:#db5f57;stroke-width:1.772454;"/>
   </g>
   <g id="text_13">
    <!-- five_layer_net -->
    <g transform="translate(436.550687 149.422214)scale(0.088 -0.088)">
     <defs>
      <path d="M 2375 4863 
L 2375 4384 
L 1825 4384 
Q 1516 4384 1395 4259 
Q 1275 4134 1275 3809 
L 1275 3500 
L 2222 3500 
L 2222 3053 
L 1275 3053 
L 1275 0 
L 697 0 
L 697 3053 
L 147 3053 
L 147 3500 
L 697 3500 
L 697 3744 
Q 697 4328 969 4595 
Q 1241 4863 1831 4863 
L 2375 4863 
z
" id="DejaVuSans-66" transform="scale(0.015625)"/>
      <path d="M 191 3500 
L 800 3500 
L 1894 563 
L 2988 3500 
L 3597 3500 
L 2284 0 
L 1503 0 
L 191 3500 
z
" id="DejaVuSans-76" transform="scale(0.015625)"/>
      <path d="M 3263 -1063 
L 3263 -1509 
L -63 -1509 
L -63 -1063 
L 3263 -1063 
z
" id="DejaVuSans-5f" transform="scale(0.015625)"/>
     </defs>
     <use xlink:href="#DejaVuSans-66"/>
     <use x="35.205078" xlink:href="#DejaVuSans-69"/>
     <use x="62.988281" xlink:href="#DejaVuSans-76"/>
     <use x="122.167969" xlink:href="#DejaVuSans-65"/>
     <use x="183.691406" xlink:href="#DejaVuSans-5f"/>
     <use x="233.691406" xlink:href="#DejaVuSans-6c"/>
     <use x="261.474609" xlink:href="#DejaVuSans-61"/>
     <use x="322.753906" xlink:href="#DejaVuSans-79"/>
     <use x="381.933594" xlink:href="#DejaVuSans-65"/>
     <use x="443.457031" xlink:href="#DejaVuSans-72"/>
     <use x="484.570312" xlink:href="#DejaVuSans-5f"/>
     <use x="534.570312" xlink:href="#DejaVuSans-6e"/>
     <use x="597.949219" xlink:href="#DejaVuSans-65"/>
     <use x="659.472656" xlink:href="#DejaVuSans-74"/>
    </g>
   </g>
   <g id="patch_6">
    <path clip-path="url(#p76415d6fde)" d="M 417.710688 172.876339 
L 433.550687 172.876339 
L 433.550687 157.036339 
L 417.710688 157.036339 
z
" style="fill:#f2f2f2;"/>
   </g>
   <g id="patch_7">
    <path clip-path="url(#p76415d6fde)" d="M 417.710688 168.916339 
L 433.550687 168.916339 
L 433.550687 160.996339 
L 417.710688 160.996339 
z
" style="fill:#999999;opacity:0.4;"/>
   </g>
   <g id="line2d_32">
    <path clip-path="url(#p76415d6fde)" d="M 417.710688 164.956339 
L 433.550687 164.956339 
" style="fill:none;stroke:#57db5f;stroke-width:1.772454;"/>
   </g>
   <g id="text_14">
    <!-- pytorch_lr -->
    <g transform="translate(436.550687 167.262214)scale(0.088 -0.088)">
     <defs>
      <path d="M 3513 2113 
L 3513 0 
L 2938 0 
L 2938 2094 
Q 2938 2591 2744 2837 
Q 2550 3084 2163 3084 
Q 1697 3084 1428 2787 
Q 1159 2491 1159 1978 
L 1159 0 
L 581 0 
L 581 4863 
L 1159 4863 
L 1159 2956 
Q 1366 3272 1645 3428 
Q 1925 3584 2291 3584 
Q 2894 3584 3203 3211 
Q 3513 2838 3513 2113 
z
" id="DejaVuSans-68" transform="scale(0.015625)"/>
     </defs>
     <use xlink:href="#DejaVuSans-70"/>
     <use x="63.476562" xlink:href="#DejaVuSans-79"/>
     <use x="122.65625" xlink:href="#DejaVuSans-74"/>
     <use x="161.865234" xlink:href="#DejaVuSans-6f"/>
     <use x="223.046875" xlink:href="#DejaVuSans-72"/>
     <use x="261.910156" xlink:href="#DejaVuSans-63"/>
     <use x="316.890625" xlink:href="#DejaVuSans-68"/>
     <use x="380.269531" xlink:href="#DejaVuSans-5f"/>
     <use x="430.269531" xlink:href="#DejaVuSans-6c"/>
     <use x="458.052734" xlink:href="#DejaVuSans-72"/>
    </g>
   </g>
   <g id="patch_8">
    <path clip-path="url(#pf40139a8ed)" d="M 417.710688 190.716339 
L 433.550687 190.716339 
L 433.550687 174.876339 
L 417.710688 174.876339 
z
" style="fill:#f2f2f2;"/>
   </g>
   <g id="patch_9">
    <path clip-path="url(#pf40139a8ed)" d="M 417.710688 186.756339 
L 433.550687 186.756339 
L 433.550687 178.836339 
L 417.710688 178.836339 
z
" style="fill:#999999;opacity:0.4;"/>
   </g>
   <g id="line2d_33">
    <path clip-path="url(#pf40139a8ed)" d="M 417.710688 182.796339 
L 433.550687 182.796339 
" style="fill:none;stroke:#5f57db;stroke-width:1.772454;"/>
   </g>
   <g id="text_15">
    <!-- three_layer_net -->
    <g transform="translate(436.550687 185.102214)scale(0.088 -0.088)">
     <use xlink:href="#DejaVuSans-74"/>
     <use x="39.208984" xlink:href="#DejaVuSans-68"/>
     <use x="102.587891" xlink:href="#DejaVuSans-72"/>
     <use x="141.451172" xlink:href="#DejaVuSans-65"/>
     <use x="202.974609" xlink:href="#DejaVuSans-65"/>
     <use x="264.498047" xlink:href="#DejaVuSans-5f"/>
     <use x="314.498047" xlink:href="#DejaVuSans-6c"/>
     <use x="342.28125" xlink:href="#DejaVuSans-61"/>
     <use x="403.560547" xlink:href="#DejaVuSans-79"/>
     <use x="462.740234" xlink:href="#DejaVuSans-65"/>
     <use x="524.263672" xlink:href="#DejaVuSans-72"/>
     <use x="565.376953" xlink:href="#DejaVuSans-5f"/>
     <use x="615.376953" xlink:href="#DejaVuSans-6e"/>
     <use x="678.755859" xlink:href="#DejaVuSans-65"/>
     <use x="740.279297" xlink:href="#DejaVuSans-74"/>
    </g>
   </g>
  </g>
  <g id="text_16">
   <!-- Metadata sex prediction signal removed -->
   <g transform="translate(81.172906 17.229938)scale(0.132 -0.132)">
    <defs>
     <path d="M 3513 3500 
L 2247 1797 
L 3578 0 
L 2900 0 
L 1881 1375 
L 863 0 
L 184 0 
L 1544 1831 
L 300 3500 
L 978 3500 
L 1906 2253 
L 2834 3500 
L 3513 3500 
z
" id="DejaVuSans-78" transform="scale(0.015625)"/>
     <path d="M 2906 1791 
Q 2906 2416 2648 2759 
Q 2391 3103 1925 3103 
Q 1463 3103 1205 2759 
Q 947 2416 947 1791 
Q 947 1169 1205 825 
Q 1463 481 1925 481 
Q 2391 481 2648 825 
Q 2906 1169 2906 1791 
z
M 3481 434 
Q 3481 -459 3084 -895 
Q 2688 -1331 1869 -1331 
Q 1566 -1331 1297 -1286 
Q 1028 -1241 775 -1147 
L 775 -588 
Q 1028 -725 1275 -790 
Q 1522 -856 1778 -856 
Q 2344 -856 2625 -561 
Q 2906 -266 2906 331 
L 2906 616 
Q 2728 306 2450 153 
Q 2172 0 1784 0 
Q 1141 0 747 490 
Q 353 981 353 1791 
Q 353 2603 747 3093 
Q 1141 3584 1784 3584 
Q 2172 3584 2450 3431 
Q 2728 3278 2906 2969 
L 2906 3500 
L 3481 3500 
L 3481 434 
z
" id="DejaVuSans-67" transform="scale(0.015625)"/>
    </defs>
    <use xlink:href="#DejaVuSans-4d"/>
    <use x="86.279297" xlink:href="#DejaVuSans-65"/>
    <use x="147.802734" xlink:href="#DejaVuSans-74"/>
    <use x="187.011719" xlink:href="#DejaVuSans-61"/>
    <use x="248.291016" xlink:href="#DejaVuSans-64"/>
    <use x="311.767578" xlink:href="#DejaVuSans-61"/>
    <use x="373.046875" xlink:href="#DejaVuSans-74"/>
    <use x="412.255859" xlink:href="#DejaVuSans-61"/>
    <use x="473.535156" xlink:href="#DejaVuSans-20"/>
    <use x="505.322266" xlink:href="#DejaVuSans-73"/>
    <use x="557.421875" xlink:href="#DejaVuSans-65"/>
    <use x="617.195312" xlink:href="#DejaVuSans-78"/>
    <use x="676.375" xlink:href="#DejaVuSans-20"/>
    <use x="708.162109" xlink:href="#DejaVuSans-70"/>
    <use x="771.638672" xlink:href="#DejaVuSans-72"/>
    <use x="810.501953" xlink:href="#DejaVuSans-65"/>
    <use x="872.025391" xlink:href="#DejaVuSans-64"/>
    <use x="935.501953" xlink:href="#DejaVuSans-69"/>
    <use x="963.285156" xlink:href="#DejaVuSans-63"/>
    <use x="1018.265625" xlink:href="#DejaVuSans-74"/>
    <use x="1057.474609" xlink:href="#DejaVuSans-69"/>
    <use x="1085.257812" xlink:href="#DejaVuSans-6f"/>
    <use x="1146.439453" xlink:href="#DejaVuSans-6e"/>
    <use x="1209.818359" xlink:href="#DejaVuSans-20"/>
    <use x="1241.605469" xlink:href="#DejaVuSans-73"/>
    <use x="1293.705078" xlink:href="#DejaVuSans-69"/>
    <use x="1321.488281" xlink:href="#DejaVuSans-67"/>
    <use x="1384.964844" xlink:href="#DejaVuSans-6e"/>
    <use x="1448.34375" xlink:href="#DejaVuSans-61"/>
    <use x="1509.623047" xlink:href="#DejaVuSans-6c"/>
    <use x="1537.40625" xlink:href="#DejaVuSans-20"/>
    <use x="1569.193359" xlink:href="#DejaVuSans-72"/>
    <use x="1608.056641" xlink:href="#DejaVuSans-65"/>
    <use x="1669.580078" xlink:href="#DejaVuSans-6d"/>
    <use x="1766.992188" xlink:href="#DejaVuSans-6f"/>
    <use x="1828.173828" xlink:href="#DejaVuSans-76"/>
    <use x="1887.353516" xlink:href="#DejaVuSans-65"/>
    <use x="1948.876953" xlink:href="#DejaVuSans-64"/>
   </g>
  </g>
 </g>
 <defs>
  <clipPath id="p68e10cb3ce">
   <rect height="266.112" width="357.12" x="41.190688" y="26.105371"/>
  </clipPath>
  <clipPath id="p0fb2ceb6af">
   <path d="M 417.710688 155.036339 
L 417.710688 139.196339 
L 433.550687 139.196339 
L 433.550687 155.036339 
"/>
  </clipPath>
  <clipPath id="p76415d6fde">
   <path d="M 417.710688 172.876339 
L 417.710688 157.036339 
L 433.550687 157.036339 
L 433.550687 172.876339 
"/>
  </clipPath>
  <clipPath id="pf40139a8ed">
   <path d="M 417.710688 190.716339 
L 417.710688 174.876339 
L 433.550687 174.876339 
L 433.550687 190.716339 
"/>
  </clipPath>
 </defs>
</svg>
