<?xml version="1.0" encoding="utf-8" standalone="no"?>
<!DOCTYPE svg PUBLIC "-//W3C//DTD SVG 1.1//EN"
  "http://www.w3.org/Graphics/SVG/1.1/DTD/svg11.dtd">
<svg height="342.230058pt" version="1.1" viewBox="0 0 538.846688 342.230058" width="538.846688pt" xmlns="http://www.w3.org/2000/svg" xmlns:xlink="http://www.w3.org/1999/xlink">
 <metadata>
  <rdf:RDF xmlns:cc="http://creativecommons.org/ns#" xmlns:dc="http://purl.org/dc/elements/1.1/" xmlns:rdf="http://www.w3.org/1999/02/22-rdf-syntax-ns#">
   <cc:Work>
    <dc:type rdf:resource="http://purl.org/dc/dcmitype/StillImage"/>
    <dc:date>2022-03-04T11:06:06.926059</dc:date>
    <dc:format>image/svg+xml</dc:format>
    <dc:creator>
     <cc:Agent>
      <dc:title>Matplotlib v3.4.2, https://matplotlib.org/</dc:title>
     </cc:Agent>
    </dc:creator>
   </cc:Work>
  </rdf:RDF>
 </metadata>
 <defs>
  <style type="text/css">*{stroke-linecap:butt;stroke-linejoin:round;}</style>
 </defs>
 <g id="figure_1">
  <g id="patch_1">
   <path d="M 0 342.230058 
L 538.846688 342.230058 
L 538.846688 0 
L 0 0 
z
" style="fill:#ffffff;stroke:#ffffff;stroke-linejoin:miter;"/>
  </g>
  <g id="axes_1">
   <g id="patch_2">
    <path d="M 41.190688 170.941371 
L 156.870688 170.941371 
L 156.870688 40.405371 
L 41.190688 40.405371 
z
" style="fill:#ebebeb;"/>
   </g>
   <g id="matplotlib.axis_1">
    <g id="xtick_1">
     <g id="line2d_1">
      <path clip-path="url(#p61bfdd57cb)" d="M 63.976142 170.941371 
L 63.976142 40.405371 
" style="fill:none;stroke:#ffffff;"/>
     </g>
    </g>
    <g id="xtick_2">
     <g id="line2d_2">
      <path clip-path="url(#p61bfdd57cb)" d="M 93.188263 170.941371 
L 93.188263 40.405371 
" style="fill:none;stroke:#ffffff;"/>
     </g>
    </g>
    <g id="xtick_3">
     <g id="line2d_3">
      <path clip-path="url(#p61bfdd57cb)" d="M 122.400384 170.941371 
L 122.400384 40.405371 
" style="fill:none;stroke:#ffffff;"/>
     </g>
    </g>
    <g id="xtick_4">
     <g id="line2d_4">
      <path clip-path="url(#p61bfdd57cb)" d="M 151.612506 170.941371 
L 151.612506 40.405371 
" style="fill:none;stroke:#ffffff;"/>
     </g>
    </g>
    <g id="xtick_5">
     <g id="line2d_5">
      <path clip-path="url(#p61bfdd57cb)" d="M 49.370081 170.941371 
L 49.370081 40.405371 
" style="fill:none;stroke:#ffffff;stroke-width:0.5;"/>
     </g>
    </g>
    <g id="xtick_6">
     <g id="line2d_6">
      <path clip-path="url(#p61bfdd57cb)" d="M 78.582203 170.941371 
L 78.582203 40.405371 
" style="fill:none;stroke:#ffffff;stroke-width:0.5;"/>
     </g>
    </g>
    <g id="xtick_7">
     <g id="line2d_7">
      <path clip-path="url(#p61bfdd57cb)" d="M 107.794324 170.941371 
L 107.794324 40.405371 
" style="fill:none;stroke:#ffffff;stroke-width:0.5;"/>
     </g>
    </g>
    <g id="xtick_8">
     <g id="line2d_8">
      <path clip-path="url(#p61bfdd57cb)" d="M 137.006445 170.941371 
L 137.006445 40.405371 
" style="fill:none;stroke:#ffffff;stroke-width:0.5;"/>
     </g>
    </g>
   </g>
   <g id="matplotlib.axis_2">
    <g id="ytick_1">
     <g id="line2d_9">
      <path clip-path="url(#p61bfdd57cb)" d="M 41.190688 163.980397 
L 156.870688 163.980397 
" style="fill:none;stroke:#ffffff;"/>
     </g>
     <g id="line2d_10">
      <path d="M 41.190688 163.980397 
" style="fill:none;stroke:#333333;stroke-width:1.5;"/>
      <defs>
       <path d="M 0 0 
L -2.75 0 
" id="m6fbb78756e" style="stroke:#000000;"/>
      </defs>
      <g>
       <use style="fill:#333333;stroke:#000000;" x="41.190688" xlink:href="#m6fbb78756e" y="163.980397"/>
      </g>
     </g>
     <g id="text_1">
      <!-- 0.2 -->
      <g style="fill:#4d4d4d;" transform="translate(22.245938 166.408647)scale(0.088 -0.088)">
       <defs>
        <path d="M 2034 4250 
Q 1547 4250 1301 3770 
Q 1056 3291 1056 2328 
Q 1056 1369 1301 889 
Q 1547 409 2034 409 
Q 2525 409 2770 889 
Q 3016 1369 3016 2328 
Q 3016 3291 2770 3770 
Q 2525 4250 2034 4250 
z
M 2034 4750 
Q 2819 4750 3233 4129 
Q 3647 3509 3647 2328 
Q 3647 1150 3233 529 
Q 2819 -91 2034 -91 
Q 1250 -91 836 529 
Q 422 1150 422 2328 
Q 422 3509 836 4129 
Q 1250 4750 2034 4750 
z
" id="DejaVuSans-30" transform="scale(0.015625)"/>
        <path d="M 684 794 
L 1344 794 
L 1344 0 
L 684 0 
L 684 794 
z
" id="DejaVuSans-2e" transform="scale(0.015625)"/>
        <path d="M 1228 531 
L 3431 531 
L 3431 0 
L 469 0 
L 469 531 
Q 828 903 1448 1529 
Q 2069 2156 2228 2338 
Q 2531 2678 2651 2914 
Q 2772 3150 2772 3378 
Q 2772 3750 2511 3984 
Q 2250 4219 1831 4219 
Q 1534 4219 1204 4116 
Q 875 4013 500 3803 
L 500 4441 
Q 881 4594 1212 4672 
Q 1544 4750 1819 4750 
Q 2544 4750 2975 4387 
Q 3406 4025 3406 3419 
Q 3406 3131 3298 2873 
Q 3191 2616 2906 2266 
Q 2828 2175 2409 1742 
Q 1991 1309 1228 531 
z
" id="DejaVuSans-32" transform="scale(0.015625)"/>
       </defs>
       <use xlink:href="#DejaVuSans-30"/>
       <use x="63.623047" xlink:href="#DejaVuSans-2e"/>
       <use x="95.410156" xlink:href="#DejaVuSans-32"/>
      </g>
     </g>
    </g>
    <g id="ytick_2">
     <g id="line2d_11">
      <path clip-path="url(#p61bfdd57cb)" d="M 41.190688 135.076361 
L 156.870688 135.076361 
" style="fill:none;stroke:#ffffff;"/>
     </g>
     <g id="line2d_12">
      <path d="M 41.190688 135.076361 
" style="fill:none;stroke:#333333;stroke-width:1.5;"/>
      <g>
       <use style="fill:#333333;stroke:#000000;" x="41.190688" xlink:href="#m6fbb78756e" y="135.076361"/>
      </g>
     </g>
     <g id="text_2">
      <!-- 0.4 -->
      <g style="fill:#4d4d4d;" transform="translate(22.245938 137.504611)scale(0.088 -0.088)">
       <defs>
        <path d="M 2419 4116 
L 825 1625 
L 2419 1625 
L 2419 4116 
z
M 2253 4666 
L 3047 4666 
L 3047 1625 
L 3713 1625 
L 3713 1100 
L 3047 1100 
L 3047 0 
L 2419 0 
L 2419 1100 
L 313 1100 
L 313 1709 
L 2253 4666 
z
" id="DejaVuSans-34" transform="scale(0.015625)"/>
       </defs>
       <use xlink:href="#DejaVuSans-30"/>
       <use x="63.623047" xlink:href="#DejaVuSans-2e"/>
       <use x="95.410156" xlink:href="#DejaVuSans-34"/>
      </g>
     </g>
    </g>
    <g id="ytick_3">
     <g id="line2d_13">
      <path clip-path="url(#p61bfdd57cb)" d="M 41.190688 106.172324 
L 156.870688 106.172324 
" style="fill:none;stroke:#ffffff;"/>
     </g>
     <g id="line2d_14">
      <path d="M 41.190688 106.172324 
" style="fill:none;stroke:#333333;stroke-width:1.5;"/>
      <g>
       <use style="fill:#333333;stroke:#000000;" x="41.190688" xlink:href="#m6fbb78756e" y="106.172324"/>
      </g>
     </g>
     <g id="text_3">
      <!-- 0.6 -->
      <g style="fill:#4d4d4d;" transform="translate(22.245938 108.600574)scale(0.088 -0.088)">
       <defs>
        <path d="M 2113 2584 
Q 1688 2584 1439 2293 
Q 1191 2003 1191 1497 
Q 1191 994 1439 701 
Q 1688 409 2113 409 
Q 2538 409 2786 701 
Q 3034 994 3034 1497 
Q 3034 2003 2786 2293 
Q 2538 2584 2113 2584 
z
M 3366 4563 
L 3366 3988 
Q 3128 4100 2886 4159 
Q 2644 4219 2406 4219 
Q 1781 4219 1451 3797 
Q 1122 3375 1075 2522 
Q 1259 2794 1537 2939 
Q 1816 3084 2150 3084 
Q 2853 3084 3261 2657 
Q 3669 2231 3669 1497 
Q 3669 778 3244 343 
Q 2819 -91 2113 -91 
Q 1303 -91 875 529 
Q 447 1150 447 2328 
Q 447 3434 972 4092 
Q 1497 4750 2381 4750 
Q 2619 4750 2861 4703 
Q 3103 4656 3366 4563 
z
" id="DejaVuSans-36" transform="scale(0.015625)"/>
       </defs>
       <use xlink:href="#DejaVuSans-30"/>
       <use x="63.623047" xlink:href="#DejaVuSans-2e"/>
       <use x="95.410156" xlink:href="#DejaVuSans-36"/>
      </g>
     </g>
    </g>
    <g id="ytick_4">
     <g id="line2d_15">
      <path clip-path="url(#p61bfdd57cb)" d="M 41.190688 77.268287 
L 156.870688 77.268287 
" style="fill:none;stroke:#ffffff;"/>
     </g>
     <g id="line2d_16">
      <path d="M 41.190688 77.268287 
" style="fill:none;stroke:#333333;stroke-width:1.5;"/>
      <g>
       <use style="fill:#333333;stroke:#000000;" x="41.190688" xlink:href="#m6fbb78756e" y="77.268287"/>
      </g>
     </g>
     <g id="text_4">
      <!-- 0.8 -->
      <g style="fill:#4d4d4d;" transform="translate(22.245938 79.696537)scale(0.088 -0.088)">
       <defs>
        <path d="M 2034 2216 
Q 1584 2216 1326 1975 
Q 1069 1734 1069 1313 
Q 1069 891 1326 650 
Q 1584 409 2034 409 
Q 2484 409 2743 651 
Q 3003 894 3003 1313 
Q 3003 1734 2745 1975 
Q 2488 2216 2034 2216 
z
M 1403 2484 
Q 997 2584 770 2862 
Q 544 3141 544 3541 
Q 544 4100 942 4425 
Q 1341 4750 2034 4750 
Q 2731 4750 3128 4425 
Q 3525 4100 3525 3541 
Q 3525 3141 3298 2862 
Q 3072 2584 2669 2484 
Q 3125 2378 3379 2068 
Q 3634 1759 3634 1313 
Q 3634 634 3220 271 
Q 2806 -91 2034 -91 
Q 1263 -91 848 271 
Q 434 634 434 1313 
Q 434 1759 690 2068 
Q 947 2378 1403 2484 
z
M 1172 3481 
Q 1172 3119 1398 2916 
Q 1625 2713 2034 2713 
Q 2441 2713 2670 2916 
Q 2900 3119 2900 3481 
Q 2900 3844 2670 4047 
Q 2441 4250 2034 4250 
Q 1625 4250 1398 4047 
Q 1172 3844 1172 3481 
z
" id="DejaVuSans-38" transform="scale(0.015625)"/>
       </defs>
       <use xlink:href="#DejaVuSans-30"/>
       <use x="63.623047" xlink:href="#DejaVuSans-2e"/>
       <use x="95.410156" xlink:href="#DejaVuSans-38"/>
      </g>
     </g>
    </g>
    <g id="ytick_5">
     <g id="line2d_17">
      <path clip-path="url(#p61bfdd57cb)" d="M 41.190688 48.364251 
L 156.870688 48.364251 
" style="fill:none;stroke:#ffffff;"/>
     </g>
     <g id="line2d_18">
      <path d="M 41.190688 48.364251 
" style="fill:none;stroke:#333333;stroke-width:1.5;"/>
      <g>
       <use style="fill:#333333;stroke:#000000;" x="41.190688" xlink:href="#m6fbb78756e" y="48.364251"/>
      </g>
     </g>
     <g id="text_5">
      <!-- 1 -->
      <g style="fill:#4d4d4d;" transform="translate(30.641688 50.792501)scale(0.088 -0.088)">
       <defs>
        <path d="M 794 531 
L 1825 531 
L 1825 4091 
L 703 3866 
L 703 4441 
L 1819 4666 
L 2450 4666 
L 2450 531 
L 3481 531 
L 3481 0 
L 794 0 
L 794 531 
z
" id="DejaVuSans-31" transform="scale(0.015625)"/>
       </defs>
       <use xlink:href="#DejaVuSans-31"/>
      </g>
     </g>
    </g>
    <g id="ytick_6">
     <g id="line2d_19">
      <path clip-path="url(#p61bfdd57cb)" d="M 41.190688 149.528379 
L 156.870688 149.528379 
" style="fill:none;stroke:#ffffff;stroke-width:0.5;"/>
     </g>
    </g>
    <g id="ytick_7">
     <g id="line2d_20">
      <path clip-path="url(#p61bfdd57cb)" d="M 41.190688 120.624342 
L 156.870688 120.624342 
" style="fill:none;stroke:#ffffff;stroke-width:0.5;"/>
     </g>
    </g>
    <g id="ytick_8">
     <g id="line2d_21">
      <path clip-path="url(#p61bfdd57cb)" d="M 41.190688 91.720306 
L 156.870688 91.720306 
" style="fill:none;stroke:#ffffff;stroke-width:0.5;"/>
     </g>
    </g>
    <g id="ytick_9">
     <g id="line2d_22">
      <path clip-path="url(#p61bfdd57cb)" d="M 41.190688 62.816269 
L 156.870688 62.816269 
" style="fill:none;stroke:#ffffff;stroke-width:0.5;"/>
     </g>
    </g>
    <g id="text_6">
     <!-- Balanced Accuracy (Val Set) -->
     <g transform="translate(15.558281 249.074543)rotate(-90)scale(0.11 -0.11)">
      <defs>
       <path d="M 1259 2228 
L 1259 519 
L 2272 519 
Q 2781 519 3026 730 
Q 3272 941 3272 1375 
Q 3272 1813 3026 2020 
Q 2781 2228 2272 2228 
L 1259 2228 
z
M 1259 4147 
L 1259 2741 
L 2194 2741 
Q 2656 2741 2882 2914 
Q 3109 3088 3109 3444 
Q 3109 3797 2882 3972 
Q 2656 4147 2194 4147 
L 1259 4147 
z
M 628 4666 
L 2241 4666 
Q 2963 4666 3353 4366 
Q 3744 4066 3744 3513 
Q 3744 3084 3544 2831 
Q 3344 2578 2956 2516 
Q 3422 2416 3680 2098 
Q 3938 1781 3938 1306 
Q 3938 681 3513 340 
Q 3088 0 2303 0 
L 628 0 
L 628 4666 
z
" id="DejaVuSans-42" transform="scale(0.015625)"/>
       <path d="M 2194 1759 
Q 1497 1759 1228 1600 
Q 959 1441 959 1056 
Q 959 750 1161 570 
Q 1363 391 1709 391 
Q 2188 391 2477 730 
Q 2766 1069 2766 1631 
L 2766 1759 
L 2194 1759 
z
M 3341 1997 
L 3341 0 
L 2766 0 
L 2766 531 
Q 2569 213 2275 61 
Q 1981 -91 1556 -91 
Q 1019 -91 701 211 
Q 384 513 384 1019 
Q 384 1609 779 1909 
Q 1175 2209 1959 2209 
L 2766 2209 
L 2766 2266 
Q 2766 2663 2505 2880 
Q 2244 3097 1772 3097 
Q 1472 3097 1187 3025 
Q 903 2953 641 2809 
L 641 3341 
Q 956 3463 1253 3523 
Q 1550 3584 1831 3584 
Q 2591 3584 2966 3190 
Q 3341 2797 3341 1997 
z
" id="DejaVuSans-61" transform="scale(0.015625)"/>
       <path d="M 603 4863 
L 1178 4863 
L 1178 0 
L 603 0 
L 603 4863 
z
" id="DejaVuSans-6c" transform="scale(0.015625)"/>
       <path d="M 3513 2113 
L 3513 0 
L 2938 0 
L 2938 2094 
Q 2938 2591 2744 2837 
Q 2550 3084 2163 3084 
Q 1697 3084 1428 2787 
Q 1159 2491 1159 1978 
L 1159 0 
L 581 0 
L 581 3500 
L 1159 3500 
L 1159 2956 
Q 1366 3272 1645 3428 
Q 1925 3584 2291 3584 
Q 2894 3584 3203 3211 
Q 3513 2838 3513 2113 
z
" id="DejaVuSans-6e" transform="scale(0.015625)"/>
       <path d="M 3122 3366 
L 3122 2828 
Q 2878 2963 2633 3030 
Q 2388 3097 2138 3097 
Q 1578 3097 1268 2742 
Q 959 2388 959 1747 
Q 959 1106 1268 751 
Q 1578 397 2138 397 
Q 2388 397 2633 464 
Q 2878 531 3122 666 
L 3122 134 
Q 2881 22 2623 -34 
Q 2366 -91 2075 -91 
Q 1284 -91 818 406 
Q 353 903 353 1747 
Q 353 2603 823 3093 
Q 1294 3584 2113 3584 
Q 2378 3584 2631 3529 
Q 2884 3475 3122 3366 
z
" id="DejaVuSans-63" transform="scale(0.015625)"/>
       <path d="M 3597 1894 
L 3597 1613 
L 953 1613 
Q 991 1019 1311 708 
Q 1631 397 2203 397 
Q 2534 397 2845 478 
Q 3156 559 3463 722 
L 3463 178 
Q 3153 47 2828 -22 
Q 2503 -91 2169 -91 
Q 1331 -91 842 396 
Q 353 884 353 1716 
Q 353 2575 817 3079 
Q 1281 3584 2069 3584 
Q 2775 3584 3186 3129 
Q 3597 2675 3597 1894 
z
M 3022 2063 
Q 3016 2534 2758 2815 
Q 2500 3097 2075 3097 
Q 1594 3097 1305 2825 
Q 1016 2553 972 2059 
L 3022 2063 
z
" id="DejaVuSans-65" transform="scale(0.015625)"/>
       <path d="M 2906 2969 
L 2906 4863 
L 3481 4863 
L 3481 0 
L 2906 0 
L 2906 525 
Q 2725 213 2448 61 
Q 2172 -91 1784 -91 
Q 1150 -91 751 415 
Q 353 922 353 1747 
Q 353 2572 751 3078 
Q 1150 3584 1784 3584 
Q 2172 3584 2448 3432 
Q 2725 3281 2906 2969 
z
M 947 1747 
Q 947 1113 1208 752 
Q 1469 391 1925 391 
Q 2381 391 2643 752 
Q 2906 1113 2906 1747 
Q 2906 2381 2643 2742 
Q 2381 3103 1925 3103 
Q 1469 3103 1208 2742 
Q 947 2381 947 1747 
z
" id="DejaVuSans-64" transform="scale(0.015625)"/>
       <path id="DejaVuSans-20" transform="scale(0.015625)"/>
       <path d="M 2188 4044 
L 1331 1722 
L 3047 1722 
L 2188 4044 
z
M 1831 4666 
L 2547 4666 
L 4325 0 
L 3669 0 
L 3244 1197 
L 1141 1197 
L 716 0 
L 50 0 
L 1831 4666 
z
" id="DejaVuSans-41" transform="scale(0.015625)"/>
       <path d="M 544 1381 
L 544 3500 
L 1119 3500 
L 1119 1403 
Q 1119 906 1312 657 
Q 1506 409 1894 409 
Q 2359 409 2629 706 
Q 2900 1003 2900 1516 
L 2900 3500 
L 3475 3500 
L 3475 0 
L 2900 0 
L 2900 538 
Q 2691 219 2414 64 
Q 2138 -91 1772 -91 
Q 1169 -91 856 284 
Q 544 659 544 1381 
z
M 1991 3584 
L 1991 3584 
z
" id="DejaVuSans-75" transform="scale(0.015625)"/>
       <path d="M 2631 2963 
Q 2534 3019 2420 3045 
Q 2306 3072 2169 3072 
Q 1681 3072 1420 2755 
Q 1159 2438 1159 1844 
L 1159 0 
L 581 0 
L 581 3500 
L 1159 3500 
L 1159 2956 
Q 1341 3275 1631 3429 
Q 1922 3584 2338 3584 
Q 2397 3584 2469 3576 
Q 2541 3569 2628 3553 
L 2631 2963 
z
" id="DejaVuSans-72" transform="scale(0.015625)"/>
       <path d="M 2059 -325 
Q 1816 -950 1584 -1140 
Q 1353 -1331 966 -1331 
L 506 -1331 
L 506 -850 
L 844 -850 
Q 1081 -850 1212 -737 
Q 1344 -625 1503 -206 
L 1606 56 
L 191 3500 
L 800 3500 
L 1894 763 
L 2988 3500 
L 3597 3500 
L 2059 -325 
z
" id="DejaVuSans-79" transform="scale(0.015625)"/>
       <path d="M 1984 4856 
Q 1566 4138 1362 3434 
Q 1159 2731 1159 2009 
Q 1159 1288 1364 580 
Q 1569 -128 1984 -844 
L 1484 -844 
Q 1016 -109 783 600 
Q 550 1309 550 2009 
Q 550 2706 781 3412 
Q 1013 4119 1484 4856 
L 1984 4856 
z
" id="DejaVuSans-28" transform="scale(0.015625)"/>
       <path d="M 1831 0 
L 50 4666 
L 709 4666 
L 2188 738 
L 3669 4666 
L 4325 4666 
L 2547 0 
L 1831 0 
z
" id="DejaVuSans-56" transform="scale(0.015625)"/>
       <path d="M 3425 4513 
L 3425 3897 
Q 3066 4069 2747 4153 
Q 2428 4238 2131 4238 
Q 1616 4238 1336 4038 
Q 1056 3838 1056 3469 
Q 1056 3159 1242 3001 
Q 1428 2844 1947 2747 
L 2328 2669 
Q 3034 2534 3370 2195 
Q 3706 1856 3706 1288 
Q 3706 609 3251 259 
Q 2797 -91 1919 -91 
Q 1588 -91 1214 -16 
Q 841 59 441 206 
L 441 856 
Q 825 641 1194 531 
Q 1563 422 1919 422 
Q 2459 422 2753 634 
Q 3047 847 3047 1241 
Q 3047 1584 2836 1778 
Q 2625 1972 2144 2069 
L 1759 2144 
Q 1053 2284 737 2584 
Q 422 2884 422 3419 
Q 422 4038 858 4394 
Q 1294 4750 2059 4750 
Q 2388 4750 2728 4690 
Q 3069 4631 3425 4513 
z
" id="DejaVuSans-53" transform="scale(0.015625)"/>
       <path d="M 1172 4494 
L 1172 3500 
L 2356 3500 
L 2356 3053 
L 1172 3053 
L 1172 1153 
Q 1172 725 1289 603 
Q 1406 481 1766 481 
L 2356 481 
L 2356 0 
L 1766 0 
Q 1100 0 847 248 
Q 594 497 594 1153 
L 594 3053 
L 172 3053 
L 172 3500 
L 594 3500 
L 594 4494 
L 1172 4494 
z
" id="DejaVuSans-74" transform="scale(0.015625)"/>
       <path d="M 513 4856 
L 1013 4856 
Q 1481 4119 1714 3412 
Q 1947 2706 1947 2009 
Q 1947 1309 1714 600 
Q 1481 -109 1013 -844 
L 513 -844 
Q 928 -128 1133 580 
Q 1338 1288 1338 2009 
Q 1338 2731 1133 3434 
Q 928 4138 513 4856 
z
" id="DejaVuSans-29" transform="scale(0.015625)"/>
      </defs>
      <use xlink:href="#DejaVuSans-42"/>
      <use x="68.603516" xlink:href="#DejaVuSans-61"/>
      <use x="129.882812" xlink:href="#DejaVuSans-6c"/>
      <use x="157.666016" xlink:href="#DejaVuSans-61"/>
      <use x="218.945312" xlink:href="#DejaVuSans-6e"/>
      <use x="282.324219" xlink:href="#DejaVuSans-63"/>
      <use x="337.304688" xlink:href="#DejaVuSans-65"/>
      <use x="398.828125" xlink:href="#DejaVuSans-64"/>
      <use x="462.304688" xlink:href="#DejaVuSans-20"/>
      <use x="494.091797" xlink:href="#DejaVuSans-41"/>
      <use x="560.75" xlink:href="#DejaVuSans-63"/>
      <use x="615.730469" xlink:href="#DejaVuSans-63"/>
      <use x="670.710938" xlink:href="#DejaVuSans-75"/>
      <use x="734.089844" xlink:href="#DejaVuSans-72"/>
      <use x="775.203125" xlink:href="#DejaVuSans-61"/>
      <use x="836.482422" xlink:href="#DejaVuSans-63"/>
      <use x="891.462891" xlink:href="#DejaVuSans-79"/>
      <use x="950.642578" xlink:href="#DejaVuSans-20"/>
      <use x="982.429688" xlink:href="#DejaVuSans-28"/>
      <use x="1021.443359" xlink:href="#DejaVuSans-56"/>
      <use x="1082.101562" xlink:href="#DejaVuSans-61"/>
      <use x="1143.380859" xlink:href="#DejaVuSans-6c"/>
      <use x="1171.164062" xlink:href="#DejaVuSans-20"/>
      <use x="1202.951172" xlink:href="#DejaVuSans-53"/>
      <use x="1266.427734" xlink:href="#DejaVuSans-65"/>
      <use x="1327.951172" xlink:href="#DejaVuSans-74"/>
      <use x="1367.160156" xlink:href="#DejaVuSans-29"/>
     </g>
    </g>
   </g>
   <g id="LineCollection_1">
    <path clip-path="url(#p61bfdd57cb)" d="M 41.190688 120.624342 
L 156.870688 120.624342 
" style="fill:none;stroke:#000000;stroke-dasharray:3.27904,1.417963;stroke-dashoffset:0;stroke-width:0.886227;"/>
   </g>
   <g id="PolyCollection_1">
    <path clip-path="url(#p61bfdd57cb)" d="M 46.448869 48.364251 
L 46.448869 48.364251 
L 58.133718 48.364251 
L 69.818566 48.364251 
L 81.503415 48.364251 
L 93.188263 48.364251 
L 104.873112 48.364251 
L 116.55796 48.364251 
L 128.242809 48.364251 
L 139.927657 48.364251 
L 151.612506 48.364251 
L 151.612506 48.364251 
L 151.612506 48.364251 
L 139.927657 48.364251 
L 128.242809 48.364251 
L 116.55796 48.364251 
L 104.873112 48.364251 
L 93.188263 48.364251 
L 81.503415 48.364251 
L 69.818566 48.364251 
L 58.133718 48.364251 
L 46.448869 48.364251 
z
" style="fill:#999999;fill-opacity:0.4;"/>
   </g>
   <g id="PolyCollection_2">
    <path clip-path="url(#p61bfdd57cb)" d="M 46.448869 82.444611 
L 46.448869 85.534595 
L 58.133718 84.237287 
L 69.818566 83.713582 
L 81.503415 83.332717 
L 93.188263 82.967894 
L 104.873112 82.207972 
L 116.55796 81.344478 
L 128.242809 80.783409 
L 139.927657 80.50811 
L 151.612506 81.167473 
L 151.612506 78.076709 
L 151.612506 78.076709 
L 139.927657 78.630397 
L 128.242809 78.834324 
L 116.55796 79.288695 
L 104.873112 80.152189 
L 93.188263 80.912111 
L 81.503415 81.276934 
L 69.818566 81.764496 
L 58.133718 82.359574 
L 46.448869 82.444611 
z
" style="fill:#999999;fill-opacity:0.4;"/>
   </g>
   <g id="PolyCollection_3">
    <path clip-path="url(#p61bfdd57cb)" d="M 46.448869 48.364251 
L 46.448869 48.364251 
L 58.133718 48.364251 
L 69.818566 48.364251 
L 81.503415 48.364251 
L 93.188263 48.364251 
L 104.873112 48.364251 
L 116.55796 48.364251 
L 128.242809 48.364251 
L 139.927657 48.364251 
L 151.612506 48.364251 
L 151.612506 48.364251 
L 151.612506 48.364251 
L 139.927657 48.364251 
L 128.242809 48.364251 
L 116.55796 48.364251 
L 104.873112 48.364251 
L 93.188263 48.364251 
L 81.503415 48.364251 
L 69.818566 48.364251 
L 58.133718 48.364251 
L 46.448869 48.364251 
z
" style="fill:#999999;fill-opacity:0.4;"/>
   </g>
   <g id="line2d_23">
    <path clip-path="url(#p61bfdd57cb)" d="M 46.448869 48.364251 
L 58.133718 48.364251 
L 69.818566 48.364251 
L 81.503415 48.364251 
L 93.188263 48.364251 
L 104.873112 48.364251 
L 116.55796 48.364251 
L 128.242809 48.364251 
L 139.927657 48.364251 
L 151.612506 48.364251 
" style="fill:none;stroke:#db5f57;stroke-linejoin:miter;stroke-width:1.772454;"/>
   </g>
   <g id="line2d_24">
    <path clip-path="url(#p61bfdd57cb)" d="M 46.448869 83.989603 
L 58.133718 83.298431 
L 69.818566 82.739039 
L 81.503415 82.304826 
L 93.188263 81.940003 
L 104.873112 81.18008 
L 116.55796 80.316586 
L 128.242809 79.808866 
L 139.927657 79.569253 
L 151.612506 79.622091 
" style="fill:none;stroke:#57db5f;stroke-linejoin:miter;stroke-width:1.772454;"/>
   </g>
   <g id="line2d_25">
    <path clip-path="url(#p61bfdd57cb)" d="M 46.448869 48.364251 
L 58.133718 48.364251 
L 69.818566 48.364251 
L 81.503415 48.364251 
L 93.188263 48.364251 
L 104.873112 48.364251 
L 116.55796 48.364251 
L 128.242809 48.364251 
L 139.927657 48.364251 
L 151.612506 48.364251 
" style="fill:none;stroke:#5f57db;stroke-linejoin:miter;stroke-width:1.772454;"/>
   </g>
   <g id="patch_3">
    <path d="M 41.190688 40.405371 
L 156.870688 40.405371 
L 156.870688 26.105371 
L 41.190688 26.105371 
z
" style="fill:#d9d9d9;"/>
   </g>
   <g id="text_7">
    <!-- Linear Sim -->
    <g style="fill:#1a1a1a;" transform="translate(75.655687 35.683621)scale(0.088 -0.088)">
     <defs>
      <path d="M 628 4666 
L 1259 4666 
L 1259 531 
L 3531 531 
L 3531 0 
L 628 0 
L 628 4666 
z
" id="DejaVuSans-4c" transform="scale(0.015625)"/>
      <path d="M 603 3500 
L 1178 3500 
L 1178 0 
L 603 0 
L 603 3500 
z
M 603 4863 
L 1178 4863 
L 1178 4134 
L 603 4134 
L 603 4863 
z
" id="DejaVuSans-69" transform="scale(0.015625)"/>
      <path d="M 3328 2828 
Q 3544 3216 3844 3400 
Q 4144 3584 4550 3584 
Q 5097 3584 5394 3201 
Q 5691 2819 5691 2113 
L 5691 0 
L 5113 0 
L 5113 2094 
Q 5113 2597 4934 2840 
Q 4756 3084 4391 3084 
Q 3944 3084 3684 2787 
Q 3425 2491 3425 1978 
L 3425 0 
L 2847 0 
L 2847 2094 
Q 2847 2600 2669 2842 
Q 2491 3084 2119 3084 
Q 1678 3084 1418 2786 
Q 1159 2488 1159 1978 
L 1159 0 
L 581 0 
L 581 3500 
L 1159 3500 
L 1159 2956 
Q 1356 3278 1631 3431 
Q 1906 3584 2284 3584 
Q 2666 3584 2933 3390 
Q 3200 3197 3328 2828 
z
" id="DejaVuSans-6d" transform="scale(0.015625)"/>
     </defs>
     <use xlink:href="#DejaVuSans-4c"/>
     <use x="55.712891" xlink:href="#DejaVuSans-69"/>
     <use x="83.496094" xlink:href="#DejaVuSans-6e"/>
     <use x="146.875" xlink:href="#DejaVuSans-65"/>
     <use x="208.398438" xlink:href="#DejaVuSans-61"/>
     <use x="269.677734" xlink:href="#DejaVuSans-72"/>
     <use x="310.791016" xlink:href="#DejaVuSans-20"/>
     <use x="342.578125" xlink:href="#DejaVuSans-53"/>
     <use x="406.054688" xlink:href="#DejaVuSans-69"/>
     <use x="433.837891" xlink:href="#DejaVuSans-6d"/>
    </g>
   </g>
   <g id="patch_4">
    <path d="M 419.810688 217.216339 
L 531.646688 217.216339 
L 531.646688 126.250402 
L 419.810688 126.250402 
z
" style="fill:#ffffff;"/>
   </g>
   <g id="text_8">
    <!-- Model -->
    <g transform="translate(432.010688 149.843996)scale(0.11 -0.11)">
     <defs>
      <path d="M 628 4666 
L 1569 4666 
L 2759 1491 
L 3956 4666 
L 4897 4666 
L 4897 0 
L 4281 0 
L 4281 4097 
L 3078 897 
L 2444 897 
L 1241 4097 
L 1241 0 
L 628 0 
L 628 4666 
z
" id="DejaVuSans-4d" transform="scale(0.015625)"/>
      <path d="M 1959 3097 
Q 1497 3097 1228 2736 
Q 959 2375 959 1747 
Q 959 1119 1226 758 
Q 1494 397 1959 397 
Q 2419 397 2687 759 
Q 2956 1122 2956 1747 
Q 2956 2369 2687 2733 
Q 2419 3097 1959 3097 
z
M 1959 3584 
Q 2709 3584 3137 3096 
Q 3566 2609 3566 1747 
Q 3566 888 3137 398 
Q 2709 -91 1959 -91 
Q 1206 -91 779 398 
Q 353 888 353 1747 
Q 353 2609 779 3096 
Q 1206 3584 1959 3584 
z
" id="DejaVuSans-6f" transform="scale(0.015625)"/>
     </defs>
     <use xlink:href="#DejaVuSans-4d"/>
     <use x="86.279297" xlink:href="#DejaVuSans-6f"/>
     <use x="147.460938" xlink:href="#DejaVuSans-64"/>
     <use x="210.9375" xlink:href="#DejaVuSans-65"/>
     <use x="272.460938" xlink:href="#DejaVuSans-6c"/>
    </g>
   </g>
   <g id="patch_5">
    <path clip-path="url(#p7a39e23c32)" d="M 432.010688 169.336339 
L 447.850687 169.336339 
L 447.850687 153.496339 
L 432.010688 153.496339 
z
" style="fill:#f2f2f2;"/>
   </g>
   <g id="patch_6">
    <path clip-path="url(#p7a39e23c32)" d="M 432.010688 165.376339 
L 447.850687 165.376339 
L 447.850687 157.456339 
L 432.010688 157.456339 
z
" style="fill:#999999;opacity:0.4;"/>
   </g>
   <g id="line2d_26">
    <path clip-path="url(#p7a39e23c32)" d="M 432.010688 161.416339 
L 447.850687 161.416339 
" style="fill:none;stroke:#db5f57;stroke-width:1.772454;"/>
   </g>
   <g id="text_9">
    <!-- five_layer_net -->
    <g transform="translate(450.850688 163.722214)scale(0.088 -0.088)">
     <defs>
      <path d="M 2375 4863 
L 2375 4384 
L 1825 4384 
Q 1516 4384 1395 4259 
Q 1275 4134 1275 3809 
L 1275 3500 
L 2222 3500 
L 2222 3053 
L 1275 3053 
L 1275 0 
L 697 0 
L 697 3053 
L 147 3053 
L 147 3500 
L 697 3500 
L 697 3744 
Q 697 4328 969 4595 
Q 1241 4863 1831 4863 
L 2375 4863 
z
" id="DejaVuSans-66" transform="scale(0.015625)"/>
      <path d="M 191 3500 
L 800 3500 
L 1894 563 
L 2988 3500 
L 3597 3500 
L 2284 0 
L 1503 0 
L 191 3500 
z
" id="DejaVuSans-76" transform="scale(0.015625)"/>
      <path d="M 3263 -1063 
L 3263 -1509 
L -63 -1509 
L -63 -1063 
L 3263 -1063 
z
" id="DejaVuSans-5f" transform="scale(0.015625)"/>
     </defs>
     <use xlink:href="#DejaVuSans-66"/>
     <use x="35.205078" xlink:href="#DejaVuSans-69"/>
     <use x="62.988281" xlink:href="#DejaVuSans-76"/>
     <use x="122.167969" xlink:href="#DejaVuSans-65"/>
     <use x="183.691406" xlink:href="#DejaVuSans-5f"/>
     <use x="233.691406" xlink:href="#DejaVuSans-6c"/>
     <use x="261.474609" xlink:href="#DejaVuSans-61"/>
     <use x="322.753906" xlink:href="#DejaVuSans-79"/>
     <use x="381.933594" xlink:href="#DejaVuSans-65"/>
     <use x="443.457031" xlink:href="#DejaVuSans-72"/>
     <use x="484.570312" xlink:href="#DejaVuSans-5f"/>
     <use x="534.570312" xlink:href="#DejaVuSans-6e"/>
     <use x="597.949219" xlink:href="#DejaVuSans-65"/>
     <use x="659.472656" xlink:href="#DejaVuSans-74"/>
    </g>
   </g>
   <g id="patch_7">
    <path clip-path="url(#p995926317e)" d="M 432.010688 187.176339 
L 447.850687 187.176339 
L 447.850687 171.336339 
L 432.010688 171.336339 
z
" style="fill:#f2f2f2;"/>
   </g>
   <g id="patch_8">
    <path clip-path="url(#p995926317e)" d="M 432.010688 183.216339 
L 447.850687 183.216339 
L 447.850687 175.296339 
L 432.010688 175.296339 
z
" style="fill:#999999;opacity:0.4;"/>
   </g>
   <g id="line2d_27">
    <path clip-path="url(#p995926317e)" d="M 432.010688 179.256339 
L 447.850687 179.256339 
" style="fill:none;stroke:#57db5f;stroke-width:1.772454;"/>
   </g>
   <g id="text_10">
    <!-- pytorch_lr -->
    <g transform="translate(450.850688 181.562214)scale(0.088 -0.088)">
     <defs>
      <path d="M 1159 525 
L 1159 -1331 
L 581 -1331 
L 581 3500 
L 1159 3500 
L 1159 2969 
Q 1341 3281 1617 3432 
Q 1894 3584 2278 3584 
Q 2916 3584 3314 3078 
Q 3713 2572 3713 1747 
Q 3713 922 3314 415 
Q 2916 -91 2278 -91 
Q 1894 -91 1617 61 
Q 1341 213 1159 525 
z
M 3116 1747 
Q 3116 2381 2855 2742 
Q 2594 3103 2138 3103 
Q 1681 3103 1420 2742 
Q 1159 2381 1159 1747 
Q 1159 1113 1420 752 
Q 1681 391 2138 391 
Q 2594 391 2855 752 
Q 3116 1113 3116 1747 
z
" id="DejaVuSans-70" transform="scale(0.015625)"/>
      <path d="M 3513 2113 
L 3513 0 
L 2938 0 
L 2938 2094 
Q 2938 2591 2744 2837 
Q 2550 3084 2163 3084 
Q 1697 3084 1428 2787 
Q 1159 2491 1159 1978 
L 1159 0 
L 581 0 
L 581 4863 
L 1159 4863 
L 1159 2956 
Q 1366 3272 1645 3428 
Q 1925 3584 2291 3584 
Q 2894 3584 3203 3211 
Q 3513 2838 3513 2113 
z
" id="DejaVuSans-68" transform="scale(0.015625)"/>
     </defs>
     <use xlink:href="#DejaVuSans-70"/>
     <use x="63.476562" xlink:href="#DejaVuSans-79"/>
     <use x="122.65625" xlink:href="#DejaVuSans-74"/>
     <use x="161.865234" xlink:href="#DejaVuSans-6f"/>
     <use x="223.046875" xlink:href="#DejaVuSans-72"/>
     <use x="261.910156" xlink:href="#DejaVuSans-63"/>
     <use x="316.890625" xlink:href="#DejaVuSans-68"/>
     <use x="380.269531" xlink:href="#DejaVuSans-5f"/>
     <use x="430.269531" xlink:href="#DejaVuSans-6c"/>
     <use x="458.052734" xlink:href="#DejaVuSans-72"/>
    </g>
   </g>
   <g id="patch_9">
    <path clip-path="url(#p627f50b8d0)" d="M 432.010688 205.016339 
L 447.850687 205.016339 
L 447.850687 189.176339 
L 432.010688 189.176339 
z
" style="fill:#f2f2f2;"/>
   </g>
   <g id="patch_10">
    <path clip-path="url(#p627f50b8d0)" d="M 432.010688 201.056339 
L 447.850687 201.056339 
L 447.850687 193.136339 
L 432.010688 193.136339 
z
" style="fill:#999999;opacity:0.4;"/>
   </g>
   <g id="line2d_28">
    <path clip-path="url(#p627f50b8d0)" d="M 432.010688 197.096339 
L 447.850687 197.096339 
" style="fill:none;stroke:#5f57db;stroke-width:1.772454;"/>
   </g>
   <g id="text_11">
    <!-- three_layer_net -->
    <g transform="translate(450.850688 199.402214)scale(0.088 -0.088)">
     <use xlink:href="#DejaVuSans-74"/>
     <use x="39.208984" xlink:href="#DejaVuSans-68"/>
     <use x="102.587891" xlink:href="#DejaVuSans-72"/>
     <use x="141.451172" xlink:href="#DejaVuSans-65"/>
     <use x="202.974609" xlink:href="#DejaVuSans-65"/>
     <use x="264.498047" xlink:href="#DejaVuSans-5f"/>
     <use x="314.498047" xlink:href="#DejaVuSans-6c"/>
     <use x="342.28125" xlink:href="#DejaVuSans-61"/>
     <use x="403.560547" xlink:href="#DejaVuSans-79"/>
     <use x="462.740234" xlink:href="#DejaVuSans-65"/>
     <use x="524.263672" xlink:href="#DejaVuSans-72"/>
     <use x="565.376953" xlink:href="#DejaVuSans-5f"/>
     <use x="615.376953" xlink:href="#DejaVuSans-6e"/>
     <use x="678.755859" xlink:href="#DejaVuSans-65"/>
     <use x="740.279297" xlink:href="#DejaVuSans-74"/>
    </g>
   </g>
  </g>
  <g id="axes_2">
   <g id="patch_11">
    <path d="M 161.910687 170.941371 
L 277.590688 170.941371 
L 277.590688 40.405371 
L 161.910687 40.405371 
z
" style="fill:#ebebeb;"/>
   </g>
   <g id="matplotlib.axis_3">
    <g id="xtick_9">
     <g id="line2d_29">
      <path clip-path="url(#pd64545752e)" d="M 184.696142 170.941371 
L 184.696142 40.405371 
" style="fill:none;stroke:#ffffff;stroke-linecap:square;"/>
     </g>
    </g>
    <g id="xtick_10">
     <g id="line2d_30">
      <path clip-path="url(#pd64545752e)" d="M 213.908263 170.941371 
L 213.908263 40.405371 
" style="fill:none;stroke:#ffffff;stroke-linecap:square;"/>
     </g>
    </g>
    <g id="xtick_11">
     <g id="line2d_31">
      <path clip-path="url(#pd64545752e)" d="M 243.120384 170.941371 
L 243.120384 40.405371 
" style="fill:none;stroke:#ffffff;stroke-linecap:square;"/>
     </g>
    </g>
    <g id="xtick_12">
     <g id="line2d_32">
      <path clip-path="url(#pd64545752e)" d="M 272.332506 170.941371 
L 272.332506 40.405371 
" style="fill:none;stroke:#ffffff;stroke-linecap:square;"/>
     </g>
    </g>
    <g id="xtick_13">
     <g id="line2d_33">
      <path clip-path="url(#pd64545752e)" d="M 170.090081 170.941371 
L 170.090081 40.405371 
" style="fill:none;stroke:#ffffff;stroke-linecap:square;stroke-width:0.5;"/>
     </g>
    </g>
    <g id="xtick_14">
     <g id="line2d_34">
      <path clip-path="url(#pd64545752e)" d="M 199.302203 170.941371 
L 199.302203 40.405371 
" style="fill:none;stroke:#ffffff;stroke-linecap:square;stroke-width:0.5;"/>
     </g>
    </g>
    <g id="xtick_15">
     <g id="line2d_35">
      <path clip-path="url(#pd64545752e)" d="M 228.514324 170.941371 
L 228.514324 40.405371 
" style="fill:none;stroke:#ffffff;stroke-linecap:square;stroke-width:0.5;"/>
     </g>
    </g>
    <g id="xtick_16">
     <g id="line2d_36">
      <path clip-path="url(#pd64545752e)" d="M 257.726445 170.941371 
L 257.726445 40.405371 
" style="fill:none;stroke:#ffffff;stroke-linecap:square;stroke-width:0.5;"/>
     </g>
    </g>
   </g>
   <g id="matplotlib.axis_4">
    <g id="ytick_10">
     <g id="line2d_37">
      <path clip-path="url(#pd64545752e)" d="M 161.910687 163.980397 
L 277.590688 163.980397 
" style="fill:none;stroke:#ffffff;stroke-linecap:square;"/>
     </g>
    </g>
    <g id="ytick_11">
     <g id="line2d_38">
      <path clip-path="url(#pd64545752e)" d="M 161.910687 135.076361 
L 277.590688 135.076361 
" style="fill:none;stroke:#ffffff;stroke-linecap:square;"/>
     </g>
    </g>
    <g id="ytick_12">
     <g id="line2d_39">
      <path clip-path="url(#pd64545752e)" d="M 161.910687 106.172324 
L 277.590688 106.172324 
" style="fill:none;stroke:#ffffff;stroke-linecap:square;"/>
     </g>
    </g>
    <g id="ytick_13">
     <g id="line2d_40">
      <path clip-path="url(#pd64545752e)" d="M 161.910687 77.268287 
L 277.590688 77.268287 
" style="fill:none;stroke:#ffffff;stroke-linecap:square;"/>
     </g>
    </g>
    <g id="ytick_14">
     <g id="line2d_41">
      <path clip-path="url(#pd64545752e)" d="M 161.910687 48.364251 
L 277.590688 48.364251 
" style="fill:none;stroke:#ffffff;stroke-linecap:square;"/>
     </g>
    </g>
    <g id="ytick_15">
     <g id="line2d_42">
      <path clip-path="url(#pd64545752e)" d="M 161.910687 149.528379 
L 277.590688 149.528379 
" style="fill:none;stroke:#ffffff;stroke-linecap:square;stroke-width:0.5;"/>
     </g>
    </g>
    <g id="ytick_16">
     <g id="line2d_43">
      <path clip-path="url(#pd64545752e)" d="M 161.910687 120.624342 
L 277.590688 120.624342 
" style="fill:none;stroke:#ffffff;stroke-linecap:square;stroke-width:0.5;"/>
     </g>
    </g>
    <g id="ytick_17">
     <g id="line2d_44">
      <path clip-path="url(#pd64545752e)" d="M 161.910687 91.720306 
L 277.590688 91.720306 
" style="fill:none;stroke:#ffffff;stroke-linecap:square;stroke-width:0.5;"/>
     </g>
    </g>
    <g id="ytick_18">
     <g id="line2d_45">
      <path clip-path="url(#pd64545752e)" d="M 161.910687 62.816269 
L 277.590688 62.816269 
" style="fill:none;stroke:#ffffff;stroke-linecap:square;stroke-width:0.5;"/>
     </g>
    </g>
   </g>
   <g id="LineCollection_2">
    <path clip-path="url(#pd64545752e)" d="M 161.910687 120.624342 
L 277.590688 120.624342 
" style="fill:none;stroke:#000000;stroke-dasharray:3.27904,1.417963;stroke-dashoffset:0;stroke-width:0.886227;"/>
   </g>
   <g id="PolyCollection_4">
    <path clip-path="url(#pd64545752e)" d="M 167.168869 48.364251 
L 167.168869 48.364251 
L 178.853718 48.364251 
L 190.538566 48.364251 
L 202.223415 48.364251 
L 213.908263 48.364251 
L 225.593112 48.364251 
L 237.27796 48.364251 
L 248.962809 48.364251 
L 260.647657 48.364251 
L 272.332506 48.364251 
L 272.332506 48.364251 
L 272.332506 48.364251 
L 260.647657 48.364251 
L 248.962809 48.364251 
L 237.27796 48.364251 
L 225.593112 48.364251 
L 213.908263 48.364251 
L 202.223415 48.364251 
L 190.538566 48.364251 
L 178.853718 48.364251 
L 167.168869 48.364251 
z
" style="fill:#999999;fill-opacity:0.4;"/>
   </g>
   <g id="PolyCollection_5">
    <path clip-path="url(#pd64545752e)" d="M 167.168869 80.909598 
L 167.168869 83.361891 
L 178.853718 83.368252 
L 190.538566 83.585026 
L 202.223415 83.50326 
L 213.908263 82.884788 
L 225.593112 81.938246 
L 237.27796 81.479208 
L 248.962809 81.443667 
L 260.647657 81.451486 
L 272.332506 82.040942 
L 272.332506 79.588031 
L 272.332506 79.588031 
L 260.647657 79.961284 
L 248.962809 79.896822 
L 237.27796 79.847684 
L 225.593112 80.306723 
L 213.908263 81.253264 
L 202.223415 81.871736 
L 190.538566 82.038181 
L 178.853718 81.878049 
L 167.168869 80.909598 
z
" style="fill:#999999;fill-opacity:0.4;"/>
   </g>
   <g id="PolyCollection_6">
    <path clip-path="url(#pd64545752e)" d="M 167.168869 48.364251 
L 167.168869 48.364251 
L 178.853718 48.364251 
L 190.538566 48.364251 
L 202.223415 48.364251 
L 213.908263 48.364251 
L 225.593112 48.364251 
L 237.27796 48.364251 
L 248.962809 48.364251 
L 260.647657 48.364251 
L 272.332506 48.364251 
L 272.332506 48.364251 
L 272.332506 48.364251 
L 260.647657 48.364251 
L 248.962809 48.364251 
L 237.27796 48.364251 
L 225.593112 48.364251 
L 213.908263 48.364251 
L 202.223415 48.364251 
L 190.538566 48.364251 
L 178.853718 48.364251 
L 167.168869 48.364251 
z
" style="fill:#999999;fill-opacity:0.4;"/>
   </g>
   <g id="line2d_46">
    <path clip-path="url(#pd64545752e)" d="M 167.168869 48.364251 
L 178.853718 48.364251 
L 190.538566 48.364251 
L 202.223415 48.364251 
L 213.908263 48.364251 
L 225.593112 48.364251 
L 237.27796 48.364251 
L 248.962809 48.364251 
L 260.647657 48.364251 
L 272.332506 48.364251 
" style="fill:none;stroke:#db5f57;stroke-linejoin:miter;stroke-width:1.772454;"/>
   </g>
   <g id="line2d_47">
    <path clip-path="url(#pd64545752e)" d="M 167.168869 82.135745 
L 178.853718 82.62315 
L 190.538566 82.811604 
L 202.223415 82.687498 
L 213.908263 82.069026 
L 225.593112 81.122484 
L 237.27796 80.663446 
L 248.962809 80.670244 
L 260.647657 80.706385 
L 272.332506 80.814487 
" style="fill:none;stroke:#57db5f;stroke-linejoin:miter;stroke-width:1.772454;"/>
   </g>
   <g id="line2d_48">
    <path clip-path="url(#pd64545752e)" d="M 167.168869 48.364251 
L 178.853718 48.364251 
L 190.538566 48.364251 
L 202.223415 48.364251 
L 213.908263 48.364251 
L 225.593112 48.364251 
L 237.27796 48.364251 
L 248.962809 48.364251 
L 260.647657 48.364251 
L 272.332506 48.364251 
" style="fill:none;stroke:#5f57db;stroke-linejoin:miter;stroke-width:1.772454;"/>
   </g>
   <g id="patch_12">
    <path d="M 161.910687 40.405371 
L 277.590688 40.405371 
L 277.590688 26.105371 
L 161.910687 26.105371 
z
" style="fill:#d9d9d9;"/>
   </g>
   <g id="text_12">
    <!-- Nonlinear Sim -->
    <g style="fill:#1a1a1a;" transform="translate(188.832437 35.683621)scale(0.088 -0.088)">
     <defs>
      <path d="M 628 4666 
L 1478 4666 
L 3547 763 
L 3547 4666 
L 4159 4666 
L 4159 0 
L 3309 0 
L 1241 3903 
L 1241 0 
L 628 0 
L 628 4666 
z
" id="DejaVuSans-4e" transform="scale(0.015625)"/>
     </defs>
     <use xlink:href="#DejaVuSans-4e"/>
     <use x="74.804688" xlink:href="#DejaVuSans-6f"/>
     <use x="135.986328" xlink:href="#DejaVuSans-6e"/>
     <use x="199.365234" xlink:href="#DejaVuSans-6c"/>
     <use x="227.148438" xlink:href="#DejaVuSans-69"/>
     <use x="254.931641" xlink:href="#DejaVuSans-6e"/>
     <use x="318.310547" xlink:href="#DejaVuSans-65"/>
     <use x="379.833984" xlink:href="#DejaVuSans-61"/>
     <use x="441.113281" xlink:href="#DejaVuSans-72"/>
     <use x="482.226562" xlink:href="#DejaVuSans-20"/>
     <use x="514.013672" xlink:href="#DejaVuSans-53"/>
     <use x="577.490234" xlink:href="#DejaVuSans-69"/>
     <use x="605.273438" xlink:href="#DejaVuSans-6d"/>
    </g>
   </g>
  </g>
  <g id="axes_3">
   <g id="patch_13">
    <path d="M 282.630688 170.941371 
L 398.310687 170.941371 
L 398.310687 40.405371 
L 282.630688 40.405371 
z
" style="fill:#ebebeb;"/>
   </g>
   <g id="matplotlib.axis_5">
    <g id="xtick_17">
     <g id="line2d_49">
      <path clip-path="url(#p00cea40cc0)" d="M 305.416142 170.941371 
L 305.416142 40.405371 
" style="fill:none;stroke:#ffffff;stroke-linecap:square;"/>
     </g>
    </g>
    <g id="xtick_18">
     <g id="line2d_50">
      <path clip-path="url(#p00cea40cc0)" d="M 334.628263 170.941371 
L 334.628263 40.405371 
" style="fill:none;stroke:#ffffff;stroke-linecap:square;"/>
     </g>
    </g>
    <g id="xtick_19">
     <g id="line2d_51">
      <path clip-path="url(#p00cea40cc0)" d="M 363.840384 170.941371 
L 363.840384 40.405371 
" style="fill:none;stroke:#ffffff;stroke-linecap:square;"/>
     </g>
    </g>
    <g id="xtick_20">
     <g id="line2d_52">
      <path clip-path="url(#p00cea40cc0)" d="M 393.052506 170.941371 
L 393.052506 40.405371 
" style="fill:none;stroke:#ffffff;stroke-linecap:square;"/>
     </g>
    </g>
    <g id="xtick_21">
     <g id="line2d_53">
      <path clip-path="url(#p00cea40cc0)" d="M 290.810081 170.941371 
L 290.810081 40.405371 
" style="fill:none;stroke:#ffffff;stroke-linecap:square;stroke-width:0.5;"/>
     </g>
    </g>
    <g id="xtick_22">
     <g id="line2d_54">
      <path clip-path="url(#p00cea40cc0)" d="M 320.022203 170.941371 
L 320.022203 40.405371 
" style="fill:none;stroke:#ffffff;stroke-linecap:square;stroke-width:0.5;"/>
     </g>
    </g>
    <g id="xtick_23">
     <g id="line2d_55">
      <path clip-path="url(#p00cea40cc0)" d="M 349.234324 170.941371 
L 349.234324 40.405371 
" style="fill:none;stroke:#ffffff;stroke-linecap:square;stroke-width:0.5;"/>
     </g>
    </g>
    <g id="xtick_24">
     <g id="line2d_56">
      <path clip-path="url(#p00cea40cc0)" d="M 378.446445 170.941371 
L 378.446445 40.405371 
" style="fill:none;stroke:#ffffff;stroke-linecap:square;stroke-width:0.5;"/>
     </g>
    </g>
   </g>
   <g id="matplotlib.axis_6">
    <g id="ytick_19">
     <g id="line2d_57">
      <path clip-path="url(#p00cea40cc0)" d="M 282.630688 163.980397 
L 398.310687 163.980397 
" style="fill:none;stroke:#ffffff;stroke-linecap:square;"/>
     </g>
    </g>
    <g id="ytick_20">
     <g id="line2d_58">
      <path clip-path="url(#p00cea40cc0)" d="M 282.630688 135.076361 
L 398.310687 135.076361 
" style="fill:none;stroke:#ffffff;stroke-linecap:square;"/>
     </g>
    </g>
    <g id="ytick_21">
     <g id="line2d_59">
      <path clip-path="url(#p00cea40cc0)" d="M 282.630688 106.172324 
L 398.310687 106.172324 
" style="fill:none;stroke:#ffffff;stroke-linecap:square;"/>
     </g>
    </g>
    <g id="ytick_22">
     <g id="line2d_60">
      <path clip-path="url(#p00cea40cc0)" d="M 282.630688 77.268287 
L 398.310687 77.268287 
" style="fill:none;stroke:#ffffff;stroke-linecap:square;"/>
     </g>
    </g>
    <g id="ytick_23">
     <g id="line2d_61">
      <path clip-path="url(#p00cea40cc0)" d="M 282.630688 48.364251 
L 398.310687 48.364251 
" style="fill:none;stroke:#ffffff;stroke-linecap:square;"/>
     </g>
    </g>
    <g id="ytick_24">
     <g id="line2d_62">
      <path clip-path="url(#p00cea40cc0)" d="M 282.630688 149.528379 
L 398.310687 149.528379 
" style="fill:none;stroke:#ffffff;stroke-linecap:square;stroke-width:0.5;"/>
     </g>
    </g>
    <g id="ytick_25">
     <g id="line2d_63">
      <path clip-path="url(#p00cea40cc0)" d="M 282.630688 120.624342 
L 398.310687 120.624342 
" style="fill:none;stroke:#ffffff;stroke-linecap:square;stroke-width:0.5;"/>
     </g>
    </g>
    <g id="ytick_26">
     <g id="line2d_64">
      <path clip-path="url(#p00cea40cc0)" d="M 282.630688 91.720306 
L 398.310687 91.720306 
" style="fill:none;stroke:#ffffff;stroke-linecap:square;stroke-width:0.5;"/>
     </g>
    </g>
    <g id="ytick_27">
     <g id="line2d_65">
      <path clip-path="url(#p00cea40cc0)" d="M 282.630688 62.816269 
L 398.310687 62.816269 
" style="fill:none;stroke:#ffffff;stroke-linecap:square;stroke-width:0.5;"/>
     </g>
    </g>
   </g>
   <g id="LineCollection_3">
    <path clip-path="url(#p00cea40cc0)" d="M 282.630688 120.624342 
L 398.310687 120.624342 
" style="fill:none;stroke:#000000;stroke-dasharray:3.27904,1.417963;stroke-dashoffset:0;stroke-width:0.886227;"/>
   </g>
   <g id="PolyCollection_7">
    <path clip-path="url(#p00cea40cc0)" d="M 287.888869 120.716644 
L 287.888869 124.910935 
L 299.573718 124.746546 
L 311.258566 125.115471 
L 322.943415 125.160621 
L 334.628263 124.897353 
L 346.313112 124.397765 
L 357.99796 123.90125 
L 369.682809 123.652804 
L 381.367657 123.514931 
L 393.052506 124.414327 
L 393.052506 120.218977 
L 393.052506 120.218977 
L 381.367657 120.966156 
L 369.682809 121.007149 
L 357.99796 121.110766 
L 346.313112 121.60728 
L 334.628263 122.106869 
L 322.943415 122.370136 
L 311.258566 122.469816 
L 299.573718 122.19777 
L 287.888869 120.716644 
z
" style="fill:#999999;fill-opacity:0.4;"/>
   </g>
   <g id="PolyCollection_8">
    <path clip-path="url(#p00cea40cc0)" d="M 287.888869 120.20502 
L 287.888869 124.248155 
L 299.573718 123.029021 
L 311.258566 122.911674 
L 322.943415 123.089031 
L 334.628263 123.207055 
L 346.313112 122.991038 
L 357.99796 122.77615 
L 369.682809 122.60833 
L 381.367657 122.620552 
L 393.052506 123.602808 
L 393.052506 119.558654 
L 393.052506 119.558654 
L 381.367657 120.163631 
L 369.682809 120.058021 
L 357.99796 120.086231 
L 346.313112 120.301119 
L 334.628263 120.517136 
L 322.943415 120.399112 
L 311.258566 120.361365 
L 299.573718 120.5721 
L 287.888869 120.20502 
z
" style="fill:#999999;fill-opacity:0.4;"/>
   </g>
   <g id="PolyCollection_9">
    <path clip-path="url(#p00cea40cc0)" d="M 287.888869 115.471477 
L 287.888869 120.438226 
L 299.573718 119.304998 
L 311.258566 119.224881 
L 322.943415 119.257077 
L 334.628263 118.87755 
L 346.313112 118.067979 
L 357.99796 118.028712 
L 369.682809 118.460586 
L 381.367657 119.089238 
L 393.052506 120.966451 
L 393.052506 115.99845 
L 393.052506 115.99845 
L 381.367657 116.071058 
L 369.682809 115.327685 
L 357.99796 114.724308 
L 346.313112 114.763575 
L 334.628263 115.573146 
L 322.943415 115.952673 
L 311.258566 116.091979 
L 299.573718 116.286817 
L 287.888869 115.471477 
z
" style="fill:#999999;fill-opacity:0.4;"/>
   </g>
   <g id="line2d_66">
    <path clip-path="url(#p00cea40cc0)" d="M 287.888869 122.813789 
L 299.573718 123.472158 
L 311.258566 123.792644 
L 322.943415 123.765379 
L 334.628263 123.502111 
L 346.313112 123.002523 
L 357.99796 122.506008 
L 369.682809 122.329977 
L 381.367657 122.240543 
L 393.052506 122.316652 
" style="fill:none;stroke:#db5f57;stroke-linejoin:miter;stroke-width:1.772454;"/>
   </g>
   <g id="line2d_67">
    <path clip-path="url(#p00cea40cc0)" d="M 287.888869 122.226587 
L 299.573718 121.800561 
L 311.258566 121.636519 
L 322.943415 121.744071 
L 334.628263 121.862095 
L 346.313112 121.646079 
L 357.99796 121.43119 
L 369.682809 121.333175 
L 381.367657 121.392092 
L 393.052506 121.580731 
" style="fill:none;stroke:#57db5f;stroke-linejoin:miter;stroke-width:1.772454;"/>
   </g>
   <g id="line2d_68">
    <path clip-path="url(#p00cea40cc0)" d="M 287.888869 117.954851 
L 299.573718 117.795908 
L 311.258566 117.65843 
L 322.943415 117.604875 
L 334.628263 117.225348 
L 346.313112 116.415777 
L 357.99796 116.37651 
L 369.682809 116.894136 
L 381.367657 117.580148 
L 393.052506 118.48245 
" style="fill:none;stroke:#5f57db;stroke-linejoin:miter;stroke-width:1.772454;"/>
   </g>
   <g id="patch_14">
    <path d="M 282.630688 40.405371 
L 398.310687 40.405371 
L 398.310687 26.105371 
L 282.630688 26.105371 
z
" style="fill:#d9d9d9;"/>
   </g>
   <g id="patch_15">
    <path d="M 398.310687 170.941371 
L 412.610687 170.941371 
L 412.610687 40.405371 
L 398.310687 40.405371 
z
" style="fill:#d9d9d9;"/>
   </g>
   <g id="text_13">
    <!-- Random Sim -->
    <g style="fill:#1a1a1a;" transform="translate(312.556125 35.683621)scale(0.088 -0.088)">
     <defs>
      <path d="M 2841 2188 
Q 3044 2119 3236 1894 
Q 3428 1669 3622 1275 
L 4263 0 
L 3584 0 
L 2988 1197 
Q 2756 1666 2539 1819 
Q 2322 1972 1947 1972 
L 1259 1972 
L 1259 0 
L 628 0 
L 628 4666 
L 2053 4666 
Q 2853 4666 3247 4331 
Q 3641 3997 3641 3322 
Q 3641 2881 3436 2590 
Q 3231 2300 2841 2188 
z
M 1259 4147 
L 1259 2491 
L 2053 2491 
Q 2509 2491 2742 2702 
Q 2975 2913 2975 3322 
Q 2975 3731 2742 3939 
Q 2509 4147 2053 4147 
L 1259 4147 
z
" id="DejaVuSans-52" transform="scale(0.015625)"/>
     </defs>
     <use xlink:href="#DejaVuSans-52"/>
     <use x="67.232422" xlink:href="#DejaVuSans-61"/>
     <use x="128.511719" xlink:href="#DejaVuSans-6e"/>
     <use x="191.890625" xlink:href="#DejaVuSans-64"/>
     <use x="255.367188" xlink:href="#DejaVuSans-6f"/>
     <use x="316.548828" xlink:href="#DejaVuSans-6d"/>
     <use x="413.960938" xlink:href="#DejaVuSans-20"/>
     <use x="445.748047" xlink:href="#DejaVuSans-53"/>
     <use x="509.224609" xlink:href="#DejaVuSans-69"/>
     <use x="537.007812" xlink:href="#DejaVuSans-6d"/>
    </g>
   </g>
   <g id="text_14">
    <!-- Full Signal -->
    <g style="fill:#1a1a1a;" transform="translate(403.032437 83.236808)rotate(-270)scale(0.088 -0.088)">
     <defs>
      <path d="M 628 4666 
L 3309 4666 
L 3309 4134 
L 1259 4134 
L 1259 2759 
L 3109 2759 
L 3109 2228 
L 1259 2228 
L 1259 0 
L 628 0 
L 628 4666 
z
" id="DejaVuSans-46" transform="scale(0.015625)"/>
      <path d="M 2906 1791 
Q 2906 2416 2648 2759 
Q 2391 3103 1925 3103 
Q 1463 3103 1205 2759 
Q 947 2416 947 1791 
Q 947 1169 1205 825 
Q 1463 481 1925 481 
Q 2391 481 2648 825 
Q 2906 1169 2906 1791 
z
M 3481 434 
Q 3481 -459 3084 -895 
Q 2688 -1331 1869 -1331 
Q 1566 -1331 1297 -1286 
Q 1028 -1241 775 -1147 
L 775 -588 
Q 1028 -725 1275 -790 
Q 1522 -856 1778 -856 
Q 2344 -856 2625 -561 
Q 2906 -266 2906 331 
L 2906 616 
Q 2728 306 2450 153 
Q 2172 0 1784 0 
Q 1141 0 747 490 
Q 353 981 353 1791 
Q 353 2603 747 3093 
Q 1141 3584 1784 3584 
Q 2172 3584 2450 3431 
Q 2728 3278 2906 2969 
L 2906 3500 
L 3481 3500 
L 3481 434 
z
" id="DejaVuSans-67" transform="scale(0.015625)"/>
     </defs>
     <use xlink:href="#DejaVuSans-46"/>
     <use x="52.019531" xlink:href="#DejaVuSans-75"/>
     <use x="115.398438" xlink:href="#DejaVuSans-6c"/>
     <use x="143.181641" xlink:href="#DejaVuSans-6c"/>
     <use x="170.964844" xlink:href="#DejaVuSans-20"/>
     <use x="202.751953" xlink:href="#DejaVuSans-53"/>
     <use x="266.228516" xlink:href="#DejaVuSans-69"/>
     <use x="294.011719" xlink:href="#DejaVuSans-67"/>
     <use x="357.488281" xlink:href="#DejaVuSans-6e"/>
     <use x="420.867188" xlink:href="#DejaVuSans-61"/>
     <use x="482.146484" xlink:href="#DejaVuSans-6c"/>
    </g>
   </g>
  </g>
  <g id="axes_4">
   <g id="patch_16">
    <path d="M 41.190688 306.517371 
L 156.870688 306.517371 
L 156.870688 175.981371 
L 41.190688 175.981371 
z
" style="fill:#ebebeb;"/>
   </g>
   <g id="matplotlib.axis_7">
    <g id="xtick_25">
     <g id="line2d_69">
      <path clip-path="url(#p2ec600ff65)" d="M 63.976142 306.517371 
L 63.976142 175.981371 
" style="fill:none;stroke:#ffffff;stroke-linecap:square;"/>
     </g>
     <g id="line2d_70">
      <path d="M 63.976142 306.517371 
" style="fill:none;stroke:#333333;stroke-linecap:square;stroke-width:1.5;"/>
      <defs>
       <path d="M 0 0 
L 0 2.75 
" id="m475d41ce1a" style="stroke:#000000;"/>
      </defs>
      <g>
       <use style="fill:#333333;stroke:#000000;" x="63.976142" xlink:href="#m475d41ce1a" y="306.517371"/>
      </g>
     </g>
     <g id="text_15">
      <!-- 200 -->
      <g style="fill:#4d4d4d;" transform="translate(55.577642 318.153996)scale(0.088 -0.088)">
       <use xlink:href="#DejaVuSans-32"/>
       <use x="63.623047" xlink:href="#DejaVuSans-30"/>
       <use x="127.246094" xlink:href="#DejaVuSans-30"/>
      </g>
     </g>
    </g>
    <g id="xtick_26">
     <g id="line2d_71">
      <path clip-path="url(#p2ec600ff65)" d="M 93.188263 306.517371 
L 93.188263 175.981371 
" style="fill:none;stroke:#ffffff;stroke-linecap:square;"/>
     </g>
     <g id="line2d_72">
      <path d="M 93.188263 306.517371 
" style="fill:none;stroke:#333333;stroke-linecap:square;stroke-width:1.5;"/>
      <g>
       <use style="fill:#333333;stroke:#000000;" x="93.188263" xlink:href="#m475d41ce1a" y="306.517371"/>
      </g>
     </g>
     <g id="text_16">
      <!-- 400 -->
      <g style="fill:#4d4d4d;" transform="translate(84.789763 318.153996)scale(0.088 -0.088)">
       <use xlink:href="#DejaVuSans-34"/>
       <use x="63.623047" xlink:href="#DejaVuSans-30"/>
       <use x="127.246094" xlink:href="#DejaVuSans-30"/>
      </g>
     </g>
    </g>
    <g id="xtick_27">
     <g id="line2d_73">
      <path clip-path="url(#p2ec600ff65)" d="M 122.400384 306.517371 
L 122.400384 175.981371 
" style="fill:none;stroke:#ffffff;stroke-linecap:square;"/>
     </g>
     <g id="line2d_74">
      <path d="M 122.400384 306.517371 
" style="fill:none;stroke:#333333;stroke-linecap:square;stroke-width:1.5;"/>
      <g>
       <use style="fill:#333333;stroke:#000000;" x="122.400384" xlink:href="#m475d41ce1a" y="306.517371"/>
      </g>
     </g>
     <g id="text_17">
      <!-- 600 -->
      <g style="fill:#4d4d4d;" transform="translate(114.001884 318.153996)scale(0.088 -0.088)">
       <use xlink:href="#DejaVuSans-36"/>
       <use x="63.623047" xlink:href="#DejaVuSans-30"/>
       <use x="127.246094" xlink:href="#DejaVuSans-30"/>
      </g>
     </g>
    </g>
    <g id="xtick_28">
     <g id="line2d_75">
      <path clip-path="url(#p2ec600ff65)" d="M 151.612506 306.517371 
L 151.612506 175.981371 
" style="fill:none;stroke:#ffffff;stroke-linecap:square;"/>
     </g>
     <g id="line2d_76">
      <path d="M 151.612506 306.517371 
" style="fill:none;stroke:#333333;stroke-linecap:square;stroke-width:1.5;"/>
      <g>
       <use style="fill:#333333;stroke:#000000;" x="151.612506" xlink:href="#m475d41ce1a" y="306.517371"/>
      </g>
     </g>
     <g id="text_18">
      <!-- 800 -->
      <g style="fill:#4d4d4d;" transform="translate(143.214006 318.153996)scale(0.088 -0.088)">
       <use xlink:href="#DejaVuSans-38"/>
       <use x="63.623047" xlink:href="#DejaVuSans-30"/>
       <use x="127.246094" xlink:href="#DejaVuSans-30"/>
      </g>
     </g>
    </g>
    <g id="xtick_29">
     <g id="line2d_77">
      <path clip-path="url(#p2ec600ff65)" d="M 49.370081 306.517371 
L 49.370081 175.981371 
" style="fill:none;stroke:#ffffff;stroke-linecap:square;stroke-width:0.5;"/>
     </g>
    </g>
    <g id="xtick_30">
     <g id="line2d_78">
      <path clip-path="url(#p2ec600ff65)" d="M 78.582203 306.517371 
L 78.582203 175.981371 
" style="fill:none;stroke:#ffffff;stroke-linecap:square;stroke-width:0.5;"/>
     </g>
    </g>
    <g id="xtick_31">
     <g id="line2d_79">
      <path clip-path="url(#p2ec600ff65)" d="M 107.794324 306.517371 
L 107.794324 175.981371 
" style="fill:none;stroke:#ffffff;stroke-linecap:square;stroke-width:0.5;"/>
     </g>
    </g>
    <g id="xtick_32">
     <g id="line2d_80">
      <path clip-path="url(#p2ec600ff65)" d="M 137.006445 306.517371 
L 137.006445 175.981371 
" style="fill:none;stroke:#ffffff;stroke-linecap:square;stroke-width:0.5;"/>
     </g>
    </g>
   </g>
   <g id="matplotlib.axis_8">
    <g id="ytick_28">
     <g id="line2d_81">
      <path clip-path="url(#p2ec600ff65)" d="M 41.190688 299.556397 
L 156.870688 299.556397 
" style="fill:none;stroke:#ffffff;stroke-linecap:square;"/>
     </g>
     <g id="line2d_82">
      <path d="M 41.190688 299.556397 
" style="fill:none;stroke:#333333;stroke-linecap:square;stroke-width:1.5;"/>
      <g>
       <use style="fill:#333333;stroke:#000000;" x="41.190688" xlink:href="#m6fbb78756e" y="299.556397"/>
      </g>
     </g>
     <g id="text_19">
      <!-- 0.2 -->
      <g style="fill:#4d4d4d;" transform="translate(22.245938 301.984647)scale(0.088 -0.088)">
       <use xlink:href="#DejaVuSans-30"/>
       <use x="63.623047" xlink:href="#DejaVuSans-2e"/>
       <use x="95.410156" xlink:href="#DejaVuSans-32"/>
      </g>
     </g>
    </g>
    <g id="ytick_29">
     <g id="line2d_83">
      <path clip-path="url(#p2ec600ff65)" d="M 41.190688 270.652361 
L 156.870688 270.652361 
" style="fill:none;stroke:#ffffff;stroke-linecap:square;"/>
     </g>
     <g id="line2d_84">
      <path d="M 41.190688 270.652361 
" style="fill:none;stroke:#333333;stroke-linecap:square;stroke-width:1.5;"/>
      <g>
       <use style="fill:#333333;stroke:#000000;" x="41.190688" xlink:href="#m6fbb78756e" y="270.652361"/>
      </g>
     </g>
     <g id="text_20">
      <!-- 0.4 -->
      <g style="fill:#4d4d4d;" transform="translate(22.245938 273.080611)scale(0.088 -0.088)">
       <use xlink:href="#DejaVuSans-30"/>
       <use x="63.623047" xlink:href="#DejaVuSans-2e"/>
       <use x="95.410156" xlink:href="#DejaVuSans-34"/>
      </g>
     </g>
    </g>
    <g id="ytick_30">
     <g id="line2d_85">
      <path clip-path="url(#p2ec600ff65)" d="M 41.190688 241.748324 
L 156.870688 241.748324 
" style="fill:none;stroke:#ffffff;stroke-linecap:square;"/>
     </g>
     <g id="line2d_86">
      <path d="M 41.190688 241.748324 
" style="fill:none;stroke:#333333;stroke-linecap:square;stroke-width:1.5;"/>
      <g>
       <use style="fill:#333333;stroke:#000000;" x="41.190688" xlink:href="#m6fbb78756e" y="241.748324"/>
      </g>
     </g>
     <g id="text_21">
      <!-- 0.6 -->
      <g style="fill:#4d4d4d;" transform="translate(22.245938 244.176574)scale(0.088 -0.088)">
       <use xlink:href="#DejaVuSans-30"/>
       <use x="63.623047" xlink:href="#DejaVuSans-2e"/>
       <use x="95.410156" xlink:href="#DejaVuSans-36"/>
      </g>
     </g>
    </g>
    <g id="ytick_31">
     <g id="line2d_87">
      <path clip-path="url(#p2ec600ff65)" d="M 41.190688 212.844287 
L 156.870688 212.844287 
" style="fill:none;stroke:#ffffff;stroke-linecap:square;"/>
     </g>
     <g id="line2d_88">
      <path d="M 41.190688 212.844287 
" style="fill:none;stroke:#333333;stroke-linecap:square;stroke-width:1.5;"/>
      <g>
       <use style="fill:#333333;stroke:#000000;" x="41.190688" xlink:href="#m6fbb78756e" y="212.844287"/>
      </g>
     </g>
     <g id="text_22">
      <!-- 0.8 -->
      <g style="fill:#4d4d4d;" transform="translate(22.245938 215.272537)scale(0.088 -0.088)">
       <use xlink:href="#DejaVuSans-30"/>
       <use x="63.623047" xlink:href="#DejaVuSans-2e"/>
       <use x="95.410156" xlink:href="#DejaVuSans-38"/>
      </g>
     </g>
    </g>
    <g id="ytick_32">
     <g id="line2d_89">
      <path clip-path="url(#p2ec600ff65)" d="M 41.190688 183.940251 
L 156.870688 183.940251 
" style="fill:none;stroke:#ffffff;stroke-linecap:square;"/>
     </g>
     <g id="line2d_90">
      <path d="M 41.190688 183.940251 
" style="fill:none;stroke:#333333;stroke-linecap:square;stroke-width:1.5;"/>
      <g>
       <use style="fill:#333333;stroke:#000000;" x="41.190688" xlink:href="#m6fbb78756e" y="183.940251"/>
      </g>
     </g>
     <g id="text_23">
      <!-- 1 -->
      <g style="fill:#4d4d4d;" transform="translate(30.641688 186.368501)scale(0.088 -0.088)">
       <use xlink:href="#DejaVuSans-31"/>
      </g>
     </g>
    </g>
    <g id="ytick_33">
     <g id="line2d_91">
      <path clip-path="url(#p2ec600ff65)" d="M 41.190688 285.104379 
L 156.870688 285.104379 
" style="fill:none;stroke:#ffffff;stroke-linecap:square;stroke-width:0.5;"/>
     </g>
    </g>
    <g id="ytick_34">
     <g id="line2d_92">
      <path clip-path="url(#p2ec600ff65)" d="M 41.190688 256.200342 
L 156.870688 256.200342 
" style="fill:none;stroke:#ffffff;stroke-linecap:square;stroke-width:0.5;"/>
     </g>
    </g>
    <g id="ytick_35">
     <g id="line2d_93">
      <path clip-path="url(#p2ec600ff65)" d="M 41.190688 227.296306 
L 156.870688 227.296306 
" style="fill:none;stroke:#ffffff;stroke-linecap:square;stroke-width:0.5;"/>
     </g>
    </g>
    <g id="ytick_36">
     <g id="line2d_94">
      <path clip-path="url(#p2ec600ff65)" d="M 41.190688 198.392269 
L 156.870688 198.392269 
" style="fill:none;stroke:#ffffff;stroke-linecap:square;stroke-width:0.5;"/>
     </g>
    </g>
   </g>
   <g id="LineCollection_4">
    <path clip-path="url(#p2ec600ff65)" d="M 41.190688 256.200342 
L 156.870688 256.200342 
" style="fill:none;stroke:#000000;stroke-dasharray:3.27904,1.417963;stroke-dashoffset:0;stroke-width:0.886227;"/>
   </g>
   <g id="PolyCollection_10">
    <path clip-path="url(#p2ec600ff65)" d="M 46.448869 255.08072 
L 46.448869 258.667143 
L 58.133718 256.736941 
L 69.818566 255.941348 
L 81.503415 255.567727 
L 93.188263 255.612685 
L 104.873112 256.101755 
L 116.55796 256.812522 
L 128.242809 257.005182 
L 139.927657 256.903724 
L 151.612506 257.227758 
L 151.612506 253.640431 
L 151.612506 253.640431 
L 139.927657 254.724336 
L 128.242809 254.742955 
L 116.55796 254.426456 
L 104.873112 253.715689 
L 93.188263 253.226618 
L 81.503415 253.181661 
L 69.818566 253.679122 
L 58.133718 254.557553 
L 46.448869 255.08072 
z
" style="fill:#999999;fill-opacity:0.4;"/>
   </g>
   <g id="PolyCollection_11">
    <path clip-path="url(#p2ec600ff65)" d="M 46.448869 256.535013 
L 46.448869 263.166476 
L 58.133718 263.992623 
L 69.818566 265.43545 
L 81.503415 266.168575 
L 93.188263 266.232631 
L 104.873112 267.339486 
L 116.55796 269.078212 
L 128.242809 269.849177 
L 139.927657 269.705058 
L 151.612506 269.914313 
L 151.612506 263.281178 
L 151.612506 263.281178 
L 139.927657 265.675268 
L 128.242809 265.666215 
L 116.55796 264.666264 
L 104.873112 262.927539 
L 93.188263 261.820684 
L 81.503415 261.756628 
L 69.818566 261.252488 
L 58.133718 259.962833 
L 46.448869 256.535013 
z
" style="fill:#999999;fill-opacity:0.4;"/>
   </g>
   <g id="PolyCollection_12">
    <path clip-path="url(#p2ec600ff65)" d="M 46.448869 255.781334 
L 46.448869 259.347651 
L 58.133718 259.429129 
L 69.818566 260.135201 
L 81.503415 260.780812 
L 93.188263 260.792535 
L 104.873112 260.349578 
L 116.55796 259.851242 
L 128.242809 259.540285 
L 139.927657 259.575593 
L 151.612506 260.614741 
L 151.612506 257.047524 
L 151.612506 257.047524 
L 139.927657 257.408423 
L 128.242809 257.290741 
L 116.55796 257.478552 
L 104.873112 257.976888 
L 93.188263 258.419845 
L 81.503415 258.408123 
L 69.818566 257.885657 
L 58.133718 257.261959 
L 46.448869 255.781334 
z
" style="fill:#999999;fill-opacity:0.4;"/>
   </g>
   <g id="line2d_95">
    <path clip-path="url(#p2ec600ff65)" d="M 46.448869 256.873931 
L 58.133718 255.647247 
L 69.818566 254.810235 
L 81.503415 254.374694 
L 93.188263 254.419651 
L 104.873112 254.908722 
L 116.55796 255.619489 
L 128.242809 255.874068 
L 139.927657 255.81403 
L 151.612506 255.434094 
" style="fill:none;stroke:#db5f57;stroke-linejoin:miter;stroke-width:1.772454;"/>
   </g>
   <g id="line2d_96">
    <path clip-path="url(#p2ec600ff65)" d="M 46.448869 259.850744 
L 58.133718 261.977728 
L 69.818566 263.343969 
L 81.503415 263.962601 
L 93.188263 264.026658 
L 104.873112 265.133512 
L 116.55796 266.872238 
L 128.242809 267.757696 
L 139.927657 267.690163 
L 151.612506 266.597746 
" style="fill:none;stroke:#57db5f;stroke-linejoin:miter;stroke-width:1.772454;"/>
   </g>
   <g id="line2d_97">
    <path clip-path="url(#p2ec600ff65)" d="M 46.448869 257.564492 
L 58.133718 258.345544 
L 69.818566 259.010429 
L 81.503415 259.594468 
L 93.188263 259.60619 
L 104.873112 259.163233 
L 116.55796 258.664897 
L 128.242809 258.415513 
L 139.927657 258.492008 
L 151.612506 258.831132 
" style="fill:none;stroke:#5f57db;stroke-linejoin:miter;stroke-width:1.772454;"/>
   </g>
  </g>
  <g id="axes_5">
   <g id="patch_17">
    <path d="M 161.910687 306.517371 
L 277.590688 306.517371 
L 277.590688 175.981371 
L 161.910687 175.981371 
z
" style="fill:#ebebeb;"/>
   </g>
   <g id="matplotlib.axis_9">
    <g id="xtick_33">
     <g id="line2d_98">
      <path clip-path="url(#p6f30344b55)" d="M 184.696142 306.517371 
L 184.696142 175.981371 
" style="fill:none;stroke:#ffffff;stroke-linecap:square;"/>
     </g>
     <g id="line2d_99">
      <path d="M 184.696142 306.517371 
" style="fill:none;stroke:#333333;stroke-linecap:square;stroke-width:1.5;"/>
      <g>
       <use style="fill:#333333;stroke:#000000;" x="184.696142" xlink:href="#m475d41ce1a" y="306.517371"/>
      </g>
     </g>
     <g id="text_24">
      <!-- 200 -->
      <g style="fill:#4d4d4d;" transform="translate(176.297642 318.153996)scale(0.088 -0.088)">
       <use xlink:href="#DejaVuSans-32"/>
       <use x="63.623047" xlink:href="#DejaVuSans-30"/>
       <use x="127.246094" xlink:href="#DejaVuSans-30"/>
      </g>
     </g>
    </g>
    <g id="xtick_34">
     <g id="line2d_100">
      <path clip-path="url(#p6f30344b55)" d="M 213.908263 306.517371 
L 213.908263 175.981371 
" style="fill:none;stroke:#ffffff;stroke-linecap:square;"/>
     </g>
     <g id="line2d_101">
      <path d="M 213.908263 306.517371 
" style="fill:none;stroke:#333333;stroke-linecap:square;stroke-width:1.5;"/>
      <g>
       <use style="fill:#333333;stroke:#000000;" x="213.908263" xlink:href="#m475d41ce1a" y="306.517371"/>
      </g>
     </g>
     <g id="text_25">
      <!-- 400 -->
      <g style="fill:#4d4d4d;" transform="translate(205.509763 318.153996)scale(0.088 -0.088)">
       <use xlink:href="#DejaVuSans-34"/>
       <use x="63.623047" xlink:href="#DejaVuSans-30"/>
       <use x="127.246094" xlink:href="#DejaVuSans-30"/>
      </g>
     </g>
    </g>
    <g id="xtick_35">
     <g id="line2d_102">
      <path clip-path="url(#p6f30344b55)" d="M 243.120384 306.517371 
L 243.120384 175.981371 
" style="fill:none;stroke:#ffffff;stroke-linecap:square;"/>
     </g>
     <g id="line2d_103">
      <path d="M 243.120384 306.517371 
" style="fill:none;stroke:#333333;stroke-linecap:square;stroke-width:1.5;"/>
      <g>
       <use style="fill:#333333;stroke:#000000;" x="243.120384" xlink:href="#m475d41ce1a" y="306.517371"/>
      </g>
     </g>
     <g id="text_26">
      <!-- 600 -->
      <g style="fill:#4d4d4d;" transform="translate(234.721884 318.153996)scale(0.088 -0.088)">
       <use xlink:href="#DejaVuSans-36"/>
       <use x="63.623047" xlink:href="#DejaVuSans-30"/>
       <use x="127.246094" xlink:href="#DejaVuSans-30"/>
      </g>
     </g>
    </g>
    <g id="xtick_36">
     <g id="line2d_104">
      <path clip-path="url(#p6f30344b55)" d="M 272.332506 306.517371 
L 272.332506 175.981371 
" style="fill:none;stroke:#ffffff;stroke-linecap:square;"/>
     </g>
     <g id="line2d_105">
      <path d="M 272.332506 306.517371 
" style="fill:none;stroke:#333333;stroke-linecap:square;stroke-width:1.5;"/>
      <g>
       <use style="fill:#333333;stroke:#000000;" x="272.332506" xlink:href="#m475d41ce1a" y="306.517371"/>
      </g>
     </g>
     <g id="text_27">
      <!-- 800 -->
      <g style="fill:#4d4d4d;" transform="translate(263.934006 318.153996)scale(0.088 -0.088)">
       <use xlink:href="#DejaVuSans-38"/>
       <use x="63.623047" xlink:href="#DejaVuSans-30"/>
       <use x="127.246094" xlink:href="#DejaVuSans-30"/>
      </g>
     </g>
    </g>
    <g id="xtick_37">
     <g id="line2d_106">
      <path clip-path="url(#p6f30344b55)" d="M 170.090081 306.517371 
L 170.090081 175.981371 
" style="fill:none;stroke:#ffffff;stroke-linecap:square;stroke-width:0.5;"/>
     </g>
    </g>
    <g id="xtick_38">
     <g id="line2d_107">
      <path clip-path="url(#p6f30344b55)" d="M 199.302203 306.517371 
L 199.302203 175.981371 
" style="fill:none;stroke:#ffffff;stroke-linecap:square;stroke-width:0.5;"/>
     </g>
    </g>
    <g id="xtick_39">
     <g id="line2d_108">
      <path clip-path="url(#p6f30344b55)" d="M 228.514324 306.517371 
L 228.514324 175.981371 
" style="fill:none;stroke:#ffffff;stroke-linecap:square;stroke-width:0.5;"/>
     </g>
    </g>
    <g id="xtick_40">
     <g id="line2d_109">
      <path clip-path="url(#p6f30344b55)" d="M 257.726445 306.517371 
L 257.726445 175.981371 
" style="fill:none;stroke:#ffffff;stroke-linecap:square;stroke-width:0.5;"/>
     </g>
    </g>
   </g>
   <g id="matplotlib.axis_10">
    <g id="ytick_37">
     <g id="line2d_110">
      <path clip-path="url(#p6f30344b55)" d="M 161.910687 299.556397 
L 277.590688 299.556397 
" style="fill:none;stroke:#ffffff;stroke-linecap:square;"/>
     </g>
    </g>
    <g id="ytick_38">
     <g id="line2d_111">
      <path clip-path="url(#p6f30344b55)" d="M 161.910687 270.652361 
L 277.590688 270.652361 
" style="fill:none;stroke:#ffffff;stroke-linecap:square;"/>
     </g>
    </g>
    <g id="ytick_39">
     <g id="line2d_112">
      <path clip-path="url(#p6f30344b55)" d="M 161.910687 241.748324 
L 277.590688 241.748324 
" style="fill:none;stroke:#ffffff;stroke-linecap:square;"/>
     </g>
    </g>
    <g id="ytick_40">
     <g id="line2d_113">
      <path clip-path="url(#p6f30344b55)" d="M 161.910687 212.844287 
L 277.590688 212.844287 
" style="fill:none;stroke:#ffffff;stroke-linecap:square;"/>
     </g>
    </g>
    <g id="ytick_41">
     <g id="line2d_114">
      <path clip-path="url(#p6f30344b55)" d="M 161.910687 183.940251 
L 277.590688 183.940251 
" style="fill:none;stroke:#ffffff;stroke-linecap:square;"/>
     </g>
    </g>
    <g id="ytick_42">
     <g id="line2d_115">
      <path clip-path="url(#p6f30344b55)" d="M 161.910687 285.104379 
L 277.590688 285.104379 
" style="fill:none;stroke:#ffffff;stroke-linecap:square;stroke-width:0.5;"/>
     </g>
    </g>
    <g id="ytick_43">
     <g id="line2d_116">
      <path clip-path="url(#p6f30344b55)" d="M 161.910687 256.200342 
L 277.590688 256.200342 
" style="fill:none;stroke:#ffffff;stroke-linecap:square;stroke-width:0.5;"/>
     </g>
    </g>
    <g id="ytick_44">
     <g id="line2d_117">
      <path clip-path="url(#p6f30344b55)" d="M 161.910687 227.296306 
L 277.590688 227.296306 
" style="fill:none;stroke:#ffffff;stroke-linecap:square;stroke-width:0.5;"/>
     </g>
    </g>
    <g id="ytick_45">
     <g id="line2d_118">
      <path clip-path="url(#p6f30344b55)" d="M 161.910687 198.392269 
L 277.590688 198.392269 
" style="fill:none;stroke:#ffffff;stroke-linecap:square;stroke-width:0.5;"/>
     </g>
    </g>
   </g>
   <g id="LineCollection_5">
    <path clip-path="url(#p6f30344b55)" d="M 161.910687 256.200342 
L 277.590688 256.200342 
" style="fill:none;stroke:#000000;stroke-dasharray:3.27904,1.417963;stroke-dashoffset:0;stroke-width:0.886227;"/>
   </g>
   <g id="PolyCollection_13">
    <path clip-path="url(#p6f30344b55)" d="M 167.168869 188.862458 
L 167.168869 193.000483 
L 178.853718 188.679962 
L 190.538566 186.517556 
L 202.223415 185.725355 
L 213.908263 185.772645 
L 225.593112 185.43281 
L 237.27796 185.234449 
L 248.962809 185.16092 
L 260.647657 185.156374 
L 272.332506 186.053894 
L 272.332506 181.914825 
L 272.332506 181.914825 
L 260.647657 182.64179 
L 248.962809 182.550757 
L 237.27796 182.481399 
L 225.593112 182.67976 
L 213.908263 183.019595 
L 202.223415 182.972305 
L 190.538566 183.907392 
L 178.853718 186.165378 
L 167.168869 188.862458 
z
" style="fill:#999999;fill-opacity:0.4;"/>
   </g>
   <g id="PolyCollection_14">
    <path clip-path="url(#p6f30344b55)" d="M 167.168869 256.765341 
L 167.168869 270.413296 
L 178.853718 266.217071 
L 190.538566 267.763364 
L 202.223415 273.025784 
L 213.908263 279.840036 
L 225.593112 285.129643 
L 237.27796 290.555061 
L 248.962809 293.666605 
L 260.647657 295.493931 
L 272.332506 298.758156 
L 272.332506 285.106758 
L 272.332506 285.106758 
L 260.647657 287.200378 
L 248.962809 285.057814 
L 237.27796 281.475004 
L 225.593112 276.049586 
L 213.908263 270.759979 
L 202.223415 263.945727 
L 190.538566 259.154573 
L 178.853718 257.923518 
L 167.168869 256.765341 
z
" style="fill:#999999;fill-opacity:0.4;"/>
   </g>
   <g id="PolyCollection_15">
    <path clip-path="url(#p6f30344b55)" d="M 167.168869 193.726184 
L 167.168869 196.340948 
L 178.853718 189.352695 
L 190.538566 185.443043 
L 202.223415 184.226371 
L 213.908263 184.768731 
L 225.593112 184.795441 
L 237.27796 184.807159 
L 248.962809 184.762173 
L 260.647657 184.73342 
L 272.332506 185.249319 
L 272.332506 182.633895 
L 272.332506 182.633895 
L 260.647657 183.144488 
L 248.962809 183.112845 
L 237.27796 183.067543 
L 225.593112 183.055825 
L 213.908263 183.029115 
L 202.223415 182.486755 
L 190.538566 183.793715 
L 178.853718 187.763763 
L 167.168869 193.726184 
z
" style="fill:#999999;fill-opacity:0.4;"/>
   </g>
   <g id="line2d_119">
    <path clip-path="url(#p6f30344b55)" d="M 167.168869 190.93147 
L 178.853718 187.42267 
L 190.538566 185.212474 
L 202.223415 184.34883 
L 213.908263 184.39612 
L 225.593112 184.056285 
L 237.27796 183.857924 
L 248.962809 183.855839 
L 260.647657 183.899082 
L 272.332506 183.98436 
" style="fill:none;stroke:#db5f57;stroke-linejoin:miter;stroke-width:1.772454;"/>
   </g>
   <g id="line2d_120">
    <path clip-path="url(#p6f30344b55)" d="M 167.168869 263.589319 
L 178.853718 262.070295 
L 190.538566 263.458968 
L 202.223415 268.485755 
L 213.908263 275.300008 
L 225.593112 280.589615 
L 237.27796 286.015032 
L 248.962809 289.362209 
L 260.647657 291.347155 
L 272.332506 291.932457 
" style="fill:none;stroke:#57db5f;stroke-linejoin:miter;stroke-width:1.772454;"/>
   </g>
   <g id="line2d_121">
    <path clip-path="url(#p6f30344b55)" d="M 167.168869 195.033566 
L 178.853718 188.558229 
L 190.538566 184.618379 
L 202.223415 183.356563 
L 213.908263 183.898923 
L 225.593112 183.925633 
L 237.27796 183.937351 
L 248.962809 183.937509 
L 260.647657 183.938954 
L 272.332506 183.941607 
" style="fill:none;stroke:#5f57db;stroke-linejoin:miter;stroke-width:1.772454;"/>
   </g>
  </g>
  <g id="axes_6">
   <g id="patch_18">
    <path d="M 282.630688 306.517371 
L 398.310687 306.517371 
L 398.310687 175.981371 
L 282.630688 175.981371 
z
" style="fill:#ebebeb;"/>
   </g>
   <g id="matplotlib.axis_11">
    <g id="xtick_41">
     <g id="line2d_122">
      <path clip-path="url(#pfdca696f99)" d="M 305.416142 306.517371 
L 305.416142 175.981371 
" style="fill:none;stroke:#ffffff;stroke-linecap:square;"/>
     </g>
     <g id="line2d_123">
      <path d="M 305.416142 306.517371 
" style="fill:none;stroke:#333333;stroke-linecap:square;stroke-width:1.5;"/>
      <g>
       <use style="fill:#333333;stroke:#000000;" x="305.416142" xlink:href="#m475d41ce1a" y="306.517371"/>
      </g>
     </g>
     <g id="text_28">
      <!-- 200 -->
      <g style="fill:#4d4d4d;" transform="translate(297.017642 318.153996)scale(0.088 -0.088)">
       <use xlink:href="#DejaVuSans-32"/>
       <use x="63.623047" xlink:href="#DejaVuSans-30"/>
       <use x="127.246094" xlink:href="#DejaVuSans-30"/>
      </g>
     </g>
    </g>
    <g id="xtick_42">
     <g id="line2d_124">
      <path clip-path="url(#pfdca696f99)" d="M 334.628263 306.517371 
L 334.628263 175.981371 
" style="fill:none;stroke:#ffffff;stroke-linecap:square;"/>
     </g>
     <g id="line2d_125">
      <path d="M 334.628263 306.517371 
" style="fill:none;stroke:#333333;stroke-linecap:square;stroke-width:1.5;"/>
      <g>
       <use style="fill:#333333;stroke:#000000;" x="334.628263" xlink:href="#m475d41ce1a" y="306.517371"/>
      </g>
     </g>
     <g id="text_29">
      <!-- 400 -->
      <g style="fill:#4d4d4d;" transform="translate(326.229763 318.153996)scale(0.088 -0.088)">
       <use xlink:href="#DejaVuSans-34"/>
       <use x="63.623047" xlink:href="#DejaVuSans-30"/>
       <use x="127.246094" xlink:href="#DejaVuSans-30"/>
      </g>
     </g>
    </g>
    <g id="xtick_43">
     <g id="line2d_126">
      <path clip-path="url(#pfdca696f99)" d="M 363.840384 306.517371 
L 363.840384 175.981371 
" style="fill:none;stroke:#ffffff;stroke-linecap:square;"/>
     </g>
     <g id="line2d_127">
      <path d="M 363.840384 306.517371 
" style="fill:none;stroke:#333333;stroke-linecap:square;stroke-width:1.5;"/>
      <g>
       <use style="fill:#333333;stroke:#000000;" x="363.840384" xlink:href="#m475d41ce1a" y="306.517371"/>
      </g>
     </g>
     <g id="text_30">
      <!-- 600 -->
      <g style="fill:#4d4d4d;" transform="translate(355.441884 318.153996)scale(0.088 -0.088)">
       <use xlink:href="#DejaVuSans-36"/>
       <use x="63.623047" xlink:href="#DejaVuSans-30"/>
       <use x="127.246094" xlink:href="#DejaVuSans-30"/>
      </g>
     </g>
    </g>
    <g id="xtick_44">
     <g id="line2d_128">
      <path clip-path="url(#pfdca696f99)" d="M 393.052506 306.517371 
L 393.052506 175.981371 
" style="fill:none;stroke:#ffffff;stroke-linecap:square;"/>
     </g>
     <g id="line2d_129">
      <path d="M 393.052506 306.517371 
" style="fill:none;stroke:#333333;stroke-linecap:square;stroke-width:1.5;"/>
      <g>
       <use style="fill:#333333;stroke:#000000;" x="393.052506" xlink:href="#m475d41ce1a" y="306.517371"/>
      </g>
     </g>
     <g id="text_31">
      <!-- 800 -->
      <g style="fill:#4d4d4d;" transform="translate(384.654006 318.153996)scale(0.088 -0.088)">
       <use xlink:href="#DejaVuSans-38"/>
       <use x="63.623047" xlink:href="#DejaVuSans-30"/>
       <use x="127.246094" xlink:href="#DejaVuSans-30"/>
      </g>
     </g>
    </g>
    <g id="xtick_45">
     <g id="line2d_130">
      <path clip-path="url(#pfdca696f99)" d="M 290.810081 306.517371 
L 290.810081 175.981371 
" style="fill:none;stroke:#ffffff;stroke-linecap:square;stroke-width:0.5;"/>
     </g>
    </g>
    <g id="xtick_46">
     <g id="line2d_131">
      <path clip-path="url(#pfdca696f99)" d="M 320.022203 306.517371 
L 320.022203 175.981371 
" style="fill:none;stroke:#ffffff;stroke-linecap:square;stroke-width:0.5;"/>
     </g>
    </g>
    <g id="xtick_47">
     <g id="line2d_132">
      <path clip-path="url(#pfdca696f99)" d="M 349.234324 306.517371 
L 349.234324 175.981371 
" style="fill:none;stroke:#ffffff;stroke-linecap:square;stroke-width:0.5;"/>
     </g>
    </g>
    <g id="xtick_48">
     <g id="line2d_133">
      <path clip-path="url(#pfdca696f99)" d="M 378.446445 306.517371 
L 378.446445 175.981371 
" style="fill:none;stroke:#ffffff;stroke-linecap:square;stroke-width:0.5;"/>
     </g>
    </g>
    <g id="text_32">
     <!-- Train Sample Count -->
     <g transform="translate(160.345063 332.742402)scale(0.11 -0.11)">
      <defs>
       <path d="M -19 4666 
L 3928 4666 
L 3928 4134 
L 2272 4134 
L 2272 0 
L 1638 0 
L 1638 4134 
L -19 4134 
L -19 4666 
z
" id="DejaVuSans-54" transform="scale(0.015625)"/>
       <path d="M 4122 4306 
L 4122 3641 
Q 3803 3938 3442 4084 
Q 3081 4231 2675 4231 
Q 1875 4231 1450 3742 
Q 1025 3253 1025 2328 
Q 1025 1406 1450 917 
Q 1875 428 2675 428 
Q 3081 428 3442 575 
Q 3803 722 4122 1019 
L 4122 359 
Q 3791 134 3420 21 
Q 3050 -91 2638 -91 
Q 1578 -91 968 557 
Q 359 1206 359 2328 
Q 359 3453 968 4101 
Q 1578 4750 2638 4750 
Q 3056 4750 3426 4639 
Q 3797 4528 4122 4306 
z
" id="DejaVuSans-43" transform="scale(0.015625)"/>
      </defs>
      <use xlink:href="#DejaVuSans-54"/>
      <use x="46.333984" xlink:href="#DejaVuSans-72"/>
      <use x="87.447266" xlink:href="#DejaVuSans-61"/>
      <use x="148.726562" xlink:href="#DejaVuSans-69"/>
      <use x="176.509766" xlink:href="#DejaVuSans-6e"/>
      <use x="239.888672" xlink:href="#DejaVuSans-20"/>
      <use x="271.675781" xlink:href="#DejaVuSans-53"/>
      <use x="335.152344" xlink:href="#DejaVuSans-61"/>
      <use x="396.431641" xlink:href="#DejaVuSans-6d"/>
      <use x="493.84375" xlink:href="#DejaVuSans-70"/>
      <use x="557.320312" xlink:href="#DejaVuSans-6c"/>
      <use x="585.103516" xlink:href="#DejaVuSans-65"/>
      <use x="646.626953" xlink:href="#DejaVuSans-20"/>
      <use x="678.414062" xlink:href="#DejaVuSans-43"/>
      <use x="748.238281" xlink:href="#DejaVuSans-6f"/>
      <use x="809.419922" xlink:href="#DejaVuSans-75"/>
      <use x="872.798828" xlink:href="#DejaVuSans-6e"/>
      <use x="936.177734" xlink:href="#DejaVuSans-74"/>
     </g>
    </g>
   </g>
   <g id="matplotlib.axis_12">
    <g id="ytick_46">
     <g id="line2d_134">
      <path clip-path="url(#pfdca696f99)" d="M 282.630688 299.556397 
L 398.310687 299.556397 
" style="fill:none;stroke:#ffffff;stroke-linecap:square;"/>
     </g>
    </g>
    <g id="ytick_47">
     <g id="line2d_135">
      <path clip-path="url(#pfdca696f99)" d="M 282.630688 270.652361 
L 398.310687 270.652361 
" style="fill:none;stroke:#ffffff;stroke-linecap:square;"/>
     </g>
    </g>
    <g id="ytick_48">
     <g id="line2d_136">
      <path clip-path="url(#pfdca696f99)" d="M 282.630688 241.748324 
L 398.310687 241.748324 
" style="fill:none;stroke:#ffffff;stroke-linecap:square;"/>
     </g>
    </g>
    <g id="ytick_49">
     <g id="line2d_137">
      <path clip-path="url(#pfdca696f99)" d="M 282.630688 212.844287 
L 398.310687 212.844287 
" style="fill:none;stroke:#ffffff;stroke-linecap:square;"/>
     </g>
    </g>
    <g id="ytick_50">
     <g id="line2d_138">
      <path clip-path="url(#pfdca696f99)" d="M 282.630688 183.940251 
L 398.310687 183.940251 
" style="fill:none;stroke:#ffffff;stroke-linecap:square;"/>
     </g>
    </g>
    <g id="ytick_51">
     <g id="line2d_139">
      <path clip-path="url(#pfdca696f99)" d="M 282.630688 285.104379 
L 398.310687 285.104379 
" style="fill:none;stroke:#ffffff;stroke-linecap:square;stroke-width:0.5;"/>
     </g>
    </g>
    <g id="ytick_52">
     <g id="line2d_140">
      <path clip-path="url(#pfdca696f99)" d="M 282.630688 256.200342 
L 398.310687 256.200342 
" style="fill:none;stroke:#ffffff;stroke-linecap:square;stroke-width:0.5;"/>
     </g>
    </g>
    <g id="ytick_53">
     <g id="line2d_141">
      <path clip-path="url(#pfdca696f99)" d="M 282.630688 227.296306 
L 398.310687 227.296306 
" style="fill:none;stroke:#ffffff;stroke-linecap:square;stroke-width:0.5;"/>
     </g>
    </g>
    <g id="ytick_54">
     <g id="line2d_142">
      <path clip-path="url(#pfdca696f99)" d="M 282.630688 198.392269 
L 398.310687 198.392269 
" style="fill:none;stroke:#ffffff;stroke-linecap:square;stroke-width:0.5;"/>
     </g>
    </g>
   </g>
   <g id="LineCollection_6">
    <path clip-path="url(#pfdca696f99)" d="M 282.630688 256.200342 
L 398.310687 256.200342 
" style="fill:none;stroke:#000000;stroke-dasharray:3.27904,1.417963;stroke-dashoffset:0;stroke-width:0.886227;"/>
   </g>
   <g id="PolyCollection_16">
    <path clip-path="url(#pfdca696f99)" d="M 287.888869 254.427179 
L 287.888869 258.756206 
L 299.573718 258.552663 
L 311.258566 258.913394 
L 322.943415 258.974868 
L 334.628263 258.854003 
L 346.313112 258.423157 
L 357.99796 258.091477 
L 369.682809 258.083458 
L 381.367657 258.242222 
L 393.052506 259.555022 
L 393.052506 255.224903 
L 393.052506 255.224903 
L 381.367657 255.611571 
L 369.682809 255.352815 
L 357.99796 255.211352 
L 346.313112 255.543032 
L 334.628263 255.973878 
L 322.943415 256.094743 
L 311.258566 256.182751 
L 299.573718 255.922011 
L 287.888869 254.427179 
z
" style="fill:#999999;fill-opacity:0.4;"/>
   </g>
   <g id="PolyCollection_17">
    <path clip-path="url(#pfdca696f99)" d="M 287.888869 257.711258 
L 287.888869 261.45958 
L 299.573718 265.76965 
L 311.258566 270.558529 
L 322.943415 275.10061 
L 334.628263 279.327387 
L 346.313112 283.631331 
L 357.99796 287.904853 
L 369.682809 291.895129 
L 381.367657 295.887907 
L 393.052506 300.583916 
L 393.052506 296.834649 
L 393.052506 296.834649 
L 381.367657 293.610137 
L 369.682809 289.530781 
L 357.99796 285.411075 
L 346.313112 281.137553 
L 334.628263 276.833609 
L 322.943415 272.606832 
L 311.258566 268.194181 
L 299.573718 263.49188 
L 287.888869 257.711258 
z
" style="fill:#999999;fill-opacity:0.4;"/>
   </g>
   <g id="PolyCollection_18">
    <path clip-path="url(#pfdca696f99)" d="M 287.888869 251.253706 
L 287.888869 256.03763 
L 299.573718 254.832893 
L 311.258566 254.958542 
L 322.943415 255.495438 
L 334.628263 256.224897 
L 346.313112 256.698078 
L 357.99796 256.801628 
L 369.682809 256.845127 
L 381.367657 257.056328 
L 393.052506 258.420037 
L 393.052506 253.634907 
L 393.052506 253.634907 
L 381.367657 254.149246 
L 369.682809 253.827547 
L 357.99796 253.618858 
L 346.313112 253.515308 
L 334.628263 253.042128 
L 322.943415 252.312668 
L 311.258566 251.940962 
L 299.573718 251.925811 
L 287.888869 251.253706 
z
" style="fill:#999999;fill-opacity:0.4;"/>
   </g>
   <g id="line2d_143">
    <path clip-path="url(#pfdca696f99)" d="M 287.888869 256.591693 
L 299.573718 257.237337 
L 311.258566 257.548072 
L 322.943415 257.534806 
L 334.628263 257.413941 
L 346.313112 256.983094 
L 357.99796 256.651415 
L 369.682809 256.718136 
L 381.367657 256.926896 
L 393.052506 257.389963 
" style="fill:none;stroke:#db5f57;stroke-linejoin:miter;stroke-width:1.772454;"/>
   </g>
   <g id="line2d_144">
    <path clip-path="url(#pfdca696f99)" d="M 287.888869 259.585419 
L 299.573718 264.630765 
L 311.258566 269.376355 
L 322.943415 273.853721 
L 334.628263 278.080498 
L 346.313112 282.384442 
L 357.99796 286.657964 
L 369.682809 290.712955 
L 381.367657 294.749022 
L 393.052506 298.709283 
" style="fill:none;stroke:#57db5f;stroke-linejoin:miter;stroke-width:1.772454;"/>
   </g>
   <g id="line2d_145">
    <path clip-path="url(#pfdca696f99)" d="M 287.888869 253.645668 
L 299.573718 253.379352 
L 311.258566 253.449752 
L 322.943415 253.904053 
L 334.628263 254.633513 
L 346.313112 255.106693 
L 357.99796 255.210243 
L 369.682809 255.336337 
L 381.367657 255.602787 
L 393.052506 256.027472 
" style="fill:none;stroke:#5f57db;stroke-linejoin:miter;stroke-width:1.772454;"/>
   </g>
   <g id="patch_19">
    <path d="M 398.310687 306.517371 
L 412.610687 306.517371 
L 412.610687 175.981371 
L 398.310687 175.981371 
z
" style="fill:#d9d9d9;"/>
   </g>
   <g id="text_33">
    <!-- Signal Removed -->
    <g style="fill:#1a1a1a;" transform="translate(403.032437 205.684996)rotate(-270)scale(0.088 -0.088)">
     <use xlink:href="#DejaVuSans-53"/>
     <use x="63.476562" xlink:href="#DejaVuSans-69"/>
     <use x="91.259766" xlink:href="#DejaVuSans-67"/>
     <use x="154.736328" xlink:href="#DejaVuSans-6e"/>
     <use x="218.115234" xlink:href="#DejaVuSans-61"/>
     <use x="279.394531" xlink:href="#DejaVuSans-6c"/>
     <use x="307.177734" xlink:href="#DejaVuSans-20"/>
     <use x="338.964844" xlink:href="#DejaVuSans-52"/>
     <use x="403.947266" xlink:href="#DejaVuSans-65"/>
     <use x="465.470703" xlink:href="#DejaVuSans-6d"/>
     <use x="562.882812" xlink:href="#DejaVuSans-6f"/>
     <use x="624.064453" xlink:href="#DejaVuSans-76"/>
     <use x="683.244141" xlink:href="#DejaVuSans-65"/>
     <use x="744.767578" xlink:href="#DejaVuSans-64"/>
    </g>
   </g>
  </g>
  <g id="text_34">
   <!-- Simulated Data Classification -->
   <g transform="translate(117.016063 17.229938)scale(0.132 -0.132)">
    <defs>
     <path d="M 1259 4147 
L 1259 519 
L 2022 519 
Q 2988 519 3436 956 
Q 3884 1394 3884 2338 
Q 3884 3275 3436 3711 
Q 2988 4147 2022 4147 
L 1259 4147 
z
M 628 4666 
L 1925 4666 
Q 3281 4666 3915 4102 
Q 4550 3538 4550 2338 
Q 4550 1131 3912 565 
Q 3275 0 1925 0 
L 628 0 
L 628 4666 
z
" id="DejaVuSans-44" transform="scale(0.015625)"/>
     <path d="M 2834 3397 
L 2834 2853 
Q 2591 2978 2328 3040 
Q 2066 3103 1784 3103 
Q 1356 3103 1142 2972 
Q 928 2841 928 2578 
Q 928 2378 1081 2264 
Q 1234 2150 1697 2047 
L 1894 2003 
Q 2506 1872 2764 1633 
Q 3022 1394 3022 966 
Q 3022 478 2636 193 
Q 2250 -91 1575 -91 
Q 1294 -91 989 -36 
Q 684 19 347 128 
L 347 722 
Q 666 556 975 473 
Q 1284 391 1588 391 
Q 1994 391 2212 530 
Q 2431 669 2431 922 
Q 2431 1156 2273 1281 
Q 2116 1406 1581 1522 
L 1381 1569 
Q 847 1681 609 1914 
Q 372 2147 372 2553 
Q 372 3047 722 3315 
Q 1072 3584 1716 3584 
Q 2034 3584 2315 3537 
Q 2597 3491 2834 3397 
z
" id="DejaVuSans-73" transform="scale(0.015625)"/>
    </defs>
    <use xlink:href="#DejaVuSans-53"/>
    <use x="63.476562" xlink:href="#DejaVuSans-69"/>
    <use x="91.259766" xlink:href="#DejaVuSans-6d"/>
    <use x="188.671875" xlink:href="#DejaVuSans-75"/>
    <use x="252.050781" xlink:href="#DejaVuSans-6c"/>
    <use x="279.833984" xlink:href="#DejaVuSans-61"/>
    <use x="341.113281" xlink:href="#DejaVuSans-74"/>
    <use x="380.322266" xlink:href="#DejaVuSans-65"/>
    <use x="441.845703" xlink:href="#DejaVuSans-64"/>
    <use x="505.322266" xlink:href="#DejaVuSans-20"/>
    <use x="537.109375" xlink:href="#DejaVuSans-44"/>
    <use x="614.111328" xlink:href="#DejaVuSans-61"/>
    <use x="675.390625" xlink:href="#DejaVuSans-74"/>
    <use x="714.599609" xlink:href="#DejaVuSans-61"/>
    <use x="775.878906" xlink:href="#DejaVuSans-20"/>
    <use x="807.666016" xlink:href="#DejaVuSans-43"/>
    <use x="877.490234" xlink:href="#DejaVuSans-6c"/>
    <use x="905.273438" xlink:href="#DejaVuSans-61"/>
    <use x="966.552734" xlink:href="#DejaVuSans-73"/>
    <use x="1018.652344" xlink:href="#DejaVuSans-73"/>
    <use x="1070.751953" xlink:href="#DejaVuSans-69"/>
    <use x="1098.535156" xlink:href="#DejaVuSans-66"/>
    <use x="1133.740234" xlink:href="#DejaVuSans-69"/>
    <use x="1161.523438" xlink:href="#DejaVuSans-63"/>
    <use x="1216.503906" xlink:href="#DejaVuSans-61"/>
    <use x="1277.783203" xlink:href="#DejaVuSans-74"/>
    <use x="1316.992188" xlink:href="#DejaVuSans-69"/>
    <use x="1344.775391" xlink:href="#DejaVuSans-6f"/>
    <use x="1405.957031" xlink:href="#DejaVuSans-6e"/>
   </g>
  </g>
 </g>
 <defs>
  <clipPath id="p61bfdd57cb">
   <rect height="130.536" width="115.68" x="41.190688" y="40.405371"/>
  </clipPath>
  <clipPath id="p7a39e23c32">
   <path d="M 432.010688 169.336339 
L 432.010688 153.496339 
L 447.850687 153.496339 
L 447.850687 169.336339 
"/>
  </clipPath>
  <clipPath id="p995926317e">
   <path d="M 432.010688 187.176339 
L 432.010688 171.336339 
L 447.850687 171.336339 
L 447.850687 187.176339 
"/>
  </clipPath>
  <clipPath id="p627f50b8d0">
   <path d="M 432.010688 205.016339 
L 432.010688 189.176339 
L 447.850687 189.176339 
L 447.850687 205.016339 
"/>
  </clipPath>
  <clipPath id="pd64545752e">
   <rect height="130.536" width="115.68" x="161.910687" y="40.405371"/>
  </clipPath>
  <clipPath id="p00cea40cc0">
   <rect height="130.536" width="115.68" x="282.630688" y="40.405371"/>
  </clipPath>
  <clipPath id="p2ec600ff65">
   <rect height="130.536" width="115.68" x="41.190688" y="175.981371"/>
  </clipPath>
  <clipPath id="p6f30344b55">
   <rect height="130.536" width="115.68" x="161.910687" y="175.981371"/>
  </clipPath>
  <clipPath id="pfdca696f99">
   <rect height="130.536" width="115.68" x="282.630688" y="175.981371"/>
  </clipPath>
 </defs>
</svg>
